<!--?xml version="1.0" encoding="utf-8"?-->
<!-- Generator: Adobe Illustrator 15.0.2, SVG Export Plug-In . SVG Version: 6.00 Build 0)  -->

<svg version="1.1" id="Layer_1" xmlns="http://www.w3.org/2000/svg" xmlns:xlink="http://www.w3.org/1999/xlink" x="0px" y="0px" width="570.833px" height="418.833px" viewBox="0 0 570.833 418.833" enable-background="new 0 0 570.833 418.833" xml:space="preserve">
<path fill="#F2A548" stroke="#010101" stroke-width="2" d="M 490.883 359.99 C 484.935 356.258 494.126 352.776 494.392 352.822 C 494.078 352.689 494.712 352.616 494.29 352.412 C 495.332 353.381 495.363 353.86 495.833 354.878 C 497.342 359.608 501.53 359.251 501.385 359.159 C 501.427 359.221 500.983 360.856 500.318 360.517 C 500.686 360.777 496.321 363.55 490.883 359.99"></path>
<path fill="#DA8327" stroke="#010101" stroke-width="2" d="M 465.112 384.03 C 471.004 391.688 475.477 390.818 474.702 390.37 C 480.466 400.027 471.19 394.465 470.315 393.785 C 464.478 389.804 465.367 384.08 465.112 384.03"></path>
<path fill="#F2A548" stroke="#010101" stroke-width="2" d="M 291.448 400.465 C 289.891 403.487 288.346 411.57 288.445 411.497 C 288.563 411.686 285.078 412.131 283.353 411.647 C 281.299 410.891 282.441 407.491 282.357 407.472 C 283.974 401.473 291.397 400.443 291.448 400.465"></path>
<path fill="#DA8327" stroke="#010101" stroke-width="2" d="M 234.422 400.865 C 233.214 403.16 230.322 409.291 235.64 410.392 C 225.176 414.524 222.035 405.206 223.076 405.471 C 221.932 398.961 232.698 400.507 234.422 400.865"></path>
<path fill="#F2A548" stroke="#010101" stroke-width="2" d="M 218.62 278.621 C 219.541 275.321 225.651 269.348 225.605 269.222 C 225.628 269.205 230.4 266.572 227.644 264.305 C 224.881 262.003 226.285 260.345 226.293 260.407 C 226.29 260.329 228.456 260.012 231.567 254.071 C 233.687 249.794 236.361 247.947 237.816 247.243 C 237.824 247.12 237.843 247.232 237.846 247.158 C 238.092 246.987 238.363 247.206 238.599 246.896 C 238.64 246.943 238.683 246.888 238.708 246.862 C 242.185 245.688 245.323 246.339 245.337 246.418 C 243.712 251.539 242.974 252.761 242.603 253.143 C 242.646 252.924 256.858 248.74 256.814 248.723 C 259.322 254.808 258.601 261.517 258.591 261.449 C 261.478 257.717 266.113 251.344 266.111 251.269 C 267.753 254.692 266.931 265.236 266.917 265.087 C 272.444 263.446 273.964 256.883 273.954 256.8 C 276.4 252.551 281.39 254.581 281.4 254.517 C 283.255 257.445 283.655 262.015 283.632 262.086 C 287.174 275.787 271.91 273.496 271.873 273.24 C 286.612 285.535 285.313 295.425 285.178 295.446 C 280.879 290.489 275.92 286.461 275.623 286.173 C 281.39 297.17 277.619 304.656 277.432 304.494 C 256.852 292.283 254.024 305.49 253.788 305.245 C 246.931 308.682 245.582 307.799 245.589 307.899 C 235.115 306.397 231.996 303.528 231.422 302.104 C 231.529 302.639 231.508 302.47 231.419 302.922 C 230.991 303.454 230.72 297.071 231.199 294.618 C 231.729 292.36 229.627 290.379 229.67 290.435 C 226.075 290.541 218.552 279.556 218.585 279.65 C 218.575 279.378 218.548 279.171 218.583 279.01 C 218.491 278.612 218.737 279.133 218.62 278.621"></path>
<path fill="#F2A548" stroke="#010101" stroke-width="2" d="M 242.345 253.194 C 242.341 253.144 242.4 253.324 242.6 253.143 C 242.604 253.196 242.34 253.126 242.345 253.194"></path>
<path fill="#72CCD3" stroke="#010101" stroke-width="2" d="M 246.742 268.663 C 246.767 268.859 244.895 270.269 240.19 271.06 C 240.183 271.07 240.156 271.047 240.127 270.925 C 239.651 267.462 241.28 265.756 241.786 265.216 C 243.912 266.248 245.811 267.768 246.904 268.307 C 246.886 268.291 246.734 268.789 246.742 268.663"></path>
<path fill="#8D2222" stroke="#010101" stroke-width="2" d="M 270.935 229.854 C 270.933 230.005 264.51 233.262 261.17 236.665 C 262.018 235.633 275.836 225.9 304.44 247.187 C 304.619 246.924 311.735 252.45 323.112 262.129 C 326.099 264.689 329.403 267.631 332.932 270.751 C 332.935 270.709 337.785 275.397 337.802 275.347 C 337.839 275.719 327.364 274.21 318.653 268.779 C 321.218 270.241 332.809 278.516 332.163 290.366 C 332.064 290.549 320.124 279.805 319.035 277.09 C 319.241 278.502 331.159 304.531 317.292 313.097 C 316.999 313.155 314.28 301.91 308.295 300.078 C 308.753 300.138 304.956 324.227 307.64 331.603 C 307.692 331.586 313.644 337.584 319.123 340.787 C 319.146 340.788 318.986 340.7 319.148 340.937 C 312.954 343.253 307.237 343.562 302.74 343.035 C 294.445 341.738 289.42 337.432 289.518 337.189 C 289.15 345.544 291.893 347.947 292.162 347.99 C 278.2 345.997 269.781 334.666 265.566 327.722 C 263.377 324.015 262.169 321.39 262.317 321.509 C 260.38 327.268 259.145 336.896 258.623 338.026 C 249.482 322.418 254.451 305.273 253.693 305.27 C 254.162 305.452 256.77 292.305 277.447 304.489 C 277.6 304.661 281.403 297.165 275.622 286.173 C 275.924 286.459 280.878 290.488 285.179 295.445 C 285.314 295.424 286.613 285.534 271.874 273.239 C 271.911 273.495 287.175 275.786 283.633 262.085 C 283.656 262.013 283.256 257.444 281.401 254.516 C 281.391 254.58 276.401 252.55 273.955 256.799 C 273.965 256.882 272.444 263.444 266.918 265.086 C 266.931 265.235 267.754 254.691 266.112 251.268 C 266.114 251.343 261.479 257.716 258.592 261.448 C 258.602 261.516 259.323 254.806 256.815 248.722 C 256.859 248.739 242.647 252.923 242.604 253.143 C 242.975 252.76 243.713 251.537 245.339 246.419 C 245.323 246.335 242.187 245.688 238.709 246.862 C 238.684 246.889 238.64 246.94 238.6 246.895 C 238.363 247.197 238.094 247.002 237.847 247.154 C 237.84 247.197 237.833 247.195 237.811 247.185 C 237.007 247.778 236.136 247.915 235.378 248.818 C 235.358 248.694 234.53 243.984 239.279 234.334 C 239.27 234.396 246.294 224.062 253.766 226.046 C 253.764 226.178 251.051 232.628 249.118 238.233 C 249.561 237.204 257.946 221.414 270.935 229.854"></path>
<path fill="#DA8327" stroke="#010101" stroke-width="2" d="M 234.983 399.865 C 234.473 399.598 241.099 400.988 241.089 400.896 C 255.831 392.811 267.834 354.874 270.532 350.889 C 266.03 346.159 265.053 329.211 265.592 327.729 C 269.739 334.656 278.221 345.993 292.155 347.982 C 291.893 347.94 289.152 345.543 289.509 337.178 C 289.456 337.459 294.375 341.677 302.784 343.068 C 301.696 344.684 294.524 355.109 294.276 354.855 C 274.552 381.668 289.3 381.003 281.52 390.762 C 274.999 399.984 266.266 406.942 264.126 408.306 C 250.674 414.864 236.176 410.635 235.413 410.338 C 230.634 409.337 233.042 403.18 234.437 400.821 C 235.081 400.256 234.804 399.797 234.983 399.865"></path>
<path fill="#F2A548" stroke="#010101" stroke-width="2" d="M 348.304 346.379 C 347.208 342.526 330.325 365.33 330.636 372.476 C 328.977 371.045 320.26 398.692 315.831 401.124 C 315.532 400.476 316.065 408.295 310.851 410.285 C 310.817 410.384 304.824 410.983 304.714 410.927 C 299.851 414.768 288.426 411.69 288.43 411.475 C 288.301 411.54 289.988 403.585 291.367 400.379 C 293.144 397.829 296.7 398.533 297.955 400.273 C 310.828 384.351 320.867 342.417 321.264 342.625 C 320.302 340.779 319.976 341.922 319.111 340.773 C 313.651 337.609 307.681 331.573 307.637 331.604 C 304.953 324.227 308.74 300.134 308.293 300.079 C 314.274 301.909 316.997 313.155 317.289 313.097 C 331.158 304.53 319.239 278.503 319.032 277.089 C 320.121 279.805 332.061 290.549 332.159 290.366 C 332.806 278.516 321.212 270.241 318.651 268.779 C 327.363 274.209 337.836 275.719 337.798 275.348 C 337.782 275.402 332.933 270.674 332.929 270.755 C 329.395 267.624 326.104 264.695 323.103 262.126 C 323.113 262.093 323.17 261.908 323.183 262.008 C 323.12 261.894 337.501 266.117 355.482 273.975 C 356.14 274.008 361.534 275.886 381.456 267.961 C 377.592 265.653 413.062 254.889 433.295 255.476 C 432.417 255.819 451.249 253.988 471.446 272.902 C 470.625 274.748 495.461 293.096 514.256 274.967 C 517.877 273.507 519.509 270.867 522.855 268.122 C 522.667 268.112 523.849 273.998 519.737 278.433 C 519.243 279.121 518.406 279.869 517.764 280.452 C 511.047 285.137 503.888 289.738 496.915 290.901 C 485.707 292.573 471.33 287.783 469.454 285.294 C 466.077 282.817 448.689 272.282 442.237 271.148 C 439.107 270.992 455.354 308.886 469.065 313.271 C 466.62 313.286 483.017 309.529 484.878 312.62 C 488.214 313.717 490.773 323.537 521.704 348.72 C 520.689 348.889 522.68 353.31 511.415 354.846 C 509.297 358.365 502.323 359.638 501.387 359.146 C 501.522 359.26 497.369 359.611 495.816 354.869 C 495.6 353.998 494.911 353.127 494.6 352.594 C 494.737 351.375 494.041 351.405 497.865 348.146 C 499.865 343.869 478.063 332.332 479.288 332.165 C 468.418 321.77 463.986 327.16 463.596 327.177 C 442.596 337.369 426.472 322.871 427.481 322.806 C 421.005 315.37 416.482 315.454 416.189 315.485 C 405.207 310.911 401.488 327.851 401.85 327.673 C 399.997 331.834 398.497 335.493 395.919 337.833 C 386.629 353.107 346.225 341.991 351.859 344.556 C 349.597 343.459 351.267 344.767 349.717 343.724 C 351.16 346.142 347.319 343.574 348.304 346.379"></path>
<path fill="#DA8327" stroke="#010101" stroke-width="2" d="M 453.669 351.855 C 453.472 352.007 467.956 359.807 476.067 373.565 C 475.506 373.346 476.165 387.319 475.141 390.643 C 474.845 390.418 471.374 391.933 465.049 383.98 C 465.661 384.338 464.207 379.781 460.275 374.22 C 459.943 374.11 444.381 357.657 432.97 353.253 C 420.491 347.539 397.521 339.432 396.184 337.957 C 398.132 335.325 400.211 331.933 401.815 327.657 C 401.546 327.873 405.142 310.89 416.2 315.48 C 416.364 315.468 421.198 315.337 427.339 322.827 C 427.653 322.841 422.489 330.91 432.379 337.692 C 440.902 343.677 450.71 350.109 453.661 351.953 C 453.634 351.943 453.732 351.978 453.669 351.855"></path>
<path fill="#8D2222" stroke="#010101" stroke-width="2" d="M 524.247 247.229 C 524.421 247.048 535.875 250.881 532.454 263.017 C 532.634 262.805 534.898 261.991 535.978 255.92 C 534.798 256.069 544.202 279.203 519.757 278.281 C 519.863 278.657 519.844 278.386 519.749 278.439 C 523.783 273.973 522.758 268.145 522.789 268.099 C 519.942 271.019 517.133 273.245 514.778 275.151 C 514.769 275.182 514.706 274.948 514.641 275.051 C 514.832 274.695 500.732 266.416 511.934 254.118 C 511.998 254.204 513.662 262.096 513.737 262.158 C 513.633 262.071 514.934 252.643 524.247 247.229"></path>
<path fill="#8D2222" stroke="#010101" d="M 218.563 278.882 C 218.554 278.777 218.636 278.886 218.658 278.778 C 218.815 279.013 218.929 278.517 219.288 279.012 C 222.259 281.362 229.385 280.858 229.397 281.003 C 225.728 285.386 222.577 284.238 222.685 284.889 C 222.494 283.787 219.215 280.655 218.563 278.882"></path>
<path fill="none" stroke="#010101" stroke-width="2" d="M 325.519 343.402 C 324.412 343.409 322.955 342.882 321.194 342.029 C 320.404 341.582 319.926 341.496 319.114 340.792 C 313.648 337.577 307.687 331.589 307.637 331.6 C 304.973 324.234 308.729 300.127 308.297 300.079 C 314.269 301.905 317.006 313.156 317.285 313.095 C 331.182 304.533 319.205 278.496 319.054 277.093 C 318.837 276.975 319.023 277.076 318.955 277.025 C 318.96 277.019 318.929 276.996 318.935 276.991"></path>
<path fill="none" stroke="#010101" stroke-width="2" d="M 506.184 349.161 C 507.325 349.606 502.18 356.248 511.1 354.754 C 523.102 353.438 520.461 348.824 521.713 348.725 C 490.754 323.533 488.217 313.718 484.872 312.62 C 483.015 309.53 466.615 313.286 469.062 313.271 C 455.35 308.886 439.104 270.991 442.233 271.147 C 448.686 272.281 466.073 282.816 469.45 285.294 C 471.327 287.782 485.704 292.573 496.911 290.9 C 503.885 289.737 511.044 285.136 517.76 280.45 C 518.403 279.867 519.24 279.12 519.734 278.432 C 523.845 273.996 522.664 268.11 522.851 268.12 C 519.511 270.865 517.873 273.506 514.253 274.965 C 495.457 293.096 470.622 274.747 471.443 272.901 C 451.246 253.986 432.413 255.817 433.292 255.475 C 413.054 254.885 377.598 265.656 381.452 267.959 C 361.533 275.885 356.136 274.006 355.479 273.973 C 337.497 266.116 323.117 261.892 323.18 262.006"></path>
<path fill="none" stroke="#010101" stroke-width="2" d="M 304.664 400.226 C 300.634 402.788 304.559 410.7 304.757 410.995 C 299.801 414.674 288.463 411.749 288.429 411.467 C 288.317 411.555 289.98 403.578 291.373 400.381 C 293.162 397.841 296.699 398.534 297.959 400.269 C 310.84 384.372 320.863 342.383 321.272 342.645 C 320.937 340.789 321.202 342.307 321.056 341.49"></path>
<path fill="none" stroke="#010101" stroke-width="2" d="M 304.749 411.014 C 304.787 410.863 310.844 410.454 310.855 410.277 C 316.07 408.309 315.53 400.475 315.837 401.125 C 320.264 398.689 328.98 371.045 330.643 372.479 C 330.316 365.322 347.234 342.537 348.293 346.374 C 347.754 343.746 350.321 345.813 350.336 343.967 C 358.002 333.878 347.843 319.966 349.357 320.528"></path>
<path fill="none" stroke="#010101" stroke-width="2" d="M 247.664 269.15 C 247.696 268.769 247.33 269.368 246.899 268.309 C 245.824 267.847 243.888 266.092 241.797 265.335 C 239.941 264.621 237.995 263.828 236.545 264.109"></path>
<path fill="none" stroke="#010101" stroke-width="2" d="M 237.758 271.319 C 238.606 270.751 239.442 271.108 240.189 271.096 C 244.884 270.19 246.769 268.917 246.737 268.65"></path>
<path fill="none" stroke="#010101" stroke-width="2" d="M 247.409 297.306 C 246.309 297.398 244.84 296.801 244.835 296.86 C 239.966 293.879 234.647 293.504 234.617 293.228"></path>
<path fill="none" stroke="#010101" stroke-width="2" d="M 475.325 383.049 C 469.435 386.551 466.632 376.82 466.985 377.111"></path>
<path fill="none" stroke="#010101" stroke-width="2" d="M 246.761 411.875 C 233.895 403.301 249.02 403.25 248.741 403.304"></path>
<g>
	<path fill="#FFFFFF" stroke="#010101" stroke-width="2" d="M 343.295 190.451 C 343.299 190.436 343.336 190.48 343.425 190.493 C 343.918 190.783 345.863 192.123 347.694 196.419 C 348.235 197.66 348.763 199.176 349.25 200.951 C 349.877 203.21 350.419 205.964 350.855 209.181 C 350.863 209.965 351.052 210.197 351.061 210.917 C 353.026 225.504 353.382 231.837 353.386 231.8 C 353.398 231.797 353.197 233.368 353.156 235.768 C 352.979 243.849 354.363 261.85 368.739 266.479 C 371.891 267.526 374.922 267.849 377.404 268.175 C 382.422 268.206 385.978 267.318 389.284 265.956 C 394.543 263.722 398.034 260.437 399.504 259.422 C 400.475 258.722 401.087 258.531 401.887 258.578 C 403.056 258.65 404.015 259.929 403.796 259.808 C 404.073 260.124 411.59 264.068 417.706 255.596 C 418.236 255.493 418.68 255.182 418.467 254.817"></path>
	<g id="XMLID_1_">
		<g>
			<path fill="#4C4B54" d="M 342.774 178.145 C 342.906 179.482 343.838 180.33 344.824 180.151 C 345.812 179.956 346.521 178.687 346.366 177.439 C 346.258 176.053 345.33 175.197 344.332 175.411 C 343.335 175.609 342.616 176.903 342.774 178.145 M 396.698 239.042 C 395.194 232.411 384.779 237.202 384.579 236.885 C 384.547 236.803 384.383 236.952 384.459 236.855 C 384.649 239.259 385.011 240.322 384.931 240.364 C 371.921 238.06 373.327 212.206 373.696 206.358 C 373.782 206.285 373.595 206.586 373.694 206.384 C 370.994 199.56 367.531 195.836 363.916 194.197 C 356.124 190.596 347.701 196.546 347.741 196.413 C 347.741 196.413 347.674 196.503 347.696 196.42 C 345.866 192.125 343.922 190.773 343.426 190.5 C 338.838 191.604 334.286 193.097 333 192.539 C 332.991 192.56 332.993 192.547 333.007 192.526 C 333.035 192.459 344.325 188.59 349.141 187.059 C 349.109 187.101 349.13 187.066 349.127 187.059 C 352.515 186.21 353.685 183.398 353.217 183.732 C 352.568 184.581 351.21 184.078 351.114 184.344 C 339.288 185.193 334.026 190.184 332.825 191.359 C 332.897 191.176 333.007 190.966 333.138 190.815 C 334.894 188.04 338.272 185.47 341.138 183.525 C 340.993 181.772 340.392 159.654 361.995 157.769 C 361.876 158.095 367.685 159.78 369.279 168.126 C 369.981 170.648 370.625 172.667 371.346 174.374 C 371.285 174.52 371.217 174.465 371.187 174.556 C 371.216 174.463 359.819 179.955 364.352 187.119 C 368.875 194.115 375.854 187.69 375.512 182.034 C 375.779 182.693 376.283 183.023 376.626 183.567 C 378.152 186.32 379.622 190.784 383.908 199.462 C 387.986 208.188 396.804 213.656 406.018 242.732 C 404.966 242.255 405.987 242.717 405.692 242.438 C 406.771 245.655 410.081 258.431 417.778 255.603 C 411.488 264.052 404.14 260.129 403.784 259.803 C 404.02 259.918 403.077 258.667 401.865 258.561 C 401.978 258.628 401.72 258.119 401.993 258.157 C 397.566 253.408 396.757 239.178 396.698 239.042 M 359.253 174.208 C 359.172 172.631 358.247 171.451 357.137 171.71 C 356.042 171.908 355.253 173.276 355.332 174.881 C 355.439 176.411 356.417 177.468 357.481 177.334 C 358.566 177.126 359.348 175.754 359.253 174.208"></path>
			<path fill="#FDB849" d="M 349.139 187.06 C 344.325 188.591 333.033 192.46 333.004 192.528 C 332.985 192.572 332.998 192.513 332.991 192.577 C 332.73 192.118 332.476 192.363 332.821 191.372 C 334.026 190.173 339.283 185.206 351.111 184.345 C 351.205 184.088 352.567 184.578 353.214 183.738 C 353.68 183.404 352.514 186.21 349.125 187.063 C 349.129 187.068 349.106 187.103 349.139 187.06"></path>
			<path fill="#FDB849" d="M 403.941 259.826 C 403.779 260.136 411.814 276.087 400.482 270.463 C 400.797 270.285 397.693 279.167 394.843 270.667 C 395.138 270.474 391.026 281.09 386.674 276.32 C 386.576 276.399 384.134 272.845 389.24 266.021 C 389.44 265.993 389.273 266.005 389.277 265.95 C 394.548 263.723 398.026 260.432 399.505 259.421 C 400.459 258.717 401.112 258.534 401.867 258.574 C 403.176 258.667 403.811 259.898 403.941 259.826"></path>
			<path fill="#FDB849" d="M 371.374 174.298 C 372.529 177.147 374.024 178.71 375.517 182.023 C 375.847 187.708 368.879 194.108 364.352 187.122 C 359.82 179.953 371.215 174.465 371.187 174.557 C 371.236 174.415 371.248 174.624 371.374 174.298"></path>
			<path fill="#FDB849" d="M 377.454 268.065 C 377.583 268.264 377.44 268.172 377.546 268.274 C 377.492 268.13 377.87 271.088 377.802 271.118 C 377.452 282.848 371.861 275.375 371.857 275.33 C 368.227 283.209 367.734 275.605 367.915 275.384 C 362.198 283.248 360.681 277.295 360.769 277.133 C 359.467 272.461 368.634 266.512 368.77 266.477 C 371.883 267.45 374.877 267.996 377.454 268.065"></path>
			<path fill="#FBF060" d="M 363.915 194.191 C 363.922 194.164 363.865 194.334 363.89 194.308 C 361.228 199.688 349.624 201.182 349.26 200.926 C 348.751 199.212 348.243 197.641 347.696 196.421 C 347.672 196.506 347.741 196.411 347.739 196.416 C 347.702 196.54 356.12 190.605 363.915 194.191"></path>
			<path fill="#9F5925" d="M 357.137 171.71 C 358.247 171.451 359.172 172.631 359.253 174.208 C 359.348 175.754 358.566 177.126 357.481 177.334 C 356.417 177.468 355.439 176.411 355.332 174.881 C 355.253 173.276 356.042 171.908 357.137 171.71 M 357.234 173.663 C 357.195 173.205 356.883 172.867 356.55 172.902 C 356.134 173.189 356.128 172.951 355.959 173.968 C 356.081 174.215 356.285 174.847 356.688 174.598 C 356.956 174.725 357.387 173.842 357.234 173.663"></path>
			<path fill="#9F5925" d="M 356.551 172.902 C 356.884 172.867 357.195 173.206 357.234 173.663 C 357.387 173.842 356.956 174.725 356.689 174.598 C 356.287 174.847 356.082 174.215 355.96 173.968 C 356.13 172.951 356.136 173.189 356.551 172.902"></path>
			<path fill="#4C4B54" d="M 350.973 210.94 C 350.996 210.765 351.144 210.714 351.058 210.927 C 353.032 225.491 353.379 231.848 353.387 231.798 C 353.389 231.812 353.214 233.345 353.145 235.785 C 353.183 235.746 352.995 235.815 353.072 235.763 C 349.874 240.523 350.064 242.246 349.958 242.443 C 344.44 230.836 350.856 211.2 350.973 210.94"></path>
			<path fill="#9F5925" d="M 344.334 175.409 C 345.331 175.2 346.258 176.053 346.367 177.439 C 346.524 178.682 345.812 179.953 344.826 180.152 C 343.838 180.329 342.907 179.483 342.776 178.143 C 342.615 176.907 343.336 175.604 344.334 175.409 M 344.486 176.963 C 344.453 176.465 344.108 176.352 343.888 176.244 C 343.671 176.116 343.455 176.589 343.464 177.194 C 343.529 177.584 343.884 177.658 344.05 177.939 C 344.443 177.504 344.543 177.395 344.486 176.963"></path>
			<path fill="#9F5925" d="M 343.889 176.244 C 344.109 176.352 344.454 176.465 344.487 176.963 C 344.544 177.396 344.443 177.504 344.051 177.939 C 343.885 177.657 343.53 177.584 343.465 177.193 C 343.458 176.589 343.672 176.116 343.889 176.244"></path>
		</g>
		<g>
			<path fill="none" stroke="#010101" stroke-width="2" d="M 341.144 183.662 C 341.142 183.659 341.144 183.625 341.13 183.535 C 341.025 181.705 340.337 159.774 362.032 157.686"></path>
			<path fill="none" stroke="#000000" stroke-width="0.5" stroke-linecap="round" stroke-linejoin="round" d="M 349.245 200.935 C 349.253 200.917 349.244 200.952 349.265 200.914 C 349.62 201.197 361.232 199.677 363.89 194.309"></path>
			<path fill="none" stroke="#010101" stroke-width="2" d="M 361.893 158.002 C 362.021 157.763 367.594 159.984 369.293 168.09 C 369.967 170.672 370.615 172.697 371.358 174.336 C 372.564 177.066 373.984 178.783 375.533 181.993 C 375.745 182.75 376.297 182.998 376.623 183.567 C 378.15 186.33 379.621 190.776 383.908 199.46 C 387.981 208.192 396.808 213.657 406.013 242.733 C 404.94 242.409 406.101 243 405.61 243.01"></path>
			<path fill="none" stroke="#010101" stroke-width="2" d="M 345.784 180.626 C 345.674 180.976 343.7 181.696 341.123 183.577 C 338.292 185.395 334.881 188.094 333.14 190.803 C 332.983 191.062 332.934 191.015 332.799 191.474 C 332.515 192.195 332.703 192.24 333.002 192.534 C 334.28 193.118 338.848 191.568 343.419 190.522 C 346.349 189.876 349.286 189.362 351.195 190.064"></path>
			<path fill="none" stroke="#010101" stroke-width="2" d="M 403.951 259.824 C 403.766 260.139 411.822 276.085 400.48 270.463 C 400.799 270.284 397.691 279.167 394.844 270.667 C 395.137 270.474 391.026 281.09 386.674 276.32 C 386.576 276.399 384.135 272.845 389.239 266.021"></path>
			<path fill="none" stroke="#010101" stroke-width="2" d="M 368.788 266.469 C 368.607 266.533 359.482 272.452 360.765 277.138 C 360.683 277.295 362.196 283.253 367.914 275.386 C 367.732 275.608 368.226 283.211 371.856 275.332 C 371.859 275.378 377.451 282.849 377.799 271.122 C 377.858 271.099 377.5 268.125 377.543 268.278"></path>
			<path fill="none" stroke="#010101" stroke-width="2" d="M 405.61 242.253 C 405.617 242.237 405.662 242.503 405.68 242.439 C 406.812 245.664 410.014 258.423 417.82 255.613 C 417.289 255.56 418.78 255.784 418.29 255.67"></path>
			<path fill="none" stroke="#010101" stroke-width="2" d="M 373.852 205.198 C 373.76 205.379 373.935 205.314 373.696 206.357 C 373.323 212.208 371.917 238.06 384.931 240.364 C 384.957 240.332 384.75 239.241 384.383 236.869 C 384.004 234.987 383.874 232.014 383.538 227.979 C 383.579 227.848 389.621 220.656 388.948 216.033"></path>
			<path fill="none" stroke="#010101" stroke-width="2" d="M 350.973 210.941 C 350.856 211.199 344.44 230.836 349.957 242.442 C 350.059 242.248 349.881 240.518 353.062 235.768"></path>
			<path fill="none" stroke="#010101" stroke-width="2" d="M 355.332 174.881 C 355.439 176.411 356.417 177.468 357.481 177.334 C 358.566 177.126 359.348 175.754 359.253 174.208 C 359.172 172.631 358.247 171.451 357.137 171.71 C 356.042 171.908 355.253 173.276 355.332 174.881"></path>
			<path fill="none" stroke="#010101" stroke-width="2" d="M 342.774 178.145 C 342.906 179.482 343.838 180.33 344.824 180.151 C 345.812 179.956 346.521 178.687 346.366 177.439 C 346.258 176.053 345.33 175.197 344.332 175.411 C 343.335 175.609 342.616 176.903 342.774 178.145"></path>
			<path fill="none" stroke="#010101" d="M 349.139 187.06 C 344.325 188.591 333.033 192.46 333.004 192.528"></path>
			<path fill="none" stroke="#010101" d="M 347.74 196.413 C 347.7 196.546 356.123 190.596 363.914 194.197 C 367.531 195.837 370.993 199.561 373.694 206.384"></path>
			<path fill="none" stroke="#010101" d="M 384.579 236.885 C 384.777 237.202 395.193 232.412 396.697 239.042 C 396.758 239.179 397.561 253.408 401.992 258.159"></path>
			<path fill="none" stroke="#010101" d="M 371.184 174.561 C 371.217 174.46 359.817 179.958 364.352 187.12 C 368.873 194.117 375.855 187.692 375.51 182.035 C 375.62 181.695 375.489 181.901 375.533 181.697"></path>
			<path fill="none" stroke="#010101" d="M 332.495 191.886 C 332.55 191.65 332.525 192.021 332.824 191.365 C 334.024 190.181 339.285 185.199 351.113 184.345 C 351.208 184.081 352.567 184.582 353.215 183.734 C 353.682 183.401 352.514 186.211 349.125 187.062 C 348.993 187.123 348.88 187.114 348.732 187.19"></path>
		</g>
	</g>
</g>
</svg>
