<?xml version="1.0" encoding="utf-8"?>
<!-- Generator: Adobe Illustrator 15.0.2, SVG Export Plug-In . SVG Version: 6.00 Build 0)  -->
<!DOCTYPE svg PUBLIC "-//W3C//DTD SVG 1.1//EN" "http://www.w3.org/Graphics/SVG/1.1/DTD/svg11.dtd">
<svg version="1.1" id="Layer_1" xmlns="http://www.w3.org/2000/svg" xmlns:xlink="http://www.w3.org/1999/xlink" x="0px" y="0px"
	 width="512.565px" height="582.604px" viewBox="93.701 151.476 512.565 582.604"
	 enable-background="new 93.701 151.476 512.565 582.604" xml:space="preserve">
<g>
	<path fill="#FFE563" stroke="#E8D46D" stroke-width="3.1718" stroke-linejoin="bevel" stroke-miterlimit="10" d="M559.979,577.86
		c-3.938,5-14.116,26.31-28.845,33.868c-14.765,7.725-23.555,7.005-39.974,3.588c-16.302-3.538-33.723-5.453-47.646-10.823
		c-13.79-5.571-27.548-0.237-34.302,0.866c-6.407,0.881-25.254,7.757-32.306,11.247c-6.773,3.342-16.357,8.263-21.927,9.6
		c-5.412,1.335-25.478,8.104-36.021,7.125c-10.404-0.978-20.518,0.327-33.606-6.14c-13.071-6.482-25.679-11.645-37.007-20.236
		c-11.348-8.61-15.249-21.62-24.884-28.515c-9.67-6.926-16.44-11.582-22.654-13.476c-6.067-1.902-8.834-5.036-15.104-2.601
		c1.699,7.915,20.389,39.938,35.381,48.477c14.275,8.511,26.136,16.067,46.508,21.623c20.173,5.983,63.927,7.933,101.875,1.412
		c38.059-6.442,66.025-6.219,90.273-7.063c23.901-1.007,52.94,1.198,66.796-2.684c13.502-3.596,19.981-9.694,23.961-15.08
		C554.584,603.537,558.985,594.212,559.979,577.86"/>
	<path fill="#7BD968" stroke="#598C4E" stroke-width="3.1718" stroke-linejoin="bevel" stroke-miterlimit="10" d="M103.95,628.424
		c-0.101,5.149-0.647,21.105,7.731,29.688c13.754,14.176,31.975,8.479,37.04,8.268c5.002-0.251,29.815,0.406,46.409-26.032
		c16.95-26.466,33.713-36.813,43.549-43.458c-5.037-6.803-8.916-13.928-15.218-18.442c-9.662-6.923-16.453-11.584-22.644-13.476
		c-6.157-1.902-8.703-5.03-15.215-2.601c-0.497,0.188-1.039,0.396-1.506,0.598c-7.287,10.058-20.67,20.554-29.951,22.143
		c-9.475,1.573-23.204,3.378-26.905,3.629c-2.847,0.161-5.276,3.107-6.316,3.714C113.083,598.312,103.902,615.025,103.95,628.424"/>
	<path fill="#7BD968" stroke="#598C4E" stroke-width="3.1718" stroke-linejoin="bevel" stroke-miterlimit="10" d="M342.519,629.699
		c-7.84,2.105-17.406,4.203-23.548,3.631c-10.431-0.975-20.519,0.325-33.618-6.138c-3.206-1.612-6.475-3.114-9.556-4.645
		c-9.556,9.37-21.854,30.883-23.866,39.099c-2.305,8.271-4.646,22.707,5.254,36.368c9.872,13.609,8.857,18.4,12.396,24.284
		c3.548,5.857,4.569,10.935,13.65,10.106c9.086-0.845,13.348-7.439,18.797-15.114c5.439-7.671,16.612-17.197,25.626-29.773
		c7.331-10.201,12.169-18.931,14.47-26.851c2.183-7.874,0.33-30.263,0.429-30.309c-0.042,0.02-0.013-0.66-0.034-0.651
		c0.011-0.005-0.002-0.005,0.003-0.008C342.518,629.7,342.525,629.7,342.519,629.699"/>
	<path fill="#7BD968" stroke="#598C4E" stroke-width="3.1718" stroke-linejoin="bevel" stroke-miterlimit="10" d="M561.214,576.056
		c3.767-6.071,9.402-19.842,13.701-20.275c4.743-0.367,9.099,3.204,10.715,1.936c8.922,2.681,19.154,8.007,19.05,15.587
		c-0.092,7.56-2.937,7.704-6.218,10.313c-3.264,2.584-9.879,2.157-14.649,0.503C578.998,582.576,565.738,579.527,561.214,576.056"/>
	<path fill="#7BD968" stroke="#598C4E" stroke-width="3.1718" stroke-linejoin="bevel" stroke-miterlimit="10" d="M520.058,616.291
		c-9.032,2.546-17.025,1.53-28.891-0.989c-10.005-2.132-20.408-3.736-30.172-5.84c-0.589,14.764-0.468,40.745,22.961,60.205
		c12.388,10.385,19.406,11.277,27.038,15.08c7.644,3.804,17.673,16.925,31.083,19.489c6.678,1.307,9.345,0.701,12.87-3.294
		c3.548-4.008,4.423-5.06,4.272-9.311c-0.183-4.272-0.682-19.36-5.23-27.958c-4.624-8.556-12.246-21.106-16.521-26.859
		c-4.418-5.548-17.426-19.796-17.34-19.909c-0.036,0.048-0.048-0.638-0.066-0.613c0.01-0.012-0.005,0.003,0-0.003
		C520.058,616.292,520.068,616.29,520.058,616.291"/>
	<path fill="#94AEFF" stroke="#4464C7" stroke-width="3.1718" stroke-linejoin="bevel" stroke-miterlimit="10" d="M120.914,592.446
		c5.059,0.861,7.353,10.102,7.376,10.102c4.478-1.612,6.818-0.854,8.434-0.089c1.557-6.223,7.766-13.684,15.496-13.979
		c7.806-0.293,14.861-1.092,17.774,13.897c10.637-0.578,21.364-7.444,25.563-7.099c4.134,0.362,7.444,2.854,7.827,4.212
		c0.373,1.358,2.388,6.596,2.388,8.347c-0.024,1.754-0.873,4.876-2.982,5.484c-2.109,0.609-4.635-1.117-5.253-2.863
		c-0.629-1.747-0.384-4.674-1.833-5.439c-1.424-0.765-3.766-0.166-5.165,0.425c-1.602,0.615-18.973,5.505-21.008,6.275
		c-0.831,6.057-6.06,16.162-16.835,16.565c-10.703,0.41-12.588-3.742-13.617-7.886c-0.991-4.142-1.909-7.443-1.911-7.443
		c-4.886,0.428-3.983,0.224-7.201,0.253c-1.962,7.031-6.298,17.142-16.62,17.557c-10.232,0.444-15.656-5.563-14.475-19.903
		c-5.085-0.548-3.269-1.591-3.272-1.595c1.102-7.358,1.146-7.353,1.134-7.353c-0.013-0.008,6.769,0.083,6.792,0.098
		C105.283,592.119,117.518,591.844,120.914,592.446"/>
	<path fill="#FFFFFF" stroke="#4464C7" stroke-width="3.1718" stroke-linejoin="bevel" stroke-miterlimit="10" d="M109.771,600.143
		c5.906-3.149,13.442,1.554,14.503,5.227c0.979,3.665-0.058,14.925-4.804,17.99c-4.81,3.06-12.755,2.485-14.372-2.049
		C103.4,616.77,102.967,603.718,109.771,600.143"/>
	<path fill="#E0B577" stroke="#A87C3B" stroke-width="3.1718" stroke-linejoin="bevel" stroke-miterlimit="10" d="M110.293,610.856
		c1.432-2.261,7.027-2.505,8.588-0.202c1.548,2.296,0.527,5.349-1.023,6.29c-1.565,0.938-6.148,4.54-7.539,1.853
		C108.929,616.118,108.41,613.817,110.293,610.856"/>
	<path fill="#FFFFFF" stroke="#4464C7" stroke-width="3.1718" stroke-linejoin="bevel" stroke-miterlimit="10" d="M143.757,617.982
		c-2.925-7.252-2.664-13.654,0.078-17.066c2.732-3.404,10.477-6.188,15.587-0.738c5.126,5.461,6.549,10.133,5.158,13.126
		c-1.401,2.992-5.661,8.793-9.743,8.958C150.724,622.426,145.346,621.905,143.757,617.982"/>
	<path fill="#E0B577" stroke="#A87C3B" stroke-width="3.1718" stroke-linejoin="bevel" stroke-miterlimit="10" d="M148.243,607.852
		c1.768-1.462,8.28,0.509,8.871,1.707c0.559,1.198-0.19,4.396-1.137,4.453c-0.971,0.057-6.982,2.865-8.487,0.012
		C145.981,611.161,145.616,610.002,148.243,607.852"/>
	<path fill="#C79C52" stroke="#806434" stroke-width="3.1718" stroke-linejoin="bevel" stroke-miterlimit="10" d="M459.682,413.175
		c-15.567-9.018-40.417-14.431-54.943-14.761c-9.146-0.673-22.861,2.734-37.116,7.569c4.218,3.979,12.111,18.353,12.906,38.825
		c16.059-9.07,52.212-7.877,63.354-0.456C449.885,438.169,457.721,422.812,459.682,413.175"/>
	<path fill="#C79C52" stroke="#806434" stroke-width="3.1718" stroke-linejoin="bevel" stroke-miterlimit="10" d="M469.271,492.957
		c-3.281-17.696-13.856-33.572-25.356-48.724c5.92-5.949,13.833-21.421,15.765-31.124c3.485,1.974,6.438,3.788,8.827,5.832
		c12.656,10.008,40.614,37.568,51.652,53.139c9.025,13.076,17.419,29.467,22.737,38.143c-19.207-6.898-45.617-17.439-55.828-18.759
		C476.6,490.064,469.302,492.956,469.271,492.957"/>
	<path fill="#C79C52" stroke="#806434" stroke-width="3.1718" stroke-linejoin="bevel" stroke-miterlimit="10" d="M542.909,510.228
		c-19.244-6.903-45.617-17.443-55.847-18.759c-10.448-1.432-17.788,1.54-17.774,1.448c-4.57,3.776-21.486,36.168-21.372,35.999
		c-0.155,12.518,5.662,16.562,9.577,25.537c3.958,8.909,8.204,23.633,10.75,37.896c14.278,4.086,36.099,11.512,51.824,3.509
		c18.093-9.27,16.615-18.286,24.479-31.98c7.027-12.043,14.398-24.867,27.552-24.575c0.008-0.013-0.017,0.033,0.008-0.014
		c-10.161-5.248-21.973-18.019-26.567-24.843C544.793,513.383,543.831,511.956,542.909,510.228"/>
	<path fill="#C79C52" stroke="#806434" stroke-width="3.1718" stroke-linejoin="bevel" stroke-miterlimit="10" d="M385.476,513.95
		c-25.395,22.966-41.165,78.135-38.716,92.916c2.19-0.697,4.925-1.798,7.742-2.845c27.74-10.803,32.651-11.506,46.055-17.548
		c12.948-5.852,21.03-3.399,28.316-3.218c7.308,0.162,19.902,4.448,33.68,7.63c1.738,0.372,3.619,0.899,5.682,1.464
		c-2.526-14.27-6.789-28.978-10.742-37.903c-3.905-8.915-9.755-13.103-9.56-25.464C441.546,520.505,418.01,502.996,385.476,513.95"
		/>
	<path fill="#C79C52" stroke="#806434" stroke-width="3.1718" stroke-linejoin="bevel" stroke-miterlimit="10" d="M443.886,444.347
		c-11.165-7.402-47.28-8.63-63.373,0.473c-5.205,2.56-14.416,13.463-17.673,21.583c4.288,5.116,14.146,18.417,17.056,25.062
		c2.918,6.649,4.761,19.66,5.543,22.561c32.63-11.148,56.073,6.576,62.504,14.922c-0.186,0.098,16.794-32.226,21.345-36.03
		C465.945,475.393,455.462,459.208,443.886,444.347"/>
	<path fill="#C79C52" stroke="#806434" stroke-width="3.1718" stroke-linejoin="bevel" stroke-miterlimit="10" d="M362.726,466.352
		c-21.474,6.368-65.91,33.312-80.104,41.43c-13.713,8.923-40.006,47.373-43.536,59.952c4.62,4.658,9.73,9.604,14.302,14.768
		c20.822,22.456,38.984,28.807,51.653,30.464c11.598,1.396,19.041,1.996,41.704-6.072c-2.406-14.881,13.318-69.881,38.736-93
		c-0.875-2.58-2.658-15.896-5.569-22.407C376.896,484.756,367.292,471.593,362.726,466.352"/>
	<path fill="#C79C52" stroke="#806434" stroke-width="3.1718" stroke-linejoin="bevel" stroke-miterlimit="10" d="M362.714,466.339
		c-21.451,6.414-65.899,33.285-80.097,41.466c-6.33-18.283-26.938-36.471-36.335-36.582c2.484-2.145,5.455-3.942,8.238-6.119
		c20.671-13.444,55.827-33.694,76.181-44.191c10.124-4.725,23.733-10.479,36.919-14.911c4.26,3.876,12.042,18.475,12.959,38.714
		C375.134,447.476,366.31,458.294,362.714,466.339"/>
	<path fill="#C79C52" stroke="#806434" stroke-width="3.1718" stroke-linejoin="bevel" stroke-miterlimit="10" d="M239.057,567.729
		c-16.401-15.582-31.586-27.399-40.179-29.875c-6.598-1.955-13.005-1.633-19.56,1.163c11.078-6.932,9.154-10.637,26.01-28.331
		c14.622-15.187,25.365-27.675,40.922-39.481c9.53,0.177,29.893,18.252,36.456,36.641
		C268.774,516.616,242.709,555.201,239.057,567.729"/>
	<path fill="#FFC163" stroke="#B38645" stroke-width="3.1718" stroke-linejoin="bevel" stroke-miterlimit="10" d="M165.795,548.482
		c11.167-10.783,21.938-13.917,33.11-10.632c10.935,3.205,33.766,22.153,54.525,44.652c20.728,22.446,38.957,28.815,51.619,30.456
		c12.742,1.597,20.861,2.026,49.466-8.938c27.711-10.801,32.649-11.507,46.041-17.547c12.95-5.85,21.034-3.399,28.316-3.217
		c7.325,0.159,19.878,4.453,33.7,7.624c13.695,3.112,39.483,14.134,57.504,4.981c18.075-9.265,16.619-18.286,24.469-31.976
		c8.08-13.848,16.594-28.688,33.844-23.541c17.389,4.843,8.874,16.107,7.244,17.38c-1.608,1.245-5.978-2.298-10.712-1.948
		c-4.804,0.518-11.218,17.457-14.931,22.07c-3.954,5.034-14.115,26.314-28.854,33.889c-14.762,7.72-23.555,7.002-39.973,3.584
		c-16.303-3.537-33.723-5.453-47.647-10.822c-13.79-5.571-27.547-0.238-34.299,0.865c-6.409,0.883-25.254,7.76-32.308,11.247
		c-6.769,3.341-16.356,8.262-21.927,9.6c-5.41,1.336-25.477,8.108-36.02,7.127c-10.404-0.979-20.518,0.327-33.606-6.141
		c-13.071-6.481-25.68-11.644-37.008-20.237c-11.349-8.608-15.247-21.62-24.885-28.513c-9.662-6.926-16.453-11.584-22.644-13.477
		c-6.156-1.904-8.704-5.029-15.214-2.604c-6.473,2.426-11.79,6.381-17.744,2.885C161.887,561.74,161.718,552.47,165.795,548.482"/>
	
		<path fill="#7BD968" stroke="#598C4E" stroke-width="3.1718" stroke-linecap="round" stroke-linejoin="bevel" stroke-miterlimit="10" d="
		M117.175,648.288c1.165,1.568,6.083,7.626,13.001,7.35c6.889-0.276,14.475-1.706,15.824-6.062"/>
</g>
<g>
	<g>
		<path fill="#FFE563" stroke="#E8D46D" stroke-width="2.0004" stroke-linejoin="bevel" stroke-miterlimit="10" d="M491.532,368.062
			c-1.964,4.265-7.89,23.08-17.1,30.314c-9.026,7.492-14.332,7.357-24.107,6.108c-9.794-1.218-20.664-0.545-29.027-3.077
			c-8.341-2.561-16.834,2.603-20.792,3.804c-3.863,1.21-14.883,7.101-18.896,9.77c-3.939,2.612-9.408,6.347-12.485,7.452
			c-2.974,1.127-14.106,6.392-19.556,6.169c-5.313-0.253-10.754,1.001-16.946-2.507c-6.222-3.469-12.29-5.904-17.623-10.223
			c-5.278-4.332-6.623-11.556-11.686-14.356c-5.022-2.829-8.825-4.447-12.334-4.682c-3.524-0.198-4.918-1.611-8.818,0.624
			c1.495,3.523,10.356,19.109,17.492,23.197c7.24,3.716,12.754,7.529,22.966,9.898c10.223,2.45,32.604,2.316,53.796-3.32
			c21.24-5.708,38.441-7.569,53.546-10.415c15.032-3.092,32.65-3.696,40.946-7.331c8.264-3.73,12.25-9.016,14.801-13.921
			C488.236,390.678,491.228,382.227,491.532,368.062"/>
		<path fill="#7BD968" stroke="#598C4E" stroke-width="2.0004" stroke-linejoin="bevel" stroke-miterlimit="10" d="M220.949,440.65
			c-0.969,2.731-4.711,11.416-0.713,15.864c6.6,7.5,20.757,3.425,24.275,2.928c3.413-0.403,20.727-1.346,35.847-18.83
			c14.858-17.357,24.374-25.075,30.253-29.962c-2.275-3.588-3.986-7.305-7.288-9.135c-5.04-2.817-8.823-4.45-12.34-4.674
			c-3.508-0.239-4.941-1.554-8.798,0.574c-0.31,0.172-0.58,0.363-0.904,0.505c-4.301,6.209-13.274,13.414-19.522,15.262
			c-6.19,1.911-15.758,4.277-18.404,4.73c-1.984,0.368-3.992,2.126-4.81,2.526C232.512,424.197,223.599,433.481,220.949,440.65"/>
		<path fill="#7BD968" stroke="#598C4E" stroke-width="2.0004" stroke-linejoin="bevel" stroke-miterlimit="10" d="M362.282,425.274
			c-4.334,1.703-9.532,3.471-12.694,3.334c-5.331-0.248-10.758,1.001-16.948-2.51c-1.547-0.874-3.023-1.668-4.586-2.439
			c-5.675,6.584-15.469,21.251-18.231,26.762c-2.606,5.549-6.861,15.163-3.876,24.06c3.045,8.904,1.417,12.256,2.305,16.201
			c0.875,3.967,0.449,7.457,6.165,6.739c5.699-0.749,9.594-5.406,14.165-10.839c4.593-5.469,12.638-12.286,19.392-21.185
			c5.485-7.225,9.137-13.36,11.239-18.905c2.11-5.54,3.039-20.807,3.007-20.791C362.233,425.695,362.28,425.276,362.282,425.274"/>
		<path fill="#7BD968" stroke="#598C4E" stroke-width="2.0004" stroke-linejoin="bevel" stroke-miterlimit="10" d="M492.175,366.515
			c2.073-5.309,4.527-16.834,6.784-17.099c2.616-0.252,5.213,2.956,6.023,1.991c5.053,2.618,10.931,8.183,11.085,14.876
			c0.105,6.711-1.499,6.575-3.284,8.546c-1.786,2.063-5.373,1.09-8.014-0.626C502.123,372.477,494.791,369.377,492.175,366.515"/>
		<path fill="#7BD968" stroke="#598C4E" stroke-width="2.0004" stroke-linejoin="bevel" stroke-miterlimit="10" d="M467.692,402.958
			c-5.535,2.773-10.246,2.435-17.368,1.528c-6.001-0.741-12.401-0.759-18.379-1.315c-1.157,11.698-3.145,31.269,8.72,46.122
			c6.207,8.147,10.198,8.911,14.192,12.198c4.003,3.312,7.986,14.509,15.243,17.661c3.624,1.596,5.197,1.343,7.802-1.712
			c2.607-3.12,3.264-3.917,3.812-7.626c0.552-3.607,2.453-16.983,0.947-24.951c-1.483-7.918-4.463-19.373-6.435-24.413
			c-1.947-5.083-8.496-17.017-8.514-16.968C467.72,403.461,467.69,402.97,467.692,402.958"/>
		<path fill="#94AEFF" stroke="#4464C7" stroke-width="2.0004" stroke-linejoin="bevel" stroke-miterlimit="10" d="M238.564,420.438
			c3.532-0.053,4.008,4.579,3.996,4.602c3.344-1.276,4.844-1.079,5.881-0.854c1.885-3.467,6.773-7.994,11.834-9.002
			c5.09-0.964,9.794-2.341,10.041,5.654c6.783-1.427,13.858-6.442,16.232-6.698c2.421-0.253,4.108,0.818,4.213,1.547
			c0.075,0.758,0.763,3.583,0.557,4.6c-0.195,1.052-1.047,2.969-2.364,3.506c-1.311,0.581-2.564-0.219-2.747-1.153
			c-0.172-0.963,0.302-2.676-0.51-2.963c-0.763-0.304-2.177,0.286-3.138,0.75c-0.896,0.535-12.209,5.061-13.696,5.675
			c-1.269,3.473-6.24,9.78-13.539,10.893c-7.278,1.133-7.866-1.078-7.879-3.273c-0.008-2.21-0.15-3.916-0.149-3.917
			c-3.447,0.674-2.779,0.477-5.004,0.743c-2.41,3.963-7.324,9.901-14.875,10.772c-7.564,0.882-10.29-2.101-7.175-9.605
			c-3.701,0.08-2.162-0.593-2.165-0.596c1.881-3.854,1.863-3.841,1.869-3.844c-0.002-0.004,4.976-0.43,4.984-0.442
			C227.476,421.671,236.246,420.478,238.564,420.438"/>
		<path fill="#FFFFFF" stroke="#4464C7" stroke-width="2.0004" stroke-linejoin="bevel" stroke-miterlimit="10" d="M229.679,425.371
			c4.709-2.104,9.45-0.35,9.721,1.51c0.242,1.807-2.228,7.99-6.265,10.018c-3.943,2-9.648,2.19-10.031-0.106
			C222.701,434.46,224.362,427.744,229.679,425.371"/>
		<path fill="#E0B577" stroke="#A87C3B" stroke-width="2.0004" stroke-linejoin="bevel" stroke-miterlimit="10" d="M228.589,430.919
			c1.404-1.316,5.441-1.874,6.21-0.789c0.778,1.093-0.431,2.801-1.716,3.417c-1.238,0.635-5.18,2.888-5.719,1.546
			C226.774,433.77,226.772,432.601,228.589,430.919"/>
		<path fill="#FFFFFF" stroke="#4464C7" stroke-width="2.0004" stroke-linejoin="bevel" stroke-miterlimit="10" d="M250.985,431.996
			c-0.817-3.759,0.192-7.212,2.45-9.315c2.262-2.08,7.652-4.412,10.361-1.973c2.694,2.444,3.007,4.953,1.666,6.763
			c-1.299,1.828-4.942,5.475-7.715,5.949C254.997,433.884,251.476,434.01,250.985,431.996"/>
		<path fill="#E0B577" stroke="#A87C3B" stroke-width="2.0004" stroke-linejoin="bevel" stroke-miterlimit="10" d="M255.54,426.009
			c1.356-0.946,5.418-0.538,5.613,0.09c0.222,0.594-0.69,2.459-1.377,2.586c-0.642,0.122-5.029,2.235-5.629,0.78
			C253.553,428.024,253.484,427.406,255.54,426.009"/>
		<path fill="#C79C52" stroke="#806434" stroke-width="2.0004" stroke-linejoin="bevel" stroke-miterlimit="10" d="M413.06,270.6
			c-11.141-1.002-27.748,2.29-36.873,5.323c-5.797,1.789-13.481,6.559-20.802,12.022c3.664,1.151,12.261,7.054,16.925,18.181
			c7.373-7.7,29.577-15.058,37.611-13.625C412.407,287.443,413.995,276.475,413.06,270.6"/>
		<path fill="#C79C52" stroke="#806434" stroke-width="2.0004" stroke-linejoin="bevel" stroke-miterlimit="10" d="M432.821,316.652
			c-4.29-10.867-13.168-18.062-22.906-24.211c2.487-4.969,4.085-15.958,3.13-21.88c2.475,0.243,4.665,0.396,6.404,1.076
			c9.761,2.087,30.939,11.765,39.495,20.502c7.257,6.698,14.197,17.111,18.175,23.021c-11.427-3.517-27.832-5.214-34.065-3.575
			C436.833,312.948,432.822,316.682,432.821,316.652"/>
		<path fill="#C79C52" stroke="#806434" stroke-width="2.0004" stroke-linejoin="bevel" stroke-miterlimit="10" d="M477.105,315.172
			c-11.421-3.554-27.825-5.215-34.06-3.589c-6.251,1.352-10.169,5.124-10.284,5.054c-1.842,3.445-9.105,29.248-9.389,29.157
			c0.81,8.715,4.437,10.495,7.228,16.255c2.693,5.789,5.519,16.067,6.602,26.897c8.87,0.93,21.988,4.422,31.473-3.556
			c10.785-9.343,9.906-16.862,13.863-28.741c3.466-10.313,6.48-20.968,13.713-20.813c0.008,0.021,0.025,0.006,0.019,0.033
			c-5.995-4.383-13.81-13.428-17.168-17.908C478.551,317.257,477.861,316.197,477.105,315.172"/>
		<path fill="#C79C52" stroke="#806434" stroke-width="2.0004" stroke-linejoin="bevel" stroke-miterlimit="10" d="M385.101,346.197
			c-11.348,17.347-18.867,53.394-19.338,63.562c1.559-0.682,2.738-1.436,4.361-2.291c15.229-8.682,18.173-9.604,25.915-14.805
			c7.646-5.197,12.47-4.444,16.905-5.171c4.466-0.76,12.223,0.669,20.769,1.142c1.059,0.024,2.25,0.157,3.495,0.308
			c-1.085-10.801-3.9-21.098-6.601-26.888c-2.739-5.716-6.487-7.62-7.17-16.19C418.997,341.033,402.758,334.912,385.101,346.197"/>
		<path fill="#C79C52" stroke="#806434" stroke-width="2.0004" stroke-linejoin="bevel" stroke-miterlimit="10" d="M409.93,292.482
			c-8.077-1.425-30.251,5.927-37.631,13.628c-2.556,2.486-5.549,9.979-5.95,15.095c3.364,2.096,10.934,8.271,13.307,11.925
			c2.537,3.53,4.877,11.316,5.527,13.094c17.445-11.363,33.924-5.161,38.216-0.398c0.259-0.005,7.53-25.729,9.387-29.198
			C428.582,305.837,419.618,298.527,409.93,292.482"/>
		<path fill="#C79C52" stroke="#806434" stroke-width="2.0004" stroke-linejoin="bevel" stroke-miterlimit="10" d="M366.317,321.174
			c-11.088,7.19-29.445,28.021-35.828,34.235c-5.244,6.663-15.832,30.653-18.671,38.314c2.673,2.062,5.011,4.403,7.347,6.979
			c9.863,11.393,18.351,14.79,24.894,15.066c5.698,0.345,9.772,0.313,21.735-5.987c0.359-10.208,8.038-46.179,19.271-63.604
			c-0.358-1.633-2.978-9.558-5.387-13.021C377.237,329.438,369.789,323.354,366.317,321.174"/>
		<path fill="#C79C52" stroke="#806434" stroke-width="2.0004" stroke-linejoin="bevel" stroke-miterlimit="10" d="M366.308,321.16
			c-11.037,7.236-29.498,27.997-35.776,34.27c-5.362-8.914-20.306-14.043-25.562-12.249c0.896-1.516,1.975-2.82,2.96-4.417
			c7.71-10.015,20.887-26.526,29.784-35.848c4.445-4.332,10.863-9.989,17.659-14.966c3.646,1.11,12.261,7.089,16.919,18.137
			C369.717,308.599,366.817,316.149,366.308,321.16"/>
		<path fill="#C79C52" stroke="#806434" stroke-width="2.0004" stroke-linejoin="bevel" stroke-miterlimit="10" d="M311.833,393.717
			c-8.305-6.961-17.642-10.654-22.631-10.674c-3.858-0.031-7.594,1.077-11.27,3.412c5.995-5.053,4.945-6.58,12.242-17.697
			c6.01-9.601,9.25-17.3,14.797-25.601c5.246-1.745,20.207,3.31,25.547,12.289C325.22,362.005,314.655,386.104,311.833,393.717"/>
		<path fill="#FFC163" stroke="#B38645" stroke-width="2.0004" stroke-linejoin="bevel" stroke-miterlimit="10" d="M270.095,393.016
			c6.544-6.834,12.564-10.019,19.096-9.965c6.556-0.05,20.054,6.306,29.966,17.651c9.878,11.356,18.358,14.788,24.899,15.052
			c6.384,0.375,10.554,0.343,26.067-8.296c15.229-8.69,18.168-9.61,25.914-14.811c7.646-5.196,12.47-4.439,16.903-5.175
			c4.468-0.732,12.221,0.634,20.771,1.176c8.587,0.125,24.142,5.781,34.984-3.251c10.791-9.373,9.906-16.859,13.855-28.756
			c3.996-11.827,7.329-24.185,17.27-19.928c10.05,4.45,6.03,13.732,5.183,14.672c-0.82,0.972-3.409-2.243-6.022-1.982
			c-2.528,0.291-5.305,14.562-7.439,18.648c-1.933,4.267-7.886,23.078-17.087,30.313c-9.032,7.498-14.33,7.361-24.11,6.111
			c-9.795-1.219-20.667-0.548-29.02-3.084c-8.338-2.562-16.838,2.603-20.79,3.807c-3.873,1.211-14.889,7.098-18.905,9.771
			c-3.933,2.612-9.407,6.343-12.479,7.453c-2.979,1.128-14.108,6.392-19.556,6.163c-5.319-0.246-10.758,1.006-16.946-2.503
			c-6.223-3.467-12.29-5.904-17.628-10.226c-5.276-4.335-6.624-11.555-11.687-14.354c-5.024-2.826-8.816-4.457-12.329-4.679
			c-3.512-0.239-4.943-1.55-8.802,0.575c-3.832,2.111-7.163,4.829-10.774,3.772C267.809,400.125,267.647,395.546,270.095,393.016"/>
		
			<path fill="#7BD968" stroke="#598C4E" stroke-width="2.0004" stroke-linecap="round" stroke-linejoin="bevel" stroke-miterlimit="10" d="
			M226.507,450.783c0.469,0.795,2.669,3.933,7.629,3.423c4.94-0.547,10.542-1.812,12.405-4.466"/>
	</g>
</g>
<g>
	<g>
		<path fill="#FFE563" stroke="#E8D46D" stroke-width="1.2222" stroke-linejoin="bevel" stroke-miterlimit="10" d="M413.625,229.532
			c-0.088,2.651,1.188,13.824-2.198,20.281c-3.245,6.495-6.26,8.02-12.17,10.205c-5.924,2.23-12.104,5.626-17.683,6.59
			c-5.593,0.977-9.267,5.743-11.263,7.319c-1.968,1.598-6.828,7.179-8.41,9.404c-1.576,2.215-3.697,5.283-5.139,6.502
			c-1.406,1.232-6.232,6.202-9.298,7.236c-3.041,1.021-5.656,2.749-10.116,2.422c-4.492-0.291-8.618-0.095-13.065-0.897
			c-4.413-0.814-7.817-3.8-11.823-3.962c-3.975-0.178-6.869-0.088-9.003,0.58c-2.158,0.678-3.515,0.343-4.913,2.218
			c2.542,1.37,13.671,6.412,18.855,6.679c5.335,0.105,9.523,0.63,15.814-0.414c6.302-1.069,18.369-5.623,28.971-13.101
			c10.601-7.561,20.287-12.846,28.328-18.444c8.007-5.683,17.874-11.234,21.609-15.543c3.733-4.366,4.651-8.251,4.89-11.507
			C417.237,241.872,416.855,236.674,413.625,229.532"/>
		<path fill="#7BD968" stroke="#598C4E" stroke-width="1.2222" stroke-linejoin="bevel" stroke-miterlimit="10" d="M281.869,329.536
			c0.532,1.362,1.596,5.75,5.181,6.8c5.975,1.831,12.099-2.728,13.814-3.659c1.637-0.881,10.452-4.699,12.896-15.558
			c2.163-10.788,4.622-16.425,6.244-19.938c-2.572-1.133-4.926-2.447-7.537-2.552c-3.986-0.169-6.867-0.089-9.008,0.584
			c-2.141,0.662-3.536,0.364-4.893,2.199c-0.105,0.147-0.189,0.297-0.311,0.43c0.101,3.833-2.014,9.027-4.749,11.195
			c-2.691,2.197-7.052,5.283-8.347,6.039c-0.959,0.582-1.335,1.783-1.628,2.125C281.753,320.139,280.664,325.989,281.869,329.536"/>
		<path fill="#7BD968" stroke="#598C4E" stroke-width="1.2222" stroke-linejoin="bevel" stroke-miterlimit="10" d="M353.659,292.724
			c-1.979,1.775-4.391,3.737-6.182,4.342c-3.045,1.023-5.66,2.75-10.116,2.42c-1.126-0.078-2.172-0.129-3.289-0.155
			c-1.068,4.296-1.974,13.093-1.949,16.191c0.166,3.11,0.495,8.376,3.98,12.101c3.484,3.763,3.257,5.738,4.457,7.542
			c1.167,1.841,1.543,3.681,4.251,2.411c2.703-1.283,3.871-4.298,5.179-7.842c1.306-3.558,4.109-8.417,5.767-14.19
			c1.326-4.677,1.898-8.504,1.687-11.696c-0.123-3.229-3.637-10.94-3.715-10.898C353.761,292.933,353.651,292.728,353.659,292.724"
			/>
		<path fill="#7BD968" stroke="#598C4E" stroke-width="1.2222" stroke-linejoin="bevel" stroke-miterlimit="10" d="M413.612,228.577
			c-0.123-3.243-1.465-9.611-0.245-10.363c1.413-0.855,3.619,0.019,3.843-0.671c3.444-0.088,7.979,1.163,9.605,4.482
			c1.606,3.337,0.693,3.686,0.172,5.134c-0.5,1.5-2.692,1.938-4.556,1.788C420.571,228.774,415.766,229.247,413.612,228.577"/>
		<path fill="#7BD968" stroke="#598C4E" stroke-width="1.2222" stroke-linejoin="bevel" stroke-miterlimit="10" d="M408.755,254.15
			c-2.442,3.057-5.189,4.271-9.497,5.87c-3.634,1.365-7.341,3.177-10.987,4.567c2.317,6.255,5.932,16.996,15.781,22.114
			c5.252,2.856,7.638,2.231,10.558,3c2.936,0.767,7.294,6.238,11.898,6.186c2.321-0.045,3.146-0.615,4.042-3.181
			c0.864-2.587,1.088-3.258,0.671-5.604c-0.356-2.331-1.996-10.666-4.562-14.683c-2.491-4.071-6.723-9.449-8.997-11.552
			c-2.229-2.191-8.751-6.504-8.771-6.45C408.898,254.395,408.753,254.159,408.755,254.15"/>
		<path fill="#94AEFF" stroke="#4464C7" stroke-width="1.2222" stroke-linejoin="bevel" stroke-miterlimit="10" d="M283.546,317.199
			c1.97-0.762,4.145,1.157,4.135,1.167c1.339-1.261,2.248-1.496,2.912-1.62c-0.349-1.906,0.485-4.955,2.915-6.496
			c2.43-1.532,4.582-3.153,7.834,0.326c3.175-2.096,5.201-5.876,6.433-6.519c1.256-0.642,2.604-0.535,2.93-0.23
			c0.328,0.323,1.745,1.437,1.993,1.934c0.275,0.513,0.487,1.554-0.041,2.077c-0.51,0.543-1.478,0.457-1.916,0.083
			c-0.442-0.39-0.808-1.255-1.363-1.205c-0.532,0.03-1.096,0.604-1.448,1.016c-0.308,0.441-4.817,4.888-5.391,5.469
			c0.611,1.8,0.183,5.6-3.339,7.619c-3.5,2.023-4.618,1.196-5.449,0.26c-0.831-0.948-1.572-1.654-1.571-1.655
			c-1.627,1.021-1.334,0.795-2.453,1.378c0.233,2.218-0.244,5.771-4.046,7.693c-3.823,1.922-6.404,1.229-7.694-2.607
			c-2.049,0.783-1.459,0.185-1.461,0.184c-0.535-2.04-0.554-2.037-0.549-2.038c0.001,0.001,2.621-1.202,2.622-1.211
			C277.848,320.062,282.26,317.704,283.546,317.199"/>
		<path fill="#FFFFFF" stroke="#4464C7" stroke-width="1.2222" stroke-linejoin="bevel" stroke-miterlimit="10" d="M280.643,321.208
			c1.765-1.89,5.14-2.125,6.034-1.377c0.881,0.735,1.929,3.909,0.472,5.606c-1.398,1.673-4.452,2.924-5.56,2.027
			C280.487,326.564,278.679,323.348,280.643,321.208"/>
		<path fill="#E0B577" stroke="#A87C3B" stroke-width="1.2222" stroke-linejoin="bevel" stroke-miterlimit="10" d="M282.313,323.829
			c0.25-0.856,2.266-1.938,3.123-1.632c0.866,0.308,0.867,1.292,0.399,1.821c-0.433,0.531-1.73,2.308-2.548,1.847
			C282.445,325.425,281.979,324.926,282.313,323.829"/>
		<path fill="#FFFFFF" stroke="#4464C7" stroke-width="1.2222" stroke-linejoin="bevel" stroke-miterlimit="10" d="M295.023,319.587
			c-1.857-1.446-2.682-3.159-2.274-4.563c0.409-1.393,2.473-3.581,4.941-3.094c2.448,0.492,3.562,1.524,3.505,2.601
			c-0.022,1.079-0.66,3.438-1.983,4.232C297.897,319.549,296.047,320.35,295.023,319.587"/>
		<path fill="#E0B577" stroke="#A87C3B" stroke-width="1.2222" stroke-linejoin="bevel" stroke-miterlimit="10" d="M295.22,316.024
			c0.376-0.702,2.763-1.397,3.107-1.165c0.351,0.211,0.556,1.219,0.231,1.42c-0.305,0.191-1.893,2.043-2.77,1.541
			C294.914,317.324,294.635,317.071,295.22,316.024"/>
		<path fill="#C79C52" stroke="#806434" stroke-width="1.2222" stroke-linejoin="bevel" stroke-miterlimit="10" d="M343.617,203.345
			c-7.412,2.284-17.851,7.673-23.444,11.071c-3.551,2.132-7.876,6.186-11.727,10.532c2.73,0.042,9.728,1.849,15.629,6.714
			c3.101-5.605,16.379-14.621,21.888-16.046C346.472,212.39,345.271,206.248,343.617,203.345"/>
		<path fill="#C79C52" stroke="#806434" stroke-width="1.2222" stroke-linejoin="bevel" stroke-miterlimit="10" d="M366.304,221.548
			c-5.322-4.152-12.615-5.272-20.347-5.955c0.517-3.198-0.684-9.344-2.348-12.263c1.636-0.495,3.111-0.935,4.337-1.062
			c6.756-1.274,21.97-2.288,28.982-0.513c5.854,1.242,12.281,4.276,15.955,5.999c-7.486,1.649-17.881,5.704-21.404,8.314
			C367.944,218.568,366.306,221.559,366.304,221.548"/>
		<path fill="#C79C52" stroke="#806434" stroke-width="1.2222" stroke-linejoin="bevel" stroke-miterlimit="10" d="M392.872,207.764
			c-7.48,1.631-17.875,5.701-21.4,8.306c-3.543,2.499-5.146,5.49-5.189,5.482c-0.45,2.269,1.716,17.013,1.604,17.026
			c2.82,4.041,5.564,3.869,8.782,5.894c3.183,2.065,7.606,6.304,11.037,11.43c5.483-2.062,13.908-4.173,17.29-11.023
			c3.807-7.9,1.432-11.393,0.806-18.418c-0.54-6.089-1.289-12.176,2.887-14.146c0.002,0.012,0.017-0.005,0.014,0.014
			c-4.412-0.464-11.023-2.59-14.017-3.788C394.196,208.357,393.565,208.048,392.872,207.764"/>
		<path fill="#C79C52" stroke="#806434" stroke-width="1.2222" stroke-linejoin="bevel" stroke-miterlimit="10" d="M343.729,249.042
			c-2.197,11.484,4.979,30.385,7.493,35.391c0.752-0.674,1.185-1.328,1.885-2.099c6.399-7.768,7.955-9.002,11.093-13.473
			c3.13-4.498,6.25-5.408,8.704-6.953c2.475-1.572,7.506-2.975,12.666-5.168c0.631-0.288,1.369-0.561,2.138-0.843
			c-3.427-5.114-7.851-9.362-11.035-11.426c-3.196-2.016-5.991-1.875-8.756-5.878C363.974,237.496,351.879,239.077,343.729,249.042"
			/>
		<path fill="#C79C52" stroke="#806434" stroke-width="1.2222" stroke-linejoin="bevel" stroke-miterlimit="10" d="M345.966,215.603
			c-5.529,1.437-18.801,10.448-21.895,16.049c-1.109,1.906-1.191,6.516,0.009,9.275c2.853,0.378,9.654,1.765,12.273,2.991
			c2.672,1.168,6.526,4.427,7.425,5.123c8.028-9.965,20.254-11.55,24.118-10.455c0.104-0.049-2.061-14.762-1.606-17.042
			C361.003,217.404,353.669,216.266,345.966,215.603"/>
		<path fill="#C79C52" stroke="#806434" stroke-width="1.2222" stroke-linejoin="bevel" stroke-miterlimit="10" d="M324.079,240.916
			c-5.686,6.237-11.055,20.985-12.621,25.458c-1.181,4.631,1.699,18.666,2.993,22.737c2.352,0.402,4.588,0.919,6.886,1.601
			c9.765,3.023,15.428,2.757,19.272,1.45c3.321-1.109,5.623-1.972,10.639-7.725c-2.589-5.004-9.664-23.897-7.538-35.398
			c-0.729-0.679-4.744-3.952-7.345-5.112C333.721,242.682,326.949,241.32,324.079,240.916"/>
		<path fill="#C79C52" stroke="#806434" stroke-width="1.2222" stroke-linejoin="bevel" stroke-miterlimit="10" d="M324.075,240.912
			c-5.663,6.25-11.079,20.979-12.597,25.467c-6.768-3.273-18.525-3.292-21.394-1.402c0.065-0.986,0.217-1.942,0.369-3.009
			c1.293-7.05,5.376-18.772,9.32-25.55c1.927-3.217,5.079-7.482,8.664-11.469c2.715,0.033,9.734,1.856,15.623,6.703
			C322.963,233.553,322.891,238.192,324.075,240.912"/>
		<path fill="#C79C52" stroke="#806434" stroke-width="1.2222" stroke-linejoin="bevel" stroke-miterlimit="10" d="M314.461,289.108
			c-7.573-1.336-14.825-1.121-17.86-0.053c-2.352,0.813-4.127,2.147-5.307,4.073c1.399-3.761,0.019-4.23-0.289-11.444
			c-0.357-6.212-1.432-11.033-0.922-16.716c2.859-1.878,14.635-1.875,21.38,1.414C310.273,270.986,313.15,285.052,314.461,289.108"
			/>
		<path fill="#FFC163" stroke="#B38645" stroke-width="1.2222" stroke-linejoin="bevel" stroke-miterlimit="10" d="M289.566,297.957
			c0.793-4.671,3.05-7.521,7.032-8.9c3.952-1.405,14.893-1.323,24.732,1.651c9.768,3.017,15.436,2.754,19.272,1.449
			c3.744-1.255,6.027-2.114,12.499-9.83c6.404-7.772,7.951-9.003,11.094-13.476c3.13-4.496,6.25-5.405,8.703-6.952
			c2.479-1.561,7.502-2.99,12.672-5.155c5.146-2.357,15.566-4.081,19.438-11.872c3.805-7.913,1.434-11.389,0.8-18.421
			c-0.615-6.989-1.531-14.004,5.113-14.708c6.696-0.582,6.541,5.093,6.3,5.78c-0.237,0.703-2.435-0.18-3.845,0.678
			c-1.37,0.838,0.449,8.656,0.254,11.322c-0.074,2.639,1.187,13.822-2.196,20.277c-3.243,6.497-6.257,8.021-12.169,10.207
			c-5.925,2.229-12.104,5.626-17.68,6.585c-5.592,0.976-9.268,5.746-11.259,7.32c-1.974,1.6-6.833,7.18-8.416,9.408
			c-1.573,2.212-3.698,5.28-5.138,6.5c-1.408,1.233-6.231,6.203-9.297,7.233c-3.042,1.025-5.659,2.752-10.116,2.425
			c-4.493-0.291-8.618-0.096-13.068-0.898c-4.413-0.816-7.817-3.799-11.824-3.962c-3.978-0.175-6.865-0.092-9.003,0.581
			c-2.144,0.663-3.536,0.367-4.895,2.2c-1.347,1.819-2.106,3.8-4.645,4.092C291.397,301.801,289.257,299.687,289.566,297.957"/>
		
			<path fill="#7BD968" stroke="#598C4E" stroke-width="1.2222" stroke-linecap="round" stroke-linejoin="bevel" stroke-miterlimit="10" d="
			M288.532,332.667c0.532,0.236,2.754,1.112,5.225-0.112c2.454-1.237,5.007-2.922,5.129-4.439"/>
	</g>
</g>
<g>
	<g>
		<path fill="#FFE563" stroke="#E8D46D" stroke-width="0.7789" stroke-linejoin="bevel" stroke-miterlimit="10" d="M341.614,181.545
			c0.229,1.587,2.552,7.77,1.291,12.242c-1.204,4.475-2.966,6.049-6.659,8.622c-3.685,2.589-7.386,5.853-11.091,7.515
			c-3.719,1.664-5.472,5.13-6.579,6.43c-1.1,1.303-3.473,5.47-4.137,7.061c-0.677,1.589-1.536,3.775-2.292,4.749
			c-0.743,0.975-3.053,4.759-4.976,5.895c-1.924,1.118-3.368,2.596-6.61,3.103c-3.254,0.52-6.133,1.246-9.459,1.343
			c-3.312,0.088-6.359-1.408-9.191-1.075c-2.824,0.326-4.817,0.667-6.168,1.323c-1.354,0.652-2.384,0.579-2.943,1.936
			c2.011,0.741,11,2.78,14.76,2.192c3.785-0.626,6.891-0.917,11.089-2.524c4.207-1.62,11.627-6.376,17.492-12.731
			c5.866-6.381,11.646-11.397,16.177-16.347c4.522-4.972,10.301-10.432,12.114-13.778c1.812-3.367,1.827-5.807,1.51-7.722
			C345.629,187.867,344.613,184.999,341.614,181.545"/>
		<path fill="#7BD968" stroke="#598C4E" stroke-width="0.7789" stroke-linejoin="bevel" stroke-miterlimit="10" d="M270.17,263.959
			c0.827,0.837,3.167,3.54,6.061,3.656c4.804,0.23,7.391-3.605,8.269-4.435c0.861-0.82,5.546-4.548,4.007-11.622
			c-1.605-7.049-1.073-10.966-0.749-13.384c-2.056-0.398-3.998-0.963-5.844-0.744c-2.828,0.33-4.817,0.667-6.17,1.323
			c-1.352,0.649-2.385,0.584-2.94,1.933c-0.039,0.108-0.071,0.216-0.121,0.317c0.877,2.539,0.676,6.2-0.653,7.945
			c-1.317,1.752-3.491,4.306-4.17,4.959c-0.501,0.498-0.419,1.352-0.513,1.615C266.949,257.704,268.064,261.793,270.17,263.959"/>
		<path fill="#7BD968" stroke="#598C4E" stroke-width="0.7789" stroke-linejoin="bevel" stroke-miterlimit="10" d="M310.578,230.416
			c-1.011,1.396-2.272,2.975-3.401,3.64c-1.925,1.12-3.368,2.597-6.608,3.101c-0.812,0.126-1.58,0.261-2.36,0.407
			c0.201,2.8,1.896,8.26,2.846,10.082c0.987,1.825,2.829,4.873,6.47,6.329c3.639,1.463,4.127,2.589,5.557,3.349
			c1.417,0.777,2.288,1.705,3.743,0.433c1.45-1.28,1.28-3.177,1.092-5.411c-0.196-2.242,0.301-5.531-0.138-9.125
			c-0.362-2.914-0.954-5.208-1.897-7.009c-0.924-1.81-5.182-5.69-5.197-5.678C310.691,230.529,310.576,230.418,310.578,230.416"/>
		<path fill="#7BD968" stroke="#598C4E" stroke-width="0.7789" stroke-linejoin="bevel" stroke-miterlimit="10" d="M341.487,180.991
			c-0.483-1.863-2.063-5.331-1.335-6.043c0.828-0.806,2.363-0.772,2.433-1.232c2.241-0.807,5.32-1.108,6.77,0.436
			c1.449,1.559,0.903,1.97,0.742,2.935c-0.138,0.984-1.517,1.763-2.761,2.109C346.099,179.532,342.989,180.91,341.487,180.991"/>
		<path fill="#7BD968" stroke="#598C4E" stroke-width="0.7789" stroke-linejoin="bevel" stroke-miterlimit="10" d="M341.766,196.892
			c-1.173,2.314-2.835,3.645-5.521,5.518c-2.255,1.587-4.52,3.43-6.79,4.988c2.59,3.15,7.199,8.527,15.104,8.916
			c4.2,0.271,5.704-0.701,7.848-1.038c2.156-0.343,6.309,1.445,9.379,0.138c1.535-0.659,1.957-1.198,1.986-2.816
			c0.013-1.625,0.014-2.045-0.756-3.194c-0.746-1.148-3.537-5.205-6.002-6.741c-2.453-1.564-6.246-3.475-8.133-4.104
			c-1.882-0.656-6.981-1.563-6.982-1.546C341.9,197.006,341.767,196.895,341.766,196.892"/>
		<path fill="#94AEFF" stroke="#4464C7" stroke-width="0.7789" stroke-linejoin="bevel" stroke-miterlimit="10" d="M267.353,255.52
			c1.141-0.732,3.226,0.303,3.224,0.305c0.556-0.997,1.123-1.259,1.551-1.421c-0.811-1.221-1.071-3.358,0.218-4.647
			c1.295-1.297,2.369-2.579,5.571-0.692c1.658-1.753,2.129-4.44,2.847-5.002c0.723-0.564,1.7-0.656,2.003-0.5
			c0.309,0.168,1.583,0.704,1.884,0.988c0.323,0.292,0.741,0.924,0.505,1.326c-0.218,0.411-0.924,0.485-1.33,0.303
			c-0.414-0.192-0.892-0.7-1.272-0.599c-0.365,0.087-0.621,0.524-0.756,0.834c-0.118,0.318-2.094,3.752-2.319,4.203
			c0.921,1.088,1.741,3.57-0.097,5.344c-1.823,1.778-2.86,1.399-3.738,0.895c-0.877-0.508-1.61-0.88-1.609-0.88
			c-0.823,0.874-0.691,0.691-1.288,1.213c0.843,1.436,1.681,3.805-0.298,5.576c-1.983,1.771-4.031,1.685-6.226-0.735
			c-1.148,0.778-0.946,0.302-0.946,0.301c-1.05-1.314-1.054-1.314-1.053-1.315c0,0.001,1.423-1.123,1.423-1.127
			C264.242,258.101,266.606,256.001,267.353,255.52"/>
		<path fill="#FFFFFF" stroke="#4464C7" stroke-width="0.7789" stroke-linejoin="bevel" stroke-miterlimit="10" d="M266.555,258.558
			c0.635-1.479,2.916-2.024,3.767-1.636c0.834,0.391,2.562,2.348,2.119,3.647c-0.421,1.279-2.108,2.512-3.184,2.06
			C268.178,262.183,265.854,260.239,266.555,258.558"/>
		<path fill="#E0B577" stroke="#A87C3B" stroke-width="0.7789" stroke-linejoin="bevel" stroke-miterlimit="10" d="M268.549,260.118
			c-0.106-0.603,0.953-1.569,1.647-1.471c0.7,0.097,1.015,0.747,0.864,1.158c-0.132,0.405-0.444,1.746-1.165,1.547
			C269.164,261.167,268.673,260.892,268.549,260.118"/>
		<path fill="#FFFFFF" stroke="#4464C7" stroke-width="0.7789" stroke-linejoin="bevel" stroke-miterlimit="10" d="M276.075,255.72
			c-1.743-0.7-2.826-1.736-2.942-2.712c-0.116-0.972,0.729-2.654,2.592-2.623c1.849,0.032,2.917,0.559,3.185,1.262
			c0.289,0.702,0.536,2.305-0.149,2.992C278.076,255.319,277.027,256.084,276.075,255.72"/>
		<path fill="#E0B577" stroke="#A87C3B" stroke-width="0.7789" stroke-linejoin="bevel" stroke-miterlimit="10" d="M275.15,253.368
			c0.059-0.506,1.533-1.252,1.84-1.145c0.306,0.095,0.741,0.723,0.573,0.895c-0.162,0.163-0.724,1.57-1.487,1.355
			C275.317,254.258,275.047,254.127,275.15,253.368"/>
		<path fill="#C79C52" stroke="#806434" stroke-width="0.7789" stroke-linejoin="bevel" stroke-miterlimit="10" d="M293.662,176.44
			c-4.661,2.111-11.181,6.227-14.672,8.69c-2.214,1.565-4.873,4.362-7.214,7.332c1.766-0.094,6.328,0.741,10.46,3.426
			c1.737-3.757,9.972-10.473,13.476-11.937C295.871,181.887,294.821,178.131,293.662,176.44"/>
		<path fill="#C79C52" stroke="#806434" stroke-width="0.7789" stroke-linejoin="bevel" stroke-miterlimit="10" d="M309.428,185.304
			c-3.823-1.841-8.653-1.671-13.723-1.362c0.167-2.058-0.883-5.812-2.049-7.507c1.027-0.465,1.959-0.854,2.738-1.076
			c4.281-1.365,14-3.799,18.637-3.791c3.852-0.056,8.237,0.73,10.767,1.121c-4.73,2.353-11.234,6.426-13.367,8.515
			C310.294,183.251,309.43,185.306,309.428,185.304"/>
		<path fill="#C79C52" stroke="#806434" stroke-width="0.7789" stroke-linejoin="bevel" stroke-miterlimit="10" d="M325.794,172.694
			c-4.729,2.346-11.23,6.424-13.365,8.511c-2.137,2.046-3.001,4.106-3.006,4.104c-0.205,1.485,2.584,10.22,2.577,10.222
			c2.311,2.046,4.184,1.495,6.601,2.173c2.412,0.703,5.966,2.436,9.084,4.746c3.468-2.282,8.866-5.322,10.164-10.052
			c1.473-5.423-0.564-6.943-1.774-10.966c-1.048-3.488-2.114-6.981,0.423-9.009c0.001,0.003,0.009-0.003,0.01,0.002
			c-2.923,0.646-7.427,0.624-9.47,0.42C326.704,172.822,326.271,172.751,325.794,172.694"/>
		<path fill="#C79C52" stroke="#806434" stroke-width="0.7789" stroke-linejoin="bevel" stroke-miterlimit="10" d="M296.722,205.117
			c-0.526,7.509,7.443,18.276,10.441,20.743c0.307-0.478,0.569-0.983,0.877-1.543c3.054-5.701,3.955-6.696,5.396-9.896
			c1.459-3.211,3.493-4.287,4.954-5.642c1.474-1.369,4.741-3.113,7.957-5.415c0.388-0.29,0.856-0.596,1.342-0.916
			c-3.12-2.307-6.675-4.042-9.083-4.746c-2.417-0.675-4.295-0.132-6.598-2.168C309.271,195.496,301.208,198.054,296.722,205.117"/>
		<path fill="#C79C52" stroke="#806434" stroke-width="0.7789" stroke-linejoin="bevel" stroke-miterlimit="10" d="M295.709,183.944
			c-3.512,1.474-11.743,8.182-13.479,11.94c-0.625,1.298-0.415,4.246,0.582,5.922c1.913,0.046,6.554,0.361,8.427,0.87
			c1.88,0.488,4.812,2.132,5.49,2.444c4.465-7.064,12.548-9.627,15.271-9.589c0.005-0.01-2.777-8.741-2.579-10.225
			C305.609,183.466,300.772,183.632,295.709,183.944"/>
		<path fill="#C79C52" stroke="#806434" stroke-width="0.7789" stroke-linejoin="bevel" stroke-miterlimit="10" d="M282.819,201.802
			c-3.398,4.371-5.704,14.28-6.139,17.336c-0.399,3.111,3.701,12.053,5.532,14.507c1.671,0.026,3.382,0.091,5.111,0.264
			c7.483,0.738,11.469-0.344,13.889-1.697c2.148-1.199,3.499-2.048,5.959-6.351c-3.014-2.466-10.964-13.231-10.448-20.746
			c-0.651-0.305-3.609-1.952-5.476-2.44C289.37,202.163,284.726,201.854,282.819,201.802"/>
		<path fill="#C79C52" stroke="#806434" stroke-width="0.7789" stroke-linejoin="bevel" stroke-miterlimit="10" d="M282.818,201.801
			c-3.394,4.374-5.708,14.279-6.135,17.339c-5.002-1.608-12.806-1.014-14.547,0.372c-0.042-0.654-0.045-1.315-0.023-2.026
			c0.196-4.8,2.2-12.69,4.492-17.24c1.104-2.177,2.991-5.059,5.167-7.785c1.757-0.095,6.332,0.741,10.454,3.424
			C281.613,197.178,281.814,200.139,282.818,201.801"/>
		<path fill="#C79C52" stroke="#806434" stroke-width="0.7789" stroke-linejoin="bevel" stroke-miterlimit="10" d="M282.213,233.644
			c-5.577-0.054-10.494,0.665-12.409,1.634c-1.468,0.735-2.447,1.776-2.899,3.175c0.277-2.656-0.814-2.862-2.135-7.728
			c-1.148-4.177-2.425-7.372-2.637-11.217c1.74-1.386,9.543-1.978,14.544-0.371C276.28,222.246,280.379,231.194,282.213,233.644"/>
		<path fill="#FFC163" stroke="#B38645" stroke-width="0.7789" stroke-linejoin="bevel" stroke-miterlimit="10" d="M266.686,241.873
			c-0.426-3.243,0.632-5.347,3.118-6.594c2.472-1.263,10.015-2.094,17.515-1.373c7.48,0.74,11.471-0.343,13.888-1.696
			c2.398-1.338,3.779-2.217,6.83-7.896c3.053-5.703,3.952-6.697,5.394-9.896c1.461-3.212,3.493-4.287,4.954-5.642
			c1.476-1.368,4.74-3.116,7.959-5.41c3.203-2.361,10.025-5.581,11.512-10.973c1.473-5.429-0.563-6.942-1.777-10.965
			c-1.203-4.007-2.44-8.022,1.815-9.801c4.285-1.75,4.771,1.617,4.698,2.077c-0.082,0.466-1.61,0.43-2.438,1.237
			c-0.82,0.797,1.236,5.015,1.461,6.602c0.233,1.58,2.551,7.769,1.291,12.24c-1.204,4.476-2.964,6.049-6.659,8.623
			c-3.686,2.589-7.387,5.854-11.089,7.512c-3.718,1.664-5.474,5.134-6.576,6.429c-1.104,1.305-3.478,5.471-4.14,7.064
			c-0.676,1.586-1.537,3.773-2.29,4.747c-0.746,0.976-3.054,4.759-4.978,5.894c-1.923,1.121-3.368,2.598-6.608,3.104
			c-3.253,0.521-6.134,1.246-9.461,1.344c-3.313,0.087-6.36-1.407-9.192-1.075c-2.824,0.327-4.816,0.666-6.168,1.321
			c-1.354,0.651-2.385,0.585-2.942,1.935c-0.548,1.339-0.629,2.738-2.325,3.181C268.79,244.317,266.836,243.077,266.686,241.873"/>
		
			<path fill="#7BD968" stroke="#598C4E" stroke-width="0.7789" stroke-linecap="round" stroke-linejoin="bevel" stroke-miterlimit="10" d="
			M275.906,265.057c0.456,0.077,2.314,0.298,3.595-0.849c1.266-1.151,2.463-2.594,2.035-3.565"/>
	</g>
</g>
<g>
	<g>
		<path fill="#FFE563" stroke="#E8D46D" stroke-width="0.4563" stroke-linejoin="bevel" stroke-miterlimit="10" d="M288.706,163.807
			c0.16,0.914,1.648,4.34,1.047,7.042c-0.574,2.701-1.551,3.761-3.636,5.526c-2.08,1.773-4.159,3.916-6.288,5.101
			c-2.141,1.188-3.079,3.304-3.692,4.125c-0.614,0.819-1.891,3.388-2.231,4.357c-0.349,0.968-0.783,2.3-1.196,2.912
			c-0.408,0.611-1.637,2.961-2.739,3.723c-1.105,0.748-1.908,1.693-3.826,2.124c-1.923,0.435-3.614,0.971-5.59,1.131
			c-1.973,0.155-3.831-0.673-5.495-0.406c-1.663,0.265-2.83,0.513-3.612,0.941c-0.779,0.425-1.394,0.405-1.681,1.244
			c1.2,0.428,6.617,1.462,8.847,0.98c2.231-0.491,4.081-0.773,6.524-1.901c2.45-1.13,6.684-4.297,9.932-8.351
			c3.252-4.062,6.509-7.34,9.016-10.541c2.508-3.202,5.716-6.831,6.667-8.933c0.95-2.107,0.884-3.53,0.648-4.619
			C291.167,167.175,290.497,165.597,288.706,163.807"/>
		<path fill="#7BD968" stroke="#598C4E" stroke-width="0.4563" stroke-linejoin="bevel" stroke-miterlimit="10" d="M249.359,216.217
			c0.553,0.506,2.19,2.14,3.965,2.102c2.941-0.047,4.193-2.564,4.661-3.11c0.469-0.549,2.984-3.058,1.624-7.332
			c-1.361-4.265-1.16-6.657-1.061-8.129c-1.233-0.185-2.405-0.48-3.49-0.303c-1.666,0.266-2.83,0.512-3.612,0.941
			c-0.781,0.426-1.393,0.405-1.682,1.245c-0.019,0.066-0.037,0.132-0.061,0.196c0.592,1.54,0.616,3.804-0.097,4.921
			c-0.711,1.116-1.883,2.767-2.256,3.196c-0.273,0.324-0.183,0.859-0.222,1.027C247.002,212.35,247.92,214.91,249.359,216.217"/>
		<path fill="#7BD968" stroke="#598C4E" stroke-width="0.4563" stroke-linejoin="bevel" stroke-miterlimit="10" d="M271.858,194.279
			c-0.549,0.874-1.239,1.869-1.885,2.314c-1.105,0.749-1.907,1.693-3.824,2.123c-0.479,0.105-0.936,0.215-1.391,0.331
			c0.221,1.673,1.516,4.896,2.212,5.952c0.699,1.057,2.024,2.815,4.371,3.49c2.346,0.671,2.751,1.306,3.701,1.671
			c0.945,0.371,1.575,0.862,2.36,0.002c0.779-0.864,0.5-1.977,0.203-3.291c-0.305-1.318-0.251-3.298-0.749-5.398
			c-0.407-1.702-0.894-3.018-1.552-4.034c-0.661-1.013-3.375-3.098-3.375-3.097C271.929,194.341,271.858,194.279,271.858,194.279"/>
		<path fill="#7BD968" stroke="#598C4E" stroke-width="0.4563" stroke-linejoin="bevel" stroke-miterlimit="10" d="M288.619,163.492
			c-0.318-1.051-1.285-2.97-0.885-3.44c0.455-0.533,1.33-0.631,1.358-0.906c1.256-0.641,2.994-1.073,3.859-0.298
			c0.862,0.787,0.563,1.074,0.494,1.654c-0.052,0.588-0.821,1.166-1.523,1.471C291.226,162.277,289.477,163.334,288.619,163.492"/>
		<path fill="#7BD968" stroke="#598C4E" stroke-width="0.4563" stroke-linejoin="bevel" stroke-miterlimit="10" d="M289.179,172.747
			c-0.613,1.437-1.545,2.343-3.061,3.628c-1.273,1.087-2.551,2.313-3.835,3.367c1.597,1.671,4.521,4.512,9.275,4.033
			c2.518-0.225,3.374-0.943,4.638-1.354c1.268-0.414,3.858,0.158,5.626-0.962c0.882-0.559,1.101-0.921,1.023-1.847
			c-0.087-0.93-0.114-1.167-0.632-1.734c-0.513-0.565-2.375-2.568-3.891-3.196c-1.518-0.637-3.816-1.374-4.937-1.574
			c-1.126-0.2-4.127-0.306-4.125-0.304C289.259,172.803,289.18,172.747,289.179,172.747"/>
		<path fill="#94AEFF" stroke="#4464C7" stroke-width="0.4563" stroke-linejoin="bevel" stroke-miterlimit="10" d="M247.133,210.968
			c0.643-0.488,1.946,0.106,1.946,0.106c0.278-0.639,0.602-0.818,0.851-0.932c-0.554-0.741-0.809-2.07-0.098-2.902
			c0.716-0.838,1.296-1.651,3.292-0.571c0.908-1.128,1.076-2.789,1.483-3.151c0.408-0.365,0.987-0.445,1.173-0.36
			c0.191,0.095,0.971,0.388,1.165,0.551c0.205,0.17,0.484,0.543,0.36,0.796c-0.112,0.258-0.53,0.324-0.782,0.225
			c-0.256-0.105-0.564-0.403-0.786-0.331c-0.214,0.063-0.349,0.337-0.415,0.533c-0.059,0.196-1.079,2.365-1.188,2.652
			c0.603,0.645,1.235,2.153,0.24,3.314c-0.99,1.165-1.637,0.963-2.196,0.674c-0.558-0.29-1.019-0.503-1.019-0.503
			c-0.444,0.571-0.375,0.453-0.702,0.797c0.589,0.877,1.253,2.335,0.188,3.519c-1.066,1.185-2.315,1.203-3.802-0.271
			c-0.635,0.529-0.547,0.22-0.547,0.22c-0.718-0.805-0.718-0.806-0.718-0.806c0,0.001,0.783-0.755,0.783-0.755
			C245.411,212.677,246.712,211.289,247.133,210.968"/>
		<path fill="#FFFFFF" stroke="#4464C7" stroke-width="0.4563" stroke-linejoin="bevel" stroke-miterlimit="10" d="M246.826,212.905
			c0.292-0.952,1.629-1.355,2.161-1.136c0.52,0.224,1.678,1.4,1.5,2.233c-0.167,0.818-1.097,1.654-1.776,1.402
			C248.028,215.156,246.503,213.988,246.826,212.905"/>
		<path fill="#E0B577" stroke="#A87C3B" stroke-width="0.4563" stroke-linejoin="bevel" stroke-miterlimit="10" d="M248.118,213.836
			c-0.102-0.379,0.475-1.019,0.898-0.977c0.426,0.041,0.655,0.441,0.592,0.704c-0.054,0.259-0.151,1.116-0.599,1.011
			C248.557,214.481,248.242,214.32,248.118,213.836"/>
		<path fill="#FFFFFF" stroke="#4464C7" stroke-width="0.4563" stroke-linejoin="bevel" stroke-miterlimit="10" d="M252.37,210.851
			c-1.088-0.386-1.793-1.003-1.912-1.608c-0.119-0.604,0.304-1.67,1.418-1.699c1.107-0.029,1.772,0.268,1.971,0.694
			c0.208,0.425,0.447,1.41,0.074,1.859C253.549,210.541,252.963,211.05,252.37,210.851"/>
		<path fill="#E0B577" stroke="#A87C3B" stroke-width="0.4563" stroke-linejoin="bevel" stroke-miterlimit="10" d="M251.684,209.413
			c0.008-0.317,0.852-0.821,1.042-0.763c0.188,0.05,0.482,0.427,0.391,0.539c-0.09,0.106-0.348,0.996-0.817,0.886
			C251.832,209.963,251.663,209.888,251.684,209.413"/>
		<path fill="#C79C52" stroke="#806434" stroke-width="0.4563" stroke-linejoin="bevel" stroke-miterlimit="10" d="M261.375,162.968
			c-2.644,1.338-6.366,3.843-8.374,5.325c-1.27,0.943-2.806,2.613-4.165,4.383c1.012-0.067,3.62,0.393,5.98,1.925
			c1.011-2.237,5.729-6.313,7.719-7.26C262.627,166.127,262.03,163.941,261.375,162.968"/>
		<path fill="#C79C52" stroke="#806434" stroke-width="0.4563" stroke-linejoin="bevel" stroke-miterlimit="10" d="M270.36,167.759
			c-2.192-0.948-4.94-0.707-7.828-0.417c0.093-1.212-0.503-3.398-1.16-4.373c0.582-0.295,1.111-0.539,1.553-0.693
			c2.429-0.878,7.913-2.6,10.533-2.802c2.175-0.18,4.662,0.066,6.099,0.158c-2.647,1.645-6.307,4.308-7.511,5.61
			C270.842,166.526,270.361,167.759,270.36,167.759"/>
		<path fill="#C79C52" stroke="#806434" stroke-width="0.4563" stroke-linejoin="bevel" stroke-miterlimit="10" d="M279.557,159.63
			c-2.648,1.644-6.307,4.308-7.512,5.61c-1.201,1.283-1.687,2.52-1.686,2.519c-0.116,0.881,1.554,5.911,1.559,5.91
			c1.352,1.112,2.43,0.709,3.835,0.995c1.407,0.3,3.493,1.136,5.366,2.297c1.971-1.532,5.033-3.68,5.666-6.536
			c0.721-3.268-0.484-4.011-1.255-6.282c-0.665-1.971-1.321-3.953,0.081-5.311c0.001,0.001,0.005-0.001,0.006,0
			c-1.647,0.582-4.201,0.839-5.359,0.826C280.071,159.661,279.826,159.644,279.557,159.63"/>
		<path fill="#C79C52" stroke="#806434" stroke-width="0.4563" stroke-linejoin="bevel" stroke-miterlimit="10" d="M263.184,179.788
			c-0.284,4.459,4.585,10.617,6.491,11.935c0.149-0.289,0.306-0.603,0.465-0.946c1.643-3.498,2.15-4.12,2.92-6.068
			c0.783-1.953,1.949-2.675,2.775-3.544c0.832-0.874,2.703-2.06,4.527-3.593c0.22-0.192,0.484-0.397,0.761-0.614
			c-1.873-1.16-3.961-1.996-5.365-2.298c-1.405-0.286-2.483,0.116-3.836-0.993C270.35,173.764,265.722,175.522,263.184,179.788"/>
		<path fill="#C79C52" stroke="#806434" stroke-width="0.4563" stroke-linejoin="bevel" stroke-miterlimit="10" d="M262.532,167.342
			c-1.994,0.952-6.711,5.024-7.72,7.259c-0.359,0.776-0.246,2.516,0.329,3.494c1.101,0.004,3.775,0.116,4.857,0.375
			c1.085,0.253,2.792,1.158,3.185,1.32c2.537-4.268,7.163-6.027,8.733-6.121c-0.006,0-1.675-5.029-1.56-5.91
			C268.167,166.811,265.419,167.052,262.532,167.342"/>
		<path fill="#C79C52" stroke="#806434" stroke-width="0.4563" stroke-linejoin="bevel" stroke-miterlimit="10" d="M255.147,178.094
			c-1.962,2.626-3.276,8.558-3.492,10.406c-0.229,1.865,2.307,7.196,3.478,8.641c0.977-0.02,1.999-0.022,3.023,0.04
			c4.453,0.251,6.798-0.554,8.185-1.446c1.243-0.797,2.001-1.353,3.336-4.009c-1.907-1.318-6.776-7.475-6.49-11.937
			c-0.395-0.16-2.101-1.066-3.184-1.318C258.921,178.208,256.243,178.098,255.147,178.094"/>
		<path fill="#C79C52" stroke="#806434" stroke-width="0.4563" stroke-linejoin="bevel" stroke-miterlimit="10" d="M255.147,178.094
			c-1.962,2.626-3.276,8.557-3.491,10.406c-2.927-0.894-7.45-0.47-8.46,0.38c-0.025-0.394-0.03-0.796-0.018-1.221
			c0.103-2.901,1.295-7.63,2.641-10.339c0.646-1.3,1.749-3.017,3.013-4.643c1.009-0.067,3.621,0.392,5.978,1.924
			C254.458,175.374,254.566,177.119,255.147,178.094"/>
		<path fill="#C79C52" stroke="#806434" stroke-width="0.4563" stroke-linejoin="bevel" stroke-miterlimit="10" d="M255.133,197.141
			c-3.299,0.088-6.168,0.604-7.276,1.227c-0.848,0.474-1.401,1.128-1.634,1.996c0.105-1.637-0.552-1.748-1.4-4.705
			c-0.728-2.533-1.493-4.459-1.63-6.78c1.012-0.85,5.532-1.271,8.461-0.38C251.427,190.365,253.963,195.697,255.133,197.141"/>
		<path fill="#FFC163" stroke="#B38645" stroke-width="0.4563" stroke-linejoin="bevel" stroke-miterlimit="10" d="M246.186,202.476
			c-0.345-1.997,0.238-3.304,1.672-4.107c1.429-0.813,5.84-1.435,10.296-1.19c4.452,0.251,6.798-0.554,8.185-1.445
			c1.382-0.887,2.166-1.469,3.798-4.958c1.642-3.499,2.149-4.121,2.918-6.068c0.785-1.952,1.95-2.676,2.776-3.543
			c0.833-0.874,2.703-2.06,4.527-3.593c1.817-1.553,5.707-3.891,6.432-7.153c0.721-3.271-0.484-4.011-1.255-6.282
			c-0.765-2.266-1.523-4.539,0.858-5.874c2.394-1.333,2.735,0.597,2.705,0.875c-0.037,0.28-0.908,0.376-1.362,0.908
			c-0.452,0.529,0.803,2.849,0.971,3.758c0.162,0.91,1.646,4.339,1.047,7.041c-0.573,2.701-1.55,3.762-3.635,5.527
			c-2.08,1.773-4.16,3.916-6.288,5.1c-2.139,1.187-3.08,3.305-3.692,4.124c-0.614,0.821-1.892,3.388-2.231,4.359
			c-0.349,0.968-0.784,2.3-1.195,2.912c-0.409,0.611-1.638,2.96-2.741,3.721c-1.105,0.751-1.907,1.694-3.825,2.125
			c-1.922,0.435-3.614,0.972-5.592,1.131c-1.973,0.156-3.83-0.672-5.495-0.404c-1.663,0.264-2.831,0.511-3.611,0.939
			c-0.781,0.426-1.393,0.406-1.682,1.245c-0.285,0.834-0.286,1.698-1.274,2.006C247.505,203.947,246.308,203.217,246.186,202.476"/>
		
			<path fill="#7BD968" stroke="#598C4E" stroke-width="0.4563" stroke-linecap="round" stroke-linejoin="bevel" stroke-miterlimit="10" d="
			M252.913,216.714c0.283,0.033,1.428,0.102,2.115-0.668c0.677-0.771,1.292-1.717,0.961-2.304"/>
	</g>
</g>
<g>
	<g>
		<path fill="#FFE563" stroke="#E8D46D" stroke-width="0.2788" stroke-linejoin="bevel" stroke-miterlimit="10" d="M259.662,155.494
			c0.094,0.559,0.964,2.637,0.605,4.305c-0.345,1.666-0.925,2.333-2.167,3.447c-1.239,1.117-2.482,2.457-3.756,3.208
			c-1.278,0.75-1.85,2.058-2.221,2.569c-0.371,0.51-1.148,2.098-1.356,2.698c-0.215,0.601-0.481,1.423-0.731,1.803
			c-0.248,0.379-0.997,1.837-1.661,2.315c-0.667,0.469-1.152,1.058-2.306,1.335c-1.158,0.279-2.177,0.62-3.365,0.726
			c-1.187,0.105-2.298-0.404-3.3-0.235c-1.003,0.168-1.708,0.325-2.182,0.594c-0.472,0.266-0.843,0.254-1.023,0.777
			c0.721,0.264,3.974,0.894,5.32,0.585c1.346-0.313,2.46-0.497,3.935-1.208c1.48-0.714,4.035-2.7,5.998-5.225
			c1.966-2.528,3.922-4.577,5.424-6.574c1.503-1.995,3.416-4.276,3.983-5.585c0.567-1.31,0.527-2.18,0.389-2.844
			C261.108,157.52,260.716,156.563,259.662,155.494"/>
		<path fill="#7BD968" stroke="#598C4E" stroke-width="0.2788" stroke-linejoin="bevel" stroke-miterlimit="10" d="M235.866,188.177
			c0.334,0.315,1.324,1.337,2.399,1.302c1.782-0.051,2.539-1.643,2.823-1.987c0.286-0.347,1.803-1.939,0.999-4.596
			c-0.801-2.653-0.66-4.138-0.59-5.052c-0.741-0.11-1.442-0.29-2.096-0.177c-1.005,0.169-1.708,0.324-2.182,0.593
			c-0.474,0.266-0.843,0.254-1.024,0.777c-0.012,0.043-0.023,0.083-0.038,0.124c0.343,0.957,0.34,2.368-0.097,3.069
			s-1.156,1.74-1.382,2.01c-0.167,0.204-0.116,0.54-0.14,0.646C234.452,185.752,234.996,187.361,235.866,188.177"/>
		<path fill="#7BD968" stroke="#598C4E" stroke-width="0.2788" stroke-linejoin="bevel" stroke-miterlimit="10" d="M249.516,174.397
			c-0.334,0.544-0.753,1.163-1.143,1.442c-0.666,0.47-1.152,1.059-2.305,1.335c-0.288,0.067-0.564,0.139-0.838,0.212
			c0.121,1.035,0.885,3.026,1.301,3.678c0.417,0.652,1.211,1.735,2.627,2.133c1.416,0.394,1.66,0.784,2.234,1.001
			c0.572,0.22,0.954,0.517,1.425-0.027c0.469-0.546,0.297-1.233,0.117-2.044c-0.184-0.813-0.152-2.04-0.448-3.331
			c-0.241-1.048-0.53-1.855-0.921-2.476c-0.393-0.619-2.007-1.884-2.006-1.884C249.558,174.436,249.516,174.397,249.516,174.397"/>
		<path fill="#7BD968" stroke="#598C4E" stroke-width="0.2788" stroke-linejoin="bevel" stroke-miterlimit="10" d="M259.612,155.303
			c-0.187-0.639-0.753-1.803-0.516-2.098c0.269-0.336,0.784-0.41,0.8-0.578c0.739-0.416,1.761-0.715,2.268-0.255
			c0.508,0.466,0.333,0.648,0.291,1.005c-0.03,0.362-0.482,0.733-0.896,0.934C261.149,154.512,260.12,155.191,259.612,155.303"/>
		<path fill="#7BD968" stroke="#598C4E" stroke-width="0.2788" stroke-linejoin="bevel" stroke-miterlimit="10" d="M259.922,160.975
			c-0.366,0.89-0.919,1.46-1.824,2.273c-0.757,0.685-1.519,1.452-2.288,2.116c0.94,1.006,2.67,2.716,5.5,2.336
			c1.5-0.188,2.009-0.647,2.759-0.925c0.753-0.281,2.296,0.006,3.343-0.729c0.523-0.367,0.652-0.596,0.605-1.162
			c-0.055-0.567-0.072-0.713-0.378-1.047c-0.307-0.333-1.411-1.511-2.307-1.861c-0.9-0.353-2.258-0.756-2.922-0.857
			c-0.665-0.098-2.439-0.112-2.438-0.112C259.971,161.007,259.922,160.975,259.922,160.975"/>
		<path fill="#94AEFF" stroke="#4464C7" stroke-width="0.2788" stroke-linejoin="bevel" stroke-miterlimit="10" d="M234.54,184.884
			c0.391-0.31,1.175,0.059,1.175,0.059c0.171-0.403,0.367-0.516,0.519-0.589c-0.33-0.462-0.477-1.293-0.041-1.816
			c0.438-0.526,0.793-1.036,1.99-0.368c0.556-0.708,0.668-1.744,0.916-1.969c0.248-0.228,0.597-0.28,0.709-0.228
			c0.114,0.06,0.582,0.238,0.697,0.339c0.123,0.105,0.287,0.336,0.212,0.494c-0.069,0.161-0.321,0.204-0.472,0.142
			c-0.154-0.064-0.337-0.248-0.471-0.202c-0.129,0.039-0.213,0.211-0.254,0.333c-0.037,0.122-0.665,1.478-0.732,1.659
			c0.36,0.4,0.734,1.34,0.128,2.071c-0.602,0.735-0.992,0.612-1.329,0.433c-0.336-0.179-0.614-0.31-0.614-0.31
			c-0.27,0.359-0.229,0.285-0.428,0.504c0.353,0.547,0.748,1.46,0.101,2.211c-0.647,0.752-1.405,0.771-2.3-0.152
			c-0.387,0.337-0.333,0.142-0.333,0.142c-0.432-0.505-0.431-0.505-0.431-0.505s0.476-0.48,0.476-0.481
			C233.488,185.965,234.283,185.086,234.54,184.884"/>
		<path fill="#FFFFFF" stroke="#4464C7" stroke-width="0.2788" stroke-linejoin="bevel" stroke-miterlimit="10" d="M234.344,186.102
			c0.182-0.601,0.992-0.859,1.312-0.724c0.312,0.139,1.008,0.872,0.897,1.397c-0.104,0.516-0.667,1.047-1.079,0.892
			C235.062,187.515,234.143,186.787,234.344,186.102"/>
		<path fill="#E0B577" stroke="#A87C3B" stroke-width="0.2788" stroke-linejoin="bevel" stroke-miterlimit="10" d="M235.121,186.683
			c-0.061-0.238,0.291-0.644,0.547-0.619c0.257,0.025,0.395,0.274,0.355,0.44c-0.033,0.163-0.096,0.703-0.365,0.64
			C235.384,187.087,235.195,186.987,235.121,186.683"/>
		<path fill="#FFFFFF" stroke="#4464C7" stroke-width="0.2788" stroke-linejoin="bevel" stroke-miterlimit="10" d="M237.705,184.789
			c-0.656-0.236-1.079-0.621-1.147-0.999c-0.069-0.379,0.195-1.048,0.867-1.069c0.668-0.022,1.068,0.16,1.185,0.427
			c0.123,0.265,0.262,0.88,0.037,1.163C238.418,184.589,238.063,184.911,237.705,184.789"/>
		<path fill="#E0B577" stroke="#A87C3B" stroke-width="0.2788" stroke-linejoin="bevel" stroke-miterlimit="10" d="M237.298,183.891
			c0.007-0.199,0.518-0.518,0.633-0.482c0.113,0.03,0.289,0.265,0.234,0.335c-0.055,0.066-0.215,0.625-0.498,0.558
			C237.384,184.234,237.282,184.188,237.298,183.891"/>
		<path fill="#C79C52" stroke="#806434" stroke-width="0.2788" stroke-linejoin="bevel" stroke-miterlimit="10" d="M243.502,155.202
			c-1.578,0.825-3.816,2.36-5.03,3.269c-0.767,0.579-1.7,1.6-2.531,2.685c0.607-0.04,2.162,0.247,3.558,1.186
			c0.629-1.372,3.474-3.873,4.661-4.458C244.226,157.136,243.885,155.796,243.502,155.202"/>
		<path fill="#C79C52" stroke="#806434" stroke-width="0.2788" stroke-linejoin="bevel" stroke-miterlimit="10" d="M248.805,158.109
			c-1.292-0.572-2.924-0.415-4.644-0.229c0.065-0.744-0.274-2.084-0.658-2.68c0.347-0.181,0.664-0.332,0.926-0.428
			c1.45-0.542,4.706-1.62,6.253-1.765c1.287-0.126,2.752,0.003,3.6,0.043c-1.565,1.038-3.741,2.698-4.462,3.503
			C249.1,157.349,248.805,158.109,248.805,158.109"/>
		<path fill="#C79C52" stroke="#806434" stroke-width="0.2788" stroke-linejoin="bevel" stroke-miterlimit="10" d="M254.279,153.053
			c-1.564,1.037-3.738,2.697-4.461,3.502c-0.72,0.797-1.015,1.555-1.015,1.554c-0.073,0.542,0.884,3.617,0.887,3.617
			c0.795,0.674,1.439,0.418,2.271,0.583c0.832,0.173,2.067,0.666,3.17,1.358c1.177-0.96,3-2.32,3.381-4.081
			c0.437-2.019-0.274-2.456-0.722-3.838c-0.387-1.202-0.77-2.408,0.056-3.262c0,0,0.002,0,0.003,0
			c-0.968,0.38-2.475,0.569-3.158,0.576C254.585,153.064,254.44,153.057,254.279,153.053"/>
		<path fill="#C79C52" stroke="#806434" stroke-width="0.2788" stroke-linejoin="bevel" stroke-miterlimit="10" d="M244.446,165.517
			c-0.211,2.741,2.645,6.519,3.781,7.319c0.09-0.178,0.185-0.375,0.283-0.587c1.005-2.163,1.314-2.551,1.783-3.752
			c0.479-1.204,1.18-1.658,1.675-2.198c0.501-0.543,1.622-1.289,2.71-2.248c0.132-0.12,0.289-0.249,0.454-0.383
			c-1.105-0.691-2.339-1.186-3.17-1.361c-0.832-0.164-1.475,0.092-2.271-0.583C248.76,161.794,245.998,162.892,244.446,165.517"/>
		<path fill="#C79C52" stroke="#806434" stroke-width="0.2788" stroke-linejoin="bevel" stroke-miterlimit="10" d="M244.161,157.88
			c-1.19,0.587-4.036,3.086-4.663,4.46c-0.22,0.476-0.172,1.545,0.163,2.146c0.659,0.003,2.255,0.068,2.898,0.226
			c0.645,0.153,1.655,0.707,1.888,0.805c1.553-2.626,4.312-3.722,5.245-3.794c-0.003,0.001-0.961-3.075-0.887-3.616
			C247.512,157.537,245.881,157.696,244.161,157.88"/>
		<path fill="#C79C52" stroke="#806434" stroke-width="0.2788" stroke-linejoin="bevel" stroke-miterlimit="10" d="M239.663,164.486
			c-1.199,1.612-2.051,5.266-2.2,6.41c-0.157,1.15,1.31,4.447,2.003,5.341c0.587-0.014,1.201-0.019,1.816,0.018
			c2.672,0.141,4.085-0.369,4.922-0.926c0.751-0.498,1.207-0.847,2.024-2.492c-1.135-0.8-3.993-4.577-3.78-7.319
			c-0.235-0.097-1.244-0.649-1.888-0.804C241.917,164.555,240.319,164.488,239.663,164.486"/>
		<path fill="#C79C52" stroke="#806434" stroke-width="0.2788" stroke-linejoin="bevel" stroke-miterlimit="10" d="M239.663,164.486
			c-1.199,1.612-2.051,5.266-2.2,6.41c-1.746-0.551-4.47-0.291-5.088,0.234c-0.01-0.243-0.009-0.492,0.004-0.755
			c0.096-1.794,0.868-4.707,1.705-6.37c0.402-0.799,1.083-1.852,1.856-2.85c0.606-0.04,2.163,0.246,3.557,1.186
			C239.278,162.815,239.325,163.887,239.663,164.486"/>
		<path fill="#C79C52" stroke="#806434" stroke-width="0.2788" stroke-linejoin="bevel" stroke-miterlimit="10" d="M239.466,176.237
			c-1.984,0.061-3.713,0.383-4.388,0.773c-0.515,0.296-0.855,0.703-1.005,1.245c0.08-1.02-0.315-1.089-0.795-2.925
			c-0.411-1.572-0.849-2.766-0.904-4.202c0.619-0.524,3.341-0.783,5.089-0.233C237.306,172.046,238.773,175.343,239.466,176.237"/>
		<path fill="#FFC163" stroke="#B38645" stroke-width="0.2788" stroke-linejoin="bevel" stroke-miterlimit="10" d="M234.03,179.571
			c-0.189-1.245,0.174-2.059,1.047-2.561c0.869-0.508,3.528-0.897,6.202-0.757c2.672,0.142,4.085-0.369,4.922-0.925
			c0.834-0.555,1.308-0.92,2.307-3.08c1.004-2.164,1.313-2.551,1.783-3.753c0.48-1.204,1.179-1.658,1.675-2.197
			c0.501-0.542,1.621-1.289,2.711-2.247c1.087-0.97,3.4-2.454,3.839-4.47c0.436-2.018-0.276-2.454-0.724-3.837
			c-0.444-1.382-0.886-2.765,0.515-3.619c1.409-0.856,1.607,0.324,1.591,0.494c-0.023,0.174-0.535,0.245-0.801,0.578
			c-0.266,0.332,0.469,1.737,0.567,2.291c0.095,0.556,0.963,2.636,0.604,4.304c-0.345,1.667-0.925,2.334-2.165,3.446
			c-1.241,1.119-2.484,2.458-3.757,3.208c-1.278,0.75-1.851,2.06-2.221,2.568c-0.373,0.511-1.15,2.1-1.357,2.7
			c-0.215,0.6-0.482,1.422-0.731,1.803c-0.248,0.379-0.996,1.836-1.663,2.314c-0.665,0.47-1.152,1.058-2.304,1.335
			c-1.157,0.279-2.177,0.619-3.367,0.726c-1.187,0.104-2.298-0.405-3.3-0.235c-1.003,0.168-1.708,0.323-2.182,0.592
			c-0.473,0.267-0.842,0.256-1.024,0.778c-0.178,0.519-0.185,1.058-0.785,1.253C234.813,180.487,234.097,180.034,234.03,179.571"/>
		
			<path fill="#7BD968" stroke="#598C4E" stroke-width="0.2788" stroke-linecap="round" stroke-linejoin="bevel" stroke-miterlimit="10" d="
			M238.016,188.47c0.171,0.019,0.864,0.056,1.281-0.433c0.411-0.488,0.784-1.086,0.585-1.454"/>
	</g>
</g>
<g>
	<g>
		<path fill="#FFE563" stroke="#E8D46D" stroke-width="0.1233" stroke-linejoin="bevel" stroke-miterlimit="10" d="M240.572,153.167
			c0.04,0.247,0.411,1.167,0.25,1.91c-0.152,0.738-0.403,1.035-0.942,1.531c-0.537,0.495-1.077,1.089-1.631,1.423
			c-0.555,0.331-0.811,0.914-0.974,1.138c-0.163,0.225-0.509,0.93-0.604,1.197c-0.098,0.267-0.219,0.632-0.33,0.801
			c-0.11,0.168-0.446,0.816-0.738,1.029c-0.294,0.208-0.509,0.469-1.013,0.591c-0.507,0.124-0.953,0.274-1.471,0.322
			c-0.517,0.045-0.998-0.182-1.438-0.108c-0.439,0.075-0.748,0.144-0.959,0.263c-0.21,0.118-0.371,0.115-0.455,0.346
			c0.313,0.119,1.731,0.401,2.32,0.264c0.59-0.139,1.077-0.22,1.724-0.536c0.65-0.317,1.777-1.2,2.645-2.32
			c0.87-1.123,1.725-2.03,2.383-2.918c0.658-0.885,1.485-1.897,1.731-2.478c0.248-0.582,0.233-0.969,0.175-1.263
			C241.19,154.063,241.024,153.639,240.572,153.167"/>
		<path fill="#7BD968" stroke="#598C4E" stroke-width="0.1233" stroke-linejoin="bevel" stroke-miterlimit="10" d="M230.028,167.703
			c0.142,0.142,0.566,0.6,1.038,0.584c0.781-0.025,1.128-0.739,1.257-0.894c0.128-0.156,0.807-0.87,0.482-2.058
			c-0.323-1.186-0.247-1.848-0.209-2.256c-0.322-0.048-0.626-0.13-0.913-0.08c-0.441,0.075-0.748,0.143-0.959,0.263
			c-0.21,0.119-0.371,0.114-0.456,0.347c-0.006,0.019-0.011,0.037-0.018,0.055c0.141,0.427,0.126,1.06-0.074,1.374
			c-0.198,0.313-0.525,0.776-0.627,0.898c-0.076,0.092-0.057,0.242-0.07,0.291C229.436,166.615,229.656,167.337,230.028,167.703"/>
		<path fill="#7BD968" stroke="#598C4E" stroke-width="0.1233" stroke-linejoin="bevel" stroke-miterlimit="10" d="M236.112,161.552
			c-0.149,0.241-0.335,0.516-0.506,0.639c-0.293,0.21-0.508,0.47-1.012,0.593c-0.126,0.029-0.246,0.061-0.366,0.093
			c0.043,0.461,0.357,1.35,0.533,1.64c0.175,0.291,0.51,0.776,1.121,0.953c0.61,0.177,0.714,0.351,0.96,0.447
			c0.246,0.098,0.408,0.232,0.618-0.012c0.208-0.243,0.141-0.55,0.068-0.911c-0.073-0.362-0.048-0.91-0.165-1.485
			c-0.094-0.467-0.213-0.826-0.378-1.103c-0.164-0.277-0.854-0.839-0.854-0.839L236.112,161.552"/>
		<path fill="#7BD968" stroke="#598C4E" stroke-width="0.1233" stroke-linejoin="bevel" stroke-miterlimit="10" d="M240.553,153.082
			c-0.08-0.283-0.322-0.801-0.221-0.93c0.116-0.149,0.336-0.182,0.343-0.257c0.317-0.187,0.754-0.321,0.971-0.118
			c0.216,0.207,0.141,0.288,0.125,0.446c-0.013,0.161-0.206,0.326-0.384,0.417C241.209,152.73,240.769,153.032,240.553,153.082"/>
		<path fill="#7BD968" stroke="#598C4E" stroke-width="0.1233" stroke-linejoin="bevel" stroke-miterlimit="10" d="M240.673,155.596
			c-0.159,0.396-0.4,0.65-0.791,1.009c-0.327,0.303-0.659,0.645-0.993,0.939c0.4,0.447,1.135,1.207,2.353,1.034
			c0.642-0.083,0.862-0.288,1.186-0.414c0.324-0.127,0.983-0.003,1.433-0.333c0.226-0.163,0.281-0.266,0.262-0.517
			c-0.02-0.252-0.026-0.318-0.157-0.463c-0.129-0.146-0.598-0.666-0.981-0.818c-0.383-0.155-0.963-0.332-1.245-0.376
			c-0.284-0.043-1.046-0.045-1.046-0.045L240.673,155.596"/>
		<path fill="#94AEFF" stroke="#4464C7" stroke-width="0.1233" stroke-linejoin="bevel" stroke-miterlimit="10" d="M229.481,166.226
			c0.177-0.141,0.516,0.025,0.516,0.025c0.079-0.181,0.167-0.232,0.234-0.264c-0.141-0.207-0.196-0.578,0.001-0.813
			c0.198-0.236,0.358-0.464,0.876-0.164c0.249-0.316,0.309-0.78,0.42-0.88c0.111-0.102,0.264-0.126,0.312-0.101
			c0.05,0.026,0.252,0.107,0.301,0.153c0.053,0.046,0.122,0.15,0.088,0.22c-0.032,0.071-0.142,0.091-0.208,0.064
			c-0.065-0.029-0.145-0.112-0.203-0.091c-0.058,0.018-0.096,0.095-0.114,0.148c-0.017,0.054-0.306,0.661-0.337,0.741
			c0.153,0.179,0.307,0.6,0.035,0.928c-0.272,0.33-0.442,0.275-0.586,0.194c-0.146-0.081-0.266-0.139-0.266-0.139
			c-0.122,0.161-0.104,0.128-0.193,0.225c0.149,0.245,0.313,0.655,0.021,0.993c-0.292,0.339-0.626,0.349-1.008-0.066
			c-0.174,0.152-0.147,0.064-0.147,0.064c-0.184-0.227-0.184-0.227-0.184-0.227l0.215-0.217
			C229.01,166.711,229.368,166.317,229.481,166.226"/>
		<path fill="#FFFFFF" stroke="#4464C7" stroke-width="0.1233" stroke-linejoin="bevel" stroke-miterlimit="10" d="M229.383,166.772
			c0.087-0.269,0.445-0.385,0.584-0.325c0.136,0.061,0.433,0.39,0.378,0.626c-0.05,0.23-0.303,0.47-0.482,0.401
			C229.684,167.406,229.288,167.08,229.383,166.772"/>
		<path fill="#E0B577" stroke="#A87C3B" stroke-width="0.1233" stroke-linejoin="bevel" stroke-miterlimit="10" d="M229.719,167.032
			c-0.025-0.106,0.135-0.289,0.245-0.278c0.113,0.011,0.171,0.122,0.152,0.198c-0.017,0.073-0.049,0.315-0.167,0.288
			C229.829,167.214,229.747,167.17,229.719,167.032"/>
		<path fill="#FFFFFF" stroke="#4464C7" stroke-width="0.1233" stroke-linejoin="bevel" stroke-miterlimit="10" d="M230.871,166.182
			c-0.283-0.106-0.465-0.278-0.491-0.448c-0.028-0.168,0.097-0.468,0.39-0.478c0.293-0.01,0.465,0.071,0.513,0.191
			c0.051,0.119,0.106,0.394,0.004,0.52C231.185,166.092,231.026,166.237,230.871,166.182"/>
		<path fill="#E0B577" stroke="#A87C3B" stroke-width="0.1233" stroke-linejoin="bevel" stroke-miterlimit="10" d="M230.702,165.78
			c0.005-0.088,0.232-0.232,0.282-0.216c0.049,0.014,0.124,0.119,0.098,0.15c-0.024,0.03-0.1,0.279-0.224,0.25
			C230.736,165.933,230.692,165.914,230.702,165.78"/>
		<path fill="#C79C52" stroke="#806434" stroke-width="0.1233" stroke-linejoin="bevel" stroke-miterlimit="10" d="M233.603,153.03
			c-0.688,0.365-1.666,1.041-2.199,1.441c-0.337,0.255-0.749,0.706-1.118,1.187c0.265-0.016,0.946,0.111,1.55,0.53
			c0.282-0.609,1.53-1.712,2.046-1.969C233.913,153.887,233.768,153.294,233.603,153.03"/>
		<path fill="#C79C52" stroke="#806434" stroke-width="0.1233" stroke-linejoin="bevel" stroke-miterlimit="10" d="M235.894,154.325
			c-0.559-0.253-1.264-0.187-2.012-0.108c0.031-0.33-0.114-0.923-0.28-1.187c0.15-0.078,0.29-0.146,0.402-0.188
			c0.632-0.238,2.041-0.712,2.708-0.775c0.555-0.055,1.186,0.004,1.551,0.022c-0.673,0.459-1.614,1.193-1.928,1.549
			C236.024,153.988,235.894,154.325,235.894,154.325"/>
		<path fill="#C79C52" stroke="#806434" stroke-width="0.1233" stroke-linejoin="bevel" stroke-miterlimit="10" d="M238.264,152.087
			c-0.672,0.459-1.613,1.194-1.927,1.549c-0.313,0.352-0.443,0.689-0.443,0.689c-0.032,0.239,0.37,1.604,0.371,1.604
			c0.342,0.299,0.621,0.186,0.977,0.261c0.359,0.078,0.889,0.298,1.363,0.603c0.51-0.426,1.299-1.029,1.467-1.809
			c0.192-0.895-0.114-1.088-0.303-1.702c-0.165-0.532-0.328-1.067,0.027-1.446l0.003-0.002c-0.415,0.169-1.064,0.256-1.357,0.257
			C238.395,152.091,238.333,152.089,238.264,152.087"/>
		<path fill="#C79C52" stroke="#806434" stroke-width="0.1233" stroke-linejoin="bevel" stroke-miterlimit="10" d="M233.973,157.603
			c-0.107,1.216,1.107,2.897,1.592,3.254c0.04-0.079,0.084-0.166,0.127-0.261c0.451-0.96,0.587-1.131,0.799-1.664
			c0.215-0.534,0.52-0.735,0.737-0.974c0.219-0.241,0.707-0.57,1.18-0.996c0.056-0.052,0.124-0.109,0.196-0.17
			c-0.472-0.307-1.003-0.526-1.36-0.603c-0.36-0.073-0.638,0.038-0.978-0.262C235.862,155.957,234.663,156.44,233.973,157.603"/>
		<path fill="#C79C52" stroke="#806434" stroke-width="0.1233" stroke-linejoin="bevel" stroke-miterlimit="10" d="M233.882,154.217
			c-0.517,0.259-1.766,1.363-2.047,1.971c-0.099,0.211-0.083,0.685,0.06,0.952c0.286,0.003,0.983,0.034,1.262,0.104
			c0.279,0.069,0.714,0.317,0.816,0.359c0.69-1.163,1.889-1.646,2.293-1.678c0,0-0.404-1.363-0.371-1.602
			C235.337,154.07,234.63,154.138,233.882,154.217"/>
		<path fill="#C79C52" stroke="#806434" stroke-width="0.1233" stroke-linejoin="bevel" stroke-miterlimit="10" d="M231.896,157.139
			c-0.531,0.714-0.928,2.335-1.002,2.845c-0.077,0.511,0.538,1.98,0.832,2.379c0.255-0.006,0.525-0.008,0.791,0.009
			c1.166,0.065,1.782-0.161,2.151-0.408c0.33-0.221,0.532-0.376,0.899-1.106c-0.486-0.357-1.699-2.039-1.592-3.254
			c-0.101-0.043-0.537-0.291-0.816-0.359C232.879,157.172,232.182,157.141,231.896,157.139"/>
		<path fill="#C79C52" stroke="#806434" stroke-width="0.1233" stroke-linejoin="bevel" stroke-miterlimit="10" d="M231.896,157.139
			c-0.531,0.714-0.928,2.335-1.002,2.845c-0.758-0.248-1.955-0.134-2.232,0.1c-0.002-0.109,0-0.219,0.008-0.336
			c0.056-0.799,0.414-2.091,0.79-2.829c0.181-0.355,0.484-0.819,0.827-1.262c0.264-0.017,0.945,0.112,1.548,0.53
			C231.737,156.397,231.753,156.872,231.896,157.139"/>
		<path fill="#C79C52" stroke="#806434" stroke-width="0.1233" stroke-linejoin="bevel" stroke-miterlimit="10" d="M231.725,162.363
			c-0.867,0.025-1.628,0.168-1.928,0.342c-0.228,0.131-0.382,0.313-0.452,0.555c0.044-0.455-0.129-0.485-0.323-1.304
			c-0.166-0.701-0.348-1.233-0.361-1.873c0.276-0.233,1.473-0.348,2.232-0.101C230.816,160.494,231.43,161.963,231.725,162.363"/>
		<path fill="#FFC163" stroke="#B38645" stroke-width="0.1233" stroke-linejoin="bevel" stroke-miterlimit="10" d="M229.314,163.848
			c-0.072-0.556,0.097-0.92,0.484-1.142c0.386-0.227,1.554-0.4,2.719-0.334c1.165,0.064,1.782-0.161,2.15-0.408
			c0.367-0.246,0.576-0.408,1.027-1.368c0.45-0.96,0.585-1.132,0.797-1.664c0.216-0.535,0.521-0.735,0.738-0.975
			c0.218-0.24,0.707-0.571,1.18-0.995c0.473-0.429,1.472-1.087,1.666-1.981c0.192-0.895-0.113-1.087-0.304-1.7
			c-0.188-0.613-0.378-1.225,0.225-1.606c0.603-0.381,0.689,0.141,0.68,0.219c-0.009,0.075-0.228,0.109-0.344,0.258
			c-0.115,0.148,0.202,0.768,0.241,1.015c0.039,0.247,0.41,1.169,0.25,1.91c-0.152,0.739-0.403,1.035-0.942,1.531
			c-0.538,0.497-1.077,1.089-1.632,1.423c-0.554,0.331-0.811,0.914-0.972,1.139c-0.163,0.225-0.511,0.931-0.606,1.197
			c-0.097,0.267-0.219,0.632-0.33,0.801c-0.11,0.168-0.446,0.816-0.739,1.029c-0.293,0.208-0.509,0.47-1.012,0.592
			c-0.506,0.125-0.952,0.274-1.472,0.322c-0.517,0.045-0.998-0.182-1.437-0.108c-0.44,0.075-0.75,0.143-0.96,0.264
			c-0.209,0.118-0.37,0.113-0.455,0.346c-0.084,0.232-0.092,0.473-0.357,0.56C229.649,164.257,229.339,164.055,229.314,163.848"/>
		
			<path fill="#7BD968" stroke="#598C4E" stroke-width="0.1233" stroke-linecap="round" stroke-linejoin="bevel" stroke-miterlimit="10" d="
			M230.968,167.833c0.074,0.008,0.378,0.025,0.566-0.195c0.184-0.22,0.354-0.488,0.27-0.653"/>
	</g>
</g>
<polygon fill="#7BD968" points="400.823,211.973 400.821,211.973 400.83,211.979 "/>
</svg>
