<?xml version="1.0" encoding="utf-8"?>
<!-- Generator: Adobe Illustrator 17.0.2, SVG Export Plug-In . SVG Version: 6.00 Build 0)  -->
<!DOCTYPE svg PUBLIC "-//W3C//DTD SVG 1.1//EN" "http://www.w3.org/Graphics/SVG/1.1/DTD/svg11.dtd">
<svg version="1.1" id="Layer_1" xmlns="http://www.w3.org/2000/svg" xmlns:xlink="http://www.w3.org/1999/xlink" x="0px" y="0px"
	 width="792px" height="612px" viewBox="0 0 792 612" enable-background="new 0 0 792 612" xml:space="preserve">
<path d="M203.459,273.92c0,0.181-0.034,0.342-0.1,0.483c-0.067,0.142-0.162,0.261-0.285,0.357c-0.123,0.096-0.27,0.17-0.44,0.22
	c-0.17,0.05-0.357,0.075-0.561,0.075c-0.126,0-0.246-0.01-0.359-0.03c-0.114-0.02-0.216-0.044-0.306-0.074
	c-0.09-0.03-0.167-0.062-0.23-0.094c-0.062-0.033-0.108-0.062-0.137-0.088c-0.029-0.026-0.05-0.063-0.063-0.11
	s-0.02-0.111-0.02-0.192c0-0.05,0.003-0.092,0.008-0.126c0.005-0.034,0.012-0.061,0.02-0.082s0.019-0.036,0.033-0.045
	c0.014-0.009,0.031-0.014,0.049-0.014c0.029,0,0.071,0.018,0.128,0.053c0.056,0.035,0.125,0.074,0.208,0.116
	c0.083,0.042,0.18,0.081,0.292,0.116c0.112,0.035,0.242,0.053,0.389,0.053c0.11,0,0.209-0.012,0.298-0.035
	c0.089-0.023,0.166-0.058,0.231-0.104c0.065-0.046,0.116-0.104,0.151-0.175c0.035-0.07,0.053-0.154,0.053-0.251
	c0-0.1-0.025-0.183-0.077-0.251c-0.051-0.068-0.118-0.128-0.202-0.181c-0.083-0.052-0.178-0.099-0.283-0.139
	c-0.104-0.041-0.212-0.083-0.324-0.127c-0.112-0.044-0.22-0.095-0.326-0.151c-0.106-0.056-0.201-0.125-0.285-0.206
	c-0.084-0.081-0.151-0.178-0.202-0.291c-0.051-0.112-0.077-0.248-0.077-0.404c0-0.139,0.027-0.271,0.081-0.398
	c0.054-0.127,0.134-0.238,0.241-0.334c0.107-0.095,0.242-0.172,0.403-0.229c0.161-0.058,0.349-0.086,0.563-0.086
	c0.094,0,0.188,0.008,0.283,0.023c0.094,0.016,0.179,0.036,0.255,0.059c0.076,0.023,0.141,0.049,0.194,0.077
	c0.053,0.027,0.094,0.052,0.122,0.073c0.028,0.021,0.046,0.039,0.055,0.055s0.016,0.033,0.02,0.053
	c0.004,0.02,0.008,0.043,0.012,0.072s0.006,0.064,0.006,0.106c0,0.045-0.002,0.083-0.006,0.116c-0.004,0.033-0.011,0.06-0.02,0.08
	c-0.009,0.021-0.021,0.036-0.034,0.045c-0.013,0.009-0.027,0.014-0.043,0.014c-0.023,0-0.058-0.014-0.102-0.043
	s-0.102-0.06-0.173-0.092c-0.071-0.032-0.154-0.063-0.25-0.092c-0.095-0.029-0.205-0.043-0.328-0.043
	c-0.11,0-0.207,0.013-0.291,0.038c-0.083,0.025-0.152,0.06-0.206,0.106c-0.054,0.046-0.094,0.1-0.122,0.163
	c-0.027,0.063-0.042,0.131-0.042,0.205c0,0.102,0.026,0.188,0.079,0.257c0.053,0.069,0.121,0.13,0.204,0.183
	c0.084,0.052,0.179,0.1,0.287,0.141c0.107,0.042,0.217,0.085,0.328,0.13c0.111,0.044,0.221,0.094,0.33,0.149
	c0.108,0.055,0.205,0.122,0.289,0.2c0.083,0.079,0.151,0.173,0.202,0.283C203.434,273.637,203.459,273.768,203.459,273.92z"/>
<path d="M207.481,272.962c0,0.102-0.026,0.175-0.077,0.218c-0.051,0.043-0.109,0.064-0.175,0.064h-2.327
	c0,0.196,0.02,0.373,0.059,0.53c0.039,0.157,0.105,0.292,0.197,0.404c0.092,0.112,0.211,0.199,0.359,0.259
	c0.147,0.061,0.327,0.09,0.541,0.09c0.168,0,0.318-0.014,0.45-0.041c0.131-0.027,0.245-0.058,0.341-0.092
	c0.096-0.034,0.175-0.065,0.236-0.092c0.062-0.027,0.109-0.041,0.14-0.041c0.019,0,0.035,0.004,0.049,0.014
	c0.014,0.01,0.026,0.023,0.034,0.041c0.008,0.019,0.014,0.044,0.018,0.077c0.004,0.033,0.006,0.073,0.006,0.12
	c0,0.034-0.001,0.063-0.004,0.088c-0.002,0.025-0.006,0.047-0.01,0.067c-0.004,0.02-0.01,0.037-0.02,0.053
	c-0.009,0.016-0.021,0.031-0.035,0.045c-0.015,0.014-0.057,0.038-0.128,0.071c-0.07,0.033-0.162,0.064-0.274,0.096
	c-0.113,0.031-0.243,0.059-0.391,0.084s-0.306,0.038-0.473,0.038c-0.291,0-0.545-0.041-0.764-0.122
	c-0.219-0.082-0.402-0.202-0.552-0.361c-0.149-0.16-0.262-0.36-0.337-0.601c-0.076-0.241-0.114-0.521-0.114-0.84
	c0-0.304,0.039-0.576,0.118-0.818c0.079-0.242,0.191-0.448,0.339-0.616c0.148-0.169,0.327-0.298,0.536-0.389
	c0.209-0.091,0.443-0.136,0.703-0.136c0.277,0,0.514,0.044,0.708,0.134c0.195,0.089,0.355,0.208,0.481,0.359
	c0.125,0.151,0.218,0.327,0.277,0.53c0.059,0.203,0.088,0.419,0.088,0.649v0.118H207.481z M206.83,272.77
	c0.008-0.34-0.068-0.607-0.227-0.801c-0.159-0.193-0.396-0.291-0.709-0.291c-0.161,0-0.302,0.03-0.423,0.09
	c-0.121,0.061-0.222,0.14-0.304,0.24c-0.082,0.099-0.145,0.215-0.19,0.347c-0.045,0.132-0.07,0.271-0.075,0.414h1.928V272.77z"/>
<path d="M210.5,271.58c0,0.058-0.001,0.106-0.004,0.146c-0.002,0.039-0.008,0.07-0.016,0.092c-0.008,0.022-0.018,0.039-0.029,0.051
	c-0.011,0.012-0.028,0.018-0.049,0.018c-0.021,0-0.046-0.006-0.077-0.018c-0.03-0.012-0.064-0.023-0.102-0.035
	s-0.08-0.023-0.127-0.033c-0.047-0.011-0.098-0.016-0.153-0.016c-0.065,0-0.129,0.013-0.192,0.04
	c-0.063,0.026-0.129,0.069-0.198,0.129c-0.07,0.061-0.142,0.14-0.218,0.24c-0.076,0.099-0.16,0.221-0.251,0.365v2.324
	c0,0.021-0.005,0.039-0.016,0.053c-0.011,0.014-0.028,0.027-0.051,0.037c-0.023,0.01-0.056,0.018-0.098,0.023
	c-0.042,0.005-0.096,0.008-0.161,0.008c-0.062,0-0.115-0.002-0.157-0.008c-0.042-0.005-0.075-0.013-0.1-0.023
	c-0.025-0.01-0.042-0.023-0.051-0.037c-0.009-0.015-0.014-0.032-0.014-0.053v-3.533c0-0.021,0.004-0.039,0.012-0.053
	c0.008-0.014,0.023-0.027,0.047-0.039c0.023-0.012,0.054-0.02,0.09-0.023c0.036-0.003,0.085-0.006,0.145-0.006
	c0.058,0,0.105,0.002,0.144,0.006c0.038,0.004,0.067,0.012,0.088,0.023c0.021,0.012,0.036,0.025,0.045,0.039
	c0.009,0.015,0.014,0.032,0.014,0.053v0.514c0.097-0.141,0.188-0.256,0.273-0.345c0.085-0.089,0.166-0.159,0.241-0.21
	c0.076-0.051,0.151-0.086,0.226-0.106c0.074-0.02,0.149-0.03,0.226-0.03c0.034,0,0.073,0.002,0.116,0.006
	c0.043,0.004,0.088,0.011,0.135,0.021c0.047,0.011,0.09,0.022,0.128,0.036c0.038,0.013,0.064,0.026,0.081,0.039
	c0.016,0.013,0.026,0.025,0.031,0.038c0.005,0.012,0.01,0.027,0.014,0.045c0.004,0.019,0.006,0.045,0.008,0.081
	C210.502,271.475,210.5,271.52,210.5,271.58z"/>
<path d="M214.095,271.341c0,0.01-0.001,0.021-0.002,0.033s-0.003,0.024-0.006,0.038c-0.003,0.013-0.006,0.027-0.01,0.043
	c-0.004,0.016-0.008,0.033-0.014,0.051l-1.205,3.356c-0.01,0.029-0.024,0.052-0.041,0.071c-0.017,0.018-0.043,0.033-0.077,0.043
	c-0.034,0.01-0.077,0.018-0.129,0.021c-0.053,0.004-0.118,0.006-0.196,0.006c-0.079,0-0.144-0.002-0.196-0.008
	c-0.053-0.005-0.095-0.013-0.128-0.023c-0.033-0.01-0.058-0.025-0.077-0.043c-0.018-0.018-0.033-0.041-0.043-0.066l-1.201-3.356
	c-0.011-0.032-0.019-0.059-0.025-0.083c-0.007-0.023-0.011-0.042-0.012-0.053c-0.001-0.012-0.002-0.021-0.002-0.029
	c0-0.021,0.005-0.039,0.016-0.055c0.01-0.016,0.028-0.028,0.053-0.037s0.058-0.015,0.098-0.018c0.04-0.003,0.091-0.004,0.151-0.004
	c0.076,0,0.137,0.002,0.182,0.006c0.046,0.004,0.082,0.011,0.106,0.021c0.024,0.011,0.043,0.023,0.055,0.039
	c0.012,0.016,0.023,0.036,0.033,0.059l0.998,2.913l0.016,0.047l0.012-0.047l0.985-2.913c0.005-0.023,0.014-0.043,0.027-0.059
	s0.032-0.028,0.057-0.039c0.025-0.01,0.059-0.018,0.102-0.021c0.043-0.004,0.1-0.006,0.171-0.006c0.06,0,0.11,0.001,0.149,0.004
	s0.07,0.009,0.092,0.02c0.022,0.01,0.038,0.023,0.047,0.037C214.09,271.302,214.095,271.32,214.095,271.341z"/>
<path d="M217.819,272.962c0,0.102-0.026,0.175-0.077,0.218c-0.051,0.043-0.109,0.064-0.175,0.064h-2.327
	c0,0.196,0.02,0.373,0.059,0.53c0.039,0.157,0.105,0.292,0.197,0.404c0.092,0.112,0.211,0.199,0.359,0.259
	c0.147,0.061,0.327,0.09,0.541,0.09c0.168,0,0.318-0.014,0.45-0.041c0.131-0.027,0.245-0.058,0.341-0.092
	c0.096-0.034,0.175-0.065,0.236-0.092c0.062-0.027,0.109-0.041,0.14-0.041c0.019,0,0.035,0.004,0.049,0.014s0.026,0.023,0.034,0.041
	c0.008,0.019,0.014,0.044,0.018,0.077c0.004,0.033,0.006,0.073,0.006,0.12c0,0.034-0.001,0.063-0.004,0.088
	c-0.002,0.025-0.006,0.047-0.01,0.067s-0.01,0.037-0.02,0.053c-0.009,0.016-0.021,0.031-0.035,0.045
	c-0.015,0.014-0.057,0.038-0.128,0.071c-0.07,0.033-0.162,0.064-0.274,0.096c-0.113,0.031-0.243,0.059-0.391,0.084
	c-0.148,0.025-0.306,0.038-0.473,0.038c-0.291,0-0.545-0.041-0.764-0.122c-0.219-0.082-0.402-0.202-0.552-0.361
	c-0.149-0.16-0.262-0.36-0.337-0.601c-0.076-0.241-0.114-0.521-0.114-0.84c0-0.304,0.039-0.576,0.118-0.818s0.191-0.448,0.339-0.616
	c0.148-0.169,0.327-0.298,0.536-0.389s0.443-0.136,0.703-0.136c0.277,0,0.514,0.044,0.708,0.134
	c0.195,0.089,0.355,0.208,0.481,0.359c0.125,0.151,0.218,0.327,0.277,0.53s0.088,0.419,0.088,0.649v0.118H217.819z M217.167,272.77
	c0.008-0.34-0.068-0.607-0.227-0.801c-0.159-0.193-0.396-0.291-0.709-0.291c-0.161,0-0.302,0.03-0.423,0.09
	c-0.121,0.061-0.222,0.14-0.304,0.24c-0.082,0.099-0.145,0.215-0.19,0.347c-0.045,0.132-0.07,0.271-0.075,0.414h1.928V272.77z"/>
<path d="M221.799,274.882c0,0.021-0.004,0.039-0.014,0.055c-0.009,0.016-0.025,0.028-0.047,0.037s-0.052,0.016-0.088,0.021
	s-0.081,0.008-0.133,0.008c-0.055,0-0.101-0.002-0.137-0.008c-0.036-0.006-0.067-0.012-0.09-0.021s-0.041-0.021-0.051-0.037
	c-0.01-0.016-0.016-0.034-0.016-0.055v-0.467c-0.186,0.202-0.379,0.359-0.579,0.471c-0.2,0.112-0.419,0.169-0.658,0.169
	c-0.259,0-0.48-0.051-0.663-0.151c-0.184-0.101-0.332-0.237-0.446-0.408c-0.114-0.171-0.197-0.373-0.249-0.604
	c-0.053-0.231-0.079-0.476-0.079-0.732c0-0.303,0.033-0.578,0.098-0.822c0.065-0.244,0.162-0.454,0.291-0.626
	c0.128-0.173,0.287-0.306,0.477-0.398c0.189-0.093,0.409-0.14,0.657-0.14c0.207,0,0.396,0.045,0.567,0.136
	c0.171,0.091,0.341,0.223,0.508,0.398v-2.053c0-0.019,0.005-0.036,0.014-0.053c0.009-0.017,0.027-0.03,0.053-0.039
	c0.026-0.009,0.06-0.017,0.1-0.023c0.041-0.007,0.092-0.01,0.155-0.01c0.065,0,0.119,0.003,0.161,0.01
	c0.042,0.006,0.075,0.014,0.098,0.023c0.023,0.009,0.042,0.022,0.053,0.039c0.011,0.017,0.018,0.035,0.018,0.053V274.882z
	 M221.147,272.397c-0.175-0.217-0.345-0.383-0.508-0.497c-0.164-0.114-0.334-0.171-0.512-0.171c-0.165,0-0.305,0.039-0.42,0.118
	c-0.115,0.079-0.209,0.182-0.281,0.31c-0.072,0.128-0.125,0.273-0.157,0.436c-0.033,0.162-0.049,0.327-0.049,0.495
	c0,0.178,0.014,0.352,0.041,0.522c0.027,0.17,0.075,0.321,0.144,0.454c0.068,0.132,0.158,0.238,0.271,0.318
	c0.113,0.08,0.254,0.12,0.424,0.12c0.086,0,0.169-0.012,0.249-0.035c0.08-0.023,0.162-0.063,0.246-0.118
	c0.083-0.055,0.171-0.126,0.263-0.214c0.092-0.087,0.188-0.195,0.291-0.324v-1.414H221.147z"/>
</svg>
