<svg version="1.1" id="Layer_1" xmlns="http://www.w3.org/2000/svg" xmlns:xlink="http://www.w3.org/1999/xlink" x="0px" y="0px" viewBox="0 0 500 500" width="500px" height="500px" enable-background="new 0 0 500 500" xml:space="preserve"><defs><rect width="10" height="10" class="svg---mgr"></rect></defs><path d="M250.10000610351562 69.4000015258789 C 286.1000061035156 69.4000015258789 294.6000061035156 206.3000030517578 294.6000061035156 206.3000030517578 C 294.6000061035156 206.3000030517578 427.3999938964844 172.1999969482422 438.5 206.3000030517578 C 449.6000061035156 240.39999389648438 322 290.8999938964844 322 290.8999938964844 C 322 290.8999938964844 395.6000061035156 406.70001220703125 366.5 427.79998779296875 C 337.3999938964844 448.8999938964844 250 343.20001220703125 250 343.20001220703125 C 250 343.20001220703125 162.60000610351562 448.79998779296875 133.5 427.79998779296875 C 104.4000015258789 406.79998779296875 178 290.8999938964844 178 290.8999938964844 C 178 290.8999938964844 50.5 240.5 61.5 206.3000030517578 C 72.5 172.10000610351562 205.39999389648438 206.3000030517578 205.39999389648438 206.3000030517578 C 205.39999389648438 206.3000030517578 214.10000610351562 69.4000015258789 250.10000610351562 69.4000015258789" style="opacity: 0;"></path><rect x="245" y="124" width="10" height="10" rx="2" ry="2" class="handle-original" fill="#da55da" stroke="#000000" style="stroke-width: 2px; opacity: 0.5;"></rect><rect x="153" y="389" width="10" height="10" rx="2" ry="2" class="handle-original" fill="#da55da" stroke="#000000" style="stroke-width: 2px; opacity: 0.5;"></rect><rect x="238" y="243" width="10" height="10" rx="2" ry="2" class="handle-original" fill="#da55da" stroke="#000000" style="stroke-width: 2px; opacity: 0.5;"></rect><rect x="329" y="380" width="10" height="10" rx="2" ry="2" class="handle-original" fill="#da55da" stroke="#000000" style="stroke-width: 2px; opacity: 0.5;"></rect><rect x="245" y="124" width="10" height="10" rx="2" ry="2" class="handle" fill="#da55da" stroke="#000000" style="stroke-width: 2px;"></rect><rect x="153" y="389" width="10" height="10" rx="2" ry="2" class="handle" fill="#da55da" stroke="#000000" transform="matrix(1,0,0,1,-27,-83)" style="stroke-width: 2px;"></rect><rect x="238" y="243" width="10" height="10" rx="2" ry="2" class="handle" fill="#da55da" stroke="#000000" style="stroke-width: 2px;"></rect><rect x="329" y="380" width="10" height="10" rx="2" ry="2" class="handle" fill="#da55da" stroke="#000000" transform="matrix(1,0,0,1,-26,45)" style="stroke-width: 2px;"></rect></svg>