<!--?xml version="1.0" encoding="utf-8"?-->
<!-- Generator: Adobe Illustrator 17.1.0, SVG Export Plug-In . SVG Version: 6.00 Build 0)  -->

<svg version="1.1" id="Layer_1" xmlns="http://www.w3.org/2000/svg" xmlns:xlink="http://www.w3.org/1999/xlink" x="0px" y="0px" viewBox="0 0 500 500" width="500px" height="500px" enable-background="new 0 0 500 500" xml:space="preserve">
<path fill="#8DC63F" stroke="#009444" stroke-width="8" stroke-linecap="round" stroke-linejoin="round" stroke-miterlimit="10" d="M 248.046 68.7789 C 287.582 68.5498 291.637 206.218 291.37 205.597 C 291.067 206.402 418.303 173.861 428.112 210.616 C 437.006 243.939 309.649 308.215 308.771 297.122 C 313.762 317.379 350.168 457.544 348.911 458.989 C 299.194 516.128 235.686 341.707 232.735 339.183 C 240.183 312.873 119.571 357.286 113.187 351.677 C 64.5966 308.981 165.467 250.904 168.242 275.699 C 165.827 260.634 38.7393 220.464 51.4135 189.226 C 63.8407 158.596 202.513 203.982 202.841 203.435 C 202.332 204.834 215.554 68.9671 248.046 68.7789"></path>
</svg>
