<!--?xml version="1.0" encoding="utf-8"?-->
<!-- Generator: Adobe Illustrator 15.0.2, SVG Export Plug-In . SVG Version: 6.00 Build 0)  -->

<svg version="1.1" id="Layer_1" xmlns="http://www.w3.org/2000/svg" xmlns:xlink="http://www.w3.org/1999/xlink" x="0px" y="0px" width="1020px" height="200px" viewBox="0 0 1020 200" enable-background="new 0 0 1020 200" xml:space="preserve">
<path d="M 1005.43 78.9662 C 1009.14 82.3928 1010.29 86.8342 1012.76 90.1768 C 1010.27 104.55 983.845 97.6353 968.926 96.6681 C 965.413 96.4403 961.464 97.0328 956.927 96.8154 C 950.579 96.5114 943.829 94.5072 936.227 93.7436 C 921.823 92.2968 906.464 93.7647 891.517 92.2613 C 883.817 91.4868 875.517 89.0972 866.74 88.5509 C 849.468 87.476 829.512 89.0221 811.859 88.3863 C 802.342 88.0435 793.826 87.7364 785.065 90.6249 C 779.923 92.3201 774.91 95.867 766.952 97.3776 C 759.123 98.8637 751.938 99.0526 742.086 100.151 C 731.606 101.319 721.39 104.307 710.462 105.595 C 704.24 106.329 698.732 106.279 693.625 109.594 C 688.174 109.334 683.679 110.138 678.071 110.319 C 676.561 115.537 675.722 121.514 674.36 127.634 C 673.156 133.043 672.063 139.732 669.848 144.308 C 668.716 146.646 666.273 148.127 665.239 150.293 C 663.22 154.518 664.109 160.27 666.634 164.141 C 665.03 168.574 665.659 173.641 663.702 177.497 C 663.106 178.671 661.874 178.551 660.357 180.214 C 657.758 183.064 656.638 188.415 650.35 188.093 C 648.795 186.84 649.491 184.66 649.557 182.157 C 643.628 183.419 638.685 191.846 630.204 186.876 C 628.184 183.934 633.855 183.956 632.713 180.228 C 627.475 181.926 624.034 187.397 616.062 184.928 C 614.753 182.238 616.699 179.994 617.892 178.281 C 614.143 175.111 616.85 170.749 615.577 166.305 C 613.076 166.891 608.854 166.052 605.543 167.054 C 601.336 168.327 597.956 173.977 592.917 171.677 C 591.784 162.853 598.752 161.97 597.833 153.702 C 605.346 146.671 617.244 143.998 615.517 128.372 C 601.24 128.63 585.859 128.604 571.155 128.405 C 559.34 128.245 548.26 131.716 534.591 131.788 C 525.328 131.837 515.962 129.681 506.283 129.235 C 493.694 128.654 480.143 130.182 467.163 130.381 C 463.758 130.434 460.31 131.863 456.499 131.955 C 445.599 132.218 434.24 129.748 423.11 130.301 C 418.818 135.224 418.284 144.46 415.416 151.338 C 414.218 154.208 411.397 155.852 410.89 158.824 C 410.394 161.73 412.265 165.161 411.85 168.112 C 410.972 174.368 407.966 177.51 402.583 180.463 C 401.725 184.505 401.216 189.136 396.357 189.384 C 393.592 190.257 395.368 185.33 393.721 184.192 C 392.122 187.115 388.201 191.202 384.341 189.954 C 380.878 189.255 384.196 185.89 384.063 183.342 C 379.336 186.319 376.328 194.433 368.223 192.133 C 368.115 188.361 370.459 187.093 370.271 183.418 C 368.458 180.406 369.986 173.019 366.223 171.731 C 362.854 170.961 361.437 174.541 357.954 174.937 C 356.03 175.156 354.176 173.45 351.925 174.002 C 348.37 174.874 347.465 179.475 343.12 179.801 C 336.639 174.494 344.564 166.358 344.782 159.912 C 347.686 156.135 353.085 154.904 357.126 152.482 C 358.495 149.498 358.13 144.89 358.541 141.154 C 357.053 136.959 351.918 138.258 347.594 137.294 C 344.371 136.575 341.347 134.247 337.839 134.036 C 332.169 133.696 325.12 136.196 317.868 136.168 C 303.787 136.114 289.659 131.925 272.049 133.987 C 268.467 134.406 264.75 136.575 260.919 137.141 C 255.225 137.982 248.712 137.712 243.261 137.176 C 238.809 136.739 235.334 133.934 230.901 132.701 C 228.448 132.019 225.071 132.572 221.924 132.107 C 219.333 131.724 216.302 130.619 214.144 130.794 C 207.797 131.309 199.968 136.747 191.813 140.628 C 181.643 145.468 169.464 153.005 158.809 160.599 C 147.085 168.954 134.103 164.896 120.36 156.645 C 110.247 150.573 97.775 147.604 85.0992 144.636 C 80.337 143.521 75.7707 141.216 71.4558 140.344 C 63.5597 138.748 50.3912 138.703 50.2531 128.293 C 50.2076 124.861 53.8351 121.866 55.8575 118.729 C 58.0388 115.345 59.1068 111.486 62.2032 110.382 C 66.171 112.909 69.5361 119.28 73.6794 119.105 C 78.246 118.913 77.9351 111.412 81.9371 108.381 C 86.8555 109.851 91.8152 120.23 96.8039 120.855 C 101.273 121.416 101.929 114.723 104.946 108.63 C 109.137 111.477 113.125 122.231 117.171 123.898 C 121.599 125.721 121.552 116.508 125.209 112.038 C 128.989 117.129 131.947 125.532 135.509 131.434 C 139.269 131.401 141.004 123.745 143.304 115.994 C 150.028 131.855 156.432 127.293 161.548 109.819 C 165.032 111.122 167.373 114.419 170.357 115.389 C 174.909 113.645 174.087 104.252 178.567 103.523 C 183.695 110.441 190.915 109.383 195.525 102.201 C 198.265 102.468 200.138 103.875 202.132 104.785 C 205.587 104.022 206.143 100.165 208.455 98.4043 C 210.909 98.8946 212.915 99.7518 214.957 99.4891 C 217.365 99.1792 218.584 96.5616 220.702 96.029 C 223.839 95.2398 227.093 99.4702 229.049 95.464 C 224.755 92.7307 217.397 91.1755 214.24 96.4163 C 212.186 95.8313 209.881 95.3372 207.742 94.4358 C 204.6 95.156 204.697 99.8623 201.361 100.676 C 198.245 100.447 196.378 98.1072 194.145 96.0078 C 191.77 98.1446 190.758 102.346 187.749 104.15 C 183.883 103.246 181.314 99.5703 177.9 96.7196 C 174.35 98.4281 172.558 103.985 169.455 107.759 C 165.947 107.561 164.623 101.149 161.644 97.8864 C 157.98 100.915 155.313 108.705 153.157 117.647 C 149.697 115.393 146.814 108.866 144.056 101.212 C 139.647 102.327 138.769 120.972 134.988 119.622 C 131.429 118.352 129.14 104.304 125.199 100.066 C 121.316 102.577 119.578 113.83 115.465 112.977 C 111.6 112.176 108.744 105.324 104.868 102.066 C 100.84 105.173 99.4592 112.451 95.2313 113.981 C 90.7924 111.113 88.1424 105.781 83.8271 103.424 C 78.6747 104.879 77.9238 112.579 74.2136 115.455 C 67.9961 113.737 66.643 104.47 61.4498 105.145 C 57.562 105.649 54.6388 116.154 49.842 116.789 C 45.3485 116.035 46.5827 107.975 45.5546 102.748 C 44.9787 99.8204 40.113 98.0193 38.8707 93.1845 C 38.3139 91.0176 39.3067 87.3749 38.8613 84.3499 C 38.1492 79.5131 35.0454 76.8183 34.9464 74.3859 C 34.7662 69.9569 37.5805 63.8686 39.8192 61.4864 C 41.5085 59.6888 52.9866 53.3537 58.2216 51.9206 C 64.9719 50.0726 71.0977 52.8752 79.3949 48.9847 C 81.8098 47.8523 84.0776 45.3723 86.5564 43.9846 C 88.7673 42.747 90.9025 42.632 92.9321 41.3146 C 99.7183 36.9094 105.591 30.5721 110.648 28.8434 C 118.597 26.126 126.998 26.6087 134.919 24.6325 C 140.011 23.3622 144.239 21.2516 149.211 21.3067 C 157.293 21.3964 164.256 27.0371 171.062 28.5615 C 173.3 29.0628 174.98 27.8952 177.032 28.1417 C 188.205 29.484 197.389 36.4151 205.522 31.8839 C 207.683 30.6802 208.888 27.4314 211.795 26.0438 C 217.184 23.472 223.32 26.3091 228.197 26.4464 C 230.012 26.4975 231.304 25.4856 233.118 25.4251 C 234.66 25.3736 236.594 26.5103 238.011 26.3692 C 245.102 25.6629 250.516 21.728 257.75 22.8082 C 261.269 23.3335 265.321 25.2572 268.842 26.8126 C 273.976 29.0803 276.608 33.0294 284.252 31.8641 C 286.316 31.5495 287.95 30.1523 289.822 29.6858 C 294.864 28.4296 301.587 28.1506 307.654 26.9333 C 313.472 25.7659 319.316 23.1743 323.546 22.774 C 325.672 22.5729 326.95 23.4271 328.443 23.1521 C 335.081 21.929 339.791 17.1898 345.475 22.7238 C 354.807 21.4644 368.698 15.7334 375.792 20.6853 C 386.16 21.1864 394.832 15.3913 404.388 16.2284 C 408.453 16.5846 412.138 18.8306 416.012 18.8446 C 419.903 18.8588 423.561 17.2092 427.122 17.609 C 432.739 18.2395 437.433 23.2605 442.584 23.4939 C 445.39 23.621 447.143 22.3222 449.518 21.9304 C 456.04 20.8541 464.22 19.9625 470.458 19.9797 C 478.985 20.0031 487.679 23.5821 496.82 24.0981 C 507.387 24.6946 518.387 23.7024 528.298 24.503 C 532.799 24.8666 536.417 26.7168 540.205 27.1119 C 548.098 27.9349 557.04 25.9686 564.876 27.102 C 570.098 27.8573 574.578 30.9619 578.903 31.1121 C 581.344 31.197 583.42 30.094 585.632 29.8229 C 590.661 29.2067 595.968 29.964 599.757 29.1987 C 602.63 28.6182 604.844 26.8232 607.176 26.5515 C 610.672 26.1442 613.728 27.3063 616.596 27.22 C 624.683 26.9766 630.998 24.3225 636.836 21.2781 C 639.721 26.5911 644.752 27.1846 652.296 29.8917 C 659.023 32.3055 670.268 39.0328 676.538 31.9264 C 682.782 33.3214 688.449 32.5813 694.047 33.2197 C 700.099 33.9101 705.391 36.3218 710.877 37.1651 C 714.79 37.7666 718.736 37.3827 722.315 37.8035 C 726.17 38.2566 729.998 39.6531 733.077 39.7705 C 738.793 39.9884 744.165 38.4557 749.201 39.0312 C 754.917 39.6843 759.637 42.8521 764.667 43.5964 C 775.246 45.162 787.554 44.265 800.202 44.7263 C 809.518 45.066 815.618 45.0404 822.982 46.5499 C 824.495 46.86 825.295 47.8286 825.674 47.8485 C 828.928 48.0191 831.93 46.9361 834.368 47.116 C 837.488 47.3463 840.096 48.7211 842.413 49.0289 C 848.55 49.8446 854.716 48.8037 859.788 49.5364 C 864.877 50.2715 869.006 53.2198 873.184 54.0417 C 875.442 54.4861 877.793 53.8389 879.197 53.996 C 885.012 54.647 890.275 57.9164 895.249 58.4691 C 897.453 58.714 899.447 58.2362 900.597 58.4183 C 911.342 60.1193 920.374 64.6184 929.986 65.384 C 938.752 66.0821 947.588 62.7079 954.662 67.7584 C 958.884 66.4587 963.708 66.1124 967.337 67.5418 C 969.648 68.4521 970.35 70.0315 972.045 70.7765 C 974.384 71.8051 977.32 71.9777 979.368 72.6852 C 981.882 73.554 984.389 75.1392 985.359 75.2937 C 994.566 76.7604 1000.37 74.2892 1005.43 78.9662 M 990.207 94.4419 C 996.729 94.3495 1006.89 98.0033 1008.79 90.2175 C 1004.38 84.923 996.371 85.3848 988.773 83.8414 C 981.12 82.2869 973.437 78.8465 964.744 76.8612 C 962.125 76.2632 958.539 76.3575 954.742 75.6587 C 951.951 75.1451 948.91 73.6105 945.38 73.1385 C 935.377 71.8008 924.428 71.8119 912.696 70.8741 C 915.688 74.0243 921.426 73.1268 925.393 74.0154 C 930.058 75.0603 935.187 75.7719 936.1 79.2165 C 933.324 81.0709 930.476 77.6409 926.08 76.6544 C 920.417 75.3837 912.376 77.3458 906.718 74.2468 C 907.204 71.4693 912.354 73.6012 912.002 70.8697 C 889.088 67.961 873.173 57.133 845.826 57.6346 C 843.839 57.6711 843.281 59.6438 840.456 59.6501 C 829.637 55.7196 817.498 58.35 803.617 57.2926 C 789.724 56.2343 775.275 51.9939 761.336 52.2519 C 759.655 52.283 757.644 53.1447 755.284 52.9431 C 753.107 52.7572 750.786 51.3148 747.878 50.9755 C 740.262 50.0872 733.836 50.9149 727.73 49.0437 C 725.812 48.4561 723.91 46.3863 720.971 45.7656 C 714.093 44.3131 704.968 45.3637 696.055 45.1754 C 683.725 44.915 670.083 42.3356 656.971 41.2087 C 646.694 40.3255 635.337 41.3906 624.609 40.5055 C 622.208 40.3074 619.437 39.1875 616.515 39.1695 C 613.358 39.15 610.024 40.5666 606.401 40.4723 C 600.91 40.3296 595.734 37.2012 588.929 36.4378 C 583.106 35.7845 577.387 37.5905 573.475 37.7526 C 568.395 37.9631 561.891 36.3179 556.082 36.3986 C 554.336 36.4228 552.109 37.2106 550.061 37.0513 C 544.038 36.5826 537.974 33.594 531.487 33.0959 C 515.669 31.8812 501.796 34.9301 490.884 30.1216 C 486.809 31.7063 482.03 33.655 477.293 32.9848 C 474.947 32.6529 472.434 30.2717 469.658 29.8568 C 464.202 29.0412 456.883 30.7491 450.034 29.7776 C 448.029 29.4932 446.13 28.1268 443.774 28.0417 C 435.311 27.7356 426.285 30.1624 417.151 29.2675 C 414.734 29.0307 412.037 27.7705 409.194 27.7479 C 405.572 27.7191 401.759 29.1394 397.609 29.1022 C 392.756 29.0587 387.597 27.4439 381.838 27.5044 C 375.786 27.568 369.376 29.6507 363.697 30.0605 C 361.24 30.2378 359.13 29.1883 356.422 29.2418 C 350.705 29.3548 345.198 31.5673 340.054 31.6548 C 332.494 31.7834 327.663 26.7331 321.74 26.8399 C 318.414 26.8999 314.634 29.2974 310.733 30.0947 C 300.44 32.1982 287.266 31.909 281.782 38.6035 C 273.408 32.8791 264.191 24.5855 252.792 26.1434 C 250.814 26.4137 247.77 28.2129 244.731 29.3729 C 242.125 30.3677 238.49 31.287 236.05 32.4408 C 233.568 33.6142 231.267 36.2323 228.527 37.4763 C 222.196 40.3514 213.25 41.8195 206.915 41.2471 C 200.447 40.6626 193.992 37.395 187.322 35.4302 C 181.469 33.7057 176.12 33.8953 172.017 32.6794 C 165.71 30.8104 159.24 25.8145 152.313 24.6056 C 146.706 23.627 141.257 25.2053 134.73 26.9044 C 127.328 28.8314 119.417 29.0885 111.801 32.1573 C 108.321 33.5593 102.684 38.0585 98.5249 40.9235 C 88.244 48.0056 74.0292 59.457 62.7865 56.47 C 64.245 60.1888 69.8222 61.853 70.4252 68.1846 C 70.6698 70.7534 70.6341 78.2604 66.147 77.5008 C 69.082 67.3369 66.4279 59.9161 57.1973 62.242 C 55.1903 59.1914 50.1079 58.5701 46.498 61.413 C 47.8084 65.7162 46.3905 78.1003 38.9253 74.8105 C 40.9519 80.072 42.7536 85.794 42.8376 93.7977 C 45.8531 95.768 47.4755 98.6916 50.8007 99.3077 C 54.9237 100.072 58.6422 96.7159 63.3361 96.2724 C 68.6224 95.7729 73.8632 98.3856 79.8443 97.4611 C 88.9382 96.0555 97.622 91.8635 106.224 92.6837 C 108.864 92.9355 110.99 95.2941 113.439 95.3572 C 117.176 95.4536 120.82 91.6149 124.729 89.9024 C 126.762 89.0122 129.444 90.888 131.214 90.389 C 141.204 87.5718 151.113 79.659 160.363 83.4159 C 172.91 88.5118 185.669 92.5353 196.707 91.4846 C 198.638 91.3008 200.23 89.9989 201.916 89.7089 C 206.283 88.958 211.647 89.1376 216.088 89.395 C 221.74 89.7223 229.857 90.2992 232.211 93.8098 C 230.416 106.152 217.908 100.847 208.654 104.82 C 205.778 106.055 203.848 109.134 201.05 110.023 C 198.815 110.733 196.411 109.901 193.861 110.506 C 188.657 111.74 183.38 115.25 177.831 118.228 C 173.004 120.819 167.248 120.398 162.157 123.733 C 152.958 129.761 144.811 145.53 134.623 137.25 C 118.392 124.058 102.43 123.938 87.0359 122.932 C 79.5104 129.456 55.1536 114.917 54.325 131.184 C 77.4831 139.935 103.357 141.995 126.504 157.698 C 132.704 161.904 140.348 163.12 146.261 163.216 C 149.914 163.275 153.727 162.192 156.706 160.535 C 159.764 158.834 162.002 155.855 165.083 153.524 C 169.206 150.404 173.577 148.59 177.431 145.829 C 180.539 143.603 183.342 140.175 186.387 138.411 C 188.038 137.453 190.357 137.348 192.07 136.645 C 200.821 133.056 210.318 126.653 218.269 126.251 C 220.749 126.126 222.387 127.126 224.735 126.587 C 231.618 125.005 237.824 116.621 243.894 114.921 C 253.11 112.341 260.845 113.864 266.744 114.91 C 275.699 116.5 283.575 117.044 292.568 118.231 C 303.06 119.617 313.597 124.163 324.066 121.147 C 323.486 118.486 318.946 116.592 319.578 114.225 C 324.484 114.904 326.91 119.871 330.796 121.975 C 333.199 123.277 335.919 123.63 338.155 124.746 C 345.407 128.369 351.596 133.407 358.385 136.538 C 361.035 136.934 360.883 132.711 363.134 134.909 C 361.542 143.395 362.944 155.027 356.142 158.48 C 348.96 158.045 345.452 164.07 351.098 168.056 C 355.948 171.478 361.453 168.916 367.293 168.368 C 371.506 170.007 372.75 174.968 373.163 180.6 C 375.08 182.383 379.996 182.015 382.145 180.783 C 383.769 176.85 385.239 172.773 384.159 169.384 C 382.976 165.674 378.898 166.211 377.826 161.796 C 384.91 160.017 388.159 168.49 386.875 178.543 C 389.945 178.977 392.426 181.565 395.328 179.464 C 395.572 178.736 395.646 177.982 396.476 178.076 C 397.472 169.966 392.421 165.28 392.165 160.357 C 398.142 162.216 398.665 170.465 400.058 177.245 C 407.755 176.762 409.431 167.262 407.161 158.963 C 412.062 147.114 420.834 135.747 417.945 119.873 C 417.413 118.053 414.137 119.176 413.621 116.734 C 416.859 112.363 411.597 109.393 410.325 105.592 C 402.105 103.814 396.579 98.5657 390.82 93.4455 C 388.239 92.0699 383.22 93.2895 382.938 88.6591 C 394.945 91.4502 401.398 100.782 412.711 104.142 C 414.956 107.718 416.84 111.441 419.024 114.479 C 424.561 114.478 429.374 115.385 434.328 115.223 C 447.095 114.805 462.166 109.35 474.234 108.842 C 479.747 108.61 485.222 110.679 490.301 110.635 C 493.265 110.61 495.722 109.798 498.063 109.879 C 504.862 110.115 511.881 112.405 518.374 113.092 C 522.532 113.532 526.081 113.16 529.59 113.722 C 533.059 114.277 536.434 115.907 539.586 116.374 C 550.772 118.03 561.891 117.838 572.329 119.026 C 568.917 115.188 558.287 118.197 557.495 111.014 C 562.572 111.508 574.583 113.545 577.02 117.696 C 590.606 119.319 599.885 125.156 612.703 119.702 C 614.733 118.091 610.711 111.483 614.619 111.101 C 618.323 110.738 616.348 114.742 616.799 116.359 C 618.56 122.69 620.424 130.833 619.717 139.029 C 616.507 143.021 613.436 147.55 610.569 152.344 C 605.912 151.754 604.048 154.08 601.917 156.356 C 602.904 162.967 609.266 162.706 615.472 161.656 C 619.699 163.487 621.443 169.374 619.808 174.279 C 623.519 175.002 625.801 176.775 629.931 176.246 C 632.13 174.471 634.488 173.061 635.86 170.91 C 638.03 168.247 634.521 160.268 638.315 159.611 C 642.16 162.131 639.844 173.188 638.016 176.881 C 640.848 178.15 644.165 180.239 646.792 178.844 C 648.617 176.568 648.244 174.907 647.304 171.536 C 650.593 169.6 646.485 162.317 649.817 162.235 C 654.886 164.833 650.752 172.632 652.754 176.823 C 666.783 180.063 659.264 161.582 659.925 154.89 C 660.462 149.442 664.565 146.342 666.438 142.333 C 669.734 135.274 672.807 121.433 673.556 113.674 C 674.056 108.504 674.575 100.928 672.718 95.652 C 671.66 92.6489 664.813 84.3028 661.72 83.0386 C 657.313 81.2372 648.33 82.8305 641.456 81.078 C 638.15 80.2354 634.697 76.1466 630.647 74.4026 C 628.313 73.3975 624.462 73.2279 621.172 72.4016 C 619.207 71.908 614.443 71.9115 613.066 68.4294 C 621.14 69.1942 628.341 68.9086 634.69 71.7374 C 637.385 72.9382 639.14 76.2577 641.448 77.0757 C 647.696 79.2905 654.617 77.5876 661.708 79.1066 C 670.665 84.821 677.397 92.4868 677.399 106.319 C 682.963 105.098 688.398 106.657 694.268 105.677 C 696.682 105.274 698.528 103.468 700.339 102.984 C 706.995 101.207 714.699 101.065 721.204 100.251 C 728.722 99.3093 735.793 97.6289 742.067 96.8361 C 751.006 95.7066 758.705 95.4675 766.254 94.0616 C 773.532 92.7062 779.437 88.9312 786.383 86.6252 C 799.342 82.3232 818.347 85.0104 833.933 85.5511 C 845.517 85.9529 855.016 85.2393 863.38 85.2814 C 872.89 85.3293 881.339 88.0748 890.151 88.9667 C 906.491 90.6202 920.641 88.1058 934.861 89.7914 C 943.36 90.7989 950.828 93.2259 958.224 93.4915 C 968.427 93.8581 976.028 95.4637 983.549 95.1715 C 986.399 95.0608 988.468 94.4665 990.207 94.4419 M 991.405 80.5271 C 995.387 79.7199 998.2 83.0546 1000.06 81.0806 C 998.598 79.4464 992.079 78.5686 991.405 80.5271 M 962.717 73.5872 C 969.797 75.0173 976.202 79.109 983.389 78.6481 C 980.975 75.882 976.259 74.8583 970.703 74.1724 C 968.284 68.7387 959.5 69.428 952.034 71.0879 C 951.708 68.8213 947.57 69.9068 946.006 67.853 C 943.417 69.9042 937.852 66.6381 936.023 69.2884 C 940.598 71.1459 944.11 70.7513 948.7 71.1239 C 952.111 71.4008 955.047 73.3443 957.378 73.6544 C 959.553 73.9439 961.463 73.3338 962.717 73.5872 M 914.678 68.8676 C 921.063 69.1307 924.998 68.9363 928.666 68.7059 C 915.677 64.5431 895.52 62.5885 879.902 57.9739 C 880.316 58.0075 879.012 57.9911 878.549 58.0015 C 881.17 62.7838 888.265 61.6742 892.625 63.0975 C 895.308 63.9733 896.836 65.8923 898.655 66.3455 C 901.049 66.9417 902.933 66.0543 904.655 66.3079 C 908.622 66.8924 912.025 68.7583 914.678 68.8676 M 850.452 52.9465 C 851.91 56.3482 859.252 55.9077 861.152 54.1758 C 859.249 52.5829 854.921 52.9121 850.452 52.9465 M 824.365 53.1641 C 830.742 53.6042 837.704 58.0457 843.098 53.6756 C 835.518 51.5301 827.959 51.7256 818.323 50.5531 C 807.93 49.2886 797.697 48.4183 787.49 48.1284 C 780.097 47.9183 771.389 49.6024 764.006 48.2433 C 760.668 47.6287 757.382 44.5133 753.242 43.6391 C 745.17 41.9347 733.967 44.5211 725.687 42.4533 C 725.993 43.6194 726.202 44.5298 726.363 45.1025 C 733.401 47.3894 741.008 46.6724 747.871 47.6585 C 751.302 48.1516 753.98 49.5013 756.617 49.6217 C 762.147 49.8741 767.214 48.5585 772.066 48.8786 C 785.062 49.7359 797.508 53.5751 809.624 53.9405 C 814.914 54.1 820.071 52.8678 824.365 53.1641 M 671.143 39.8865 C 683.522 40.9063 696.937 42.131 706.825 41.1719 C 700.757 34.7986 686.615 36.5634 675.19 36.5658 C 674.854 38.3559 671.41 37.409 671.143 39.8865 M 656.965 37.8869 C 661.29 38.4247 664.676 41.8936 667.756 38.5723 C 660.897 38.0068 656.448 34.9196 651.61 33.2041 C 649.188 32.3456 644.832 32.4089 642.188 31.1952 C 639.794 30.0965 638.697 26.799 635.455 25.9239 C 629.417 27.2567 622.903 30.8275 615.896 31.2036 C 614.426 31.2825 612.832 29.8915 610.513 29.8605 C 608.39 29.8322 605.353 31.1634 602.425 31.8535 C 600.223 32.3725 597.142 32.5735 594.993 34.4636 C 597.213 36.4763 600.515 35.7765 603.064 36.4501 C 604.454 36.8176 603.895 37.6538 605.087 37.8108 C 621.297 39.946 642.15 36.0446 656.965 37.8869 M 654.309 184.124 C 655.385 183.418 656.541 183.005 655.579 180.802 C 655.915 180.893 653.894 180.902 653.562 180.81 C 653.584 182.596 653.064 183.234 654.309 184.124 M 640.803 181.521 C 639.72 181.24 639.176 179.976 636.749 180.213 C 637.605 182.329 635.956 182.264 636.175 184.196 C 639.22 184.544 641.175 184.025 640.803 181.521 M 620.614 179.604 C 619.849 182.874 625.272 182.091 623.968 179.593 C 624.289 179.685 620.928 179.695 620.614 179.604 M 597.482 167.019 C 600.403 167.143 602.84 164.66 601.4 163.02 C 599.208 161.151 597.225 164.067 597.482 167.019 M 591.222 125.026 C 589.517 121.671 584.298 123.079 580.445 123.059 C 576.21 123.038 570.681 123.572 566.37 123.051 C 564.39 122.812 562.119 121.509 559.644 121.039 C 552.506 119.684 544.777 121.037 537.649 119.719 C 535.445 119.311 532.787 117.613 530.313 117.057 C 528.817 116.721 526.636 116.882 524.357 116.408 C 517.502 114.983 508.467 113.576 500.714 113.202 C 485.071 112.446 468.987 111.265 455.421 114.589 C 453.053 115.169 450.492 117.01 447.355 117.499 C 437.604 119.017 428.44 117.269 420.346 118.42 C 421.272 121.772 421.48 125.648 423.051 127.637 C 441.632 127.443 459.957 128.85 478.509 128.192 C 488.066 127.853 496.468 125.463 504.903 125.896 C 516.135 126.473 527.37 128.502 537.816 128.437 C 545.17 128.392 551.898 126.3 559.071 125.746 C 569.562 124.936 580.662 126.286 591.222 125.026 M 523.609 30.4801 C 538.493 29.8249 556.02 35.2795 572.168 33.0924 C 563.638 29.3338 550.819 30.4454 539.497 30.4306 C 534.64 28.4519 527.377 27.5939 520.987 28.5069 C 516.291 25.8547 506.168 26.1865 500.657 28.6719 C 508.285 31.8306 516.436 27.8362 523.609 30.4801 M 477.969 30.3424 C 482.95 29.8579 487.558 29.1566 489.634 26.1817 C 477.851 25.0783 466.109 21.2402 453.871 25.7139 C 460.466 28.8394 473.674 25.0765 477.969 30.3424 M 407.385 24.5764 C 416.166 24.203 425.187 28.0645 433.219 25.1969 C 431.27 18.5691 421.872 22.4776 414.755 22.1885 C 411.044 22.0377 407.117 19.634 403.141 19.5805 C 397.504 19.5047 391.065 22.15 386.698 24.5479 C 394.253 25.7583 400.173 24.8831 407.385 24.5764 M 397.331 184.023 C 399.127 184.249 399.471 183.104 399.02 181.292 C 397.636 181.251 397.287 182.392 397.331 184.023 M 390.146 185.021 C 390.449 183.378 390.01 182.276 388.238 182.466 C 388.23 183.825 387.211 184.287 387.173 185.833 C 389.09 186.392 388.89 184.918 390.146 185.021 M 372.88 188.566 C 374.857 188.144 376.487 187.44 376.338 185.068 C 374.49 183.422 372.675 186.002 372.88 188.566 M 372.756 24.8306 C 371.162 19.7554 355.912 23.7019 353.381 25.4945 C 359.452 27.0171 366.315 26.1091 372.756 24.8306 M 344.121 174.466 C 346.83 174.324 347.821 172.54 348.17 170.239 C 347.194 170.124 347.187 168.512 345.123 169.124 C 345.349 171.365 343.686 171.844 344.121 174.466 M 333.319 24.8217 C 334.753 28.456 340.089 27.4258 344.279 27.4163 C 343.544 23.4246 338.032 24.6738 333.319 24.8217 M 340.12 129.88 C 337.616 129.653 335.107 126.568 332.119 125.854 C 327.023 124.636 319.317 126.813 312.006 126.04 C 310.238 125.853 308.146 124.884 305.787 124.512 C 294.305 122.703 283.412 120.646 272.603 119.154 C 267.77 118.488 262.759 117.136 258.608 116.98 C 246.221 116.516 238.189 122.41 229.357 128.674 C 237.747 133.369 245.96 134.839 256.349 134.228 C 266.924 133.607 278.262 129.825 289.296 129.809 C 293.473 129.804 298.048 129.719 301.689 130.144 C 306.134 130.664 310.627 132.936 315.325 133.06 C 324.121 133.293 332.553 131.191 340.12 129.88 M 229.904 31.3526 C 220.02 26.108 209.94 31.0846 205.88 37.4996 C 215.455 38.1097 223.583 35.6749 229.904 31.3526 M 198.677 94.8906 C 199.955 97.1773 203.565 96.9381 203.849 93.8058 C 203.011 92.7904 198.816 92.2958 198.677 94.8906 M 194.986 105.808 C 194.133 108.506 197.986 107.802 197.613 106.283 C 196.832 106.195 196.429 105.278 194.986 105.808 M 182.479 93.373 C 182.493 98.0912 188.915 102.601 189.591 96.2344 C 188.516 93.6255 184.81 94.7109 182.479 93.373 M 180.072 110.895 C 180.214 108.602 179.523 107.656 178.007 108.123 C 178.114 108.23 178.17 111.481 178.146 111.478 C 178.144 111.5 180.22 110.955 180.072 110.895 M 165.049 91.766 C 164.895 102.444 172.209 103.438 173.363 95.4907 C 172.273 92.165 167.062 90.2898 165.049 91.766 M 161.844 119.325 C 162.359 120.105 165.185 121.15 165.112 117.736 C 164.148 116.683 162.236 113.743 161.844 119.325 M 157.922 91.8057 C 155.116 86.9164 151.258 92.3359 148.069 95.0426 C 149.282 113.625 157.466 102.732 157.922 91.8057 M 142.625 132.604 C 144.41 132.063 148.033 134.957 148.394 130.562 C 146.727 130.392 146.213 125.278 144.202 125.028 C 144.254 129.226 142.677 128.965 142.625 132.604 M 138.155 101.913 C 136.789 96.5485 133.076 98.5532 130.429 97.0639 C 130.779 110.863 137.032 114.022 138.155 101.913 M 129.465 125.676 C 127.623 124.877 127.333 120.288 125.381 119.489 C 125.552 122.019 125.273 123.153 124.93 124.227 C 126.306 124.126 129.444 129.439 129.465 125.676 M 117.956 102.393 C 114.677 103.84 111.564 97.177 109.449 101.165 C 112.577 106.583 115.889 112.958 117.956 102.393 M 104.621 119.713 C 106.221 119.481 109.567 123.093 109.873 120.386 C 108.149 118.389 107.278 114.872 105.055 113.757 C 105.772 117.523 104.283 116.778 104.621 119.713 M 97.0786 109.788 C 96.1846 104.184 100.87 104.669 98.9323 100.51 C 96.1674 100.516 89.5831 97.3312 88.4225 102.492 C 90.3726 106.245 92.5551 109.925 97.0786 109.788 M 88.132 118.054 C 87.5613 113.361 80.3633 112.886 81.5861 119.05 C 82.4394 119.673 83.1735 120.348 83.6559 121.248 C 86.2853 121.94 87.8287 120.987 88.132 118.054 M 66 100.665 C 65.895 109.306 76.6613 114.257 76.5531 102.383 C 72.7278 102.307 70.5764 99.7109 66 100.665 M 65.7943 120.187 C 65.6973 114.467 59.2537 112.703 59.8382 119.777 C 59.8662 119.822 65.8363 120.215 65.7943 120.187 M 58.1006 102.534 C 55.6682 101.441 49.4965 102.208 48.2446 105.191 C 49.4597 106.521 48.7997 110.235 50.3404 111.018 C 53.6265 109.182 57.3293 107.782 58.1006 102.534 M 42.9848 69.6655 C 44.0883 68.4049 44.0632 65.1007 41.717 65.8965 C 41.5992 67.8702 41.5465 69.7464 42.9848 69.6655"></path>
<path fill="#1F9B31" d="M 1008.79 90.2184 C 1006.89 98.0048 996.729 94.3495 990.21 94.4414 C 988.47 94.4659 986.401 95.0627 983.549 95.1745 C 976.028 95.4691 968.428 93.8625 958.224 93.4954 C 950.831 93.2295 943.363 90.8037 934.859 89.795 C 920.643 88.1087 906.494 90.6214 890.151 88.9688 C 881.337 88.0775 872.89 85.3326 863.38 85.2842 C 855.018 85.2415 845.517 85.9541 833.936 85.5537 C 818.346 85.0146 799.342 82.3271 786.385 86.6276 C 779.439 88.9332 773.532 92.71 766.252 94.0651 C 758.708 95.4695 751.006 95.7086 742.065 96.8395 C 735.795 97.6326 728.722 99.3128 721.206 100.253 C 714.7 101.067 706.996 101.212 700.339 102.987 C 698.527 103.47 696.682 105.281 694.27 105.683 C 688.398 106.66 682.961 105.099 677.399 106.322 C 677.397 92.4916 670.663 84.8232 661.708 79.1104 C 654.616 77.5906 647.696 79.2928 641.451 77.0786 C 639.139 76.2591 637.383 72.9415 634.69 71.7414 C 628.343 68.9124 621.14 69.1954 613.066 68.4333 C 614.445 71.9162 619.207 71.911 621.172 72.4039 C 624.464 73.2298 628.315 73.399 630.647 74.404 C 634.697 76.1498 638.153 80.2398 641.459 81.0821 C 648.331 82.8332 657.315 81.2394 661.721 83.0415 C 664.814 84.3069 671.656 92.6531 672.715 95.6557 C 674.576 100.934 674.054 108.506 673.554 113.674 C 672.804 121.438 669.733 135.277 666.438 142.336 C 664.567 146.343 660.461 149.444 659.924 154.892 C 659.263 161.588 666.782 180.068 652.754 176.824 C 650.752 172.633 654.888 164.834 649.817 162.238 C 646.483 162.32 650.591 169.601 647.302 171.542 C 648.244 174.913 648.617 176.571 646.792 178.847 C 644.167 180.242 640.848 178.155 638.013 176.882 C 639.844 173.194 642.162 162.137 638.312 159.614 C 634.521 160.271 638.03 168.248 635.86 170.913 C 634.488 173.061 632.13 174.472 629.933 176.249 C 625.804 176.78 623.519 175.005 619.808 174.284 C 621.441 169.379 619.697 163.49 615.474 161.661 C 609.266 162.706 602.901 162.97 601.919 156.362 C 604.046 154.085 605.912 151.757 610.569 152.345 C 613.435 147.555 616.509 143.027 619.717 139.029 C 620.423 130.836 618.561 122.691 616.8 116.362 C 616.35 114.745 618.324 110.739 614.622 111.102 C 610.711 111.486 614.734 118.097 612.703 119.707 C 599.885 125.161 590.606 119.322 577.02 117.699 C 574.585 113.546 562.572 111.513 557.493 111.015 C 558.29 118.197 568.916 115.188 572.327 119.029 C 561.889 117.84 550.775 118.035 539.586 116.377 C 536.434 115.911 533.06 114.28 529.588 113.724 C 526.084 113.162 522.531 113.537 518.374 113.096 C 511.88 112.406 504.862 110.122 498.062 109.884 C 495.723 109.802 493.263 110.612 490.302 110.638 C 485.222 110.683 479.748 108.615 474.235 108.848 C 462.168 109.357 447.096 114.804 434.327 115.223 C 429.374 115.386 424.562 114.481 419.023 114.48 C 416.841 111.446 414.956 107.723 412.712 104.143 C 401.4 100.785 394.945 91.4532 382.939 88.663 C 383.221 93.2914 388.238 92.0719 390.819 93.4465 C 396.58 98.5676 402.104 103.816 410.326 105.594 C 411.599 109.396 416.86 112.368 413.623 116.737 C 414.136 119.179 417.412 118.058 417.946 119.876 C 420.832 135.75 412.061 147.119 407.162 158.969 C 409.429 167.263 407.755 176.765 400.059 177.25 C 398.665 170.465 398.143 162.219 392.164 160.36 C 392.422 165.283 397.473 169.966 396.477 178.079 C 395.648 177.982 395.573 178.742 395.329 179.467 C 392.426 181.568 389.944 178.979 386.876 178.546 C 388.158 168.493 384.908 160.018 377.828 161.801 C 378.898 166.214 382.977 165.679 384.16 169.387 C 385.241 172.775 383.77 176.853 382.146 180.784 C 379.996 182.016 375.081 182.383 373.163 180.603 C 372.751 174.971 371.508 170.008 367.293 168.371 C 361.452 168.917 355.947 171.481 351.098 168.058 C 345.451 164.073 348.959 158.048 356.143 158.483 C 362.945 155.032 361.542 143.395 363.132 134.912 C 360.883 132.715 361.034 136.939 358.384 136.542 C 351.597 133.41 345.408 128.373 338.155 124.75 C 335.921 123.633 333.197 123.279 330.797 121.978 C 326.911 119.874 324.485 114.907 319.577 114.231 C 318.947 116.598 323.487 118.487 324.064 121.15 C 313.596 124.168 303.062 119.62 292.569 118.235 C 283.575 117.047 275.698 116.502 266.743 114.913 C 260.845 113.867 253.111 112.344 243.895 114.924 C 237.823 116.623 231.619 125.008 224.734 126.59 C 222.388 127.129 220.748 126.129 218.268 126.255 C 210.317 126.659 200.823 133.056 192.073 136.648 C 190.356 137.352 188.04 137.46 186.388 138.416 C 183.345 140.177 180.542 143.604 177.43 145.833 C 173.579 148.591 169.209 150.404 165.085 153.524 C 162.004 155.855 159.768 158.836 156.708 160.537 C 153.727 162.194 149.915 163.278 146.263 163.218 C 140.352 163.121 132.708 161.906 126.505 157.699 C 103.357 141.996 77.4834 139.939 54.3252 131.188 C 55.1556 114.922 79.5132 129.464 87.0358 122.936 C 102.432 123.942 118.393 124.071 134.627 137.26 C 144.813 145.536 152.96 129.766 162.158 123.74 C 167.25 120.404 173.003 120.823 177.831 118.233 C 183.384 115.254 188.659 111.741 193.862 110.508 C 196.413 109.903 198.816 110.735 201.05 110.027 C 203.849 109.14 205.779 106.057 208.653 104.823 C 217.907 100.851 230.416 106.154 232.211 93.814 C 229.857 90.3054 221.742 89.7257 216.09 89.3976 C 211.647 89.1397 206.282 88.9596 201.918 89.7122 C 200.231 90.0032 198.639 91.3036 196.71 91.4872 C 185.668 92.5387 172.913 88.5164 160.363 83.422 C 151.113 79.6676 141.206 87.588 131.215 90.4002 C 129.443 90.8991 126.764 89.0183 124.726 89.9116 C 120.825 91.6209 117.175 95.4586 113.44 95.3654 C 110.991 95.3042 108.863 92.9428 106.224 92.6905 C 97.6206 91.8684 88.9395 96.0583 79.8462 97.4667 C 73.8654 98.393 68.6213 95.7787 63.3361 96.2785 C 58.6404 96.7225 54.9246 100.076 50.8027 99.3115 C 47.4735 98.6942 45.8532 95.7729 42.8396 93.8025 C 42.7536 85.7989 40.9509 80.0769 38.9253 74.8116 C 46.3905 78.1027 47.8103 65.7183 46.4999 61.4151 C 50.1098 58.5756 55.1912 59.196 57.1992 62.2465 C 66.4267 59.9236 69.0818 67.3395 66.1489 77.507 C 70.6368 78.2654 70.6719 70.7582 70.427 68.1869 C 69.8242 61.8589 64.2468 60.1907 62.7875 56.4723 C 74.0309 59.4601 88.245 48.0092 98.5245 40.9267 C 102.686 38.0592 108.321 33.5624 111.804 32.159 C 119.417 29.0913 127.329 28.8333 134.733 26.9059 C 141.256 25.2078 146.707 23.6285 152.314 24.6068 C 159.242 25.8157 165.712 30.8127 172.019 32.6816 C 176.119 33.8967 181.469 33.7086 187.323 35.4338 C 193.993 37.3992 200.448 40.6652 206.915 41.2491 C 213.252 41.8214 222.199 40.3521 228.528 37.4797 C 231.269 36.236 233.567 33.6156 236.05 32.4418 C 238.49 31.288 242.127 30.3709 244.734 29.374 C 247.771 28.213 250.815 26.4155 252.792 26.1455 C 264.193 24.5885 273.41 32.8821 281.785 38.6065 C 287.268 31.9116 300.444 32.2017 310.735 30.0972 C 314.634 29.2999 318.415 26.9013 321.743 26.8412 C 327.665 26.7342 332.494 31.7823 340.054 31.656 C 345.2 31.5701 350.708 29.3557 356.422 29.2425 C 359.133 29.1888 361.241 30.2385 363.699 30.0617 C 369.377 29.6535 375.788 27.5673 381.84 27.5048 C 387.6 27.4454 392.755 29.0585 397.612 29.102 C 401.76 29.1391 405.573 27.7211 409.197 27.7478 C 412.038 27.7686 414.734 29.0333 417.154 29.2698 C 426.287 30.1624 435.313 27.7395 443.777 28.0436 C 446.133 28.1282 448.029 29.4946 450.035 29.7792 C 456.883 30.7508 464.205 29.0401 469.661 29.858 C 472.436 30.274 474.947 32.654 477.294 32.9865 C 482.029 33.6575 486.812 31.705 490.887 30.1235 C 501.8 34.9325 515.669 31.8806 531.489 33.0962 C 537.974 33.5945 544.042 36.5822 550.065 37.052 C 552.112 37.2116 554.337 36.4241 556.084 36.3995 C 561.895 36.3177 568.397 37.9637 573.478 37.7527 C 577.392 37.5901 583.108 35.7844 588.933 36.4381 C 595.736 37.2016 600.91 40.3316 606.403 40.4735 C 610.026 40.5671 613.36 39.1499 616.519 39.171 C 619.437 39.1905 622.21 40.3089 624.609 40.5071 C 635.339 41.3937 646.696 40.328 656.973 41.2104 C 670.087 42.3363 683.727 44.9166 696.06 45.1774 C 704.97 45.3659 714.095 44.3147 720.975 45.7678 C 723.914 46.3885 725.815 48.4571 727.732 49.0441 C 733.84 50.9146 740.266 50.0868 747.883 50.9759 C 750.787 51.3148 753.112 52.7579 755.284 52.9436 C 757.648 53.1457 759.654 52.2826 761.34 52.2512 C 775.279 51.9921 789.728 56.234 803.617 57.2924 C 817.5 58.3505 829.637 55.7202 840.46 59.6492 C 843.283 59.6426 843.842 57.6722 845.828 57.6356 C 873.175 57.132 889.09 67.9619 912.007 70.8686 C 912.357 73.6023 907.208 71.4681 906.718 74.2459 C 912.378 77.3461 920.421 75.3836 926.084 76.6548 C 930.477 77.6411 933.326 81.0691 936.1 79.2176 C 935.191 75.7734 930.063 75.0612 925.397 74.0149 C 921.431 73.1256 915.689 74.0262 912.7 70.8728 C 924.43 71.8118 935.379 71.8005 945.38 73.1382 C 948.909 73.6103 951.953 75.146 954.743 75.658 C 958.543 76.3551 962.127 76.2639 964.747 76.8623 C 973.439 78.8469 981.122 82.287 988.777 83.8409 C 996.371 85.3826 1004.38 84.9218 1008.79 90.2184 M 869.954 69.9841 C 874.556 72.3221 879.452 77.2733 884.03 76.4598 C 881.588 71.8855 876.135 69.7719 870.602 67.3309 C 870.677 68.7126 869.039 68.6812 869.954 69.9841 M 784.222 69.3657 C 785.257 66.024 781.134 66.2149 778.865 64.7053 C 774.542 61.8283 770.325 58.3853 763.356 57.5603 C 762.832 57.5303 762.279 57.9065 761.351 58.2178 C 761.722 59.1667 762.049 59.7055 762.039 60.2039 C 771.124 61.558 777.102 69.1174 784.222 69.3657 M 725.784 60.3141 C 728.808 64.1772 731.452 70.7293 735.816 64.9805 C 728.373 61.0523 726.44 51.1302 714.937 50.4419 C 715.258 50.4803 715.338 53.0949 714.904 53.1216 C 720.582 54.5717 723.163 56.9656 725.784 60.3141 M 667.746 61.808 C 668.689 58.1624 664.437 59.2202 663.02 57.1559 C 659.108 53.1928 654.158 49.8335 649.537 45.8564 C 644.64 46.0436 639.087 43.3413 634.707 44.5068 C 635.024 44.5294 635.021 46.5274 634.699 46.503 C 639.325 47.9818 642.844 48.4486 646.833 48.5137 C 654.726 51.9382 659.193 61.9491 667.746 61.808 M 573.336 61.0055 C 575.085 55.5354 568.723 52.2287 566.693 47.6927 C 562.736 46.3905 561.149 42.4464 556.703 41.0401 C 557.046 41.0992 555.538 41.0094 555.447 41.0454 C 555.456 41.0691 555.756 43.7026 555.336 43.6915 C 558.444 45.5581 561.104 47.5565 563.331 49.6806 C 566.625 53.7775 568.904 58.6389 573.336 61.0055 M 521.346 59.0182 C 523.581 59.6951 524.565 61.4048 527.278 60.9861 C 521.396 48.9269 512.283 39.7335 498.61 35.3108 C 498.839 35.3225 498.838 37.9553 498.559 37.966 C 503.451 40.1926 508.128 41.9803 511.602 45.0739 C 513.195 46.4925 513.063 48.4225 514.212 49.7016 C 516.056 51.7551 519.891 51.3898 520.029 54.3843 C 521.059 55.6288 521.116 57.5522 521.346 59.0182 M 468.107 61.6323 C 469.425 58.9228 466.693 54.9952 468.15 51.0251 C 462.055 44.192 454.505 38.6226 446.221 33.876 C 445.571 33.8786 445.073 34.2499 444.33 34.597 C 444.068 34.7788 443.826 35.1911 443.691 35.937 C 443.971 37.6363 445.994 37.1728 447.439 37.1211 C 452.357 43.5556 461.365 45.5821 464.961 53.0898 C 464.936 55.8523 463.903 62.0744 468.107 61.6323 M 428.687 59.6422 C 429.544 54.0469 422.764 51.2009 420.732 46.1694 C 414.466 45.1693 411.658 39.997 403.659 40.5443 C 400.964 37.5391 397.481 35.1403 391.532 35.3925 C 391.726 35.4129 391.73 38.03 391.529 38.0267 C 395.989 38.5924 399.091 41.6922 403.053 43.1922 C 404.104 43.59 405.395 42.8364 406.085 43.0147 C 408.99 43.7657 416.709 47.6797 418.303 48.9039 C 422.675 52.26 423.015 58.8652 428.687 59.6422 M 374.756 62.8373 C 375.191 59.0489 371.318 59.3704 369.324 57.2588 C 366.057 53.7997 363.755 48.8782 359.563 46.0969 C 354.533 42.7598 341.534 38.6043 335.237 38.5666 C 335.414 38.5676 335.427 40.5493 335.256 40.5469 C 344.299 43.9067 353.732 45.5139 360.209 50.6565 C 365.384 54.7646 367.761 63.6789 374.756 62.8373 M 318.92 55.434 C 320.912 57.3807 321.306 60.955 325.704 59.6386 C 324.513 56.7633 321.5 53.2986 318.272 50.8329 C 313.798 47.4152 302.058 41.5722 296.02 41.408 C 295.227 41.3864 292.367 40.5004 291.704 42.9264 C 291.858 42.9694 291.845 44.2786 291.719 44.2709 C 303.697 44.9821 310.76 51.0383 318.92 55.434 M 276.925 68.3188 C 277.895 65.1182 274.071 64.4015 272.573 62.473 C 271.034 60.4909 270.756 58.0756 268.74 56.4589 C 266.405 54.5858 262.651 54.0508 259.344 52.6211 C 259.56 52.6572 258.129 52.629 258.127 52.6377 C 258.201 52.6569 258.222 55.3716 258.097 55.3593 C 267.692 56.2039 268.916 66.257 276.925 68.3188 M 265.037 38.9822 C 267.205 39.0153 267.542 40.9088 269.999 40.2466 C 269.549 35.6325 257.698 32.6561 253.323 32.2368 C 246.534 31.5862 241.194 34.2351 240.205 39.4444 C 243.741 41.765 245.192 36.4375 248.927 36.927 C 251.358 42.698 261.444 44.0914 265.037 38.9822 M 236.59 67.2477 C 236.965 62.3305 231.28 60.7158 228.598 57.8137 C 227.217 56.32 226.595 53.9306 224.979 52.6356 C 222.199 50.4074 218.378 49.781 215.223 47.4816 C 215.34 47.4897 214.104 47.3558 214 47.3232 C 214.001 48.5924 214.157 49.5818 214.488 50.2756 C 216.67 52.468 219.267 52.4437 221.204 53.8007 C 226.878 57.7759 229.653 65.4835 236.59 67.2477 M 50.2004 76.8856 C 50.9657 80.6043 58.1983 81.0582 58.8596 75.8853 C 58.3932 70.3023 50.6196 70.3745 50.2004 76.8856"></path>
<path fill="#166D20" d="M 1000.06 81.0806 C 998.2 83.0546 995.387 79.7209 991.405 80.5271 C 992.079 78.5695 998.601 79.4464 1000.06 81.0806"></path>
<path fill="#166D20" d="M 983.389 78.648 C 976.202 79.1082 969.799 75.016 962.717 73.5863 C 961.463 73.3332 959.554 73.9435 957.378 73.6541 C 955.048 73.3442 952.111 71.4021 948.7 71.125 C 944.11 70.752 940.598 71.1461 936.023 69.2894 C 937.852 66.6371 943.417 69.9041 946.006 67.854 C 947.57 69.9068 951.708 68.8203 952.034 71.0889 C 959.5 69.428 968.284 68.7387 970.703 74.1714 C 976.259 74.8602 980.975 75.8801 983.389 78.648"></path>
<path fill="#166D20" d="M 928.666 68.707 C 925.001 68.9359 921.063 69.1312 914.678 68.8683 C 912.025 68.7591 908.622 66.8928 904.658 66.309 C 902.934 66.0551 901.049 66.9439 898.657 66.3463 C 896.835 65.8911 895.311 63.9722 892.625 63.0959 C 888.265 61.6734 881.168 62.7844 878.549 58.0013 C 879.012 57.9913 880.318 58.0074 879.904 57.9738 C 895.52 62.5885 915.677 64.542 928.666 68.707"></path>
<path d="M 884.03 76.4598 C 879.452 77.2733 874.557 72.3201 869.956 69.984 C 869.039 68.6822 870.679 68.7126 870.604 67.3309 C 876.135 69.7719 881.588 71.8845 884.03 76.4598"></path>
<path fill="#166D20" d="M 861.152 54.1758 C 859.252 55.9077 851.91 56.3482 850.452 52.9475 C 854.918 52.9091 859.249 52.5839 861.152 54.1758"></path>
<path fill="#166D20" d="M 843.098 53.6764 C 837.702 58.0436 830.744 53.6035 824.365 53.1649 C 820.071 52.8697 814.914 54.1011 809.626 53.9416 C 797.505 53.576 785.062 49.7368 772.066 48.8777 C 767.212 48.5569 762.15 49.8738 756.617 49.6216 C 753.977 49.5012 751.302 48.1544 747.871 47.6606 C 741.008 46.6731 733.398 47.3916 726.363 45.1044 C 726.2 44.5309 725.996 43.6193 725.687 42.4543 C 733.966 44.521 745.168 41.9328 753.242 43.641 C 757.383 44.5173 760.667 47.6285 764.006 48.2432 C 771.393 49.603 780.097 47.9171 787.49 48.1282 C 797.697 48.4198 807.93 49.2911 818.323 50.5544 C 827.96 51.7257 835.517 51.5307 843.098 53.6764"></path>
<path d="M 778.868 64.7054 C 781.136 66.2144 785.259 66.0223 784.224 69.3656 C 777.104 69.1174 771.124 61.5579 762.037 60.2049 C 762.049 59.7055 761.722 59.1667 761.349 58.2179 C 762.279 57.9075 762.834 57.5304 763.356 57.5612 C 770.327 58.3855 774.543 61.828 778.868 64.7054"></path>
<path d="M 735.816 64.9805 C 731.452 70.7293 728.808 64.1771 725.786 60.3151 C 723.165 56.9655 720.582 54.5718 714.904 53.1215 C 715.338 53.0949 715.258 50.4803 714.937 50.4419 C 726.438 51.1303 728.373 61.0533 735.816 64.9805"></path>
<path fill="#166D20" d="M 706.825 41.1729 C 696.937 42.13 683.52 40.9053 671.143 39.8885 C 671.408 37.411 674.854 38.3579 675.19 36.5658 C 686.615 36.5644 700.757 34.7986 706.825 41.1729"></path>
<path d="M 663.02 57.1559 C 664.439 59.2192 668.687 58.1634 667.746 61.809 C 659.193 61.9501 654.729 51.9392 646.835 48.5147 C 642.841 48.4506 639.325 47.9818 634.699 46.503 C 635.021 46.5274 635.024 44.5304 634.707 44.5078 C 639.09 43.3433 644.64 46.0446 649.537 45.8564 C 654.158 49.8335 659.108 53.1918 663.02 57.1559"></path>
<path fill="#166D20" d="M 667.756 38.5699 C 664.676 41.8952 661.29 38.4238 656.965 37.8863 C 642.153 36.0458 621.297 39.9446 605.087 37.8096 C 603.895 37.6526 604.454 36.8143 603.066 36.448 C 600.518 35.7758 597.213 36.477 594.993 34.4628 C 597.144 32.5694 600.224 32.3731 602.428 31.8529 C 605.35 31.1632 608.39 29.8302 610.51 29.8591 C 612.829 29.8907 614.426 31.2826 615.898 31.2037 C 622.902 30.8284 629.414 27.2578 635.455 25.9218 C 638.694 26.796 639.796 30.0945 642.191 31.195 C 644.832 32.4087 649.189 32.3435 651.61 33.2026 C 656.448 34.9197 660.897 38.0097 667.756 38.5699"></path>
<path fill="#FFFFFF" d="M 655.581 180.802 C 656.543 183.007 655.385 183.415 654.309 184.126 C 653.062 183.234 653.584 182.594 653.562 180.81 C 653.894 180.902 655.917 180.893 655.581 180.802"></path>
<path fill="#FFFFFF" d="M 636.749 180.211 C 639.173 179.974 639.723 181.238 640.805 181.526 C 641.174 184.025 639.223 184.542 636.175 184.198 C 635.955 182.264 637.604 182.329 636.749 180.211"></path>
<path fill="#FFFFFF" d="M 623.968 179.59 C 625.272 182.091 619.847 182.872 620.614 179.601 C 620.928 179.692 624.289 179.682 623.968 179.59"></path>
<path fill="#FFFFFF" d="M 601.4 163.02 C 602.84 164.66 600.405 167.143 597.482 167.019 C 597.225 164.067 599.208 161.151 601.4 163.02"></path>
<path fill="#D8CC5B" d="M 580.445 123.059 C 584.298 123.079 589.517 121.671 591.222 125.026 C 580.662 126.286 569.562 124.938 559.071 125.746 C 551.898 126.299 545.17 128.392 537.816 128.437 C 527.37 128.502 516.135 126.473 504.903 125.896 C 496.468 125.463 488.066 127.853 478.509 128.192 C 459.957 128.85 441.632 127.443 423.051 127.637 C 421.48 125.647 421.272 121.773 420.346 118.422 C 428.44 117.268 437.604 119.018 447.355 117.5 C 450.493 117.012 453.053 115.169 455.421 114.589 C 468.987 111.266 485.071 112.446 500.714 113.202 C 508.467 113.576 517.502 114.986 524.357 116.41 C 526.637 116.883 528.817 116.719 530.313 117.055 C 532.787 117.61 535.444 119.313 537.649 119.721 C 544.777 121.038 552.506 119.683 559.644 121.039 C 562.119 121.509 564.39 122.812 566.37 123.051 C 570.681 123.572 576.21 123.038 580.445 123.059"></path>
<path d="M 566.693 47.6927 C 568.723 52.2297 575.083 55.5324 573.336 61.0055 C 568.904 58.6369 566.625 53.7775 563.329 49.6806 C 561.107 47.5565 558.441 45.5571 555.336 43.6895 C 555.756 43.7006 555.456 41.0671 555.447 41.0434 C 555.538 41.0074 557.046 41.0972 556.703 41.0381 C 561.151 42.4474 562.737 46.3915 566.693 47.6927"></path>
<path fill="#166D20" d="M 572.166 33.0934 C 556.02 35.2805 538.493 29.8249 523.609 30.4811 C 516.436 27.8372 508.288 31.8316 500.659 28.6729 C 506.166 26.1875 516.293 25.8557 520.987 28.5079 C 527.377 27.5959 534.64 28.4559 539.497 30.4316 C 550.821 30.4454 563.641 29.3338 572.166 33.0934"></path>
<path d="M 527.275 60.9871 C 524.562 61.4028 523.579 59.6931 521.346 59.0162 C 521.119 57.5512 521.061 55.6268 520.031 54.3853 C 519.891 51.3909 516.059 51.755 514.214 49.7026 C 513.062 48.4217 513.195 46.4914 511.602 45.0736 C 508.129 41.9801 503.449 40.1935 498.56 37.9677 C 498.839 37.9576 498.84 35.3234 498.611 35.3118 C 512.284 39.7335 521.393 48.9279 527.275 60.9871"></path>
<path fill="#166D20" d="M 489.634 26.1807 C 487.558 29.1576 482.95 29.8569 477.969 30.3434 C 473.674 25.0755 460.466 28.8394 453.871 25.7119 C 466.109 21.2422 477.851 25.0793 489.634 26.1807"></path>
<path d="M 468.151 51.0241 C 466.693 54.9922 469.426 58.9238 468.107 61.6323 C 463.904 62.0733 464.938 55.8523 464.962 53.0877 C 461.366 45.58 452.357 43.5526 447.44 37.1191 C 445.994 37.1728 443.972 37.6353 443.692 35.937 C 443.826 35.1872 444.069 34.7768 444.329 34.5951 C 445.071 34.249 445.571 33.8775 446.221 33.8721 C 454.504 38.6217 462.054 44.193 468.151 51.0241"></path>
<path d="M 420.733 46.1674 C 422.763 51.2009 429.545 54.0489 428.688 59.6411 C 423.015 58.8636 422.676 52.2604 418.303 48.9022 C 416.709 47.6782 408.988 43.7649 406.085 43.013 C 405.395 42.8344 404.103 43.5885 403.053 43.1908 C 399.09 41.6902 395.987 38.5913 391.529 38.0276 C 391.73 38.0312 391.726 35.4127 391.532 35.3925 C 397.481 35.1383 400.964 37.5371 403.659 40.5443 C 411.658 39.997 414.465 45.1704 420.733 46.1674"></path>
<path fill="#166D20" d="M 433.218 25.1959 C 425.188 28.0646 416.167 24.2047 407.385 24.5765 C 400.175 24.8818 394.253 25.7585 386.698 24.5469 C 391.065 22.1499 397.503 19.505 403.14 19.5815 C 407.117 19.6355 411.043 22.0363 414.754 22.1877 C 421.874 22.4782 431.269 18.5704 433.218 25.1959"></path>
<path fill="#FFFFFF" d="M 399.021 181.292 C 399.471 183.104 399.128 184.252 397.331 184.023 C 397.287 182.392 397.637 181.251 399.021 181.292"></path>
<path fill="#FFFFFF" d="M 388.236 182.466 C 390.009 182.277 390.449 183.378 390.147 185.026 C 388.89 184.919 389.09 186.392 387.175 185.833 C 387.212 184.287 388.23 183.826 388.236 182.466"></path>
<path d="M 369.324 57.2595 C 371.318 59.37 375.192 59.0454 374.756 62.8374 C 367.761 63.6775 365.383 54.765 360.209 50.6573 C 353.732 45.5142 344.299 43.9065 335.253 40.5441 C 335.425 40.5464 335.411 38.5669 335.235 38.5658 C 341.533 38.6035 354.535 42.7584 359.563 46.096 C 363.754 48.8779 366.056 53.8002 369.324 57.2595"></path>
<path fill="#FFFFFF" d="M 376.337 185.068 C 376.489 187.442 374.858 188.144 372.88 188.568 C 372.676 186 374.489 183.423 376.337 185.068"></path>
<path fill="#166D20" d="M 353.382 25.4945 C 355.912 23.7018 371.163 19.7553 372.754 24.8307 C 366.315 26.1101 359.45 27.0172 353.382 25.4945"></path>
<path fill="#FFFFFF" d="M 348.169 170.239 C 347.821 172.544 346.829 174.325 344.122 174.466 C 343.687 171.844 345.352 171.365 345.124 169.122 C 347.189 168.512 347.193 170.124 348.169 170.239"></path>
<path fill="#166D20" d="M 344.278 27.4164 C 340.089 27.4258 334.753 28.456 333.319 24.8217 C 338.035 24.6736 343.542 23.4247 344.278 27.4164"></path>
<path fill="#D8CC5B" d="M 332.119 125.856 C 335.11 126.57 337.618 129.652 340.12 129.88 C 332.554 131.191 324.122 133.294 315.323 133.06 C 310.627 132.935 306.134 130.665 301.689 130.146 C 298.046 129.72 293.473 129.804 289.296 129.809 C 278.261 129.824 266.924 133.609 256.349 134.229 C 245.96 134.839 237.747 133.368 229.356 128.674 C 238.189 122.41 246.22 116.514 258.608 116.979 C 262.759 117.135 267.77 118.49 272.602 119.156 C 283.411 120.646 294.306 122.702 305.787 124.513 C 308.148 124.885 310.24 125.852 312.005 126.038 C 319.316 126.809 327.023 124.64 332.119 125.856"></path>
<path d="M 325.705 59.6386 C 321.306 60.955 320.912 57.3816 318.921 55.431 C 310.761 51.0382 303.697 44.9791 291.718 44.2699 C 291.844 44.2777 291.857 42.9664 291.703 42.9234 C 292.368 40.4983 295.227 41.3854 296.02 41.407 C 302.059 41.5711 313.798 47.4173 318.273 50.8327 C 321.5 53.2959 324.512 56.7631 325.705 59.6386"></path>
<path d="M 272.573 62.4726 C 274.069 64.4003 277.896 65.1176 276.925 68.3188 C 268.917 66.257 267.693 56.2039 258.099 55.3582 C 258.225 55.37 258.203 52.6585 258.129 52.6388 C 258.132 52.6281 259.558 52.6595 259.342 52.6223 C 262.651 54.0492 266.406 54.5865 268.74 56.4576 C 270.755 58.073 271.034 60.4901 272.573 62.4726"></path>
<path d="M 270.001 40.2474 C 267.542 40.9099 267.205 39.0142 265.038 38.9832 C 261.444 44.0914 251.36 42.698 248.928 36.928 C 245.193 36.4355 243.742 41.7662 240.207 39.4454 C 241.195 34.2376 246.536 31.5888 253.325 32.2381 C 257.698 32.6565 269.549 35.633 270.001 40.2474 M 254.516 36.3137 C 254.257 38.9362 258.986 40.2518 259.461 37.6776 C 258.246 36.9308 257.067 35.9504 254.516 36.3137"></path>
<path fill="#9CDBF2" d="M 259.459 37.6776 C 258.987 40.2518 254.258 38.9362 254.515 36.3127 C 257.066 35.9504 258.245 36.9308 259.459 37.6776"></path>
<path d="M 228.597 57.8126 C 231.281 60.7146 236.966 62.3318 236.59 67.2465 C 229.653 65.4863 226.878 57.776 221.204 53.8002 C 219.269 52.444 216.668 52.4673 214.488 50.2742 C 214.157 49.5834 214.001 48.5909 213.999 47.3242 C 214.103 47.3567 215.34 47.4908 215.223 47.4827 C 218.378 49.7799 222.198 50.4063 224.979 52.6345 C 226.596 53.9298 227.217 56.3209 228.597 57.8126"></path>
<path fill="#1F9B31" d="M 205.88 37.5007 C 209.94 31.0846 220.019 26.1089 229.904 31.3537 C 223.582 35.6759 215.455 38.1096 205.88 37.5007"></path>
<path fill="#FFFFFF" d="M 203.849 93.8071 C 203.563 96.9394 199.953 97.1761 198.677 94.8919 C 198.816 92.2945 203.011 92.7917 203.849 93.8071"></path>
<path fill="#FFFFFF" d="M 197.613 106.282 C 197.985 107.804 194.132 108.507 194.987 105.808 C 196.429 105.278 196.832 106.195 197.613 106.282"></path>
<path fill="#FFFFFF" d="M 189.591 96.2358 C 188.915 102.598 182.493 98.0927 182.479 93.3698 C 184.81 94.7126 188.516 93.6284 189.591 96.2358"></path>
<path fill="#FFFFFF" d="M 178.007 108.123 C 179.524 107.655 180.216 108.601 180.073 110.894 C 180.222 110.954 178.144 111.5 178.146 111.478 C 178.17 111.481 178.114 108.23 178.007 108.123"></path>
<path fill="#FFFFFF" d="M 173.363 95.4926 C 172.208 103.44 164.894 102.446 165.05 91.7638 C 167.062 90.2926 172.274 92.1689 173.363 95.4926"></path>
<path fill="#FFFFFF" d="M 165.113 117.736 C 165.186 121.153 162.36 120.105 161.845 119.325 C 162.236 113.748 164.147 116.681 165.113 117.736"></path>
<path fill="#FFFFFF" d="M 148.07 95.0466 C 151.256 92.338 155.117 86.9105 157.923 91.8088 C 157.466 102.737 149.283 113.629 148.07 95.0466"></path>
<path fill="#FFFFFF" d="M 148.395 130.565 C 148.032 134.954 144.411 132.06 142.624 132.607 C 142.676 128.965 144.256 129.232 144.203 125.025 C 146.212 125.275 146.727 130.395 148.395 130.565"></path>
<path fill="#FFFFFF" d="M 130.429 97.0673 C 133.076 98.5499 136.789 96.5407 138.153 101.916 C 137.032 114.026 130.779 110.863 130.429 97.0673"></path>
<path fill="#FFFFFF" d="M 125.381 119.486 C 127.333 120.291 127.623 124.875 129.465 125.678 C 129.444 129.437 126.306 124.126 124.93 124.23 C 125.272 123.155 125.551 122.016 125.381 119.486"></path>
<path fill="#FFFFFF" d="M 109.449 101.165 C 111.564 97.1769 114.679 103.84 117.956 102.393 C 115.892 112.959 112.576 106.582 109.449 101.165"></path>
<path fill="#FFFFFF" d="M 109.874 120.386 C 109.567 123.093 106.223 119.483 104.621 119.713 C 104.283 116.778 105.772 117.521 105.057 113.76 C 107.28 114.871 108.149 118.391 109.874 120.386"></path>
<path fill="#FFFFFF" d="M 98.9333 100.511 C 100.871 104.669 96.1866 104.185 97.0805 109.788 C 92.5561 109.926 90.3746 106.245 88.4235 102.492 C 89.5822 97.3312 96.1684 100.516 98.9333 100.511"></path>
<path fill="#FFFFFF" d="M 81.586 119.05 C 80.3633 112.886 87.5613 113.361 88.132 118.054 C 87.8287 120.987 86.2853 121.94 83.6559 121.248 C 83.1725 120.348 82.4394 119.673 81.586 119.05"></path>
<path fill="#FFFFFF" d="M 76.5531 102.383 C 76.6603 114.257 65.8941 109.308 66 100.665 C 70.5765 99.7137 72.7278 102.307 76.5531 102.383"></path>
<path fill="#FFFFFF" d="M 59.8372 119.777 C 59.2557 112.703 65.6973 114.466 65.7953 120.187 C 65.8373 120.215 59.8652 119.822 59.8372 119.777"></path>
<path fill="#166D20" d="M 56.2272 74.5572 C 56.8875 77.0134 54.7401 76.2507 53.5311 76.5285 C 53.7379 75.1004 54.7408 74.552 56.2272 74.5572"></path>
<path fill="#FFFFFF" d="M 48.2455 105.189 C 49.4976 102.209 55.6702 101.443 58.1016 102.534 C 57.3303 107.782 53.6265 109.182 50.3395 111.022 C 48.7998 110.238 49.4587 106.519 48.2455 105.189"></path>
<path d="M 58.8606 75.8851 C 58.1993 81.0581 50.9657 80.6043 50.2004 76.8856 C 50.6206 70.3744 58.3942 70.3021 58.8606 75.8851 M 53.5301 76.5286 C 54.7401 76.2507 56.8875 77.0134 56.2262 74.5573 C 54.7418 74.5507 53.7389 75.1003 53.5301 76.5286"></path>
<path fill="#166D20" d="M 41.717 65.8965 C 44.0651 65.1016 44.0913 68.4046 42.9848 69.6655 C 41.5475 69.7463 41.6002 67.8713 41.717 65.8965"></path>
</svg>
