<!--?xml version="1.0" encoding="utf-8"?-->
<!-- Generator: Adobe Illustrator 15.0.2, SVG Export Plug-In . SVG Version: 6.00 Build 0)  -->

<svg version="1.1" id="Layer_1" xmlns="http://www.w3.org/2000/svg" xmlns:xlink="http://www.w3.org/1999/xlink" x="0px" y="0px" width="570.833px" height="418.833px" viewBox="0 0 570.833 418.833" enable-background="new 0 0 570.833 418.833" xml:space="preserve">
<path fill="#F2A548" stroke="#010101" stroke-width="2" d="M 478.017 351.398 C 472.223 348.441 479.667 345.63 479.857 345.677 C 479.624 345.507 480.097 345.503 479.785 345.235 C 480.654 346.296 480.794 346.591 481.315 347.419 C 483.389 351.173 486.999 350.845 486.872 350.723 C 486.91 350.809 486.66 352.328 486.192 351.851 C 486.443 352.236 483.393 354.225 478.017 351.398"></path>
<path fill="#DA8327" stroke="#010101" stroke-width="2" d="M 460.457 370.248 C 467.11 376.293 471.17 375.51 470.375 375.235 C 477.036 383.142 467.572 378.389 466.678 377.994 C 460.77 374.907 460.828 370.119 460.457 370.248"></path>
<path fill="#F2A548" stroke="#010101" stroke-width="2" d="M 299.332 392.884 C 298.129 395.531 297.051 402.701 297.132 402.661 C 297.13 402.807 294.581 403.246 293.215 402.815 C 291.769 402.154 292.534 399.111 292.487 399.092 C 293.658 393.755 299.34 392.862 299.332 392.884"></path>
<path fill="#DA8327" stroke="#010101" stroke-width="2" d="M 256.911 392.728 C 256.303 394.78 254.975 400.224 258.486 401.334 C 251.223 404.893 249.67 396.35 250.001 396.637 C 248.921 390.753 255.622 392.384 256.911 392.728"></path>
<path fill="#F2A548" stroke="#010101" stroke-width="2" d="M 221.469 278.746 C 222.758 275.624 229.4 270.137 229.315 270.027 C 229.342 269.997 234.28 267.625 231.568 265.424 C 228.854 263.179 230.277 261.618 230.294 261.686 C 230.272 261.603 232.485 261.356 235.626 255.741 C 237.737 251.669 240.376 249.942 241.815 249.296 C 241.809 249.161 241.841 249.285 241.837 249.206 C 242.074 249.038 242.377 249.298 242.587 248.975 C 242.633 249.029 242.671 248.971 242.695 248.946 C 246.141 247.899 249.258 248.606 249.278 248.693 C 247.743 253.64 246.998 254.77 246.631 255.135 C 246.667 254.884 260.801 251.321 260.729 251.31 C 263.32 257.31 262.693 263.738 262.674 263.661 C 265.526 260.183 270.014 254.219 269.997 254.131 C 271.671 257.524 271.051 267.658 271.021 267.486 C 276.497 266.141 277.859 259.899 277.848 259.805 C 280.174 255.787 285.096 257.959 285.099 257.887 C 286.975 260.837 287.469 265.235 287.438 265.321 C 291.249 278.664 276.197 275.781 276.09 275.509 C 290.92 287.902 289.883 297.2 289.793 297.207 C 285.415 292.329 280.396 288.268 280.076 287.977 C 285.994 298.616 282.516 305.452 282.309 305.262 C 261.25 292.786 258.029 304.973 257.748 304.652 C 250.326 307.459 248.581 306.507 248.66 306.603 C 236.956 304.7 234.647 302.394 233.973 301.002 C 234.176 301.592 234.033 301.34 233.987 301.81 C 233.477 302.245 233.621 296.395 234.186 294.088 C 234.858 292.009 232.735 290.093 232.786 290.167 C 229.073 290.232 221.384 279.67 221.437 279.727 C 221.405 279.488 221.39 279.255 221.431 279.116 C 221.268 278.692 221.685 279.274 221.469 278.746"></path>
<path fill="#F2A548" stroke="#010101" stroke-width="2" d="M 246.375 255.172 C 246.366 255.116 246.43 255.299 246.631 255.132 C 246.641 255.191 246.362 255.097 246.375 255.172"></path>
<path fill="#72CCD3" stroke="#010101" stroke-width="2" d="M 250.819 270.118 C 250.866 270.335 248.969 271.591 244.178 272.192 C 244.176 272.203 244.156 272.191 244.115 272.057 C 243.634 268.727 245.31 267.164 245.811 266.657 C 247.928 267.711 249.902 269.242 250.943 269.765 C 250.93 269.747 250.837 270.255 250.819 270.118"></path>
<path fill="#8D2222" stroke="#010101" stroke-width="2" d="M 274.399 233.475 C 274.408 233.641 268.104 236.529 264.866 239.749 C 265.605 238.69 279.408 229.899 307.255 251.668 C 307.4 251.369 314.373 257.061 325.32 266.84 C 328.193 269.426 331.365 272.405 334.733 275.536 C 334.736 275.482 339.368 280.212 339.375 280.147 C 339.418 280.576 329.671 278.805 321.279 273.233 C 323.756 274.673 334.819 283.166 334.566 294.598 C 334.544 294.831 322.984 283.982 321.887 281.309 C 322.043 282.654 334.194 308.314 321.542 315.4 C 321.249 315.497 318.258 304.843 312.455 302.773 C 312.823 302.9 310.22 325.189 313.022 331.873 C 313.074 331.891 318.971 337.592 324.087 340.63 C 324.106 340.621 323.928 340.504 324.126 340.785 C 318.361 342.661 313.04 342.722 308.804 342.092 C 300.935 340.585 295.935 336.46 295.925 336.203 C 296.034 343.859 298.842 346.126 299.015 346.181 C 286.08 343.935 276.412 332.978 271.333 326.195 C 268.716 322.611 267.249 320.059 267.379 320.194 C 265.62 325.431 265.416 334.37 265.642 335.554 C 252.312 319.834 258.255 304.68 257.7 304.682 C 258.099 304.927 261.209 292.812 282.317 305.257 C 282.506 305.458 286.001 298.611 280.076 287.977 C 280.398 288.266 285.415 292.328 289.794 297.206 C 289.884 297.199 290.92 287.901 276.091 275.508 C 276.198 275.78 291.25 278.663 287.439 265.32 C 287.47 265.234 286.977 260.835 285.1 257.886 C 285.097 257.958 280.175 255.786 277.849 259.804 C 277.859 259.898 276.498 266.14 271.022 267.485 C 271.052 267.657 271.672 257.523 269.998 254.129 C 270.015 254.218 265.526 260.182 262.675 263.66 C 262.693 263.737 263.321 257.309 260.73 251.309 C 260.802 251.32 246.668 254.883 246.632 255.135 C 246.999 254.77 247.744 253.639 249.28 248.694 C 249.257 248.602 246.143 247.899 242.695 248.945 C 242.672 248.972 242.634 249.026 242.588 248.975 C 242.376 249.289 242.077 249.055 241.837 249.201 C 241.835 249.247 241.825 249.244 241.804 249.231 C 241.03 249.818 240.14 249.882 239.413 250.775 C 239.389 250.634 238.567 246.114 243.085 236.744 C 243.074 236.82 249.789 226.746 257.293 229.01 C 257.295 229.154 254.726 235.409 252.915 240.838 C 253.319 239.843 261.411 224.6 274.399 233.475"></path>
<path fill="#DA8327" stroke="#010101" stroke-width="2" d="M 257.162 391.848 C 257.118 391.559 261.426 392.992 261.684 392.839 C 270.778 385.948 276.822 351.794 279.023 348.028 C 274.116 343.599 270.816 327.511 271.353 326.207 C 276.381 332.962 286.093 343.934 299.01 346.173 C 298.84 346.121 296.039 343.858 295.916 336.193 C 295.978 336.487 300.855 340.525 308.855 342.125 C 307.744 343.513 301.647 352.749 301.261 352.488 C 284.917 376.161 297.822 375.762 291.375 384.293 C 286.551 392.38 280.113 398.591 278.699 399.796 C 268.645 405.648 258.606 401.579 258.422 401.273 C 255.056 400.284 256.269 394.784 256.904 392.693 C 257.133 392.213 257.157 391.765 257.162 391.848"></path>
<path fill="#F2A548" stroke="#010101" stroke-width="2" d="M 351.196 346.424 C 349.52 342.536 332.734 363.058 332.856 369.085 C 331.74 368.057 320.791 391.297 317.07 393.119 C 317.269 392.75 316.235 398.979 313.158 401.045 C 313.081 401.101 309.139 401.905 308.988 401.823 C 305.758 405.433 297.052 402.821 297.132 402.64 C 297.018 402.681 298.176 395.606 299.294 392.816 C 300.717 390.488 303.578 391.329 304.278 392.612 C 314.565 379.276 326.394 342.227 325.975 342.316 C 325.373 340.721 324.85 341.711 324.082 340.62 C 318.968 337.61 313.07 331.883 313.019 331.874 C 310.218 325.189 312.813 302.896 312.453 302.774 C 318.252 304.842 321.247 315.497 321.538 315.401 C 334.192 308.313 322.041 282.655 321.884 281.308 C 322.981 283.982 334.541 294.831 334.563 294.599 C 334.817 283.166 323.75 274.674 321.277 273.233 C 329.67 278.805 339.415 280.575 339.371 280.148 C 339.365 280.218 334.733 275.441 334.73 275.542 C 331.357 272.396 328.199 269.433 325.311 266.837 C 325.324 266.798 325.359 266.615 325.394 266.728 C 325.295 266.614 339.054 271.166 355.68 279.088 C 356.475 278.991 360.985 281.26 379.915 272.776 C 375.574 270.95 410.812 258.332 429.831 258.53 C 428.708 259.224 445.912 256.381 466.657 273.798 C 465.108 275.563 492.208 292.672 511.428 275.108 C 515.259 273.55 516.93 271.049 520.467 268.282 C 520.268 268.286 521.453 274.079 517.126 278.455 C 516.603 279.129 515.744 279.871 515.068 280.441 C 508.011 285.059 500.69 289.552 493.954 290.8 C 481.219 292.416 465.503 288.131 463.965 285.881 C 460.298 283.503 443.148 274.3 437.116 273.543 C 434.022 273.753 447.828 309.01 460.429 312.304 C 457.721 312.348 475.467 308.662 476.532 311.272 C 479.945 312.807 476.656 319.259 501.32 342.445 C 500.77 342.681 502.826 346.423 494.258 347.483 C 493.257 350.26 487.568 351.354 486.873 350.707 C 486.995 350.855 483.408 351.178 481.305 347.407 C 480.965 346.77 480.352 345.967 480.009 345.47 C 479.913 344.6 479.392 344.464 482.297 341.859 C 483.559 338.165 465.94 328.729 466.909 328.663 C 458.409 320.003 453.583 324.941 453.144 324.944 C 432.907 334.581 418.993 323.542 419.797 323.243 C 414.269 317.108 410.157 317.415 409.92 317.516 C 400.141 314.107 396.645 330.216 397.182 329.981 C 395.311 333.983 395.036 337.45 392.347 339.825 C 389.807 355.625 348.791 341.628 354.648 345.166 C 352.401 343.683 354.176 345.342 352.535 344.145 C 354.203 346.478 349.911 343.74 351.196 346.424"></path>
<path fill="#DA8327" stroke="#010101" stroke-width="2" d="M 444.215 345.631 C 444.112 345.79 457.707 351.189 468.151 361.899 C 467.583 361.686 471.364 372.816 470.81 375.432 C 470.548 375.21 467.467 376.491 460.403 370.196 C 461.108 370.342 458.932 366.756 454.287 362.509 C 453.948 362.339 436.673 350.099 426.133 347.909 C 414.013 344.63 393.892 341.821 392.951 339.828 C 394.198 337.449 395.795 333.985 397.114 329.979 C 396.751 330.216 400.05 314.104 409.933 317.507 C 410.057 317.454 414.421 317.037 419.687 323.292 C 420.067 323.269 414.998 331.016 424.084 335.727 C 431.866 339.941 441.363 344.382 444.222 345.726 C 444.191 345.71 444.291 345.736 444.215 345.631"></path>
<path fill="#8D2222" stroke="#010101" stroke-width="2" d="M 522.342 247.592 C 522.516 247.404 534.227 251.137 530.465 263.202 C 530.653 262.983 532.944 262.181 534.233 256.142 C 532.86 256.3 542.561 279.221 517.155 278.299 C 517.175 278.679 517.281 278.405 517.14 278.46 C 521.38 274.059 520.369 268.31 520.395 268.265 C 517.407 271.159 514.44 273.359 512.002 275.241 C 511.996 275.277 511.953 275.032 511.891 275.151 C 512.076 274.752 497.469 266.813 509.498 254.543 C 509.582 254.616 511.041 262.414 511.155 262.461 C 510.964 262.392 512.667 253.056 522.342 247.592"></path>
<path fill="#8D2222" stroke="#010101" d="M 221.386 278.982 C 221.393 278.87 221.508 279.01 221.539 278.904 C 221.739 279.157 221.749 278.627 222.165 279.136 C 225.289 281.441 232.748 281.092 232.783 281.261 C 228.942 285.369 225.451 284.167 225.697 284.831 C 225.283 283.694 222.137 280.738 221.386 278.982"></path>
<path fill="none" stroke="#010101" stroke-width="2" d="M 330.055 343.18 C 329.039 343.175 327.682 342.646 326.041 341.826 C 325.287 341.381 324.898 341.36 324.081 340.637 C 318.972 337.583 313.071 331.896 313.02 331.871 C 310.234 325.196 312.804 302.889 312.456 302.774 C 318.247 304.839 321.257 315.498 321.535 315.399 C 334.218 308.315 322.003 282.649 321.909 281.311 C 321.665 281.174 321.877 281.292 321.798 281.235 C 321.806 281.232 321.773 281.208 321.78 281.204"></path>
<path fill="none" stroke="#010101" stroke-width="2" d="M 489.217 342.677 C 489.991 343.306 486.882 348.49 494.04 347.352 C 503.114 346.606 500.614 342.587 501.324 342.452 C 476.648 319.254 479.933 312.808 476.529 311.272 C 475.463 308.663 457.719 312.348 460.426 312.304 C 447.824 309.01 434.019 273.752 437.113 273.542 C 443.145 274.299 460.294 283.502 463.961 285.881 C 465.5 288.13 481.215 292.415 493.95 290.799 C 500.686 289.551 508.007 285.057 515.065 280.44 C 515.74 279.869 516.599 279.127 517.123 278.454 C 521.449 274.077 520.266 268.284 520.463 268.28 C 516.932 271.047 515.256 273.548 511.424 275.106 C 492.205 292.671 465.105 275.562 466.654 273.797 C 445.909 256.379 428.704 259.223 429.828 258.528 C 410.804 258.329 375.58 270.95 379.91 272.774 C 360.984 281.259 356.471 278.989 355.677 279.087 C 339.05 271.164 325.292 266.612 325.391 266.727"></path>
<path fill="none" stroke="#010101" stroke-width="2" d="M 309.289 392.595 C 306.238 394.853 309.065 401.69 308.984 401.874 C 305.774 405.364 297.049 402.864 297.137 402.634 C 297.022 402.693 298.178 395.601 299.299 392.819 C 300.723 390.498 303.582 391.33 304.282 392.61 C 314.571 379.293 326.397 342.199 325.977 342.332 C 325.994 340.753 325.911 342.025 325.939 341.336"></path>
<path fill="none" stroke="#010101" stroke-width="2" d="M 308.953 401.888 C 309.199 401.816 313.052 401.153 313.167 401.039 C 316.229 398.988 317.271 392.748 317.074 393.119 C 320.795 391.295 331.741 368.057 332.862 369.087 C 332.721 363.051 349.549 342.546 351.182 346.419 C 350.413 343.904 353.235 346.161 353.25 344.378 C 360.692 336.765 349.921 323.28 351.678 323.902"></path>
<path fill="none" stroke="#010101" stroke-width="2" d="M 251.768 270.626 C 251.714 270.214 251.534 270.881 250.941 269.767 C 249.923 269.329 247.884 267.541 245.838 266.787 C 244.006 266.075 242.021 265.243 240.563 265.476"></path>
<path fill="none" stroke="#010101" stroke-width="2" d="M 241.692 272.358 C 242.471 271.782 243.405 272.205 244.183 272.231 C 248.946 271.506 250.877 270.398 250.811 270.104"></path>
<path fill="none" stroke="#010101" stroke-width="2" d="M 251.164 297.066 C 250.049 297.126 248.48 296.503 248.493 296.562 C 243.395 293.603 237.956 293.164 237.854 292.883"></path>
<path fill="none" stroke="#010101" stroke-width="2" d="M 469.577 369.393 C 464.917 372.163 460.602 364.296 460.886 364.644"></path>
<path fill="none" stroke="#010101" stroke-width="2" d="M 266.097 402.853 C 256.894 394.898 267.353 395.106 267.254 395.137"></path>
<g>
	<path fill="#FFFFFF" stroke="#010101" stroke-width="2" d="M 343.683 195.861 C 343.687 195.844 343.722 195.89 343.809 195.899 C 344.283 196.183 346.155 197.491 347.921 201.778 C 348.442 203.014 348.952 204.53 349.422 206.301 C 350.027 208.557 350.552 211.314 350.976 214.521 C 350.983 215.345 351.169 215.509 351.177 216.262 C 353.091 230.81 353.45 237.134 353.455 237.081 C 353.468 237.078 353.277 238.652 353.254 241.052 C 353.1 249.105 354.581 267.083 367.949 271.571 C 370.872 272.588 373.725 272.815 376.005 273.153 C 380.742 272.999 384.041 272.108 387.222 270.608 C 392.236 268.22 395.739 264.75 397.177 263.683 C 398.153 262.929 398.726 262.738 399.531 262.718 C 400.626 262.768 401.573 263.962 401.33 263.874 C 401.632 264.17 408.504 267.966 415.087 259.034 C 415.66 258.869 416.163 258.495 415.908 258.188"></path>
	<g id="XMLID_1_">
		<g>
			<path fill="#4C4B54" d="M 343.149 183.494 C 343.28 184.85 344.179 185.681 345.129 185.498 C 346.078 185.286 346.76 183.99 346.608 182.744 C 346.501 181.33 345.605 180.489 344.643 180.716 C 343.681 180.925 342.993 182.256 343.149 183.494 M 395.013 243.234 C 393.595 236.713 383.41 241.857 383.242 241.557 C 383.205 241.473 383.041 241.646 383.13 241.515 C 383.276 243.932 383.639 244.954 383.535 245.028 C 371.065 243.128 372.521 217.259 372.873 211.476 C 372.972 211.357 372.766 211.748 372.875 211.491 C 370.3 204.723 366.979 201 363.505 199.383 C 356.006 195.827 347.914 201.91 347.968 201.783 C 347.962 201.77 347.901 201.877 347.923 201.781 C 346.157 197.489 344.288 196.179 343.809 195.903 C 339.405 197.066 335.062 198.611 333.824 198.066 C 333.814 198.086 333.814 198.078 333.83 198.051 C 333.864 198.019 344.648 194 349.297 192.374 C 349.259 192.419 349.284 192.382 349.281 192.376 C 352.537 191.477 353.667 188.628 353.216 188.953 C 352.586 189.912 351.283 189.258 351.189 189.595 C 339.796 190.656 334.798 195.722 333.649 196.875 C 333.716 196.687 333.818 196.479 333.95 196.354 C 335.616 193.591 338.849 190.971 341.588 188.951 C 341.471 187.23 340.718 165.098 361.801 162.135 C 361.693 162.529 367.347 164.11 368.823 172.825 C 369.483 175.401 370.094 177.497 370.774 179.252 C 370.713 179.427 370.647 179.337 370.62 179.448 C 370.639 179.321 359.59 185.013 363.951 192.235 C 368.281 199.259 375.027 192.785 374.738 187.092 C 374.981 187.792 375.486 188.057 375.808 188.609 C 377.274 191.374 378.63 195.94 382.755 204.479 C 386.59 213.209 395.21 218.252 404.231 246.365 C 403.057 246.111 404.181 246.391 403.846 246.162 C 404.938 249.289 407.616 262.164 415.163 259.027 C 408.396 267.969 401.702 264.163 401.316 263.871 C 401.578 263.952 400.648 262.779 399.508 262.707 C 399.623 262.743 399.344 262.32 399.637 262.291 C 395.61 257.629 395.075 243.36 395.013 243.234 M 359.062 179.202 C 358.99 177.582 358.099 176.381 357.022 176.655 C 355.961 176.872 355.196 178.26 355.27 179.913 C 355.371 181.472 356.315 182.537 357.342 182.402 C 358.391 182.181 359.15 180.777 359.062 179.202"></path>
			<path fill="#FDB849" d="M 349.295 192.376 C 344.648 194.001 333.862 198.021 333.828 198.053 C 333.809 198.112 333.818 198.022 333.817 198.117 C 333.563 197.61 333.33 197.979 333.645 196.891 C 334.796 195.706 339.793 190.672 351.187 189.595 C 351.279 189.27 352.585 189.907 353.213 188.96 C 353.663 188.634 352.536 191.477 349.278 192.38 C 349.283 192.383 349.256 192.421 349.295 192.376"></path>
			<path fill="#FDB849" d="M 401.481 263.86 C 401.362 264.262 408.115 279.956 397.648 274.753 C 398.035 274.492 394.653 283.566 392.315 275.17 C 392.655 274.88 388.412 285.682 384.515 281.054 C 384.401 281.166 382.203 277.673 387.163 270.69 C 387.396 270.611 387.202 270.66 387.215 270.604 C 392.242 268.218 395.732 264.747 397.178 263.682 C 398.136 262.927 398.752 262.734 399.51 262.718 C 400.752 262.758 401.359 263.977 401.481 263.86"></path>
			<path fill="#FDB849" d="M 370.805 179.163 C 371.895 182.11 373.34 183.646 374.743 187.078 C 375.02 192.807 368.285 199.249 363.95 192.238 C 359.59 185.011 370.639 179.323 370.62 179.448 C 370.668 179.278 370.671 179.547 370.805 179.163"></path>
			<path fill="#FDB849" d="M 376.067 273.019 C 376.189 273.195 376.053 273.126 376.158 273.205 C 376.112 273.062 376.439 275.993 376.364 276.043 C 375.915 287.735 370.815 280.437 370.796 280.382 C 367.484 288.156 366.981 280.771 367.168 280.463 C 361.956 288.237 360.513 282.447 360.601 282.233 C 359.336 277.636 367.823 271.641 367.983 271.555 C 370.869 272.516 373.665 272.986 376.067 273.019"></path>
			<path fill="#FBF060" d="M 363.506 199.376 C 363.51 199.345 363.454 199.522 363.483 199.482 C 360.899 204.91 349.77 206.554 349.433 206.273 C 348.938 204.569 348.451 202.994 347.922 201.779 C 347.9 201.882 347.961 201.767 347.966 201.786 C 347.916 201.904 356 195.838 363.506 199.376"></path>
			<path fill="#9F5925" d="M 357.022 176.655 C 358.099 176.381 358.99 177.582 359.062 179.202 C 359.15 180.777 358.391 182.181 357.342 182.402 C 356.315 182.537 355.371 181.472 355.27 179.913 C 355.196 178.26 355.961 176.872 357.022 176.655 M 357.112 178.662 C 357.074 178.196 356.773 177.86 356.451 177.888 C 356.043 178.207 356.049 177.86 355.877 179.009 C 355.998 179.214 356.188 179.892 356.582 179.616 C 356.84 179.793 357.262 178.772 357.112 178.662"></path>
			<path fill="#9F5925" d="M 356.452 177.888 C 356.774 177.859 357.074 178.197 357.112 178.662 C 357.262 178.772 356.84 179.793 356.583 179.615 C 356.19 179.892 355.999 179.214 355.878 179.009 C 356.051 177.86 356.045 178.206 356.452 177.888"></path>
			<path fill="#4C4B54" d="M 351.097 216.276 C 351.112 216.083 351.262 216.012 351.174 216.274 C 353.096 230.794 353.446 237.146 353.456 237.079 C 353.458 237.096 353.297 238.624 353.24 241.073 C 353.276 241.011 353.1 241.124 353.17 241.03 C 350.169 245.839 350.362 247.479 350.268 247.741 C 344.955 236.208 350.955 216.602 351.097 216.276"></path>
			<path fill="#9F5925" d="M 344.645 180.714 C 345.606 180.492 346.501 181.33 346.608 182.745 C 346.762 183.983 346.078 185.283 345.13 185.499 C 344.178 185.679 343.282 184.852 343.15 183.493 C 342.992 182.262 343.682 180.918 344.645 180.714 M 344.795 182.285 C 344.764 181.786 344.426 181.696 344.218 181.571 C 344.01 181.416 343.799 181.891 343.811 182.537 C 343.874 182.911 344.221 182.952 344.377 183.284 C 344.754 182.759 344.853 182.721 344.795 182.285"></path>
			<path fill="#9F5925" d="M 344.218 181.571 C 344.427 181.696 344.765 181.786 344.796 182.285 C 344.854 182.722 344.754 182.759 344.378 183.284 C 344.222 182.952 343.874 182.911 343.812 182.537 C 343.802 181.89 344.011 181.416 344.218 181.571"></path>
		</g>
		<g>
			<path fill="none" stroke="#010101" stroke-width="2" d="M 341.598 189.085 C 341.59 189.081 341.605 189.049 341.577 188.961 C 341.504 187.151 340.664 165.242 361.837 162.035"></path>
			<path fill="none" stroke="#000000" stroke-width="0.5" stroke-linecap="round" stroke-linejoin="round" d="M 349.417 206.281 C 349.426 206.262 349.414 206.298 349.437 206.26 C 349.765 206.571 360.903 204.896 363.482 199.484"></path>
			<path fill="none" stroke="#010101" stroke-width="2" d="M 361.704 162.416 C 361.831 162.128 367.26 164.356 368.836 172.782 C 369.471 175.431 370.082 177.529 370.787 179.208 C 371.932 182.013 373.299 183.737 374.76 187.04 C 374.946 187.864 375.5 188.025 375.805 188.609 C 377.272 191.385 378.629 195.93 382.755 204.478 C 386.584 213.214 395.216 218.251 404.225 246.367 C 403.024 246.28 404.314 246.622 403.753 246.748"></path>
			<path fill="none" stroke="#010101" stroke-width="2" d="M 346.055 185.922 C 345.946 186.321 344.042 187.015 341.578 189.017 C 338.861 190.874 335.608 193.659 333.95 196.338 C 333.8 196.6 333.744 196.484 333.628 197.021 C 333.361 197.766 333.543 197.768 333.825 198.06 C 335.055 198.636 339.414 197.022 343.803 195.931 C 346.615 195.264 349.436 194.681 351.272 195.367"></path>
			<path fill="none" stroke="#010101" stroke-width="2" d="M 401.491 263.855 C 401.349 264.27 408.123 279.951 397.647 274.754 C 398.037 274.491 394.652 283.567 392.315 275.17 C 392.655 274.88 388.412 285.682 384.515 281.054 C 384.4 281.166 382.204 277.673 387.162 270.69"></path>
			<path fill="none" stroke="#010101" stroke-width="2" d="M 368.003 271.538 C 367.793 271.674 359.353 277.621 360.597 282.239 C 360.516 282.446 361.954 288.242 367.166 280.465 C 366.979 280.773 367.483 288.157 370.795 280.384 C 370.813 280.44 375.914 287.735 376.361 276.048 C 376.426 276.008 376.121 273.053 376.154 273.21"></path>
			<path fill="none" stroke="#010101" stroke-width="2" d="M 403.768 245.996 C 403.771 245.971 403.823 246.245 403.834 246.166 C 404.98 249.29 407.546 262.168 415.208 259.029 C 414.605 259.091 416.271 259.058 415.711 259.045"></path>
			<path fill="none" stroke="#010101" stroke-width="2" d="M 373.037 210.287 C 372.932 210.52 373.135 210.335 372.872 211.475 C 372.518 217.261 371.061 243.129 383.536 245.028 C 383.581 244.981 383.388 243.881 383.046 241.554 C 382.677 239.732 382.597 236.722 382.282 232.752 C 382.327 232.598 388.214 225.305 387.569 220.786"></path>
			<path fill="none" stroke="#010101" stroke-width="2" d="M 351.097 216.277 C 350.955 216.601 344.954 236.209 350.267 247.74 C 350.357 247.483 350.176 245.829 353.161 241.039"></path>
			<path fill="none" stroke="#010101" stroke-width="2" d="M 355.27 179.913 C 355.371 181.472 356.315 182.537 357.342 182.402 C 358.391 182.181 359.15 180.777 359.062 179.202 C 358.99 177.582 358.099 176.381 357.022 176.655 C 355.961 176.872 355.196 178.26 355.27 179.913"></path>
			<path fill="none" stroke="#010101" stroke-width="2" d="M 343.149 183.494 C 343.28 184.85 344.179 185.681 345.129 185.498 C 346.078 185.286 346.76 183.99 346.608 182.744 C 346.501 181.33 345.605 180.489 344.643 180.716 C 343.681 180.925 342.993 182.256 343.149 183.494"></path>
			<path fill="none" stroke="#010101" d="M 349.295 192.376 C 344.648 194.001 333.862 198.021 333.828 198.053"></path>
			<path fill="none" stroke="#010101" d="M 347.967 201.783 C 347.913 201.911 356.005 195.827 363.504 199.383 C 366.979 201.001 370.3 204.724 372.875 211.491"></path>
			<path fill="none" stroke="#010101" d="M 383.242 241.557 C 383.408 241.857 393.595 236.713 395.011 243.234 C 395.076 243.36 395.605 257.629 399.637 262.293"></path>
			<path fill="none" stroke="#010101" d="M 370.617 179.454 C 370.641 179.317 359.588 185.017 363.95 192.236 C 368.279 199.261 375.029 192.786 374.736 187.093 C 374.852 186.702 374.715 186.964 374.763 186.735"></path>
			<path fill="none" stroke="#010101" d="M 333.34 197.454 C 333.385 197.158 333.378 197.652 333.647 196.883 C 334.796 195.716 339.794 190.663 351.188 189.596 C 351.282 189.261 352.584 189.914 353.214 188.955 C 353.664 188.631 352.537 191.478 349.278 192.378 C 349.15 192.44 349.041 192.417 348.902 192.531"></path>
		</g>
	</g>
</g>
</svg>
