<!--?xml version="1.0" encoding="utf-8"?-->
<!-- Generator: Adobe Illustrator 15.0.2, SVG Export Plug-In . SVG Version: 6.00 Build 0)  -->

<svg version="1.1" id="Layer_1" xmlns="http://www.w3.org/2000/svg" xmlns:xlink="http://www.w3.org/1999/xlink" x="0px" y="0px" width="600px" height="500px" viewBox="0 0 600 500" enable-background="new 0 0 600 500" xml:space="preserve">
<path d="M 136.66 377.048 C 111.846 399.795 90.2165 414.407 71.2425 424.328 C 52.3304 434.597 35.4189 440.476 20.4117 442.831 C 5.42732 445.601 -8.03924 444.933 -19.7634 440.985 C -31.5023 437.491 -42.0621 431.016 -51.0065 421.752 C -57.7031 415.244 -62.3997 408.463 -65.1907 401.458 C -68.0546 394.862 -69.6668 388.341 -70.1056 381.962 C -70.616 375.965 -70.2348 370.22 -69.0433 364.78 C -67.9204 359.704 -66.6707 355.191 -65.3838 351.26 C -64.7787 349.447 -64.219 348.45 -63.7284 348.261 C -63.3018 348.429 -63.4393 349.464 -64.1255 351.418 C -69.0691 364.436 -70.0684 376.252 -67.3464 386.363 C -64.697 396.887 -59.2702 406.305 -51.1152 414.493 C -40.7627 425.441 -29.1698 432.757 -17.1093 436.176 C -5.05631 440.069 8.31599 440.475 22.6718 437.323 C 37.0486 434.594 52.9318 428.416 70.3183 418.172 C 87.7595 408.282 107.794 394.519 130.88 373.756 C 124.754 370.178 118.858 366.271 113.494 361.908 C 108.215 357.954 103.398 353.693 99.1001 349.245 C 92.4622 354.847 87.268 358.854 83.518 361.576 C 79.8446 364.667 77.0239 366.874 75.0595 368.265 C 73.1672 370.023 71.9011 371.213 71.2704 371.841 C 70.7096 372.85 70.2271 373.656 69.8118 374.281 C 68.6217 377.087 69.839 380.665 73.8898 384.779 C 73.9346 384.977 72.6074 386.018 72.5687 385.815 C 69.1555 382.91 66.4429 379.714 64.4063 376.354 C 62.4242 373.367 62.0202 370.737 62.9953 368.542 C 63.4228 367.943 64.0038 367.135 64.7322 366.121 C 65.5255 365.476 66.9563 364.347 69.018 362.722 C 71.14 361.461 74.2342 359.466 78.28 356.638 C 82.4015 354.164 88.0908 350.548 95.3329 345.341 C 93.4188 343.076 90.6847 339.706 87.6852 335.189 C 84.7775 331.019 82.0722 326.251 79.8588 320.913 C 77.7233 315.903 76.1551 310.606 75.1529 305.074 C 74.2278 299.848 73.9564 295.026 73.8974 290.708 C 73.8688 287.267 74.0161 283.394 74.3573 279.124 C 74.7718 275.139 75.2452 270.956 75.6744 266.608 C 76.1842 262.529 76.6245 258.338 76.8845 254.08 C 77.2251 250.076 77.203 246.147 76.718 242.335 C 74.0933 239.842 71.5751 236.842 69.2048 233.421 C 66.8972 230.246 64.7955 226.515 62.8983 222.324 C 61.5133 219.375 61.7398 217.308 63.7232 216.138 C 64.7032 215.745 65.8059 215.81 66.9989 216.332 C 68.2477 217.074 69.4805 218.101 70.6428 219.407 C 71.8735 220.937 72.9935 222.648 73.9736 224.524 C 75.0227 226.632 75.8839 228.708 76.5587 230.739 C 78.0461 235.228 78.6708 238.978 78.673 241.962 C 80.5368 244.264 83.0644 246.976 86.0023 249.85 C 89.0285 252.961 92.0251 255.808 95.0179 258.017 C 98.1122 260.484 101.039 262.15 103.965 262.803 C 106.982 263.735 109.711 263.511 112.052 262.638 C 109.698 260.484 108.606 257.441 107.675 254.741 C 106.892 252.276 106.24 249.78 105.572 247.636 C 105.015 245.74 104.389 243.921 103.689 242.313 C 103.094 240.952 102.322 239.355 101.342 237.536 C 101.402 237.655 104.134 235.121 104.068 235.006 C 104.681 236.358 105.149 237.458 105.492 238.305 C 105.943 239.393 106.32 240.467 106.621 241.488 C 107.031 242.759 107.375 244.039 107.653 245.289 C 108.045 246.786 108.394 248.461 108.74 250.169 C 109.202 252.125 109.667 254.226 110.327 256.168 C 111.115 258.363 112.128 260.513 114.01 262.019 C 115.334 261.622 116.886 260.841 118.719 259.506 C 120.669 258.434 122.797 256.853 125.127 254.655 C 127.583 252.72 130.185 250.217 132.953 247.118 C 135.855 244.273 138.765 240.959 141.627 237.289 C 146.375 231.731 150.894 225.803 154.855 220.113 C 158.998 214.614 161.599 210.574 162.356 208.493 C 162.648 208.125 162.575 207.965 162.166 207.97 C 161.916 208.198 161.212 208.544 160.081 209.015 C 157.893 210.368 155.167 212.065 152.225 213.917 C 149.444 215.981 146.682 218.121 144.08 220.143 C 141.619 222.386 139.414 224.476 137.414 226.27 C 135.554 228.299 133.998 230.034 132.507 231.547 C 131.729 232.642 131.014 233.547 130.3 234.354 C 129.721 235.397 128.973 236.689 128.02 238.248 C 127.5 239.482 126.929 240.868 126.393 242.38 C 126.458 242.506 126.022 242.999 125.958 242.871 C 126.507 241.356 126.961 240.046 127.263 238.975 C 127.693 238.148 128.331 236.851 129.125 235.059 C 130.433 232.758 131.31 230.971 131.823 229.761 C 132.47 228.785 133.119 227.667 133.801 226.324 C 134.621 225.214 135.424 223.989 136.297 222.557 C 137.314 221.355 138.448 219.995 140.053 218.221 C 141.406 217.119 143.007 215.622 145.028 213.663 C 147.193 211.93 149.661 209.843 152.464 207.467 C 155.42 205.302 158.667 202.879 162.144 200.304 C 165.786 197.93 169.464 195.488 172.942 193.106 C 173.038 193.199 172.59 197.208 172.499 197.107 C 171.821 198.858 170.102 201.607 167.458 205.197 C 164.989 208.993 162.145 212.976 159.024 216.992 C 156.068 221.233 152.988 225.28 149.86 229.02 C 146.882 232.994 144.285 236.134 142.031 238.52 C 138.902 242.38 135.842 245.743 132.897 248.53 C 130.081 251.583 127.52 253.969 125.169 255.787 C 122.94 257.871 120.963 259.326 119.2 260.284 C 117.563 261.511 116.257 262.22 115.275 262.604 C 118.665 264.606 123.445 264.557 128.559 263.757 C 133.789 263.211 139.441 261.907 144.377 260.577 C 149.484 259.5 153.979 258.33 157.166 257.35 C 160.537 256.625 162.898 256.012 163.99 255.597 C 164.087 257.253 165.257 258.392 167.63 259.007 C 168.623 258.283 169.291 257.569 169.64 256.871 C 170.15 256.447 170.821 255.73 171.657 254.717 C 173.468 252.983 174.867 251.725 175.82 251 C 176.949 250.536 178.49 249.984 180.474 249.344 C 179.429 250.565 177.606 252.486 175.051 255.017 C 172.672 257.802 169.949 260.779 166.894 263.877 C 164.016 267.243 160.931 270.611 157.681 273.924 C 154.583 277.512 151.64 280.687 148.86 283.453 C 146.232 286.509 143.964 288.98 142.076 290.902 C 140.326 293.131 139.245 294.573 138.831 295.294 C 138.313 296.939 138.973 297.68 140.913 297.485 C 143.612 297.567 148.302 295.504 155.193 290.694 C 159.052 288.415 162.847 285.726 166.511 282.658 C 170.334 279.89 173.985 276.733 177.387 273.246 C 179.348 271.554 182.227 268.698 186.065 264.561 C 190.076 260.718 194.268 256.307 198.574 251.389 C 203.076 246.738 207.43 241.839 211.546 236.807 C 215.88 232.008 219.16 227.864 221.306 224.498 C 221.67 224.249 221.896 224.161 221.989 224.22 C 222.303 224.516 222.431 225.58 222.323 227.44 C 221.51 231.393 217.546 236.731 210.732 243.123 C 207.186 246.726 204.118 249.856 201.522 252.512 C 199.131 255.426 197.019 257.933 195.216 260.002 C 197.731 258.657 200.519 256.974 203.551 254.959 C 206.787 253.214 209.854 251.443 212.715 249.663 C 215.79 248.151 218.421 246.707 220.54 245.372 C 222.887 244.295 224.29 243.629 224.695 243.402 C 225.522 243.386 225.746 243.8 225.36 244.655 C 222.612 248.554 218.843 252.932 214.158 257.635 C 209.69 262.611 205.195 267.449 200.716 272.079 C 196.445 276.99 192.502 281.49 188.907 285.561 C 185.498 289.932 183.303 293.41 182.302 296.078 C 181.723 298.309 182.579 299.237 184.917 298.857 C 186.471 298.87 188.93 297.957 192.359 296.026 C 195.967 294.409 200.392 291.683 205.642 287.764 C 211.086 284.157 217.183 279.347 223.912 273.314 C 230.856 267.574 238.232 260.461 245.895 252.089 C 244.16 252.663 242.284 253.096 240.334 253.335 C 238.618 253.849 236.703 254.202 234.605 254.404 C 230.771 255.195 227.31 256.267 224.279 257.56 C 224.389 257.693 223.747 256.415 223.637 256.285 C 227.518 254.367 230.758 253.023 233.29 252.278 C 236.056 251.796 238.853 251.237 241.636 250.633 C 243.585 250.44 245.914 249.862 248.714 248.741 C 248.762 249.02 281.564 213.085 281.372 213.001 C 290.968 202.719 301.015 192.077 311.153 181.445 C 321.61 170.99 331.825 160.908 341.424 151.372 C 351.376 141.984 360.57 133.347 368.894 125.421 C 377.6 117.622 385.244 110.882 392.046 105.11 C 399.242 99.4468 405.484 94.9254 411.002 91.5371 C 416.933 88.2391 422.051 86.4772 426.465 86.3092 C 429.355 86.2768 432.809 87.5479 436.579 90.0926 C 436.88 90.1277 438.889 104.931 438.551 104.856 C 438.816 104.919 437.361 105.697 437.143 105.642 C 437.388 105.702 435.828 99.6718 435.586 99.6234 C 434.018 98.773 431.877 97.7808 429.189 96.662 C 426.934 95.6414 424.396 95.1219 421.588 95.1161 C 418.604 95.2145 415.474 95.6166 412.26 96.3175 C 409.45 97.1198 406.418 98.623 403.137 100.826 C 397.359 105.382 390.661 111.245 382.677 118.484 C 375.076 125.847 366.428 134.251 356.564 143.852 C 347.071 153.597 336.537 164.315 325.219 175.952 C 314.234 187.766 303.005 200.053 291.981 212.428 C 292.207 212.474 262.505 246.327 262.391 246.148 C 262.507 246.278 273.65 244.647 273.504 244.552 C 274.938 244.486 276.633 244.185 278.584 243.604 C 280.82 243.282 283.067 242.772 285.325 242.088 C 287.861 241.655 290.217 241.105 292.366 240.449 C 294.813 240.036 296.854 239.502 298.473 238.833 C 299.408 238.703 299.739 238.817 299.404 239.226 C 290.586 247.394 282.879 254.678 276.423 260.866 C 270.229 267.343 265.138 272.768 261.139 277.111 C 257.405 281.747 254.488 285.456 252.39 288.225 C 250.547 291.301 249.346 293.435 248.786 294.645 C 248.045 297.506 248.853 298.747 251.217 298.356 C 252.404 298.405 255.944 296.633 261.855 292.957 C 268.005 289.615 275.975 283.273 285.749 273.979 C 289.394 270.88 293.294 266.941 297.465 262.2 C 301.929 257.737 305.698 253.563 308.719 249.734 C 312.952 245.05 315.865 241.792 317.407 239.99 C 319.281 238.428 321.041 237.491 322.667 237.191 C 324.609 237.133 325.196 237.919 324.41 239.534 C 324.08 241.051 323.103 242.583 321.497 244.12 C 320.217 245.898 318.167 248.049 315.375 250.553 C 313.736 252.39 311.546 254.736 308.82 257.575 C 306.408 260.679 303.917 263.415 301.398 265.719 C 306.516 261.788 311.39 257.999 315.917 254.436 C 320.757 251.138 325.104 248.116 328.892 245.421 C 333.017 242.973 336.353 240.974 338.864 239.431 C 341.723 238.136 343.581 237.385 344.421 237.176 C 344.938 237.266 345.35 237.481 345.65 237.821 C 346.297 238.405 346.577 238.965 346.466 239.517 C 341.024 245.832 335.883 251.562 331.152 256.531 C 326.728 261.799 323.433 265.596 321.26 267.88 C 316.448 274.15 312.633 279.197 309.837 282.922 C 307.347 286.948 305.709 289.884 304.903 291.706 C 303.691 295.975 304.909 297.909 308.477 297.46 C 310.834 297.441 313.803 296.15 317.366 293.579 C 321.235 291.326 326.807 287.508 333.938 282.171 C 337.152 278.008 340.844 273.417 344.96 268.471 C 349.43 263.799 353.845 259.293 358.131 254.996 C 362.775 250.964 367.036 247.474 370.828 244.545 C 374.992 241.864 378.104 240.365 380.117 240.025 C 380.607 240.118 381.126 240.151 381.673 240.117 C 382.601 240.326 383.223 240.603 383.546 240.924 C 384.236 240.16 384.785 239.07 385.191 237.65 C 385.992 236.47 386.619 235.049 387.06 233.397 C 387.267 233.516 392.543 229.79 392.332 229.679 C 394.296 231.707 396.377 232.935 398.572 233.313 C 401.152 233.944 404.996 233.846 409.903 232.912 C 414.304 232.361 417.906 231.665 420.754 230.863 C 424.026 230.305 427.016 229.553 429.721 228.629 C 432.861 227.942 435.972 227.098 439.089 226.113 C 442.653 225.351 446.703 224.288 451.41 222.933 C 456.584 221.805 462.706 220.344 470.25 218.698 C 478.219 217.296 488.312 215.62 500.977 214.195 C 502.821 214.117 503.408 214.604 502.667 215.612 C 502.537 216.892 501.144 217.508 499.062 217.689 C 498.888 217.622 477.035 220.777 477.156 220.795 C 476.014 233.133 473.387 247.398 468.663 262.718 C 464.469 278.318 458.148 294.094 449.52 309.252 C 441.375 324.756 430.789 339.258 417.885 352.409 C 405.419 365.92 390.534 377.388 373.544 386.719 C 356.941 396.447 338.055 403.539 317.279 408.039 C 296.847 412.959 274.318 414.531 250.37 412.866 C 231.67 411.926 211.966 408.32 192.076 402.162 C 172.425 396.439 153.429 387.881 136.66 377.048 M 76.9718 239.524 C 77.0916 239.108 76.9962 238.17 76.6754 236.706 C 76.4287 235.491 76.0938 234.209 75.6641 232.889 C 75.7102 233.008 74.8933 230.556 74.8478 230.439 C 74.5936 229.7 74.1031 228.475 73.3586 226.785 C 72.6832 225.325 71.8238 223.776 70.78 222.162 C 69.8117 220.77 68.7677 219.522 67.6951 218.427 C 66.6906 217.554 65.7312 217.285 64.8575 217.62 C 63.7246 218.344 63.736 219.838 64.7834 222.107 C 66.1165 225.114 68.0288 228.172 70.3759 231.24 C 72.7898 234.543 74.9737 237.325 76.9718 239.524 M 163.376 287.06 C 155.34 292.85 148.678 296.848 143.262 299.505 C 137.982 302.451 134.391 303.622 132.304 303.392 C 129.759 303.435 129.096 302.027 130.144 299.268 C 130.87 297.873 131.973 296.216 133.457 294.256 C 135.066 292.603 137.763 289.791 141.56 285.598 C 140.06 286.832 138.134 288.236 135.835 289.71 C 133.667 291.486 131.332 293.082 128.859 294.457 C 126.518 296.129 124.151 297.48 121.8 298.494 C 119.562 299.815 117.538 300.57 115.741 300.803 C 114.094 301.473 112.808 301.591 111.861 301.225 C 109.61 300.804 109.262 299.22 110.573 296.639 C 111.772 294.749 113.409 292.933 115.492 291.068 C 117.69 289.498 120.074 287.809 122.691 285.923 C 125.432 284.336 128.283 282.558 131.282 280.58 C 134.416 278.887 137.377 277 140.098 275.004 C 143.431 272.888 147.013 270.452 150.887 267.698 C 154.907 265.225 159.023 262.443 163.16 259.439 C 162.367 259.637 161.544 259.735 160.708 259.705 C 160.036 259.947 159.14 260.118 158.056 260.212 C 158.121 260.35 154.392 261.186 154.359 261.039 C 154.362 261.195 148.931 262.384 148.895 262.226 C 136.586 265.14 128.667 266.392 123.274 266.27 C 117.992 266.457 114.95 265.277 112.811 263.444 C 110.375 264.615 107.59 265.147 104.568 264.564 C 101.64 264.265 98.7241 262.979 95.6955 260.829 C 92.7619 258.948 89.8262 256.341 86.8124 253.341 C 83.8946 250.587 81.1866 247.782 78.8471 245.229 C 79.2527 252.498 78.6368 259.725 77.6324 266.869 C 76.7205 274.294 75.7837 282.307 75.9082 290.716 C 76.0471 294.828 76.3672 299.483 77.3534 304.606 C 78.4145 310.039 80.0688 315.205 82.3105 320.055 C 84.6308 325.232 87.422 329.871 90.3948 333.95 C 93.4829 338.361 96.2505 341.546 98.2145 343.467 C 108.426 336.65 117.825 329.349 126.224 322.024 C 134.753 315.028 143.242 307.308 151.642 298.971 C 151.679 299.28 163.429 287.361 163.376 287.06 M 163.108 262.539 C 160.292 263.191 152.682 268.655 141.772 276.397 C 133.412 282.612 127.969 286.386 124.669 288.944 C 121.518 291.789 119.446 293.979 118.41 295.789 C 117.823 297.238 117.862 297.952 118.566 297.913 C 119.386 298.168 121.381 297.384 124.627 295.301 C 127.997 293.514 131.715 291.054 135.772 287.825 C 139.96 284.896 144.09 281.576 148.082 277.956 C 152.233 274.618 155.293 271.873 157.144 270.004 C 158.627 268.881 159.975 267.443 161.152 265.716 C 162.501 264.254 163.206 263.229 163.252 262.686 C 163.33 262.832 163.213 262.631 163.108 262.539 M 220.918 278.987 C 216.604 282.662 211.982 286.103 207.179 289.167 C 202.575 292.546 197.849 295.519 193.033 298.061 C 183.441 303.474 177.434 305.918 174.676 305.953 C 170.366 306.399 168.899 304.588 170.102 300.576 C 170.81 298.866 172.336 296.405 174.69 293.125 C 177.219 290.146 180.077 286.763 183.252 282.974 C 186.615 279.474 190.025 275.779 193.442 271.94 C 197.056 268.379 200.19 265.132 202.774 262.298 C 204.032 261.185 204.838 260.179 205.191 259.291 C 205.751 258.672 206.042 258.056 206.07 257.457 C 206.353 256.963 206.101 256.711 205.323 256.711 C 204.59 257.004 203.159 257.699 201.064 258.758 C 199.176 260.076 196.891 261.618 194.258 263.329 C 191.82 265.31 189.114 267.355 186.185 269.416 C 183.448 271.751 180.784 274.03 178.214 276.227 C 175.09 279.648 171.135 283.619 166.454 287.928 C 161.943 292.53 157.529 296.852 153.205 300.876 C 145.528 308.535 137.226 316.638 128.379 324.71 C 119.674 333.117 110.829 340.676 101.959 347.444 C 105.942 351.417 110.649 355.449 116.103 359.508 C 121.682 363.915 127.661 367.894 133.895 371.308 C 148.047 358.772 162.254 344.753 176.29 329.565 C 190.475 314.757 205.449 297.697 220.918 278.987 M 473.93 221.328 C 465.38 223.364 456.714 225.524 448.225 227.523 C 440.154 229.766 432.682 231.757 425.283 233.349 C 418.334 235.188 411.668 236.51 405.086 237.405 C 398.912 238.549 393.369 239.234 388.611 239.63 C 377.275 258.525 366.815 274.428 356.263 285.672 C 346.083 297.324 336.909 303.335 328.718 303.709 C 325.599 304.1 324.473 302.454 325.401 298.825 C 325.855 298.053 326.393 296.728 327.031 294.816 C 327.995 293.214 329.316 290.741 330.989 287.437 C 329.381 288.617 327.232 290.03 324.55 291.672 C 322.196 293.616 319.552 295.381 316.641 296.947 C 314.051 298.815 311.216 300.357 308.149 301.575 C 305.4 303.098 302.568 303.887 299.689 303.936 C 293.523 304.569 291.065 302.394 292.491 297.439 C 293.853 293.853 295.801 290.135 298.316 286.293 C 301.128 282.754 305.267 277.609 310.736 270.926 C 314.371 267.305 317.948 263.349 321.419 259.118 C 325.216 255.155 328.827 251.221 332.177 247.388 C 330.807 247.654 328.335 248.907 324.805 251.139 C 320.897 254.199 317.295 256.819 314.07 258.941 C 311.149 261.341 308.25 263.556 305.405 265.559 C 302.864 267.844 300.22 270.205 297.499 272.619 C 295.083 275.316 292.125 278.482 288.699 282.066 C 288.805 282.238 270.765 302.86 270.71 302.614 C 270.345 303.184 269.745 302.861 268.786 301.774 C 268.138 300.969 267.863 300.268 268.115 299.536 C 268.158 299.787 286.238 277.644 286.133 277.479 C 281.843 280.624 277.786 283.668 273.981 286.584 C 270.457 289.799 266.893 292.675 263.326 295.198 C 260.017 298.022 256.6 300.219 253.088 301.785 C 249.839 303.655 246.187 304.677 242.188 304.862 C 240.192 305.207 238.381 304.548 236.764 302.912 C 235.388 301.573 234.981 299.762 235.552 297.444 C 236.666 294.443 243.759 286.067 257.101 271.816 C 261.909 267.105 265.645 263.161 268.296 260.036 C 271.217 257.174 273.408 254.82 274.861 252.997 C 276.592 251.434 277.643 250.222 277.995 249.366 C 278.622 248.771 278.925 248.243 278.892 247.762 C 279.413 246.695 278.214 246.252 275.292 246.519 C 275.442 246.607 259.878 248.829 259.772 248.736 C 258.414 250.857 257.053 252.495 255.673 253.594 C 254.557 254.961 253.294 256.549 251.866 258.394 C 241.959 269.805 231.723 281.331 221.406 292.502 C 211.299 303.981 201.353 314.793 191.672 324.693 C 182.178 334.928 172.999 344.198 164.201 352.444 C 155.567 361.064 147.453 368.389 139.926 374.582 C 153.114 381.4 167.753 386.876 183.034 390.857 C 198.504 395.243 216.274 397.99 235.841 398.796 C 250.207 399.741 265.987 399.159 282.879 396.928 C 300.054 395.091 317.322 391.331 334.362 385.55 C 351.742 380.159 368.538 372.745 384.526 363.202 C 400.912 354.038 415.541 342.455 428.133 328.437 C 441.165 314.79 451.609 298.43 459.325 279.918 C 467.604 261.824 471.927 241.307 473.93 221.328 M 329.667 195.915 C 333.043 195.709 334.085 197.689 332.675 201.811 C 332.35 203.611 331.13 205.254 329.037 206.733 C 327.275 208.426 324.998 209.356 322.213 209.515 C 317.687 210.111 315.741 208.926 316.405 205.917 C 317.136 203.989 318.583 201.886 320.764 199.642 C 323.251 197.609 326.237 196.353 329.663 195.915 C 329.838 196.014 329.83 196.014 329.667 195.915 M 381.112 244.917 C 382.137 242.946 381.981 241.964 380.611 241.959 C 379.333 242.23 376.481 244.095 372.033 247.578 C 367.977 251.313 363.391 255.67 358.39 260.631 C 353.758 265.857 349.306 271.069 345.157 276.188 C 341.345 281.599 338.817 285.904 337.584 289.046 C 336.391 293.404 337.041 295.442 339.446 295.096 C 341.543 295.109 344.562 293.068 348.457 289.003 C 352.71 285.236 356.923 280.615 361.088 275.216 C 365.63 270.096 369.683 264.606 373.265 258.84 C 377.223 253.349 379.858 248.701 381.112 244.917"></path>
</svg>
