<svg version="1.1" id="Layer_1" xmlns="http://www.w3.org/2000/svg" xmlns:xlink="http://www.w3.org/1999/xlink" x="0px" y="0px" width="600px" height="500px" viewBox="0 0 600 500" enable-background="new 0 0 600 500" xml:space="preserve"><defs><rect width="10" height="10" class="svg---mgr"></rect></defs><path d="M282.9259948730469 287.97900390625 C 271.3500061035156 308.43499755859375 260.2279968261719 325.802001953125 249.57200622558594 340.0830078125 C 238.91200256347656 354.3659973144531 228.4720001220703 365.97198486328125 218.2469940185547 374.9020080566406 C 208.01600646972656 383.82501220703125 197.843994140625 390.28900146484375 187.7270050048828 394.2950134277344 C 177.60800170898438 398.2969970703125 167.30099487304688 400.29998779296875 156.8090057373047 400.29998779296875 C 149.01699829101562 400.29998779296875 142.55099487304688 399.3290100097656 137.41299438476562 397.3789978027344 C 132.27099609375 395.4330139160156 128.07899475097656 393.04901123046875 124.83200073242188 390.2380065917969 C 121.58499908447266 387.4230041503906 119.1259994506836 384.41900634765625 117.447998046875 381.2300109863281 C 115.76899719238281 378.0360107421875 114.44499969482422 375.197998046875 113.46900177001953 372.7090148925781 C 112.93000030517578 371.4100036621094 112.84700012207031 370.62298583984375 113.22599792480469 370.3550109863281 C 113.60199737548828 370.0840148925781 114.06099700927734 370.65301513671875 114.60700225830078 372.05999755859375 C 117.41799926757812 380.9330139160156 122.26100158691406 387.20599365234375 129.13299560546875 390.8890075683594 C 136.0030059814453 394.56500244140625 144.31100463867188 396.4049987792969 154.0500030517578 396.4049987792969 C 166.4929962158203 396.4049987792969 177.9080047607422 394.2690124511719 188.29600524902344 389.9939880371094 C 198.68600463867188 385.72198486328125 208.718994140625 379.1180114746094 218.40899658203125 370.19500732421875 C 228.08999633789062 361.2690124511719 237.7449951171875 349.8800048828125 247.3769989013672 336.02801513671875 C 257.0090026855469 322.1759948730469 267.28900146484375 305.6189880371094 278.2149963378906 286.3609924316406 C 273.0249938964844 284.5159912109375 267.8550109863281 282.5480041503906 262.7149963378906 280.4339904785156 C 257.572998046875 278.3280029296875 252.51600646972656 276.18701171875 247.53900146484375 274.02301025390625 C 244.1820068359375 280.40899658203125 241.58700561523438 285.44000244140625 239.7469940185547 289.1189880371094 C 237.90699768066406 292.7980041503906 236.52999877929688 295.63800048828125 235.61199951171875 297.64300537109375 C 234.69000244140625 299.6419982910156 234.1479949951172 301.07598876953125 233.98599243164062 301.9429931640625 C 233.822998046875 302.8080139160156 233.7449951171875 303.6199951171875 233.7449951171875 304.3800048828125 C 233.7449951171875 306.864990234375 235.95899963378906 308.8680114746094 240.3990020751953 310.3819885253906 C 240.3990020751953 310.3819885253906 239.7469940185547 311.6830139160156 239.7469940185547 311.6830139160156 C 236.177001953125 310.81298828125 233.03799438476562 309.7070007324219 230.3350067138672 308.35101318359375 C 227.6269989013672 306.9989929199219 226.2760009765625 305.3479919433594 226.2760009765625 303.4020080566406 C 226.2760009765625 302.6449890136719 226.41200256347656 301.7770080566406 226.6820068359375 300.8070068359375 C 226.9510040283203 299.8320007324219 227.6269989013672 298.3179931640625 228.71299743652344 296.2619934082031 C 229.79100036621094 294.20599365234375 231.4459991455078 291.2850036621094 233.66000366210938 287.4989929199219 C 235.88099670410156 283.7080078125 238.9929962158203 278.5690002441406 242.99600219726562 272.0780029296875 C 240.3990020751953 270.7770080566406 236.74400329589844 269.0169982910156 232.0399932861328 266.8009948730469 C 227.33200073242188 264.5849914550781 222.2740020751953 262.17999267578125 216.86199951171875 259.5820007324219 C 211.4510040283203 256.98199462890625 205.98599243164062 254.38699340820312 200.47000122070312 251.7899932861328 C 194.9510040283203 249.19000244140625 190.08200073242188 246.91900634765625 185.86099243164062 244.97500610351562 C 182.18299865722656 243.3489990234375 178.25900268554688 241.61599731445312 174.09500122070312 239.7779998779297 C 169.92799377441406 237.93800354003906 165.656005859375 236.2050018310547 161.2729949951172 234.5850067138672 C 156.88999938964844 232.96099853515625 152.47799682617188 231.5019989013672 148.0449981689453 230.2030029296875 C 143.60499572753906 228.90199279785156 139.22000122070312 227.98399353027344 134.89300537109375 227.44500732421875 C 130.35400390625 229.28500366210938 125.6709976196289 230.718994140625 120.8550033569336 231.74200439453125 C 116.04100036621094 232.77200317382812 111.03700256347656 233.28599548339844 105.84400177001953 233.28599548339844 C 101.947998046875 233.28599548339844 99.99700164794922 232.25599670410156 99.99700164794922 230.20199584960938 C 99.99700164794922 229.2270050048828 100.64600372314453 228.36199951171875 101.9469985961914 227.60000610351562 C 103.24400329589844 226.84800720214844 104.947998046875 226.2239990234375 107.05899810791016 225.73500061035156 C 109.16999816894531 225.24899291992188 111.5469970703125 224.89999389648438 114.19999694824219 224.6790008544922 C 116.85199737548828 224.46600341796875 119.52799987792969 224.35800170898438 122.23600006103516 224.35800170898438 C 127.75199890136719 224.35800170898438 132.24000549316406 224.73699951171875 135.70700073242188 225.49400329589844 C 139.27699279785156 224.30099487304688 143.92799377441406 222.49099731445312 149.6649932861328 220.05599975585938 C 155.4010009765625 217.6219940185547 161.3780059814453 214.94400024414062 167.60299682617188 212.0229949951172 C 173.81900024414062 209.10000610351562 179.85800170898438 206.1280059814453 185.6999969482422 203.09500122070312 C 191.53900146484375 200.0659942626953 196.41099548339844 197.30799865722656 200.3070068359375 194.8159942626953 C 191.32400512695312 195.2519989013672 183.9929962158203 195.656005859375 178.31399536132812 196.02999877929688 C 172.63299560546875 196.41299438476562 167.927001953125 196.82200622558594 164.19400024414062 197.25100708007812 C 160.46099853515625 197.68499755859375 157.26699829101562 198.17300415039062 154.61599731445312 198.71299743652344 C 151.96400451660156 199.2550048828125 149.17799377441406 199.9029998779297 146.2570037841797 200.66099548339844 C 146.2570037841797 200.66099548339844 145.28199768066406 196.92799377441406 145.28199768066406 196.92799377441406 C 147.33799743652344 196.49600219726562 149.2030029296875 196.11599731445312 150.88299560546875 195.79200744628906 C 152.55799865722656 195.46600341796875 154.4010009765625 195.1699981689453 156.4010009765625 194.8990020751953 C 158.4040069580078 194.6300048828125 160.64599609375 194.38499450683594 163.13499450683594 194.16900634765625 C 165.625 193.9510040283203 168.68299865722656 193.76100158691406 172.3090057373047 193.59800720214844 C 175.9320068359375 193.43499755859375 180.28900146484375 193.302001953125 185.37399291992188 193.19200134277344 C 190.46099853515625 193.08700561523438 196.51600646972656 192.9770050048828 203.55299377441406 192.86900329589844 C 205.50100708007812 191.57000732421875 207.8280029296875 189.97500610351562 210.5330047607422 188.08200073242188 C 213.23599243164062 186.18899536132812 216.1320037841797 184.10299682617188 219.21600341796875 181.83200073242188 C 222.29800415039062 179.56100463867188 225.46400451660156 177.18099975585938 228.71299743652344 174.6909942626953 C 231.95700073242188 172.2010040283203 235.04100036621094 169.71400451660156 237.96400451660156 167.2220001220703 C 242.61700439453125 163.22300720214844 246.64700317382812 159.51499938964844 250.0540008544922 156.10499572753906 C 253.46600341796875 152.69700622558594 255.3820037841797 150.29100036621094 255.82000732421875 148.8820037841797 C 255.9250030517578 148.55599975585938 255.7899932861328 148.3699951171875 255.41099548339844 148.31300354003906 C 255.0279998779297 148.25999450683594 254.2480010986328 148.22999572753906 253.0570068359375 148.22999572753906 C 250.4600067138672 148.22999572753906 247.24099731445312 148.3699951171875 243.39700317382812 148.63900756835938 C 239.55799865722656 148.91000366210938 235.4720001220703 149.3679962158203 231.14700317382812 150.02000427246094 C 226.81500244140625 150.66700744628906 222.48699951171875 151.53500366210938 218.16200256347656 152.61500549316406 C 213.83200073242188 153.6959991455078 209.93600463867188 155.0500030517578 206.4739990234375 156.6739959716797 C 204.42100524902344 157.64500427246094 202.87399291992188 158.6750030517578 201.8489990234375 159.75599670410156 C 200.8209991455078 160.83700561523438 200.3070068359375 162.35299682617188 200.3070068359375 164.3040008544922 C 200.3070068359375 165.60000610351562 201.1739959716797 167.11700439453125 202.90499877929688 168.8470001220703 C 202.90499877929688 168.8470001220703 202.25599670410156 169.49400329589844 202.25599670410156 169.49400329589844 C 200.5260009765625 167.76600646972656 199.30499267578125 166.38800048828125 198.60299682617188 165.35499572753906 C 197.9010009765625 164.32899475097656 197.5469970703125 162.83999633789062 197.5469970703125 160.89500427246094 C 197.5469970703125 158.0800018310547 197.7899932861328 156.0540008544922 198.2760009765625 154.80499267578125 C 198.76499938964844 153.56100463867188 199.76300048828125 152.2899932861328 201.2790069580078 150.99200439453125 C 202.79400634765625 149.6959991455078 204.7969970703125 148.5050048828125 207.28599548339844 147.4219970703125 C 209.7729949951172 146.343994140625 213.18099975585938 145.4739990234375 217.50999450683594 144.8249969482422 C 220.86500549316406 144.39300537109375 224.5449981689453 143.9600067138672 228.5489959716797 143.5260009765625 C 232.55099487304688 143.09500122070312 236.61000061035156 142.6909942626953 240.7209930419922 142.31199645996094 C 244.83099365234375 141.93099975585938 248.88900756835938 141.5780029296875 252.89300537109375 141.25399780273438 C 256.89898681640625 140.92799377441406 260.5780029296875 140.6020050048828 263.9320068359375 140.281005859375 C 263.9320068359375 140.281005859375 264.4159851074219 143.5260009765625 264.4159851074219 143.5260009765625 C 263.98699951171875 144.60899353027344 262.8190002441406 146.20799255371094 260.9280090332031 148.31500244140625 C 259.0350036621094 150.42599487304688 256.8710021972656 152.6999969482422 254.4340057373047 155.1320037841797 C 251.99899291992188 157.56900024414062 249.42999267578125 160.0030059814453 246.72500610351562 162.43800354003906 C 244.01699829101562 164.8699951171875 241.5850067138672 166.95799255371094 239.4239959716797 168.68600463867188 C 236.2830047607422 171.2830047607422 233.09100341796875 173.8000030517578 229.8470001220703 176.23199462890625 C 226.60000610351562 178.67100524902344 223.53900146484375 180.94000244140625 220.67599487304688 183.0489959716797 C 217.80799865722656 185.16200256347656 215.18299865722656 187.0279998779297 212.80299377441406 188.64999389648438 C 210.4219970703125 190.27499389648438 208.58399963378906 191.5709991455078 207.28500366210938 192.54400634765625 C 217.6719970703125 192.22000122070312 226.68099975585938 191.94900512695312 234.30999755859375 191.73399353027344 C 241.93899536132812 191.52099609375 248.35000610351562 191.35800170898438 253.54200744628906 191.2449951171875 C 258.73699951171875 191.13999938964844 262.7690124511719 191.06100463867188 265.6340026855469 191.00399780273438 C 268.5 190.94900512695312 270.42498779296875 190.92100524902344 271.39599609375 190.92100524902344 C 271.8269958496094 192.22000122070312 273.1830139160156 193.41299438476562 275.4549865722656 194.49400329589844 C 275.9949951171875 193.95199584960938 276.37298583984375 193.49400329589844 276.5929870605469 193.11000061035156 C 276.8059997558594 192.73399353027344 277.18499755859375 192.27499389648438 277.7309875488281 191.73399353027344 C 278.6990051269531 190.54600524902344 279.53900146484375 189.81399536132812 280.2439880371094 189.5399932861328 C 280.947998046875 189.27099609375 282.0559997558594 189.13900756835938 283.572998046875 189.13900756835938 C 282.9219970703125 189.78599548339844 281.9209899902344 190.9499969482422 280.57000732421875 192.62899780273438 C 279.2139892578125 194.30599975585938 277.73199462890625 196.2220001220703 276.1050109863281 198.38800048828125 C 274.4830017089844 200.55599975585938 272.8030090332031 202.87600708007812 271.07598876953125 205.3699951171875 C 269.34100341796875 207.85899353027344 267.7460021972656 210.23899841308594 266.2850036621094 212.51100158691406 C 264.82598876953125 214.78199768066406 263.63299560546875 216.78799438476562 262.7149963378906 218.51600646972656 C 261.7950134277344 220.25 261.33599853515625 221.49400329589844 261.33599853515625 222.24899291992188 C 261.33599853515625 223.5500030517578 262.1990051269531 224.19700622558594 263.9330139160156 224.19700622558594 C 266.2070007324219 224.19700622558594 269.5039978027344 222.52000427246094 273.83599853515625 219.1649932861328 C 276.21099853515625 217.43499755859375 278.48699951171875 215.59500122070312 280.65301513671875 213.6439971923828 C 282.81500244140625 211.697998046875 284.81500244140625 209.6439971923828 286.6549987792969 207.47799682617188 C 287.6300048828125 206.2899932861328 289.11700439453125 204.45199584960938 291.1199951171875 201.95700073242188 C 293.1189880371094 199.47500610351562 295.2040100097656 196.79200744628906 297.3680114746094 193.9239959716797 C 299.52899169921875 191.06100463867188 301.614990234375 188.19000244140625 303.6180114746094 185.32400512695312 C 305.6189880371094 182.4530029296875 307.1059875488281 180.0469970703125 308.08099365234375 178.09800720214844 C 308.1860046386719 177.88499450683594 308.3240051269531 177.85699462890625 308.4849853515625 178.01800537109375 C 308.64801025390625 178.18099975585938 308.89300537109375 178.96499633789062 309.218994140625 180.3719940185547 C 309.218994140625 182.9669952392578 307.5350036621094 186.10800170898438 304.18499755859375 189.78399658203125 C 302.3450012207031 191.73199462890625 300.83099365234375 193.5449981689453 299.6400146484375 195.2220001220703 C 298.4490051269531 196.8990020751953 297.4739990234375 198.44400024414062 296.718994140625 199.8459930419922 C 298.12298583984375 199.09100341796875 299.72198486328125 198.25599670410156 301.50799560546875 197.33099365234375 C 303.2929992675781 196.41299438476562 305.02301025390625 195.5780029296875 306.70001220703125 194.8159942626953 C 308.37701416015625 194.06399536132812 309.84100341796875 193.41200256347656 311.0849914550781 192.8679962158203 C 312.3290100097656 192.33099365234375 313.1159973144531 192.05799865722656 313.43499755859375 192.05799865722656 C 313.8710021972656 192.05799865722656 314.0840148925781 192.3820037841797 314.0840148925781 193.031005859375 C 312.89599609375 195.30299377441406 311.24798583984375 197.875 309.1369934082031 200.73899841308594 C 307.0260009765625 203.61000061035156 304.9700012207031 206.531005859375 302.9670104980469 209.5070037841797 C 300.9670104980469 212.48500061035156 299.2090148925781 215.37899780273438 297.69500732421875 218.18899536132812 C 296.17999267578125 221.00399780273438 295.42401123046875 223.4409942626953 295.42401123046875 225.4949951171875 C 295.42401123046875 227.00999450683594 296.23199462890625 227.76499938964844 297.8580017089844 227.76499938964844 C 298.8340148925781 227.76499938964844 300.3160095214844 227.25799560546875 302.3210144042969 226.22500610351562 C 304.32000732421875 225.19700622558594 306.70098876953125 223.5749969482422 309.4639892578125 221.35299682617188 C 312.22198486328125 219.13900756835938 315.2229919433594 216.32400512695312 318.4700012207031 212.91600036621094 C 321.7170104980469 209.50599670410156 325.0159912109375 205.4219970703125 328.3710021972656 200.66099548339844 C 327.2879943847656 200.7689971923828 326.2049865722656 200.8509979248047 325.1239929199219 200.90199279785156 C 324.0429992675781 200.95899963378906 322.9049987792969 200.98500061035156 321.7170104980469 200.98500061035156 C 319.3349914550781 200.98500061035156 317.3320007324219 201.31100463867188 315.7120056152344 201.95799255371094 C 315.7120056152344 201.95799255371094 315.06298828125 200.98500061035156 315.06298828125 200.98500061035156 C 317.1189880371094 200.00999450683594 318.9289855957031 199.47500610351562 320.4989929199219 199.36300659179688 C 322.0660095214844 199.2550048828125 323.7179870605469 199.1999969482422 325.45098876953125 199.1999969482422 C 326.5320129394531 199.1999969482422 327.88299560546875 199.03700256347656 329.510009765625 198.71400451660156 C 329.510009765625 198.71400451660156 343.3039855957031 178.26300048828125 343.3039855957031 178.26300048828125 C 347.3059997558594 172.31300354003906 351.63800048828125 166.24899291992188 356.2860107421875 160.08299255371094 C 360.9389953613281 153.91600036621094 365.7300109863281 147.91099548339844 370.65399169921875 142.0659942626953 C 375.57598876953125 136.2239990234375 380.5249938964844 130.7310028076172 385.5050048828125 125.59100341796875 C 390.48199462890625 120.4540023803711 395.32501220703125 115.95899963378906 400.03399658203125 112.11799621582031 C 404.7380065917969 108.27899932861328 409.1759948730469 105.24800109863281 413.3420104980469 103.03199768066406 C 417.5069885253906 100.81600189208984 421.26800537109375 99.7030029296875 424.6239929199219 99.7030029296875 C 426.57000732421875 99.7030029296875 428.9519958496094 100.62300109863281 431.76800537109375 102.46099853515625 C 431.76800537109375 102.46099853515625 432.2510070800781 112.36199951171875 432.2510070800781 112.36199951171875 C 432.2510070800781 112.36199951171875 431.1180114746094 112.8479995727539 431.1180114746094 112.8479995727539 C 431.1180114746094 112.8479995727539 430.3039855957031 108.78900146484375 430.3039855957031 108.78900146484375 C 429.0069885253906 108.14399719238281 427.489013671875 107.44000244140625 425.75799560546875 106.68299865722656 C 424.0260009765625 105.9260025024414 422.2449951171875 105.54499816894531 420.40399169921875 105.54499816894531 C 418.1310119628906 105.54499816894531 415.93701171875 105.79000091552734 413.83099365234375 106.2770004272461 C 411.71600341796875 106.76599884033203 409.5790100097656 107.76599884033203 407.4179992675781 109.27799987792969 C 403.197998046875 112.30899810791016 398.65301513671875 116.25800323486328 393.7860107421875 121.12899780273438 C 388.9119873046875 126.0009994506836 383.9330139160156 131.51699829101562 378.85101318359375 137.6820068359375 C 373.7619934082031 143.8520050048828 368.7090148925781 150.45599365234375 363.67498779296875 157.48599243164062 C 358.64300537109375 164.52099609375 353.90899658203125 171.66400146484375 349.47198486328125 178.91000366210938 C 349.47198486328125 178.91000366210938 337.4620056152344 198.38800048828125 337.4620056152344 198.38800048828125 C 337.4620056152344 198.38800048828125 343.95599365234375 198.38800048828125 343.95599365234375 198.38800048828125 C 344.71099853515625 198.38800048828125 345.6839904785156 198.33799743652344 346.8739929199219 198.2270050048828 C 348.0669860839844 198.11900329589844 349.3340148925781 197.98199462890625 350.6919860839844 197.81900024414062 C 352.0429992675781 197.6580047607422 353.36700439453125 197.4949951171875 354.6659851074219 197.33299255371094 C 355.9639892578125 197.1699981689453 357.1000061035156 196.98399353027344 358.07598876953125 196.76600646972656 C 358.5050048828125 196.66099548339844 358.7250061035156 196.76600646972656 358.7250061035156 197.08999633789062 C 354.8290100097656 201.63699340820312 351.55499267578125 205.7220001220703 348.9020080566406 209.3470001220703 C 346.25 212.9739990234375 344.1709899902344 216.11099243164062 342.65399169921875 218.75900268554688 C 341.1400146484375 221.41099548339844 340.0589904785156 223.6300048828125 339.4070129394531 225.41299438476562 C 338.75799560546875 227.2010040283203 338.4320068359375 228.5240020751953 338.4320068359375 229.39199829101562 C 338.4320068359375 231.1219940185547 339.18701171875 231.98699951171875 340.7080078125 231.98699951171875 C 341.3550109863281 231.98699951171875 343.2229919433594 231.04200744628906 346.3070068359375 229.14700317382812 C 349.3900146484375 227.25799560546875 353.093994140625 223.71099853515625 357.42401123046875 218.51699829101562 C 358.9429931640625 216.68099975585938 360.56298828125 214.43299865722656 362.2950134277344 211.77999877929688 C 364.0249938964844 209.1300048828125 365.4840087890625 206.72300720214844 366.6780090332031 204.5590057373047 C 368.1919860839844 201.74600219726562 369.3009948730469 199.8489990234375 370.00299072265625 198.87600708007812 C 370.7080078125 197.90499877929688 371.6000061035156 197.41700744628906 372.68499755859375 197.41700744628906 C 373.760986328125 197.41700744628906 374.30499267578125 197.95899963378906 374.30499267578125 199.03900146484375 C 374.30499267578125 199.906005859375 374.03399658203125 200.82699584960938 373.4949951171875 201.802001953125 C 372.95098876953125 202.7729949951172 372.1390075683594 204.01600646972656 371.0580139160156 205.531005859375 C 370.2980041503906 206.50900268554688 369.43499755859375 207.86199951171875 368.4630126953125 209.58999633789062 C 367.4880065917969 211.32200622558594 366.5150146484375 212.89199829101562 365.5419921875 214.29600524902344 C 367.8110046386719 212.02699279785156 370.0580139160156 209.9429931640625 372.27899169921875 208.04800415039062 C 374.4930114746094 206.16000366210938 376.57598876953125 204.50599670410156 378.5249938964844 203.0989990234375 C 380.4729919433594 201.69200134277344 382.1499938964844 200.60899353027344 383.5570068359375 199.85000610351562 C 384.9639892578125 199.09500122070312 385.9939880371094 198.7169952392578 386.64300537109375 198.7169952392578 C 386.8590087890625 198.7169952392578 387.18499755859375 198.8780059814453 387.6159973144531 199.2030029296875 C 388.0469970703125 199.5260009765625 388.3710021972656 199.90699768066406 388.59100341796875 200.33900451660156 C 386.4230041503906 204.01699829101562 384.4490051269531 207.3459930419922 382.6669921875 210.3179931640625 C 380.8789978027344 213.30099487304688 379.6059875488281 215.49200439453125 378.85101318359375 216.89599609375 C 377.010986328125 220.46600341796875 375.65899658203125 223.38699340820312 374.7919921875 225.65899658203125 C 373.92498779296875 227.93099975585938 373.4960021972656 229.6649932861328 373.4960021972656 230.85400390625 C 373.4960021972656 233.34100341796875 374.6839904785156 234.58900451660156 377.0660095214844 234.58900451660156 C 378.4729919433594 234.58900451660156 380.1499938964844 233.94000244140625 382.0979919433594 232.63900756835938 C 384.0459899902344 231.34300231933594 386.9119873046875 229.28900146484375 390.70001220703125 226.4739990234375 C 391.781005859375 223.98399353027344 393.2170104980469 221.35699462890625 395 218.5989990234375 C 396.7869873046875 215.84100341796875 398.70599365234375 213.2729949951172 400.7640075683594 210.88999938964844 C 402.8179931640625 208.51100158691406 404.9010009765625 206.53500366210938 407.0140075683594 204.96499633789062 C 409.1199951171875 203.39599609375 410.9909973144531 202.61300659179688 412.6130065917969 202.61300659179688 C 412.8269958496094 202.61300659179688 413.2349853515625 202.66799926757812 413.8320007324219 202.7740020751953 C 414.42401123046875 202.87899780273438 414.989990234375 203.10000610351562 415.53399658203125 203.4250030517578 C 415.6390075683594 202.87899780273438 415.72198486328125 202.20700073242188 415.7749938964844 201.39500427246094 C 415.8299865722656 200.5800018310547 415.8580017089844 199.69000244140625 415.8580017089844 198.7169952392578 C 415.8580017089844 198.7169952392578 418.77899169921875 196.6060028076172 418.77899169921875 196.6060028076172 C 420.8349914550781 198.01499938964844 422.9429931640625 198.99000549316406 425.11199951171875 199.52699279785156 C 427.27301025390625 200.0709991455078 430.46600341796875 200.33900451660156 434.6889953613281 200.33900451660156 C 438.14898681640625 200.33900451660156 441.1520080566406 200.31399536132812 443.69500732421875 200.25599670410156 C 446.23699951171875 200.2030029296875 448.6990051269531 200.12100219726562 451.08099365234375 200.01300048828125 C 453.46099853515625 199.90699768066406 455.97601318359375 199.8249969482422 458.62799072265625 199.7740020751953 C 461.2749938964844 199.71600341796875 464.4169921875 199.66200256347656 468.0419921875 199.61099243164062 C 471.6650085449219 199.5540008544922 475.9679870605469 199.5260009765625 480.9490051269531 199.5260009765625 C 485.91900634765625 199.5260009765625 491.9280090332031 199.58399963378906 498.96600341796875 199.68899536132812 C 499.82598876953125 199.68899536132812 500.1520080566406 199.98699951171875 499.9339904785156 200.57899475097656 C 499.72100830078125 201.17999267578125 499.0719909667969 201.4759979248047 497.9909973144531 201.4759979248047 C 497.9909973144531 201.4759979248047 485.4909973144531 201.4759979248047 485.4909973144531 201.4759979248047 C 485.4909973144531 208.4010009765625 484.4079895019531 215.75900268554688 482.2439880371094 223.552001953125 C 480.0780029296875 231.3419952392578 476.7829895019531 239.05099487304688 472.3429870605469 246.67599487304688 C 467.9079895019531 254.3070068359375 462.281005859375 261.58099365234375 455.4649963378906 268.510009765625 C 448.64801025390625 275.4320068359375 440.6109924316406 281.57501220703125 431.3609924316406 286.9330139160156 C 422.1099853515625 292.2879943847656 411.5849914550781 296.5329895019531 399.7909851074219 299.6719970703125 C 387.9949951171875 302.8110046386719 374.8500061035156 304.3819885253906 360.3489990234375 304.3819885253906 C 348.8789978027344 304.3819885253906 336.5459899902344 303.0509948730469 323.3450012207031 300.4049987792969 C 310.1409912109375 297.7489929199219 296.6659851074219 293.60699462890625 282.9259948730469 287.97900390625" style="opacity: 0;"></path><rect x="88" y="189" width="10" height="10" rx="2" ry="2" class="handle-original" fill="#da55da" stroke="#000000" style="stroke-width: 2px; opacity: 0.5;"></rect><rect x="408" y="122" width="10" height="10" rx="2" ry="2" class="handle-original" fill="#da55da" stroke="#000000" style="stroke-width: 2px; opacity: 0.5;"></rect><rect x="524" y="216" width="10" height="10" rx="2" ry="2" class="handle-original" fill="#da55da" stroke="#000000" style="stroke-width: 2px; opacity: 0.5;"></rect><rect x="88" y="189" width="10" height="10" rx="2" ry="2" class="handle" fill="#da55da" stroke="#000000" transform="matrix(0.43,0.7757,-0.7757,0.43,203.5013,38.4396)" style="stroke-width: 2px;"></rect><rect x="408" y="122" width="10" height="10" rx="2" ry="2" class="handle" fill="#da55da" stroke="#000000" transform="matrix(1.477,0,0,1.477,-196.9919,-60.5762)" style="stroke-width: 2px;"></rect><rect x="524" y="216" width="10" height="10" rx="2" ry="2" class="handle" fill="#da55da" stroke="#000000" transform="matrix(2.034,0,0,2.034,-515.9814,-196.5121)" style="stroke-width: 2px;"></rect></svg>