<svg version="1.1" id="Layer_1" xmlns="http://www.w3.org/2000/svg" xmlns:xlink="http://www.w3.org/1999/xlink" x="0px" y="0px" width="100px" height="30px" viewBox="0 0 100 30" enable-background="new 0 0 100 30" xml:space="preserve"><defs></defs><path d="M10,20L10.318300885672242,19.698923098602574L10.666727872857402,19.401459685180605L11.044658365899002,19.107115654125234L11.451469769140585,18.815320050366637L11.886539486925692,18.525418951470748L12.34924492359785,18.236669203303244L12.8389634835006,17.94823229806601L13.355072570977478,17.65916878387613L13.896949590372019,17.368433717864864L14.463971946027758,17.074873820288815L15.055517042288237,16.777227152999185L15.670962283496989,16.474126325319062L16.30968507399755,16.164106411473615L16.971062818133454,15.845618925676698L17.654472920248235,15.517053313161895L18.35929278468544,15.176767435707099L19.084899815788603,14.823128405020759L19.83067141790125,14.454564784821994L20.595984995366926,14.069630579543244L21.380217952529165,13.667080503185893L22.1827476937315,13.245954755910255L23.002951623317475,12.805669963530898L23.840207145630618,12.346111171114357L24.693891665014466,11.867718038364146L25.56338258581257,11.371556969522654L26.44805731236845,10.859370197424276L27.34729324902564,10.333593201281605L28.260467800127692,9.797333540600242L29.186958370018125,9.2543072913423L30.126142363040493,8.70873353569851L31.077397183538306,8.165192227200297L32.040100235855135,7.628455430501932L33.01362892433448,7.103305548944207L33.99736065331992,6.594355978473388L34.99067282715496,6.1058892858462475L35.992942850183134,5.641725579698645L37.00354812674799,5.20512973328822L38.02186606119307,4.798761319442098L39.0472740578619,4.424666392224456L40.07914952109802,4.084306318768622L41.11686985524496,3.778616176055282L42.15981246464625,3.5080839131992985L43.20735475364544,3.2728414026336825L44.25887412658608,3.0727593537123337L45.31374798781168,2.9075394654958L46.3713537416658,2.776798801402645L47.431068792491935,2.680142904577597L48.492270544633676,2.6172254652399545L49.554336402434494,2.5877933197141605L50.616643770238,2.5917162005889267L51.6785700523877,2.6290010170335645L52.739492653227096,2.699790605504619L53.79878897709974,2.8043469537517787L54.855836428349214,2.9430189724826157L55.910012411319016,3.1161950759732395L56.96069433035269,3.324241233133648L58.007259589793755,3.5674258417161546L59.04908559398576,3.8458338019767577L60.08554974727225,4.159273506802679L61.116029453996745,4.50718202873168L62.1399021185028,4.888535380155201L63.15654514513395,5.301772063800753L64.16533593823371,5.74473885698791L65.16565190214563,6.21466751409336L66.15687044121324,6.708189537331526L67.1383689597801,7.221393256551967L68.10952486218972,7.749923356302268L69.06971555278565,8.289118190875824L70.01831843591138,8.834175493232333L70.95471091591054,9.380333277546821L71.87827039712658,9.923050618410475L72.78837428390307,10.458173008608377L73.68439998058355,10.98206915332346L74.56572489151156,11.491729906157747L75.43172642103065,11.9848248268889L76.28178197348431,12.459716667580627L77.11526895321609,12.915438203581235L77.93156476456954,13.351638711289812L78.73004681188822,13.768508867919484L79.51009249951562,14.166693009792379L80.27107923179531,14.547196829522882L81.0123844130708,14.91129709702937L81.7333854476856,15.260458221445925L82.43345973998333,15.596258724623072L83.1119846943075,15.92032916776115L83.76833771500159,16.234301861176085L84.40189620640919,16.53977181749918L85.01203757287378,16.838267853949848L85.59813921873896,17.13123245534046L86.15957854834828,17.420008912506695L86.69573296604521,17.705834289916126L87.20597987617334,17.989836899464414L87.68969668307614,18.273037124670044L88.1462607910972,18.55635062174814L88.57504960458007,18.84059310231623L88.97544052786823,19.126486065421492L89.34681096530522,19.414662988486334L89.68853832123466,19.705675605807933L90,20" class="target-curve-polyline" stroke="#ff0000" style="stroke-width: 3px; fill-opacity: 0; stroke-dasharray: 20px, 10px, 5px, 5px, 5px, 10px;"></path><line x1="49.554336402434515" x2="49.554336402434494" y1="5.706121578667082" y2="2.5877933197141605" class="distance-line" stroke="#0000ff" style="stroke-width: 2px; fill-opacity: 0;"></line></svg>