<svg version="1.1" id="Layer_1" xmlns="http://www.w3.org/2000/svg" xmlns:xlink="http://www.w3.org/1999/xlink" x="0px" y="0px" width="792px" height="466.42px" viewBox="0 0 792 466.42" enable-background="new 0 0 792 466.42" xml:space="preserve"><defs></defs><path d="M0 0 C 0 0 791.5 0 791.5 0 C 791.5 0 791.5 466.4200134277344 791.5 466.4200134277344 C 791.5 466.4200134277344 0 466.4200134277344 0 466.4200134277344 C 0 466.4200134277344 0 0 0 0" style="opacity: 0;"></path><rect x="360" y="371" width="10" height="10" rx="2" ry="2" class="handle-original" fill="#da55da" stroke="#000000" style="stroke-width: 2px; opacity: 0.5;"></rect><rect x="668" y="137" width="10" height="10" rx="2" ry="2" class="handle-original" fill="#da55da" stroke="#000000" style="stroke-width: 2px; opacity: 0.5;"></rect><rect x="49" y="159" width="10" height="10" rx="2" ry="2" class="handle-original" fill="#da55da" stroke="#000000" style="stroke-width: 2px; opacity: 0.5;"></rect><rect x="360" y="371" width="10" height="10" rx="2" ry="2" class="handle" fill="#da55da" stroke="#000000" transform="matrix(0.7849,0.2857,-0.2857,0.7849,185.9355,-23.3983)" style="stroke-width: 2px;"></rect><rect x="668" y="137" width="10" height="10" rx="2" ry="2" class="handle" fill="#da55da" stroke="#000000" transform="matrix(1.916,0.2693,-0.2693,1.916,-578.1972,-311.285)" style="stroke-width: 2px;"></rect><rect x="49" y="159" width="10" height="10" rx="2" ry="2" class="handle" fill="#da55da" stroke="#000000" transform="matrix(1.4436,-0.6128,0.6128,1.4436,-124.4531,-39.6666)" style="stroke-width: 2px;"></rect></svg>