<?xml version="1.0" encoding="utf-8"?>
<!-- Generator: Adobe Illustrator 15.0.2, SVG Export Plug-In . SVG Version: 6.00 Build 0)  -->
<!DOCTYPE svg PUBLIC "-//W3C//DTD SVG 1.1//EN" "http://www.w3.org/Graphics/SVG/1.1/DTD/svg11.dtd">
<svg version="1.1" id="Layer_1" xmlns="http://www.w3.org/2000/svg" xmlns:xlink="http://www.w3.org/1999/xlink" x="0px" y="0px"
	 width="792px" height="612px" viewBox="0 0 792 612" enable-background="new 0 0 792 612" xml:space="preserve">
<path  fill-rule="evenodd" clip-rule="evenodd" fill="#E7979D"  d="M0,0h280v165h-280v-165"/>
<path  fill-rule="evenodd" clip-rule="evenodd" fill="#FFFFFF"  d="M10.285,0h10.285v165h-10.285v-165"/>
<path  fill-rule="evenodd" clip-rule="evenodd" fill="#FFFFFF"  d="M30.857,0h10.286v165h-10.286v-165"/>
<path  fill-rule="evenodd" clip-rule="evenodd" fill="#FFFFFF"  d="M51.428,0h10.286v165h-10.286v-165"/>
<path  fill-rule="evenodd" clip-rule="evenodd" fill="#FFFFFF"  d="M71.999,0h10.286v165h-10.286v-165"/>
<path  fill-rule="evenodd" clip-rule="evenodd" fill="#FFFFFF"  d="M92.571,0h10.285v165h-10.285v-165"/>
<path  fill-rule="evenodd" clip-rule="evenodd" fill="#FFFFFF"  d="M113.14,0h10.285v165h-10.285v-165"/>
<path  fill-rule="evenodd" clip-rule="evenodd" fill="#FFFFFF"  d="M133.71,0h10.285v165h-10.285v-165"/>
<path  fill-rule="evenodd" clip-rule="evenodd" fill="#FFFFFF"  d="M154.29,0h10.285v165h-10.285v-165"/>
<path  fill-rule="evenodd" clip-rule="evenodd" fill="#FFFFFF"  d="M174.86,0h10.285v165h-10.285v-165"/>
<path  fill-rule="evenodd" clip-rule="evenodd" fill="#FFFFFF"  d="M195.43,0h10.285v165h-10.285v-165"/>
<path  fill-rule="evenodd" clip-rule="evenodd" fill="#FFFFFF"  d="M216,0h10.285v165h-10.285v-165"/>
<path  fill-rule="evenodd" clip-rule="evenodd" fill="#FFFFFF"  d="M236.57,0h10.285v165h-10.285v-165"/>
<path  fill-rule="evenodd" clip-rule="evenodd" fill="#FFFFFF"  d="M257.14,0h10.286v165h-10.286v-165"/>
<path  fill-rule="evenodd" clip-rule="evenodd" fill="#FFFFFF"  d="M10,22.5h238.5v120h-238.5v-120"/>
<g>
	<defs>
		<path id="SVGID_1_" d="M11,22.5h238.5v120h-238.5v-120"/>
	</defs>
	<clipPath id="SVGID_2_">
		<use xlink:href="#SVGID_1_"  overflow="visible"/>
	</clipPath>
	
		<path clip-path="url(#SVGID_2_)" fill="none" stroke="#000000" stroke-width="4.5" stroke-linecap="round" stroke-miterlimit="10" d="M11,22.5h238.5v120h-238.5v-120"/>
</g>
</svg>
