<svg version="1.1" id="Layer_1" xmlns="http://www.w3.org/2000/svg" xmlns:xlink="http://www.w3.org/1999/xlink" x="0px" y="0px" width="400px" height="220px" viewBox="0 0.25 400 220" enable-background="new 0 0.25 400 220" xml:space="preserve"><defs><rect width="10" height="10" class="svg---mgr"></rect></defs><path d="M6.816999912261963 176.0749969482422 C 297.50799560546875 176.0749969482422 297.50799560546875 44.426998138427734 6.816999912261963 44.426998138427734 C 6.816999912261963 44.426998138427734 6.816999912261963 8.324999809265137 6.816999912261963 8.324999809265137 C 309.45599365234375 8.324999809265137 307.8169860839844 212.17599487304688 6.816999912261963 212.17599487304688 C 6.816999912261963 212.17599487304688 6.816999912261963 176.0749969482422 6.816999912261963 176.0749969482422" style="opacity: 0;"></path><rect x="12" y="21" width="10" height="10" rx="2" ry="2" class="handle-original" fill="#da55da" stroke="#000000" style="stroke-width: 2px; opacity: 0.5;"></rect><rect x="10" y="194" width="10" height="10" rx="2" ry="2" class="handle-original" fill="#da55da" stroke="#000000" style="stroke-width: 2px; opacity: 0.5;"></rect><rect x="222" y="104" width="10" height="10" rx="2" ry="2" class="handle-original" fill="#da55da" stroke="#000000" style="stroke-width: 2px; opacity: 0.5;"></rect><rect x="282" y="101" width="10" height="10" rx="2" ry="2" class="handle-original" fill="#da55da" stroke="#000000" style="stroke-width: 2px; opacity: 0.5;"></rect><rect x="12" y="21" width="10" height="10" rx="2" ry="2" class="handle" fill="#da55da" stroke="#000000" style="stroke-width: 2px;"></rect><rect x="10" y="194" width="10" height="10" rx="2" ry="2" class="handle" fill="#da55da" stroke="#000000" style="stroke-width: 2px;"></rect><rect x="222" y="104" width="10" height="10" rx="2" ry="2" class="handle" fill="#da55da" stroke="#000000" style="stroke-width: 2px;"></rect><rect x="282" y="101" width="10" height="10" rx="2" ry="2" class="handle" fill="#da55da" stroke="#000000" style="stroke-width: 2px;" transform="matrix(1,0,0,1,105,4)"></rect></svg>