<!--?xml version="1.0" encoding="utf-8"?-->
<!-- Generator: Adobe Illustrator 17.1.0, SVG Export Plug-In . SVG Version: 6.00 Build 0)  -->

<svg version="1.1" id="Layer_1" xmlns="http://www.w3.org/2000/svg" xmlns:xlink="http://www.w3.org/1999/xlink" x="0px" y="0px" viewBox="0 0 500 500" width="500px" height="500px" enable-background="new 0 0 500 500" xml:space="preserve">
<path fill="#8DC63F" stroke="#009444" stroke-width="8" stroke-linecap="round" stroke-linejoin="round" stroke-miterlimit="10" d="M 250.1 69.4 C 286.1 69.4 294.6 206.3 294.6 206.3 C 294.6 206.3 427.4 172.2 438.5 206.3 C 449.6 240.4 322 290.9 322 290.9 C 322 290.9 395.6 406.7 366.5 427.8 C 337.4 448.9 250 343.2 250 343.2 C 250 343.2 162.6 448.8 133.5 427.8 C 104.4 406.8 178 290.9 178 290.9 C 178 290.9 50.5 240.5 61.5 206.3 C 72.5 172.1 205.4 206.3 205.4 206.3 C 205.4 206.3 214.1 69.4 250.1 69.4"></path>
</svg>
