<!--?xml version="1.0" encoding="utf-8"?-->
<!-- Generator: Adobe Illustrator 15.0.2, SVG Export Plug-In . SVG Version: 6.00 Build 0)  -->

<svg version="1.1" id="Layer_1" xmlns="http://www.w3.org/2000/svg" xmlns:xlink="http://www.w3.org/1999/xlink" x="0px" y="0px" width="691.389px" height="776.604px" viewBox="0 0 691.389 776.604" enable-background="new 0 0 691.389 776.604" xml:space="preserve">
<g>
	<path fill="#FFE563" stroke="#E8D46D" stroke-width="3.1718" stroke-linejoin="bevel" stroke-miterlimit="10" d="M 542.76 582.771 C 539.087 587.254 528.487 608.453 513.372 617.216 C 498.258 625.977 489.483 625.969 473.139 623.951 C 456.795 621.933 438.314 621.884 424.002 617.398 C 409.692 612.912 394.31 617.986 387.221 618.732 C 380.134 619.478 360.02 624.323 352.746 626.561 C 345.472 628.798 335.692 631.969 330.191 632.321 C 324.69 632.674 305.08 635.446 295.533 632.408 C 285.986 629.371 276.736 628.672 265.432 619.669 C 254.127 610.665 243.175 602.951 233.37 592.02 C 223.563 581.089 220.118 566.856 211.351 557.742 C 202.584 548.629 196.263 542.462 190.565 539.363 C 184.866 536.265 182.32 532.533 176.467 534.009 C 178.679 543.108 196.004 579.51 208.662 590.773 C 221.322 602.037 231.337 611.699 249.044 621.296 C 266.749 630.892 305.292 642.328 343.485 641.771 C 381.68 641.215 412.389 641.23 438.286 638.579 C 464.182 635.928 493.588 635.065 507.324 630.622 C 521.06 626.18 527.652 619.688 531.954 614.054 C 536.255 608.421 541.24 598.577 542.76 582.771"></path>
	<path fill="#7BD968" stroke="#598C4E" stroke-width="3.1718" stroke-linejoin="bevel" stroke-miterlimit="10" d="M 90.0304 588.909 C 89.4067 594.063 86.6321 609.859 94.314 619.746 C 107.015 636.094 127.137 633.544 132.311 634.103 C 137.485 634.662 163.097 639.425 182.205 615.918 C 201.315 592.409 215.907 584.611 225.015 579.877 C 220.542 571.858 217.086 563.709 211.35 557.75 C 202.584 548.643 196.27 542.459 190.559 539.372 C 184.847 536.285 182.39 532.501 176.403 534.05 C 175.928 534.173 175.466 534.311 174.996 534.449 C 168.618 544.078 155.647 552.964 146.235 553.142 C 136.82 553.32 122.372 552.904 118.373 552.555 C 115.366 552.293 112.578 554.706 111.473 555.317 C 102.893 560.062 91.6517 575.512 90.0304 588.909"></path>
	<path fill="#7BD968" stroke="#598C4E" stroke-width="3.1718" stroke-linejoin="bevel" stroke-miterlimit="10" d="M 317.898 633.425 C 310.235 633.994 301.143 634.163 295.533 632.401 C 285.993 629.406 276.731 628.643 265.435 619.677 C 262.643 617.461 259.868 615.29 257.129 613.163 C 248.207 620.423 234.8 639.157 231.584 646.769 C 228.367 654.383 223.719 668.003 229.918 682.869 C 236.118 697.735 234.038 702.125 235.941 708.396 C 237.845 714.668 237.555 719.698 246.087 720.477 C 254.62 721.256 260.07 715.656 266.698 709.275 C 273.326 702.895 285.468 695.768 296.023 685.424 C 304.584 677.035 310.483 669.622 313.782 662.562 C 317.084 655.497 317.955 634.12 317.809 634.031 C 317.9 634.086 317.859 633.405 317.914 633.438 C 317.878 633.416 317.912 633.434 317.89 633.421 C 317.906 633.43 317.89 633.421 317.898 633.425"></path>
	<path fill="#7BD968" stroke="#598C4E" stroke-width="3.1718" stroke-linejoin="bevel" stroke-miterlimit="10" d="M 543.969 581.065 C 547.684 575.219 553.073 562.833 556.974 562.844 C 561.32 562.857 565.175 566.55 566.658 565.562 C 574.668 568.889 583.601 575.231 583.164 582.449 C 582.727 589.669 580.187 589.46 577.147 591.576 C 574.108 593.692 568.276 592.497 564.077 590.451 C 559.883 588.408 548.032 584.503 543.969 581.065"></path>
	<path fill="#7BD968" stroke="#598C4E" stroke-width="3.1718" stroke-linejoin="bevel" stroke-miterlimit="10" d="M 502.093 622.576 C 492.872 625.843 485.019 625.408 473.134 623.943 C 463.098 622.706 452.33 622.238 442.14 620.958 C 439.728 636.057 435.469 661.866 455.317 681.669 C 465.829 692.157 472.633 693.224 479.447 697.202 C 486.263 701.181 492.862 715.623 505.242 718.92 C 511.416 720.565 514.116 720.067 518.57 715.72 C 523.025 711.372 524.094 710.233 525.04 705.434 C 525.987 700.627 529.12 683.538 526.597 673.808 C 524.072 664.075 519.175 650.145 515.961 644.014 C 512.748 637.884 502.091 623.241 502.051 623.25 C 502.079 623.245 502.084 622.577 502.1 622.574 C 502.089 622.576 502.096 622.577 502.089 622.578 C 502.095 622.576 502.087 622.58 502.093 622.576"></path>
	<path fill="#94AEFF" stroke="#4464C7" stroke-width="3.1718" stroke-linejoin="bevel" stroke-miterlimit="10" d="M 111.464 555.3 C 116.947 557.111 118.908 566.994 118.918 566.996 C 123.768 566.094 126.175 567.256 127.812 568.304 C 129.826 562.187 136.463 555.444 144.263 556.356 C 152.064 557.268 159.143 557.633 161.36 573.543 C 171.767 574.631 182.054 569.317 185.9 570.378 C 189.748 571.44 192.716 574.592 193.027 576.052 C 193.338 577.515 194.992 583.232 194.895 585.015 C 194.797 586.797 193.837 589.827 191.845 590.084 C 189.853 590.34 187.614 588.168 187.132 586.285 C 186.65 584.399 187.023 581.457 185.703 580.423 C 184.387 579.391 182.236 579.644 180.828 579.999 C 179.42 580.354 162.501 582.545 160.342 583.009 C 159.177 589.059 153.074 598.377 142.109 597.065 C 131.145 595.752 129.567 591.285 128.916 586.937 C 128.266 582.588 127.577 579.099 127.571 579.091 C 122.41 578.721 123.378 578.667 119.959 578.154 C 117.339 584.979 111.603 594.39 100.22 592.978 C 88.8348 591.567 83.4949 584.558 86.0284 570.196 C 80.2662 568.629 82.4165 567.925 82.4165 567.922 C 84.1819 560.603 84.186 560.595 84.1852 560.598 C 84.1831 560.597 91.856 562.01 91.8578 562.023 C 94.4104 552.169 107.866 554.111 111.464 555.3"></path>
	<path fill="#FFFFFF" stroke="#4464C7" stroke-width="3.1718" stroke-linejoin="bevel" stroke-miterlimit="10" d="M 98.925 561.264 C 105.666 559.115 113.57 565.269 114.444 569.201 C 115.319 573.139 113.259 584.378 107.736 586.622 C 102.21 588.868 93.4742 586.853 92.0918 581.972 C 90.7117 577.1 91.2436 563.713 98.925 561.264"></path>
	<path fill="#E0B577" stroke="#A87C3B" stroke-width="3.1718" stroke-linejoin="bevel" stroke-miterlimit="10" d="M 98.8137 572.334 C 100.582 570.296 106.742 571.049 108.253 573.661 C 109.763 576.272 108.391 579.186 106.613 579.867 C 104.836 580.547 99.4497 583.365 98.1592 580.396 C 96.8724 577.434 96.496 575.005 98.8137 572.334"></path>
	<path fill="#FFFFFF" stroke="#4464C7" stroke-width="3.1718" stroke-linejoin="bevel" stroke-miterlimit="10" d="M 133.987 585.252 C 131.617 577.452 132.272 570.939 135.269 567.876 C 138.265 564.816 146.234 563.18 151.061 569.601 C 155.893 576.03 156.971 581.013 155.381 583.834 C 153.792 586.654 149.045 591.837 144.89 591.348 C 140.735 590.858 135.271 589.475 133.987 585.252"></path>
	<path fill="#E0B577" stroke="#A87C3B" stroke-width="3.1718" stroke-linejoin="bevel" stroke-miterlimit="10" d="M 139.373 575.684 C 141.288 574.479 147.728 577.523 148.22 578.838 C 148.712 580.152 147.718 583.282 146.757 583.186 C 145.796 583.09 139.475 584.982 138.156 581.843 C 136.835 578.698 136.552 577.459 139.373 575.684"></path>
	<path fill="#C79C52" stroke="#806434" stroke-width="3.1718" stroke-linejoin="bevel" stroke-miterlimit="10" d="M 437.921 449.155 C 420.966 441.778 395.085 430.316 380.586 422.766 C 371.374 417.969 356.726 413.552 341.6 410.542 C 344.774 416.791 348.448 434.444 348.686 454.843 C 364.994 452.911 405.343 464.593 418.521 470.233 C 425.123 466.375 434.607 455.751 437.921 449.155"></path>
	<path fill="#C79C52" stroke="#806434" stroke-width="3.1718" stroke-linejoin="bevel" stroke-miterlimit="10" d="M 450.021 510.595 C 445.029 496.013 431.87 483.736 418.493 470.352 C 425.146 466.281 434.608 455.705 437.909 449.249 C 441.525 450.978 444.875 452.669 447.328 454.194 C 460.819 462.577 491.359 481.676 502.841 493.101 C 512.464 502.676 521.239 515.289 526.547 522.47 C 508.039 516.52 480.251 509.403 469.049 508.684 C 457.845 507.965 450.049 510.575 450.021 510.595"></path>
	<path fill="#C79C52" stroke="#806434" stroke-width="3.1718" stroke-linejoin="bevel" stroke-miterlimit="10" d="M 526.544 522.468 C 508.043 516.532 480.245 509.395 469.05 508.691 C 457.851 507.986 450.015 510.49 450.062 510.704 C 445.347 513.143 430.151 543.587 430.083 543.924 C 430.839 555.533 437.175 558.986 441.545 567.069 C 445.915 575.151 450.217 588.935 451.648 602.997 C 466.537 605.377 488.257 610.401 504.163 601.265 C 522.339 590.825 521.144 582.072 528.835 569.079 C 535.529 557.77 542.375 546.806 554.523 547.953 C 554.517 547.969 554.522 547.96 554.516 547.967 C 545.235 542.559 533.865 531.457 529.222 525.921 C 528.469 525.023 527.583 523.849 526.544 522.468"></path>
	<path fill="#C79C52" stroke="#806434" stroke-width="3.1718" stroke-linejoin="bevel" stroke-miterlimit="10" d="M 359.629 527.742 C 335.983 547.589 323.332 598.44 323.378 612.446 C 325.998 612.296 328.54 611.866 331.308 611.301 C 359.394 605.571 365.112 605.143 379.359 600.317 C 393.605 595.491 402.113 597.508 410.02 597.435 C 417.927 597.362 431.305 600.555 445.742 602.17 C 447.544 602.371 449.537 602.644 451.644 602.993 C 450.222 588.94 445.915 575.148 441.544 567.069 C 437.174 558.99 430.842 555.525 430.079 543.931 C 422.884 536.433 394.515 522.371 359.629 527.742"></path>
	<path fill="#C79C52" stroke="#806434" stroke-width="3.1718" stroke-linejoin="bevel" stroke-miterlimit="10" d="M 418.504 470.251 C 405.356 464.591 364.987 452.877 348.679 454.867 C 343.042 455.554 333.517 463.818 330.733 471.496 C 334.93 478.797 346.682 495.821 350.713 503.409 C 354.744 510.996 358.585 524.942 359.683 527.83 C 394.426 522.242 422.956 536.507 430.055 543.929 C 430.151 543.549 445.365 513.214 450.035 510.651 C 445.013 495.869 431.862 483.912 418.504 470.251"></path>
	<path fill="#C79C52" stroke="#806434" stroke-width="3.1718" stroke-linejoin="bevel" stroke-miterlimit="10" d="M 330.69 471.509 C 308.403 470.416 270.083 486.98 258.688 493.3 C 247.294 499.621 227.937 537.305 224.851 549.345 C 229.302 555.44 233.743 561.672 238.03 568.008 C 256.725 595.637 272.505 605.609 284.129 609.896 C 294.607 613.76 301.643 616.014 323.424 612.517 C 323.245 598.299 336.067 547.739 359.587 527.663 C 358.666 525.109 354.726 510.941 350.705 503.398 C 346.683 495.853 334.971 478.763 330.69 471.509"></path>
	<path fill="#C79C52" stroke="#806434" stroke-width="3.1718" stroke-linejoin="bevel" stroke-miterlimit="10" d="M 330.676 471.534 C 308.433 470.334 270.05 487.075 258.705 493.267 C 251.427 470.289 232.761 443.434 224.095 441.357 C 226.239 439.35 228.746 437.681 231.267 435.955 C 248.663 424.049 281.698 410.668 303.102 408.465 C 313.381 407.407 327.579 407.892 341.609 410.59 C 344.754 416.797 348.466 434.363 348.675 454.917 C 342.977 455.759 333.615 463.617 330.676 471.534"></path>
	<path fill="#C79C52" stroke="#806434" stroke-width="3.1718" stroke-linejoin="bevel" stroke-miterlimit="10" d="M 224.846 549.418 C 209.839 529.507 195.3 513.623 187.264 509.462 C 181.099 506.269 175.149 505.444 169.186 507.586 C 179.042 501.602 177.024 497.308 190.767 479.86 C 202.518 464.942 210.903 452.019 224.083 441.316 C 232.784 443.463 251.403 470.289 258.716 493.251 C 247.251 499.78 227.964 537.141 224.846 549.418"></path>
	<path fill="#FFC163" stroke="#B38645" stroke-width="3.1718" stroke-linejoin="bevel" stroke-miterlimit="10" d="M 156.858 515.865 C 166.939 505.656 176.923 504.117 187.259 509.439 C 197.594 514.761 219.276 540.197 238.022 567.965 C 256.769 595.735 272.476 605.589 284.129 609.866 C 295.781 614.143 303.052 616.59 331.267 611.199 C 359.482 605.808 365.069 605.029 379.353 600.3 C 393.637 595.571 402.092 597.483 410.018 597.423 C 417.945 597.364 431.282 600.59 445.75 602.153 C 460.219 603.717 485.998 611.686 504.164 601.269 C 522.334 590.85 521.155 582.064 528.835 569.087 C 536.516 556.109 544.445 543.518 560.301 549.349 C 576.154 555.179 568.127 564.583 566.661 565.561 C 565.194 566.539 561.316 562.883 556.975 562.846 C 552.633 562.809 546.443 578.239 542.764 582.758 C 539.087 587.276 528.493 608.449 513.375 617.218 C 498.26 625.985 489.486 625.971 473.141 623.955 C 456.797 621.939 438.316 621.887 424.004 617.402 C 409.694 612.916 394.313 617.989 387.226 618.736 C 380.137 619.484 360.024 624.328 352.749 626.566 C 345.479 628.801 335.695 631.973 330.194 632.326 C 324.692 632.679 305.083 635.454 295.535 632.414 C 285.989 629.375 276.74 628.678 265.435 619.675 C 254.13 610.672 243.179 602.957 233.372 592.025 C 223.566 581.095 220.122 566.86 211.353 557.75 C 202.583 548.637 196.276 542.462 190.562 539.371 C 184.849 536.281 182.393 532.504 176.408 534.049 C 170.423 535.594 165.487 539.011 159.602 534.309 C 153.712 529.603 153.135 519.635 156.858 515.865"></path>
	
		<path fill="#7BD968" stroke="#598C4E" stroke-width="3.1718" stroke-linecap="round" stroke-linejoin="bevel" stroke-miterlimit="10" d="M 101.98 611.055 C 103.016 612.812 107.401 619.639 114.808 620.528 C 122.215 621.417 130.335 621.246 132.405 617.164"></path>
</g>
<g>
	<g>
		<path fill="#FFE563" stroke="#E8D46D" stroke-width="2.0004" stroke-linejoin="bevel" stroke-miterlimit="10" d="M 479.156 421.346 C 476.24 424.138 466.973 436.352 456.024 440.599 C 445.103 444.836 439.149 444.323 428.426 441.75 C 417.701 439.177 405.55 436.82 397.191 431.887 C 388.816 426.946 378.904 427.209 374.566 426.459 C 370.24 425.71 357.788 425.668 353.29 426.277 C 348.796 426.885 342.731 427.961 339.546 427.649 C 336.386 427.339 324.784 427.766 319.703 425.152 C 314.652 422.554 309.37 421.535 304.061 415.019 C 298.734 408.48 293.413 403.213 289.04 396.108 C 284.679 389.023 284.674 380.166 280.212 374.877 C 275.757 369.596 272.224 366.171 268.706 364.575 C 265.194 362.983 264.001 360.735 259.674 362.034 C 260.766 366.701 267.479 388.583 273.819 395.719 C 280.178 402.876 284.925 409.158 294.123 415.943 C 303.358 422.757 324.033 431.906 346.004 435.772 C 368.013 439.644 386.956 444.757 404.078 446.373 C 421.198 447.99 441.251 449.82 450.826 447.863 C 460.416 445.902 465.313 442.617 468.7 439.432 C 472.093 436.241 476.287 430.81 479.156 421.346"></path>
		<path fill="#7BD968" stroke="#598C4E" stroke-width="2.0004" stroke-linejoin="bevel" stroke-miterlimit="10" d="M 198.474 398.371 C 197.715 401.642 194.912 411.72 199.104 418.057 C 206.037 428.538 218.585 426.496 221.837 426.757 C 225.128 427.021 240.111 429.681 254.359 413.203 C 268.583 396.753 279.391 391.635 285.667 388.335 C 284.167 383.32 283.125 378.328 280.217 374.881 C 275.758 369.594 272.221 366.192 268.713 364.573 C 265.217 362.958 263.951 360.839 259.724 361.953 C 259.388 362.042 259.075 362.174 258.754 362.239 C 253.448 368.046 244.029 373.915 237.792 374.375 C 231.575 374.833 222.075 375.127 219.458 375.022 C 217.507 374.943 215.482 376.544 214.726 376.937 C 208.725 380.061 200.444 389.875 198.474 398.371"></path>
		<path fill="#7BD968" stroke="#598C4E" stroke-width="2.0004" stroke-linejoin="bevel" stroke-miterlimit="10" d="M 332.399 427.393 C 327.931 427.145 322.682 426.73 319.71 425.175 C 314.664 422.534 309.377 421.564 304.077 415.03 C 302.755 413.401 301.45 411.845 300.177 410.376 C 293.575 415.203 283.424 428.653 280.822 434.233 C 278.222 439.808 274.259 449.773 277.277 461.174 C 280.291 472.561 279.122 475.941 280.172 480.808 C 281.22 485.667 281.129 489.576 286.298 490.502 C 291.466 491.428 294.696 487.327 298.591 482.597 C 302.506 477.842 309.692 472.736 316.014 465.171 C 321.145 459.032 324.891 453.727 327.175 448.546 C 329.453 443.379 331.985 427.662 332.397 427.859 C 332.151 427.743 332.469 427.415 332.399 427.393"></path>
		<path fill="#7BD968" stroke="#598C4E" stroke-width="2.0004" stroke-linejoin="bevel" stroke-miterlimit="10" d="M 480.105 420.342 C 483.211 416.915 488.046 409.237 490.413 409.149 C 493.092 409.05 495.113 411.321 496.126 410.676 C 500.728 412.585 505.732 416.408 504.847 420.845 C 503.956 425.311 502.322 425.161 500.199 426.464 C 498.052 427.782 494.467 427.091 491.959 425.882 C 489.472 424.682 482.293 422.398 480.105 420.342"></path>
		<path fill="#7BD968" stroke="#598C4E" stroke-width="2.0004" stroke-linejoin="bevel" stroke-miterlimit="10" d="M 447.97 443.08 C 441.498 444.41 436.219 443.615 428.425 441.754 C 421.866 440.188 414.694 438.644 408.378 436.658 C 404.673 444.556 400.715 460.25 414.868 474.028 C 422.346 481.307 426.842 482.105 431.575 484.939 C 436.319 487.779 441.559 496.827 449.832 499.294 C 453.956 500.524 455.617 500.271 458.258 497.81 C 460.914 495.335 461.628 494.721 461.995 491.865 C 462.36 489.031 464.011 479.078 462.346 473.353 C 460.675 467.606 457.736 459.443 455.876 455.827 C 454.018 452.211 447.774 443.429 448.005 443.439 C 447.86 443.43 448.015 443.086 447.97 443.08"></path>
		<path fill="#94AEFF" stroke="#4464C7" stroke-width="2.0004" stroke-linejoin="bevel" stroke-miterlimit="10" d="M 214.731 376.929 C 218.227 377.812 218.742 383.791 218.734 383.808 C 221.989 383.074 223.449 383.73 224.47 384.284 C 226.266 380.448 231.196 376.119 236.231 376.407 C 241.305 376.696 245.978 376.53 245.749 386.342 C 252.333 386.609 259.614 382.942 261.978 383.472 C 264.349 384.004 265.863 385.865 265.869 386.763 C 265.874 387.697 266.205 391.275 265.921 392.412 C 265.622 393.603 264.634 395.562 263.345 395.791 C 262.056 396.021 260.929 394.687 260.84 393.501 C 260.749 392.289 261.358 390.416 260.612 389.789 C 259.899 389.19 258.5 389.402 257.545 389.677 C 256.611 389.946 245.517 391.948 244.121 392.324 C 242.717 396.176 237.958 402.428 231.118 401.946 C 224.28 401.464 223.651 398.655 223.602 395.904 C 223.554 393.156 223.396 391.009 223.396 390.998 C 220.09 390.96 220.718 390.886 218.59 390.659 C 216.317 395.021 211.928 401.234 204.756 400.654 C 197.573 400.073 194.606 395.756 197.123 386.802 C 193.49 386.045 194.945 385.526 194.948 385.527 C 196.539 380.984 196.541 380.998 196.539 380.995 C 196.542 380.991 201.456 381.652 201.458 381.648 C 203.71 375.583 212.449 376.352 214.731 376.929"></path>
		<path fill="#FFFFFF" stroke="#4464C7" stroke-width="2.0004" stroke-linejoin="bevel" stroke-miterlimit="10" d="M 206.089 380.945 C 210.658 379.431 215.399 382.919 215.68 385.316 C 215.958 387.677 213.755 394.802 209.996 396.41 C 206.309 397.988 200.832 396.98 200.278 393.959 C 199.725 390.933 200.902 382.664 206.089 380.945"></path>
		<path fill="#E0B577" stroke="#A87C3B" stroke-width="2.0004" stroke-linejoin="bevel" stroke-miterlimit="10" d="M 205.273 387.773 C 206.591 386.432 210.511 386.712 211.303 388.279 C 212.101 389.859 210.997 391.693 209.783 392.188 C 208.599 392.672 204.934 394.609 204.308 392.794 C 203.677 390.963 203.586 389.489 205.273 387.773"></path>
		<path fill="#FFFFFF" stroke="#4464C7" stroke-width="2.0004" stroke-linejoin="bevel" stroke-miterlimit="10" d="M 226.97 394.664 C 226.124 389.814 227.118 385.747 229.336 383.76 C 231.552 381.776 236.916 380.443 239.45 384.251 C 241.967 388.033 242.139 391.181 240.828 393.016 C 239.511 394.859 236.01 398.339 233.4 398.182 C 230.802 398.026 227.428 397.292 226.97 394.664"></path>
		<path fill="#E0B577" stroke="#A87C3B" stroke-width="2.0004" stroke-linejoin="bevel" stroke-miterlimit="10" d="M 231.336 388.458 C 232.664 387.665 236.556 389.293 236.74 390.116 C 236.919 390.92 236.029 392.945 235.37 392.915 C 234.745 392.886 230.548 394.313 229.977 392.363 C 229.409 390.421 229.343 389.647 231.336 388.458"></path>
		<path fill="#C79C52" stroke="#806434" stroke-width="2.0004" stroke-linejoin="bevel" stroke-miterlimit="10" d="M 439.765 331.329 C 432.145 325.137 417.587 315.293 407.412 309.642 C 400.968 306.063 391.542 302.978 380.707 300.749 C 384.809 304.556 393.099 316.901 391.908 328.965 C 404.131 330.615 425.186 342.907 429.882 347.314 C 434.068 345.243 438.891 336.928 439.765 331.329"></path>
		<path fill="#C79C52" stroke="#806434" stroke-width="2.0004" stroke-linejoin="bevel" stroke-miterlimit="10" d="M 437.779 376.03 C 438.533 366.673 434.786 357.821 430.04 347.442 C 433.904 345.07 438.926 336.977 439.812 331.349 C 441.632 332.959 443.16 334.07 444.303 335.365 C 450.683 342.593 463.721 356.537 468.433 364.361 C 472.367 370.891 475.425 379.44 477.545 383.946 C 467.67 380.559 454.008 376.186 448.265 375.491 C 442.57 374.802 437.729 376.081 437.779 376.03"></path>
		<path fill="#C79C52" stroke="#806434" stroke-width="2.0004" stroke-linejoin="bevel" stroke-miterlimit="10" d="M 477.533 383.946 C 467.658 380.546 454.012 376.193 448.251 375.483 C 442.549 374.782 437.802 376.159 437.663 375.923 C 435.033 378.132 417.699 393.008 417.424 392.701 C 414.567 399.172 417.365 401.887 418.01 406.877 C 418.656 411.875 418.22 419.862 416.973 427.784 C 426.113 431.06 440.035 435.725 451.685 431.233 C 465.013 426.094 465.369 420.856 472.101 413.177 C 477.949 406.505 483.517 399.327 490.648 399.805 C 490.657 399.794 490.656 399.818 490.671 399.811 C 485.645 396.59 480.422 389.72 478.592 386.167 C 478.292 385.585 477.857 384.867 477.533 383.946"></path>
		<path fill="#C79C52" stroke="#806434" stroke-width="2.0004" stroke-linejoin="bevel" stroke-miterlimit="10" d="M 382.783 369.72 C 361.77 373.499 340.35 402.604 339.153 413.535 C 340.231 413.312 341.963 413.314 343.647 413.299 C 360.818 413.138 364.172 414.098 373.394 413.788 C 382.652 413.477 387.269 416.556 392.002 417.951 C 396.771 419.356 404.312 423.716 413.315 426.555 C 414.425 426.906 415.654 427.349 416.971 427.797 C 418.243 419.859 418.64 411.895 418.025 406.884 C 417.41 401.881 414.483 399.226 417.507 392.676 C 415.137 388.095 404.655 374.84 382.783 369.72"></path>
		<path fill="#C79C52" stroke="#806434" stroke-width="2.0004" stroke-linejoin="bevel" stroke-miterlimit="10" d="M 429.927 347.341 C 425.187 342.856 404.047 330.579 391.97 328.965 C 387.782 328.405 381.799 331.753 377.995 335.106 C 380.719 339.723 384.333 350.785 384.65 355.448 C 384.968 360.12 382.992 368.038 382.728 369.626 C 404.739 374.976 415.101 388.008 417.512 392.662 C 417.688 393.107 434.987 377.996 437.756 376.011 C 438.481 366.616 434.929 357.957 429.927 347.341"></path>
		<path fill="#C79C52" stroke="#806434" stroke-width="2.0004" stroke-linejoin="bevel" stroke-miterlimit="10" d="M 378.145 335.314 C 362.419 329.825 331.223 335.557 322.243 338.529 C 313.233 341.51 294.236 361.546 290.407 369.726 C 292.351 373.001 294.329 376.75 295.973 380.712 C 303.113 397.913 310.482 405.361 316.668 408.834 C 322.196 411.937 325.549 413.474 339.084 413.48 C 340.453 402.756 361.658 373.352 382.835 369.82 C 382.914 367.913 384.949 360.128 384.666 355.488 C 384.383 350.85 380.581 339.527 378.145 335.314"></path>
		<path fill="#C79C52" stroke="#806434" stroke-width="2.0004" stroke-linejoin="bevel" stroke-miterlimit="10" d="M 378.139 335.265 C 362.465 330.031 331.154 335.266 322.274 338.684 C 320.101 326.244 305.04 313.062 298.168 312.022 C 299.871 311.035 301.447 310.272 303.271 309.433 C 315.764 303.683 338.708 298.245 353.524 297.979 C 360.651 297.85 370.977 298.639 380.708 300.756 C 384.855 304.569 392.924 316.774 392.012 329.026 C 388.336 328.725 381.261 331.389 378.139 335.265"></path>
		<path fill="#C79C52" stroke="#806434" stroke-width="2.0004" stroke-linejoin="bevel" stroke-miterlimit="10" d="M 290.376 369.642 C 283.524 357.952 274.739 349.838 269.431 347.705 C 265.39 346.081 261.285 345.901 257.007 347.22 C 264.252 343.688 263.193 341.158 273.744 331.748 C 282.772 323.697 288.935 317.211 298.203 311.995 C 304.995 313.053 320.141 326.262 322.256 338.648 C 313.168 341.206 294.307 361.803 290.376 369.642"></path>
		<path fill="#FFC163" stroke="#B38645" stroke-width="2.0004" stroke-linejoin="bevel" stroke-miterlimit="10" d="M 247.933 352.269 C 255.63 346.225 262.521 345.039 269.44 347.699 C 276.381 350.367 288.89 363.504 295.981 380.707 C 303.067 397.899 310.536 405.32 316.658 408.832 C 322.742 412.322 326.499 413.745 343.649 413.355 C 360.819 412.964 364.177 414.154 373.394 413.786 C 382.645 413.416 387.293 416.553 391.996 417.949 C 396.739 419.356 404.374 423.656 413.297 426.564 C 422.257 429.484 438.348 436.389 451.704 431.235 C 465.081 426.073 465.362 420.866 472.119 413.178 C 478.871 405.495 485.1 397.188 494.008 400.559 C 502.947 403.941 497.229 410.041 496.158 410.677 C 495.085 411.313 493.126 409.003 490.441 409.144 C 487.777 409.284 482.075 418.663 479.178 421.37 C 476.271 424.086 466.996 436.36 456.046 440.595 C 445.123 444.821 439.175 444.325 428.449 441.748 C 417.722 439.17 405.571 436.816 397.22 431.884 C 388.85 426.941 378.928 427.207 374.598 426.458 C 370.262 425.708 357.815 425.663 353.312 426.275 C 348.824 426.885 342.753 427.955 339.572 427.646 C 336.404 427.339 324.808 427.759 319.726 425.145 C 314.672 422.547 309.391 421.53 304.087 415.016 C 298.761 408.475 293.438 403.21 289.062 396.097 C 284.703 389.01 284.694 380.158 280.235 374.867 C 275.781 369.582 272.245 366.174 268.738 364.559 C 265.236 362.946 263.972 360.822 259.746 361.941 C 255.553 363.051 251.908 365.212 248.375 362.696 C 244.838 360.176 245.077 354.511 247.933 352.269"></path>
		
			<path fill="#7BD968" stroke="#598C4E" stroke-width="2.0004" stroke-linecap="round" stroke-linejoin="bevel" stroke-miterlimit="10" d="M 204.557 412.256 C 205.067 413.329 207.371 417.679 211.955 418.09 C 216.518 418.499 221.619 418.194 223.234 415.409"></path>
	</g>
</g>
<g>
	<g>
		<path fill="#FFE563" stroke="#E8D46D" stroke-width="1.2222" stroke-linejoin="bevel" stroke-miterlimit="10" d="M 450.042 295.418 C 449.426 297.718 447.946 308.391 443.847 312.342 C 439.759 316.283 437.136 315.95 431.807 313.993 C 426.477 312.035 420.377 310.268 414.824 306.536 C 409.261 302.798 404.253 303.465 401.778 303.003 C 399.313 302.544 392.41 302.638 389.89 302.915 C 387.371 303.192 383.903 303.656 381.788 303.332 C 379.69 303.011 372.086 302.637 367.882 300.982 C 363.704 299.337 359.841 298.563 354.319 295.125 C 348.778 291.676 343.45 289.085 338.189 285.702 C 332.944 282.328 329.743 278.168 324.973 275.752 C 320.209 273.339 316.828 271.79 314.076 271.071 C 311.329 270.352 309.874 269.307 307.601 269.934 C 309.944 272.208 321.331 282.307 327.745 285.566 C 334.179 288.835 339.343 291.965 347.56 295.341 C 355.812 298.731 373.034 304.682 387.833 308.571 C 402.658 312.468 413.314 316.784 421.648 318.188 C 429.981 319.59 438.875 320.624 442.812 318.748 C 446.757 316.869 448.419 313.893 449.345 311.104 C 450.272 308.312 451.194 303.53 450.042 295.418"></path>
		<path fill="#7BD968" stroke="#598C4E" stroke-width="1.2222" stroke-linejoin="bevel" stroke-miterlimit="10" d="M 276.684 286.746 C 276.727 288.281 276.468 293.034 280.133 295.96 C 286.196 300.803 295.078 299.729 297.257 299.83 C 299.461 299.933 311.397 301.063 318.392 293.597 C 325.377 286.144 329.971 283.67 333.384 282.022 C 330.487 279.662 328.096 277.323 324.982 275.752 C 320.206 273.343 316.83 271.795 314.081 271.069 C 311.341 270.345 309.857 269.346 307.624 269.901 C 307.446 269.945 307.309 270.009 307.108 270.04 C 305.856 272.837 301.469 275.556 297.532 275.74 C 293.609 275.922 287.496 275.975 285.767 275.891 C 284.477 275.829 283.516 276.573 283.124 276.751 C 280.014 278.161 276.573 282.758 276.684 286.746"></path>
		<path fill="#7BD968" stroke="#598C4E" stroke-width="1.2222" stroke-linejoin="bevel" stroke-miterlimit="10" d="M 377.04 302.836 C 374.015 302.484 370.334 301.962 367.888 300.987 C 363.737 299.332 359.835 298.586 354.336 295.123 C 352.965 294.259 351.659 293.481 350.217 292.696 C 347.482 295.104 342.717 301.239 341.512 303.814 C 340.307 306.388 338.559 310.936 340.902 316.551 C 343.243 322.158 342.017 323.781 342.501 326.208 C 342.985 328.63 342.481 330.545 346.127 331.369 C 349.772 332.191 352.588 330.485 355.855 328.521 C 359.139 326.547 364.806 324.84 369.575 321.763 C 373.445 319.266 375.818 316.872 377.079 314.318 C 378.336 311.771 377.414 303.092 376.928 303.058 C 377.212 303.079 376.965 302.829 377.04 302.836"></path>
		<path fill="#7BD968" stroke="#598C4E" stroke-width="1.2222" stroke-linejoin="bevel" stroke-miterlimit="10" d="M 450.247 294.564 C 450.865 291.62 451.156 285.299 452.417 285.338 C 453.846 285.382 455.563 287.322 455.918 286.831 C 458.931 288.607 462.487 291.868 462.976 295.489 C 463.468 299.131 462.593 298.996 461.798 300.048 C 460.994 301.112 459.076 300.504 457.563 299.459 C 456.062 298.422 451.935 296.374 450.247 294.564"></path>
		<path fill="#7BD968" stroke="#598C4E" stroke-width="1.2222" stroke-linejoin="bevel" stroke-miterlimit="10" d="M 440.748 314.685 C 438.1 315.979 435.701 315.431 431.804 313.99 C 428.525 312.777 425.028 311.696 421.418 310.103 C 422.357 317.181 422.379 329.036 427.833 339.436 C 430.716 344.932 432.705 345.728 434.573 347.869 C 436.446 350.015 437.549 356.378 441.066 358.173 C 442.82 359.068 443.708 358.933 445.341 357.265 C 446.984 355.586 447.29 355.061 447.887 353.094 C 448.48 351.142 450.017 343.744 449.397 339.329 C 448.774 334.898 447.169 328.363 446.003 325.374 C 444.838 322.387 440.969 315.084 440.722 314.953 C 440.877 315.036 440.697 314.661 440.748 314.685"></path>
		<path fill="#94AEFF" stroke="#4464C7" stroke-width="1.2222" stroke-linejoin="bevel" stroke-miterlimit="10" d="M 283.137 276.747 C 285.644 277.208 287.385 280.03 287.378 280.03 C 289.371 279.715 290.498 280.026 291.306 280.293 C 291.614 278.511 293.721 276.523 297.073 276.683 C 300.45 276.843 303.522 276.791 306.067 281.314 C 310.58 281.442 314.36 279.73 316.066 279.96 C 317.777 280.191 319.391 281.047 319.664 281.461 C 319.948 281.891 321.256 283.544 321.39 284.069 C 321.53 284.619 321.414 285.524 320.589 285.632 C 319.763 285.739 318.628 285.127 318.239 284.583 C 317.841 284.027 317.716 283.162 317.034 282.878 C 316.382 282.607 315.488 282.701 314.93 282.834 C 314.384 282.965 307.403 283.892 306.507 284.058 C 306.584 285.822 304.622 288.672 299.763 288.453 C 294.907 288.234 293.951 286.941 293.329 285.673 C 292.709 284.408 292.139 283.411 292.129 283.406 C 289.882 283.377 290.303 283.343 288.802 283.23 C 288.25 285.242 286.381 288.116 281.361 287.836 C 276.333 287.556 273.678 285.51 273.649 281.261 C 271.074 280.864 271.96 280.628 271.955 280.63 C 272.119 278.468 272.097 278.472 272.105 278.471 C 272.105 278.471 275.467 278.847 275.478 278.845 C 275.671 275.964 281.501 276.446 283.137 276.747"></path>
		<path fill="#FFFFFF" stroke="#4464C7" stroke-width="1.2222" stroke-linejoin="bevel" stroke-miterlimit="10" d="M 278.375 278.562 C 281.038 277.892 284.952 279.592 285.69 280.718 C 286.415 281.825 286.42 285.134 284.154 285.871 C 281.93 286.594 278.027 286.105 277.112 284.68 C 276.196 283.252 275.351 279.322 278.375 278.562"></path>
		<path fill="#E0B577" stroke="#A87C3B" stroke-width="1.2222" stroke-linejoin="bevel" stroke-miterlimit="10" d="M 279.261 281.792 C 279.869 281.168 282.535 281.334 283.398 282.074 C 284.269 282.821 283.898 283.671 283.178 283.896 C 282.477 284.116 280.376 285.007 279.605 284.151 C 278.827 283.288 278.482 282.589 279.261 281.792"></path>
		<path fill="#FFFFFF" stroke="#4464C7" stroke-width="1.2222" stroke-linejoin="bevel" stroke-miterlimit="10" d="M 295.359 285.108 C 293.729 282.873 293.434 280.988 294.424 280.075 C 295.414 279.162 298.599 278.574 301.294 280.34 C 303.97 282.094 304.887 283.532 304.444 284.372 C 303.998 285.215 302.382 286.804 300.539 286.731 C 298.707 286.658 296.243 286.32 295.359 285.108"></path>
		<path fill="#E0B577" stroke="#A87C3B" stroke-width="1.2222" stroke-linejoin="bevel" stroke-miterlimit="10" d="M 296.902 282.259 C 297.607 281.898 300.625 282.659 300.955 283.037 C 301.278 283.406 301.151 284.336 300.695 284.32 C 300.263 284.305 297.729 284.954 296.896 284.055 C 296.065 283.16 295.844 282.801 296.902 282.259"></path>
		<path fill="#C79C52" stroke="#806434" stroke-width="1.2222" stroke-linejoin="bevel" stroke-miterlimit="10" d="M 387.532 225.231 C 379.317 221.633 367.994 219.472 362.035 219.412 C 358.264 219.373 353.085 220.601 347.934 222.683 C 350.089 223.836 354.906 228.373 358.79 235.598 C 363.866 232.349 379.813 233.16 386.027 236.258 C 387.473 233.938 388.142 228.456 387.532 225.231"></path>
		<path fill="#C79C52" stroke="#806434" stroke-width="1.2222" stroke-linejoin="bevel" stroke-miterlimit="10" d="M 406.161 255.906 C 401.373 248.449 393.813 242.089 386.01 236.17 C 387.483 234.012 388.159 228.448 387.506 225.189 C 389.293 225.826 390.874 226.748 392.159 227.407 C 399.34 231.091 415.322 241.568 421.917 247.86 C 427.422 253.113 433.077 259.892 436.106 263.816 C 428.63 260.229 417.111 255.895 412.815 255.319 C 408.552 254.748 406.182 255.891 406.161 255.906"></path>
		<path fill="#C79C52" stroke="#806434" stroke-width="1.2222" stroke-linejoin="bevel" stroke-miterlimit="10" d="M 436.093 263.807 C 428.625 260.231 417.105 255.89 412.806 255.316 C 408.549 254.748 406.17 255.885 406.165 255.909 C 405.028 257.321 404.864 271.496 404.862 271.471 C 407.32 277.154 410.387 279.239 413.424 283.548 C 416.466 287.863 420.313 295.093 422.56 302.139 C 428.057 304.595 435.471 308.324 439.624 304.149 C 444.375 299.372 443.084 294.772 443.957 288.181 C 444.715 282.457 445.437 276.791 449.687 277.598 C 449.678 277.586 449.707 277.609 449.688 277.603 C 445.873 274.676 440.241 268.664 437.646 265.663 C 437.219 265.169 436.729 264.539 436.093 263.807"></path>
		<path fill="#C79C52" stroke="#806434" stroke-width="1.2222" stroke-linejoin="bevel" stroke-miterlimit="10" d="M 375.055 261.651 C 369.931 269.371 375.461 288.854 376.618 294.67 C 377.819 294.753 378.689 294.714 379.656 294.664 C 389.509 294.151 391.509 294.569 396.016 293.677 C 400.539 292.782 404.013 294.63 406.913 295.405 C 409.836 296.187 415.243 299.176 420.44 301.257 C 421.08 301.513 421.823 301.802 422.572 302.148 C 420.309 295.098 416.474 287.859 413.432 283.558 C 410.393 279.26 407.33 277.098 404.869 271.526 C 400.769 267.353 386.848 259.269 375.055 261.651"></path>
		<path fill="#C79C52" stroke="#806434" stroke-width="1.2222" stroke-linejoin="bevel" stroke-miterlimit="10" d="M 386.025 236.233 C 379.804 233.151 363.857 232.36 358.786 235.568 C 357.026 236.682 355.092 240.011 355.406 243.048 C 358.08 244.716 365.028 249.915 367.706 252.575 C 370.388 255.239 374.163 260.433 375.106 261.7 C 386.772 259.194 400.83 267.401 404.852 271.508 C 404.884 271.439 405.038 257.361 406.162 255.888 C 401.38 248.512 393.795 241.997 386.025 236.233"></path>
		<path fill="#C79C52" stroke="#806434" stroke-width="1.2222" stroke-linejoin="bevel" stroke-miterlimit="10" d="M 355.38 242.929 C 347.444 245.256 336.231 253.15 333.112 255.533 C 329.982 257.924 328.956 269.442 329.168 272.937 C 331.869 274.644 334.518 276.294 337.091 278.162 C 348.266 286.275 355.768 290.231 360.942 292.087 C 365.564 293.744 368.865 294.884 376.691 294.701 C 375.345 288.803 370.035 269.443 375.019 261.62 C 374.247 260.493 370.372 255.258 367.702 252.568 C 365.031 249.878 358.111 244.844 355.38 242.929"></path>
		<path fill="#C79C52" stroke="#806434" stroke-width="1.2222" stroke-linejoin="bevel" stroke-miterlimit="10" d="M 355.386 242.951 C 347.412 245.148 336.277 253.306 333.092 255.451 C 326.657 249.667 314.948 243.733 311.204 243.311 C 311.691 242.813 312.325 242.075 312.98 241.53 C 317.464 237.794 327.714 231.825 334.82 228.239 C 338.239 226.513 343.128 224.548 347.92 222.647 C 350.079 223.827 354.902 228.413 358.777 235.545 C 356.991 236.463 355.142 240.268 355.386 242.951"></path>
		<path fill="#C79C52" stroke="#806434" stroke-width="1.2222" stroke-linejoin="bevel" stroke-miterlimit="10" d="M 329.205 272.981 C 320.461 267.693 312.239 263.913 308.43 262.923 C 305.531 262.169 303.002 262.087 300.995 262.766 C 303.948 260.926 302.619 259.828 305.084 254.779 C 307.192 250.459 308.068 246.729 311.204 243.309 C 314.942 243.742 326.659 249.632 333.083 255.47 C 330.063 258.081 328.875 269.307 329.205 272.981"></path>
		<path fill="#FFC163" stroke="#B38645" stroke-width="1.2222" stroke-linejoin="bevel" stroke-miterlimit="10" d="M 297.23 265.211 C 299.851 262.324 303.539 261.626 308.421 262.925 C 313.318 264.229 325.802 270.092 337.064 278.167 C 348.32 286.238 355.743 290.239 360.931 292.083 C 366.084 293.915 369.527 295.108 379.588 294.639 C 389.66 294.17 391.422 294.542 396.002 293.664 C 400.598 292.783 403.956 294.612 406.908 295.394 C 409.887 296.182 415.158 299.164 420.457 301.242 C 425.776 303.329 434.938 308.932 439.642 304.147 C 444.352 299.356 443.12 294.782 443.966 288.178 C 444.812 281.579 445.695 275.14 451.817 278.392 C 457.961 281.654 456.263 286.307 455.935 286.82 C 455.606 287.334 453.809 285.365 452.427 285.328 C 451.056 285.29 450.742 293.135 450.075 295.416 C 449.406 297.705 447.968 308.383 443.858 312.335 C 439.76 316.277 437.15 315.947 431.817 313.988 C 426.483 312.03 420.386 310.262 414.837 306.532 C 409.275 302.793 404.265 303.464 401.796 303.003 C 399.324 302.541 392.425 302.636 389.902 302.914 C 387.387 303.191 383.916 303.653 381.805 303.331 C 379.704 303.011 372.102 302.633 367.899 300.979 C 363.72 299.334 359.856 298.56 354.337 295.124 C 348.796 291.673 343.467 289.083 338.204 285.696 C 332.959 282.322 329.755 278.164 324.985 275.746 C 320.221 273.331 316.839 271.789 314.092 271.062 C 311.349 270.337 309.865 269.339 307.634 269.895 C 305.421 270.447 303.831 271.463 300.812 270.264 C 297.791 269.064 296.257 266.282 297.23 265.211"></path>
		
			<path fill="#7BD968" stroke="#598C4E" stroke-width="1.2222" stroke-linecap="round" stroke-linejoin="bevel" stroke-miterlimit="10" d="M 283.11 293.236 C 283.634 293.736 285.854 295.741 289.135 295.905 C 292.401 296.068 295.982 295.902 296.688 294.624"></path>
	</g>
</g>
<g>
	<g>
		<path fill="#FFE563" stroke="#E8D46D" stroke-width="0.7789" stroke-linejoin="bevel" stroke-miterlimit="10" d="M 393.293 208.597 C 392.893 209.779 392.806 215.458 390.062 217.796 C 387.324 220.129 385.077 220.083 380.707 219.58 C 376.338 219.077 371.819 219.33 367.99 218.531 C 364.155 217.731 361.396 219.688 359.947 220.193 C 358.504 220.696 354.807 223.019 353.536 224.034 C 352.267 225.048 350.557 226.438 349.473 226.909 C 348.399 227.377 344.636 229.43 342.402 229.5 C 340.183 229.569 338.18 230.101 335.094 229.125 C 331.998 228.146 329.095 227.478 326.118 226.057 C 323.15 224.64 321.389 222.182 318.615 220.972 C 315.843 219.764 313.752 218.859 312.05 218.491 C 310.349 218.123 309.427 217.491 307.988 217.924 C 309.523 219.874 316.593 226.088 320.358 227.459 C 324.136 228.834 327.111 230.053 331.702 230.698 C 336.312 231.346 345.3 230.778 353.143 228.285 C 361.001 225.788 367.999 224.917 373.958 223.835 C 379.917 222.752 387.325 222.607 390.263 221.474 C 393.206 220.34 394.046 218.59 394.433 217.073 C 394.82 215.552 394.848 212.872 393.293 208.597"></path>
		<path fill="#7BD968" stroke="#598C4E" stroke-width="0.7789" stroke-linejoin="bevel" stroke-miterlimit="10" d="M 292.021 230.815 C 292.383 231.879 293.302 235.111 296.121 236.989 C 300.783 240.096 305.189 239.09 306.48 239.075 C 307.786 239.06 314.026 239.207 316.318 233.723 C 318.606 228.249 321.669 225.865 323.361 224.306 C 321.816 223.084 320.426 221.765 318.617 220.975 C 315.842 219.764 313.752 218.858 312.053 218.495 C 310.358 218.134 309.406 217.446 308.009 217.968 C 307.898 218.009 307.803 218.061 307.694 218.09 C 306.89 220.257 304.468 222.423 302.155 222.671 C 299.849 222.918 296.265 223.046 295.251 222.993 C 294.494 222.953 294.048 223.507 293.843 223.643 C 292.217 224.725 291.08 228.051 292.021 230.815"></path>
		<path fill="#7BD968" stroke="#598C4E" stroke-width="0.7789" stroke-linejoin="bevel" stroke-miterlimit="10" d="M 347.082 228.049 C 345.564 228.738 343.709 229.458 342.406 229.499 C 340.194 229.57 338.184 230.105 335.103 229.122 C 334.334 228.877 333.585 228.66 332.85 228.432 C 331.41 230.632 330.112 235.313 330.146 237.072 C 330.18 238.829 330.501 241.855 333.583 244.673 C 336.66 247.487 336.803 248.58 338.021 249.853 C 339.237 251.124 339.877 252.275 341.889 252.097 C 343.9 251.919 344.345 250.419 344.933 248.64 C 345.524 246.852 347.226 244.599 348.18 241.571 C 348.954 239.113 349.334 237.008 349.21 235.116 C 349.086 233.23 347.045 228.157 347.154 228.202 C 347.089 228.176 347.101 228.056 347.082 228.049"></path>
		<path fill="#7BD968" stroke="#598C4E" stroke-width="0.7789" stroke-linejoin="bevel" stroke-miterlimit="10" d="M 393.386 208.15 C 393.63 206.595 393.516 203.336 394.516 203.375 C 395.648 203.419 397.116 204.46 397.378 204.218 C 399.884 205.205 403.011 207.064 403.786 209.031 C 404.566 211.011 403.854 210.903 403.318 211.431 C 402.776 211.966 401.127 211.553 399.77 210.929 C 398.423 210.309 394.857 209.1 393.386 208.15"></path>
		<path fill="#7BD968" stroke="#598C4E" stroke-width="0.7789" stroke-linejoin="bevel" stroke-miterlimit="10" d="M 387.873 219.22 C 385.949 220.096 383.878 219.934 380.703 219.577 C 378.031 219.276 375.296 219.264 372.706 219.073 C 373.909 223.131 376.297 230.02 384.357 235.784 C 388.617 238.83 390.493 239.252 392.838 240.503 C 395.19 241.759 399.148 246.27 402.742 247.519 C 404.532 248.141 405.108 248.031 405.536 246.76 C 405.966 245.482 406.069 245.168 405.568 243.688 C 405.072 242.22 403.306 237.067 401.257 234.137 C 399.202 231.196 395.982 227.101 394.312 225.323 C 392.643 223.545 387.935 219.344 387.975 219.419 C 387.95 219.372 387.882 219.237 387.873 219.22"></path>
		<path fill="#94AEFF" stroke="#4464C7" stroke-width="0.7789" stroke-linejoin="bevel" stroke-miterlimit="10" d="M 293.845 223.646 C 295.362 223.972 296.791 226.008 296.791 225.997 C 297.885 225.749 298.58 225.946 299.087 226.126 C 298.987 224.835 299.98 223.355 301.98 223.372 C 303.995 223.391 305.788 223.271 307.712 226.345 C 310.31 226.201 312.375 224.725 313.393 224.752 C 314.413 224.779 315.371 225.232 315.553 225.495 C 315.742 225.767 316.584 226.78 316.699 227.122 C 316.82 227.481 316.829 228.107 316.381 228.259 C 315.933 228.411 315.238 228.099 314.969 227.765 C 314.693 227.423 314.554 226.834 314.141 226.703 C 313.747 226.578 313.25 226.684 312.939 226.838 C 312.634 226.988 308.758 228.09 308.293 228.23 C 308.53 229.443 307.935 231.5 305.21 231.55 C 302.487 231.599 301.687 230.717 301.115 229.865 C 300.543 229.013 300.046 228.311 300.044 228.316 C 298.768 228.342 298.995 228.307 298.132 228.256 C 298.152 229.679 297.709 231.704 294.861 231.544 C 292.01 231.384 290.045 229.972 289.197 226.941 C 287.674 226.636 288.121 226.477 288.121 226.476 C 287.805 224.915 287.805 224.907 287.805 224.909 C 287.805 224.912 289.785 225.2 289.789 225.196 C 289.395 223.094 292.855 223.432 293.845 223.646"></path>
		<path fill="#FFFFFF" stroke="#4464C7" stroke-width="0.7789" stroke-linejoin="bevel" stroke-miterlimit="10" d="M 291.394 224.995 C 292.81 224.502 295.334 225.717 295.933 226.517 C 296.524 227.304 297.124 229.636 296.011 230.169 C 294.919 230.692 292.636 230.368 291.825 229.374 C 291.011 228.378 289.786 225.556 291.394 224.995"></path>
		<path fill="#E0B577" stroke="#A87C3B" stroke-width="0.7789" stroke-linejoin="bevel" stroke-miterlimit="10" d="M 292.472 227.324 C 292.7 226.877 294.245 226.984 294.866 227.504 C 295.493 228.028 295.442 228.63 295.079 228.795 C 294.726 228.956 293.72 229.595 293.118 228.995 C 292.511 228.39 292.18 227.894 292.472 227.324"></path>
		<path fill="#FFFFFF" stroke="#4464C7" stroke-width="0.7789" stroke-linejoin="bevel" stroke-miterlimit="10" d="M 302.158 229.418 C 300.854 227.916 300.404 226.578 300.847 225.897 C 301.289 225.218 303.085 224.718 304.848 225.868 C 306.599 227.01 307.298 227.949 307.163 228.553 C 307.027 229.161 306.374 230.323 305.338 230.35 C 304.307 230.377 302.864 230.232 302.158 229.418"></path>
		<path fill="#E0B577" stroke="#A87C3B" stroke-width="0.7789" stroke-linejoin="bevel" stroke-miterlimit="10" d="M 302.579 227.381 C 302.928 227.107 304.761 227.536 304.999 227.783 C 305.231 228.025 305.298 228.679 305.037 228.686 C 304.79 228.693 303.462 229.24 302.849 228.64 C 302.238 228.042 302.055 227.793 302.579 227.381"></path>
		<path fill="#C79C52" stroke="#806434" stroke-width="0.7789" stroke-linejoin="bevel" stroke-miterlimit="10" d="M 351.112 174.868 C 346.183 173.33 339.56 172.46 336.122 172.487 C 333.946 172.505 331.433 173.535 329.198 175.334 C 331.18 176.65 336.198 180.726 339.522 185.682 C 341.169 182.312 348.26 180.67 351.738 181.876 C 352.084 180.186 351.843 176.822 351.112 174.868"></path>
		<path fill="#C79C52" stroke="#806434" stroke-width="0.7789" stroke-linejoin="bevel" stroke-miterlimit="10" d="M 362.942 190.772 C 360.214 187.196 356.082 184.498 351.698 181.81 C 352.125 180.249 351.833 176.796 351.097 174.854 C 352.141 175.134 353.147 175.527 353.918 175.836 C 358.226 177.561 368.013 182.129 372.311 185.044 C 375.9 187.48 379.618 190.684 381.86 192.6 C 376.391 190.946 369.132 189.528 366.675 189.674 C 364.24 189.818 362.898 190.734 362.942 190.772"></path>
		<path fill="#C79C52" stroke="#806434" stroke-width="0.7789" stroke-linejoin="bevel" stroke-miterlimit="10" d="M 381.857 192.599 C 376.383 190.944 369.133 189.527 366.67 189.674 C 364.234 189.82 362.91 190.726 362.918 190.787 C 362.428 191.653 362.243 199.91 362.154 199.947 C 363.361 202.791 365.005 203.389 366.76 205.288 C 368.519 207.191 370.9 210.577 372.868 214.225 C 376.691 214.563 382.781 215.843 385.695 213.41 C 389.026 210.628 387.657 208.264 388.043 204.827 C 388.378 201.842 388.787 198.976 392.064 199.378 C 392.067 199.385 392.073 199.383 392.075 199.389 C 388.999 197.862 384.762 194.917 382.941 193.483 C 382.642 193.248 382.241 192.922 381.857 192.599"></path>
		<path fill="#C79C52" stroke="#806434" stroke-width="0.7789" stroke-linejoin="bevel" stroke-miterlimit="10" d="M 348.187 200.865 C 345.26 207.615 344.989 219.642 346.496 222.869 C 346.875 222.625 347.416 222.314 347.917 221.976 C 353.02 218.527 354.113 218.085 356.573 216.091 C 359.04 214.091 361.019 214.243 362.719 213.91 C 364.433 213.573 367.737 213.95 371.372 214.116 C 371.819 214.137 372.319 214.161 372.868 214.22 C 370.915 210.587 368.508 207.184 366.77 205.291 C 365.032 203.398 363.3 202.767 362.213 199.967 C 359.832 198.358 353.428 196.164 348.187 200.865"></path>
		<path fill="#C79C52" stroke="#806434" stroke-width="0.7789" stroke-linejoin="bevel" stroke-miterlimit="10" d="M 351.729 181.856 C 348.258 180.669 341.16 182.316 339.516 185.663 C 338.946 186.824 338.718 189.798 339.099 192.076 C 340.686 192.95 343.969 195.188 345.148 196.412 C 346.328 197.638 347.797 200.312 348.209 200.892 C 353.388 196.125 359.862 198.38 362.199 199.96 C 362.197 199.876 362.453 191.684 362.919 190.764 C 360.259 187.237 356.031 184.435 351.729 181.856"></path>
		<path fill="#C79C52" stroke="#806434" stroke-width="0.7789" stroke-linejoin="bevel" stroke-miterlimit="10" d="M 338.993 191.961 C 336.054 195.471 328.409 203.081 325.993 205.229 C 323.57 207.383 321.408 216.167 321.312 218.477 C 322.84 219.409 324.28 220.222 325.657 221.101 C 331.634 224.917 335.569 225.646 338.312 225.574 C 340.763 225.51 342.284 225.396 346.496 222.883 C 344.978 219.615 345.284 207.654 348.173 200.845 C 347.813 200.335 346.353 197.662 345.143 196.404 C 343.931 195.145 340.809 193.075 338.993 191.961"></path>
		<path fill="#C79C52" stroke="#806434" stroke-width="0.7789" stroke-linejoin="bevel" stroke-miterlimit="10" d="M 339.022 191.997 C 335.935 195.322 328.579 203.292 325.901 205.113 C 322.624 201.68 313.6 196.396 310.797 195.769 C 311.249 195.415 311.414 194.607 311.881 194.098 C 315.074 190.613 320.524 184.298 323.44 180.64 C 324.843 178.88 327.206 177.036 329.159 175.305 C 331.193 176.637 336.197 180.77 339.5 185.634 C 338.859 186.65 338.858 190.007 339.022 191.997"></path>
		<path fill="#C79C52" stroke="#806434" stroke-width="0.7789" stroke-linejoin="bevel" stroke-miterlimit="10" d="M 321.347 218.527 C 316.423 215.835 311.153 213.225 308.628 212.574 C 306.706 212.079 305.049 212.064 303.709 212.656 C 305.682 211.087 304.773 210.32 306.581 206.037 C 308.128 202.371 308.819 199.067 310.798 195.79 C 313.622 196.376 322.573 201.66 325.933 205.131 C 323.718 207.595 321.287 215.997 321.347 218.527"></path>
		<path fill="#FFC163" stroke="#B38645" stroke-width="0.7789" stroke-linejoin="bevel" stroke-miterlimit="10" d="M 301.318 214.659 C 302.958 212.36 305.336 211.663 308.63 212.581 C 311.934 213.502 319.707 217.344 325.657 221.108 C 331.605 224.87 335.599 225.672 338.302 225.572 C 340.987 225.473 342.724 225.4 347.893 221.967 C 353.067 218.53 354.087 218.078 356.564 216.084 C 359.05 214.083 361.02 214.254 362.709 213.899 C 364.414 213.541 367.77 213.997 371.356 214.096 C 374.959 214.195 382.353 216.158 385.701 213.406 C 389.054 210.65 387.656 208.249 388.049 204.827 C 388.441 201.409 388.9 198.1 393.745 199.811 C 398.607 201.527 397.658 203.984 397.386 204.213 C 397.115 204.443 395.659 203.429 394.521 203.371 C 393.391 203.313 393.682 207.401 393.294 208.59 C 392.905 209.783 392.808 215.454 390.066 217.794 C 387.329 220.13 385.081 220.081 380.711 219.579 C 376.341 219.076 371.821 219.327 367.996 218.528 C 364.161 217.728 361.399 219.687 359.955 220.19 C 358.509 220.693 354.812 223.015 353.541 224.031 C 352.274 225.045 350.562 226.434 349.481 226.905 C 348.404 227.375 344.642 229.425 342.41 229.496 C 340.189 229.566 338.186 230.098 335.102 229.123 C 332.007 228.143 329.103 227.476 326.125 226.054 C 323.156 224.638 321.394 222.179 318.62 220.971 C 315.85 219.764 313.757 218.851 312.059 218.491 C 310.363 218.132 309.41 217.443 308.013 217.962 C 306.627 218.477 305.674 219.297 303.765 218.488 C 301.856 217.68 300.71 215.513 301.318 214.659"></path>
		
			<path fill="#7BD968" stroke="#598C4E" stroke-width="0.7789" stroke-linecap="round" stroke-linejoin="bevel" stroke-miterlimit="10" d="M 297.072 235.167 C 297.478 235.499 299.203 236.784 301.034 236.817 C 302.858 236.849 304.752 236.621 304.83 235.76"></path>
	</g>
</g>
<g>
	<g>
		<path fill="#FFE563" stroke="#E8D46D" stroke-width="0.4563" stroke-linejoin="bevel" stroke-miterlimit="10" d="M 350.292 163.181 C 349.99 163.846 350.03 166.959 348.666 168.377 C 347.304 169.792 346.152 169.925 343.75 169.813 C 341.346 169.702 339.116 170.083 336.864 169.598 C 334.606 169.112 333.712 170.492 333.137 170.89 C 332.564 171.287 331.475 173.128 331.235 174.001 C 330.995 174.875 330.645 176.088 330.269 176.512 C 329.895 176.932 328.71 178.858 327.458 178.923 C 326.216 178.988 325.299 179.523 322.984 178.41 C 320.659 177.291 318.515 176.35 316.011 174.533 C 313.513 172.722 311.194 169.591 309.137 168.027 C 307.08 166.465 305.678 165.415 304.73 165.043 C 303.784 164.673 303.047 163.961 302.67 164.633 C 303.826 166.722 310.38 174.18 313.287 175.918 C 316.203 177.661 318.508 179.085 321.642 179.949 C 324.788 180.815 329.778 180.076 332.74 177.586 C 335.708 175.09 338.641 174.023 341.214 172.879 C 343.785 171.735 347.586 171.235 349.094 170.434 C 350.604 169.631 350.985 168.664 351.152 167.811 C 351.318 166.958 351.234 165.517 350.292 163.181"></path>
		<path fill="#7BD968" stroke="#598C4E" stroke-width="0.4563" stroke-linejoin="bevel" stroke-miterlimit="10" d="M 297.897 180.457 C 298.298 181.54 299.402 184.817 301.427 186.583 C 304.776 189.504 307.593 188.532 308.335 188.443 C 309.086 188.353 313.563 188.704 313.287 182.865 C 313.011 177.036 313.17 173.94 313.507 172.327 C 311.903 170.709 310.487 169.054 309.137 168.03 C 307.066 166.459 305.685 165.415 304.726 165.047 C 303.77 164.68 303.079 163.93 302.641 164.664 C 302.607 164.722 302.589 164.797 302.536 164.834 C 303.038 167.523 302.588 170.253 301.478 170.728 C 300.372 171.202 298.553 171.697 298.004 171.747 C 297.594 171.784 297.487 172.43 297.414 172.605 C 296.834 173.99 296.856 177.644 297.897 180.457"></path>
		<path fill="#7BD968" stroke="#598C4E" stroke-width="0.4563" stroke-linejoin="bevel" stroke-miterlimit="10" d="M 329.453 177.566 C 328.913 178.194 328.188 178.897 327.46 178.93 C 326.224 178.987 325.299 179.52 322.989 178.416 C 322.411 178.14 321.871 177.872 321.264 177.576 C 321.614 179.936 322.512 184.661 323.003 186.316 C 323.494 187.97 324.437 190.82 326.559 192.919 C 328.675 195.013 328.741 195.778 329.469 196.632 C 330.195 197.484 330.528 198.244 331.632 197.821 C 332.735 197.399 332.975 196.208 333.205 194.775 C 333.436 193.336 334.13 191.359 334.081 188.853 C 334.041 186.819 333.676 185.064 333.097 183.537 C 332.519 182.014 329.644 177.791 329.493 177.651 C 329.582 177.734 329.43 177.54 329.453 177.566"></path>
		<path fill="#7BD968" stroke="#598C4E" stroke-width="0.4563" stroke-linejoin="bevel" stroke-miterlimit="10" d="M 350.35 162.931 C 350.502 162.073 350.565 160.266 351.222 160.283 C 351.968 160.302 352.862 160.864 353.047 160.725 C 354.629 161.246 356.541 162.195 356.95 163.224 C 357.361 164.261 356.916 164.217 356.56 164.512 C 356.201 164.811 355.175 164.631 354.336 164.329 C 353.504 164.029 351.272 163.445 350.35 162.931"></path>
		<path fill="#7BD968" stroke="#598C4E" stroke-width="0.4563" stroke-linejoin="bevel" stroke-miterlimit="10" d="M 347.566 169.274 C 346.598 169.861 345.485 169.882 343.749 169.813 C 342.287 169.756 340.871 169.865 339.471 169.835 C 341.072 172.44 343.878 176.847 348.098 179.245 C 350.327 180.512 351.182 180.482 352.354 180.904 C 353.529 181.326 355.664 183.291 357.422 183.506 C 358.299 183.612 358.598 183.502 358.746 182.792 C 358.896 182.079 358.932 181.905 358.616 181.193 C 358.303 180.486 357.13 177.964 355.887 176.582 C 354.64 175.195 352.647 173.211 351.611 172.338 C 350.573 171.465 347.655 169.387 347.624 169.363 C 347.642 169.377 347.564 169.273 347.566 169.274"></path>
		<path fill="#94AEFF" stroke="#4464C7" stroke-width="0.4563" stroke-linejoin="bevel" stroke-miterlimit="10" d="M 297.421 172.612 C 298.3 172.821 299.575 174.95 299.582 174.945 C 300.112 174.577 300.55 174.749 300.869 174.908 C 300.483 173.483 300.569 171.699 301.611 171.555 C 302.66 171.41 303.519 171.153 305.665 174.666 C 307.067 174.405 307.588 172.615 308.141 172.628 C 308.696 172.641 309.438 173.195 309.652 173.506 C 309.875 173.831 310.801 175.041 311.017 175.444 C 311.244 175.867 311.519 176.6 311.319 176.77 C 311.119 176.941 310.587 176.579 310.295 176.188 C 309.997 175.788 309.667 175.099 309.383 174.942 C 309.112 174.791 308.866 174.934 308.761 175.111 C 308.658 175.284 306.888 176.648 306.646 176.819 C 307.226 178.224 307.498 180.503 305.874 180.63 C 304.25 180.756 303.564 179.848 303.009 178.935 C 302.454 178.023 301.991 177.282 301.99 177.283 C 301.268 177.384 301.396 177.341 300.886 177.331 C 301.266 178.91 301.44 181.076 299.71 181.051 C 297.978 181.026 296.587 179.708 295.564 176.598 C 294.649 176.407 294.879 176.208 294.876 176.204 C 294.421 174.594 294.418 174.582 294.42 174.586 C 294.418 174.587 295.561 174.695 295.562 174.694 C 294.947 172.493 296.848 172.476 297.421 172.612"></path>
		<path fill="#FFFFFF" stroke="#4464C7" stroke-width="0.4563" stroke-linejoin="bevel" stroke-miterlimit="10" d="M 296.399 174.325 C 297.066 173.65 298.701 174.742 299.232 175.581 C 299.754 176.408 300.646 178.906 300.107 179.535 C 299.577 180.151 298.172 179.946 297.514 178.958 C 296.854 177.967 295.643 175.091 296.399 174.325"></path>
		<path fill="#E0B577" stroke="#A87C3B" stroke-width="0.4563" stroke-linejoin="bevel" stroke-miterlimit="10" d="M 297.481 176.734 C 297.519 176.238 298.401 176.224 298.868 176.744 C 299.339 177.267 299.445 177.921 299.274 178.124 C 299.108 178.321 298.659 179.067 298.189 178.469 C 297.718 177.869 297.434 177.368 297.481 176.734"></path>
		<path fill="#FFFFFF" stroke="#4464C7" stroke-width="0.4563" stroke-linejoin="bevel" stroke-miterlimit="10" d="M 303.497 178.397 C 302.339 176.798 301.721 175.328 301.771 174.529 C 301.821 173.731 302.602 173.013 303.939 174.247 C 305.267 175.474 305.996 176.538 306.117 177.23 C 306.239 177.926 306.218 179.247 305.613 179.307 C 305.01 179.366 304.124 179.263 303.497 178.397"></path>
		<path fill="#E0B577" stroke="#A87C3B" stroke-width="0.4563" stroke-linejoin="bevel" stroke-miterlimit="10" d="M 303.159 176.1 C 303.273 175.769 304.424 176.16 304.64 176.435 C 304.85 176.704 305.087 177.438 304.942 177.457 C 304.805 177.475 304.201 178.141 303.678 177.501 C 303.156 176.861 302.989 176.595 303.159 176.1"></path>
		<path fill="#C79C52" stroke="#806434" stroke-width="0.4563" stroke-linejoin="bevel" stroke-miterlimit="10" d="M 324.538 139.599 C 321.294 137.676 316.625 135.066 314.204 133.775 C 312.673 132.959 310.44 132.264 308.486 131.972 C 309.134 132.959 310.328 135.86 311.475 139.498 C 313.297 138.958 319.824 141.612 322.331 143.065 C 323.15 142.454 324.252 140.713 324.538 139.599"></path>
		<path fill="#C79C52" stroke="#806434" stroke-width="0.4563" stroke-linejoin="bevel" stroke-miterlimit="10" d="M 329.629 150.916 C 327.896 148.311 325.09 145.824 322.309 143.062 C 323.171 142.456 324.242 140.71 324.532 139.598 C 325.2 140.047 325.874 140.39 326.346 140.751 C 328.978 142.765 335.182 146.823 337.774 148.89 C 339.937 150.614 342.133 152.793 343.486 153.937 C 339.887 152.826 334.661 151.23 332.707 150.912 C 330.773 150.598 329.624 150.92 329.629 150.916"></path>
		<path fill="#C79C52" stroke="#806434" stroke-width="0.4563" stroke-linejoin="bevel" stroke-miterlimit="10" d="M 343.483 153.936 C 339.893 152.825 334.655 151.226 332.709 150.911 C 330.784 150.6 329.577 150.899 329.683 150.942 C 328.814 151.249 328.785 156.347 328.994 156.449 C 330.157 158.513 331.522 159.17 333.004 160.585 C 334.489 162.002 336.654 164.359 338.487 166.679 C 340.8 166.939 344.26 167.479 345.801 166.019 C 347.562 164.349 346.707 163.063 346.957 161.107 C 347.173 159.408 347.7 157.811 349.842 158.055 C 349.851 158.059 349.85 158.061 349.852 158.059 C 347.913 157.203 345.264 155.42 344.148 154.503 C 343.967 154.354 343.734 154.171 343.483 153.936"></path>
		<path fill="#C79C52" stroke="#806434" stroke-width="0.4563" stroke-linejoin="bevel" stroke-miterlimit="10" d="M 318.008 152.958 C 316.926 156.873 324.417 169.842 326.698 172.734 C 326.846 172.6 326.974 172.276 327.111 172.005 C 328.502 169.235 328.95 168.97 329.633 167.541 C 330.318 166.108 331.639 166.427 332.537 166.259 C 333.442 166.089 335.531 166.515 337.616 166.608 C 337.873 166.619 338.178 166.653 338.497 166.683 C 336.642 164.351 334.506 162.013 333.005 160.583 C 331.505 159.153 330.223 158.568 328.949 156.407 C 327.31 155.234 321.367 151.738 318.008 152.958"></path>
		<path fill="#C79C52" stroke="#806434" stroke-width="0.4563" stroke-linejoin="bevel" stroke-miterlimit="10" d="M 322.322 143.061 C 319.818 141.607 313.299 138.958 311.465 139.49 C 310.829 139.675 309.987 141.055 310.263 142.581 C 311.133 143.778 313.718 146.866 314.773 148.277 C 315.831 149.69 317.549 152.417 317.978 152.943 C 321.418 151.763 327.257 155.207 328.966 156.413 C 328.787 156.371 328.846 151.248 329.643 150.925 C 327.88 148.294 325.084 145.832 322.322 143.061"></path>
		<path fill="#C79C52" stroke="#806434" stroke-width="0.4563" stroke-linejoin="bevel" stroke-miterlimit="10" d="M 310.303 142.649 C 307.344 142.283 305.533 147.552 305.235 149.65 C 304.937 151.753 307.685 161.729 309.321 165.129 C 310.439 166.147 311.723 167.373 313.019 168.568 C 318.65 173.76 321.569 174.768 323.17 174.889 C 324.599 174.997 325.517 174.949 326.699 172.747 C 324.437 169.841 316.898 156.869 318.032 152.971 C 317.513 152.411 315.839 149.683 314.785 148.288 C 313.731 146.894 311.101 143.71 310.303 142.649"></path>
		<path fill="#C79C52" stroke="#806434" stroke-width="0.4563" stroke-linejoin="bevel" stroke-miterlimit="10" d="M 310.283 142.628 C 307.425 142.372 305.423 147.427 305.291 149.716 C 302.318 145.137 298.951 140.898 298.063 140.869 C 298.09 140.327 298.257 139.956 298.362 139.462 C 299.078 136.079 301.681 132.783 303.956 132.134 C 305.051 131.822 306.621 131.633 308.488 131.98 C 309.109 132.933 310.353 135.873 311.454 139.485 C 310.794 139.681 310.008 141.022 310.283 142.628"></path>
		<path fill="#C79C52" stroke="#806434" stroke-width="0.4563" stroke-linejoin="bevel" stroke-miterlimit="10" d="M 309.288 165.099 C 305.23 161.386 302.147 158.657 300.913 158.184 C 299.973 157.824 299.328 158.017 298.956 158.871 C 299.306 156.882 298.611 155.946 298.224 151.131 C 297.893 147.01 297.601 143.736 298.058 140.866 C 298.954 140.881 302.316 145.158 305.289 149.695 C 304.811 151.633 307.791 161.832 309.288 165.099"></path>
		<path fill="#FFC163" stroke="#B38645" stroke-width="0.4563" stroke-linejoin="bevel" stroke-miterlimit="10" d="M 298.569 161.524 C 298.545 158.565 299.371 157.609 300.91 158.179 C 302.453 158.75 307.357 163.3 313.012 168.55 C 318.665 173.798 321.556 174.729 323.166 174.89 C 324.764 175.049 325.709 174.846 327.106 172.02 C 328.505 169.19 328.941 168.982 329.629 167.54 C 330.319 166.092 331.626 166.425 332.535 166.258 C 333.452 166.089 335.506 166.5 337.619 166.61 C 339.741 166.72 344.062 167.694 345.81 166.019 C 347.559 164.343 346.718 163.064 346.966 161.107 C 347.213 159.152 347.853 157.335 350.936 158.301 C 354.029 159.27 353.239 160.582 353.05 160.723 C 352.86 160.864 351.992 160.302 351.225 160.28 C 350.462 160.259 350.543 162.512 350.28 163.178 C 350.016 163.845 350.024 166.955 348.666 168.375 C 347.312 169.791 346.152 169.923 343.751 169.812 C 341.349 169.701 339.117 170.081 336.867 169.596 C 334.609 169.109 333.713 170.49 333.139 170.888 C 332.566 171.285 331.476 173.123 331.237 173.999 C 330.998 174.872 330.647 176.087 330.271 176.51 C 329.897 176.931 328.711 178.853 327.46 178.92 C 326.216 178.986 325.301 179.52 322.987 178.407 C 320.662 177.29 318.518 176.349 316.011 174.53 C 313.513 172.717 311.197 169.588 309.136 168.024 C 307.078 166.462 305.683 165.406 304.728 165.041 C 303.774 164.677 303.083 163.926 302.642 164.658 C 302.206 165.383 302.06 166.46 300.876 165.676 C 299.69 164.89 298.578 162.621 298.569 161.524"></path>
		
			<path fill="#7BD968" stroke="#598C4E" stroke-width="0.4563" stroke-linecap="round" stroke-linejoin="bevel" stroke-miterlimit="10" d="M 301.722 184.713 C 302.027 185.039 303.321 186.288 304.484 186.28 C 305.639 186.273 306.8 186.012 306.666 185.122"></path>
	</g>
</g>
<g>
	<g>
		<path fill="#FFE563" stroke="#E8D46D" stroke-width="0.2788" stroke-linejoin="bevel" stroke-miterlimit="10" d="M 329.792 134.527 C 329.318 134.854 328.03 136.591 326.326 137.019 C 324.625 137.446 323.631 137.203 321.792 136.488 C 319.953 135.773 317.99 135.161 316.533 134.224 C 315.075 133.288 313.71 133.366 313.085 133.253 C 312.461 133.139 310.828 133.22 310.294 133.361 C 309.759 133.502 309.057 133.736 308.659 133.72 C 308.265 133.703 306.927 133.922 306.263 133.593 C 305.602 133.265 304.976 133.196 304.175 132.269 C 303.372 131.34 302.649 130.622 302.002 129.593 C 301.356 128.568 301.158 127.183 300.629 126.433 C 300.1 125.684 299.714 125.199 299.361 125.007 C 299.009 124.816 298.847 124.475 298.485 124.762 C 298.542 125.502 299.645 128.877 300.482 129.868 C 301.321 130.862 301.989 131.758 303.178 132.628 C 304.372 133.503 306.911 134.526 309.788 134.973 C 312.67 135.42 315.56 136.376 318.196 136.897 C 320.829 137.418 324.171 138.238 325.713 138.161 C 327.255 138.085 327.979 137.655 328.467 137.219 C 328.958 136.78 329.513 135.98 329.792 134.527"></path>
		<path fill="#7BD968" stroke="#598C4E" stroke-width="0.2788" stroke-linejoin="bevel" stroke-miterlimit="10" d="M 293.734 133.001 C 293.789 133.642 293.942 135.661 294.628 136.663 C 295.764 138.32 296.706 137.239 297.024 137.161 C 297.345 137.081 298.633 136.672 299.261 133.343 C 299.887 130.02 300.962 129.126 301.442 128.426 C 301.193 127.693 300.971 126.918 300.627 126.431 C 300.1 125.683 299.715 125.199 299.359 125.004 C 299.004 124.809 298.863 124.488 298.47 124.746 C 298.439 124.767 298.409 124.792 298.382 124.814 C 297.926 125.836 297.157 127.05 296.593 127.306 C 296.03 127.562 295.174 127.915 294.936 127.989 C 294.758 128.044 294.614 128.399 294.553 128.492 C 294.068 129.233 293.593 131.339 293.734 133.001"></path>
		<path fill="#7BD968" stroke="#598C4E" stroke-width="0.2788" stroke-linejoin="bevel" stroke-miterlimit="10" d="M 307.804 133.764 C 307.27 133.781 306.657 133.793 306.265 133.595 C 305.597 133.257 304.979 133.198 304.176 132.269 C 303.976 132.037 303.777 131.809 303.607 131.619 C 303.045 132.465 302.613 134.956 302.639 135.988 C 302.665 137.02 302.807 138.883 303.817 140.83 C 304.825 142.775 304.988 143.468 305.447 144.345 C 305.905 145.22 306.226 145.984 306.733 145.912 C 307.238 145.84 307.18 144.908 307.19 143.883 C 307.201 142.852 307.539 141.698 307.772 140.261 C 307.961 139.095 308.12 138.157 308.13 137.266 C 308.139 136.378 307.748 133.798 307.83 133.845 C 307.781 133.817 307.817 133.769 307.804 133.764"></path>
		<path fill="#7BD968" stroke="#598C4E" stroke-width="0.2788" stroke-linejoin="bevel" stroke-miterlimit="10" d="M 329.936 134.396 C 330.4 133.942 331.136 132.917 331.575 133.009 C 332.073 133.113 332.481 133.552 332.656 133.493 C 333.542 133.991 334.52 134.777 334.443 135.442 C 334.365 136.111 334.07 136.031 333.712 136.161 C 333.351 136.293 332.691 136.052 332.21 135.763 C 331.733 135.476 330.383 134.825 329.936 134.396"></path>
		<path fill="#7BD968" stroke="#598C4E" stroke-width="0.2788" stroke-linejoin="bevel" stroke-miterlimit="10" d="M 325.053 137.224 C 324.023 137.284 323.124 137.004 321.789 136.488 C 320.668 136.055 319.482 135.645 318.421 135.194 C 318.225 136.596 318.261 139.329 320.996 142.025 C 322.442 143.451 323.205 143.688 324.071 144.279 C 324.94 144.871 326.206 146.546 327.677 147.115 C 328.411 147.399 328.672 147.389 328.987 147.02 C 329.302 146.649 329.4 146.556 329.326 146.081 C 329.252 145.607 329.102 143.944 328.598 142.919 C 328.092 141.89 327.293 140.39 326.849 139.703 C 326.405 139.018 325.034 137.291 325.074 137.287 C 325.048 137.289 325.062 137.226 325.053 137.224"></path>
		<path fill="#94AEFF" stroke="#4464C7" stroke-width="0.2788" stroke-linejoin="bevel" stroke-miterlimit="10" d="M 294.552 128.487 C 294.883 128.519 295.072 129.545 295.075 129.549 C 295.347 129.303 295.496 129.365 295.602 129.427 C 295.665 128.693 296.02 127.795 296.491 127.697 C 296.965 127.598 297.375 127.44 297.587 129.086 C 298.199 128.928 298.797 128.143 299.035 128.175 C 299.275 128.208 299.46 128.468 299.483 128.614 C 299.507 128.766 299.629 129.335 299.634 129.527 C 299.639 129.729 299.6 130.073 299.486 130.147 C 299.372 130.22 299.226 130.032 299.184 129.84 C 299.14 129.642 299.148 129.323 299.06 129.238 C 298.977 129.157 298.855 129.237 298.77 129.302 C 298.686 129.366 297.712 130.022 297.602 130.144 C 297.577 130.83 297.363 132.075 296.739 132.261 C 296.116 132.447 295.959 131.975 295.865 131.492 C 295.77 131.009 295.693 130.639 295.692 130.636 C 295.398 130.756 295.449 130.716 295.254 130.761 C 295.178 131.615 295.017 132.919 294.371 133.14 C 293.723 133.361 293.283 132.687 293.233 130.937 C 292.892 130.957 293.002 130.796 293.004 130.798 C 293.016 129.903 293.023 129.91 293.021 129.908 C 293.02 129.907 293.478 129.826 293.476 129.826 C 293.525 128.644 294.335 128.466 294.552 128.487"></path>
		<path fill="#FFFFFF" stroke="#4464C7" stroke-width="0.2788" stroke-linejoin="bevel" stroke-miterlimit="10" d="M 293.871 129.518 C 294.245 129.072 294.753 129.517 294.84 129.926 C 294.926 130.33 294.949 131.683 294.677 132.136 C 294.41 132.58 293.894 132.64 293.738 132.109 C 293.583 131.579 293.446 130.025 293.871 129.518"></path>
		<path fill="#E0B577" stroke="#A87C3B" stroke-width="0.2788" stroke-linejoin="bevel" stroke-miterlimit="10" d="M 293.985 130.776 C 294.063 130.479 294.419 130.375 294.535 130.624 C 294.652 130.874 294.611 131.246 294.52 131.385 C 294.43 131.521 294.17 132.026 294.056 131.725 C 293.941 131.419 293.887 131.154 293.985 130.776"></path>
		<path fill="#FFFFFF" stroke="#4464C7" stroke-width="0.2788" stroke-linejoin="bevel" stroke-miterlimit="10" d="M 296.124 131.144 C 295.894 130.326 295.876 129.585 296.027 129.167 C 296.179 128.749 296.635 128.358 296.959 128.924 C 297.28 129.486 297.387 130.012 297.32 130.366 C 297.253 130.722 297.05 131.447 296.812 131.518 C 296.576 131.588 296.248 131.588 296.124 131.144"></path>
		<path fill="#E0B577" stroke="#A87C3B" stroke-width="0.2788" stroke-linejoin="bevel" stroke-miterlimit="10" d="M 296.331 129.908 C 296.429 129.726 296.826 129.874 296.866 130.008 C 296.904 130.139 296.883 130.519 296.823 130.535 C 296.766 130.551 296.432 130.949 296.322 130.632 C 296.213 130.315 296.185 130.182 296.331 129.908"></path>
		<path fill="#C79C52" stroke="#806434" stroke-width="0.2788" stroke-linejoin="bevel" stroke-miterlimit="10" d="M 321.284 119.279 C 319.783 118.13 317.415 116.682 316.096 115.959 C 315.262 115.502 313.942 115.07 312.646 114.791 C 312.897 115.29 313.167 116.722 312.824 118.325 C 314.302 118.316 317.823 119.958 318.938 120.853 C 319.681 120.633 320.857 119.84 321.284 119.279"></path>
		<path fill="#C79C52" stroke="#806434" stroke-width="0.2788" stroke-linejoin="bevel" stroke-miterlimit="10" d="M 320.864 125.27 C 320.771 123.831 319.855 122.362 318.936 120.848 C 319.688 120.637 320.856 119.84 321.285 119.277 C 321.599 119.524 321.911 119.768 322.113 119.969 C 323.246 121.095 325.88 123.719 326.84 125.101 C 327.641 126.253 328.304 127.667 328.769 128.475 C 326.828 127.436 324.044 126.02 322.892 125.641 C 321.75 125.264 320.859 125.27 320.864 125.27"></path>
		<path fill="#C79C52" stroke="#806434" stroke-width="0.2788" stroke-linejoin="bevel" stroke-miterlimit="10" d="M 328.764 128.473 C 326.827 127.437 324.041 126.02 322.889 125.64 C 321.748 125.264 320.852 125.265 320.868 125.273 C 320.275 125.389 317.859 127.508 317.887 127.525 C 317.676 128.564 318.278 129.093 318.601 129.978 C 318.926 130.865 319.224 132.298 319.368 133.713 C 320.965 134.465 323.409 135.642 325.254 135.228 C 327.366 134.754 327.292 133.889 328.304 132.878 C 329.184 132.001 330.122 131.15 331.465 131.551 C 331.468 131.551 331.467 131.553 331.47 131.553 C 330.484 130.823 329.39 129.496 328.993 128.862 C 328.931 128.762 328.844 128.627 328.764 128.473"></path>
		<path fill="#C79C52" stroke="#806434" stroke-width="0.2788" stroke-linejoin="bevel" stroke-miterlimit="10" d="M 311.935 124.1 C 309.331 125.009 307.765 129.726 308.058 131.483 C 308.18 131.43 308.374 131.407 308.579 131.384 C 310.678 131.147 311.168 131.269 312.379 131.135 C 313.593 131 314.403 131.509 315.144 131.749 C 315.891 131.991 317.21 132.782 318.741 133.433 C 318.929 133.513 319.143 133.61 319.369 133.715 C 319.222 132.295 318.927 130.867 318.603 129.978 C 318.279 129.091 317.684 128.574 317.884 127.52 C 317.333 126.668 314.898 124.402 311.935 124.1"></path>
		<path fill="#C79C52" stroke="#806434" stroke-width="0.2788" stroke-linejoin="bevel" stroke-miterlimit="10" d="M 318.939 120.851 C 317.824 119.955 314.306 118.314 312.825 118.322 C 312.311 118.325 311.32 118.772 310.922 119.333 C 311.153 119.9 311.72 121.363 311.843 122.013 C 311.966 122.665 311.904 123.831 311.925 124.092 C 314.917 124.419 317.318 126.656 317.891 127.525 C 317.858 127.508 320.285 125.392 320.866 125.271 C 320.772 123.831 319.849 122.36 318.939 120.851"></path>
		<path fill="#C79C52" stroke="#806434" stroke-width="0.2788" stroke-linejoin="bevel" stroke-miterlimit="10" d="M 310.933 119.347 C 308.957 118.877 305.625 119.963 304.66 120.453 C 303.692 120.946 301.749 124.12 301.579 125.48 C 301.799 125.942 302.065 126.496 302.323 127.078 C 303.439 129.606 304.518 130.632 305.316 131.075 C 306.029 131.471 306.452 131.648 308.046 131.475 C 307.786 129.746 309.31 124.993 311.944 124.111 C 311.885 123.818 311.967 122.668 311.844 122.017 C 311.721 121.366 311.143 119.886 310.933 119.347"></path>
		<path fill="#C79C52" stroke="#806434" stroke-width="0.2788" stroke-linejoin="bevel" stroke-miterlimit="10" d="M 310.927 119.34 C 308.981 118.905 305.593 119.925 304.676 120.472 C 304.474 118.68 303.385 116.659 302.756 116.473 C 302.942 116.32 303.158 116.204 303.372 116.069 C 304.838 115.144 307.614 114.402 309.401 114.398 C 310.261 114.396 311.44 114.515 312.647 114.791 C 312.892 115.283 313.175 116.726 312.82 118.319 C 312.303 118.319 311.322 118.772 310.927 119.34"></path>
		<path fill="#C79C52" stroke="#806434" stroke-width="0.2788" stroke-linejoin="bevel" stroke-miterlimit="10" d="M 301.564 125.464 C 300.688 123.755 299.855 122.588 299.336 122.312 C 298.94 122.102 298.56 122.138 298.139 122.41 C 298.857 121.744 298.712 121.322 299.862 119.725 C 300.846 118.358 301.635 117.32 302.756 116.469 C 303.389 116.662 304.47 118.675 304.679 120.472 C 303.649 120.897 301.788 124.163 301.564 125.464"></path>
		<path fill="#FFC163" stroke="#B38645" stroke-width="0.2788" stroke-linejoin="bevel" stroke-miterlimit="10" d="M 297.29 123.396 C 298.002 122.261 298.671 121.968 299.338 122.311 C 300.007 122.655 301.222 124.555 302.327 127.078 C 303.431 129.599 304.519 130.626 305.318 131.074 C 306.112 131.519 306.539 131.674 308.593 131.394 C 310.649 131.115 311.183 131.28 312.382 131.134 C 313.584 130.988 314.41 131.511 315.145 131.748 C 315.885 131.988 317.216 132.778 318.74 133.433 C 320.273 134.091 323.146 135.705 325.261 135.229 C 327.376 134.753 327.294 133.89 328.31 132.879 C 329.324 131.868 330.396 130.898 332.108 131.821 C 333.825 132.746 332.846 133.431 332.664 133.49 C 332.477 133.55 332.088 133.112 331.583 133.006 C 331.079 132.901 330.251 134.194 329.794 134.524 C 329.336 134.855 328.034 136.588 326.332 137.018 C 324.634 137.446 323.636 137.201 321.8 136.487 C 319.96 135.772 317.996 135.158 316.54 134.223 C 315.082 133.287 313.715 133.364 313.092 133.25 C 312.467 133.135 310.833 133.215 310.299 133.357 C 309.765 133.499 309.062 133.731 308.664 133.716 C 308.269 133.7 306.932 133.916 306.267 133.587 C 305.607 133.259 304.979 133.189 304.18 132.264 C 303.377 131.334 302.654 130.617 302.006 129.586 C 301.36 128.559 301.163 127.176 300.634 126.426 C 300.105 125.677 299.722 125.193 299.365 124.998 C 299.009 124.803 298.869 124.481 298.476 124.741 C 298.086 124.998 297.769 125.427 297.409 125.098 C 297.047 124.766 297.026 123.818 297.29 123.396"></path>
		
			<path fill="#7BD968" stroke="#598C4E" stroke-width="0.2788" stroke-linecap="round" stroke-linejoin="bevel" stroke-miterlimit="10" d="M 294.83 135.297 C 294.919 135.474 295.322 136.176 295.737 136.028 C 296.149 135.881 296.572 135.58 296.587 135"></path>
	</g>
</g>
<g>
	<g>
		<path fill="#FFE563" stroke="#E8D46D" stroke-width="0.1233" stroke-linejoin="bevel" stroke-miterlimit="10" d="M 322.085 115.909 C 321.857 116.035 321.095 116.69 320.303 116.815 C 319.515 116.94 319.127 116.824 318.434 116.524 C 317.743 116.224 316.964 115.965 316.437 115.602 C 315.912 115.239 315.266 115.234 314.992 115.176 C 314.718 115.119 313.927 115.088 313.643 115.108 C 313.358 115.128 312.973 115.164 312.776 115.134 C 312.58 115.105 311.86 115.076 311.566 114.915 C 311.273 114.754 310.959 114.676 310.677 114.308 C 310.393 113.939 310.106 113.635 309.893 113.232 C 309.679 112.83 309.727 112.347 309.515 112.025 C 309.303 111.704 309.14 111.488 308.963 111.372 C 308.788 111.257 308.74 111.126 308.504 111.162 C 308.499 111.456 308.707 112.707 309.025 113.124 C 309.343 113.541 309.579 113.904 310.081 114.305 C 310.586 114.707 311.776 115.289 313.132 115.602 C 314.493 115.916 315.675 116.327 316.779 116.584 C 317.881 116.842 319.195 117.218 319.865 117.231 C 320.538 117.244 320.912 117.093 321.18 116.937 C 321.448 116.78 321.8 116.482 322.085 115.909"></path>
		<path fill="#7BD968" stroke="#598C4E" stroke-width="0.1233" stroke-linejoin="bevel" stroke-miterlimit="10" d="M 304.842 112.866 C 304.768 113.045 304.514 113.599 304.679 113.958 C 304.95 114.55 305.669 114.477 305.844 114.504 C 306.021 114.532 306.849 114.727 307.793 113.938 C 308.736 113.15 309.364 112.936 309.744 112.795 C 309.684 112.514 309.655 112.235 309.517 112.025 C 309.304 111.704 309.141 111.488 308.965 111.372 C 308.789 111.257 308.742 111.127 308.504 111.161 C 308.486 111.164 308.468 111.17 308.45 111.171 C 308.111 111.468 307.546 111.736 307.204 111.722 C 306.864 111.709 306.352 111.669 306.214 111.649 C 306.11 111.634 305.985 111.713 305.94 111.732 C 305.585 111.879 305.036 112.399 304.842 112.866"></path>
		<path fill="#7BD968" stroke="#598C4E" stroke-width="0.1233" stroke-linejoin="bevel" stroke-miterlimit="10" d="M 312.336 115.091 C 312.061 115.058 311.742 115.011 311.569 114.916 C 311.275 114.754 310.962 114.678 310.679 114.31 C 310.609 114.218 310.541 114.13 310.471 114.046 C 310.063 114.268 309.367 114.902 309.166 115.172 C 308.965 115.442 308.645 115.927 308.696 116.515 C 308.747 117.101 308.631 117.267 308.631 117.517 C 308.63 117.767 308.569 117.965 308.857 118.035 C 309.145 118.105 309.393 117.914 309.69 117.697 C 309.988 117.481 310.489 117.272 310.972 116.937 C 311.364 116.665 311.654 116.42 311.851 116.17 C 312.047 115.919 312.327 115.11 312.329 115.113 C 312.327 115.111 312.337 115.091 312.336 115.091"></path>
		<path fill="#7BD968" stroke="#598C4E" stroke-width="0.1233" stroke-linejoin="bevel" stroke-miterlimit="10" d="M 322.162 115.862 C 322.409 115.69 322.824 115.29 322.993 115.333 C 323.186 115.383 323.308 115.567 323.387 115.546 C 323.699 115.762 324.014 116.105 323.901 116.372 C 323.788 116.641 323.673 116.6 323.51 116.645 C 323.344 116.689 323.101 116.576 322.938 116.449 C 322.775 116.322 322.297 116.037 322.162 115.862"></path>
		<path fill="#7BD968" stroke="#598C4E" stroke-width="0.1233" stroke-linejoin="bevel" stroke-miterlimit="10" d="M 319.732 116.867 C 319.281 116.866 318.938 116.741 318.435 116.524 C 318.014 116.342 317.554 116.173 317.145 115.985 C 316.864 116.501 316.411 117.422 317.055 118.452 C 317.394 118.995 317.678 119.125 317.933 119.371 C 318.189 119.616 318.341 120.263 318.855 120.556 C 319.111 120.702 319.233 120.718 319.471 120.608 C 319.71 120.498 319.769 120.468 319.857 120.296 C 319.944 120.124 320.255 119.508 320.245 119.106 C 320.235 118.702 320.173 118.115 320.101 117.845 C 320.028 117.574 319.723 116.889 319.726 116.892 C 319.724 116.89 319.732 116.867 319.732 116.867"></path>
		<path fill="#94AEFF" stroke="#4464C7" stroke-width="0.1233" stroke-linejoin="bevel" stroke-miterlimit="10" d="M 305.94 111.732 C 306.118 111.802 306.083 112.142 306.083 112.142 C 306.265 112.118 306.338 112.163 306.388 112.2 C 306.524 111.995 306.832 111.78 307.102 111.827 C 307.373 111.875 307.627 111.898 307.529 112.441 C 307.89 112.496 308.322 112.341 308.449 112.385 C 308.575 112.43 308.647 112.541 308.641 112.591 C 308.634 112.642 308.627 112.838 308.603 112.898 C 308.578 112.96 308.508 113.06 308.434 113.064 C 308.36 113.069 308.306 112.99 308.309 112.926 C 308.313 112.86 308.361 112.762 308.324 112.723 C 308.289 112.685 308.21 112.689 308.154 112.697 C 308.1 112.706 307.468 112.747 307.388 112.76 C 307.279 112.962 306.959 113.273 306.586 113.212 C 306.212 113.151 306.206 112.994 306.228 112.842 C 306.251 112.69 306.264 112.571 306.264 112.57 C 306.084 112.551 306.119 112.549 306.006 112.526 C 305.841 112.758 305.54 113.08 305.158 113.019 C 304.775 112.959 304.661 112.709 304.892 112.212 C 304.707 112.154 304.79 112.13 304.79 112.131 C 304.925 111.878 304.926 111.879 304.925 111.879 C 304.925 111.878 305.18 111.937 305.18 111.937 C 305.367 111.601 305.825 111.688 305.94 111.732"></path>
		<path fill="#FFFFFF" stroke="#4464C7" stroke-width="0.1233" stroke-linejoin="bevel" stroke-miterlimit="10" d="M 305.435 111.918 C 305.695 111.853 305.912 112.076 305.903 112.212 C 305.894 112.346 305.703 112.732 305.484 112.804 C 305.269 112.875 304.983 112.798 304.985 112.626 C 304.986 112.455 305.139 111.992 305.435 111.918"></path>
		<path fill="#E0B577" stroke="#A87C3B" stroke-width="0.1233" stroke-linejoin="bevel" stroke-miterlimit="10" d="M 305.318 112.3 C 305.402 112.231 305.61 112.265 305.636 112.356 C 305.663 112.449 305.585 112.546 305.514 112.568 C 305.446 112.59 305.228 112.682 305.213 112.578 C 305.198 112.473 305.209 112.39 305.318 112.3"></path>
		<path fill="#FFFFFF" stroke="#4464C7" stroke-width="0.1233" stroke-linejoin="bevel" stroke-miterlimit="10" d="M 306.424 112.79 C 306.423 112.519 306.517 112.298 306.656 112.199 C 306.795 112.1 307.098 112.06 307.202 112.286 C 307.305 112.511 307.288 112.684 307.2 112.777 C 307.111 112.87 306.887 113.039 306.745 113.017 C 306.604 112.994 306.424 112.937 306.424 112.79"></path>
		<path fill="#E0B577" stroke="#A87C3B" stroke-width="0.1233" stroke-linejoin="bevel" stroke-miterlimit="10" d="M 306.72 112.472 C 306.799 112.435 306.998 112.547 307.001 112.594 C 307.003 112.639 306.936 112.746 306.9 112.74 C 306.866 112.735 306.623 112.79 306.61 112.679 C 306.597 112.569 306.6 112.527 306.72 112.472"></path>
		<path fill="#C79C52" stroke="#806434" stroke-width="0.1233" stroke-linejoin="bevel" stroke-miterlimit="10" d="M 319.561 109.793 C 318.956 109.341 317.956 108.767 317.384 108.474 C 317.022 108.288 316.446 108.116 315.864 107.995 C 315.972 108.207 316.089 108.814 315.904 109.472 C 316.577 109.474 318.078 110.115 318.517 110.463 C 318.846 110.367 319.367 110.029 319.561 109.793"></path>
		<path fill="#C79C52" stroke="#806434" stroke-width="0.1233" stroke-linejoin="bevel" stroke-miterlimit="10" d="M 319.15 112.22 C 319.19 111.648 318.865 111.067 318.517 110.461 C 318.847 110.368 319.366 110.029 319.561 109.792 C 319.691 109.89 319.809 109.987 319.891 110.067 C 320.351 110.514 321.341 111.56 321.659 112.117 C 321.925 112.582 322.111 113.152 322.237 113.481 C 321.52 113.053 320.446 112.498 319.983 112.354 C 319.525 112.212 319.149 112.219 319.15 112.22"></path>
		<path fill="#C79C52" stroke="#806434" stroke-width="0.1233" stroke-linejoin="bevel" stroke-miterlimit="10" d="M 322.238 113.481 C 321.522 113.053 320.447 112.498 319.984 112.355 C 319.525 112.212 319.149 112.219 319.15 112.221 C 318.905 112.278 317.731 113.117 317.732 113.118 C 317.568 113.521 317.781 113.721 317.84 114.058 C 317.899 114.397 317.882 114.939 317.765 115.465 C 318.369 115.758 319.263 116.241 320.096 116.112 C 321.052 115.964 321.121 115.623 321.651 115.236 C 322.111 114.901 322.574 114.564 323.091 114.744 C 323.091 114.744 323.093 114.745 323.093 114.745 C 322.759 114.437 322.419 113.896 322.303 113.638 C 322.285 113.597 322.261 113.542 322.238 113.481"></path>
		<path fill="#C79C52" stroke="#806434" stroke-width="0.1233" stroke-linejoin="bevel" stroke-miterlimit="10" d="M 315.307 111.783 C 314.114 112.145 312.957 113.805 312.793 114.357 C 312.881 114.361 312.976 114.362 313.081 114.363 C 314.14 114.378 314.352 114.43 314.934 114.414 C 315.518 114.397 315.822 114.589 316.131 114.689 C 316.441 114.789 316.937 115.092 317.527 115.353 C 317.598 115.384 317.68 115.422 317.766 115.464 C 317.884 114.939 317.902 114.397 317.842 114.059 C 317.781 113.72 317.568 113.52 317.734 113.119 C 317.557 112.781 316.654 111.927 315.307 111.783"></path>
		<path fill="#C79C52" stroke="#806434" stroke-width="0.1233" stroke-linejoin="bevel" stroke-miterlimit="10" d="M 318.518 110.462 C 318.077 110.113 316.575 109.473 315.903 109.471 C 315.67 109.47 315.223 109.657 315.022 109.879 C 315.119 110.115 315.331 110.706 315.362 110.965 C 315.394 111.224 315.313 111.681 315.307 111.783 C 316.654 111.928 317.557 112.781 317.736 113.118 C 317.734 113.117 318.906 112.278 319.151 112.22 C 319.191 111.649 318.864 111.066 318.518 110.462"></path>
		<path fill="#C79C52" stroke="#806434" stroke-width="0.1233" stroke-linejoin="bevel" stroke-miterlimit="10" d="M 315.024 109.88 C 314.16 109.704 312.515 110.016 312.017 110.158 C 311.519 110.301 310.37 111.386 310.109 111.795 C 310.198 111.996 310.287 112.214 310.362 112.437 C 310.688 113.411 311.103 113.832 311.458 114.041 C 311.774 114.227 311.985 114.333 312.793 114.359 C 312.956 113.808 314.113 112.146 315.307 111.785 C 315.313 111.683 315.393 111.226 315.363 110.967 C 315.333 110.706 315.12 110.114 315.024 109.88"></path>
		<path fill="#C79C52" stroke="#806434" stroke-width="0.1233" stroke-linejoin="bevel" stroke-miterlimit="10" d="M 315.024 109.879 C 314.162 109.706 312.512 110.013 312.019 110.16 C 311.992 109.446 311.486 108.538 311.179 108.416 C 311.278 108.369 311.381 108.327 311.491 108.286 C 312.243 108.004 313.567 107.781 314.388 107.803 C 314.784 107.813 315.325 107.881 315.865 107.996 C 315.973 108.205 316.09 108.815 315.904 109.471 C 315.67 109.469 315.225 109.659 315.024 109.879"></path>
		<path fill="#C79C52" stroke="#806434" stroke-width="0.1233" stroke-linejoin="bevel" stroke-miterlimit="10" d="M 310.108 111.793 C 309.799 111.105 309.42 110.564 309.165 110.401 C 308.971 110.278 308.758 110.236 308.517 110.286 C 308.942 110.125 308.911 109.973 309.59 109.475 C 310.171 109.049 310.598 108.686 311.18 108.414 C 311.487 108.536 311.993 109.444 312.019 110.158 C 311.517 110.297 310.373 111.388 310.108 111.793"></path>
		<path fill="#FFC163" stroke="#B38645" stroke-width="0.1233" stroke-linejoin="bevel" stroke-miterlimit="10" d="M 307.981 110.519 C 308.455 110.216 308.835 110.195 309.165 110.402 C 309.495 110.61 310.035 111.463 310.362 112.437 C 310.689 113.411 311.103 113.831 311.459 114.04 C 311.811 114.248 312.028 114.354 313.083 114.365 C 314.139 114.376 314.354 114.432 314.935 114.414 C 315.518 114.397 315.823 114.591 316.132 114.689 C 316.441 114.787 316.939 115.096 317.527 115.353 C 318.119 115.613 319.145 116.26 320.1 116.114 C 321.057 115.967 321.124 115.624 321.653 115.238 C 322.183 114.852 322.712 114.465 323.331 114.863 C 323.95 115.261 323.47 115.527 323.389 115.547 C 323.31 115.566 323.188 115.383 322.994 115.333 C 322.801 115.285 322.314 115.787 322.086 115.911 C 321.858 116.035 321.095 116.691 320.303 116.817 C 319.516 116.941 319.127 116.826 318.434 116.525 C 317.741 116.225 316.964 115.967 316.438 115.603 C 315.913 115.24 315.266 115.235 314.992 115.178 C 314.718 115.122 313.926 115.089 313.643 115.109 C 313.359 115.129 312.972 115.165 312.776 115.135 C 312.58 115.106 311.86 115.077 311.566 114.915 C 311.273 114.754 310.958 114.676 310.676 114.309 C 310.393 113.941 310.105 113.636 309.892 113.233 C 309.678 112.83 309.726 112.347 309.514 112.026 C 309.301 111.705 309.139 111.488 308.962 111.373 C 308.786 111.258 308.739 111.128 308.503 111.162 C 308.267 111.196 308.05 111.296 307.886 111.127 C 307.725 110.96 307.805 110.63 307.981 110.519"></path>
		
			<path fill="#7BD968" stroke="#598C4E" stroke-width="0.1233" stroke-linecap="round" stroke-linejoin="bevel" stroke-miterlimit="10" d="M 305.032 113.657 C 305.049 113.718 305.132 113.963 305.381 114.002 C 305.627 114.04 305.913 114.044 306.027 113.901"></path>
	</g>
</g>
<polygon fill="#7BD968" points="400.823,211.973 400.821,211.973 400.83,211.979 "></polygon>
<path fill="none" d="M 325.726 103.096 C 360.945 90.5546 651.427 463.785 616.409 578.904 C 581.391 694.023 628.281 763.074 347.222 739.281 C 66.163 715.488 17.9438 684.651 57.6732 529.291 C 97.4027 373.931 276.111 120.765 325.726 103.096"></path>
</svg>
