<?xml version="1.0" encoding="utf-8"?>
<!-- Generator: Adobe Illustrator 15.0.2, SVG Export Plug-In . SVG Version: 6.00 Build 0)  -->
<!DOCTYPE svg PUBLIC "-//W3C//DTD SVG 1.1//EN" "http://www.w3.org/Graphics/SVG/1.1/DTD/svg11.dtd">
<svg version="1.1" id="Layer_1" xmlns="http://www.w3.org/2000/svg" xmlns:xlink="http://www.w3.org/1999/xlink" x="0px" y="0px"
	 width="800px" height="600px" viewBox="0 0 800 600" enable-background="new 0 0 800 600" xml:space="preserve">
<g>
	<g id="Layer_3">
		<path fill="none" d="M260.548,477.725c-7.209-20.39-13.761-36.17-10.745-58.405c1.589-11.723,20.125-36.154,18.401-43.896
			c-0.465-2.094-42.297-23.312-38.695-23.73c-9.998,1.166-23.919,32.38-30.16,38.779c-20.718,21.259-38.908,30.745-68.707,32.418
			c-29.598,1.656-50.918-1.521-66.976-29.15c-5.378-9.255-16.857-53.062-15.457-62.513c5.958-40.165,79.034-22.423,107.364-44.129
			c-52.687-25.662,90.289-159.99,126.409-177.912c36.861-18.289,74.334-26.938,114.95-28.449
			c70.334-2.615,140.633,22.416,199.213,59.377c33.938,21.412,44.688,38.654,71.336,65.729
			c20.312,20.644,47.371,29.917,65.971,48.987c39.82,40.833,9.949,68.837-39.646,51.896c-4.225,26.743-18.256,49.455-42.875,61.89
			c21.65,26.987,53.533,103.22,9.517,125.188c-37.304,18.617-108.062-59.239-127.499-81.248
			c-19.459-22.027,9.66-13.402-25.394-22.439c-14.067-3.627-34.953,1.373-49.295,2.006c-16.127,0.713-39.188-1.822-54.188,2.808
			c-29.395,9.075-8.644-0.702-25.448,20.646c-19.161,24.345-47.368,103.881-90.112,103.881
			C272.439,519.454,266.15,493.566,260.548,477.725z"/>
	</g>
	<g id="Layer_1_2_">
		<g>
			<path fill="#C79C52" stroke="#806434" stroke-width="4.2291" stroke-linejoin="bevel" stroke-miterlimit="10" d="M169.1,242.265
				c7.874-3.673,16.102-3.915,24.854-1.103c14.803,4.758,46.521,30.662,71.896,61.854c25.375,31.188,45.463,41.765,60.265,45.463
				c14.803,3.699,23.789,5.285,58.68-5.284c34.89-10.573,42.291-11.104,60.791-17.978c18.504-6.873,30.662-3.702,41.764-3.702
				c11.105,0,30.66,4.761,52.334,6.873c21.677,2.115,61.322,12.158,88.283-3.699c26.961-15.856,24.848-28.02,35.947-47.047
				c9.664-16.562,19.322-33.127,37.004-32.963l-0.004,0.01c-13.747-6.521-30.656-20.969-37.529-28.369
				c-6.871-7.4-22.203-29.075-39.119-44.404c-16.916-15.332-61.32-40.178-81.938-50.75c-20.617-10.572-74.012-23.26-101.498-28.547
				c-27.488-5.286-79.823-0.529-107.312,6.872c-27.489,7.401-68.724,28.019-90.396,44.935
				c-21.674,16.916-31.719,35.947-48.104,59.736C178.623,227.946,181.785,233.072,169.1,242.265"/>
			<path fill="#FFE563" stroke="#E8D46D" stroke-width="4.2291" stroke-linejoin="bevel" stroke-miterlimit="10" d="
				M685.059,295.199c-5.285,6.756-20.089,37.416-42.292,50.634c-22.2,13.216-35.418,13.746-60.264,11.631
				c-24.85-2.115-52.336-2.115-73.48-8.459c-21.146-6.345-41.764,0.529-51.275,1.586c-9.519,1.061-35.419,8.46-44.404,12.16
				c-8.984,3.699-21.146,8.983-28.02,10.043c-6.873,1.06-31.188,7.398-43.349,4.759c-12.16-2.646-23.789-2.112-38.592-12.159
				c-14.803-10.046-29.074-17.976-42.291-30.133c-13.217-12.159-18.502-29.604-30.66-39.118
				c-12.159-9.518-21.146-15.858-29.074-18.504c-7.93-2.645-11.631-6.873-19.561-3.701c4.311,10.709,30.125,53.377,47.311,65.279
				c17.188,11.906,30.613,22.448,53.77,31.709c23.154,9.271,71.789,17.729,120.425,14.025c48.637-3.699,91.453-2.947,128.985-6.77
				c37.53-3.812,82.062-6.271,102.354-13.494c20.291-7.228,29.772-16.628,35.868-24.88
				C676.599,331.558,683.472,317.517,685.059,295.199z"/>
			<path fill="#7BD968" stroke="#598C4E" stroke-width="4.2291" stroke-linejoin="bevel" stroke-miterlimit="10" d="M70.486,361.22
				c-0.279,6.881-2.344,28.146,9.08,39.828c18.886,19.32,45.432,11.94,52.444,11.679c7.011-0.256,41.278,0.786,64.389-34.53
				c23.107-35.321,41.799-48.543,53.219-56.894c-6.218-9.311-11.229-18.938-19.188-25.159c-12.16-9.517-21.146-15.858-29.075-18.501
				c-7.931-2.646-11.63-6.873-19.561-3.7c-0.63,0.254-1.248,0.517-1.86,0.791c-7.686,13.388-24.302,27.399-37.021,29.48
				c-12.724,2.077-32.387,4.3-37.906,4.514c-4.151,0.156-7.527,4.059-9.084,4.84C84.787,321.252,71.209,343.34,70.486,361.22z"/>
			<path fill="#7BD968" stroke="#598C4E" stroke-width="4.2291" stroke-linejoin="bevel" stroke-miterlimit="10" d="
				M370.007,375.793c-9.535,1.758-20.883,3.311-28.033,1.758c-12.159-2.644-23.789-2.111-38.592-12.157
				c-3.658-2.479-7.283-4.841-10.862-7.151c-10.812,11.646-26.402,39.931-29.843,51.027c-3.438,11.104-8.194,30.663,1.319,50.224
				c9.517,19.561,7.4,26.167,10.572,34.626c3.173,8.457,3.435,15.601,14.539,15.329c11.106-0.265,17.412-8.985,25.097-19.028
				c7.686-10.044,22.305-21.935,34.378-38.061c9.796-13.091,16.323-24.356,19.585-34.812c3.262-10.454,1.84-40.862,1.84-40.862
				V375.793L370.007,375.793z"/>
			<path fill="#7BD968" stroke="#598C4E" stroke-width="4.2291" stroke-linejoin="bevel" stroke-miterlimit="10" d="M686.773,292.68
				c5.275-8.582,12.68-26.724,18.373-27.201c6.345-0.527,12.156,4.229,14.271,2.645c11.836,3.709,25.189,11.563,24.994,21.771
				c-0.201,10.211-3.932,10.219-8.246,13.557c-4.32,3.339-12.961,2.356-19.246,0C710.634,301.09,692.95,297.027,686.773,292.68z"/>
			<path fill="#7BD968" stroke="#598C4E" stroke-width="4.2291" stroke-linejoin="bevel" stroke-miterlimit="10" d="
				M626.117,354.045c-13.666,5.096-25.578,4.955-43.613,3.42c-15.229-1.297-31.443-1.801-46.582-3.453
				c-2.156,20.406-4.562,56.517,27.472,83.188c16.855,14.258,27.049,15.188,37.603,20.369c10.553,5.181,22.367,24.614,40.924,28.333
				c9.256,1.852,13.148,0.927,19.078-5.37c5.93-6.304,7.406-7.963,8.15-14.629c0.736-6.675,3.326-30.382-1.487-43.521
				c-4.813-13.145-13.521-31.85-18.895-40.002c-5.364-8.146-22.641-27.406-22.641-27.406v-0.926L626.117,354.045L626.117,354.045z"
				/>
			<path fill="#94AEFF" stroke="#4464C7" stroke-width="4.2291" stroke-linejoin="bevel" stroke-miterlimit="10" d="M95.918,313.555
				c7.678,1.335,11.424,13.757,11.424,13.757c6.492-2.072,9.866-1.04,12.199,0c2.078-8.305,10.389-18.234,21.032-18.591
				c10.646-0.354,20.254-1.396,24.664,18.591c14.021-0.771,27.256-9.861,32.449-9.346c5.193,0.521,9.347,3.896,9.867,5.712
				c0.52,1.818,3.117,8.83,3.117,11.167c0,2.338-1.037,6.492-3.636,7.273c-2.596,0.782-5.712-1.561-6.489-3.896
				c-0.777-2.337-0.521-6.233-2.337-7.274c-1.812-1.032-4.672-0.263-6.488,0.521c-1.819,0.783-24.146,7.26-27.005,8.301
				c-1.039,8.062-8.31,21.561-23.106,22.078c-14.798,0.521-17.396-5.043-18.692-10.566c-1.299-5.528-2.598-9.938-2.598-9.938
				c-7.011,0.521-5.714,0.261-10.387,0.261c-2.854,9.348-9.607,22.812-25.184,23.088c-15.576,0.274-23.625-8.021-21.811-27.235
				c-8.047-1.041-5.193-2.342-5.193-2.342c1.558-9.867,1.558-9.867,1.558-9.867l10.646,0.521
				C72.291,312.514,90.883,312.679,95.918,313.555z"/>
			<path fill="#FFFFFF" stroke="#4464C7" stroke-width="4.2291" stroke-linejoin="bevel" stroke-miterlimit="10" d="M79.507,323.53
				c8.949-3.98,20.396,2.55,22.004,7.479c1.605,4.938,0,19.958-7.244,23.944c-7.246,3.981-19.324,2.951-21.738-3.192
				C70.112,345.627,69.31,328.065,79.507,323.53z"/>
			<path fill="#E0B577" stroke="#A87C3B" stroke-width="4.2291" stroke-linejoin="bevel" stroke-miterlimit="10" d="M80.601,337.963
				c2.183-2.977,10.645-3.115,12.979,0c2.333,3.111,0.782,7.168-1.557,8.388c-2.337,1.223-9.347,5.896-11.423,2.253
				C78.525,344.965,77.745,341.86,80.601,337.963z"/>
			<path fill="#FFFFFF" stroke="#4464C7" stroke-width="4.2291" stroke-linejoin="bevel" stroke-miterlimit="10" d="
				M129.582,348.084c-3.955-9.684-3.736-18.232,0-22.775c3.74-4.533,14.362-8.215,21.468-0.938c7.11,7.289,8.979,13.513,7.11,17.506
				c-1.871,3.989-7.744,11.728-13.353,11.942C139.194,354.034,131.728,353.324,129.582,348.084z"/>
			<path fill="#E0B577" stroke="#A87C3B" stroke-width="4.2291" stroke-linejoin="bevel" stroke-miterlimit="10" d="
				M135.901,334.588c2.465-1.938,11.423,0.691,12.202,2.293c0.777,1.6-0.258,5.861-1.557,5.938c-1.3,0.073-9.604,3.813-11.687,0
				C132.78,338.998,132.269,337.447,135.901,334.588z"/>
			<path fill="#C79C52" stroke="#806434" stroke-width="4.2291" stroke-linejoin="bevel" stroke-miterlimit="10" d="M528.196,115.25
				c-25.031-9.026-64.877-18.309-87.368-22.634c-14.286-2.744-35.283-2.784-56.021-1.143c6.594,6.429,19.279,26.782,22.716,51.891
				c21.938-6.871,78.768-0.527,97.27,6.606C513.778,143.104,525.409,125.653,528.196,115.25z"/>
			<path fill="#C79C52" stroke="#806434" stroke-width="4.2291" stroke-linejoin="bevel" stroke-miterlimit="10" d="
				M548.565,203.629c-6.439-20.089-24.477-36.477-43.771-53.658c8.984-6.873,20.617-24.317,23.402-34.725
				c5.553,2.004,10.385,3.991,14.131,5.912c20.615,10.572,65.021,35.418,81.938,50.748c14.183,12.846,27.231,30.142,35.146,39.766
				c-26.979-6.223-67.121-13.07-83.248-12.804C560.03,199.133,548.565,203.629,548.565,203.629z"/>
			<path fill="#C79C52" stroke="#806434" stroke-width="4.2291" stroke-linejoin="bevel" stroke-miterlimit="10" d="
				M659.407,211.676c-26.98-6.224-67.121-13.071-83.248-12.805c-16.129,0.268-27.597,4.758-27.597,4.758
				c-6.706,4.758-31.875,46.521-31.875,46.521c0.263,15.597,9.519,20.086,15.858,30.925c6.344,10.833,12.947,29.34,16.017,48.399
				c22.479,3.123,55.804,9.086,79.397-4.795c26.961-15.855,24.849-28.017,35.946-47.048c9.666-16.561,19.32-33.125,37.007-32.959
				l-0.006,0.008c-13.75-6.521-30.656-20.968-37.527-28.368C662.265,215.114,660.931,213.541,659.407,211.676z"/>
			<path fill="#C79C52" stroke="#806434" stroke-width="4.2291" stroke-linejoin="bevel" stroke-miterlimit="10" d="M421.269,230.59
				c-33.305,25.374-48.104,94.887-46.069,115.382c2.969-0.814,6.157-1.745,9.596-2.781c34.891-10.572,42.291-11.104,60.791-17.977
				c18.505-6.873,30.664-3.702,41.766-3.702c11.104,0,30.659,4.759,52.334,6.873c2.705,0.269,5.687,0.647,8.887,1.094
				c-3.067-19.062-9.674-37.565-16.018-48.403c-6.344-10.834-15.6-15.328-15.857-30.921
				C506.638,240.634,466.729,221.34,421.269,230.59z"/>
			<path fill="#C79C52" stroke="#806434" stroke-width="4.2291" stroke-linejoin="bevel" stroke-miterlimit="10" d="
				M504.792,149.971c-18.501-7.139-75.328-13.482-97.27-6.606c-7.59,2.378-19.266,13.745-22.716,23.523
				c6.622,7.4,21.925,25.902,26.683,34.628c4.758,8.725,8.597,25.494,9.774,29.074c45.461-9.254,85.379,10.044,95.414,19.561
				c0,0,25.169-41.764,31.885-46.521C542.116,183.54,524.091,167.153,504.792,149.971z"/>
			<path fill="#C79C52" stroke="#806434" stroke-width="4.2291" stroke-linejoin="bevel" stroke-miterlimit="10" d="
				M384.809,166.887c-30.382,2.908-80.897,30.137-95.7,39.914c-14.802,9.777-38.062,59.207-41.433,75.786
				c6.203,6.399,12.353,13.271,18.173,20.427c25.375,31.188,45.463,41.765,60.265,45.461c13.342,3.341,21.957,4.954,49.083-2.502
				c-2.034-20.492,12.769-90.008,46.069-115.383c-1.188-3.578-5.021-20.351-9.774-29.074
				C406.737,192.789,391.432,174.287,384.809,166.887z"/>
			<path fill="#C79C52" stroke="#806434" stroke-width="4.2291" stroke-linejoin="bevel" stroke-miterlimit="10" d="
				M384.809,166.887c-30.382,2.908-80.897,30.137-95.7,39.914c-11.367-25.112-42.291-53.126-54.736-54.891
				c2.705-2.546,5.604-5.039,8.745-7.488c21.675-16.918,62.907-37.533,90.396-44.936c13.203-3.552,32.137-6.5,51.294-8.014
				c6.595,6.429,19.281,26.783,22.716,51.891C399.938,145.742,388.259,157.109,384.809,166.887z"/>
			<path fill="#C79C52" stroke="#806434" stroke-width="4.2291" stroke-linejoin="bevel" stroke-miterlimit="10" d="
				M247.678,282.587c-20.858-21.53-42.312-37.757-53.725-41.425c-8.753-2.816-16.979-2.57-24.854,1.103
				c12.688-9.193,9.522-14.318,25.912-38.106c14.011-20.343,23.386-37.203,39.358-52.246c12.446,1.759,43.37,29.776,54.736,54.89
				C274.307,216.578,251.048,266.008,247.678,282.587z"/>
			<path fill="#FFC163" stroke="#B38645" stroke-width="4.2291" stroke-linejoin="bevel" stroke-miterlimit="10" d="
				M153.248,254.908c12.619-14.527,25.903-18.504,40.705-13.745c14.803,4.758,46.521,30.661,71.896,61.854
				c25.375,31.188,45.463,41.765,60.265,45.461c14.803,3.699,23.789,5.285,58.68-5.282c34.891-10.575,42.291-11.104,60.791-17.979
				c18.505-6.873,30.664-3.7,41.766-3.7c11.104,0,30.659,4.76,52.334,6.872c21.676,2.114,61.322,12.159,88.283-3.697
				c26.961-15.858,24.847-28.021,35.947-47.051c11.101-19.03,22.201-38.062,45.462-31.718c23.26,6.345,12.158,20.617,10.043,22.202
				c-2.112,1.587-7.928-3.171-14.271-2.643c-6.347,0.527-14.805,22.962-20.091,29.718c-5.285,6.752-20.089,37.417-42.291,50.634
				c-22.201,13.217-35.418,13.746-60.265,11.631c-24.848-2.114-52.337-2.114-73.479-8.459c-21.146-6.345-41.765,0.528-51.275,1.587
				c-9.518,1.062-35.42,8.458-44.407,12.161c-8.98,3.697-21.144,8.982-28.017,10.042c-6.874,1.061-31.188,7.399-43.351,4.757
				c-12.159-2.643-23.789-2.109-38.591-12.155c-14.803-10.046-29.074-17.978-42.291-30.136
				c-13.216-12.155-18.501-29.604-30.66-39.117c-12.159-9.518-21.146-15.859-29.075-18.502c-7.929-2.645-11.63-6.873-19.56-3.7
				c-7.931,3.171-14.272,8.459-22.731,3.7C150.605,272.881,148.589,260.27,153.248,254.908z"/>
			
				<path fill="#7BD968" stroke="#598C4E" stroke-width="4.2291" stroke-linecap="round" stroke-linejoin="bevel" stroke-miterlimit="10" d="
				M89.018,388.124c1.586,2.111,8.196,10.311,18.234,10.043c10.041-0.267,20.885-2.111,23.262-7.932"/>
		</g>
	</g>
	<g id="Layer_4">
		<g>
			<path fill="#C79C52" stroke="#806434" stroke-width="0.8971" stroke-linejoin="bevel" stroke-miterlimit="10" d="
				M408.399,267.803c1.67-0.779,3.416-0.83,5.271-0.234c3.14,1.01,9.868,6.505,15.25,13.121c5.383,6.615,9.645,8.859,12.783,9.643
				c3.14,0.785,5.046,1.122,12.447-1.12c7.4-2.243,8.971-2.355,12.896-3.813c3.925-1.457,6.504-0.785,8.858-0.785
				s6.504,1.01,11.101,1.458c4.598,0.448,13.008,2.579,18.728-0.785c5.719-3.363,5.271-5.943,7.625-9.979
				c2.051-3.514,4.099-7.027,7.85-6.992l-0.001,0.002c-2.916-1.383-6.503-4.447-7.961-6.018c-1.457-1.569-4.71-6.167-8.298-9.419
				s-13.008-8.522-17.38-10.765c-4.373-2.242-15.699-4.934-21.529-6.055c-5.831-1.122-16.934-0.113-22.763,1.457
				c-5.831,1.57-14.578,5.943-19.177,9.531c-4.598,3.588-6.728,7.625-10.203,12.672C410.42,264.766,411.091,265.853,408.399,267.803
				"/>
			<path fill="#FFE563" stroke="#E8D46D" stroke-width="0.8971" stroke-linejoin="bevel" stroke-miterlimit="10" d="
				M517.844,279.031c-1.121,1.434-4.261,7.937-8.971,10.74s-7.513,2.916-12.782,2.467c-5.271-0.448-11.102-0.448-15.588-1.794
				c-4.484-1.346-8.858,0.112-10.876,0.337c-2.019,0.225-7.513,1.794-9.419,2.579c-1.906,0.784-4.485,1.905-5.943,2.13
				c-1.457,0.225-6.614,1.569-9.194,1.01c-2.579-0.562-5.046-0.449-8.187-2.58c-3.14-2.131-6.167-3.812-8.971-6.391
				c-2.804-2.58-3.925-6.28-6.504-8.299s-4.485-3.363-6.167-3.925c-1.684-0.561-2.467-1.458-4.149-0.784
				c0.914,2.271,6.392,11.322,10.036,13.847c3.646,2.525,6.493,4.762,11.405,6.726c4.911,1.967,15.228,3.761,25.544,2.975
				c10.315-0.784,19.398-0.625,27.359-1.436c7.962-0.809,17.406-1.33,21.712-2.862c4.305-1.533,6.315-3.526,7.607-5.277
				C516.05,286.743,517.507,283.765,517.844,279.031z"/>
			<path fill="#7BD968" stroke="#598C4E" stroke-width="0.8971" stroke-linejoin="bevel" stroke-miterlimit="10" d="
				M387.481,293.035c-0.059,1.46-0.497,5.971,1.927,8.449c4.006,4.098,9.637,2.531,11.124,2.477
				c1.486-0.055,8.756,0.166,13.658-7.324c4.9-7.493,8.865-10.297,11.288-12.068c-1.318-1.975-2.383-4.018-4.069-5.337
				c-2.58-2.019-4.485-3.363-6.167-3.925c-1.684-0.561-2.468-1.457-4.149-0.784c-0.135,0.054-0.265,0.109-0.395,0.168
				c-1.631,2.839-5.155,5.812-7.854,6.253c-2.697,0.44-6.87,0.912-8.04,0.957c-0.881,0.033-1.597,0.861-1.927,1.026
				C390.516,284.558,387.636,289.242,387.481,293.035z"/>
			<path fill="#7BD968" stroke="#598C4E" stroke-width="0.8971" stroke-linejoin="bevel" stroke-miterlimit="10" d="
				M451.016,296.127c-2.021,0.373-4.43,0.702-5.945,0.373c-2.579-0.562-5.046-0.449-8.187-2.579
				c-0.775-0.526-1.545-1.027-2.305-1.518c-2.293,2.471-5.601,8.47-6.33,10.824c-0.729,2.355-1.738,6.506,0.28,10.653
				c2.018,4.148,1.568,5.551,2.242,7.345c0.673,1.794,0.729,3.311,3.084,3.252c2.355-0.057,3.693-1.905,5.322-4.035
				c1.631-2.132,4.731-4.653,7.293-8.074c2.077-2.776,3.462-5.166,4.153-7.385c0.692-2.217,0.391-8.667,0.391-8.667L451.016,296.127
				L451.016,296.127z"/>
			<path fill="#7BD968" stroke="#598C4E" stroke-width="0.8971" stroke-linejoin="bevel" stroke-miterlimit="10" d="
				M518.208,278.496c1.119-1.819,2.689-5.668,3.896-5.77c1.347-0.111,2.579,0.897,3.027,0.562c2.512,0.786,5.344,2.452,5.303,4.618
				c-0.043,2.166-0.834,2.167-1.75,2.875c-0.916,0.709-2.749,0.5-4.082,0S519.519,279.419,518.208,278.496z"/>
			<path fill="#7BD968" stroke="#598C4E" stroke-width="0.8971" stroke-linejoin="bevel" stroke-miterlimit="10" d="
				M505.341,291.514c-2.897,1.08-5.425,1.051-9.25,0.725c-3.229-0.274-6.67-0.381-9.881-0.732
				c-0.458,4.329-0.968,11.988,5.827,17.646c3.575,3.022,5.737,3.222,7.976,4.319c2.239,1.099,4.744,5.222,8.682,6.011
				c1.963,0.393,2.789,0.196,4.047-1.14c1.258-1.338,1.571-1.688,1.729-3.104c0.157-1.416,0.706-6.444-0.314-9.231
				c-1.021-2.788-2.868-6.756-4.008-8.485c-1.139-1.729-4.803-5.813-4.803-5.813v-0.196L505.341,291.514L505.341,291.514z"/>
			<path fill="#94AEFF" stroke="#4464C7" stroke-width="0.8971" stroke-linejoin="bevel" stroke-miterlimit="10" d="
				M392.876,282.925c1.629,0.283,2.424,2.918,2.424,2.918c1.377-0.439,2.093-0.221,2.588,0c0.44-1.762,2.203-3.868,4.461-3.943
				c2.259-0.075,4.296-0.296,5.231,3.943c2.974-0.163,5.781-2.092,6.883-1.982c1.103,0.11,1.983,0.826,2.093,1.212
				c0.111,0.386,0.662,1.873,0.662,2.368c0,0.496-0.22,1.378-0.771,1.544c-0.551,0.165-1.211-0.332-1.377-0.827
				c-0.164-0.495-0.11-1.322-0.495-1.543c-0.385-0.22-0.991-0.056-1.376,0.11c-0.387,0.166-5.122,1.54-5.729,1.761
				c-0.221,1.71-1.763,4.573-4.9,4.683c-3.14,0.111-3.69-1.069-3.966-2.241c-0.274-1.173-0.552-2.108-0.552-2.108
				c-1.485,0.111-1.211,0.056-2.203,0.056c-0.604,1.982-2.037,4.839-5.342,4.897c-3.303,0.059-5.011-1.701-4.626-5.777
				c-1.707-0.221-1.102-0.496-1.102-0.496c0.33-2.094,0.33-2.094,0.33-2.094l2.259,0.11
				C387.864,282.704,391.809,282.738,392.876,282.925z"/>
			<path fill="#FFFFFF" stroke="#4464C7" stroke-width="0.8971" stroke-linejoin="bevel" stroke-miterlimit="10" d="
				M389.396,285.041c1.898-0.845,4.326,0.541,4.668,1.586c0.34,1.048,0,4.234-1.537,5.079c-1.537,0.845-4.099,0.626-4.611-0.678
				C387.402,289.728,387.232,286.003,389.396,285.041z"/>
			<path fill="#E0B577" stroke="#A87C3B" stroke-width="0.8971" stroke-linejoin="bevel" stroke-miterlimit="10" d="
				M389.627,288.102c0.464-0.631,2.259-0.66,2.753,0c0.495,0.66,0.166,1.521-0.33,1.779c-0.495,0.26-1.982,1.251-2.423,0.479
				C389.187,289.588,389.021,288.929,389.627,288.102z"/>
			<path fill="#FFFFFF" stroke="#4464C7" stroke-width="0.8971" stroke-linejoin="bevel" stroke-miterlimit="10" d="
				M400.018,290.249c-0.839-2.054-0.793-3.867,0-4.831c0.793-0.962,3.047-1.742,4.555-0.199c1.508,1.547,1.903,2.867,1.508,3.714
				c-0.396,0.847-1.644,2.487-2.832,2.533C402.056,291.512,400.473,291.36,400.018,290.249z"/>
			<path fill="#E0B577" stroke="#A87C3B" stroke-width="0.8971" stroke-linejoin="bevel" stroke-miterlimit="10" d="
				M401.357,287.387c0.522-0.412,2.423,0.146,2.589,0.486c0.164,0.339-0.056,1.243-0.33,1.259c-0.276,0.016-2.038,0.81-2.479,0
				C400.695,288.321,400.587,287.993,401.357,287.387z"/>
			<path fill="#C79C52" stroke="#806434" stroke-width="0.8971" stroke-linejoin="bevel" stroke-miterlimit="10" d="M484.571,240.86
				c-5.312-1.915-13.763-3.884-18.533-4.801c-3.03-0.583-7.484-0.591-11.883-0.242c1.397,1.363,4.09,5.681,4.817,11.007
				c4.654-1.457,16.708-0.112,20.634,1.401C481.513,246.77,483.979,243.067,484.571,240.86z"/>
			<path fill="#C79C52" stroke="#806434" stroke-width="0.8971" stroke-linejoin="bevel" stroke-miterlimit="10" d="
				M488.892,259.607c-1.365-4.262-5.19-7.737-9.284-11.382c1.905-1.458,4.373-5.158,4.965-7.366
				c1.178,0.426,2.202,0.847,2.997,1.254c4.372,2.243,13.792,7.514,17.38,10.766c3.008,2.725,5.775,6.393,7.455,8.435
				c-5.724-1.32-14.237-2.772-17.658-2.716C491.323,258.654,488.892,259.607,488.892,259.607z"/>
			<path fill="#C79C52" stroke="#806434" stroke-width="0.8971" stroke-linejoin="bevel" stroke-miterlimit="10" d="
				M512.403,261.314c-5.724-1.32-14.238-2.772-17.658-2.717c-3.422,0.057-5.854,1.01-5.854,1.01
				c-1.424,1.009-6.762,9.868-6.762,9.868c0.055,3.309,2.02,4.261,3.363,6.56c1.346,2.298,2.746,6.224,3.397,10.267
				c4.769,0.663,11.836,1.928,16.842-1.017c5.719-3.363,5.271-5.943,7.625-9.98c2.05-3.513,4.099-7.026,7.85-6.991l-0.001,0.002
				c-2.917-1.383-6.503-4.447-7.961-6.017C513.009,262.044,512.726,261.71,512.403,261.314z"/>
			<path fill="#C79C52" stroke="#806434" stroke-width="0.8971" stroke-linejoin="bevel" stroke-miterlimit="10" d="M461.89,265.326
				c-7.063,5.383-10.204,20.127-9.771,24.475c0.63-0.173,1.306-0.37,2.035-0.59c7.4-2.242,8.971-2.355,12.896-3.812
				c3.925-1.458,6.504-0.786,8.858-0.786c2.355,0,6.504,1.01,11.102,1.458c0.573,0.057,1.206,0.138,1.885,0.232
				c-0.649-4.044-2.052-7.969-3.396-10.268c-1.345-2.299-3.31-3.252-3.363-6.559C479.998,267.457,471.532,263.364,461.89,265.326z"
				/>
			<path fill="#C79C52" stroke="#806434" stroke-width="0.8971" stroke-linejoin="bevel" stroke-miterlimit="10" d="
				M479.606,248.226c-3.926-1.515-15.979-2.86-20.634-1.401c-1.608,0.504-4.086,2.916-4.817,4.99
				c1.403,1.569,4.649,5.494,5.66,7.345c1.009,1.851,1.821,5.407,2.072,6.167c9.645-1.963,18.11,2.131,20.239,4.149
				c0,0,5.338-8.859,6.763-9.868C487.523,255.347,483.7,251.87,479.606,248.226z"/>
			<path fill="#C79C52" stroke="#806434" stroke-width="0.8971" stroke-linejoin="bevel" stroke-miterlimit="10" d="
				M454.155,251.814c-6.444,0.616-17.159,6.392-20.299,8.466c-3.142,2.073-8.074,12.559-8.789,16.075
				c1.314,1.357,2.619,2.815,3.854,4.333c5.383,6.616,9.645,8.858,12.783,9.644c2.83,0.708,4.657,1.051,10.411-0.531
				c-0.433-4.347,2.709-19.092,9.771-24.475c-0.252-0.759-1.064-4.316-2.072-6.167C458.806,257.308,455.561,253.384,454.155,251.814
				z"/>
			<path fill="#C79C52" stroke="#806434" stroke-width="0.8971" stroke-linejoin="bevel" stroke-miterlimit="10" d="
				M454.155,251.814c-6.444,0.616-17.159,6.392-20.299,8.466c-2.412-5.327-8.973-11.27-11.611-11.644
				c0.574-0.54,1.188-1.068,1.854-1.588c4.598-3.589,13.345-7.962,19.175-9.532c2.801-0.753,6.816-1.378,10.881-1.699
				c1.397,1.363,4.09,5.681,4.817,11.007C457.364,247.328,454.888,249.74,454.155,251.814z"/>
			<path fill="#C79C52" stroke="#806434" stroke-width="0.8971" stroke-linejoin="bevel" stroke-miterlimit="10" d="
				M425.067,276.355c-4.425-4.566-8.976-8.009-11.396-8.787c-1.856-0.597-3.603-0.545-5.271,0.234c2.69-1.95,2.02-3.037,5.495-8.083
				c2.974-4.315,4.962-7.892,8.35-11.082c2.641,0.373,9.2,6.315,11.609,11.643C430.716,262.354,425.782,272.84,425.067,276.355z"/>
			<path fill="#FFC163" stroke="#B38645" stroke-width="0.8971" stroke-linejoin="bevel" stroke-miterlimit="10" d="
				M405.037,270.484c2.677-3.081,5.495-3.925,8.635-2.915c3.141,1.009,9.868,6.504,15.25,13.12
				c5.383,6.615,9.645,8.859,12.783,9.644s5.046,1.12,12.446-1.121c7.4-2.243,8.971-2.355,12.896-3.813
				c3.926-1.457,6.505-0.785,8.859-0.785s6.504,1.01,11.101,1.458c4.6,0.448,13.009,2.579,18.728-0.784
				c5.719-3.363,5.271-5.943,7.625-9.98s4.71-8.073,9.645-6.728c4.935,1.345,2.578,4.373,2.129,4.709
				c-0.447,0.337-1.681-0.673-3.025-0.561c-1.346,0.112-3.141,4.871-4.263,6.304c-1.12,1.433-4.261,7.938-8.971,10.74
				c-4.709,2.804-7.513,2.916-12.782,2.468c-5.271-0.448-11.102-0.448-15.587-1.794c-4.485-1.347-8.857,0.111-10.876,0.336
				c-2.02,0.225-7.514,1.794-9.42,2.579c-1.904,0.784-4.484,1.905-5.942,2.13c-1.458,0.225-6.614,1.57-9.195,1.01
				c-2.578-0.561-5.045-0.448-8.187-2.579c-3.14-2.13-6.167-3.813-8.97-6.392c-2.804-2.578-3.925-6.279-6.504-8.298
				s-4.485-3.364-6.168-3.925s-2.467-1.458-4.148-0.785c-1.683,0.673-3.027,1.795-4.82,0.785
				C404.477,274.297,404.049,271.622,405.037,270.484z"/>
			
				<path fill="#7BD968" stroke="#598C4E" stroke-width="0.8971" stroke-linecap="round" stroke-linejoin="bevel" stroke-miterlimit="10" d="
				M391.413,298.742c0.336,0.447,1.738,2.188,3.867,2.13c2.13-0.056,4.43-0.447,4.935-1.683"/>
		</g>
	</g>
	<g id="Layer_5">
		<g>
			<path fill="#C79C52" stroke="#806434" stroke-width="0.8971" stroke-linejoin="bevel" stroke-miterlimit="10" d="M565.03,213.08
				c1.84-0.103,3.479,0.499,4.979,1.742c2.541,2.104,6.744,9.705,9.283,17.849c2.538,8.142,5.66,11.808,8.283,13.703
				s4.269,2.916,11.973,3.585c7.704,0.668,9.203,1.147,13.39,1.252c4.186,0.105,6.329,1.688,8.516,2.563
				c2.188,0.876,5.663,3.354,9.764,5.479c4.104,2.125,11.118,7.229,17.679,6.23c6.559-0.998,7.102-3.56,10.786-6.432
				c3.209-2.5,6.416-5,9.887-3.574l-0.001,0.002c-2.193-2.368-4.386-6.546-5.154-8.545c-0.77-1.999-2.081-7.477-4.204-11.828
				c-2.122-4.354-8.908-12.746-12.134-16.453c-3.229-3.707-12.742-10.415-17.738-13.623c-4.996-3.207-15.678-6.396-21.674-7.106
				c-5.997-0.709-15.742,0.101-21.344,1.724c-5.603,1.622-9.08,4.578-14.184,7.972C568.034,211.012,568.253,212.271,565.03,213.08"
				/>
			<path fill="#FFE563" stroke="#E8D46D" stroke-width="0.8971" stroke-linejoin="bevel" stroke-miterlimit="10" d="
				M662.463,264.178c-1.573,0.914-6.905,5.784-12.318,6.637c-5.414,0.853-8.06-0.084-12.784-2.459
				c-4.729-2.376-10.141-4.543-13.805-7.459s-8.267-3.188-10.223-3.729c-1.958-0.542-7.643-1.126-9.703-1.106
				c-2.062,0.021-4.872,0.103-6.31-0.23s-6.727-1.002-8.911-2.48c-2.188-1.479-4.52-2.291-6.643-5.436
				c-2.123-3.146-4.309-5.832-5.952-9.269c-1.645-3.437-1.311-7.288-2.954-10.12c-1.646-2.833-2.914-4.79-4.268-5.936
				s-1.749-2.271-3.56-2.271c0.004,2.449,1.724,12.887,4.17,16.585c2.445,3.7,4.26,6.834,8.09,10.483
				c3.828,3.65,12.739,9.149,22.608,12.255c9.869,3.104,18.241,6.629,25.935,8.835c7.691,2.207,16.654,5.233,21.221,5.411
				c4.564,0.176,7.174-0.928,9.023-2.072C657.929,270.673,660.392,268.447,662.463,264.178z"/>
			<path fill="#7BD968" stroke="#598C4E" stroke-width="0.8971" stroke-linejoin="bevel" stroke-miterlimit="10" d="
				M536.233,228.732c-0.599,1.333-2.682,5.357-1.353,8.559c2.195,5.294,8.005,5.934,9.406,6.435c1.4,0.502,8.066,3.408,15.402-1.725
				c7.335-5.134,12.058-6.265,14.965-7.009c-0.49-2.323-0.72-4.614-1.795-6.467c-1.646-2.832-2.914-4.789-4.269-5.936
				c-1.353-1.146-1.748-2.27-3.561-2.271c-0.145,0.001-0.286,0.003-0.429,0.01c-2.568,2.03-6.945,3.479-9.614,2.887
				c-2.669-0.594-6.717-1.706-7.82-2.1c-0.83-0.296-1.803,0.206-2.171,0.237C542.2,221.989,537.784,225.269,536.233,228.732z"/>
			<path fill="#7BD968" stroke="#598C4E" stroke-width="0.8971" stroke-linejoin="bevel" stroke-miterlimit="10" d="
				M594.067,255.213c-2.017-0.404-4.373-0.994-5.658-1.863c-2.188-1.479-4.52-2.291-6.643-5.436
				c-0.523-0.777-1.053-1.528-1.574-2.266c-3.048,1.441-8.349,5.782-9.9,7.697c-1.551,1.916-4.03,5.392-3.698,9.994
				s-0.604,5.736-0.646,7.651c-0.042,1.916-0.555,3.343,1.653,4.165c2.208,0.823,4.139-0.396,6.442-1.769
				c2.306-1.372,6.121-2.562,9.771-4.785c2.961-1.806,5.134-3.51,6.601-5.312c1.466-1.802,3.583-7.901,3.583-7.901L594.067,255.213
				L594.067,255.213z"/>
			<path fill="#7BD968" stroke="#598C4E" stroke-width="0.8971" stroke-linejoin="bevel" stroke-miterlimit="10" d="
				M662.999,263.816c1.715-1.273,4.604-4.263,5.763-3.908c1.291,0.396,2.062,1.791,2.604,1.646c2.038,1.663,4.049,4.263,3.205,6.258
				c-0.844,1.994-1.58,1.702-2.692,2.02c-1.114,0.316-2.738-0.559-3.79-1.518C667.035,267.354,663.873,265.16,662.999,263.816z"/>
			<path fill="#7BD968" stroke="#598C4E" stroke-width="0.8971" stroke-linejoin="bevel" stroke-miterlimit="10" d="
				M646.217,271.119c-3.093-0.073-5.427-1.04-8.857-2.764c-2.896-1.456-6.052-2.834-8.9-4.353
				c-2.033,3.849-5.354,10.77-1.146,18.548c2.193,4.137,4.129,5.123,5.798,6.975c1.671,1.853,2.465,6.611,5.825,8.806
				c1.678,1.095,2.517,1.22,4.181,0.446c1.665-0.773,2.086-0.984,2.759-2.238c0.671-1.256,3.05-5.721,3.138-8.688
				c0.088-2.968-0.151-7.338-0.566-9.367c-0.414-2.027-2.298-7.182-2.298-7.182l0.072-0.182L646.217,271.119L646.217,271.119z"/>
			<path fill="#94AEFF" stroke="#4464C7" stroke-width="0.8971" stroke-linejoin="bevel" stroke-miterlimit="10" d="
				M544.999,221.351c1.406,0.868,1.165,3.61,1.165,3.61c1.441,0.104,2.023,0.572,2.402,0.961c1.062-1.472,3.482-2.771,5.605-2.003
				c2.125,0.77,4.1,1.321,3.394,5.605c2.82,0.953,6.145,0.206,7.126,0.718c0.98,0.512,1.533,1.504,1.492,1.902
				c-0.041,0.399-0.082,1.984-0.267,2.445c-0.185,0.46-0.716,1.196-1.29,1.146c-0.572-0.051-1.001-0.758-0.971-1.279
				s0.389-1.269,0.112-1.616c-0.274-0.347-0.897-0.42-1.317-0.409c-0.42,0.011-5.326-0.474-5.974-0.494
				c-0.84,1.506-3.336,3.591-6.29,2.526c-2.955-1.064-3.027-2.365-2.849-3.555c0.181-1.191,0.272-2.162,0.272-2.162
				c-1.423-0.45-1.146-0.398-2.066-0.768c-1.299,1.616-3.69,3.735-6.779,2.562s-4.02-3.442-2.146-7.083
				c-1.503-0.839-0.838-0.87-0.838-0.87c1.084-1.82,1.084-1.82,1.084-1.82l2.056,0.941
				C540.428,219.283,544.076,220.781,544.999,221.351z"/>
			<path fill="#FFFFFF" stroke="#4464C7" stroke-width="0.8971" stroke-linejoin="bevel" stroke-miterlimit="10" d="M540.98,222.021
				c2.075-0.078,3.814,2.11,3.742,3.207c-0.071,1.1-1.571,3.931-3.312,4.145c-1.741,0.213-4.038-0.942-4.029-2.342
				C537.389,225.632,538.614,222.111,540.98,222.021z"/>
			<path fill="#E0B577" stroke="#A87C3B" stroke-width="0.8971" stroke-linejoin="bevel" stroke-miterlimit="10" d="
				M540.058,224.949c0.664-0.413,2.343,0.227,2.557,1.023c0.215,0.797-0.411,1.473-0.968,1.529
				c-0.558,0.056-2.306,0.424-2.428-0.457C539.097,226.165,539.188,225.492,540.058,224.949z"/>
			<path fill="#FFFFFF" stroke="#4464C7" stroke-width="0.8971" stroke-linejoin="bevel" stroke-miterlimit="10" d="
				M548.906,230.805c-0.017-2.219,0.701-3.886,1.795-4.485c1.095-0.599,3.476-0.485,4.302,1.508
				c0.825,1.995,0.703,3.368,0.021,4.007c-0.684,0.639-2.449,1.699-3.57,1.3C550.329,232.733,548.915,232.006,548.906,230.805z"/>
			<path fill="#E0B577" stroke="#A87C3B" stroke-width="0.8971" stroke-linejoin="bevel" stroke-miterlimit="10" d="
				M551.214,228.645c0.639-0.188,2.195,1.037,2.224,1.414c0.026,0.375-0.515,1.133-0.775,1.046
				c-0.262-0.088-2.191-0.006-2.301-0.921C550.252,229.267,550.273,228.922,551.214,228.645z"/>
			<path fill="#C79C52" stroke="#806434" stroke-width="0.8971" stroke-linejoin="bevel" stroke-miterlimit="10" d="
				M645.758,216.375c-4.218-3.75-11.333-8.719-15.421-11.344c-2.597-1.667-6.729-3.33-10.94-4.641
				c0.791,1.785,1.685,6.794,0.383,12.009c4.86,0.376,15.553,6.105,18.634,8.969C640.723,220.724,644.39,218.205,645.758,216.375z"
				/>
			<path fill="#C79C52" stroke="#806434" stroke-width="0.8971" stroke-linejoin="bevel" stroke-miterlimit="10" d="
				M642.802,235.385c0.316-4.463-1.943-9.112-4.389-14.017c2.311-0.646,5.977-3.164,7.346-4.993c0.937,0.832,1.73,1.604,2.316,2.277
				c3.227,3.707,10.012,12.102,12.135,16.453c1.78,3.647,2.986,8.082,3.787,10.602c-4.823-3.353-12.188-7.865-15.385-9.084
				C645.415,235.404,642.802,235.385,642.802,235.385z"/>
			<path fill="#C79C52" stroke="#806434" stroke-width="0.8971" stroke-linejoin="bevel" stroke-miterlimit="10" d="
				M663.995,245.708c-4.822-3.353-12.188-7.865-15.384-9.084c-3.197-1.22-5.811-1.239-5.811-1.239
				c-1.694,0.408-9.943,6.649-9.943,6.649c-1.179,3.092,0.291,4.706,0.685,7.34c0.396,2.634,0.237,6.798-0.66,10.794
				c4.181,2.387,10.272,6.188,16.014,5.314c6.56-0.997,7.102-3.559,10.788-6.432c3.209-2.499,6.416-5,9.886-3.573l-0.002,0.001
				c-2.194-2.367-4.384-6.545-5.154-8.544C664.287,246.61,664.148,246.195,663.995,245.708z"/>
			<path fill="#C79C52" stroke="#806434" stroke-width="0.8971" stroke-linejoin="bevel" stroke-miterlimit="10" d="M615.608,230.66
				c-8.56,2.371-16.953,14.894-18.169,19.09c0.649,0.073,1.352,0.142,2.109,0.209c7.704,0.668,9.203,1.146,13.389,1.252
				c4.187,0.106,6.33,1.688,8.517,2.563c2.188,0.875,5.663,3.354,9.765,5.479c0.512,0.267,1.069,0.576,1.664,0.916
				c0.898-3.995,1.057-8.16,0.661-10.794c-0.396-2.635-1.863-4.249-0.686-7.34C631.629,239.367,625.29,232.422,615.608,230.66z"/>
			<path fill="#C79C52" stroke="#806434" stroke-width="0.8971" stroke-linejoin="bevel" stroke-miterlimit="10" d="
				M638.412,221.368c-3.081-2.864-13.771-8.593-18.635-8.969c-1.683-0.13-4.877,1.188-6.327,2.842
				c0.721,1.979,2.274,6.829,2.524,8.923c0.249,2.093-0.316,5.697-0.366,6.496c9.682,1.761,16.021,8.708,17.247,11.373
				c0,0,8.248-6.24,9.945-6.648C643.116,230.921,640.858,226.273,638.412,221.368z"/>
			<path fill="#C79C52" stroke="#806434" stroke-width="0.8971" stroke-linejoin="bevel" stroke-miterlimit="10" d="M613.45,215.241
				c-6.212-1.822-18.306-0.442-21.992,0.315c-3.686,0.759-12.162,8.66-14.133,11.658c0.717,1.75,1.387,3.588,1.969,5.455
				c2.538,8.143,5.66,11.809,8.283,13.703c2.364,1.71,3.934,2.707,9.863,3.377c1.215-4.196,9.608-16.719,18.168-19.09
				c0.049-0.799,0.614-4.403,0.366-6.496C615.729,222.07,614.171,217.221,613.45,215.241z"/>
			<path fill="#C79C52" stroke="#806434" stroke-width="0.8971" stroke-linejoin="bevel" stroke-miterlimit="10" d="M613.45,215.241
				c-6.212-1.822-18.306-0.442-21.992,0.315c-0.258-5.841-4.141-13.796-6.451-15.124c0.732-0.288,1.5-0.551,2.312-0.785
				c5.603-1.623,15.348-2.433,21.345-1.723c2.88,0.341,6.84,1.253,10.732,2.465c0.791,1.786,1.686,6.794,0.383,12.01
				C618.097,212.27,614.901,213.588,613.45,215.241z"/>
			<path fill="#C79C52" stroke="#806434" stroke-width="0.8971" stroke-linejoin="bevel" stroke-miterlimit="10" d="
				M577.325,227.215c-2.41-5.883-5.355-10.771-7.314-12.393c-1.502-1.244-3.141-1.844-4.979-1.742
				c3.223-0.81,3.003-2.068,8.104-5.461c4.363-2.901,7.538-5.482,11.869-7.187c2.313,1.328,6.194,9.282,6.453,15.124
				C587.771,216.315,579.296,224.217,577.325,227.215z"/>
			<path fill="#FFC163" stroke="#B38645" stroke-width="0.8971" stroke-linejoin="bevel" stroke-miterlimit="10" d="
				M560.911,214.321c3.631-1.866,6.56-1.603,9.1,0.502c2.541,2.104,6.744,9.704,9.282,17.848c2.539,8.142,5.661,11.809,8.284,13.704
				s4.269,2.915,11.972,3.585c7.705,0.668,9.204,1.146,13.391,1.252c4.186,0.104,6.329,1.688,8.516,2.563
				c2.188,0.875,5.662,3.354,9.765,5.479s11.118,7.229,17.677,6.23c6.56-0.997,7.103-3.559,10.787-6.432
				c3.688-2.872,7.373-5.745,11.454-2.662c4.08,3.083,0.77,5.019,0.229,5.164c-0.541,0.146-1.312-1.249-2.604-1.646
				c-1.291-0.396-4.726,3.354-6.299,4.269c-1.573,0.915-6.905,5.785-12.319,6.638s-8.059-0.085-12.784-2.46
				c-4.727-2.375-10.141-4.542-13.804-7.458c-3.664-2.917-8.267-3.188-10.223-3.729c-1.958-0.542-7.643-1.127-9.703-1.106
				s-4.872,0.103-6.309-0.23c-1.438-0.334-6.727-1.001-8.912-2.481c-2.188-1.479-4.52-2.29-6.643-5.436
				c-2.123-3.145-4.309-5.832-5.952-9.268c-1.645-3.436-1.311-7.289-2.954-10.121c-1.645-2.832-2.913-4.789-4.268-5.936
				c-1.353-1.146-1.749-2.27-3.561-2.27c-1.812-0.001-3.479,0.54-4.769-1.063C558.974,217.652,559.571,215.01,560.911,214.321z"/>
			
				<path fill="#7BD968" stroke="#598C4E" stroke-width="0.8971" stroke-linecap="round" stroke-linejoin="bevel" stroke-miterlimit="10" d="
				M537.762,235.491c0.146,0.541,0.802,2.677,2.799,3.415c1.998,0.739,4.279,1.23,5.206,0.271"/>
		</g>
		<g>
			<path fill="#C79C52" stroke="#806434" stroke-width="0.8971" stroke-linejoin="bevel" stroke-miterlimit="10" d="
				M417.938,165.149c1.67-0.779,3.414-0.831,5.271-0.234c3.141,1.01,9.868,6.505,15.25,13.12c5.383,6.616,9.645,8.859,12.784,9.644
				c3.14,0.785,5.046,1.122,12.446-1.12c7.4-2.243,8.971-2.355,12.896-3.813s6.504-0.785,8.858-0.785
				c2.355,0,6.504,1.009,11.102,1.458c4.598,0.448,13.008,2.578,18.728-0.785c5.719-3.363,5.27-5.943,7.625-9.979
				c2.05-3.514,4.099-7.027,7.849-6.992l-0.001,0.002c-2.916-1.383-6.502-4.448-7.961-6.018c-1.457-1.569-4.709-6.167-8.297-9.419
				s-13.008-8.522-17.381-10.765s-15.699-4.935-21.529-6.056c-5.83-1.121-16.933-0.112-22.763,1.458
				c-5.831,1.569-14.577,5.942-19.176,9.531c-4.598,3.588-6.729,7.625-10.203,12.671
				C419.956,162.112,420.628,163.199,417.938,165.149"/>
			<path fill="#FFE563" stroke="#E8D46D" stroke-width="0.8971" stroke-linejoin="bevel" stroke-miterlimit="10" d="M527.38,176.378
				c-1.121,1.433-4.261,7.937-8.97,10.74c-4.71,2.804-7.513,2.916-12.783,2.467c-5.271-0.448-11.102-0.448-15.587-1.794
				s-8.858,0.112-10.877,0.336c-2.02,0.225-7.513,1.795-9.418,2.58c-1.906,0.784-4.485,1.904-5.943,2.13
				c-1.458,0.225-6.614,1.569-9.194,1.009s-5.048-0.448-8.187-2.579c-3.141-2.131-6.168-3.812-8.971-6.392
				c-2.806-2.578-3.925-6.279-6.504-8.298s-4.485-3.363-6.168-3.925c-1.683-0.561-2.468-1.458-4.148-0.785
				c0.914,2.271,6.39,11.322,10.035,13.848c3.646,2.525,6.494,4.762,11.406,6.726c4.91,1.966,15.227,3.761,25.544,2.975
				c10.315-0.784,19.397-0.625,27.359-1.436c7.961-0.809,17.406-1.33,21.711-2.862c4.305-1.533,6.315-3.527,7.608-5.277
				C525.586,184.09,527.044,181.111,527.38,176.378z"/>
			<path fill="#7BD968" stroke="#598C4E" stroke-width="0.8971" stroke-linejoin="bevel" stroke-miterlimit="10" d="
				M397.019,190.382c-0.06,1.46-0.496,5.97,1.927,8.448c4.006,4.098,9.637,2.533,11.125,2.478c1.485-0.055,8.756,0.166,13.657-7.325
				c4.9-7.492,8.865-10.297,11.288-12.067c-1.318-1.976-2.382-4.018-4.068-5.337c-2.58-2.019-4.486-3.363-6.168-3.925
				c-1.684-0.562-2.468-1.458-4.149-0.784c-0.134,0.053-0.265,0.109-0.395,0.168c-1.63,2.839-5.155,5.811-7.854,6.253
				c-2.699,0.44-6.87,0.912-8.041,0.957c-0.881,0.033-1.597,0.86-1.927,1.026C400.052,181.904,397.172,186.589,397.019,190.382z"/>
			<path fill="#7BD968" stroke="#598C4E" stroke-width="0.8971" stroke-linejoin="bevel" stroke-miterlimit="10" d="
				M460.553,193.473c-2.021,0.373-4.431,0.703-5.945,0.373c-2.58-0.561-5.048-0.447-8.188-2.578
				c-0.775-0.526-1.545-1.027-2.304-1.518c-2.293,2.471-5.602,8.47-6.33,10.824c-0.729,2.355-1.738,6.504,0.279,10.653
				c2.019,4.149,1.569,5.551,2.241,7.345c0.675,1.794,0.729,3.309,3.084,3.252c2.356-0.057,3.693-1.906,5.324-4.037
				c1.63-2.13,4.73-4.652,7.292-8.073c2.078-2.776,3.462-5.166,4.154-7.384c0.69-2.218,0.39-8.668,0.39-8.668L460.553,193.473
				L460.553,193.473z"/>
			<path fill="#7BD968" stroke="#598C4E" stroke-width="0.8971" stroke-linejoin="bevel" stroke-miterlimit="10" d="
				M527.744,175.843c1.119-1.819,2.688-5.668,3.896-5.77c1.347-0.112,2.578,0.897,3.027,0.562c2.511,0.786,5.344,2.452,5.302,4.617
				c-0.043,2.166-0.834,2.168-1.749,2.876c-0.917,0.708-2.75,0.5-4.082,0C532.806,177.627,529.055,176.766,527.744,175.843z"/>
			<path fill="#7BD968" stroke="#598C4E" stroke-width="0.8971" stroke-linejoin="bevel" stroke-miterlimit="10" d="
				M514.878,188.859c-2.897,1.082-5.426,1.052-9.251,0.727c-3.23-0.275-6.67-0.383-9.881-0.733
				c-0.458,4.329-0.968,11.988,5.827,17.646c3.575,3.025,5.736,3.223,7.976,4.321c2.239,1.099,4.745,5.221,8.682,6.01
				c1.963,0.393,2.788,0.196,4.047-1.14c1.258-1.336,1.57-1.688,1.729-3.103c0.157-1.416,0.706-6.444-0.313-9.231
				c-1.021-2.789-2.869-6.756-4.009-8.485c-1.139-1.729-4.803-5.813-4.803-5.813v-0.196L514.878,188.859L514.878,188.859z"/>
			<path fill="#94AEFF" stroke="#4464C7" stroke-width="0.8971" stroke-linejoin="bevel" stroke-miterlimit="10" d="
				M402.413,180.271c1.629,0.283,2.423,2.918,2.423,2.918c1.377-0.439,2.093-0.221,2.588,0c0.44-1.762,2.204-3.868,4.462-3.943
				c2.258-0.076,4.296-0.297,5.231,3.943c2.974-0.164,5.781-2.092,6.883-1.982c1.101,0.11,1.983,0.826,2.093,1.211
				c0.11,0.387,0.662,1.873,0.662,2.369s-0.221,1.377-0.771,1.543c-0.551,0.166-1.213-0.331-1.377-0.826
				c-0.165-0.496-0.11-1.322-0.496-1.543c-0.385-0.219-0.99-0.056-1.376,0.109c-0.387,0.167-5.122,1.541-5.729,1.762
				c-0.22,1.71-1.763,4.572-4.901,4.683c-3.138,0.111-3.688-1.069-3.965-2.241c-0.274-1.173-0.551-2.108-0.551-2.108
				c-1.487,0.11-1.212,0.056-2.203,0.056c-0.604,1.982-2.038,4.839-5.342,4.896c-3.304,0.059-5.012-1.701-4.627-5.776
				c-1.707-0.221-1.102-0.497-1.102-0.497c0.331-2.093,0.331-2.093,0.331-2.093l2.258,0.11
				C397.401,180.051,401.345,180.086,402.413,180.271z"/>
			<path fill="#FFFFFF" stroke="#4464C7" stroke-width="0.8971" stroke-linejoin="bevel" stroke-miterlimit="10" d="
				M398.932,182.387c1.898-0.844,4.327,0.541,4.668,1.587c0.342,1.048,0,4.233-1.535,5.079c-1.537,0.845-4.101,0.626-4.611-0.678
				C396.939,187.074,396.769,183.35,398.932,182.387z"/>
			<path fill="#E0B577" stroke="#A87C3B" stroke-width="0.8971" stroke-linejoin="bevel" stroke-miterlimit="10" d="
				M399.164,185.448c0.463-0.631,2.258-0.661,2.753,0c0.494,0.66,0.166,1.521-0.33,1.779c-0.496,0.258-1.981,1.251-2.424,0.478
				C398.724,186.934,398.558,186.275,399.164,185.448z"/>
			<path fill="#FFFFFF" stroke="#4464C7" stroke-width="0.8971" stroke-linejoin="bevel" stroke-miterlimit="10" d="
				M409.554,187.596c-0.839-2.055-0.793-3.867,0-4.831c0.793-0.962,3.047-1.743,4.555-0.199c1.508,1.546,1.903,2.866,1.508,3.714
				c-0.396,0.846-1.644,2.487-2.832,2.533C411.593,188.857,410.009,188.707,409.554,187.596z"/>
			<path fill="#E0B577" stroke="#A87C3B" stroke-width="0.8971" stroke-linejoin="bevel" stroke-miterlimit="10" d="
				M410.895,184.732c0.522-0.411,2.424,0.146,2.589,0.486c0.165,0.34-0.056,1.244-0.33,1.26c-0.276,0.016-2.037,0.81-2.479,0
				C410.232,185.668,410.124,185.34,410.895,184.732z"/>
			<path fill="#C79C52" stroke="#806434" stroke-width="0.8971" stroke-linejoin="bevel" stroke-miterlimit="10" d="
				M494.107,138.207c-5.311-1.914-13.763-3.883-18.532-4.801c-3.031-0.582-7.484-0.591-11.883-0.242
				c1.397,1.363,4.089,5.681,4.817,11.007c4.653-1.458,16.708-0.112,20.633,1.401C491.049,144.115,493.517,140.414,494.107,138.207z
				"/>
			<path fill="#C79C52" stroke="#806434" stroke-width="0.8971" stroke-linejoin="bevel" stroke-miterlimit="10" d="
				M498.428,156.954c-1.365-4.261-5.19-7.737-9.284-11.382c1.905-1.458,4.373-5.158,4.965-7.366
				c1.178,0.426,2.201,0.847,2.997,1.255c4.372,2.242,13.792,7.513,17.381,10.764c3.008,2.725,5.774,6.395,7.455,8.436
				c-5.724-1.32-14.237-2.772-17.658-2.717C500.86,156,498.428,156.954,498.428,156.954z"/>
			<path fill="#C79C52" stroke="#806434" stroke-width="0.8971" stroke-linejoin="bevel" stroke-miterlimit="10" d="
				M521.939,158.661c-5.724-1.32-14.237-2.772-17.658-2.717c-3.421,0.057-5.854,1.01-5.854,1.01
				c-1.423,1.009-6.761,9.868-6.761,9.868c0.055,3.308,2.018,4.26,3.363,6.56c1.346,2.298,2.746,6.224,3.396,10.267
				c4.769,0.662,11.837,1.927,16.841-1.018c5.72-3.363,5.271-5.942,7.625-9.979c2.052-3.513,4.1-7.026,7.851-6.991v0.002
				c-2.918-1.383-6.504-4.447-7.961-6.018C522.546,159.391,522.263,159.057,521.939,158.661z"/>
			<path fill="#C79C52" stroke="#806434" stroke-width="0.8971" stroke-linejoin="bevel" stroke-miterlimit="10" d="
				M471.426,162.673c-7.063,5.383-10.204,20.127-9.771,24.475c0.63-0.173,1.307-0.37,2.035-0.59c7.4-2.243,8.971-2.355,12.896-3.813
				c3.925-1.457,6.504-0.785,8.859-0.785c2.354,0,6.503,1.01,11.101,1.458c0.574,0.057,1.206,0.138,1.885,0.231
				c-0.649-4.043-2.052-7.968-3.396-10.268c-1.346-2.298-3.31-3.251-3.363-6.559C489.534,164.803,481.069,160.711,471.426,162.673z"
				/>
			<path fill="#C79C52" stroke="#806434" stroke-width="0.8971" stroke-linejoin="bevel" stroke-miterlimit="10" d="
				M489.144,145.572c-3.926-1.515-15.979-2.86-20.634-1.402c-1.608,0.505-4.086,2.916-4.817,4.99c1.404,1.57,4.65,5.494,5.659,7.346
				c1.01,1.85,1.823,5.407,2.073,6.167c9.645-1.963,18.11,2.13,20.239,4.149c0,0,5.339-8.859,6.764-9.868
				C497.06,152.693,493.236,149.217,489.144,145.572z"/>
			<path fill="#C79C52" stroke="#806434" stroke-width="0.8971" stroke-linejoin="bevel" stroke-miterlimit="10" d="M463.692,149.16
				c-6.445,0.617-17.16,6.393-20.301,8.467c-3.14,2.073-8.072,12.559-8.789,16.075c1.316,1.357,2.62,2.815,3.854,4.333
				c5.383,6.615,9.645,8.859,12.783,9.644c2.83,0.708,4.658,1.051,10.412-0.531c-0.433-4.347,2.709-19.093,9.771-24.475
				c-0.252-0.759-1.064-4.317-2.074-6.167C468.344,154.654,465.097,150.73,463.692,149.16z"/>
			<path fill="#C79C52" stroke="#806434" stroke-width="0.8971" stroke-linejoin="bevel" stroke-miterlimit="10" d="M463.692,149.16
				c-6.445,0.617-17.16,6.393-20.301,8.467c-2.41-5.327-8.971-11.27-11.609-11.644c0.573-0.54,1.188-1.069,1.854-1.589
				c4.599-3.588,13.345-7.961,19.175-9.531c2.802-0.754,6.816-1.379,10.882-1.699c1.397,1.363,4.09,5.681,4.817,11.007
				C466.901,144.675,464.424,147.086,463.692,149.16z"/>
			<path fill="#C79C52" stroke="#806434" stroke-width="0.8971" stroke-linejoin="bevel" stroke-miterlimit="10" d="
				M434.604,173.702c-4.425-4.567-8.976-8.009-11.396-8.787c-1.856-0.597-3.602-0.545-5.271,0.234c2.69-1.95,2.02-3.037,5.495-8.083
				c2.973-4.315,4.96-7.892,8.35-11.082c2.64,0.373,9.199,6.315,11.609,11.643C440.253,159.7,435.319,170.186,434.604,173.702z"/>
			<path fill="#FFC163" stroke="#B38645" stroke-width="0.8971" stroke-linejoin="bevel" stroke-miterlimit="10" d="
				M414.573,167.831c2.678-3.081,5.495-3.925,8.635-2.915c3.141,1.009,9.868,6.504,15.25,13.12
				c5.383,6.615,9.645,8.858,12.783,9.644c3.141,0.784,5.047,1.121,12.446-1.121c7.4-2.243,8.972-2.355,12.896-3.813
				s6.504-0.784,8.859-0.784c2.354,0,6.503,1.009,11.101,1.457c4.598,0.448,13.008,2.579,18.728-0.785
				c5.719-3.363,5.271-5.943,7.625-9.979c2.354-4.037,4.709-8.074,9.644-6.728c4.934,1.345,2.579,4.373,2.13,4.709
				c-0.447,0.337-1.682-0.673-3.027-0.561c-1.346,0.111-3.14,4.871-4.261,6.304s-4.261,7.937-8.972,10.74
				c-4.709,2.804-7.512,2.916-12.782,2.468c-5.271-0.449-11.102-0.449-15.586-1.795c-4.485-1.346-8.859,0.112-10.877,0.336
				c-2.019,0.226-7.513,1.795-9.419,2.58c-1.905,0.784-4.485,1.905-5.943,2.13s-6.614,1.569-9.194,1.009
				c-2.579-0.561-5.046-0.447-8.187-2.578s-6.168-3.813-8.971-6.393c-2.804-2.578-3.925-6.279-6.504-8.297
				c-2.579-2.02-4.484-3.364-6.167-3.925c-1.684-0.562-2.468-1.458-4.149-0.785c-1.682,0.673-3.027,1.794-4.821,0.785
				C414.013,171.644,413.585,168.969,414.573,167.831z"/>
			
				<path fill="#7BD968" stroke="#598C4E" stroke-width="0.8971" stroke-linecap="round" stroke-linejoin="bevel" stroke-miterlimit="10" d="
				M400.949,196.089c0.337,0.448,1.738,2.187,3.868,2.13c2.129-0.057,4.43-0.447,4.934-1.683"/>
		</g>
		<g>
			<path fill="#C79C52" stroke="#806434" stroke-width="0.8971" stroke-linejoin="bevel" stroke-miterlimit="10" d="
				M281.592,266.479c0.898-1.609,2.283-2.673,4.138-3.275c3.137-1.02,11.808-0.502,20.045,1.712
				c8.236,2.214,13.004,1.539,16.009,0.337c3.005-1.201,4.748-2.044,9.437-8.193c4.688-6.15,5.895-7.16,8.224-10.64
				c2.329-3.48,4.813-4.443,6.724-5.821c1.909-1.379,5.863-2.988,9.854-5.315c3.991-2.327,12.057-5.522,14.725-11.597
				s0.795-7.904,0.342-12.555c-0.395-4.049-0.79-8.097,2.271-10.264v0.002c-3.174,0.585-7.876,0.199-9.977-0.22
				c-2.101-0.42-7.429-2.244-12.241-2.78c-4.812-0.537-15.534,0.703-20.393,1.444c-4.859,0.741-15.617,5.188-21.001,7.691
				s-13.795,9.819-17.604,14.505c-3.809,4.686-8.341,13.351-9.969,18.951c-1.627,5.601-0.991,10.121-0.856,16.246
				C281.452,262.834,282.633,263.322,281.592,266.479"/>
			<path fill="#FFE563" stroke="#E8D46D" stroke-width="0.8971" stroke-linejoin="bevel" stroke-miterlimit="10" d="
				M376.903,211.525c-0.07,1.818,1.19,8.929-0.987,13.959c-2.178,5.029-4.385,6.762-8.921,9.482
				c-4.536,2.72-9.264,6.133-13.688,7.668c-4.426,1.534-7.117,5.275-8.622,6.639c-1.506,1.363-5.042,5.852-6.128,7.604
				s-2.521,4.171-3.572,5.206c-1.05,1.036-4.445,5.145-6.864,6.2c-2.42,1.055-4.354,2.591-8.147,2.701
				c-3.793,0.109-7.231,0.518-11.014,0.067c-3.783-0.45-6.858-2.795-10.131-2.921c-3.272-0.128-5.605-0.103-7.297,0.427
				c-1.693,0.53-2.854,0.262-3.824,1.792c2.071,1.307,11.808,5.44,16.242,5.354c4.434-0.086,8.052,0.061,13.184-1.222
				c5.134-1.28,14.549-5.864,22.453-12.539c7.906-6.675,15.363-11.861,21.344-17.178c5.982-5.315,13.336-11.267,15.929-15.028
				c2.593-3.763,3.056-6.557,3.08-8.732C379.962,218.828,379.401,215.561,376.903,211.525z"/>
			<path fill="#7BD968" stroke="#598C4E" stroke-width="0.8971" stroke-linejoin="bevel" stroke-miterlimit="10" d="M279.4,299.181
				c0.806,1.218,3.091,5.131,6.506,5.723c5.647,0.978,9.297-3.588,10.47-4.503c1.175-0.914,7.197-4.989,6.787-13.933
				c-0.41-8.944,1.162-13.538,2.09-16.393c-2.225-0.829-4.282-1.862-6.424-1.944c-3.272-0.127-5.605-0.103-7.297,0.428
				c-1.693,0.529-2.854,0.262-3.824,1.792c-0.076,0.122-0.15,0.243-0.222,0.367c0.341,3.257-0.778,7.729-2.707,9.666
				c-1.931,1.937-5.036,4.761-5.959,5.483c-0.694,0.542-0.791,1.632-0.962,1.959C276.897,290.531,277.305,296.016,279.4,299.181z"/>
			<path fill="#7BD968" stroke="#598C4E" stroke-width="0.8971" stroke-linejoin="bevel" stroke-miterlimit="10" d="M332.724,264.5
				c-1.422,1.486-3.181,3.163-4.603,3.783c-2.42,1.055-4.354,2.59-8.147,2.701c-0.937,0.027-1.854,0.071-2.756,0.118
				c-0.414,3.345,0.416,10.146,1.203,12.481s2.396,6.291,6.462,8.474c4.066,2.183,4.521,3.582,6.117,4.644
				c1.596,1.061,2.527,2.256,4.403,0.831c1.878-1.425,1.879-3.708,1.954-6.389c0.075-2.682,1.113-6.542,1.188-10.814
				c0.06-3.468-0.217-6.216-0.954-8.419c-0.736-2.203-4.756-7.256-4.756-7.256L332.724,264.5L332.724,264.5z"/>
			<path fill="#7BD968" stroke="#598C4E" stroke-width="0.8971" stroke-linejoin="bevel" stroke-miterlimit="10" d="
				M376.886,210.879c-0.158-2.131-1.138-6.171-0.218-6.959c1.026-0.879,2.616-0.782,2.783-1.317
				c2.497-0.832,5.769-1.139,7.002,0.642c1.233,1.781,0.593,2.245,0.265,3.354c-0.328,1.111-1.937,2.015-3.311,2.39
				C382.033,209.362,378.487,210.859,376.886,210.879z"/>
			<path fill="#7BD968" stroke="#598C4E" stroke-width="0.8971" stroke-linejoin="bevel" stroke-miterlimit="10" d="
				M374.071,228.964c-1.717,2.573-3.783,4.027-7.076,6.003c-2.779,1.667-5.631,3.594-8.439,5.189
				c2.162,3.777,6.231,10.286,15.053,10.896c4.669,0.359,6.537-0.746,8.996-1.165c2.458-0.419,6.902,1.456,10.556-0.208
				c1.821-0.831,2.376-1.473,2.614-3.292c0.237-1.82,0.286-2.289-0.414-3.528c-0.702-1.239-3.2-5.638-5.659-7.301
				c-2.46-1.662-6.28-3.799-8.216-4.533c-1.935-0.735-7.297-1.903-7.297-1.903l-0.115-0.159L374.071,228.964L374.071,228.964z"/>
			<path fill="#94AEFF" stroke="#4464C7" stroke-width="0.8971" stroke-linejoin="bevel" stroke-miterlimit="10" d="
				M277.856,287.825c1.486-0.724,3.673,0.948,3.673,0.948c0.859-1.163,1.567-1.404,2.098-1.516c-0.673-1.686-0.477-4.426,1.31-5.809
				c1.787-1.383,3.311-2.754,6.55,0.136c2.315-1.873,3.464-5.08,4.421-5.636c0.958-0.555,2.092-0.49,2.406-0.242
				s1.633,1.131,1.922,1.533c0.291,0.402,0.628,1.245,0.278,1.702c-0.35,0.457-1.177,0.44-1.6,0.136
				c-0.424-0.305-0.864-1.008-1.306-0.961c-0.439,0.047-0.836,0.535-1.051,0.895c-0.216,0.361-3.252,4.247-3.614,4.78
				c0.822,1.517,1.247,4.74-1.233,6.666c-2.48,1.927-3.618,1.293-4.526,0.504c-0.909-0.79-1.681-1.387-1.681-1.387
				c-1.142,0.96-0.95,0.754-1.754,1.334c0.669,1.962,1.18,5.116-1.466,7.098c-2.645,1.98-5.059,1.554-7.132-1.977
				c-1.514,0.819-1.185,0.242-1.185,0.242c-0.957-1.891-0.957-1.891-0.957-1.891l1.896-1.232
				C273.663,290.58,276.882,288.3,277.856,287.825z"/>
			<path fill="#FFFFFF" stroke="#4464C7" stroke-width="0.8971" stroke-linejoin="bevel" stroke-miterlimit="10" d="
				M276.272,291.578c1.045-1.795,3.824-2.093,4.713-1.445c0.89,0.649,2.479,3.433,1.727,5.018c-0.752,1.584-2.957,2.906-4.135,2.15
				C277.399,296.545,275.081,293.625,276.272,291.578z"/>
			<path fill="#E0B577" stroke="#A87C3B" stroke-width="0.8971" stroke-linejoin="bevel" stroke-miterlimit="10" d="
				M278.252,293.925c0.007-0.782,1.444-1.857,2.232-1.611c0.788,0.245,1.024,1.136,0.774,1.636c-0.251,0.5-0.876,2.175-1.686,1.806
				C278.765,295.387,278.245,294.949,278.252,293.925z"/>
			<path fill="#FFFFFF" stroke="#4464C7" stroke-width="0.8971" stroke-linejoin="bevel" stroke-miterlimit="10" d="
				M287.933,289.584c-1.882-1.174-2.906-2.672-2.827-3.917c0.081-1.244,1.45-3.196,3.576-2.826c2.128,0.371,3.222,1.21,3.396,2.128
				c0.174,0.919,0.125,2.979-0.813,3.713C290.325,289.414,288.953,290.219,287.933,289.584z"/>
			<path fill="#E0B577" stroke="#A87C3B" stroke-width="0.8971" stroke-linejoin="bevel" stroke-miterlimit="10" d="
				M287.345,286.479c0.183-0.64,2.05-1.299,2.383-1.12c0.332,0.179,0.684,1.04,0.47,1.214c-0.215,0.175-1.179,1.85-2.011,1.451
				S287.075,287.422,287.345,286.479z"/>
			<path fill="#C79C52" stroke="#806434" stroke-width="0.8971" stroke-linejoin="bevel" stroke-miterlimit="10" d="
				M327.584,200.051c-5.426,1.555-13.432,4.905-17.837,6.953c-2.798,1.302-6.414,3.902-9.777,6.76
				c1.934,0.287,6.642,2.212,10.35,6.104c2.921-3.905,13.482-9.869,17.55-10.939C328.562,206.631,328.396,202.186,327.584,200.051z"
				/>
			<path fill="#C79C52" stroke="#806434" stroke-width="0.8971" stroke-linejoin="bevel" stroke-miterlimit="10" d="M342.06,212.722
				c-3.602-2.655-8.738-3.235-14.19-3.794c0.692-2.298,0.526-6.742-0.286-8.878c1.204-0.345,2.281-0.603,3.164-0.737
				c4.858-0.741,15.58-1.98,20.393-1.445c4.034,0.449,8.426,1.804,10.982,2.477c-5.413,2.279-13.167,6.085-15.907,8.133
				C343.474,210.525,342.06,212.722,342.06,212.722z"/>
			<path fill="#C79C52" stroke="#806434" stroke-width="0.8971" stroke-linejoin="bevel" stroke-miterlimit="10" d="
				M362.122,200.345c-5.413,2.279-13.167,6.085-15.907,8.133c-2.741,2.048-4.155,4.244-4.155,4.244
				c-0.563,1.651,0.293,11.959,0.293,11.959c1.981,2.649,4.131,2.272,6.566,3.35c2.437,1.075,5.87,3.438,8.765,6.336
				c4.253-2.254,10.726-5.365,13.06-10.682c2.668-6.075,0.795-7.904,0.342-12.555c-0.395-4.049-0.79-8.097,2.272-10.264v0.002
				c-3.175,0.586-7.876,0.2-9.977-0.22C363.04,200.581,362.615,200.477,362.122,200.345z"/>
			<path fill="#C79C52" stroke="#806434" stroke-width="0.8971" stroke-linejoin="bevel" stroke-miterlimit="10" d="
				M323.513,233.163c-2.577,8.499,3.507,22.292,6.401,25.564c0.409-0.509,0.843-1.064,1.305-1.67
				c4.688-6.15,5.896-7.161,8.224-10.64c2.33-3.479,4.814-4.443,6.725-5.821c1.909-1.379,5.863-2.988,9.854-5.315
				c0.498-0.29,1.059-0.595,1.664-0.915c-2.895-2.897-6.327-5.26-8.764-6.337c-2.437-1.075-4.586-0.699-6.566-3.349
				C339.442,224.292,330.184,225.928,323.513,233.163z"/>
			<path fill="#C79C52" stroke="#806434" stroke-width="0.8971" stroke-linejoin="bevel" stroke-miterlimit="10" d="
				M327.869,208.928c-4.068,1.069-14.63,7.033-17.55,10.939c-1.01,1.352-1.606,4.757-0.986,6.866
				c2.059,0.451,6.986,1.733,8.889,2.644c1.901,0.909,4.644,3.317,5.291,3.786c6.67-7.235,15.931-8.872,18.838-8.481
				c0,0-0.855-10.308-0.291-11.96C338.456,210.067,333.321,209.486,327.869,208.928z"/>
			<path fill="#C79C52" stroke="#806434" stroke-width="0.8971" stroke-linejoin="bevel" stroke-miterlimit="10" d="
				M309.333,226.733c-4.864,4.272-10.172,15.227-11.504,18.746s0.805,14.908,2.283,18.179c1.861,0.33,3.772,0.748,5.662,1.257
				c8.236,2.214,13.004,1.538,16.009,0.337c2.709-1.082,4.392-1.874,8.131-6.524c-2.895-3.272-8.979-17.065-6.401-25.564
				c-0.648-0.468-3.391-2.876-5.291-3.786C316.321,228.466,311.392,227.184,309.333,226.733z"/>
			<path fill="#C79C52" stroke="#806434" stroke-width="0.8971" stroke-linejoin="bevel" stroke-miterlimit="10" d="
				M309.333,226.733c-4.864,4.272-10.172,15.227-11.504,18.746c-5.072-2.908-13.869-3.887-16.229-2.645
				c0.148-0.774,0.338-1.563,0.574-2.374c1.627-5.601,6.159-14.266,9.969-18.951c1.829-2.25,4.72-5.108,7.826-7.746
				c1.933,0.286,6.642,2.212,10.35,6.104C309.31,221.219,308.713,224.623,309.333,226.733z"/>
			<path fill="#C79C52" stroke="#806434" stroke-width="0.8971" stroke-linejoin="bevel" stroke-miterlimit="10" d="
				M300.112,263.658c-6.26-1.113-11.965-1.241-14.383-0.455c-1.855,0.603-3.239,1.666-4.138,3.275
				c1.041-3.156-0.14-3.645-0.274-9.771c-0.115-5.238-0.597-9.301,0.283-13.871c2.358-1.243,11.156-0.264,16.229,2.645
				C296.497,248.999,298.634,260.388,300.112,263.658z"/>
			<path fill="#FFC163" stroke="#B38645" stroke-width="0.8971" stroke-linejoin="bevel" stroke-miterlimit="10" d="
				M280.436,270.621c0.366-4.065,2.157-6.398,5.294-7.418s11.808-0.502,20.045,1.713c8.236,2.213,13.004,1.538,16.01,0.336
				c3.004-1.201,4.747-2.044,9.436-8.193c4.688-6.15,5.895-7.16,8.224-10.64c2.329-3.48,4.814-4.442,6.724-5.821
				s5.864-2.988,9.854-5.315c3.991-2.327,12.057-5.522,14.725-11.597c2.669-6.075,0.795-7.904,0.342-12.555
				c-0.453-4.651-0.907-9.303,3.881-11.1c4.788-1.797,4.65,2.036,4.483,2.571c-0.166,0.535-1.757,0.438-2.782,1.317
				c-1.025,0.879,0.305,5.787,0.234,7.605c-0.07,1.817,1.191,8.93-0.987,13.959c-2.177,5.029-4.385,6.762-8.921,9.482
				c-4.535,2.721-9.264,6.134-13.688,7.668c-4.424,1.533-7.117,5.275-8.621,6.639c-1.506,1.364-5.042,5.852-6.128,7.604
				c-1.086,1.751-2.521,4.17-3.572,5.206c-1.05,1.035-4.444,5.145-6.865,6.199c-2.419,1.056-4.354,2.591-8.146,2.701
				c-3.793,0.109-7.232,0.518-11.015,0.067c-3.783-0.451-6.857-2.794-10.13-2.921s-5.605-0.104-7.298,0.428
				c-1.691,0.529-2.854,0.262-3.823,1.791c-0.97,1.53-1.405,3.228-3.45,3.459C282.212,274.04,280.3,272.121,280.436,270.621z"/>
			
				<path fill="#7BD968" stroke="#598C4E" stroke-width="0.8971" stroke-linecap="round" stroke-linejoin="bevel" stroke-miterlimit="10" d="
				M285.928,301.507c0.534,0.167,2.689,0.757,4.383-0.536s3.33-2.956,3.017-4.252"/>
		</g>
	</g>
</g>
</svg>
