<?xml version="1.0" encoding="utf-8"?>
<!-- Generator: Adobe Illustrator 15.0.2, SVG Export Plug-In . SVG Version: 6.00 Build 0)  -->
<!DOCTYPE svg PUBLIC "-//W3C//DTD SVG 1.1//EN" "http://www.w3.org/Graphics/SVG/1.1/DTD/svg11.dtd">
<svg version="1.1" id="Layer_1" xmlns="http://www.w3.org/2000/svg" xmlns:xlink="http://www.w3.org/1999/xlink" x="0px" y="0px"
	 width="5000px" height="2800px" viewBox="0 0 5000 2800" enable-background="new 0 0 5000 2800" xml:space="preserve">
<g id="Layer_3">
	<path fill="none" d="M1879.862,2516.941c-40.973-115.877-78.211-205.562-61.069-331.938
		c9.028-66.619,114.375-205.474,104.578-249.479c-2.643-11.896-240.388-132.484-219.918-134.868
		c-56.82,6.625-135.938,184.02-171.406,220.397c-117.749,120.814-221.128,174.736-390.481,184.24
		c-168.213,9.411-289.383-8.645-380.646-165.675c-30.562-52.595-95.802-301.571-87.846-355.272
		c33.861-228.271,449.174-127.436,610.183-250.805c-299.432-145.844,513.139-909.271,718.423-1011.127
		c209.492-103.943,422.46-153.097,653.296-161.687c399.729-14.859,799.252,127.402,1132.188,337.458
		c192.879,121.692,253.973,219.687,405.414,373.56c115.449,117.321,269.229,170.022,374.933,278.405
		c226.312,232.064,56.545,391.225-225.314,294.938c-24.01,151.991-103.754,281.066-243.672,351.73
		c123.045,153.387,304.246,586.633,54.074,711.495c-211.996,105.807-614.134-336.685-724.612-461.759
		c-110.59-125.193,54.902-76.176-144.314-127.535c-79.951-20.615-198.647,7.801-280.157,11.396
		c-91.654,4.053-222.72-10.354-307.97,15.961c-167.058,51.574-49.123-3.994-144.627,117.341
		C2442.02,2302.07,2281.708,2754.1,2038.781,2754.1C1947.442,2754.104,1911.7,2606.98,1879.862,2516.941z"/>
</g>
<g id="Layer_1_1_">
	<g>
		<path fill="#C79C52" stroke="#806434" stroke-width="24.0352" stroke-miterlimit="10" d="M1360.131,1178.754
			c44.75-20.875,91.512-22.25,141.252-6.268c84.129,27.041,264.393,174.262,408.606,351.529
			c144.215,177.248,258.379,237.359,342.504,258.377c84.125,21.027,135.2,30.043,333.491-30.033
			c198.289-60.086,240.353-63.104,345.498-102.164c105.164-39.062,174.262-21.039,237.354-21.039
			c63.118,0,174.25,27.049,297.43,39.062c123.188,12.021,348.516,69.1,501.74-21.027c153.229-90.119,141.211-159.24,204.3-267.386
			c54.924-94.125,109.812-188.271,210.301-187.334l-0.021,0.054c-78.129-37.062-174.229-119.174-213.289-161.23
			c-39.054-42.062-126.191-165.241-222.326-252.366c-96.137-87.131-348.508-228.339-465.676-288.423
			c-117.176-60.09-420.633-132.193-576.846-162.24c-156.223-30.042-453.658-3.009-609.887,39.056
			c-156.229,42.063-390.575,159.235-513.752,255.378c-123.179,96.137-180.265,204.299-273.39,339.495
			C1414.258,1097.381,1432.229,1126.508,1360.131,1178.754"/>
		<path fill="#FFE563" stroke="#E8D46D" stroke-width="24.0352" stroke-miterlimit="10" d="M4292.479,1479.6
			c-30.041,38.396-114.166,212.646-240.354,287.766c-126.182,75.107-201.293,78.124-342.496,66.102
			c-141.229-12.021-297.445-12.021-417.621-48.077c-120.177-36.055-237.352,3.011-291.414,9.017
			c-54.093,6.022-201.298,48.076-252.361,69.108c-51.064,21.023-120.178,51.052-159.244,57.076
			c-39.062,6.021-177.25,42.049-246.363,27.043c-69.105-15.035-135.202-12.008-219.327-69.102
			c-84.127-57.09-165.237-102.157-240.354-171.254c-75.112-69.101-105.147-168.248-174.248-222.322
			c-69.104-54.09-120.179-90.125-165.239-105.16c-45.068-15.032-66.1-39.062-111.167-21.034
			c24.496,60.861,171.205,303.359,268.882,371.001c97.684,67.668,173.983,127.579,305.586,180.213
			c131.592,52.679,407.999,100.75,684.411,79.709c276.409-21.022,519.754-16.75,733.064-38.467
			c213.291-21.662,466.375-35.637,581.707-76.696c115.32-41.072,169.209-94.497,203.854-141.397
			C4244.402,1686.232,4283.464,1606.434,4292.479,1479.6z"/>
		<path fill="#7BD968" stroke="#598C4E" stroke-width="24.0352" stroke-miterlimit="10" d="M799.682,1854.812
			c-1.584,39.104-13.318,159.959,51.606,226.354c107.336,109.803,258.204,67.859,298.057,66.377
			c39.845-1.455,234.595,4.465,365.939-196.253c131.325-200.743,237.557-275.888,302.459-323.337
			c-35.34-52.918-63.815-107.627-109.049-142.99c-69.106-54.082-120.18-90.125-165.244-105.145
			c-45.071-15.037-66.098-39.062-111.166-21.029c-3.584,1.441-7.093,2.934-10.576,4.496
			c-43.676,76.084-138.113,155.715-210.402,167.547c-72.311,11.801-184.065,24.434-215.432,25.65
			c-23.596,0.889-42.779,23.061-51.627,27.5C880.959,1627.66,803.792,1753.191,799.682,1854.812z"/>
		<path fill="#7BD968" stroke="#598C4E" stroke-width="24.0352" stroke-miterlimit="10" d="M2501.949,1937.635
			c-54.194,9.994-118.688,18.818-159.324,9.994c-69.104-15.025-135.201-12.008-219.326-69.098
			c-20.793-14.094-41.392-27.512-61.736-40.646c-61.445,66.187-150.053,226.933-169.602,290.009
			c-19.537,63.109-46.574,174.266,7.497,285.426c54.084,111.168,42.058,148.719,60.084,196.793
			c18.029,48.063,19.521,88.66,82.63,87.123c63.118-1.504,98.959-51.07,142.635-108.146
			c43.676-57.086,126.764-124.664,195.379-216.312c55.668-74.394,92.77-138.423,111.303-197.845
			c18.539-59.41,10.461-232.23,10.461-232.23V1937.635L2501.949,1937.635z"/>
		<path fill="#7BD968" stroke="#598C4E" stroke-width="24.0352" stroke-miterlimit="10" d="M4302.225,1465.279
			c29.987-48.775,72.062-151.881,104.42-154.592c36.062-3,69.095,24.033,81.117,15.025c67.27,21.08,143.156,65.721,142.047,123.73
			c-1.145,58.03-22.346,58.076-46.867,77.047c-24.551,18.978-73.66,13.394-109.379,0
			C4437.834,1513.072,4337.332,1489.988,4302.225,1465.279z"/>
		<path fill="#7BD968" stroke="#598C4E" stroke-width="24.0352" stroke-miterlimit="10" d="M3957.498,1814.032
			c-77.668,28.965-145.369,28.164-247.867,19.438c-86.557-7.37-178.706-10.231-264.74-19.625
			c-12.254,115.978-25.925,321.197,156.134,472.784c95.791,81.031,153.72,86.32,213.696,115.762s127.121,139.894,232.582,161.023
			c52.604,10.523,74.727,5.271,108.43-30.521c33.701-35.818,42.092-45.255,46.318-83.138c4.191-37.935,18.91-172.668-8.449-247.347
			c-27.361-74.707-76.846-181.01-107.377-227.342c-30.498-46.305-128.674-155.759-128.674-155.759v-5.263L3957.498,1814.032
			L3957.498,1814.032z"/>
		<path fill="#94AEFF" stroke="#4464C7" stroke-width="24.0352" stroke-miterlimit="10" d="M944.222,1583.92
			c43.634,7.582,64.925,78.18,64.925,78.18c36.896-11.78,56.071-5.912,69.332,0c11.806-47.196,59.041-103.637,119.531-105.658
			c60.506-2.016,115.109-7.93,140.172,105.658c79.688-4.383,154.904-56.051,184.418-53.112
			c29.514,2.965,53.123,22.145,56.078,32.459c2.955,10.336,17.717,50.184,17.717,63.469c0,13.287-5.895,36.897-20.662,41.338
			c-14.756,4.443-32.463-8.863-36.881-22.143c-4.42-13.279-2.961-35.431-13.281-41.349c-10.297-5.863-26.557-1.487-36.875,2.959
			c-10.34,4.451-137.227,41.261-153.477,47.179c-5.906,45.819-47.23,122.527-131.322,125.475
			c-84.102,2.963-98.867-28.66-106.232-60.055c-7.381-31.421-14.766-56.485-14.766-56.485c-39.846,2.965-32.475,1.482-59.029,1.482
			c-16.221,53.121-54.604,129.648-143.128,131.209c-88.521,1.563-134.271-45.588-123.958-154.784
			c-45.734-5.916-29.516-13.31-29.516-13.31c8.855-56.078,8.855-56.078,8.855-56.078l60.5,2.957
			C809.94,1578.004,915.605,1578.938,944.222,1583.92z"/>
		<path fill="#FFFFFF" stroke="#4464C7" stroke-width="24.0352" stroke-miterlimit="10" d="M850.952,1640.609
			c50.861-22.619,115.916,14.49,125.057,42.504c9.127,28.063,0,113.43-41.17,136.086c-41.181,22.631-109.825,16.768-123.543-18.146
			C797.558,1766.191,792.994,1666.385,850.952,1640.609z"/>
		<path fill="#E0B577" stroke="#A87C3B" stroke-width="24.0352" stroke-miterlimit="10" d="M857.164,1722.635
			c12.407-16.912,60.499-17.705,73.763,0c13.261,17.681,4.445,40.736-8.85,47.67c-13.281,6.943-53.117,33.509-64.917,12.799
			C845.37,1762.434,840.938,1744.785,857.164,1722.635z"/>
		<path fill="#FFFFFF" stroke="#4464C7" stroke-width="24.0352" stroke-miterlimit="10" d="M1135.543,1780.154
			c-22.479-55.029-21.238-103.615,0-129.436c21.256-25.771,81.623-46.691,122.008-5.327c40.406,41.421,51.029,76.793,40.406,99.488
			c-10.635,22.672-44.012,66.646-75.891,67.875C1190.168,1813.973,1147.735,1809.942,1135.543,1780.154z"/>
		<path fill="#E0B577" stroke="#A87C3B" stroke-width="24.0352" stroke-miterlimit="10" d="M1171.457,1703.453
			c14.01-11.023,64.922,3.934,69.348,13.031c4.416,9.086-1.467,33.315-8.85,33.75c-7.389,0.416-54.584,21.678-66.42,0
			C1153.72,1728.516,1150.811,1719.707,1171.457,1703.453z"/>
		<path fill="#C79C52" stroke="#806434" stroke-width="24.0352" stroke-miterlimit="10" d="M3400.988,456.89
			c-142.26-51.296-368.715-104.05-496.543-128.634c-81.188-15.596-200.524-15.824-318.383-6.492
			c37.479,36.538,109.57,152.215,129.104,294.912c124.688-39.053,447.66-3,552.812,37.545
			C3319.045,615.189,3385.146,516.018,3400.988,456.89z"/>
		<path fill="#C79C52" stroke="#806434" stroke-width="24.0352" stroke-miterlimit="10" d="M3516.752,959.175
			c-36.6-114.168-139.104-207.305-248.77-304.953c51.062-39.062,117.175-138.204,133.004-197.354
			c31.559,11.394,59.021,22.686,80.311,33.6c117.162,60.088,369.531,201.297,465.677,288.422c80.593,73,154.761,171.301,199.748,226
			c-153.338-35.37-381.47-74.286-473.126-72.771C3581.91,933.626,3516.752,959.175,3516.752,959.175z"/>
		<path fill="#C79C52" stroke="#806434" stroke-width="24.0352" stroke-miterlimit="10" d="M4146.698,1004.912
			c-153.34-35.375-381.469-74.29-473.126-72.778c-91.664,1.52-156.834,27.041-156.834,27.041
			c-38.117,27.042-181.154,264.395-181.154,264.395c1.486,88.645,54.092,114.159,90.127,175.758
			c36.055,61.566,73.584,166.748,91.027,275.073c127.752,17.75,317.146,51.638,451.239-27.25
			c153.229-90.116,141.221-159.231,204.29-267.386c54.938-94.123,109.812-188.262,210.324-187.321l-0.033,0.048
			c-78.146-37.062-174.229-119.168-213.28-161.227C4162.938,1024.451,4155.357,1015.508,4146.698,1004.912z"/>
		<path fill="#C79C52" stroke="#806434" stroke-width="24.0352" stroke-miterlimit="10" d="M2793.285,1112.402
			c-189.282,144.209-273.396,539.271-261.836,655.748c16.877-4.635,34.996-9.914,54.535-15.812
			c198.293-60.086,240.353-63.1,345.498-102.157c105.168-39.062,174.268-21.039,237.361-21.039
			c63.11,0,174.25,27.043,297.432,39.062c15.375,1.518,32.314,3.676,50.5,6.215c-17.432-108.338-54.979-213.506-91.029-275.096
			c-36.051-61.572-88.656-87.119-90.123-175.736C3278.463,1169.484,3051.654,1059.836,2793.285,1112.402z"/>
		<path fill="#C79C52" stroke="#806434" stroke-width="24.0352" stroke-miterlimit="10" d="M3267.975,654.222
			c-105.15-40.572-428.113-76.624-552.816-37.547c-43.127,13.516-109.485,78.119-129.098,133.688
			c37.631,42.062,124.604,147.211,151.646,196.799c27.039,49.586,48.857,144.897,55.554,165.241
			c258.371-52.594,485.231,57.082,542.27,111.166c0,0,143.039-237.352,181.207-264.393
			C3480.1,845.007,3377.654,751.874,3267.975,654.222z"/>
		<path fill="#C79C52" stroke="#806434" stroke-width="24.0352" stroke-miterlimit="10" d="M2586.07,750.361
			c-172.672,16.527-459.762,171.273-543.895,226.84c-84.123,55.568-216.315,336.492-235.472,430.715
			c35.255,36.373,70.205,75.422,103.28,116.086c144.213,177.26,258.379,237.363,342.502,258.377
			c75.824,18.979,124.788,28.153,278.956-14.219c-11.562-116.471,72.567-511.545,261.83-655.754
			c-6.748-20.338-28.539-115.662-55.556-165.241C2710.699,897.572,2623.709,792.421,2586.07,750.361z"/>
		<path fill="#C79C52" stroke="#806434" stroke-width="24.0352" stroke-miterlimit="10" d="M2586.07,750.361
			c-172.672,16.527-459.762,171.273-543.895,226.84c-64.603-142.719-240.349-301.93-311.081-311.956
			c15.373-14.471,31.85-28.644,49.699-42.562c123.184-96.145,357.522-213.311,513.752-255.379
			c75.036-20.186,182.644-36.939,291.521-45.544c37.479,36.536,109.578,152.214,129.1,294.91
			C2672.049,630.188,2605.682,694.792,2586.07,750.361z"/>
		<path fill="#C79C52" stroke="#806434" stroke-width="24.0352" stroke-miterlimit="10" d="M1806.714,1407.916
			c-118.545-122.359-240.472-214.584-305.331-235.43c-49.746-16.004-96.498-14.607-141.252,6.268
			c72.109-52.248,54.121-81.375,147.268-216.571c79.629-115.611,132.906-211.434,223.688-296.932
			c70.734,10,246.481,169.23,311.081,311.956C1958.055,1032.77,1825.864,1313.693,1806.714,1407.916z"/>
		<path fill="#FFC163" stroke="#B38645" stroke-width="24.0352" stroke-miterlimit="10" d="M1270.043,1250.611
			c71.719-82.564,147.213-105.16,231.34-78.119c84.129,27.041,264.393,174.256,408.606,351.535
			c144.215,177.248,258.379,237.357,342.504,258.375c84.125,21.02,135.2,30.032,333.491-30.031
			c198.293-60.098,240.353-63.109,345.498-102.168c105.168-39.062,174.268-21.027,237.361-21.027
			c63.11,0,174.25,27.043,297.432,39.053c123.186,12.013,348.516,69.103,501.737-21.021c153.228-90.125,141.212-159.244,204.3-267.4
			c63.092-108.154,126.176-216.316,258.377-180.264c132.193,36.057,69.099,117.174,57.076,126.182
			c-12.004,9.02-45.055-18.021-81.104-15.021c-36.06,3-84.133,130.502-114.176,168.896
			c-30.041,38.375-114.172,212.655-240.354,287.77c-126.179,75.116-201.291,78.12-342.5,66.104
			c-141.217-12.018-297.442-12.018-417.608-48.076c-120.17-36.062-237.351,3.002-291.412,9.016
			c-54.092,6.031-201.301,48.074-252.377,69.113c-51.047,21.016-120.168,51.053-159.229,57.076
			c-39.066,6.021-177.25,42.051-246.373,27.034c-69.104-15.02-135.198-11.993-219.321-69.09
			c-84.127-57.09-165.238-102.165-240.351-171.262c-75.114-69.09-105.149-168.244-174.251-222.317
			c-69.104-54.088-120.178-90.131-165.245-105.151c-45.064-15.027-66.095-39.062-111.166-21.029
			c-45.072,18.024-81.115,48.074-129.187,21.029C1255.024,1352.758,1243.564,1281.082,1270.043,1250.611z"/>
		
			<path fill="#7BD968" stroke="#598C4E" stroke-width="24.0352" stroke-linecap="round" stroke-linejoin="round" stroke-miterlimit="10" d="
			M905.001,2007.715c9.013,12,46.579,58.6,103.634,57.078c57.062-1.512,118.692-12,132.2-45.078"/>
	</g>
</g>
<g id="Layer_4">
	<g>
		<path fill="#C79C52" stroke="#806434" stroke-width="5.0983" stroke-miterlimit="10" d="M2720.145,1323.895
			c9.492-4.428,19.412-4.72,29.963-1.328c17.847,5.735,56.082,36.964,86.672,74.564c30.593,37.6,54.81,50.351,72.652,54.808
			c17.844,4.461,28.678,6.373,70.738-6.37c42.062-12.745,50.984-13.387,73.287-21.671c22.309-8.285,36.965-4.464,50.348-4.464
			c13.389,0,36.963,5.737,63.09,8.286c26.132,2.551,73.929,14.657,106.429-4.461c32.502-19.116,29.952-33.776,43.336-56.717
			c11.649-19.967,23.293-39.937,44.608-39.737l-0.006,0.012c-16.572-7.861-36.957-25.278-45.242-34.199
			c-8.283-8.923-26.768-35.051-47.16-53.531c-20.391-18.482-73.924-48.436-98.774-61.181
			c-24.854-12.745-89.226-28.041-122.358-34.414c-33.14-6.372-96.23-0.64-129.369,8.284c-33.139,8.923-82.848,33.775-108.978,54.17
			c-26.129,20.393-38.235,43.336-57.989,72.014C2731.625,1306.634,2735.439,1312.812,2720.145,1323.895"/>
		<path fill="#FFE563" stroke="#E8D46D" stroke-width="5.0983" stroke-miterlimit="10" d="M3342.148,1387.71
			c-6.371,8.146-24.218,45.104-50.982,61.04c-26.766,15.932-42.697,16.572-72.648,14.021c-29.957-2.551-63.094-2.551-88.586-10.198
			c-25.491-7.647-50.346,0.639-61.813,1.913c-11.476,1.276-42.699,10.196-53.531,14.658c-10.832,4.461-25.489,10.828-33.776,12.106
			c-8.285,1.277-37.599,8.919-52.261,5.736c-14.657-3.189-28.678-2.548-46.521-14.657c-17.846-12.11-35.051-21.67-50.984-36.326
			c-15.934-14.657-22.305-35.689-36.961-47.159c-14.658-11.473-25.492-19.117-35.051-22.307c-9.561-3.188-14.02-8.285-23.58-4.462
			c5.195,12.91,36.314,64.349,57.035,78.696c20.721,14.354,36.904,27.062,64.82,38.227c27.912,11.175,86.543,21.372,145.176,16.907
			c58.631-4.459,110.25-3.553,155.496-8.159c45.244-4.596,98.928-7.56,123.391-16.269c24.461-8.713,35.894-20.045,43.24-29.994
			C3331.951,1431.541,3340.236,1414.613,3342.148,1387.71z"/>
		<path fill="#7BD968" stroke="#598C4E" stroke-width="5.0983" stroke-miterlimit="10" d="M2601.263,1467.3
			c-0.336,8.295-2.825,33.931,10.947,48.015c22.769,23.291,54.771,14.395,63.223,14.08c8.452-0.311,49.763,0.945,77.624-41.63
			c27.855-42.582,50.389-58.521,64.156-68.586c-7.496-11.225-13.537-22.83-23.131-30.331c-14.66-11.472-25.492-19.115-35.051-22.303
			c-9.562-3.189-14.021-8.286-23.582-4.461c-0.761,0.306-1.504,0.622-2.242,0.954c-9.267,16.139-29.299,33.028-44.633,35.539
			c-15.336,2.503-39.043,5.184-45.695,5.44c-5.006,0.188-9.074,4.892-10.951,5.833
			C2618.503,1419.116,2602.135,1445.744,2601.263,1467.3z"/>
		<path fill="#7BD968" stroke="#598C4E" stroke-width="5.0983" stroke-miterlimit="10" d="M2962.346,1484.867
			c-11.496,2.12-25.176,3.992-33.795,2.12c-14.658-3.188-28.68-2.548-46.522-14.656c-4.41-2.989-8.781-5.836-13.097-8.622
			c-13.032,14.039-31.827,48.137-35.977,61.517c-4.143,13.388-9.879,36.966,1.592,60.544c11.471,23.581,8.92,31.547,12.744,41.743
			c3.824,10.195,4.141,18.808,17.527,18.48c13.389-0.319,20.992-10.833,30.256-22.939c9.264-12.108,26.889-26.442,41.443-45.884
			c11.809-15.78,19.678-29.362,23.608-41.967c3.933-12.604,2.22-49.26,2.22-49.26V1484.867L2962.346,1484.867z"/>
		<path fill="#7BD968" stroke="#598C4E" stroke-width="5.0983" stroke-miterlimit="10" d="M3344.217,1384.672
			c6.359-10.345,15.285-32.216,22.148-32.792c7.649-0.636,14.656,5.101,17.207,3.188c14.27,4.473,30.367,13.94,30.131,26.246
			c-0.242,12.31-4.74,12.319-9.941,16.343c-5.209,4.024-15.625,2.842-23.2,0C3372.982,1394.811,3351.664,1389.913,3344.217,1384.672
			z"/>
		<path fill="#7BD968" stroke="#598C4E" stroke-width="5.0983" stroke-miterlimit="10" d="M3271.094,1458.649
			c-16.473,6.144-30.834,5.974-52.576,4.123c-18.358-1.563-37.907-2.171-56.155-4.163c-2.601,24.601-5.5,68.132,33.118,100.286
			c20.318,17.188,32.605,18.311,45.328,24.556s26.963,29.673,49.334,34.156c11.158,2.23,15.853,1.118,23-6.476
			c7.148-7.598,8.928-9.599,9.824-17.635c0.891-8.046,4.012-36.626-1.791-52.467c-5.805-15.847-16.301-38.396-22.777-48.224
			c-6.469-9.822-27.293-33.039-27.293-33.039v-1.116L3271.094,1458.649L3271.094,1458.649z"/>
		<path fill="#94AEFF" stroke="#4464C7" stroke-width="5.0983" stroke-miterlimit="10" d="M2631.923,1409.838
			c9.255,1.608,13.771,16.584,13.771,16.584c7.825-2.499,11.894-1.255,14.706,0c2.505-10.012,12.523-21.982,25.354-22.412
			c12.834-0.428,24.417-1.682,29.733,22.412c16.902-0.93,32.857-11.89,39.117-11.267c6.261,0.629,11.271,4.696,11.896,6.885
			c0.627,2.193,3.76,10.646,3.76,13.463c0,2.819-1.25,7.827-4.385,8.771c-3.129,0.94-6.885-1.881-7.822-4.697
			c-0.937-2.816-0.629-7.516-2.817-8.771c-2.185-1.244-5.632-0.314-7.82,0.627c-2.193,0.945-29.108,8.754-32.557,10.009
			c-1.252,9.72-10.019,25.99-27.855,26.614c-17.839,0.629-20.972-6.078-22.534-12.737c-1.563-6.665-3.132-11.981-3.132-11.981
			c-8.451,0.628-6.888,0.314-12.521,0.314c-3.439,11.268-11.582,27.501-30.359,27.832c-18.775,0.332-28.48-9.67-26.293-32.833
			c-9.701-1.255-6.26-2.823-6.26-2.823c1.877-11.896,1.877-11.896,1.877-11.896l12.834,0.626
			C2603.438,1408.583,2625.854,1408.781,2631.923,1409.838z"/>
		<path fill="#FFFFFF" stroke="#4464C7" stroke-width="5.0983" stroke-miterlimit="10" d="M2612.138,1421.863
			c10.789-4.798,24.589,3.074,26.527,9.016c1.937,5.953,0,24.062-8.731,28.866c-8.735,4.801-23.297,3.557-26.207-3.851
			C2600.812,1448.501,2599.845,1427.331,2612.138,1421.863z"/>
		<path fill="#E0B577" stroke="#A87C3B" stroke-width="5.0983" stroke-miterlimit="10" d="M2613.456,1439.263
			c2.632-3.588,12.833-3.756,15.646,0c2.812,3.75,0.942,8.641-1.877,10.111c-2.816,1.473-11.268,7.106-13.771,2.715
			C2610.954,1447.704,2610.014,1443.961,2613.456,1439.263z"/>
		<path fill="#FFFFFF" stroke="#4464C7" stroke-width="5.0983" stroke-miterlimit="10" d="M2672.506,1451.463
			c-4.769-11.672-4.506-21.979,0-27.455c4.51-5.467,17.313-9.904,25.879-1.13c8.571,8.786,10.824,16.289,8.571,21.104
			c-2.256,4.81-9.336,14.137-16.098,14.396C2684.092,1458.637,2675.092,1457.781,2672.506,1451.463z"/>
		<path fill="#E0B577" stroke="#A87C3B" stroke-width="5.0983" stroke-miterlimit="10" d="M2680.123,1435.193
			c2.973-2.338,13.771,0.834,14.71,2.765c0.937,1.927-0.312,7.066-1.877,7.158c-1.567,0.089-11.578,4.599-14.089,0
			C2676.36,1440.51,2675.744,1438.642,2680.123,1435.193z"/>
		<path fill="#C79C52" stroke="#806434" stroke-width="5.0983" stroke-miterlimit="10" d="M3153.049,1170.774
			c-30.176-10.882-78.211-22.07-105.326-27.286c-17.223-3.31-42.534-3.356-67.534-1.377c7.95,7.751,23.241,32.288,27.385,62.556
			c26.449-8.283,94.957-0.636,117.262,7.965C3135.666,1204.354,3149.689,1183.316,3153.049,1170.774z"/>
		<path fill="#C79C52" stroke="#806434" stroke-width="5.0983" stroke-miterlimit="10" d="M3177.604,1277.318
			c-7.764-24.218-29.506-43.975-52.768-64.688c10.83-8.285,24.854-29.314,28.213-41.861c6.693,2.416,12.518,4.812,17.035,7.127
			c24.852,12.745,78.383,42.699,98.777,61.18c17.096,15.484,32.827,36.336,42.368,47.938
			c-32.524-7.502-80.914-15.757-100.356-15.436C3191.426,1271.899,3177.604,1277.318,3177.604,1277.318z"/>
		<path fill="#C79C52" stroke="#806434" stroke-width="5.0983" stroke-miterlimit="10" d="M3311.227,1287.021
			c-32.524-7.505-80.916-15.76-100.356-15.438c-19.443,0.321-33.269,5.735-33.269,5.735c-8.086,5.734-38.426,56.083-38.426,56.083
			c0.314,18.803,11.473,24.215,19.117,37.28c7.648,13.06,15.607,35.37,19.309,58.349c27.099,3.766,67.271,10.954,95.716-5.779
			c32.502-19.116,29.955-33.777,43.334-56.718c11.651-19.966,23.293-39.936,44.612-39.735l-0.006,0.011
			c-16.578-7.86-36.959-25.276-45.242-34.197C3314.672,1291.165,3313.062,1289.268,3311.227,1287.021z"/>
		<path fill="#C79C52" stroke="#806434" stroke-width="5.0983" stroke-miterlimit="10" d="M3024.143,1309.821
			c-40.149,30.59-57.991,114.389-55.539,139.096c3.58-0.982,7.423-2.103,11.566-3.354c42.062-12.744,50.984-13.385,73.287-21.668
			c22.309-8.286,36.965-4.464,50.35-4.464c13.388,0,36.961,5.736,63.091,8.285c3.262,0.322,6.854,0.78,10.713,1.318
			c-3.697-22.98-11.662-45.287-19.31-58.354c-7.647-13.062-18.807-18.479-19.117-37.275
			C3127.059,1321.929,3078.947,1298.671,3024.143,1309.821z"/>
		<path fill="#C79C52" stroke="#806434" stroke-width="5.0983" stroke-miterlimit="10" d="M3124.834,1212.632
			c-22.305-8.604-90.811-16.253-117.264-7.965c-9.148,2.867-23.223,16.572-27.383,28.358c7.981,8.923,26.43,31.226,32.166,41.744
			c5.735,10.519,10.362,30.735,11.784,35.052c54.806-11.156,102.927,12.106,115.025,23.58c0,0,30.34-50.348,38.438-56.082
			C3169.83,1253.102,3148.1,1233.347,3124.834,1212.632z"/>
		<path fill="#C79C52" stroke="#806434" stroke-width="5.0983" stroke-miterlimit="10" d="M2980.189,1233.025
			c-36.627,3.505-97.523,36.33-115.369,48.115c-17.846,11.787-45.885,71.377-49.949,91.363c7.479,7.715,14.893,15.998,21.908,24.624
			c30.59,37.601,54.807,50.349,72.649,54.806c16.084,4.025,26.472,5.974,59.173-3.016c-2.453-24.706,15.393-108.508,55.539-139.098
			c-1.433-4.314-6.054-24.533-11.785-35.051C3006.625,1264.251,2988.174,1241.947,2980.189,1233.025z"/>
		<path fill="#C79C52" stroke="#806434" stroke-width="5.0983" stroke-miterlimit="10" d="M2980.189,1233.025
			c-36.627,3.505-97.523,36.33-115.369,48.115c-13.703-30.272-50.984-64.045-65.986-66.171c3.26-3.069,6.756-6.076,10.541-9.027
			c26.129-20.396,75.838-45.248,108.977-54.171c15.918-4.282,38.742-7.836,61.836-9.66c7.951,7.75,23.244,32.285,27.386,62.556
			C2998.426,1207.534,2984.35,1221.237,2980.189,1233.025z"/>
		<path fill="#C79C52" stroke="#806434" stroke-width="5.0983" stroke-miterlimit="10" d="M2814.873,1372.505
			c-25.145-25.955-51.008-45.518-64.766-49.938c-10.554-3.396-20.47-3.1-29.963,1.328c15.297-11.082,11.479-17.261,31.237-45.938
			c16.892-24.523,28.191-44.849,47.447-62.984c15.006,2.121,52.285,35.896,65.986,66.172
			C2846.975,1292.929,2818.936,1352.52,2814.873,1372.505z"/>
		<path fill="#FFC163" stroke="#B38645" stroke-width="5.0983" stroke-miterlimit="10" d="M2701.035,1339.138
			c15.213-17.514,31.227-22.307,49.072-16.569c17.846,5.734,56.082,36.962,86.672,74.565c30.592,37.599,54.809,50.349,72.651,54.808
			c17.845,4.458,28.679,6.369,70.738-6.37c42.062-12.748,50.983-13.388,73.287-21.672c22.31-8.286,36.965-4.462,50.351-4.462
			c13.387,0,36.961,5.737,63.09,8.284c26.131,2.548,73.928,14.657,106.428-4.459c32.502-19.116,29.953-33.778,43.336-56.721
			c13.383-22.941,26.764-45.885,54.807-38.235c28.041,7.646,14.656,24.854,12.105,26.765c-2.545,1.913-9.555-3.822-17.203-3.188
			c-7.648,0.638-17.846,27.684-24.219,35.826c-6.371,8.142-24.217,45.109-50.984,61.041c-26.764,15.935-42.695,16.571-72.647,14.022
			c-29.955-2.549-63.095-2.549-88.582-10.197c-25.49-7.65-50.349,0.636-61.814,1.911c-11.475,1.28-42.698,10.197-53.532,14.66
			c-10.828,4.458-25.49,10.829-33.775,12.106c-8.287,1.276-37.598,8.92-52.262,5.734c-14.658-3.188-28.678-2.544-46.521-14.655
			c-17.846-12.108-35.051-21.671-50.981-36.327c-15.935-14.654-22.306-35.688-36.963-47.157
			c-14.658-11.474-25.49-19.119-35.052-22.306c-9.559-3.188-14.02-8.286-23.58-4.461c-9.561,3.823-17.207,10.197-27.402,4.461
			C2697.85,1360.804,2695.418,1345.601,2701.035,1339.138z"/>
		
			<path fill="#7BD968" stroke="#598C4E" stroke-width="5.0983" stroke-linecap="round" stroke-linejoin="round" stroke-miterlimit="10" d="
			M2623.604,1499.733c1.911,2.545,9.881,12.43,21.982,12.105c12.104-0.319,25.176-2.545,28.042-9.562"/>
	</g>
</g>
<g id="Layer_5">
	<g>
		<path fill="#C79C52" stroke="#806434" stroke-width="5.0983" stroke-miterlimit="10" d="M3610.32,1012.892
			c10.458-0.583,19.774,2.833,28.311,9.901c14.437,11.958,38.329,55.158,52.754,101.436c14.428,46.273,32.172,67.111,47.081,77.881
			c14.908,10.771,24.257,16.573,68.04,20.375c43.786,3.799,52.307,6.52,76.092,7.116c23.791,0.6,35.977,9.595,48.4,14.567
			c12.43,4.976,32.184,19.062,55.492,31.139c23.312,12.078,63.186,41.082,100.463,35.41c37.277-5.668,40.359-20.227,61.31-36.55
			c18.235-14.207,36.466-28.419,56.183-20.313l-0.01,0.009c-12.463-13.457-24.916-37.202-29.293-48.563
			c-4.373-11.361-11.824-42.488-23.889-67.224c-12.062-24.736-50.629-72.438-68.964-93.507
			c-18.339-21.069-72.414-59.191-100.809-77.421c-28.396-18.231-89.101-36.355-123.182-40.388
			c-34.082-4.03-89.467,0.569-121.304,9.792c-31.836,9.223-51.604,26.022-80.6,45.306
			C3627.393,1001.134,3628.638,1008.289,3610.32,1012.892"/>
		<path fill="#FFE563" stroke="#E8D46D" stroke-width="5.0983" stroke-miterlimit="10" d="M4164.061,1303.292
			c-8.94,5.193-39.244,32.875-70.015,37.722c-30.77,4.845-45.798-0.481-72.655-13.98c-26.864-13.5-57.629-25.814-78.452-42.389
			c-20.824-16.574-46.978-18.117-58.099-21.196c-11.127-3.079-43.431-6.401-55.146-6.285c-11.714,0.115-27.688,0.58-35.856-1.313
			c-8.166-1.893-38.221-5.691-50.648-14.096c-12.423-8.409-25.678-13.021-37.743-30.896c-12.065-17.875-24.487-33.145-33.833-52.673
			c-9.345-19.528-7.443-41.422-16.788-57.518c-9.345-16.098-16.562-27.222-24.25-33.734c-7.69-6.514-9.937-12.902-20.232-12.905
			c0.024,13.916,9.8,73.234,23.704,94.257c13.902,21.025,24.204,38.838,45.972,59.577c21.761,20.748,72.402,52.003,128.495,69.648
			c56.09,17.648,103.675,37.675,147.393,50.212c43.711,12.548,94.651,29.746,120.6,30.753c25.947,1.001,40.771-5.271,51.29-11.777
			C4138.305,1340.195,4152.288,1327.559,4164.061,1303.292z"/>
		<path fill="#7BD968" stroke="#598C4E" stroke-width="5.0983" stroke-miterlimit="10" d="M3446.659,1101.847
			c-3.396,7.576-15.232,30.45-7.681,48.644c12.48,30.084,45.498,33.718,53.463,36.566c7.961,2.854,45.847,19.372,87.534-9.8
			c41.686-29.18,68.527-35.604,85.05-39.832c-2.787-13.207-4.084-26.226-10.201-36.755c-9.348-16.098-16.562-27.221-24.253-33.73
			c-7.689-6.516-9.938-12.903-20.235-12.905c-0.818,0.001-1.627,0.019-2.436,0.053c-14.601,11.54-39.476,19.776-54.644,16.407
			c-15.169-3.376-38.174-9.697-44.446-11.932c-4.717-1.686-10.24,1.168-12.335,1.347
			C3480.57,1063.521,3455.479,1082.159,3446.659,1101.847z"/>
		<path fill="#7BD968" stroke="#598C4E" stroke-width="5.0983" stroke-miterlimit="10" d="M3775.354,1252.346
			c-11.461-2.304-24.856-5.649-32.162-10.591c-12.425-8.406-25.681-13.021-37.746-30.896c-2.982-4.414-5.982-8.682-8.952-12.871
			c-17.317,8.189-47.438,32.86-56.263,43.74c-8.819,10.889-22.907,30.646-21.021,56.8c1.885,26.154-3.442,32.602-3.682,43.489
			c-0.239,10.887-3.146,18.999,9.403,23.67c12.549,4.68,23.515-2.256,36.613-10.052c13.102-7.8,34.79-14.557,55.527-27.196
			c16.827-10.262,29.18-19.946,37.515-30.187c8.333-10.239,20.366-44.907,20.366-44.907L3775.354,1252.346L3775.354,1252.346z"/>
		<path fill="#7BD968" stroke="#598C4E" stroke-width="5.0983" stroke-miterlimit="10" d="M4167.109,1301.241
			c9.748-7.241,26.164-24.229,32.75-22.212c7.338,2.253,11.711,10.181,14.789,9.354c11.586,9.456,23.012,24.229,18.22,35.564
			c-4.8,11.338-8.979,9.676-15.304,11.478c-6.332,1.801-15.562-3.168-21.539-8.623
			C4190.049,1321.342,4172.076,1308.874,4167.109,1301.241z"/>
		<path fill="#7BD968" stroke="#598C4E" stroke-width="5.0983" stroke-miterlimit="10" d="M4071.732,1342.745
			c-17.576-0.418-30.847-5.913-50.345-15.711c-16.463-8.274-34.387-16.104-50.587-24.734
			c-11.556,21.873-30.426,61.208-6.521,105.412c12.476,23.508,23.466,29.116,32.956,39.643
			c9.491,10.525,14.005,37.567,33.106,50.044c9.53,6.219,14.301,6.93,23.76,2.536c9.461-4.396,11.854-5.594,15.675-12.721
			c3.815-7.139,17.335-32.512,17.835-49.375c0.5-16.869-0.864-41.704-3.226-53.234c-2.354-11.522-13.06-40.815-13.06-40.815
			l0.415-1.036L4071.732,1342.745L4071.732,1342.745z"/>
		<path fill="#94AEFF" stroke="#4464C7" stroke-width="5.0983" stroke-miterlimit="10" d="M3496.479,1059.895
			c7.993,4.934,6.621,20.515,6.621,20.515c8.194,0.588,11.509,3.255,13.653,5.465c6.046-8.364,19.798-15.754,31.868-11.384
			c12.074,4.373,23.293,7.513,19.275,31.856c16.037,5.419,34.923,1.173,40.502,4.078c5.578,2.91,8.718,8.549,8.484,10.812
			c-0.232,2.27-0.466,11.28-1.513,13.896c-1.048,2.618-4.069,6.803-7.33,6.512c-3.255-0.288-5.692-4.305-5.518-7.268
			c0.177-2.963,2.21-7.211,0.645-9.188c-1.565-1.968-5.11-2.387-7.493-2.324c-2.388,0.062-30.275-2.692-33.943-2.808
			c-4.774,8.558-18.96,20.405-35.753,14.355c-16.795-6.046-17.21-13.438-16.187-20.2c1.023-6.769,1.546-12.287,1.546-12.287
			c-8.08-2.558-6.513-2.268-11.742-4.36c-7.381,9.182-20.973,21.227-38.529,14.556c-17.554-6.669-22.847-19.562-12.208-40.252
			c-8.54-4.771-4.762-4.948-4.762-4.948c6.163-10.345,6.163-10.345,6.163-10.345l11.682,5.351
			C3470.5,1048.145,3491.234,1056.658,3496.479,1059.895z"/>
		<path fill="#FFFFFF" stroke="#4464C7" stroke-width="5.0983" stroke-miterlimit="10" d="M3473.641,1063.706
			c11.8-0.445,21.687,11.992,21.277,18.229c-0.415,6.245-8.941,22.337-18.835,23.553c-9.894,1.211-22.948-5.355-22.897-13.312
			C3453.227,1084.227,3460.196,1064.214,3473.641,1063.706z"/>
		<path fill="#E0B577" stroke="#A87C3B" stroke-width="5.0983" stroke-miterlimit="10" d="M3468.398,1080.349
			c3.775-2.353,13.31,1.283,14.524,5.815c1.218,4.525-2.336,8.371-5.5,8.688c-3.163,0.32-13.103,2.411-13.793-2.597
			C3462.938,1087.256,3463.456,1083.432,3468.398,1080.349z"/>
		<path fill="#FFFFFF" stroke="#4464C7" stroke-width="5.0983" stroke-miterlimit="10" d="M3518.686,1113.621
			c-0.09-12.608,3.984-22.079,10.203-25.489c6.217-3.399,19.754-2.761,24.445,8.568c4.691,11.342,3.995,19.145,0.114,22.776
			c-3.882,3.627-13.921,9.655-20.295,7.385C3526.775,1124.586,3518.737,1120.447,3518.686,1113.621z"/>
		<path fill="#E0B577" stroke="#A87C3B" stroke-width="5.0983" stroke-miterlimit="10" d="M3531.803,1101.347
			c3.629-1.064,12.477,5.894,12.629,8.034c0.153,2.137-2.915,6.444-4.402,5.948c-1.487-0.5-12.457-0.033-13.08-5.236
			C3526.334,1104.884,3526.456,1102.921,3531.803,1101.347z"/>
		<path fill="#C79C52" stroke="#806434" stroke-width="5.0983" stroke-miterlimit="10" d="M4069.124,1031.619
			c-23.971-21.316-64.407-49.555-87.644-64.475c-14.759-9.472-38.24-18.924-62.187-26.375c4.502,10.149,9.578,38.612,2.176,68.252
			c27.634,2.139,88.394,34.698,105.904,50.972C4040.508,1056.332,4061.345,1042.014,4069.124,1031.619z"/>
		<path fill="#C79C52" stroke="#806434" stroke-width="5.0983" stroke-miterlimit="10" d="M4052.325,1139.657
			c1.792-25.368-11.052-51.79-24.948-79.664c13.133-3.667,33.968-17.98,41.749-28.379c5.315,4.729,9.833,9.118,13.166,12.947
			c18.335,21.068,56.901,68.771,68.968,93.505c10.116,20.73,16.973,45.935,21.52,60.252c-27.408-19.053-69.264-44.698-87.435-51.627
			C4067.172,1139.763,4052.325,1139.657,4052.325,1139.657z"/>
		<path fill="#C79C52" stroke="#806434" stroke-width="5.0983" stroke-miterlimit="10" d="M4172.773,1198.323
			c-27.408-19.054-69.266-44.701-87.435-51.627c-18.17-6.929-33.017-7.039-33.017-7.039c-9.639,2.319-56.517,37.787-56.517,37.787
			c-6.695,17.573,1.652,26.744,3.894,41.715c2.248,14.966,1.346,38.637-3.758,61.345c23.758,13.566,58.383,35.17,91.008,30.205
			c37.277-5.668,40.361-20.226,61.309-36.551c18.238-14.206,36.466-28.418,56.186-20.311l-0.01,0.008
			c-12.47-13.459-24.918-37.201-29.293-48.562C4174.432,1203.451,4173.643,1201.091,4172.773,1198.323z"/>
		<path fill="#C79C52" stroke="#806434" stroke-width="5.0983" stroke-miterlimit="10" d="M3897.775,1112.802
			c-48.644,13.479-96.35,84.646-103.254,108.494c3.688,0.418,7.673,0.806,11.985,1.185c43.786,3.8,52.308,6.521,76.091,7.118
			c23.791,0.599,35.977,9.595,48.402,14.568c12.428,4.975,32.182,19.062,55.492,31.138c2.908,1.512,6.074,3.272,9.456,5.205
			c5.106-22.708,6.003-46.377,3.76-61.349c-2.247-14.97-10.593-24.146-3.896-41.711
			C3988.822,1162.289,3952.8,1122.817,3897.775,1112.802z"/>
		<path fill="#C79C52" stroke="#806434" stroke-width="5.0983" stroke-miterlimit="10" d="M4027.375,1059.993
			c-17.51-16.278-78.268-48.837-105.906-50.974c-9.559-0.737-27.718,6.756-35.96,16.151c4.095,11.25,12.934,38.812,14.35,50.709
			c1.417,11.896-1.802,32.386-2.085,36.92c55.024,10.011,91.055,49.491,98.023,64.638c0,0,46.877-35.466,56.526-37.78
			C4054.107,1114.286,4041.275,1087.87,4027.375,1059.993z"/>
		<path fill="#C79C52" stroke="#806434" stroke-width="5.0983" stroke-miterlimit="10" d="M3885.511,1025.171
			c-35.307-10.356-104.04-2.514-124.987,1.796c-20.948,4.312-69.125,49.213-80.325,66.257c4.075,9.941,7.881,20.388,11.188,31.002
			c14.427,46.275,32.17,67.11,47.079,77.88c13.438,9.715,22.355,15.383,56.057,19.19c6.902-23.849,54.613-95.017,103.254-108.496
			c0.273-4.537,3.498-25.024,2.084-36.92C3898.448,1063.985,3889.607,1036.422,3885.511,1025.171z"/>
		<path fill="#C79C52" stroke="#806434" stroke-width="5.0983" stroke-miterlimit="10" d="M3885.511,1025.171
			c-35.307-10.356-104.04-2.514-124.987,1.796c-1.472-33.197-23.532-78.406-36.67-85.955c4.168-1.639,8.529-3.13,13.142-4.464
			c31.837-9.224,87.223-13.824,121.304-9.792c16.369,1.94,38.879,7.124,60.997,14.012c4.502,10.15,9.581,38.612,2.177,68.253
			C3911.914,1008.283,3893.754,1015.774,3885.511,1025.171z"/>
		<path fill="#C79C52" stroke="#806434" stroke-width="5.0983" stroke-miterlimit="10" d="M3680.199,1093.225
			c-13.698-33.439-30.439-61.213-41.568-70.432c-8.535-7.073-17.852-10.483-28.311-9.901c18.319-4.604,17.071-11.758,46.072-31.039
			c24.794-16.489,42.84-31.159,67.456-40.841c13.144,7.546,35.2,52.756,36.669,85.955
			C3739.574,1031.278,3691.398,1076.18,3680.199,1093.225z"/>
		<path fill="#FFC163" stroke="#B38645" stroke-width="5.0983" stroke-miterlimit="10" d="M3586.914,1019.942
			c20.633-10.606,37.28-9.104,51.716,2.853c14.438,11.957,38.33,55.156,52.754,101.437c14.429,46.272,32.173,67.109,47.081,77.881
			c14.909,10.77,24.258,16.571,68.039,20.375c43.788,3.797,52.31,6.52,76.094,7.116c23.789,0.598,35.976,9.596,48.4,14.569
			c12.428,4.976,32.182,19.062,55.493,31.137c23.312,12.077,63.186,41.082,100.462,35.412c37.279-5.669,40.361-20.229,61.312-36.553
			c20.95-16.325,41.899-32.652,65.092-15.13c23.19,17.52,4.37,28.521,1.292,29.347c-3.074,0.83-7.45-7.099-14.787-9.352
			c-7.338-2.251-26.855,19.067-35.799,24.26c-8.939,5.19-39.246,32.879-70.018,37.722c-30.769,4.847-45.797-0.481-72.656-13.979
			c-26.862-13.499-57.628-25.814-78.448-42.387c-20.821-16.575-46.979-18.121-58.098-21.198
			c-11.129-3.076-43.431-6.401-55.147-6.284c-11.709,0.114-27.688,0.581-35.854-1.312c-8.168-1.896-38.222-5.691-50.65-14.099
			c-12.424-8.406-25.678-13.019-37.743-30.895c-12.066-17.874-24.486-33.146-33.83-52.673c-9.347-19.526-7.444-41.421-16.791-57.518
			c-9.345-16.098-16.56-27.223-24.25-33.732c-7.689-6.513-9.938-12.903-20.234-12.904c-10.296-0.004-19.764,3.072-27.098-6.042
			C3575.905,1038.873,3579.298,1023.854,3586.914,1019.942z"/>
		
			<path fill="#7BD968" stroke="#598C4E" stroke-width="5.0983" stroke-linecap="round" stroke-linejoin="round" stroke-miterlimit="10" d="
			M3455.347,1140.26c0.828,3.073,4.554,15.211,15.908,19.409c11.356,4.201,24.319,6.994,29.587,1.544"/>
	</g>
	<g>
		<path fill="#C79C52" stroke="#806434" stroke-width="5.0983" stroke-miterlimit="10" d="M2774.344,740.484
			c9.492-4.429,19.412-4.721,29.963-1.329c17.846,5.735,56.082,36.964,86.672,74.564c30.593,37.6,54.81,50.351,72.652,54.808
			c17.844,4.461,28.678,6.373,70.738-6.37c42.062-12.745,50.984-13.386,73.287-21.671c22.309-8.285,36.965-4.463,50.348-4.463
			c13.389,0,36.963,5.736,63.09,8.285c26.132,2.551,73.929,14.657,106.429-4.461c32.502-19.115,29.952-33.776,43.336-56.717
			c11.649-19.967,23.293-39.936,44.608-39.736l-0.006,0.011c-16.572-7.861-36.957-25.278-45.242-34.199
			c-8.283-8.923-26.768-35.051-47.16-53.531c-20.391-18.481-73.924-48.436-98.774-61.181
			c-24.854-12.745-89.226-28.041-122.358-34.414c-33.14-6.372-96.23-0.639-129.369,8.284s-82.848,33.775-108.978,54.17
			c-26.129,20.393-38.235,43.336-57.989,72.014C2785.824,723.223,2789.639,729.403,2774.344,740.484"/>
		<path fill="#FFE563" stroke="#E8D46D" stroke-width="5.0983" stroke-miterlimit="10" d="M3396.348,804.299
			c-6.371,8.146-24.217,45.105-50.981,61.04c-26.767,15.933-42.697,16.572-72.648,14.021c-29.957-2.551-63.094-2.551-88.586-10.198
			c-25.491-7.647-50.346,0.639-61.813,1.913c-11.476,1.276-42.699,10.197-53.531,14.659c-10.832,4.46-25.49,10.828-33.777,12.105
			c-8.285,1.277-37.598,8.919-52.26,5.736c-14.658-3.189-28.678-2.547-46.521-14.657c-17.846-12.11-35.051-21.67-50.983-36.326
			c-15.935-14.656-22.305-35.688-36.961-47.159c-14.658-11.473-25.492-19.116-35.051-22.307c-9.562-3.188-14.021-8.285-23.58-4.462
			c5.194,12.91,36.313,64.349,57.034,78.697c20.722,14.354,36.904,27.062,64.82,38.226c27.912,11.175,86.543,21.372,145.176,16.908
			c58.632-4.46,110.25-3.553,155.496-8.16c45.244-4.595,98.929-7.559,123.392-16.268c24.461-8.713,35.894-20.045,43.24-29.994
			C3386.15,848.13,3394.436,831.203,3396.348,804.299z"/>
		<path fill="#7BD968" stroke="#598C4E" stroke-width="5.0983" stroke-miterlimit="10" d="M2655.462,883.889
			c-0.336,8.295-2.825,33.931,10.947,48.015c22.768,23.291,54.77,14.395,63.223,14.08c8.452-0.311,49.763,0.945,77.624-41.63
			c27.855-42.582,50.389-58.521,64.156-68.586c-7.496-11.225-13.537-22.83-23.131-30.331c-14.66-11.472-25.492-19.115-35.052-22.303
			c-9.561-3.189-14.021-8.286-23.582-4.461c-0.76,0.306-1.504,0.622-2.241,0.954c-9.267,16.139-29.299,33.029-44.633,35.539
			c-15.337,2.503-39.043,5.184-45.695,5.441c-5.007,0.188-9.074,4.891-10.951,5.832
			C2672.702,835.706,2656.334,862.333,2655.462,883.889z"/>
		<path fill="#7BD968" stroke="#598C4E" stroke-width="5.0983" stroke-miterlimit="10" d="M3016.545,901.457
			c-11.496,2.12-25.176,3.992-33.795,2.12c-14.658-3.188-28.68-2.547-46.523-14.656c-4.409-2.989-8.78-5.836-13.096-8.622
			c-13.033,14.039-31.828,48.137-35.977,61.518c-4.144,13.387-9.879,36.965,1.592,60.544c11.471,23.581,8.92,31.546,12.744,41.742
			c3.824,10.195,4.141,18.808,17.527,18.48c13.389-0.319,20.991-10.833,30.256-22.939c9.264-12.108,26.889-26.442,41.443-45.884
			c11.809-15.78,19.678-29.361,23.608-41.967c3.932-12.604,2.219-49.26,2.219-49.26L3016.545,901.457L3016.545,901.457z"/>
		<path fill="#7BD968" stroke="#598C4E" stroke-width="5.0983" stroke-miterlimit="10" d="M3398.416,801.261
			c6.359-10.345,15.285-32.216,22.148-32.792c7.649-0.636,14.655,5.101,17.207,3.188c14.27,4.473,30.366,13.94,30.131,26.246
			c-0.242,12.31-4.74,12.319-9.941,16.343c-5.209,4.025-15.625,2.842-23.201,0C3427.182,811.399,3405.863,806.502,3398.416,801.261z
			"/>
		<path fill="#7BD968" stroke="#598C4E" stroke-width="5.0983" stroke-miterlimit="10" d="M3325.293,875.239
			c-16.473,6.144-30.834,5.974-52.576,4.123c-18.358-1.563-37.908-2.171-56.156-4.163c-2.6,24.601-5.5,68.132,33.119,100.286
			c20.318,17.188,32.605,18.311,45.328,24.556s26.963,29.673,49.334,34.156c11.158,2.23,15.852,1.118,23-6.476
			c7.148-7.598,8.928-9.599,9.824-17.635c0.891-8.046,4.012-36.626-1.791-52.467c-5.805-15.847-16.301-38.396-22.777-48.224
			c-6.469-9.822-27.293-33.039-27.293-33.039v-1.116L3325.293,875.239L3325.293,875.239z"/>
		<path fill="#94AEFF" stroke="#4464C7" stroke-width="5.0983" stroke-miterlimit="10" d="M2686.122,826.427
			c9.255,1.608,13.771,16.584,13.771,16.584c7.826-2.499,11.895-1.255,14.707,0c2.504-10.012,12.523-21.982,25.354-22.412
			c12.834-0.428,24.417-1.682,29.733,22.412c16.902-0.93,32.857-11.89,39.117-11.267c6.26,0.629,11.271,4.697,11.896,6.885
			c0.627,2.193,3.76,10.646,3.76,13.463c0,2.819-1.25,7.827-4.385,8.771c-3.129,0.94-6.886-1.881-7.822-4.697
			s-0.629-7.516-2.818-8.771c-2.184-1.243-5.631-0.314-7.819,0.628c-2.193,0.944-29.108,8.753-32.557,10.008
			c-1.253,9.72-10.019,25.99-27.855,26.614c-17.84,0.628-20.973-6.078-22.534-12.737c-1.563-6.665-3.132-11.981-3.132-11.981
			c-8.451,0.628-6.889,0.314-12.521,0.314c-3.439,11.268-11.582,27.501-30.359,27.832c-18.775,0.332-28.48-9.67-26.293-32.833
			c-9.701-1.255-6.261-2.823-6.261-2.823c1.878-11.896,1.878-11.896,1.878-11.896l12.833,0.627
			C2657.638,825.172,2680.052,825.371,2686.122,826.427z"/>
		<path fill="#FFFFFF" stroke="#4464C7" stroke-width="5.0983" stroke-miterlimit="10" d="M2666.337,838.453
			c10.789-4.798,24.589,3.074,26.527,9.016c1.937,5.953,0,24.062-8.732,28.866c-8.735,4.801-23.296,3.557-26.206-3.85
			C2655.012,865.09,2654.044,843.92,2666.337,838.453z"/>
		<path fill="#E0B577" stroke="#A87C3B" stroke-width="5.0983" stroke-miterlimit="10" d="M2667.655,855.852
			c2.632-3.588,12.833-3.756,15.646,0c2.812,3.75,0.942,8.641-1.877,10.111c-2.816,1.473-11.268,7.107-13.771,2.715
			C2665.153,864.293,2664.213,860.55,2667.655,855.852z"/>
		<path fill="#FFFFFF" stroke="#4464C7" stroke-width="5.0983" stroke-miterlimit="10" d="M2726.705,868.052
			c-4.77-11.672-4.506-21.979,0-27.455c4.509-5.467,17.312-9.903,25.879-1.13c8.571,8.786,10.824,16.289,8.571,21.104
			c-2.257,4.81-9.336,14.137-16.099,14.396C2738.291,875.226,2729.291,874.371,2726.705,868.052z"/>
		<path fill="#E0B577" stroke="#A87C3B" stroke-width="5.0983" stroke-miterlimit="10" d="M2734.322,851.783
			c2.973-2.338,13.771,0.834,14.71,2.765c0.937,1.927-0.312,7.066-1.877,7.158c-1.567,0.089-11.578,4.599-14.089,0
			C2730.561,857.099,2729.943,855.231,2734.322,851.783z"/>
		<path fill="#C79C52" stroke="#806434" stroke-width="5.0983" stroke-miterlimit="10" d="M3207.248,587.364
			c-30.176-10.881-78.211-22.07-105.326-27.286c-17.223-3.31-42.535-3.356-67.535-1.377c7.951,7.751,23.242,32.288,27.386,62.556
			c26.448-8.283,94.957-0.636,117.262,7.965C3189.865,620.942,3203.889,599.906,3207.248,587.364z"/>
		<path fill="#C79C52" stroke="#806434" stroke-width="5.0983" stroke-miterlimit="10" d="M3231.803,693.908
			c-7.764-24.217-29.506-43.975-52.768-64.688c10.83-8.285,24.854-29.314,28.213-41.86c6.693,2.416,12.518,4.811,17.035,7.127
			c24.852,12.745,78.383,42.698,98.776,61.179c17.097,15.485,32.828,36.336,42.369,47.938
			c-32.524-7.502-80.914-15.757-100.356-15.436C3245.625,688.489,3231.803,693.908,3231.803,693.908z"/>
		<path fill="#C79C52" stroke="#806434" stroke-width="5.0983" stroke-miterlimit="10" d="M3365.426,703.61
			c-32.524-7.505-80.916-15.76-100.356-15.438c-19.443,0.321-33.269,5.735-33.269,5.735c-8.086,5.734-38.426,56.083-38.426,56.083
			c0.314,18.803,11.473,24.215,19.117,37.281c7.647,13.059,15.606,35.369,19.309,58.348c27.098,3.766,67.271,10.954,95.715-5.779
			c32.502-19.116,29.955-33.776,43.334-56.718c11.652-19.966,23.293-39.935,44.613-39.735l-0.006,0.012
			c-16.578-7.861-36.959-25.277-45.242-34.198C3368.871,707.754,3367.262,705.857,3365.426,703.61z"/>
		<path fill="#C79C52" stroke="#806434" stroke-width="5.0983" stroke-miterlimit="10" d="M3078.342,726.411
			c-40.149,30.59-57.992,114.389-55.539,139.096c3.58-0.981,7.422-2.103,11.566-3.354c42.062-12.745,50.983-13.386,73.287-21.669
			c22.309-8.286,36.965-4.463,50.35-4.463c13.387,0,36.961,5.735,63.09,8.284c3.263,0.322,6.855,0.78,10.713,1.318
			c-3.696-22.98-11.662-45.287-19.309-58.354c-7.648-13.062-18.807-18.479-19.117-37.275
			C3181.258,738.518,3133.146,715.26,3078.342,726.411z"/>
		<path fill="#C79C52" stroke="#806434" stroke-width="5.0983" stroke-miterlimit="10" d="M3179.033,629.221
			c-22.305-8.604-90.812-16.253-117.264-7.965c-9.148,2.867-23.224,16.572-27.384,28.358c7.982,8.923,26.431,31.226,32.166,41.745
			c5.736,10.518,10.363,30.734,11.785,35.051c54.805-11.156,102.926,12.106,115.024,23.58c0,0,30.341-50.348,38.438-56.082
			C3224.029,669.691,3202.299,649.936,3179.033,629.221z"/>
		<path fill="#C79C52" stroke="#806434" stroke-width="5.0983" stroke-miterlimit="10" d="M3034.389,649.615
			c-36.627,3.505-97.522,36.33-115.369,48.116c-17.846,11.786-45.885,71.377-49.948,91.362c7.479,7.715,14.893,15.998,21.907,24.624
			c30.591,37.601,54.808,50.35,72.65,54.807c16.084,4.024,26.471,5.973,59.172-3.017c-2.453-24.706,15.394-108.508,55.539-139.098
			c-1.432-4.314-6.053-24.533-11.785-35.051C3060.824,680.84,3042.373,658.537,3034.389,649.615z"/>
		<path fill="#C79C52" stroke="#806434" stroke-width="5.0983" stroke-miterlimit="10" d="M3034.389,649.615
			c-36.627,3.505-97.522,36.33-115.369,48.116c-13.702-30.273-50.983-64.046-65.985-66.172c3.26-3.069,6.756-6.075,10.541-9.027
			c26.129-20.396,75.838-45.248,108.977-54.171c15.918-4.282,38.742-7.835,61.836-9.66c7.951,7.75,23.244,32.286,27.386,62.556
			C3052.625,624.124,3038.549,637.827,3034.389,649.615z"/>
		<path fill="#C79C52" stroke="#806434" stroke-width="5.0983" stroke-miterlimit="10" d="M2869.072,789.094
			c-25.146-25.955-51.008-45.518-64.767-49.938c-10.553-3.396-20.469-3.1-29.963,1.329c15.298-11.083,11.48-17.262,31.238-45.938
			c16.892-24.522,28.19-44.849,47.447-62.984c15.006,2.121,52.284,35.896,65.985,66.173
			C2901.174,709.518,2873.135,769.108,2869.072,789.094z"/>
		<path fill="#FFC163" stroke="#B38645" stroke-width="5.0983" stroke-miterlimit="10" d="M2755.234,755.727
			c15.213-17.514,31.227-22.307,49.071-16.569c17.847,5.734,56.082,36.962,86.673,74.565c30.592,37.599,54.809,50.349,72.651,54.808
			c17.845,4.458,28.679,6.37,70.738-6.37c42.062-12.748,50.983-13.387,73.287-21.672c22.31-8.286,36.965-4.461,50.351-4.461
			c13.387,0,36.961,5.736,63.09,8.283c26.131,2.549,73.928,14.657,106.428-4.459c32.502-19.116,29.953-33.778,43.336-56.721
			c13.383-22.941,26.764-45.885,54.807-38.236c28.041,7.646,14.656,24.854,12.105,26.766c-2.545,1.913-9.555-3.822-17.203-3.188
			c-7.648,0.638-17.846,27.684-24.219,35.826c-6.371,8.141-24.217,45.109-50.984,61.041c-26.764,15.935-42.695,16.571-72.647,14.022
			c-29.955-2.55-63.095-2.55-88.582-10.197c-25.49-7.65-50.349,0.636-61.814,1.911c-11.475,1.279-42.698,10.197-53.532,14.66
			c-10.828,4.458-25.49,10.828-33.775,12.106c-8.287,1.276-37.598,8.92-52.262,5.734c-14.658-3.188-28.678-2.544-46.521-14.655
			c-17.846-12.109-35.051-21.671-50.981-36.327c-15.935-14.655-22.306-35.688-36.963-47.158
			c-14.658-11.473-25.49-19.119-35.052-22.305c-9.559-3.188-14.02-8.286-23.58-4.461c-9.561,3.823-17.207,10.197-27.402,4.461
			C2752.049,777.393,2749.617,762.19,2755.234,755.727z"/>
		
			<path fill="#7BD968" stroke="#598C4E" stroke-width="5.0983" stroke-linecap="round" stroke-linejoin="round" stroke-miterlimit="10" d="
			M2677.803,916.323c1.911,2.545,9.88,12.43,21.982,12.105c12.104-0.319,25.176-2.545,28.042-9.562"/>
	</g>
	<g>
		<path fill="#C79C52" stroke="#806434" stroke-width="5.0983" stroke-miterlimit="10" d="M1999.458,1316.369
			c5.104-9.146,12.978-15.189,23.517-18.615c17.827-5.794,67.107-2.854,113.918,9.73c46.812,12.581,73.91,8.744,90.986,1.915
			c17.079-6.827,26.982-11.618,53.627-46.568c26.646-34.953,33.504-40.694,46.738-60.466c13.239-19.775,27.36-25.254,38.211-33.087
			c10.855-7.836,33.328-16.983,56.004-30.208c22.68-13.228,68.521-31.387,83.684-65.909c15.164-34.522,4.517-44.919,1.94-71.352
			c-2.24-23.009-4.488-46.015,12.912-58.33l0.001,0.012c-18.038,3.326-44.761,1.135-56.7-1.249
			c-11.938-2.387-42.219-12.752-69.569-15.801c-27.352-3.052-88.289,3.995-115.898,8.207
			c-27.613,4.214-88.757,29.486-119.354,43.713c-30.6,14.229-78.399,55.806-100.047,82.437
			c-21.646,26.631-47.404,75.877-56.653,107.706c-9.25,31.828-5.638,57.519-4.87,92.332
			C1998.665,1295.654,2005.374,1298.432,1999.458,1316.369"/>
		<path fill="#FFE563" stroke="#E8D46D" stroke-width="5.0983" stroke-miterlimit="10" d="M2541.141,1004.053
			c-0.397,10.333,6.767,50.746-5.609,79.332c-12.377,28.583-24.92,38.428-50.698,53.891c-25.782,15.466-52.649,34.86-77.796,43.58
			s-40.447,29.984-49,37.73c-8.556,7.752-28.653,33.26-34.824,43.218c-6.172,9.956-14.33,23.699-20.301,29.586
			c-5.97,5.886-25.265,29.237-39.016,35.239c-13.752,5.993-24.743,14.72-46.3,15.345c-21.558,0.625-41.103,2.945-62.601,0.388
			c-21.498-2.56-38.975-15.884-57.571-16.604c-18.601-0.723-31.858-0.58-41.476,2.429c-9.618,3.011-16.217,1.488-21.73,10.185
			c11.77,7.427,67.107,30.92,92.307,30.426c25.202-0.49,45.762,0.342,74.932-6.945c29.172-7.275,82.68-33.324,127.606-71.262
			c44.929-37.933,87.313-67.41,121.303-97.628c33.996-30.207,75.789-64.031,90.525-85.411c14.733-21.381,17.37-37.261,17.505-49.628
			C2558.527,1045.561,2555.337,1026.985,2541.141,1004.053z"/>
		<path fill="#7BD968" stroke="#598C4E" stroke-width="5.0983" stroke-miterlimit="10" d="M1987.002,1502.225
			c4.583,6.924,17.568,29.166,36.979,32.523c32.093,5.559,52.834-20.385,59.504-25.588c6.672-5.197,40.901-28.359,38.573-79.187
			c-2.338-50.831,6.604-76.942,11.875-93.162c-12.647-4.714-24.338-10.588-36.508-11.055c-18.601-0.721-31.858-0.579-41.474,2.432
			c-9.619,3.01-16.219,1.488-21.731,10.187c-0.437,0.691-0.854,1.384-1.26,2.086c1.934,18.508-4.423,43.929-15.388,54.938
			c-10.97,11.007-28.623,27.056-33.865,31.159c-3.949,3.082-4.495,9.275-5.465,11.14
			C1972.779,1453.066,1975.093,1484.236,1987.002,1502.225z"/>
		<path fill="#7BD968" stroke="#598C4E" stroke-width="5.0983" stroke-miterlimit="10" d="M2290.057,1305.127
			c-8.08,8.448-18.076,17.973-26.16,21.5c-13.75,5.996-24.746,14.721-46.301,15.347c-5.324,0.157-10.535,0.408-15.665,0.675
			c-2.351,19.011,2.368,57.658,6.835,70.936c4.478,13.278,13.625,35.755,36.728,48.159c23.103,12.406,25.696,20.356,34.766,26.387
			c9.068,6.027,14.365,12.824,25.028,4.726c10.669-8.097,10.68-21.07,11.105-36.31c0.424-15.24,6.324-37.178,6.748-61.459
			c0.338-19.707-1.231-35.325-5.42-47.846s-27.033-41.239-27.033-41.239L2290.057,1305.127L2290.057,1305.127z"/>
		<path fill="#7BD968" stroke="#598C4E" stroke-width="5.0983" stroke-miterlimit="10" d="M2541.04,1000.379
			c-0.897-12.109-6.462-35.068-1.235-39.552c5.832-4.993,14.869-4.443,15.818-7.486c14.188-4.726,32.782-6.47,39.792,3.646
			c7.009,10.123,3.368,12.764,1.505,19.069c-1.867,6.312-11.006,11.449-18.812,13.58
			C2570.298,991.762,2550.146,1000.27,2541.04,1000.379z"/>
		<path fill="#7BD968" stroke="#598C4E" stroke-width="5.0983" stroke-miterlimit="10" d="M2525.05,1103.16
			c-9.761,14.623-21.505,22.891-40.217,34.116c-15.801,9.478-32.007,20.427-47.969,29.493
			c12.291,21.468,35.418,58.461,85.551,61.929c26.535,2.044,37.154-4.237,51.125-6.62c13.972-2.383,39.229,8.277,59.993-1.182
			c10.353-4.722,13.507-8.37,14.857-18.711c1.351-10.345,1.621-13.008-2.354-20.049c-3.987-7.045-18.186-32.045-32.161-41.493
			c-13.98-9.45-35.689-21.591-46.693-25.769c-10.994-4.178-41.467-10.814-41.467-10.814l-0.654-0.904L2525.05,1103.16
			L2525.05,1103.16z"/>
		<path fill="#94AEFF" stroke="#4464C7" stroke-width="5.0983" stroke-miterlimit="10" d="M1978.229,1437.689
			c8.445-4.113,20.873,5.385,20.873,5.385c4.884-6.605,8.909-7.979,11.925-8.607c-3.829-9.583-2.712-25.154,7.439-33.012
			c10.156-7.859,18.813-15.655,37.228,0.77c13.16-10.647,19.683-28.873,25.123-32.03c5.443-3.154,11.887-2.788,13.674-1.38
			c1.792,1.411,9.279,6.431,10.928,8.715c1.65,2.285,3.566,7.078,1.578,9.677c-1.986,2.595-6.685,2.505-9.092,0.77
			c-2.409-1.734-4.909-5.726-7.418-5.462c-2.5,0.271-4.75,3.04-5.975,5.086c-1.225,2.051-18.479,24.135-20.539,27.169
			c4.673,8.614,7.089,26.938-7.009,37.885c-14.097,10.95-20.562,7.346-25.728,2.86c-5.169-4.488-9.552-7.881-9.552-7.881
			c-6.485,5.455-5.4,4.285-9.969,7.584c3.806,11.148,6.706,29.076-8.327,40.336c-15.029,11.258-28.752,8.828-40.536-11.231
			c-8.601,4.659-6.728,1.375-6.728,1.375c-5.439-10.744-5.439-10.744-5.439-10.744l10.771-7.004
			C1954.399,1453.344,1972.689,1440.385,1978.229,1437.689z"/>
		<path fill="#FFFFFF" stroke="#4464C7" stroke-width="5.0983" stroke-miterlimit="10" d="M1969.226,1459.02
			c5.94-10.204,21.737-11.897,26.786-8.217c5.055,3.693,14.083,19.51,9.815,28.519c-4.273,9.004-16.808,16.518-23.501,12.217
			C1975.634,1487.246,1962.459,1470.648,1969.226,1459.02z"/>
		<path fill="#E0B577" stroke="#A87C3B" stroke-width="5.0983" stroke-miterlimit="10" d="M1980.479,1472.355
			c0.034-4.449,8.207-10.558,12.688-9.158c4.476,1.395,5.821,6.453,4.396,9.297c-1.423,2.844-4.977,12.357-9.577,10.262
			C1983.391,1480.664,1980.438,1478.18,1980.479,1472.355z"/>
		<path fill="#FFFFFF" stroke="#4464C7" stroke-width="5.0983" stroke-miterlimit="10" d="M2035.498,1447.686
			c-10.698-6.672-16.518-15.184-16.069-22.261c0.456-7.071,8.241-18.164,20.322-16.062c12.092,2.106,18.31,6.873,19.301,12.095
			c0.986,5.22,0.705,16.927-4.625,21.097C2049.091,1446.721,2041.293,1451.295,2035.498,1447.686z"/>
		<path fill="#E0B577" stroke="#A87C3B" stroke-width="5.0983" stroke-miterlimit="10" d="M2032.151,1430.035
			c1.042-3.635,11.653-7.383,13.545-6.367c1.887,1.014,3.883,5.912,2.668,6.902c-1.22,0.99-6.696,10.506-11.423,8.246
			C2032.212,1436.549,2030.619,1435.395,2032.151,1430.035z"/>
		<path fill="#C79C52" stroke="#806434" stroke-width="5.0983" stroke-miterlimit="10" d="M2260.844,938.837
			c-30.835,8.839-76.333,27.882-101.371,39.523c-15.9,7.396-36.453,22.174-55.564,38.411c10.983,1.632,37.744,12.576,58.818,34.693
			c16.598-22.197,76.621-56.094,99.739-62.175C2266.403,976.237,2265.461,950.973,2260.844,938.837z"/>
		<path fill="#C79C52" stroke="#806434" stroke-width="5.0983" stroke-miterlimit="10" d="M2343.113,1010.854
			c-20.469-15.092-49.662-18.386-80.646-21.564c3.932-13.057,2.994-38.316-1.626-50.455c6.841-1.959,12.966-3.426,17.984-4.192
			c27.61-4.211,88.546-11.256,115.897-8.209c22.926,2.551,47.885,10.248,62.412,14.071c-30.763,12.954-74.829,34.583-90.406,46.224
			C2351.148,998.369,2343.113,1010.854,2343.113,1010.854z"/>
		<path fill="#C79C52" stroke="#806434" stroke-width="5.0983" stroke-miterlimit="10" d="M2457.136,940.51
			c-30.764,12.953-74.832,34.583-90.407,46.223c-15.576,11.641-23.616,24.121-23.616,24.121c-3.2,9.384,1.669,67.964,1.669,67.964
			c11.26,15.062,23.475,12.919,37.32,19.038c13.846,6.112,33.357,19.545,49.808,36.009c24.175-12.808,60.956-30.492,74.224-60.708
			c15.165-34.523,4.52-44.92,1.939-71.352c-2.238-23.009-4.487-46.013,12.916-58.33l0.002,0.013
			c-18.043,3.329-44.763,1.137-56.7-1.248C2462.355,941.854,2459.939,941.258,2457.136,940.51z"/>
		<path fill="#C79C52" stroke="#806434" stroke-width="5.0983" stroke-miterlimit="10" d="M2237.708,1127.028
			c-14.649,48.303,19.931,126.69,36.38,145.288c2.328-2.893,4.787-6.05,7.415-9.49c26.646-34.953,33.505-40.694,46.74-60.464
			c13.237-19.776,27.358-25.255,38.212-33.089s33.326-16.981,56.004-30.207c2.833-1.648,6.015-3.381,9.458-5.201
			c-16.448-16.47-35.962-29.895-49.81-36.013c-13.847-6.113-26.064-3.976-37.318-19.034
			C2328.241,1076.608,2275.619,1085.91,2237.708,1127.028z"/>
		<path fill="#C79C52" stroke="#806434" stroke-width="5.0983" stroke-miterlimit="10" d="M2262.466,989.29
			c-23.122,6.078-83.144,39.974-99.741,62.176c-5.739,7.681-9.129,27.03-5.604,39.021c11.695,2.562,39.706,9.849,50.514,15.021
			c10.807,5.17,26.393,18.855,30.071,21.521c37.907-41.123,90.541-50.426,107.065-48.205c0,0-4.867-58.58-1.658-67.971
			C2322.636,995.768,2293.455,992.469,2262.466,989.29z"/>
		<path fill="#C79C52" stroke="#806434" stroke-width="5.0983" stroke-miterlimit="10" d="M2157.122,1090.486
			c-27.646,24.279-57.81,86.537-65.381,106.539s4.571,84.729,12.975,103.313c10.579,1.878,21.438,4.255,32.177,7.143
			c46.81,12.582,73.906,8.745,90.983,1.915c15.397-6.149,24.959-10.649,46.212-37.078c-16.449-18.597-51.029-96.988-36.381-145.289
			c-3.687-2.66-19.268-16.35-30.071-21.522C2196.833,1100.332,2168.818,1093.047,2157.122,1090.486z"/>
		<path fill="#C79C52" stroke="#806434" stroke-width="5.0983" stroke-miterlimit="10" d="M2157.122,1090.486
			c-27.646,24.279-57.81,86.537-65.381,106.539c-28.83-16.526-78.825-22.088-92.233-15.031c0.846-4.397,1.921-8.881,3.263-13.49
			c9.249-31.83,35.007-81.076,56.654-107.707c10.399-12.789,26.827-29.029,44.483-44.025c10.982,1.631,37.743,12.573,58.817,34.693
			C2156.988,1059.145,2153.596,1078.493,2157.122,1090.486z"/>
		<path fill="#C79C52" stroke="#806434" stroke-width="5.0983" stroke-miterlimit="10" d="M2104.718,1300.338
			c-35.579-6.328-68-7.051-81.743-2.584c-10.543,3.424-18.41,9.468-23.517,18.615c5.916-17.94-0.794-20.715-1.559-55.532
			c-0.658-29.77-3.393-52.864,1.605-78.839c13.408-7.062,63.404-1.497,92.233,15.031
			C2084.17,1217.027,2096.312,1281.755,2104.718,1300.338z"/>
		<path fill="#FFC163" stroke="#B38645" stroke-width="5.0983" stroke-miterlimit="10" d="M1992.886,1339.913
			c2.084-23.104,12.263-36.363,30.09-42.158s67.106-2.854,113.919,9.731c46.811,12.58,73.908,8.742,90.986,1.915
			c17.078-6.83,26.981-11.62,53.627-46.568c26.645-34.956,33.504-40.695,46.738-60.467c13.238-19.776,27.36-25.252,38.213-33.086
			c10.854-7.835,33.327-16.981,56.003-30.209c22.679-13.229,68.521-31.386,83.685-65.908c15.164-34.524,4.516-44.92,1.938-71.354
			c-2.577-26.434-5.156-52.868,22.058-63.08c27.213-10.213,26.432,11.572,25.48,14.615c-0.943,3.041-9.982,2.493-15.812,7.485
			c-5.828,4.993,1.732,32.891,1.332,43.224c-0.4,10.33,6.768,50.75-5.611,79.334c-12.375,28.584-24.919,38.427-50.697,53.892
			c-25.78,15.466-52.648,34.862-77.792,43.579c-25.146,8.716-40.451,29.983-49.001,37.729c-8.555,7.754-28.653,33.26-34.825,43.22
			c-6.17,9.952-14.33,23.7-20.299,29.585c-5.972,5.886-25.264,29.238-39.019,35.238c-13.75,5.996-24.741,14.723-46.298,15.346
			c-21.557,0.626-41.104,2.944-62.6,0.386c-21.497-2.558-38.974-15.882-57.572-16.603c-18.601-0.723-31.858-0.583-41.476,2.43
			c-9.615,3.011-16.217,1.487-21.729,10.185c-5.514,8.696-7.983,18.339-19.608,19.656
			C2002.984,1359.344,1992.114,1348.439,1992.886,1339.913z"/>
		
			<path fill="#7BD968" stroke="#598C4E" stroke-width="5.0983" stroke-linecap="round" stroke-linejoin="round" stroke-miterlimit="10" d="
			M2024.1,1515.447c3.04,0.944,15.286,4.295,24.91-3.051c9.626-7.345,18.924-16.8,17.142-24.166"/>
	</g>
</g>
</svg>
