<svg version="1.1" id="Layer_1" xmlns="http://www.w3.org/2000/svg" xmlns:xlink="http://www.w3.org/1999/xlink" x="0px" y="0px" width="547.5px" height="300px" viewBox="0 0 547.5 300" enable-background="new 0 0 547.5 300" xml:space="preserve"><defs></defs><path d="M331,145C331,187.89600000000002,331,222.671,215,222.671C99,222.671,99,187.896,99,145C99,102.10400000000001,99,67.329,215,67.329C331,67.329,331,102.104,331,145" class="undeformed-curve" stroke="#bbbbbb" style="fill-opacity: 0; stroke-width: 3px; stroke-dasharray: 10px, 10px;"></path><line x1="331" x2="331" y1="145" y2="187.89599609375" class="control-point-tangents" stroke="#000000" style="stroke-width: 2px;"></line><line x1="215" x2="331" y1="222.67100524902344" y2="222.67100524902344" class="control-point-tangents" stroke="#000000" style="stroke-width: 2px;"></line><line x1="215" x2="99" y1="222.67100524902344" y2="222.67100524902344" class="control-point-tangents" stroke="#000000" style="stroke-width: 2px;"></line><line x1="99" x2="99" y1="145" y2="187.89599609375" class="control-point-tangents" stroke="#000000" style="stroke-width: 2px;"></line><line x1="99" x2="99" y1="145" y2="102.10399627685547" class="control-point-tangents" stroke="#000000" style="stroke-width: 2px;"></line><line x1="215" x2="99" y1="67.3290023803711" y2="67.3290023803711" class="control-point-tangents" stroke="#000000" style="stroke-width: 2px;"></line><line x1="215" x2="331" y1="67.3290023803711" y2="67.3290023803711" class="control-point-tangents" stroke="#000000" style="stroke-width: 2px;"></line><line x1="331" x2="331" y1="145" y2="102.10399627685547" class="control-point-tangents" stroke="#000000" style="stroke-width: 2px;"></line><circle cx="331" cy="187.89599609375" r="5" class="control-point-inner" fill="#da5555" stroke="#000000" style="stroke-width: 2px;"></circle><circle cx="331" cy="222.67100524902344" r="5" class="control-point-inner" fill="#da5555" stroke="#000000" style="stroke-width: 2px;"></circle><circle cx="99" cy="222.67100524902344" r="5" class="control-point-inner" fill="#da5555" stroke="#000000" style="stroke-width: 2px;"></circle><circle cx="99" cy="187.89599609375" r="5" class="control-point-inner" fill="#da5555" stroke="#000000" style="stroke-width: 2px;"></circle><circle cx="99" cy="102.10399627685547" r="5" class="control-point-inner" fill="#da5555" stroke="#000000" style="stroke-width: 2px;"></circle><circle cx="99" cy="67.3290023803711" r="5" class="control-point-inner" fill="#da5555" stroke="#000000" style="stroke-width: 2px;"></circle><circle cx="331" cy="67.3290023803711" r="5" class="control-point-inner" fill="#da5555" stroke="#000000" style="stroke-width: 2px;"></circle><circle cx="331" cy="102.10399627685547" r="5" class="control-point-inner" fill="#da5555" stroke="#000000" style="stroke-width: 2px;"></circle><circle cx="331" cy="145" r="10" class="control-point-handle" fill="#5555da" stroke="#000000" style="stroke-width: 2px;"></circle><circle cx="215" cy="222.67100524902344" r="10" class="control-point-handle" fill="#5555da" stroke="#000000" style="stroke-width: 2px;"></circle><circle cx="99" cy="145" r="10" class="control-point-handle" fill="#5555da" stroke="#000000" style="stroke-width: 2px;"></circle><circle cx="215" cy="67.3290023803711" r="10" class="control-point-handle" fill="#5555da" stroke="#000000" style="stroke-width: 2px;"></circle></svg>