<svg version="1.1" id="Layer_1" xmlns="http://www.w3.org/2000/svg" xmlns:xlink="http://www.w3.org/1999/xlink" x="0px" y="0px" width="792px" height="612px" viewBox="0 0 792 612" enable-background="new 0 0 792 612" xml:space="preserve"><defs><rect width="10" height="10" class="svg---mgr"></rect></defs><path d="M127.65299987792969 297.42999267578125 C 120.5790023803711 292.77801513671875 105.34600067138672 295.03399658203125 108.13700103759766 304.6820068359375 C 117.25800323486328 336.22698974609375 169.4040069580078 365.9339904785156 200.15899658203125 366.48199462890625 C 268.7349853515625 367.7019958496094 355.4620056152344 272 378.07000732421875 326.3680114746094 C 392.07000732421875 360.0350036621094 432.0690002441406 392.3680114746094 485.989013671875 381.3500061035156 C 502.697998046875 377.9360046386719 517.5549926757812 363.5039978027344 527.7979736328125 353.2439880371094 C 533.06201171875 347.9700012207031 558.2020263671875 325.89300537109375 562.0280151367188 349.5929870605469 C 565.0999755859375 368.6419982910156 515.8389892578125 392.70001220703125 495.8890075683594 398.2980041503906 C 481.3949890136719 402.3630065917969 455.84600830078125 400.0830078125 444.9100036621094 395.7590026855469 C 408.6390075683594 381.41900634765625 379.43701171875 338.3680114746094 350.0690002441406 331.3689880371094 C 314 322.77398681640625 274.4800109863281 367.9840087890625 242.49600219726562 377.989990234375 C 220.86399841308594 384.7590026855469 193.21200561523438 381.8089904785156 169.89100646972656 381.7720031738281 C 117.76100158691406 381.6860046386719 136.73599243164062 338.0360107421875 114.73600006103516 358.3689880371094 C 104.697998046875 367.6470031738281 123.16200256347656 393.6889953613281 134.11700439453125 396.3800048828125 C 149.84500122070312 438.3039855957031 160.94500732421875 468.04998779296875 204.46600341796875 472.0889892578125 C 318.38800048828125 482.6650085449219 469.34100341796875 493 597.4660034179688 467.9849853515625 C 678.8099975585938 452.10198974609375 712.5700073242188 368.4590148925781 656.5029907226562 315.593994140625 C 625.8099975585938 286.656005859375 581.9349975585938 271.427001953125 547.9459838867188 255.21200561523438 C 488.1940002441406 226.7030029296875 437.52801513671875 164.35499572753906 371.2590026855469 130.35299682617188 C 355.3710021972656 122.20099639892578 338.1600036621094 115.15599822998047 321.1109924316406 109.86599731445312 C 290.6990051269531 100.4280014038086 258.3800048828125 99.31999969482422 230.33999633789062 116.2969970703125 C 196.6020050048828 136.7209930419922 174.91799926757812 175.13299560546875 156.56399536132812 208.79100036621094 C 141.8249969482422 235.82200622558594 136.36199951171875 265.49700927734375 127.65299987792969 297.42999267578125" style="opacity: 0;"></path><rect x="246" y="253" width="10" height="10" rx="2" ry="2" class="handle-original" fill="#da55da" stroke="#000000" data-handle_index="0" style="stroke-width: 2px; opacity: 0;"></rect><rect x="608" y="362" width="10" height="10" rx="2" ry="2" class="handle-original" fill="#da55da" stroke="#000000" data-handle_index="1" style="stroke-width: 2px; opacity: 0;"></rect><rect x="243" y="433" width="10" height="10" rx="2" ry="2" class="handle-original" fill="#da55da" stroke="#000000" data-handle_index="2" style="stroke-width: 2px; opacity: 0;"></rect><rect x="246" y="253" width="10" height="10" rx="2" ry="2" class="handle" fill="#da55da" stroke="#000000" data-handle_index="0" transform="matrix(1,0,0,1,2,-129)" style="stroke-width: 2px;"></rect><rect x="608" y="362" width="10" height="10" rx="2" ry="2" class="handle" fill="#da55da" stroke="#000000" data-handle_index="1" transform="matrix(0.5091,-0.8147,0.8147,0.5091,-19.1345,680.6159)" style="stroke-width: 2px;"></rect><rect x="243" y="433" width="10" height="10" rx="2" ry="2" class="handle" fill="#da55da" stroke="#000000" data-handle_index="2" transform="matrix(1.4214,0.6628,-0.6628,1.4214,185.7972,-348.9275)" style="stroke-width: 2px;"></rect></svg>