<svg version="1.1" id="Layer_1" xmlns="http://www.w3.org/2000/svg" xmlns:xlink="http://www.w3.org/1999/xlink" x="0px" y="0px" width="300px" height="512px" viewBox="0 0 300 512" enable-background="new 0 0 300 512" xml:space="preserve"><defs></defs><path d="M135.050003052,434.925994873L134.547730034,434.362312115L134.06585336,433.697868353L133.604059239,432.934753528L133.16203388,432.075057582L132.739463495,431.120870457L132.336034293,430.074282094L131.951432485,428.937382434L131.58534428,427.712261419L131.237455888,426.40100899L130.907453521,425.005715089L130.595023387,423.528469656L130.299851697,421.971362634L130.021624661,420.336483964L129.76232972590958,418.62706446489614L129.5232729814468,416.8460377158285L129.30387581493125,414.9954189046432L129.10485467902444,413.07788307707756L128.92856704478132,411.0969773980129L128.77391611145907,409.0545118448249L128.64782990197423,406.9565153682751L128.54888711096154,404.804745389466L128.48035005482797,402.6034723272438L128.44131660326192,400.35480178394795L128.4330796434181,398.0620552615107L128.45796679775336,395.72919505981184L128.5119017723297,393.3566625913652L128.60107145189968,390.9506905650219L128.7217762228851,388.51199997815473L128.87710785999292,386.04522890340814L129.0608751941403,383.54963513274873L129.2736449913966,381.028397377011L129.5193232711635,378.48679306410486L129.79198025785482,375.9241881310163L130.09580243336362,373.34614478383395L130.42461925305824,370.75182748621523L130.78271534680582,368.1469818820019L131.16455211408203,365.5311255438633L131.57269773626246,362.90901090742045L132.00056599843407,360.27936086112504L132.4479780163294,357.6450775110212L132.91838989216407,355.0116381924279L133.40638372192956,352.37844180733634L133.91349093713097,349.74970062173884L134.43648224698703,347.12627001951205L134.97476969639712,344.51087098356754L135.5248006476509,341.90400731656445L136.08312695840448,339.306134679959L136.64889682004085,336.7196061397597L137.2235013873158,334.14855757101384L137.8021687324101,331.59225132164744L138.38415632930466,329.05304391441973L138.97021389956205,326.53453819454603L139.55597540985082,324.03604197608524L140.14141790351084,321.5604090713693L140.72407720750107,319.1083508853887L141.3031236223579,316.6819184705204L141.87692193084237,314.28238152781904L142.44341284336306,311.9105098907703L143.00100742629735,309.5673824197173L143.5512258395429,307.25699964671975L144.0888427292819,304.97674695145906L144.61331362307877,302.7283498310907L145.12418356438624,300.5135581460196L145.61932442698253,298.33228132005735L146.09981076249983,296.18767097185315L146.5637976389575,294.07970591992796L147.01021658641184,292.0090218533469L147.43888203922089,289.9771087438537L147.84957304108966,287.985326922688L148.24173202228556,286.0345343955876L148.61462922096987,284.12523796688185L148.96832433368948,282.2587628797743L149.30246432116743,280.4358122474606L149.61749113384798,278.6579784871714L149.9134650638553,276.92627895874864L150.18923905546384,275.2399786200471L150.44586626551228,273.6011355126059L150.6836807632766,272.01077745948453L150.9022149661021,270.4686795938176L151.10184995536736,268.97567452578943L151.28386388874065,267.5338465042636L151.44876704434319,266.1441170388762L151.59631547411237,264.8061567951503L151.7285601862275,263.5231222436813L151.845766169515,262.2953956166852L151.94906141280373,261.12469269383416L152.03880160007384,260.01145654982594L152.1161442979386,258.9574381048343L152.18139274714056,257.9629540990145L152.23634635932993,257.03091270529427L152.281228880125,256.1615491612929L152.31764602648266,255.3575811989653L152.34553627182433,254.6188128828708L152.36607436643442,253.94733489285372L152.38096983059953,253.34636654171857L152.3893446812465,252.8144146163898L152.39226288446025,252.35369560602032L152.39226288446025,252.35369560602032L152.37873685252052,251.64165907790675" class="target-curve-polyline" stroke="#ff0000" style="stroke-width: 3px; fill-opacity: 0; stroke-dasharray: 20px, 10px, 5px, 5px, 5px, 10px;"></path><line x1="134.8742029906646" x2="134.43648224698703" y1="348.5288967832945" y2="347.12627001951205" class="distance-line" stroke="#0000ff" style="stroke-width: 2px; fill-opacity: 0;"></line><path d="M152.37873685252052,251.64165907790675L152.37873685252052,251.64165907790675L152.3194868826858,251.1100503823187L152.3194868826858,251.1100503823187L152.17504741764236,250.6136571600527L152.17504741764236,250.6136571600527L152.17504741764236,250.6136571600527L151.80758239171604,249.93074414011852L151.65246118360477,249.7298621981247L151.4802098976746,249.53877885334867L151.4802098976746,249.53877885334867L151.4802098976746,249.53877885334867L150.83820040348326,248.96555015564354L150.59367429486915,248.7933598177716L150.32976417899107,248.61996819445676L150.32976417899107,248.61996819445676L150.32976417899107,248.61996819445676L149.42882838303217,248.093990536792L149.42882838303217,248.093990536792L148.75547985703932,247.76454465217L148.3963207929175,247.60099059369094L148.3963207929175,247.60099059369094L147.63008483708086,247.26318544251708L147.22627348870805,247.093481054738L147.22627348870805,247.093481054738L146.37618461624126,246.74350250024037L146.37618461624126,246.74350250024037L145.47517896257165,246.3834954562562L145.47517896257165,246.3834954562562L145.47517896257165,246.3834954562562L144.0327032733453,245.81198711230172L144.0327032733453,245.81198711230172L143.01765004963457,245.41155678029392L143.01765004963457,245.41155678029392L141.96184585132386,244.98805593115802L141.96184585132386,244.98805593115802L140.86756868844762,244.53636099466513L140.86756868844762,244.53636099466513L139.73676323721563,244.05048305037724L139.73676323721563,244.05048305037724L138.5718667159232,243.5256045171189L138.5718667159232,243.5256045171189L137.37698161648498,242.9612628756928L137.37698161648498,242.9612628756928L136.1527603278449,242.34811352189195L136.1527603278449,242.34811352189195L134.90230704877573,241.68311883490946L134.26782607004097,241.3291975707285L133.62784828505133,240.9609300775985L132.98273205941683,240.57788601266537L132.98273205941683,240.57788601266537L131.67902516912747,239.76725851185657L131.0203754973051,239.33661318149052L130.35765045317655,238.88843067551136L129.69150049209168,238.42316256959174L129.02186538638486,237.93914227835046L129.02186538638486,237.93914227835046L127.6746699227244,236.91659863525825L126.99723894280574,236.37547251820126L126.31759232410779,235.81345942434018L125.63637337948788,235.23109208395755L125.63637337948788,235.23109208395755L124.27078608594158,234.00437133713496L123.5864123885012,233.35687691701594L122.90146201032982,232.68611604102782L122.21655596722458,231.9926772527675L121.5315540508709,231.2744377901755L120.84700422466997,230.53173872522714L120.16308491896723,229.76358037105837L119.48002990885041,228.96914489772328L118.79842072764224,228.14899123331583L118.11819392988794,227.30113385707477L117.43988872338194,226.42599233378158L116.76347700258232,225.52163417056198L116.08958136970193,224.58887649360503L115.41823673550546,223.62600563144537L114.7500386937751,222.63381805848405L114.08493174829985,221.61011702397207L113.42349573733159,220.55568766071494L112.76577862975304,219.46873901759037L112.11234566840433,218.35009356374042L111.46316263139579,217.19743485441458L110.8187790956213,216.01156813394357L110.17920916644918,214.79028165873325L109.54498884650675,213.5343854320787L108.91616395092296,212.24168785857916L108.29325594602254,210.91300268149277L107.67644076526756,209.54688797331022L107.06596948256514,208.1422846833176L106.46216939965711,206.69864363842893L105.86543119825943,205.21598912973104L105.27592084207738,203.69234048462155L104.6941374477636,202.12875162299216L104.12026292141391,200.52320629742218L103.5546395980536,198.87512195625595L102.99763082687511,197.1842002148911L102.44951080988413,195.44878260777284L101.9106337492227,193.66799240477485L101.38140864514723,191.84196278974628L100.86216046501082,189.96891619232997" class="target-curve-polyline" stroke="#ff00db" style="stroke-width: 3px; fill-opacity: 0; stroke-dasharray: 20px, 10px, 5px, 5px, 5px, 10px;"></path><line x1="144.38644276717622" x2="145.47517896257165" y1="247.06230853451174" y2="246.3834954562562" class="distance-line" stroke="#0000ff" style="stroke-width: 2px; fill-opacity: 0;"></line><path d="M100.86216046501082,189.96891619232997L100.52238700010915,188.6801306811622L100.20403384898347,187.40073038313506L99.90689581199632,186.1309431986424L99.6307553883594,184.8700048284984L99.37541298002567,183.6184341608817L99.14065876511796,182.3762234877311L98.92629712377072,181.14218455231344L98.73212643853932,179.91696331818176L98.55797220777808,178.6994182761261L98.40354356347041,177.49312793187468L98.26859399843181,176.2981008860849L98.15287700779601,175.114345738793L98.0561460851203,173.94187109149289L97.97815472389271,172.7806855415561L97.9186564179293,171.6307976914424L97.8774046614945,170.492216141421L97.85415294762801,169.364949491054L97.8486547713013,168.2490063393859L97.86066362633049,167.1443952888765L97.8899330054965,166.051124938122L97.9362164030637,164.9692038873916L97.9992673135553,163.8986407379204L98.0788392302698,162.8394440902364L98.174685646954,161.79162254267698L98.2865600578723,160.7551846955114L98.41421595684079,159.7301391511994L98.5574068376063,158.7164945080784L98.7158861934673,157.7142593666764L98.889407518947,156.7234423282285L99.07772430779221,155.7440519910721L99.28059005478488,154.77609695740819L99.28059005478488,154.77609695740819L99.72898239393984,152.87452719732647L99.9740159747603,151.94092967193L100.23261248838824,151.0188018498818L100.50452542807037,150.10815233151672L100.78950828901108,149.20898971674853L100.78950828901108,149.20898971674853L101.39769774564596,147.44515959957005L101.72041133075714,146.58050929714952L102.05520881013979,145.72738029976176L102.05520881013979,145.72738029976176L102.76006943436542,144.05572061883595L103.12963956476185,143.23720713632287L103.51030756628029,142.43024935914664L103.90182693412521,141.63485588722108L104.30395115963736,140.85103532149523L104.71643373799532,140.07879626178624L105.13902816338583,139.3181473080736L105.5714879291333,138.5690970609819L106.01356652939859,137.83165412039395L106.46501745842019,137.10582708648235L106.925594208479,136.39162455984075L107.39505027480527,135.68905514047952L107.39505027480527,135.68905514047952L108.3596143310755,134.3188500240336L108.85422930850473,133.6512315274563L109.35673757714608,132.99528053907767L109.86689263118632,132.35100565887714L109.86689263118632,132.35100565887714L110.90915707045977,131.0975186241218L111.44077344315244,130.4883236699778L111.44077344315244,130.4883236699778L112.52374196388442,129.3050738894413L113.07460110032318,128.73103626310422L113.63138147885513,128.16873494664017L113.63138147885513,128.16873494664017L114.76171993797968,127.07937564350749L115.33478500605756,126.55233485734632L115.33478500605756,126.55233485734632L116.49547428944535,125.5335740168596L117.08260549218875,125.04187116284831L117.08260549218875,125.04187116284831L118.26920849000126,124.09386358841168L118.86818727156384,123.63757606865599L118.86818727156384,123.63757606865599L120.07626687203083,122.76047656419112L120.68487467844636,122.33968178008598L121.29619914696752,121.93073510842584L121.29619914696752,121.93073510842584L122.52601204623733,121.14842050310014L123.14400746543708,120.7750697696832L123.14400746543708,120.7750697696832L124.38494371019192,120.06402444285295L125.00739152419808,119.7263470496883L125.00739152419808,119.7263470496883L126.25501400365945,119.08672580511302L126.87969565659989,118.78479915420985L126.87969565659989,118.78479915420985L128.12956726095516,118.21675679539024L128.75426419888944,117.95065828824005L128.75426419888944,117.95065828824005L130.00194781639428,117.45434961919443L130.62444148345014,117.22415665780639L130.62444148345014,117.22415665780639L131.86550000426604,116.79973648193887L132.4835718445713,116.60552646832215L132.4835718445713,116.60552646832215L133.7135681579715,116.25314958958535" class="target-curve-polyline" stroke="#ff00f7" style="stroke-width: 3px; fill-opacity: 0; stroke-dasharray: 20px, 10px, 5px, 5px, 5px, 10px;"></path><line x1="115.91230363759034" x2="116.49547428944535" y1="126.02380870257348" y2="125.5335740168596" class="distance-line" stroke="#0000ff" style="stroke-width: 2px; fill-opacity: 0;"></line><path d="M133.7135681579715,116.25314958958535L134.33030665381716,116.09359712496038L134.33030665381716,116.09359712496038L135.58734611013742,115.80251754395407L136.22721150263098,115.67122202790628L136.22721150263098,115.67122202790628L137.52854470296407,115.43769854326084L138.18957694282253,115.33570217499671L138.18957694282253,115.33570217499671L139.5312837867743,115.16181918602904L140.2115228238265,115.09016416530365L140.2115228238265,115.09016416530365L141.58968321196855,114.97800607107183L142.28716899698327,114.93773459728479L142.28716899698327,114.93773459728479L143.6978628308533,114.88938579658816L144.4106353136334,114.88154006939791L144.4106353136334,114.88154006939791L145.84994249283722,114.89908496155334L146.57604162318563,114.92470718061838L146.57604162318563,114.92470718061838L148.04004204926073,115.01023016442518L148.77750777794634,115.07036252914511L149.51832680636443,115.14222987562005L149.51832680636443,115.14222987562005L151.00915362831597,115.32163271379127L151.75872585480838,115.42939980546572L151.75872585480838,115.42939980546572L153.26509902367732,115.68164433343563L154.02146439997875,115.82635336945043L154.02146439997875,115.82635336945043L155.5394638173028,116.1535239860183L156.3006622912843,116.33621716654952L156.3006622912843,116.33621716654952L157.8263678576351,116.74039827077343L158.5904393810573,116.9621177950585L159.35503302186464,117.19707770019576L159.35503302186464,117.19707770019576L160.88491551964648,117.70718185359738L161.64976881057171,117.9825577016777L161.64976881057171,117.9825577016777L163.17821055745227,118.57453594097929L163.94136344829832,118.8913699316611L164.70351397146752,119.22225490348961L165.4644443458152,119.56730665566197L165.4644443458152,119.56730665566197L166.9817735101781,120.30037370231955L167.737736734144,120.68862059662075L168.4916086752322,121.09149747131875L169.243171550418,121.5091201263215L169.99220757471915,121.94160436195801L170.73849896709453,122.38906597781185L171.48182794251008,122.85162077401883L172.221976717967,123.32938455058348L172.9587275104407,123.82247310741386L173.69186253688065,124.33100224432127L174.4211640142363,124.85508776111715L175.1464141575771,125.39484545832366L175.1464141575771,125.39484545832366L176.58388931390164,126.52184059227551L177.29567875987016,127.10930962909563L178.00254573868173,127.7129140459273L178.00254573868173,127.7129140459273L179.40064116571085,128.96899221877072L180.09143404688734,129.62169757476062L180.77643332880834,130.29100151039398L181.45542122844918,130.97701982557888L182.12817996184518,131.67986832057858L182.12817996184518,131.67986832057858L183.4541387963467,133.1365190480781L184.10690333273112,133.89055288148728L184.7525675685039,134.6618800936052L185.3909137230381,135.4506164855608L186.0217240110667,136.2568778566206L186.6447806495133,137.0807800064994L187.259865856785,137.92243873658498L187.8667618483219,138.78196984491922L188.4652508400817,139.6594891314756L189.0551150495056,140.5551123979008L189.63613669351722,141.4689554439096L190.2080979887813,142.40113406825088L190.7707811512556,143.3517640708983L191.3239683993472,144.3209612532396L191.86744194753032,145.3088414135754L192.4009840139532,146.3155203523276L192.9243768157983,147.3411138701769L193.4374025680574,148.3857377673557L193.93984348810238,149.4495078413882L194.4314817926674,150.5325398951457L194.9120996993831,151.63494972711828L195.3814794232413,152.75685313753837L195.8394031821315,153.89836592586198L196.2859324999125,155.0576839791441L196.72075601890057,156.23514808510274L197.1435075412309,157.43160341062006L197.55392406299077,158.64724964467848L197.95179173976277,159.88182098198507L198.33681006703705,161.13581448632786L198.7087314826165,162.40925219059505L199.06731078245716,163.7020279484998" class="target-curve-polyline" stroke="#ff00f5" style="stroke-width: 3px; fill-opacity: 0; stroke-dasharray: 20px, 10px, 5px, 5px, 5px, 10px;"></path><line x1="182.63948426416061" x2="183.4541387963467" y1="132.70050645291246" y2="133.1365190480781" class="distance-line" stroke="#0000ff" style="stroke-width: 2px; fill-opacity: 0;"></line><path d="M199.06731078245716,163.7020279484998L199.56744535761246,165.59570837152745L200.03622237838422,167.45567461526213L200.47411653397143,169.2821337402704L200.88160263629527,171.0761308306753L201.2591692970633,172.83720913887782L201.6073293553818,174.56671953530656L201.92659387424544,176.2647785444896L202.2174600917785,177.93148926491017L202.4805060054234,179.56798363657836L202.71618687094724,181.17375340125227L202.92514740737198,182.75025831190953L203.1079018119701,184.29749513376316L203.2649394360253,185.8154261612733L203.39682399795925,187.30458386935896L203.50405648363846,188.7650821116012L203.58721673979431,190.19749684211146L203.64694167686824,191.6026086308267L203.68370894252325,192.98036535378083L203.6981088003441,194.33128097800568L203.69069004875567,195.65566068937557L203.66200722802802,196.95383536558435L203.61274506362668,198.22661787574947L203.54324473120488,199.47351784476578L203.4544238757174,200.6961477157166L203.34669387966522,201.89426125792113L203.22060626458978,203.0681420222875L203.0768416663621,204.21848120144443L202.91568509447634,205.3447388682846L202.7379766478235,206.44809847412705L202.54407753849551,207.52828880421683L202.3345947668978,208.585784146413L202.11019189889285,209.62119954240086L201.87145231492332,210.6349131707064L201.61869577194284,211.62661505804806L201.35263008944162,212.5970384560705L201.07403488942464,213.5470670052544L200.78325565092422,214.47647790610245L200.48084899789853,215.38560006302163L200.48084899789853,215.38560006302163L199.84296680677537,217.14333080389326L199.50917568953807,217.99395635965487L199.16597482478033,218.8255940281162L198.81363236914984,219.6379305884541L198.81363236914984,219.6379305884541L198.08434023639654,221.20745452164635L197.70881727200532,221.9660195144407L197.3266626161381,222.70729962098997L196.9381342085289,223.43099984275648L196.5441158009013,224.13817714402148L196.5441158009013,224.13817714402148L195.7412520461674,225.50312663087394L195.33423247227776,226.1630860622089L194.92368133813298,226.80735664057673L194.51015388205678,227.43629946471282L194.51015388205678,227.43629946471282L193.67572740303848,228.64831531220437L193.67572740303848,228.64831531220437L192.83679650276025,229.80487080663954L192.83679650276025,229.80487080663954L191.99722633691687,230.90770211807967L191.99722633691687,230.90770211807967L191.16081151359856,231.95848706884482L191.16081151359856,231.95848706884482L190.33170222127163,232.95966446214118L190.33170222127163,232.95966446214118L189.5143390449392,233.91427369801175L189.5143390449392,233.91427369801175L188.71409261716627,234.82714347858268L188.71409261716627,234.82714347858268L187.93438461274738,235.6994218831187L187.93438461274738,235.6994218831187L187.93438461274738,235.6994218831187L186.81513784071802,236.942509469568L186.81513784071802,236.942509469568L186.10545091921995,237.72575756692154L186.10545091921995,237.72575756692154L185.43079419237966,238.47772228079447L185.1067012324799,238.84067101226844L185.1067012324799,238.84067101226844L184.49057470795563,239.54779499862093L184.19694026643498,239.88794159016084L184.19694026643498,239.88794159016084L183.6460056476818,240.5521620907597L183.6460056476818,240.5521620907597L183.6460056476818,240.5521620907597L182.92586587322114,241.5275577763435L182.71028419619546,241.83812441331253L182.50729118624977,242.14125903124523L182.50729118624977,242.14125903124523L182.50729118624977,242.14125903124523L182.00749253531788,243.05997085249544L181.868866747837,243.3530825271539L181.74956521443366,243.6481215210252L181.74956521443366,243.6481215210252L181.74956521443366,243.6481215210252L181.5204920386592,244.56178688459585L181.5204920386592,244.56178688459585L181.46595688696917,245.17447577529117L181.46595688696917,245.17447577529117" class="target-curve-polyline" stroke="#ff00d1" style="stroke-width: 3px; fill-opacity: 0; stroke-dasharray: 20px, 10px, 5px, 5px, 5px, 10px;"></path><line x1="182.28154901527031" x2="181.46595688696917" y1="244.52593029050962" y2="245.17447577529117" class="distance-line" stroke="#0000ff" style="stroke-width: 2px; fill-opacity: 0;"></line><path d="M181.46595688696917,245.17447577529117L181.4901405206466,245.82756635153382L181.4901405206466,245.82756635153382L181.58279070516022,246.74881553393507L181.64824089899236,247.3157910137807L181.72589336846178,247.95373295616383L181.8138970511895,248.6605196223917L181.91199494161862,249.43662498767281L182.01824989945652,250.27996736989823L182.1320432616169,251.19054839634987L182.25091646977188,252.16565292751082L182.37393266817293,253.20489998566362L182.499202901089,254.30654236425693L182.62576376999579,255.47017886169013L182.7515515254995,256.69386847736854L182.87549312847074,257.977050382463L182.99591105685323,259.31832210368407L183.111740541884,260.71706583683397L183.2214712148972,262.1720381199848L183.3240528816525,263.6825300492179L183.4180896917332,265.2473403153087L183.50253396859384,266.8656276102267L183.5759638314468,268.5360407651222L183.63730061556532,270.2575652068044L183.6864524568742,272.03017584696784L183.72250126649016,273.8527927147094L183.74483950687028,275.72456687964655L183.75250787273984,277.64417765915294L183.7443198122531,279.6100034008346L183.71963743001822,281.6208984437318L183.67866466071038,283.6764081876155L183.6208161194223,285.7751863834185L183.54706974550774,287.9171960487822L183.4561885131312,290.10025091220797L183.34880154137872,292.3237379525744L183.2252730037188,294.58665812980144L183.08482554327782,296.88695236819973L182.92732888937886,299.2230397946191L182.75515512182668,301.5951995394744L182.56840419848925,304.0017383676875L182.36552635834153,306.4396683636657L182.14641896100053,308.90709158795187L181.9168022022543,311.40617171507387L181.6744603755841,313.9331742742399L181.41781374534372,316.4848981942325L181.15132855593035,319.0621961792217L180.8752447954893,321.6628984124939L180.58934506412749,324.28451407083503L180.29436139035218,326.9251369285718L179.99041576837683,329.5824403359762L179.6849057881641,332.2584011826291L179.37406482406425,334.94814095498623L179.05784337597962,337.64908905476517L178.7369463465207,340.3591040507793L178.4115862466902,343.0757507512305L178.08739207053446,345.79950245905326L177.7623084480816,348.5265658825697L177.43623698433112,351.2542629093825L177.11501470686926,353.9829502277021L176.79441500081515,356.70777391664217L176.4798119605668,359.4287597175228L176.16744857198782,362.1413784470244L175.85689120084896,364.84282642680546L175.55518059207284,367.53381528281005L175.25720984616703,370.2093054072587L174.9682754977211,372.86912722980213L174.68619378260365,375.50966971490755L174.41014663710985,378.12800975154846L174.141764758071,380.7223285458439L173.87979456611075,383.2895692704948L173.62325539966105,385.82684728012896L173.3787675500327,388.3344678717857L173.1396771838427,390.8072035188168L172.91042484037342,393.24446609445147L172.68611118489065,395.64188621986585L172.46509551774807,397.99649622206636L172.25181399394594,400.3077449360402L172.04045822443393,402.5710816837807L171.83202200183274,404.78466559923106L171.62163768037016,406.9444450053835L171.40746214729225,409.0475861126981L171.19021619910183,411.0922432250991L170.96773726455254,413.0755113083912L170.73662176181452,414.9940677671229L170.495410421182,416.84533992933956L170.2434598108886,418.62706875499316L169.978672449,420.336483964L169.700428974,421.971362634L169.405239843,423.528469656L169.092791249,425.005715089L168.762769382,426.40100899L168.414860435,427.712261419L168.0487506,428.937382434L167.664126066,430.074282094L167.260673027,431.120870457L166.838077674,432.075057582L166.396026197,432.934753528L165.93420479,433.697868353L165.452299643,434.362312115L164.949996948,434.925994873" class="target-curve-polyline" stroke="#ff0021" style="stroke-width: 3px; fill-opacity: 0; stroke-dasharray: 20px, 10px, 5px, 5px, 5px, 10px;"></path><line x1="181.72041229046948" x2="182.56840419848925" y1="302.7137747036994" y2="304.0017383676875" class="distance-line" stroke="#0000ff" style="stroke-width: 2px; fill-opacity: 0;"></line><path d="M164.949996948,434.925994873L164.949996948,434.925994873L164.949996948,434.925994873L164.43171839,435.391890513L164.242570902,435.540718286L164.242570902,435.540718286L164.242570902,435.540718286L164.242570902,435.540718286L163.40867358,436.103675518L163.40867358,436.103675518L163.40867358,436.103675518L163.40867358,436.103675518L162.459422901,436.614866567L162.459422901,436.614866567L162.459422901,436.614866567L162.459422901,436.614866567L161.405936787,437.074291434L161.405936787,437.074291434L161.405936787,437.074291434L161.405936787,437.074291434L160.259333157,437.481950118L159.95943552,437.575776323L159.95943552,437.575776323L159.34496019,437.753722575L159.34496019,437.753722575L159.34496019,437.753722575L158.389152823,437.996376554L158.389152823,437.996376554L158.389152823,437.996376554L157.396601429,438.209912055L157.396601429,438.209912055L157.396601429,438.209912055L156.37199638,438.394329079L156.37199638,438.394329079L155.673434996,438.50109683L155.320028051,438.549627626L155.320028051,438.549627626L155.320028051,438.549627626L154.245386812,438.675807695L154.245386812,438.675807695L154.245386812,438.675807695L153.152763037,438.772869286L153.152763037,438.772869286L152.416673123,438.821400082L152.416673123,438.821400082L152.416673123,438.821400082L151.304501505,438.869930878L151.304501505,438.869930878L151.304501505,438.869930878L150.186855011,438.889343196L150.186855011,438.889343196L149.441031984,438.88610781L149.441031984,438.88610781L149.441031984,438.88610781L148.324683748,438.856989332L148.324683748,438.856989332L148.324683748,438.856989332L147.215368296,438.798752378L147.215368296,438.798752378L146.482047997,438.743750809L146.482047997,438.743750809L146.482047997,438.743750809L145.394876904,438.636983058L145.394876904,438.636983058L145.394876904,438.636983058L144.327246255,438.50109683L143.976522375,438.449330648L143.976522375,438.449330648L143.283846424,438.336092124L143.283846424,438.336092124L143.283846424,438.336092124L142.269367784,438.141968941L142.269367784,438.141968941L142.269367784,438.141968941L141.288500707,437.91872728L141.288500707,437.91872728L141.288500707,437.91872728L140.345935565,437.666367142L140.345935565,437.666367142L139.741153891,437.481950118L139.446362732,437.384888527L139.446362732,437.384888527L139.446362732,437.384888527L139.446362732,437.384888527L138.321916029,436.964288296L138.321916029,436.964288296L138.321916029,436.964288296L138.321916029,436.964288296L137.293356457,436.491921884L137.293356457,436.491921884L137.293356457,436.491921884L137.293356457,436.491921884L136.371801937,435.967789289L136.371801937,435.967789289L136.371801937,435.967789289L136.371801937,435.967789289L135.568370389,435.391890513L135.050003052,434.925994873L135.050003052,434.925994873L135.050003052,434.925994873" class="target-curve-polyline" stroke="#ff00b5" style="stroke-width: 3px; fill-opacity: 0; stroke-dasharray: 20px, 10px, 5px, 5px, 5px, 10px;"></path><line x1="148.7838652665879" x2="148.324683748" y1="441.4330436310051" y2="438.856989332" class="distance-line" stroke="#0000ff" style="stroke-width: 2px; fill-opacity: 0;"></line></svg>