<svg version="1.1" id="Layer_1" xmlns="http://www.w3.org/2000/svg" xmlns:xlink="http://www.w3.org/1999/xlink" x="0px" y="0px" width="400px" height="220px" viewBox="0 0.25 400 220" enable-background="new 0 0.25 400 220" xml:space="preserve"><defs></defs><path d="M6.816999912261963,176.0749969482422L15.536840003457025,176.03497200783832L24.078724174423613,175.91598260873954L32.44265242516173,175.7196568841146L40.62862475567138,175.44762296713265L48.63664116595257,175.10150899096263L56.46670165600527,174.68294308877338L64.11880622582952,174.19355339373405L71.59295487542528,173.63496803901347L78.88914760479256,173.00881515778065L86.00738441393142,172.31672288320468L92.94766530284177,171.5603193484543L99.70999027152368,170.7412326866987L106.29435931997705,169.86109103110667L112.70077244820203,168.92152251484725L118.92922965619847,167.9241552710895L124.97973094396643,166.8706174330022L130.85227631150602,165.7625371337545L136.546865758817,164.60154250651527L142.0634992858996,163.38926168445354L147.4021768927538,162.12732280073826L152.5628985793794,160.81735398853834L157.5456643457766,159.46098338102277L162.3504741919453,158.0598391113606L166.97732811788552,156.61554931272076L171.42622612359727,155.1297421182721L175.69716820908062,153.6040456611838L179.79015437433546,152.0400880746247L183.70518461936177,150.43949749176372L187.44225894415965,148.80390204576995L191.0013773487291,147.13492986981234L194.38253983307,145.43420909705975L197.58574639718248,143.70336786068128L200.61099704106647,141.94403429384585L203.45829176472202,140.1578365297224L206.1276305681491,138.34640270147992L208.61901345134763,136.51136094228744L210.9324404143178,134.65433938531385L213.06791145705944,132.77696616372805L215.0254265795726,130.88086941069923L216.8049857818574,128.96767725939617L218.40658906391354,127.03901784298792L219.8302364257413,125.09651929464343L221.0759278673406,123.14180974753168L222.14366338871145,121.17651733482163L223.0334429898538,119.20227018968221L223.74526667076765,117.22069644528244L224.279134431453,115.23342423479126L224.63504627191006,113.24208169137776L224.81300219213844,111.24829694821068L224.8130021921385,109.2536981384592L224.63504627191003,107.25991339529217L224.27913443145303,105.26857085187858L223.74526667076768,103.28129864138745L223.03344298985382,101.29972489698771L222.14366338871145,99.32547775184833L221.07592786734057,97.36018533913821L219.83023642574142,95.40547579202646L218.40658906391351,93.46297724368196L216.80498578185728,91.53431782727371L215.02542657957258,89.62112567597065L213.0679114570595,87.72502892294183L210.93244041431782,85.84765570135612L208.61901345134763,83.99063414438248L206.12763056814904,82.15559238518996L203.45829176472205,80.34415855694756L200.6109970410665,78.5579607928241L197.58574639718248,76.79862722598865L194.38253983307004,75.06778598961012L191.00137734872897,73.3670652168576L187.44225894415965,71.69809304089995L183.70518461936183,70.06249759490616L179.79015437433537,68.46190701204522L175.6971682090806,66.89794942548613L171.4262261235973,65.37225296839777L166.97732811788546,63.886445773949184L162.35047419194524,62.44215597530929L157.5456643457767,61.04101170564716L152.56289857937938,59.684641098131586L147.4021768927538,58.37467228593174L142.06349928589967,57.11273340221636L136.546865758817,55.90045258015458L130.85227631150596,54.739457952915345L124.97973094396659,53.63137765366775L118.9292296561983,52.57783981558043L112.70077244820195,51.58047257182266L106.29435931997713,50.6409040555633L99.70999027152354,49.76076239997122L92.94766530284176,48.94167573821565L86.0073844139313,48.185272203465324L78.88914760479246,47.493179928889234L71.59295487542524,46.86702704765643L64.11880622582936,46.30844169293583L56.46670165600533,45.819051997896544L48.63664116595239,45.400486095707336L40.62862475567119,45.05437211953718L32.44265242516174,44.78233820255527L24.078724174423495,44.58601247793044L15.536840003456991,44.46702307883155L6.816999912261963,44.426998138427734" class="target-curve-polyline" stroke="#ff0075" style="stroke-width: 3px; fill-opacity: 0; stroke-dasharray: 20px, 10px, 5px, 5px, 5px, 10px;"></path><line x1="6.856612036074288" x2="6.816999912261963" y1="176.001270856965" y2="176.0749969482422" class="distance-line" stroke="#0000ff" style="stroke-width: 2px; fill-opacity: 0;"></line><path d="M6.816999912261963,44.426998138427734L6.816999912261963,44.41602204806064L6.816999912261965,44.383391433647276L6.816999912261963,44.329552780219515L6.816999912261963,44.25495257280925L6.81699991226196,44.16003729644836L6.816999912261963,44.045253436168736L6.816999912261962,43.911047477002235L6.816999912261963,43.757865903980765L6.816999912261965,43.586155202136204L6.816999912261963,43.39636185650041L6.816999912261963,43.18893235210528L6.816999912261964,42.96431317398271L6.816999912261963,42.72295080716457L6.816999912261963,42.465291736682744L6.816999912261963,42.19178244756909L6.816999912261963,41.90286942485553L6.816999912261963,41.59899915357393L6.816999912261962,41.280618118756166L6.816999912261964,40.94817280543411L6.816999912261963,40.60210969863967L6.816999912261963,40.242875283404715L6.816999912261962,39.870916044761124L6.816999912261963,39.48667846774079L6.816999912261964,39.090609037375565L6.816999912261963,38.68315423869737L6.816999912261964,38.26476055673806L6.816999912261964,37.83587447652953L6.816999912261964,37.39694248310366L6.816999912261963,36.948411061492315L6.816999912261962,36.490726696727414L6.816999912261962,36.0243358738408L6.816999912261962,35.54968507786438L6.816999912261961,35.06722079383001L6.816999912261963,34.577389506769606L6.816999912261965,34.08063770171504L6.816999912261963,33.57741186369818L6.816999912261963,33.068158477750906L6.816999912261962,32.55332402890511L6.816999912261963,32.033355002192685L6.816999912261963,31.508697882645492L6.816999912261962,30.979799155295414L6.816999912261962,30.447105305174347L6.816999912261963,29.911062817314175L6.8169999122619656,29.372118176746767L6.816999912261962,28.830717868503992L6.816999912261963,28.287308377617762L6.816999912261961,27.74233618911994L6.816999912261964,27.19624778804243L6.816999912261962,26.64948965941707L6.816999912261963,26.10250828827579L6.816999912261963,25.555750159650437L6.816999912261963,25.009661758572918L6.816999912261962,24.4646895700751L6.816999912261964,23.921280079188872L6.816999912261962,23.37987977094611L6.816999912261963,22.840935130378686L6.816999912261962,22.304892642518507L6.81699991226196,21.772198792397436L6.816999912261962,21.243300065047375L6.816999912261962,20.71864294550018L6.816999912261963,20.198673918787758L6.816999912261963,19.683839469941965L6.816999912261963,19.174586083994686L6.816999912261963,18.671360245977827L6.816999912261964,18.17460844092326L6.816999912261965,17.684777153862857L6.816999912261963,17.202312869828493L6.81699991226196,16.727662073852056L6.816999912261963,16.261271250965464L6.816999912261964,15.803586886200549L6.816999912261961,15.35505546458921L6.816999912261962,14.916123471163333L6.816999912261963,14.487237390954814L6.816999912261962,14.068843708995505L6.816999912261965,13.661388910317307L6.816999912261965,13.265319479952089L6.816999912261965,12.881081902931758L6.816999912261963,12.509122664288158L6.816999912261963,12.149888249053214L6.816999912261963,11.803825142258752L6.816999912261962,11.4713798289367L6.816999912261961,11.152998794118925L6.816999912261965,10.84912852283735L6.816999912261963,10.560215500123762L6.816999912261963,10.286706211010138L6.816999912261965,10.02904714052831L6.816999912261963,9.787684773710147L6.816999912261963,9.563065595587595L6.816999912261964,9.355636091192476L6.816999912261962,9.165842745556677L6.816999912261963,8.994132043712103L6.816999912261962,8.840950470690617L6.816999912261962,8.706744511524148L6.816999912261964,8.591960651244511L6.816999912261962,8.4970453748836L6.816999912261963,8.42244516747335L6.816999912261963,8.368606514045608L6.816999912261963,8.33597589963223L6.816999912261963,8.324999809265137" class="target-curve-polyline" stroke="#ff00f7" style="stroke-width: 3px; fill-opacity: 0; stroke-dasharray: 20px, 10px, 5px, 5px, 5px, 10px;"></path><line x1="6.858756576212659" x2="6.816999912261963" y1="8.370584750442468" y2="8.324999809265137" class="distance-line" stroke="#0000ff" style="stroke-width: 2px; fill-opacity: 0;"></line><path d="M6.816999912261963,8.324999809265137L15.894746754806091,8.386976626250226L24.786250356203947,8.571226349965222L33.491541121656645,8.875227889549713L42.01064945636528,9.29646015414329L50.343605765531024,9.832402052885541L58.49044045435486,10.480532494916057L66.45118392803799,11.238330389374424L74.22586659178154,12.103274645400242L81.81451885078653,13.072844172133081L89.21717111025417,14.14451787871255L96.4338537753855,15.315774674278233L103.46459725138162,16.58409346796971L110.30943194344368,17.946953168926584L116.96838825677281,19.401832686288436L123.44149659657005,20.946210929194855L129.7287873680365,22.577566806785445L135.8302909763734,24.293379228199775L141.74603782678167,26.091127102577442L147.4760583244626,27.968289339058053L153.0203828746172,29.922344846781165L158.37904188244656,31.950772534886394L163.55206575315188,34.051051312513316L168.53948489193414,36.22066008880153L173.34132970399457,38.457077772890614L177.95763059453418,40.75778327392016L182.3884179687542,43.120255501029774L186.63372223185564,45.54197336335903L190.6935737890396,48.02041577004753L194.5680030455072,50.55306163023482L198.25704040645965,53.137389853060554L201.760716277098,55.77087934766428L205.0790610626232,58.451009023185605L208.2121051682366,61.1752577887641L211.15987899913924,63.94110455353939L213.92241296053214,66.74602822665102L216.49973745761645,69.58750771723861L218.8918828955933,72.46302193444174L221.0988796796638,75.37004978740002L223.12075821502904,78.30607018525299L224.95754890689022,81.26856203714028L226.6092821604483,84.25500425220149L228.07598838090436,87.26287573957616L229.35769797345972,90.2896554084039L230.45444134331535,93.33282216782432L231.36624889567236,96.38985492697702L232.0931510357319,99.45823259500156L232.635178168695,102.53543408103751L232.992360699763,105.6189382942245L233.16472903413663,108.70622414370212L233.15231357701728,111.79477053860992L232.955144733606,114.88205638808756L232.57325290910381,117.96556060127453L232.006668508712,121.04276208731045L231.25542193763158,124.111139755335L230.31954360106357,127.1681725144877L229.19906390420908,130.21133927390815L227.89401325226947,133.2381189427359L226.40442205044553,136.24599043011054L224.73032070393853,139.23243264517174L222.8717396179497,142.19492449705902L220.82870919767987,145.130944894912L218.60125984833036,148.03797274787027L216.18942197510208,150.91348696507342L213.5932259831963,153.75496645566096L210.8127022778143,156.55989012877262L207.84788126415677,159.3257368935479L204.69879334742507,162.04998565912638L201.3654689328203,164.7301153346478L197.84793842554342,167.36360482925147L194.14623223079582,169.94793305207716L190.26038075377843,172.4805789122645L186.19041439969226,174.959021318953L181.93636357373862,177.38073918128225L177.49825868111853,179.74321140839186L172.87613012703298,182.0439169094214L168.0700083166833,184.28033459351053L163.07992365527065,186.4499433697987L157.9059065479957,188.5502221474256L152.54798740006,190.57864983553077L147.00619661666443,192.53270534325395L141.28056460301016,194.4098675797346L135.37112176429838,196.20761545411227L129.27789850573026,197.92342787552653L123.0009252325063,199.5547837531172L116.54023234982854,201.09916199602355L109.89585026289762,202.55404151338544L103.06780937691435,203.91690121434237L96.05614009708044,205.18522000803375L88.86087282859648,206.3564768035994L81.48203797666395,207.42815051017894L73.91966594648386,208.39772003691186L66.17378714325707,209.26266429293767L58.24443197218527,210.0204621873959L50.13163083846872,210.66859262942646L41.835414147309216,211.20453452816878L33.355812303907875,211.62576679276233L24.692855713465253,211.92976833234675L15.846574781183005,212.1140180560618L6.816999912261963,212.17599487304688" class="target-curve-polyline" stroke="#ff0000" style="stroke-width: 3px; fill-opacity: 0; stroke-dasharray: 20px, 10px, 5px, 5px, 5px, 10px;"></path><line x1="6.858373126914832" x2="6.816999912261963" y1="212.0741653604103" y2="212.17599487304688" class="distance-line" stroke="#0000ff" style="stroke-width: 2px; fill-opacity: 0;"></line><path d="M6.816999912261963,212.17599487304688L6.816999912261962,212.1650190868327L6.816999912261963,212.13238937662993L6.816999912261965,212.0785522150981L6.816999912261963,212.0039540748967L6.816999912261961,211.90904142868538L6.816999912261963,211.79426074912377L6.816999912261963,211.66005850887123L6.816999912261963,211.50688118058744L6.816999912261963,211.33517523693197L6.816999912261963,211.14538715056435L6.816999912261963,210.9379633941441L6.816999912261963,210.71335044033086L6.816999912261963,210.47199476178415L6.816999912261963,210.21434283116355L6.816999912261964,209.9408411211285L6.816999912261963,209.65193610433872L6.816999912261963,209.34807425345372L6.816999912261961,209.029702041133L6.816999912261964,208.69726594003623L6.816999912261963,208.35121242282284L6.816999912261963,207.99198796215248L6.816999912261962,207.62003903068467L6.816999912261963,207.235812101079L6.8169999122619656,206.83975364599507L6.816999912261965,206.43231013809228L6.816999912261962,206.01392805003024L6.8169999122619656,205.58505385446875L6.816999912261964,205.14613402406704L6.816999912261965,204.6976150314849L6.816999912261962,204.23994334938163L6.816999912261964,203.77356545041715L6.816999912261962,203.29892780725066L6.816999912261962,202.81647689254194L6.816999912261962,202.3266591789505L6.816999912261963,201.8299211391359L6.816999912261963,201.32670924575774L6.816999912261963,200.81746997147545L6.816999912261963,200.3026497889487L6.816999912261963,199.78269517083706L6.816999912261963,199.25805258979997L6.816999912261964,198.72916851849715L6.816999912261962,198.19648942958796L6.816999912261963,197.66046179573218L6.816999912261964,197.12153208958927L6.816999912261962,196.5801467838187L6.816999912261963,196.03675235108017L6.816999912261961,195.49179526403313L6.816999912261964,194.9457219953373L6.816999912261961,194.39897901765198L6.816999912261962,193.852012803637L6.816999912261965,193.30526982595183L6.816999912261963,192.7591965572559L6.816999912261963,192.2142394702089L6.8169999122619656,191.6708450374704L6.816999912261964,191.12945973169985L6.816999912261962,190.59053002555686L6.816999912261965,190.0545023917011L6.816999912261961,189.52182330279194L6.816999912261963,188.9929392314891L6.816999912261963,188.46829665045203L6.816999912261963,187.94834203234038L6.816999912261964,187.43352184981364L6.816999912261965,186.92428257553138L6.816999912261962,186.4210706821531L6.816999912261964,185.92433264233856L6.816999912261966,185.43451492874718L6.816999912261963,184.9520640140384L6.816999912261962,184.47742637087197L6.816999912261965,184.01104847190746L6.816999912261964,183.55337678980425L6.816999912261961,183.104857797222L6.816999912261962,182.6659379668203L6.816999912261962,182.23706377125873L6.816999912261963,181.81868168319681L6.816999912261963,181.41123817529405L6.816999912261965,181.01517972021006L6.816999912261963,180.63095279060437L6.816999912261963,180.25900385913656L6.816999912261962,179.89977939846622L6.816999912261962,179.55372588125283L6.816999912261962,179.221289780156L6.816999912261962,178.90291756783532L6.816999912261965,178.59905571695037L6.816999912261963,178.31015070016053L6.816999912261963,178.0366489901256L6.816999912261965,177.77899705950497L6.816999912261962,177.53764138095818L6.816999912261962,177.31302842714496L6.816999912261963,177.10560467072472L6.816999912261963,176.9158165843571L6.816999912261963,176.74411064070162L6.816999912261963,176.5909333124178L6.816999912261963,176.45673107216533L6.816999912261964,176.34195039260368L6.816999912261963,176.24703774639232L6.816999912261963,176.17243960619098L6.816999912261964,176.11860244465916L6.816999912261963,176.08597273445636L6.816999912261963,176.0749969482422" class="target-curve-polyline" stroke="#ff00e5" style="stroke-width: 3px; fill-opacity: 0; stroke-dasharray: 20px, 10px, 5px, 5px, 5px, 10px;"></path><line x1="6.858373126914774" x2="6.816999912261963" y1="212.0741653604103" y2="212.17599487304688" class="distance-line" stroke="#0000ff" style="stroke-width: 2px; fill-opacity: 0;"></line></svg>