<!--?xml version="1.0" encoding="utf-8"?-->
<!-- Generator: Adobe Illustrator 17.0.2, SVG Export Plug-In . SVG Version: 6.00 Build 0)  -->

<svg version="1.1" id="Layer_1" xmlns="http://www.w3.org/2000/svg" xmlns:xlink="http://www.w3.org/1999/xlink" x="0px" y="0px" width="600px" height="400px" viewBox="0 0 600 400" enable-background="new 0 0 600 400" xml:space="preserve">
<path fill="#FFFFFF" d="M 221.919 101.624 C 230.893 101.253 275.488 81.6515 272.97 76.101 C 274.953 79.7986 311.247 88.0554 311.115 85.9793 C 311.891 87.5724 320.016 117.237 320.306 116.124 C 318.574 116.599 402.252 75.5731 403.011 75.6939 C 402.667 75.5882 437.446 70.5867 437.153 70.2884 C 437.672 71.1637 387.554 129.011 387.413 127.586 C 387.261 128.132 398.287 148.559 398.521 148.535 C 398.541 148.82 386.443 163.638 386.484 163.749 C 386.207 162.867 450.392 186.956 450.505 187.181 C 449.978 187.932 527.133 148.681 527.183 147.919 C 527.362 148.263 586.254 128.583 586.081 128.309 C 585.76 129.038 533.918 200.58 535.007 200.241 C 533.756 199.569 536.982 289.85 537.383 290.96 C 537.776 290.346 470.666 228.629 470.599 229.27 C 469.592 229.055 411.091 265.414 412.457 265.881 C 412.454 265.688 456.682 314.235 456.09 314.36 C 456.133 313.82 409.888 337.963 410.23 338.266 C 409.827 338.949 367.303 298.013 366.188 299.637 C 368.568 294.963 302.124 326.545 278.474 330.411 C 256.093 334.07 169.51 324.64 164.818 313.375 C 168.1 343.493 112.472 116.04 151.4 107.162 C 136.997 109.934 229.55 93.0611 221.919 101.624"></path>
<linearGradient id="path4824_1_" gradientUnits="userSpaceOnUse" x1="1389.3632" y1="1353.5197" x2="1460.4631" y2="1503.1196" gradientTransform="matrix(0.6 0 0 0.6 -475.544 -735.916)">
	<stop offset="0" style="stop-color:#66C3A8"></stop>
	<stop offset="0.2398" style="stop-color:#6EC6AB"></stop>
	<stop offset="1" style="stop-color:#66C3A8;stop-opacity:0"></stop>
</linearGradient>
<linearGradient id="path4824_2_" gradientUnits="userSpaceOnUse" x1="1390.3995" y1="1411.1816" x2="1513.9296" y2="1417.1816" gradientTransform="matrix(0.6 0 0 0.6 -497.144 -730.228)">
	<stop offset="0" style="stop-color:#FFFFFF"></stop>
	<stop offset="1" style="stop-color:#73A8BF"></stop>
</linearGradient>
<path id="path4824" fill="url(#path4824_1_)" stroke="url(#path4824_2_)" stroke-width="1.5" d="M 431.086 73.983 C 404.083 76.0185 377.502 88.882 353.266 103.986 C 336.445 113.511 318.783 123.017 303.669 126.716 C 297.59 134.695 296.438 143.797 292.794 150.271 C 290.84 155.991 293.854 158.981 299.622 159.997 C 306.909 165.252 317.245 172.75 332.808 174.9 C 347.035 176.866 362.956 174.789 372.578 166.243 C 378.402 161.072 385.098 155.636 392.891 151.647 C 394.216 151.124 397.19 149.727 394.684 149.303 C 388.363 145.897 389.56 137.459 382.1 134.755 C 376.919 132.618 374.06 126.191 378.925 120.877 C 377.401 117.378 382.788 112.866 386.668 111.427 C 390.121 110.694 387.36 110.551 385.829 110.149 C 383.753 109.603 380.675 108.655 382.657 105.83 C 386.306 100.526 393.114 99.5613 398.168 99.3081 C 403.869 97.5556 408.173 92.9106 412.738 89.5533 C 418.043 85.5919 422.19 80.3774 427.229 76.556 C 428.993 75.6484 431.91 74.6606 432.352 73.8815 C 432.156 73.9489 431.736 73.9799 431.111 73.9724 C 431.314 74.0173 431.364 73.9962 431.086 73.983"></path>
<linearGradient id="path22066_1_" gradientUnits="userSpaceOnUse" x1="1411.1898" y1="1445.0229" x2="1444.1899" y2="1422.3929" gradientTransform="matrix(0.6 0 0 0.6 -497.144 -730.228)">
	<stop offset="0" style="stop-color:#226879"></stop>
	<stop offset="1" style="stop-color:#62CBE6"></stop>
</linearGradient>
<path id="path22066" fill="none" stroke="url(#path22066_1_)" stroke-width="4" d="M 317.061 135.892 C 322.844 133.731 328.588 130.766 334.074 127.78 C 340.124 124.236 345.793 120.075 351.401 116.126 C 352.72 115.294 373.003 104.019 374.008 102.989 M 320.353 137.496 C 326.915 135.735 333.494 133.14 339.51 129.056 C 342.773 126.84 368.493 113.567 371.267 110.901 M 328.419 139.834 C 338.632 135.926 348.403 130.191 358.257 125.554 C 359.681 124.889 368.022 119.345 368.736 118.168 M 333.094 142.212 C 340.573 139.169 347.892 135.37 354.147 130.44 C 354.345 130.496 354.647 130.083 354.475 130.011 M 339.008 145.72 C 346.649 143.548 353.428 139.284 360.112 135.45 C 361.935 134.532 365.609 129 366.637 127.447 M 315.509 129.414 C 322.84 125.877 330.052 121.129 337.166 116.834 C 338.777 115.862 379.084 95.4996 380.678 94.1239 M 344.22 148.087 C 350.748 145.434 356.026 141.023 361.908 137.544 C 362.699 137.221 363.229 136.813 363.649 136.316 M 374.397 137.539 C 368.369 141.233 358.906 145.451 353.61 148.769 C 352.444 150.235 350.959 151.502 349.295 152.686 M 355.812 154.801 C 360.147 151.994 364.397 148.966 369.023 146.38 C 370.262 145.732 375.614 141.183 376.827 140.88 M 362.963 156.044 C 366.798 153.79 370.64 151.448 374.368 149.129 M 369.628 159.594 C 375.274 155.973 380.758 151.895 384.851 146.986"></path>
<linearGradient id="path8912_1_" gradientUnits="userSpaceOnUse" x1="1591.7072" y1="1393.8423" x2="1534.307" y2="1258.3523" gradientTransform="matrix(0.7967 0 0 0.7967 -713.4673 -867.2401)">
	<stop offset="0" style="stop-color:#66C3A8"></stop>
	<stop offset="0.5781" style="stop-color:#6EC6AB"></stop>
	<stop offset="1" style="stop-color:#66C3A8;stop-opacity:0"></stop>
</linearGradient>
<linearGradient id="path8912_2_" gradientUnits="userSpaceOnUse" x1="1691.3252" y1="1478.5629" x2="1712.8252" y2="1522.5629" gradientTransform="matrix(0.6 0 0 0.6 -497.144 -730.228)">
	<stop offset="0" style="stop-color:#FFFFFF"></stop>
	<stop offset="1" style="stop-color:#73A8BF"></stop>
</linearGradient>
<path id="path8912" fill="url(#path8912_1_)" stroke="url(#path8912_2_)" stroke-width="1.5" d="M 504.649 243.218 C 512.691 252.811 519.955 263.028 526.596 273.1 C 528.309 275.891 529.868 281.005 529.039 275.235 C 529.047 263.183 531.432 251.253 530.024 239.23 C 528.151 231.975 520.728 226.657 512.834 223.824 C 505.177 219.453 502.065 208.005 510.14 203.694 C 515.873 200.216 523.536 200.309 530.068 200.322 C 523.086 197.734 514.214 192.221 515.067 184.641 C 515.934 176.934 525.744 173.027 533.979 173.343 C 537.792 173.49 542.595 172.336 543.252 168.708 C 552.319 155.792 564.505 144.199 577.558 133.915 C 558.738 137.69 539.741 144.225 523.322 153.743 C 500.785 172.551 454.563 187.598 454.187 204.864 C 453.954 215.594 486.227 228.855 504.589 243.169 C 504.973 243.391 504.854 243.294 504.649 243.218"></path>
<linearGradient id="path22901_1_" gradientUnits="userSpaceOnUse" x1="1649.2333" y1="1567.0759" x2="1687.6333" y2="1567.0759" gradientTransform="matrix(0.6 0 0 0.6 -497.144 -730.228)">
	<stop offset="0" style="stop-color:#056780"></stop>
	<stop offset="1" style="stop-color:#62CBE6"></stop>
</linearGradient>
<path id="path22901" fill="none" stroke="url(#path22901_1_)" stroke-width="3" d="M 467.333 194.361 C 472.663 193.56 475.503 189.454 479.604 187.192 C 485.146 183.54 490.278 179.302 496.429 176.556 C 501.092 174.639 504.27 171.484 508.69 169.509 C 513.631 167.302 517.479 163.435 522.348 161.469 C 527.547 159.535 532.359 157.155 536.135 153.905 C 536.405 153.976 537.105 153.306 536.829 153.224 M 469.711 198.046 C 475.3 194.776 481.475 192.609 486.905 189.341 C 491.276 186.711 496.42 184.686 500.442 182.019 C 502.837 181.474 504.998 181.224 506.902 180.765 M 470.837 216.221 C 476.208 218.313 480.662 221.758 485.205 224.159 C 489.693 228.191 494.816 230.367 498.948 234.179 C 503.15 238.055 507.275 242.455 512.103 245.113 C 515.387 248.15 519.361 251.767 519.691 255.485 M 521.455 255.546 C 521.721 255.676 521.909 255.727 521.643 255.597 C 521.909 255.727 522.149 255.691 521.882 255.561 M 472.079 211.046 C 480.509 217.58 490.833 221.521 499.482 227.011 C 504.052 230.587 509.955 231.933 513.823 235.43 C 515.768 237.844 517.103 240.302 518.405 242.533 M 474.081 208.5 C 480.822 211.263 487.808 213.004 494.056 215.625 C 495.652 216.166 497.088 216.434 498.252 216.251 M 474.326 200.72 C 483.382 199.695 491.081 195.841 499.891 194.939 C 504.005 194.518 508.625 195.796 512.275 195.39 M 474.679 205.182 C 480.594 205.253 486.397 206.036 491.8 207.193 C 493.693 207.596 495.386 207.893 496.756 207.924"></path>
<path id="path4789" fill="#010101" d="M 292.281 141.993 C 227.091 42.4888 121.715 192.797 150.518 261.709 C 200.524 381.348 332.554 302.31 373.211 280.039 C 401.941 264.302 445.495 232.255 461.49 226.077 C 482.191 218.082 482.727 191.653 457.115 191.205 C 436.287 189.868 422.228 181.352 394.809 170.217 C 354.832 153.983 318.756 132.177 298.404 129.074 C 294.576 128.49 288.948 128.141 286.421 127.185 C 289.972 137.174 278.255 107.542 292.281 141.993"></path>
<path id="path4758" fill="#010101" d="M 311.169 161.353 C 301.373 184.968 294.156 206.901 277.614 222.099 C 261.071 237.296 204.49 233.916 212.282 134.645 C 212.364 133.606 216.562 136.367 216.818 135.945 C 241.226 95.6668 266.311 80.1931 292.083 86.667 C 317.855 93.1409 324.392 132.555 311.519 159.443 C 311.384 159.724 311.272 161.106 311.169 161.353"></path>
<path id="path4785" fill="#010101" d="M 245.499 151.3 C 255.568 176.343 247.308 213.023 220.868 228.751 C 194.428 244.478 157.028 228.765 143.589 189.549 C 143.448 189.139 143.45 189.114 143.325 188.699 C 131.411 149.175 151.247 112.684 179.279 105.243 C 207.311 97.8018 235.246 118.88 245.176 149.644 C 245.28 149.966 245.394 151.039 245.499 151.3"></path>
<linearGradient id="path10475_1_" gradientUnits="userSpaceOnUse" x1="1384.5983" y1="1644.4913" x2="1303.8882" y2="1344.0714" gradientTransform="matrix(0.6 0 0 0.6 -497.144 -730.228)">
	<stop offset="0" style="stop-color:#09100D"></stop>
	<stop offset="0.5235" style="stop-color:#49847E"></stop>
	<stop offset="0.8486" style="stop-color:#3F8F91"></stop>
	<stop offset="1" style="stop-color:#C7E9F4"></stop>
</linearGradient>
<path id="path10475" fill="url(#path10475_1_)" d="M 290.513 92.3676 C 276.44 88.7218 262.349 96.2015 252.079 105.918 C 247.222 110.513 243.485 116.232 238.04 121.484 C 232.411 120.21 224.341 122.582 216.879 118.094 C 205.924 106.897 183.526 102.911 169.076 114.358 C 147.739 131.262 142.285 163.498 154.593 189.307 C 158.654 195.972 161.903 204.7 159.748 211.254 C 160.114 245.138 164.845 271.158 178.612 292.188 C 192.149 310.067 214.609 318.079 236.163 318.173 C 273.116 318.333 302.858 304.746 328.861 294.592 C 350.597 286.105 369.945 274.096 388.621 261.444 C 410.491 246.627 434.379 232.012 461.449 219.042 C 480.542 207.831 482.971 195.139 455.886 196.977 C 434.86 195.989 415.387 185.035 396.786 177.417 C 369.552 166.263 345.058 153.921 324.774 145.394 C 320.07 143.416 315.774 141.574 311.137 139.766 C 314.349 125.309 311.248 106.305 298.949 96.6571 C 296.362 94.6273 293.817 93.3672 290.458 92.358 C 290.715 92.4441 290.606 92.4249 290.513 92.3676"></path>
<radialGradient id="path18571_1_" cx="354.7978" cy="886.7559" r="37.7441" gradientTransform="matrix(1.0728 0 0 0.6872 -173.5412 -388.6052)" gradientUnits="userSpaceOnUse">
	<stop offset="0" style="stop-color:#408E8E"></stop>
	<stop offset="1" style="stop-color:#408E8E;stop-opacity:0"></stop>
</radialGradient>
<path id="path18571" fill="url(#path18571_1_)" d="M 267.803 197.143 C 279.787 219.78 256.29 253.299 222.429 271.164 C 188.577 289.024 167.497 291.593 160.674 267.207 C 153.854 242.834 158.312 206.71 211.893 190.965 C 265.496 175.213 262.876 176.488 267.14 195.97 C 270.252 198.414 268.926 196.068 267.803 197.143"></path>
<g id="g27390">
	<path id="path27366" fill="#3F6764" d="M 335.556 163.042 C 328.073 162.564 331.117 167.387 330.967 170.575 C 330.741 175.381 333.714 181.906 328.375 185.25 C 331.8 187.532 335.674 191.113 337.123 187.27 C 341.461 179.87 338.423 170.777 338.05 162.754 C 337.367 162.886 336.607 163.059 335.556 163.042"></path>
	<path id="path27368" fill="#3F6764" d="M 344.021 164.23 C 336.4 163.646 339.678 168.694 339.604 172.007 C 339.493 176.974 342.373 183.706 337.026 187.178 C 340.543 189.964 344.703 192.786 346.067 188.843 C 350.051 181.232 347.234 172.078 346.525 163.953 C 345.86 164.087 345.073 164.249 344.021 164.23"></path>
	<path id="path27370" fill="#3F6764" d="M 328.345 161.201 C 320.896 160.836 323.808 165.591 323.529 168.665 C 323.11 173.278 325.979 179.541 320.673 182.719 C 324.408 185.565 327.849 187.964 329.636 184.403 C 333.276 177.152 331.07 168.74 330.784 160.9 C 330.189 161.064 329.363 161.21 328.345 161.201"></path>
</g>
<radialGradient id="path24433_1_" cx="815.3243" cy="1914.8695" r="57.2566" gradientTransform="matrix(0.7851 0.4533 -0.0838 0.1452 -118.747 -487.4206)" gradientUnits="userSpaceOnUse">
	<stop offset="0" style="stop-color:#3F8D8D"></stop>
	<stop offset="1" style="stop-color:#3F8D8D;stop-opacity:0"></stop>
</radialGradient>
<path id="path24433" fill="url(#path24433_1_)" d="M 391.016 181.645 C 388.536 185.293 365.029 177.862 339.332 168.507 C 313.634 159.153 301.83 151.99 305.519 148.159 C 309.207 144.328 325.531 147.531 349.781 156.538 C 374.031 165.544 393.496 177.997 391.016 181.645"></path>
<linearGradient id="path5239_1_" gradientUnits="userSpaceOnUse" x1="1248.4752" y1="1699.9187" x2="1267.0752" y2="1631.1987" gradientTransform="matrix(0.6 0 0 0.6 -509.144 -731.428)">
	<stop offset="0" style="stop-color:#3C8B68"></stop>
	<stop offset="1" style="stop-color:#FFFFFF"></stop>
</linearGradient>
<path id="path5239" fill="url(#path5239_1_)" stroke="#010101" stroke-width="2.5" d="M 260.015 275.503 C 267.789 263.125 270.262 248.926 272.112 234.834 C 275.874 217.039 278.398 264.392 277.653 265.921"></path>
<path id="path4787" fill="#FFFFFF" d="M 235.689 147.567 C 244.611 173.894 235.58 208.066 212.557 219.475 C 189.531 230.885 158.606 216.211 148.657 182.654 C 148.553 182.303 148.493 182.303 148.398 181.956 C 139.404 148.897 155.771 118.208 179.471 111.448 C 203.172 104.689 226.84 121.007 235.402 146.682 C 235.491 146.951 235.595 147.292 235.689 147.567"></path>
<path id="path3417" fill="#FFFFFF" d="M 298.552 164.589 C 290.223 181.99 287.159 199.136 274.708 211.669 C 262.257 224.203 222.773 221.474 226.992 144 C 227.036 143.19 229.618 144.807 229.795 144.459 C 246.69 111.245 266.99 100.208 286.452 105.89 C 305.913 111.572 309.399 143.209 298.672 163.024 C 298.56 163.231 298.639 164.407 298.552 164.589"></path>
<linearGradient id="path5241_1_" gradientUnits="userSpaceOnUse" x1="1299.7462" y1="1680.1943" x2="1322.6862" y2="1625.0543" gradientTransform="matrix(0.6 0 0 0.6 -510.944 -730.228)">
	<stop offset="0" style="stop-color:#64BA95"></stop>
	<stop offset="1" style="stop-color:#FFFFFF"></stop>
</linearGradient>
<path id="path5241" fill="url(#path5241_1_)" stroke="#010101" stroke-width="2.5" d="M 282.745 268.777 C 290.942 252.433 290.272 224.69 285.714 208.823 C 293.783 208.87 302.601 252.106 300.375 264.743"></path>
<linearGradient id="path4812_1_" gradientUnits="userSpaceOnUse" x1="1363.6028" y1="1551.7262" x2="1282.7029" y2="1432.7861" gradientTransform="matrix(0.7772 -0.0106 0.0106 0.7772 -657.516 -851.149)">
	<stop offset="0" style="stop-color:#66C3A8"></stop>
	<stop offset="0.4761" style="stop-color:#6EC6AB"></stop>
	<stop offset="1" style="stop-color:#66C3A8;stop-opacity:0"></stop>
</linearGradient>
<linearGradient id="path4812_2_" gradientUnits="userSpaceOnUse" x1="1362.8655" y1="1606.2518" x2="1461.6655" y2="1666.8818" gradientTransform="matrix(0.6581 0 0 0.6581 -550.8279 -786.4222)">
	<stop offset="0" style="stop-color:#FFFFFF;stop-opacity:0.2346"></stop>
	<stop offset="0.5" style="stop-color:#B7CFDD"></stop>
	<stop offset="1" style="stop-color:#6FA2BD"></stop>
</linearGradient>
<path id="path4812" fill="url(#path4812_1_)" stroke="url(#path4812_2_)" stroke-width="1.9431" d="M 340.085 233.974 C 358.26 253.873 361.113 284.553 379.228 303.924 C 389.386 315.655 402.342 327.875 415.953 325.52 C 462.133 316.172 451.606 312.69 413.947 300.33 C 409.88 295.531 410.022 287.952 412.733 283.664 C 414.201 280.84 415.63 276.982 412.754 273.306 C 409.575 272.599 404.86 274.913 402.137 270.765 C 398.516 262.927 403.216 254.989 397.846 247.511 C 385.311 238.123 370.84 232.835 356.88 227.886 C 352.287 226.132 347.568 223.937 342.812 221.108 C 342.883 221.618 342.79 222.038 342.516 222.327"></path>
<linearGradient id="path4847_1_" gradientUnits="userSpaceOnUse" x1="1141.6433" y1="1688.4041" x2="1332.0532" y2="1688.4041" gradientTransform="matrix(0.6 0 0 0.6 -497.144 -730.228)">
	<stop offset="0" style="stop-color:#1C4B4B"></stop>
	<stop offset="0.8273" style="stop-color:#2E7C7C"></stop>
	<stop offset="1" style="stop-color:#2E7C7C;stop-opacity:0"></stop>
</linearGradient>
<path id="path4847" fill="url(#path4847_1_)" d="M 276.847 264.458 C 274.898 265.433 273.04 266.676 270.744 267.625 C 270.936 267.822 270.736 267.805 270.648 267.728 C 270.675 267.73 270.783 268.119 270.381 267.657 C 250.558 283.058 217.929 299.16 193.003 315.404 C 195.111 316.942 197.262 317.894 199.283 318.452 C 222.369 303.352 251.695 288.121 271.349 274.073 C 287.217 265.569 300.074 263.927 313.153 270.134 C 313.624 270.511 314.086 270.998 314.284 271.198 C 314.468 271.323 316.937 265.781 316.749 265.678 C 316.429 265.325 315.879 264.804 315.273 264.202 C 315.273 264.202 315.239 264.136 314.912 263.863 C 315.24 264.132 314.63 263.743 314.63 263.743 C 302.326 257.719 290.496 257.625 276.847 264.458"></path>
<path id="path11234" fill="none" stroke="#010101" stroke-width="2.5" d="M 334.382 164.84 C 333.911 164.823 337.744 181.984 333.053 186.247"></path>
<path id="path11236" fill="none" stroke="#010101" stroke-width="2.5" d="M 342.876 166.058 C 342.487 166.015 346.602 183.78 341.728 188.191"></path>
<path id="path11238" fill="none" stroke="#010101" stroke-width="2.5" d="M 327.115 162.997 C 326.563 163.038 329.884 179.612 325.32 183.678"></path>
<path id="path5414" opacity="0.6756" fill="#DEF2F7" stroke="#B9E4ED" stroke-width="5" enable-background="new    " d="M 272.959 171.778 C 273.733 177.476 271.025 182.673 267.108 185.764 C 263.192 188.856 255.965 189.156 253.812 170.772 C 253.778 170.481 253.815 170.736 253.836 170.48 C 255.16 154.32 261.577 155.717 265.708 158.285 C 269.839 160.854 273.075 166.144 272.956 171.43 C 272.954 171.514 272.947 171.688 272.959 171.778"></path>
<path id="path7335" fill="#010101" d="M 266.248 171.724 C 266.57 174.714 264.768 177.085 262.608 177.705 C 260.448 178.324 258.548 176.377 258.081 171.468 C 258.072 171.378 258.078 171.418 258.08 171.336 C 258.174 166.861 260.035 165.042 262.292 165.65 C 264.549 166.258 266.467 168.849 266.249 171.558 C 266.245 171.608 266.242 171.67 266.248 171.724"></path>
<path id="path6952" fill="#F9F9FA" d="M 263.892 171.812 C 264.174 173.977 262.786 175.627 261.19 175.915 C 259.595 176.203 258.333 174.663 257.996 171.704 C 257.99 171.65 257.992 171.652 257.995 171.604 C 258.135 168.957 259.348 167.368 260.991 167.66 C 262.634 167.951 264.101 169.799 263.893 171.694 C 263.889 171.729 263.887 171.772 263.892 171.812"></path>
<path id="path7337" fill="#010101" d="M 260.249 171.929 C 260.235 172.593 259.743 173.131 259.152 173.139 C 258.56 173.146 258.091 172.597 258.103 171.902 C 258.114 171.207 258.604 170.667 259.198 170.689 C 259.793 170.712 260.263 171.265 260.249 171.929"></path>
<path id="path7347" opacity="0.6756" fill="#E8F6F9" stroke="#CEECF2" stroke-width="5" enable-background="new    " d="M 228.581 173.524 C 228.739 188.882 215.249 202.677 198.758 203.115 C 182.266 203.553 169.041 190.61 169.052 174.326 C 169.052 174.066 169.063 173.812 169.068 173.557 C 169.407 157.564 182.904 144.539 199.346 144.806 C 215.787 145.073 228.955 157.894 228.603 172.729 C 228.597 172.965 228.579 173.281 228.581 173.524"></path>
<path id="path7349" fill="#010101" d="M 218.298 172.97 C 218.385 183.68 209.327 192.66 198.425 192.862 C 187.522 193.063 178.86 184.458 178.85 173.562 C 178.85 173.364 178.86 173.167 178.865 172.974 C 179.165 162.35 188.052 153.584 198.931 153.561 C 209.811 153.538 218.633 162.009 218.316 172.377 C 218.31 172.567 218.296 172.776 218.298 172.97"></path>
<path id="path7351" fill="#FFFFFF" d="M 212 173.041 C 212.092 180.991 205.495 187.457 197.614 187.572 C 189.732 187.688 183.51 181.45 183.463 173.471 C 183.462 173.325 183.47 173.182 183.475 173.042 C 183.73 165.333 190.117 158.876 197.988 158.796 C 205.859 158.716 212.291 164.957 212.013 172.611 C 212.007 172.751 211.998 172.898 212 173.041"></path>
<path id="path7355" fill="#A5D1DC" d="M 285.898 105.605 C 267.485 102.381 249.167 110.831 232.462 138.904 C 222.22 119.167 201.07 105.628 179.91 111.632 C 156.211 118.356 139.394 148.823 148.503 181.834 C 157.618 214.871 189.008 230.686 211.869 219.25 C 221.253 214.555 229.066 205.877 232.916 196.757 C 248.722 220.059 263.738 219.724 273.802 211.081 C 288.506 198.453 288.826 183.25 298.663 163.746 C 308.5 144.242 306.413 112.684 286.361 106.637 C 286.06 106.546 286.632 105.957 285.587 106.209 C 286.194 105.692 285.573 106.901 285.898 105.605 M 286.001 110.346 C 286.974 111.069 287.462 110.848 288.147 111.26 C 298.271 117.356 302.863 130.344 301.229 142.519 C 297.985 166.683 287.316 177.855 282.944 192.747 C 280.859 199.849 273.932 209.743 264.499 211.015 C 254.348 212.383 241.486 205.881 233.756 178.762 C 230.621 186.661 227.323 194.167 223.417 200.994 C 217.044 214.398 198.851 221.626 183.989 216.097 C 150.287 202.684 142.147 158.112 159.761 131.747 C 168.109 119.252 184.953 110.654 199.883 115.682 C 219.088 122.15 227.58 138.849 233.234 156.194 C 239.444 136.01 245.818 127.921 253.51 120.54 C 262.026 112.37 273.905 106.707 285.306 110.151 C 285.54 110.221 286.079 110.545 285.983 110.399 C 286.214 110.493 286.178 110.6 286.001 110.346"></path>
<linearGradient id="path7369_1_" gradientUnits="userSpaceOnUse" x1="1367.861" y1="1438.6666" x2="1367.861" y2="1482.6666" gradientTransform="matrix(0.6 0 0 0.6 -497.144 -730.228)">
	<stop offset="0" style="stop-color:#010101"></stop>
	<stop offset="1" style="stop-color:#010101;stop-opacity:0"></stop>
</linearGradient>
<path id="path7369" fill="#2E7C7C" stroke="url(#path7369_1_)" stroke-width="5" d="M 314.39 134.107 C 314.847 134.494 311.219 152.518 310.017 164.146"></path>
<linearGradient id="path15089_1_" gradientUnits="userSpaceOnUse" x1="1113.4719" y1="1535.2687" x2="1137.272" y2="1555.0687" gradientTransform="matrix(0.6 0 0 0.6 -497.144 -730.228)">
	<stop offset="0" style="stop-color:#010101"></stop>
	<stop offset="1" style="stop-color:#010101;stop-opacity:0"></stop>
</linearGradient>
<path id="path15089" fill="none" stroke="url(#path15089_1_)" stroke-width="4" d="M 154.408 202.27 C 153.317 202.908 180.151 234.813 206.363 225.756"></path>
<linearGradient id="path15861_1_" gradientUnits="userSpaceOnUse" x1="1185.0688" y1="1547.3167" x2="1185.0688" y2="1564.9967" gradientTransform="matrix(0.6 0 0 0.6 -497.144 -730.228)">
	<stop offset="0" style="stop-color:#010101"></stop>
	<stop offset="1" style="stop-color:#010101;stop-opacity:0"></stop>
</linearGradient>
<path id="path15861" fill="none" stroke="url(#path15861_1_)" stroke-width="3" d="M 212.291 221.968 C 223.269 216.46 233.001 200.161 232.93 199.663 C 233.093 200.855 242.38 218.525 249.904 215.249"></path>
<linearGradient id="path23718_1_" gradientUnits="userSpaceOnUse" x1="1424.4163" y1="1647.9843" x2="1484.4163" y2="1751.9843" gradientTransform="matrix(0.6 0 0 0.6 -497.144 -730.228)">
	<stop offset="0" style="stop-color:#226879"></stop>
	<stop offset="1" style="stop-color:#62CBE6"></stop>
</linearGradient>
<path id="path23718" fill="none" stroke="url(#path23718_1_)" stroke-width="3" d="M 343.201 229.494 C 348.651 235.579 353.523 242.194 359.209 247.481 C 366.267 256.229 370.027 266.75 375.163 276.268 C 378.931 285.068 384.794 292.545 390.09 299.7 C 394.109 304.424 398.629 309.055 403.697 310.271 C 406.709 310.772 409.175 309.453 411.788 309.636 M 350.264 231.031 C 357.159 234.114 361.854 240.733 365.271 247.11 C 367.351 250.993 370.512 254.641 372.735 258.137 C 379.416 268.914 383.497 281.009 390.5 291.272 C 393.508 295.987 397.375 300.357 401.847 301.5 M 353.564 229.62 C 357.908 232.712 363.205 232.892 366.62 236.999 C 376.287 244.797 381.306 256.167 388.089 265.844 C 392.166 272.439 395.995 279.065 398.938 285.757 C 399.435 286.643 399.613 287.359 399.593 287.957 M 348.185 240.501 C 351.369 245.158 356.306 248.175 358.228 253.192 C 364.908 261.738 368.515 271.874 372.03 281.586 C 375.164 288.51 380.362 293.581 384.692 298.802 C 389.956 305.471 395.649 312.828 402.942 314.269 C 406.08 315.26 409.028 315.748 411.72 316.49"></path>
<path id="path5922" fill="#010101" d="M 201.721 172.546 C 201.638 175.14 199.479 177.258 196.897 177.256 C 194.317 177.254 192.292 175.139 192.376 172.546 C 192.46 169.952 194.619 167.862 197.2 167.862 C 199.779 167.863 201.804 169.951 201.721 172.546"></path>
</svg>
