<svg version="1.1" id="Layer_1" xmlns="http://www.w3.org/2000/svg" xmlns:xlink="http://www.w3.org/1999/xlink" x="0px" y="0px" width="400px" height="300px" viewBox="0 0 400 300" enable-background="new 0 0 400 300" xml:space="preserve"><defs></defs><path d="M68.30952576448976,93.73949421829549L66.79744038237426,95.1731630207143L65.31024330998629,96.6308026233779L63.848169301015375,98.11208428353069L62.41145310981439,99.61667925766183L61.00032948913697,101.14425880347822L59.61503319413541,102.69449417686027L58.2557989776316,104.26705663558799L56.9228615946415,105.86161743539544L55.61645579732374,107.47784783481785L54.33681634003115,109.1154190903444L53.084177977116525,110.77400245846431L51.85877546133345,112.45326919688446L50.66084354776615,114.15289056141211L49.49061698937281,115.87253780997355L48.348330539638454,117.61188219959371L47.234218952984136,119.37059498683497L46.14851698362614,121.14834742804022L45.0914593837914,122.94481078181781L44.063280909159005,124.75965630314664L43.064216311955875,126.59255525063506L42.094500346466575,128.44317888069918L41.15436776704388,130.31119844982814L40.244053327241005,132.19628521511999L39.36379177994803,134.098110434428L38.51381788018088,136.01634536348618L37.69436638089775,137.9506612602209L36.9056720362469,139.9007293809019L36.14796959998611,141.86622098284673L35.415926654766764,143.8371803633931L34.72647946684768,145.84215965891994L34.11583560385279,147.93738648759518L33.589640113306444,150.12401022284075L33.12317900761957,152.35648188060293L32.73290164209831,154.65527697694205L32.4004789479244,156.98838234748936L32.12870203088036,159.35670891627387L31.926193375037712,161.76879473715874L31.7853321238004,164.21071428387447L31.715552409182663,166.69168326954733L31.710497307990863,169.20015659593523L31.78086902213724,171.74622286810202L31.926954405812552,174.32648893310258L32.13924737720683,176.9266043284004L32.43428631183454,179.5623699154172L32.79561728369168,182.21224971241557L33.23200597632308,184.88317758748912L33.758397921792664,187.5874093798676L34.3518336338397,190.29828575339178L35.02092231390233,193.0220867488211L35.7811798004939,195.7706432518096L36.61449570928124,198.5238537467595L37.53301548268601,201.2901792980234L38.54660807978192,204.07497511189527L39.631990105782535,206.8552752517979L40.802794740059625,209.6401448661499L42.074065610163046,212.4384935355092L43.42310892981283,215.22934766917444L44.87208124201183,218.0268180680825L46.39480200109517,220.8086726714896L48.00784589860697,223.58454492256826L49.727346632451855,226.36235604640655L51.52889868863994,229.12248123774168L53.437441042442515,231.87829160587762L55.42463073290881,234.60886886932354L57.510404286438785,237.32389527547485L59.69037951055762,240.01771775638048L61.97178661086093,242.69138923586826L64.36010615958617,245.3444941655526L66.84614118284252,247.96878290328024L69.41008839196076,250.55156217329812L72.07555744799524,253.10197095531612L74.85428585472386,255.6220198355658L77.71849536132514,258.0958131944917L80.68975358597936,260.5298665589153L83.76975993697582,262.92125783965116L86.92687251194478,265.2543806642214L90.18846078169514,267.53703400210736L93.54475685145258,269.7623699803614L97.01180792485587,271.9325345600714L100.58761768696102,274.0429921252338L104.24106235240755,276.0809356749761L108.00271605687081,278.05234642007576L111.84531497147441,279.9464045171949L115.78780821121457,281.76499160612167L119.8379413391203,283.5061614657898L123.96743474282083,285.16014484925745L128.20505454537073,286.7294886578064L132.51000320806656,288.20314505512783L136.91550114260554,289.5837721026214L141.42062774545366,290.8671598436785L145.99450479653626,292.04566203149193L150.67024799528483,293.119813374531L155.40557713850703,294.08180690202596L160.23019469918898,294.931059763756L165.136173123719,295.66314856226006L170.11120029304212,296.2739600611869L175.13738754441965,296.7600693150373L180.24336861277123,297.11872417565644L185.4079661459995,297.3463659518053" class="target-curve-polyline" stroke="#ff0000" style="stroke-width: 3px; fill-opacity: 0; stroke-dasharray: 20px, 10px, 5px, 5px, 5px, 10px;"></path><line x1="163.99513820100725" x2="165.136173123719" y1="290.1586364182714" y2="295.66314856226006" class="distance-line" style="stroke-width: 2px; fill-opacity: 0;" stroke="#0000ff"></line><path d="M185.4079661459995,297.3463659518053L190.55636117636536,297.44035499029854L195.6703174119791,297.40049658392326L200.70466069769716,297.2332116581508L205.6811815138627,296.94128804256707L210.5794097169466,296.53067464079845L215.42970174190648,296.0018088375074L220.19662723266208,295.3626933553405L224.89932637496383,294.61450542339907L229.50470136462758,293.7664855553103L234.04146227192734,292.8176450312419L238.4855077394403,291.7762885797813L242.86263090447108,290.64064888315244L247.1352403681263,289.42278222814076L251.3383290300414,288.11799091733286L255.4524080362979,286.7343834014884L259.4714369691212,285.27724478953877L263.4227624675487,283.74180441177907L267.27894424981196,282.13929665521266L271.03144659783965,280.4761468323145L274.7129423467169,278.7445420979431L278.3007046566386,276.9551662416826L281.7944521778597,275.1113524452627L285.2032773975796,273.2126080084669L288.51337285972073,271.2674087342106L291.7547123745237,269.2660150961797L294.9026361035968,267.22136308856096L297.9598008447997,265.1351637548405L300.9331829967318,263.0068430906891L303.8132479045087,260.8435707899184L306.6148858360948,258.64054848888884L309.3294513028852,256.4044691188327L311.96983692223006,254.13080310995656L314.51932071900325,251.83081295393248L317.00261073942687,249.49287228753963L319.39565463977124,247.13272701193927L321.7039818736773,244.74961294620152L323.9463952591984,242.33406070076745L326.0975897642753,239.90378512676392L328.165027053761,237.4565204567424L330.1696429282473,234.98034830851486L332.0873076619326,232.49330735887662L333.92607819016314,229.99213420555787L335.70175040595734,227.46734611864508L337.3900754041806,224.93839051749956L339.0013315147872,222.39994719284036L340.55280659323586,219.8404488623027L342.02093675839626,217.27999508519036L343.41761494366307,214.7112211413958L344.74145769881443,212.13710274466985L345.9932068469244,209.55891678917243L347.1873126599419,206.96578042836092L348.300605959176,204.37974065610464L349.34490974976023,201.79236479359687L350.3174216484225,199.2081471113828L351.2219103645587,196.6254977253995L352.0579095806757,194.0467520616243L352.8252365708578,191.47405359941897L353.5346978246735,188.89821211447824L354.16463696104114,186.3435572703609L354.72918439772906,183.79768208198462L355.2375711747169,181.25233246596395L355.6699066183631,178.73150054561043L356.0397695475277,176.22237655326748L356.3549530186574,173.7177082805467L356.5963527963022,171.2422307217164L356.7777878863045,168.78187454040733L356.8927961982147,166.34698708514972L356.95156397749236,163.92705493723201L356.9595324972638,161.51679072262573L356.89787153474794,159.14355172468706L356.78392480441164,156.78653580553268L356.59720521332173,154.47713980010258L356.353818654384,152.19589982983734L356.0568064130106,149.94098330061482L355.69783140199286,147.7278847266412L355.29105312349475,145.5378892213796L354.8095147602582,143.41717561400972L354.26992526652435,141.34373021612026L353.6268614364041,139.39963146362942L352.95541217855646,137.46336939302543L352.2558745892495,135.53522114117504L351.5285457647319,133.61546384133956L350.77372280487725,131.70437463036626L349.9917028051052,129.80223064207559L349.1827828625129,127.90930901277522L348.3472600766847,126.02588687709513L347.48543154250035,124.15224137163227L346.59759435842597,122.28864962935855L345.6840456221178,120.43538878741062L344.7450824295547,118.592735980438L343.78100187949184,116.76096834362994L342.7921010698555,114.9403630127348L341.7786770960653,113.13119712157307L340.7410270557775,111.33374780728138L339.67944804745815,109.5482922028317L338.59423716710546,107.77510744647898L337.4856915140143,106.01447067063607L336.354108183624,104.26665901272888L335.1997842741304,102.53194960711761" class="target-curve-polyline" stroke="#ff0059" style="stroke-width: 3px; fill-opacity: 0; stroke-dasharray: 20px, 10px, 5px, 5px, 5px, 10px;"></path><line x1="192.77313980444902" x2="190.55636117636536" y1="292.4474207513591" y2="297.44035499029854" class="distance-line" stroke="#0000ff" style="stroke-width: 2px; fill-opacity: 0;"></line><path d="M335.1997842741304,102.53194960711761L334.0707869487304,100.88149606663269L332.9278183201934,99.2571457647314L331.7708769160396,97.65905985020198L330.5999612671049,96.08739946959611L329.41506989981065,94.54232577364951L328.21620134499284,93.02399990891375L327.0033541299017,91.5325830255655L325.77652678427444,90.06823627210369L324.53571783673004,88.63112079536927L323.2809258172951,87.22139774607857L322.01214925237116,85.8392282713618L320.7293866722548,84.48477352054705L319.43263660612405,83.15819464130429L318.12189758122895,81.85965278381009L316.7971681284058,80.58930909461603L315.45844677490476,79.34732472389877L314.1057320501276,78.13386081965979L312.7390224834759,76.94907852990076L311.35831660291717,75.79313900407321L309.9636129369682,74.66620339065507L308.5549100160275,73.56843283733741L307.1322063670657,72.4999884938823L305.6955005203694,71.46103150781505L304.2447910046232,70.45172302786226L302.78007634762685,69.47222420322674L301.30135507806466,68.52269618263517L299.80862572622345,67.60330011361278L298.3018868207878,66.71419714488621L296.78113688950145,65.85554842557538L295.2463744611047,65.0275151044898L293.69759806588445,64.23025832915476L292.13480623086707,63.46393924941528L290.5579974862834,62.728719012713704L288.96717036081793,62.024758767776646L287.36232338238216,61.35221966397278L285.74345508032195,60.71126284922076L284.11998742191554,60.18529726289764L282.48969849222533,59.73489784244978L280.85579118450573,59.37339906816416L279.2154427574385,59.06870292744599L277.5726179894213,58.84090509657987L275.9242251474222,58.66265312675934L274.2713837334552,58.5368343685354L272.6183673743154,58.48221027597039L270.96199877687405,58.47621739702381L269.30639388657266,58.5353071462233L267.6476882724906,58.6368551006433L265.9879774742118,58.78785505191152L264.3302000473484,58.997302606682084L262.67383519785653,59.25910261217814L261.0232344636968,59.586048084605224L259.37409297596145,59.95809183423623L257.72987471037055,60.38459419751576L256.0901402329409,60.86062665274201L254.45478552205472,61.382926687523224L252.8257188528047,61.95459289692867L251.2032039897138,62.57337476819924L249.5916981578633,63.24876404531466L247.984351262243,63.9585985489993L246.38617094537094,64.71409614401492L244.79794737795513,65.51429688923972L243.2204955292704,66.35822424265898L241.65559575699763,67.247033199718L240.10458129944735,68.1804906221918L238.5707776925506,69.16239604149551L237.05294342311782,70.18631282877972L235.54625290229035,71.23922133128664L234.05803268749278,72.3329701923962L232.58798690781086,73.4633609368513L231.13847697776234,74.63118265938843L229.7129854039918,75.83869673772824L228.30241047783866,77.0664075180602L226.91560307040515,78.32605044993811L225.55028972473542,79.61005549304792L224.20936405189923,80.91920670202535L222.8935528485907,82.25058099835208L221.60658717371615,83.60535462262635L220.3500459695879,84.98109285009912L219.11420308496514,86.36047283449437L217.90986738754225,87.7536916002278L216.73753876937164,89.15649976234576L215.58600894035524,90.55112115350047L214.46667047370428,91.94678779237057L213.37287781994405,93.33152401241782L212.30930229838398,94.7059762260228L211.27296202940144,96.06249591754474L210.26948703117085,97.40184626203205L209.29802659220846,98.71803102528861L208.35557339706966,100.00331905836723L207.43517698108167,101.2472688311625L206.5494876418706,102.45522162725891L205.68344470516806,103.61060229637081L204.84947318672494,104.7175621780173L204.0465810687197,105.76962574049287L203.2584730711787,106.75137224404556L202.4952113546776,107.66420891834548L201.7518957519657,108.50016922928842L201.01726504702404,109.24894482252687L200.3034097523035,109.91166612354628" class="target-curve-polyline" stroke="#ff0099" style="stroke-width: 3px; fill-opacity: 0; stroke-dasharray: 20px, 10px, 5px, 5px, 5px, 10px;"></path><line x1="341.40450059475796" x2="335.1997842741304" y1="103.91749017353288" y2="102.53194960711761" class="distance-line" stroke="#0000ff" style="stroke-width: 2px; fill-opacity: 0;"></line><path d="M200.3034097523035,109.91166612354628L199.60996150356948,110.47479538837207L198.9327368436291,110.92963400370235L198.27745794055065,111.28169305795595L197.6266735062485,111.5291840933315L196.99194626872054,111.67919397893394L196.36510796514588,111.73304950809478L195.73694301648644,111.69284092042601L195.11198072755377,111.5632884360262L194.47791476336062,111.34683552119586L193.84426224635692,111.04836154879632L193.200279638131,110.6709535800132L192.55430949841656,110.21846022935311L191.88763671725965,109.69495415584205L191.20867218343173,109.10429473044701L190.5053241468327,108.45158519570174L189.790208835998,107.73936579252228L189.05346728386175,106.97265446170275L188.2891542891292,106.1567083670048L187.50419213519135,105.29403643506589L186.6908518460676,104.39037169714334L185.86152646949606,103.44572940765809L185.0031206266741,102.4675268532071L184.1161286884281,101.45943372355414L183.21263488844866,100.4199838709883L182.27293631508942,99.36061789161508L181.30478232178007,98.28174983802205L180.3048276613645,97.18851677529025L179.28315376096538,96.07889125028714L178.2273065403429,94.96281883095843L177.14405004413442,93.83978170948092L176.02906927027638,92.71564038501924L174.89332013092263,91.58613153491406L173.72514110592488,90.46203239218019L172.5279079660231,89.3441568371575L171.30204541835047,88.23520303651928L170.04875764577264,87.13714230147701L168.77073978959447,86.05045287544743L167.46770121942828,84.97795674058644L166.1416652470757,83.92030926187795L164.78813565620118,82.88437413922405L163.40919614045785,81.87092339428062L162.0050973097865,80.88241637817958L160.584044505796,79.91238704509544L159.1361668188071,78.97409678378267L157.66717013554012,78.06372076558003L156.17643304091484,77.18444476548828L154.66432387556696,76.3383554959417L153.13274682592194,75.52548356387484L151.58746715971853,74.74016377783508L150.01888946557696,73.9979990795467L148.43136807719708,73.2956607684898L146.82709617992975,72.63241681524164L145.2115670027305,72.00182659627202L143.5763092440005,71.41979191545968L141.92734950970214,70.87911351034961L140.26292247203625,70.38538303417442L138.58678158241446,69.93447372800439L136.9029714560097,69.52085044005008L135.20354324359508,69.16230301402487L133.49490444402386,68.84901041811553L131.77455696425514,68.58891094979063L130.0473401841122,68.37433046219991L128.31578384549672,68.20163605811743L126.57184292740268,68.09268565658539L124.82291135625508,68.03307415833906L123.06465238545678,68.03734824300447L121.30377044953502,68.09137588661743L119.53950548386993,68.20028595641466L117.75652855216363,68.41538633152521L115.95940459218583,68.73331286563165L114.16229309228217,69.11668743600569L112.37907676529537,69.52064091198856L110.60533055747652,69.9600872623532L108.84120635661156,70.43499468070993L107.08718085666581,70.94392702833575L105.34283514718456,71.4892032481493L103.60827674725789,72.0712158520156L101.88396738202604,72.68859891205136L100.17023153512903,73.34033457842861L98.46702902269969,74.02734047590297L96.77451173280164,74.74958479823601L95.09283155306952,75.50703573931577L93.42214037170825,76.29966149290877L91.7625900764256,77.12743025283487L90.11433255513404,77.99031021313336L88.4775196959801,78.8882695672149L86.85230338658366,79.8212765093916L85.23883551509132,80.7892992330741L83.6372679689865,81.79230593242826L82.0477526373518,82.83026480040215L80.47044140620795,83.90314403252555L78.90548616523242,85.01091182091831L77.35303880117738,86.1535363604282L75.81325120232577,87.33098584461221L74.28627525696061,88.54322846702729L72.77226285249714,89.79023242176608L71.2713658772866,91.0719659024587L69.7837362188124,92.38839710327093L68.30952576448976,93.73949421829549" class="target-curve-polyline" stroke="#ff007a" style="stroke-width: 3px; fill-opacity: 0; stroke-dasharray: 20px, 10px, 5px, 5px, 5px, 10px;"></path><line x1="61.72724173193339" x2="68.30952576448976" y1="93.05255667217203" y2="93.73949421829549" class="distance-line" stroke="#0000ff" style="stroke-width: 2px; fill-opacity: 0;"></line><path d="M111.53083879709874,171.6392816166624L111.53083879709874,171.6392816166624L111.53083879709874,171.6392816166624L111.53083879709874,171.6392816166624L111.53083879709874,171.6392816166624L111.53083879709874,171.6392816166624L111.53083879709874,171.6392816166624L111.53083879709874,171.6392816166624L111.65679620108081,171.1070553543389L111.65679620108081,171.1070553543389L111.65679620108081,171.1070553543389L111.65679620108081,171.1070553543389L111.72419888976273,170.84430275779147L111.72419888976273,170.84430275779147L111.72419888976273,170.84430275779147L111.72419888976273,170.84430275779147L111.72419888976273,170.84430275779147L111.72419888976273,170.84430275779147L111.72419888976273,170.84430275779147L111.72419888976273,170.84430275779147L111.72419888976273,170.84430275779147L111.72419888976273,170.84430275779147L111.72419888976273,170.84430275779147L111.72419888976273,170.84430275779147L111.94413819616118,170.07002629459146L111.94413819616118,170.07002629459146L111.94413819616118,170.07002629459146L111.94413819616118,170.07002629459146L111.94413819616118,170.07002629459146L111.94413819616118,170.07002629459146L111.94413819616118,170.07002629459146L111.94413819616118,170.07002629459146L111.94413819616118,170.07002629459146L111.94413819616118,170.07002629459146L111.94413819616118,170.07002629459146L111.94413819616118,170.07002629459146L111.94413819616118,170.07002629459146L111.94413819616118,170.07002629459146L111.94413819616118,170.07002629459146L111.94413819616118,170.07002629459146L112.2800363893299,169.07363772547401L112.2800363893299,169.07363772547401L112.2800363893299,169.07363772547401L112.2800363893299,169.07363772547401L112.2800363893299,169.07363772547401L112.2800363893299,169.07363772547401L112.2800363893299,169.07363772547401L112.2800363893299,169.07363772547401L112.2800363893299,169.07363772547401L112.2800363893299,169.07363772547401L112.2800363893299,169.07363772547401L112.2800363893299,169.07363772547401L112.2800363893299,169.07363772547401L112.2800363893299,169.07363772547401L112.2800363893299,169.07363772547401L112.2800363893299,169.07363772547401L112.66280944660328,168.1181840684821L112.66280944660328,168.1181840684821L112.66280944660328,168.1181840684821L112.66280944660328,168.1181840684821L112.66280944660328,168.1181840684821L112.66280944660328,168.1181840684821L112.66280944660328,168.1181840684821L112.66280944660328,168.1181840684821L112.66280944660328,168.1181840684821L112.66280944660328,168.1181840684821L112.66280944660328,168.1181840684821L112.66280944660328,168.1181840684821L112.66280944660328,168.1181840684821L112.66280944660328,168.1181840684821L113.03785704673233,167.32028086237534L113.03785704673233,167.32028086237534L113.03785704673233,167.32028086237534L113.12299684063409,167.15397174693766L113.12299684063409,167.15397174693766L113.12299684063409,167.15397174693766L113.12299684063409,167.15397174693766L113.12299684063409,167.15397174693766L113.12299684063409,167.15397174693766L113.12299684063409,167.15397174693766L113.12299684063409,167.15397174693766L113.12299684063409,167.15397174693766L113.12299684063409,167.15397174693766L113.12299684063409,167.15397174693766L113.12299684063409,167.15397174693766L113.12299684063409,167.15397174693766L113.12299684063409,167.15397174693766L113.12299684063409,167.15397174693766L113.12299684063409,167.15397174693766L113.60546700640218,166.29583237352693L113.60546700640218,166.29583237352693L113.60546700640218,166.29583237352693L113.60546700640218,166.29583237352693L113.60546700640218,166.29583237352693L113.60546700640218,166.29583237352693L113.60546700640218,166.29583237352693L113.60546700640218,166.29583237352693L113.60546700640218,166.29583237352693L113.60546700640218,166.29583237352693L113.60546700640218,166.29583237352693" class="target-curve-polyline" stroke="#ff00ff" style="stroke-width: 3px; fill-opacity: 0; stroke-dasharray: 20px, 10px, 5px, 5px, 5px, 10px;"></path><line x1="113.91740961294128" x2="113.60546700640218" y1="165.7695293325082" y2="166.29583237352693" class="distance-line" stroke="#0000ff" style="stroke-width: 2px; fill-opacity: 0;"></line><path d="M124.67954943505849,160.57762734778026L125.02516118237952,160.5922290332155L125.02516118237952,160.5922290332155L125.02516118237952,160.5922290332155L125.02516118237952,160.5922290332155L126.45006715504056,160.71861749056848L126.45006715504056,160.71861749056848L126.45006715504056,160.71861749056848L127.56327143774226,160.88472848004608L127.94294156048878,160.95392091576508L127.94294156048878,160.95392091576508L127.94294156048878,160.95392091576508L129.1078556321321,161.2029825148876L129.1078556321321,161.2029825148876L129.1078556321321,161.2029825148876L129.1078556321321,161.2029825148876L130.72099718472066,161.6297461644064L130.72099718472066,161.6297461644064L130.72099718472066,161.6297461644064L131.97679934732275,162.02177638161837L132.4043804930862,162.16641547648106L132.4043804930862,162.16641547648106L133.2731280376018,162.47653145935473L133.2731280376018,162.47653145935473L133.2731280376018,162.47653145935473L134.61062002493856,162.99362450734122L134.61062002493856,162.99362450734122L135.52461624522607,163.37064350616862L135.52461624522607,163.37064350616862L136.45712435093458,163.77403644235898L136.93030919590643,163.9853168585134L136.93030919590643,163.9853168585134L137.89066321015852,164.4267057518311L137.89066321015852,164.4267057518311L138.8701531230431,164.89340155926172L138.8701531230431,164.89340155926172L139.86857372828354,165.3837457136286L139.86857372828354,165.3837457136286L140.88690968760773,165.89863142494116L141.40350013074914,166.16472240096115L141.92505598572598,166.43636091968312L141.92505598572598,166.43636091968312L142.98332790373917,166.99604362766559L142.98332790373917,166.99604362766559L144.06229143281013,167.5771798676026L144.06229143281013,167.5771798676026L145.16196128241813,168.17792140519572L145.16196128241813,168.17792140519572L146.28296581927432,168.79758005595463L146.28296581927432,168.79758005595463L147.42593108108534,169.43525785094943L148.00570264505836,169.76023047089973L148.00570264505836,169.76023047089973L149.18211844434214,170.4214908608514L149.18211844434214,170.4214908608514L150.38170911171756,171.09697287835348L150.9902627024311,171.43931337851473L150.9902627024311,171.43931337851473L152.22523737956504,172.1320479226663L152.8519117404854,172.48214564205173L152.8519117404854,172.48214564205173L154.12366654409857,173.18789491505953L154.76921846037067,173.54353358926573L155.42117938526093,173.90037303256446L155.42117938526093,173.90037303256446L156.74458447761336,174.61633598124132L157.4164071225385,174.9751503522751L157.4164071225385,174.9751503522751L158.78046053806068,175.6923584574455L159.47304962827303,176.05030436920376L160.17266117016672,176.40713001236742L160.87940014322282,176.76248552991558L160.87940014322282,176.76248552991558L162.31503431407344,177.46773550176255L163.04417097593705,177.81687067682512L163.78098694485098,178.16312006839644L164.52560515156978,178.50607648961096L164.52560515156978,178.50607648961096L166.03899016453514,179.18064203556878L166.80801767761756,179.5113621857625L167.58532227850446,179.83700126752063L168.3710421949849,180.15711230877673L169.1655664790904,180.47140325109217L169.9688737694185,180.77926630026525L170.78129757514768,181.080314747714L171.60273877377662,181.3738980493979L172.43348220270656,181.65957849850915L172.43348220270656,181.65957849850915L174.1234820258246,182.20511638569377L174.9830741037443,182.46390729393715L175.85255382380745,182.71264120454182L176.73209557270553,182.95077612172994L177.62202699503055,183.17777189770902L178.52247032615568,183.39304439034632L179.43361183557113,183.59601328940767L180.35563819891968,183.7860916590538L181.28871006929717,183.96269195609926L182.23297036252947,184.12523325560136L183.1888118072454,184.27306725765922L184.1563579576412,184.405592143023" class="target-curve-polyline" stroke="#ff00fc" style="stroke-width: 3px; fill-opacity: 0; stroke-dasharray: 20px, 10px, 5px, 5px, 5px, 10px;"></path><line x1="124.4533390975784" x2="124.67954943505849" y1="161.87425714145252" y2="160.57762734778026" class="distance-line" stroke="#0000ff" style="stroke-width: 2px; fill-opacity: 0;"></line><path d="M184.1563579576412,184.405592143023L185.67625690445686,184.57620172133497L187.18097541458638,184.6980825291315L188.670265332905,184.7733040357836L190.14413110920904,184.80381295082503L191.602540001002,184.79155540244284L193.04526220319875,184.73863084231056L194.47224451312124,184.64701394124017L195.8835871672905,184.5185100962727L197.2789826835433,184.35530739989537L198.65883131350787,184.15883862319464L200.0228609800548,183.9312156451261L201.37093506934207,183.67442039499997L202.7032230429052,183.39003319512284L204.01966111242334,183.0798892292811L205.32026215677075,182.74570071101675L206.60503553420813,182.3891551034574L207.87392969020365,182.01200455457348L209.1269886143254,181.61583286906364L210.36421998313014,181.20224752259236L211.5858690531429,180.77243039483642L212.79177376542881,180.32819355299608L213.9819012580866,179.87112376041955L215.1563546172259,179.4025426751644L216.3151218805662,178.92394006718837L217.4584903318333,178.43622384088104L218.5865851948129,177.94054437528894L219.69932736001857,177.4384053876111L220.7967847007112,176.93100880828024L221.87903718567898,176.4194999057761L222.94611682996987,175.90508683762823L223.99830604710195,175.38844047914122L225.0354964965618,174.87098395196324L226.0578183236655,174.35363075045905L227.06538136813563,173.8373013969174L228.0584471527855,173.32256211861352L229.0370035596245,172.8105209671623L230.00096455089195,172.3024232321368L230.95068800990103,171.79853304321927L231.88608970142178,171.30003465729357L232.80772532575156,170.80668835817798L233.7153096827016,170.3200608286054L233.7153096827016,170.3200608286054L235.48852836148097,169.37018506453933L236.35501418438332,168.906807597343L237.20786019481207,168.45276680872263L238.04756150026563,168.0077710141518L238.8742363783016,167.57234465993565L238.8742363783016,167.57234465993565L240.48796463330098,166.7344821212753L241.27579303114186,166.33176566121904L242.05072527129443,165.94126859074214L242.813306256246,165.56243580589216L243.56365900006614,165.1956473140412L243.56365900006614,165.1956473140412L245.02697745253036,164.5023329842719L245.74074997851895,164.1751939469928L245.74074997851895,164.1751939469928L247.1328249358586,163.56216595796747L247.81126683879506,163.27706427861816L248.4783202833184,163.0061709823559L249.13411350475386,162.74970572331586L249.13411350475386,162.74970572331586L250.41209207698165,162.2816158713453L251.0346177844523,162.07015994818988L251.64652629698415,161.87356112055255L251.64652629698415,161.87356112055255L252.83818834139686,161.5272986156512L253.41865007034258,161.37688408574346L253.98899061393013,161.24186130206508L253.98899061393013,161.24186130206508L255.09904615811706,161.02002193642898L255.63941308516698,160.93249221680912L255.63941308516698,160.93249221680912L256.6914105305821,160.80462489647363L256.6914105305821,160.80462489647363L256.6914105305821,160.80462489647363L258.19962938079914,160.7310685964688L258.19962938079914,160.7310685964688L258.19962938079914,160.7310685964688L259.62728833128216,160.79959559299576L259.62728833128216,160.79959559299576L260.53531550433775,160.92554110267568L260.97630049736375,161.01307688391125L260.97630049736375,161.01307688391125L261.8326806697276,161.23734170784178L261.8326806697276,161.23734170784178L262.65522844933093,161.5278245615856L263.05443674977096,161.69710707681372L263.05443674977096,161.69710707681372L263.8291542255025,162.08371019632898L263.8291542255025,162.08371019632898L264.57196501714265,162.53583689908595L264.93189200621936,162.78586337474997L265.28441276988355,163.05156535710555L265.28441276988355,163.05156535710555L265.967611418024,163.6297377094365L265.967611418024,163.6297377094365L266.6215467938385,164.27110808413642L266.6215467938385,164.27110808413642" class="target-curve-polyline" stroke="#ff00fc" style="stroke-width: 3px; fill-opacity: 0; stroke-dasharray: 20px, 10px, 5px, 5px, 5px, 10px;"></path><line x1="266.79038683395123" x2="266.6215467938385" y1="166.68972893176672" y2="164.27110808413642" class="distance-line" stroke="#0000ff" style="stroke-width: 2px; fill-opacity: 0;"></line><path d="M270.1225721301906,169.79289211287355L270.1225721301906,169.79289211287355L270.1225721301906,169.79289211287355L270.1225721301906,169.79289211287355L270.1225721301906,169.79289211287355L270.1225721301906,169.79289211287355L270.1225721301906,169.79289211287355L270.1225721301906,169.79289211287355L270.1225721301906,169.79289211287355L270.1225721301906,169.79289211287355L270.1225721301906,169.79289211287355L270.1225721301906,169.79289211287355L270.1225721301906,169.79289211287355L270.1225721301906,169.79289211287355L270.1225721301906,169.79289211287355L270.46448266856333,170.60140998903248L270.46448266856333,170.60140998903248L270.46448266856333,170.60140998903248L270.46448266856333,170.60140998903248L270.46448266856333,170.60140998903248L270.46448266856333,170.60140998903248L270.46448266856333,170.60140998903248L270.46448266856333,170.60140998903248L270.46448266856333,170.60140998903248L270.46448266856333,170.60140998903248L270.46448266856333,170.60140998903248L270.46448266856333,170.60140998903248L270.46448266856333,170.60140998903248L270.46448266856333,170.60140998903248L270.46448266856333,170.60140998903248L270.46448266856333,170.60140998903248L270.814247710742,171.49855100112208L270.814247710742,171.49855100112208L270.814247710742,171.49855100112208L270.814247710742,171.49855100112208L270.814247710742,171.49855100112208L270.814247710742,171.49855100112208L270.814247710742,171.49855100112208L270.814247710742,171.49855100112208L270.814247710742,171.49855100112208L270.814247710742,171.49855100112208L270.814247710742,171.49855100112208L270.814247710742,171.49855100112208L270.814247710742,171.49855100112208L270.814247710742,171.49855100112208L270.814247710742,171.49855100112208L270.814247710742,171.49855100112208L271.14890704205374,172.43105990768998L271.14890704205374,172.43105990768998L271.14890704205374,172.43105990768998L271.14890704205374,172.43105990768998L271.14890704205374,172.43105990768998L271.14890704205374,172.43105990768998L271.14890704205374,172.43105990768998L271.14890704205374,172.43105990768998L271.14890704205374,172.43105990768998L271.14890704205374,172.43105990768998L271.14890704205374,172.43105990768998L271.14890704205374,172.43105990768998L271.14890704205374,172.43105990768998L271.14890704205374,172.43105990768998L271.14890704205374,172.43105990768998L271.14890704205374,172.43105990768998L271.4697053086535,173.39715129703893L271.4697053086535,173.39715129703893L271.4697053086535,173.39715129703893L271.4697053086535,173.39715129703893L271.4697053086535,173.39715129703893L271.4697053086535,173.39715129703893L271.4697053086535,173.39715129703893L271.4697053086535,173.39715129703893L271.4697053086535,173.39715129703893L271.4697053086535,173.39715129703893L271.4697053086535,173.39715129703893L271.4697053086535,173.39715129703893L271.4697053086535,173.39715129703893L271.4697053086535,173.39715129703893L271.4697053086535,173.39715129703893L271.7549867331505,174.33731427398413L271.7549867331505,174.33731427398413L271.7549867331505,174.33731427398413L271.7549867331505,174.33731427398413L271.7549867331505,174.33731427398413L271.7549867331505,174.33731427398413L271.7549867331505,174.33731427398413L271.7549867331505,174.33731427398413L271.7549867331505,174.33731427398413L271.7549867331505,174.33731427398413L271.7549867331505,174.33731427398413L271.7549867331505,174.33731427398413L271.7549867331505,174.33731427398413L271.7549867331505,174.33731427398413L271.7549867331505,174.33731427398413L272.0284168229473,175.30637751630576L272.0284168229473,175.30637751630576L272.0284168229473,175.30637751630576L272.0284168229473,175.30637751630576L272.0284168229473,175.30637751630576L272.0284168229473,175.30637751630576L272.0284168229473,175.30637751630576" class="target-curve-polyline" stroke="#ff00ff" style="stroke-width: 3px; fill-opacity: 0; stroke-dasharray: 20px, 10px, 5px, 5px, 5px, 10px;"></path><line x1="271.38165859394826" x2="271.14890704205374" y1="172.8791145137602" y2="172.43105990768998" class="distance-line" stroke="#0000ff" style="stroke-width: 2px; fill-opacity: 0;"></line></svg>