<svg version="1.1" id="Layer_1" xmlns="http://www.w3.org/2000/svg" xmlns:xlink="http://www.w3.org/1999/xlink" x="0px" y="0px" width="400px" height="300px" viewBox="0 0 400 300" enable-background="new 0 0 400 300" xml:space="preserve"><defs></defs><path d="M43.505001068115234 131.21400451660156 C 43.505001068115234 200 100 266.40399169921875 200 266.40399169921875 C 300 266.40399169921875 342.614990234375 200 342.614990234375 131.21400451660156 C 342.614990234375 65 300 21.156999588012695 200 21.156999588012695 C 100 21.156999588012695 43.505001068115234 65 43.505001068115234 131.21400451660156" style="opacity: 0;"></path><rect x="94" y="136" width="10" height="10" rx="2" ry="2" class="handle-original" fill="#da55da" stroke="#000000" style="stroke-width: 2px; opacity: 0.5;"></rect><rect x="287" y="124" width="10" height="10" rx="2" ry="2" class="handle-original" fill="#da55da" stroke="#000000" style="stroke-width: 2px; opacity: 0.5;"></rect><rect x="94" y="136" width="10" height="10" rx="2" ry="2" class="handle" fill="#da55da" stroke="#000000" transform="matrix(0.682,0.7314,-0.7314,0.682,134.603,-27.5658)" style="stroke-width: 2px;"></rect><rect x="287" y="124" width="10" height="10" rx="2" ry="2" class="handle" fill="#da55da" stroke="#000000" transform="matrix(0.829,-0.5592,0.5592,0.829,-22.2149,185.3385)" style="stroke-width: 2px;"></rect></svg>