<!--?xml version="1.0" encoding="utf-8"?-->
<!-- Generator: Adobe Illustrator 15.0.2, SVG Export Plug-In . SVG Version: 6.00 Build 0)  -->

<svg version="1.1" id="Layer_1" xmlns="http://www.w3.org/2000/svg" xmlns:xlink="http://www.w3.org/1999/xlink" x="0px" y="0px" width="400px" height="300px" viewBox="0 0 400 300" enable-background="new 0 0 400 300" xml:space="preserve">
<path fill="none" stroke="#231F20" stroke-width="6" stroke-miterlimit="10" d="M 68.6103 84.8127 C 12.9758 133.234 0.315178 280.888 185.006 289.524 C 369.696 298.16 374.681 152.35 336.973 94.5974 C 300.674 39.0043 218.769 76.9663 202.2 99.4924 C 185.63 122.019 122.165 38.2018 68.6103 84.8127"></path>
<g>
	<g>
		<g>
			<g>
				<path fill="none" stroke="#00DF22" stroke-width="6" stroke-miterlimit="10" d="M 111.512 171.604 C 112.124 169.577 112.866 167.489 113.917 165.77"></path>
				<path fill="none" stroke="#00DF22" stroke-width="6" stroke-miterlimit="10" stroke-dasharray="13.033,13.033" d="M 124.339 161.869 C 137.157 155.206 152.088 181.965 184.279 183.513 C 234.792 185.942 257.1 143.75 266.712 166.686"></path>
				<path fill="none" stroke="#00DF22" stroke-width="6" stroke-miterlimit="10" d="M 270.069 169.73 C 270.989 171.524 271.676 173.498 272.101 175.607"></path>
			</g>
		</g>
	</g>
</g>
</svg>
