<!--?xml version="1.0" encoding="utf-8"?-->
<!-- Generator: Adobe Illustrator 15.0.2, SVG Export Plug-In . SVG Version: 6.00 Build 0)  -->

<svg version="1.1" id="Layer_1" xmlns="http://www.w3.org/2000/svg" xmlns:xlink="http://www.w3.org/1999/xlink" x="0px" y="0px" width="1020px" height="200px" viewBox="0 0 1020 200" enable-background="new 0 0 1020 200" xml:space="preserve">
<path d="M 1002.56 81.6424 C 1005.98 84.8204 1007.43 89.7367 1009.66 92.9568 C 1007.31 107.467 980.352 100.095 965.946 98.9761 C 961.982 98.6682 957.937 99.222 954.008 98.9835 C 947.351 98.5792 940.275 96.4351 933.275 95.6423 C 918.601 93.9803 903.13 95.2755 888.66 93.6499 C 880.55 92.7389 872.212 90.2511 863.97 89.6502 C 846.365 88.3669 826.582 89.7513 809.294 88.9815 C 799.342 88.5384 791.197 88.2063 782.667 90.9856 C 777.165 92.7785 772.213 96.2584 764.675 97.6498 C 756.478 99.1631 749.493 99.3066 739.975 100.31 C 729.069 101.459 719.593 104.437 708.436 105.613 C 702.438 106.485 696.847 106.196 691.836 109.62 C 686.446 109.3 681.997 110.127 676.474 110.285 C 674.873 115.504 674.123 121.516 672.607 127.641 C 671.283 132.988 670.458 139.907 667.796 144.271 C 667.071 146.835 664.45 148.206 663.174 150.279 C 661.53 154.711 661.816 160.249 664.504 164.275 C 662.594 168.608 663.568 173.894 661.15 177.598 C 661.121 178.879 659.192 178.816 657.922 180.296 C 655.294 183.357 654.043 188.491 647.821 188.261 C 646.305 186.946 647.054 184.801 647.169 182.272 C 641.272 183.518 636.154 191.957 627.854 186.938 C 625.928 183.976 631.558 184.018 630.511 180.274 C 625.278 181.959 621.716 187.437 613.852 184.936 C 612.628 182.229 614.623 179.99 615.848 178.271 C 612.213 175.096 615.003 170.698 613.848 166.277 C 611.328 166.752 607.218 166.119 603.852 166.94 C 599.687 168.352 596.13 173.842 591.189 171.602 C 590.305 162.743 597.246 161.893 596.531 153.609 C 604.109 146.586 616.036 143.921 614.471 128.281 C 600.583 128.537 584.9 128.505 570.645 128.312 C 558.683 128.15 547.513 131.596 534.024 131.674 C 524.435 131.729 515.074 129.586 505.546 129.186 C 492.509 128.639 478.882 130.206 465.557 130.4 C 461.785 130.455 458.247 131.869 454.529 131.94 C 442.918 132.161 431.375 129.548 419.866 130.174 C 415.625 135.282 414.772 144.576 411.452 151.36 C 410.034 154.256 406.935 155.657 406.276 158.741 C 405.667 161.593 407.561 165.116 406.964 168.093 C 405.73 174.243 402.236 177.307 396.236 179.995 C 395.078 184.002 394.278 188.594 388.937 188.618 C 385.827 189.337 388.037 184.502 386.313 183.299 C 384.413 186.146 379.875 190.028 375.7 188.58 C 371.889 187.675 375.725 184.488 375.743 181.954 C 370.414 184.689 366.658 192.64 357.836 189.856 C 357.88 186.047 360.535 184.925 360.543 181.245 C 358.679 178.115 360.76 170.801 356.771 169.357 C 353.12 168.309 351.414 171.987 347.532 172.002 C 345.478 172.228 343.314 170.28 340.973 170.676 C 336.876 171.37 335.766 175.829 330.926 175.902 C 324.021 170.047 333.142 162.466 333.725 156.02 C 337.095 152.433 343.105 151.589 347.829 149.529 C 349.574 146.69 349.55 142.12 350.448 138.581 C 349.655 134.588 344.178 135.745 340.066 134.678 C 336.667 133.797 333.78 131.452 330.567 131.181 C 324.94 130.708 318.053 133.135 310.719 132.652 C 296.735 132.103 283.265 127.183 266.775 129.155 C 263.301 129.57 259.725 131.723 256.093 132.183 C 250.419 132.9 244.257 132.69 239.136 132.269 C 234.71 131.904 231.768 129.43 227.745 129.083 C 225.609 129.039 222.528 130.236 219.633 130.43 C 217.214 130.648 214.617 130.624 212.624 131.645 C 207.305 135.241 199.81 142.586 192.221 147.18 C 182.307 153.181 169.896 157.614 159.079 162.681 C 146.974 168.35 135.024 171.232 122.321 172.502 C 112.878 173.447 101.36 177.845 89.1962 180.233 C 84.593 181.136 80.1082 181.094 75.8646 181.66 C 68.2134 183.203 55.4807 186.722 54.0107 178.181 C 53.5235 175.35 56.6486 172.086 58.2161 169.114 C 59.9293 165.866 60.4163 162.801 63.3387 161.169 C 67.5825 162.201 71.6793 166.089 75.6651 164.686 C 80.0944 163.328 78.9313 158.073 82.4761 155.061 C 87.567 154.957 93.3721 160.047 98.2212 158.558 C 102.491 157.246 102.678 152.971 105.018 148.906 C 109.459 149.125 113.919 152.921 117.864 151.625 C 122.119 150.442 121.717 146.146 124.956 143.313 C 128.947 143.672 132.127 145.134 135.7 145.8 C 139.399 144.084 140.946 141.019 142.927 138.088 C 150.107 141.008 156.572 139.468 160.777 130.974 C 164.316 131.254 166.951 132.174 169.928 131.821 C 174.369 129.238 172.816 123.82 177.241 122.64 C 183.048 126.202 189.852 121.651 193.872 114.093 C 196.665 114.232 198.603 114.157 200.587 113.762 C 203.807 110.642 204.092 106.454 206.33 104.602 C 208.828 104.606 210.862 104.534 212.851 102.983 C 215.162 101.321 216.36 97.9826 218.425 97.0516 C 221.755 94.9729 224.74 99.0311 227.14 90.0105 C 223.835 80.8714 217.507 77.9893 214.145 80.353 C 212.126 79.7602 210.041 78.1957 208.155 76.6649 C 205.29 75.7107 205.009 79.1523 201.588 79.0425 C 198.567 78.018 196.985 75.7328 195.132 73.1886 C 192.863 73.359 191.433 75.9795 188.265 76.3769 C 184.601 74.6118 182.468 71.4933 179.427 68.5503 C 175.989 68.0853 173.838 70.4363 170.459 71.3108 C 167.097 70.1022 166.225 66.9785 163.411 64.8175 C 159.721 65.0059 156.81 66.9446 154.029 69.24 C 150.788 67.5937 148.318 65.2265 145.583 62.9022 C 141.358 62.5106 139.319 67.5092 135.49 67.2022 C 131.71 66.899 130.394 62.6793 126.324 61.0167 C 122.453 61.3005 119.697 65.6637 115.517 65.3792 C 111.528 65.1677 109.317 61.8084 105.609 59.7611 C 101.34 60.7727 99.1208 64.6967 94.5876 65.4341 C 90.448 63.4727 88.4043 59.8783 84.3322 57.742 C 79.033 57.8889 77.299 63.0125 73.1003 64.724 C 67.1401 62.8448 67.0223 55.8761 61.7552 55.521 C 57.8143 55.2553 53.4068 62.8477 48.4352 62.8436 C 44.1136 61.586 46.5243 55.3418 46.2593 51.0357 C 46.0523 48.588 41.5361 46.2692 40.9244 42.089 C 40.6875 40.1996 42.1337 37.3995 42.0785 34.8551 C 41.9882 30.6869 39.304 27.7228 39.4771 25.6657 C 39.8851 21.8392 43.3631 17.3521 45.7575 15.8638 C 47.6799 14.7022 59.3761 12.3706 64.4676 12.7534 C 71.0766 13.2662 76.59 17.5502 84.6718 17.3024 C 86.9637 17.2322 89.3473 15.9582 91.6572 15.708 C 93.8302 15.5191 95.7604 16.3148 97.6981 15.9878 C 104.156 14.9819 109.954 11.5092 114.528 11.917 C 121.927 12.5404 128.928 18.0023 136.527 18.0897 C 141.372 18.1454 145.88 14.9389 151.189 14.5806 C 159.516 14.0187 166.749 18.5442 174.086 18.7651 C 176.381 18.8342 178.307 17.3653 180.619 17.2933 C 192.708 16.9164 201.6 24.3937 209.034 21.3316 C 211.185 20.5086 212.152 17.6411 215.317 16.3437 C 220.972 14.0265 226.902 17.173 231.467 17.8795 C 233.003 18.1171 234.27 17.2944 236.176 17.3677 C 237.578 17.4216 239.288 18.7281 240.686 18.7453 C 247.073 18.824 252.392 15.2891 259.607 16.8587 C 262.898 17.5748 266.732 19.7478 270.041 21.5494 C 274.648 24.0585 276.72 28.1829 283.407 27.2735 C 285.027 27.053 286.806 25.7113 288.414 25.2759 C 293.359 24.2465 299.475 24.181 305.388 23.0812 C 310.78 22.0783 316.558 19.6206 320.85 19.3897 C 322.746 19.2878 324.313 20.1945 325.6 19.9192 C 331.842 18.76 337.128 14.3776 342.53 20.0658 C 351.294 18.7929 365.905 13.7202 372.946 18.8953 C 383.261 19.5167 391.999 13.9161 402.191 15.1484 C 406.21 15.6344 410.053 18.0142 414.152 18.0751 C 417.843 18.1298 421.692 16.5344 425.562 17.0755 C 431.111 17.8515 436.314 23.0143 441.226 23.1939 C 444.328 23.3343 445.575 22.0287 448.301 21.6174 C 455.003 20.606 463.011 19.7578 469.7 19.8327 C 478.259 19.9285 486.995 23.545 496.447 24.0513 C 506.84 24.6079 517.944 23.5936 528.061 24.4017 C 532.246 24.736 535.989 26.5989 540.028 27.0125 C 547.635 27.7917 556.695 25.8282 564.616 26.9839 C 569.428 27.6859 574.504 30.8505 578.449 30.975 C 581.215 31.0751 582.706 29.9607 585.269 29.6502 C 590.139 29.0601 595.366 29.816 599.279 28.9844 C 601.763 28.4566 604.432 26.6503 606.484 26.3119 C 610.04 25.9427 612.984 27.0945 615.86 26.9792 C 623.836 26.7454 630.123 24.0498 635.823 20.9817 C 638.872 26.3676 643.516 26.8354 651.272 29.6512 C 657.641 31.9635 669.156 38.8393 675.113 31.6441 C 681.583 33.0916 686.651 32.2838 692.617 32.9846 C 698.339 33.6566 703.681 36.0813 709.268 36.9839 C 712.667 37.5329 717.257 37.199 720.41 37.6415 C 724.563 38.0957 727.812 39.5046 731.259 39.6493 C 736.597 39.8735 742.34 38.3535 747.084 38.9737 C 753.077 39.6463 757.18 42.806 762.583 43.6427 C 772.803 45.2251 785.34 44.4335 797.77 44.9669 C 807.1 45.3886 813.101 45.4011 820.462 46.9688 C 821.987 47.22 822.725 48.2803 823.139 48.304 C 826.326 48.4974 829.431 47.4275 831.747 47.6333 C 835.155 47.9004 837.151 49.2457 839.91 49.6426 C 845.682 50.473 852.244 49.4923 857.057 50.2988 C 862.445 51.0621 865.931 54.0407 870.631 54.981 C 872.492 55.3532 874.798 54.7541 876.623 54.9806 C 881.93 55.6393 887.702 59.0218 892.396 59.6299 C 894.663 59.8806 896.69 59.3932 897.728 59.6311 C 908.739 61.4624 917.18 66.0551 927.243 66.9754 C 935.508 67.7313 944.973 64.4895 951.709 69.6283 C 956.012 68.4531 960.869 67.966 964.392 69.6313 C 967.069 70.4645 967.027 72.0032 969.269 72.9792 C 971.325 73.8746 974.275 74.0694 976.593 74.9789 C 978.5 75.7271 981.787 77.4307 982.35 77.6292 C 991.806 79.2079 997.246 76.6984 1002.56 81.6424 M 987.104 96.9583 C 993.554 97.0169 1003.85 100.769 1005.68 92.9565 C 1001.7 87.6214 992.897 87.8286 985.924 86.3108 C 977.924 84.5698 970.336 81.0137 961.941 78.9788 C 958.796 78.2166 955.37 78.3161 952.036 77.6571 C 948.752 77.0081 945.633 75.4249 942.604 74.9807 C 932.113 73.442 921.702 73.4061 909.73 72.2969 C 912.794 75.547 918.449 74.6151 922.436 75.6343 C 927.092 76.6595 932.205 77.5297 933.095 80.9643 C 930.293 82.851 927.495 79.2666 923.096 78.2967 C 917.457 76.8961 909.395 78.8429 903.777 75.6345 C 904.28 72.8502 909.413 75.0395 909.079 72.2959 C 886.221 69.1026 870.407 58.0589 843.147 58.3055 C 841.126 58.4153 840.681 60.2508 837.722 60.2954 C 827.279 56.2598 814.609 58.7716 801.261 57.6454 C 787.078 56.4488 773.112 52.1239 759.164 52.3048 C 757.066 52.332 755.844 53.2029 753.083 52.964 C 751.073 52.7712 748.643 51.2983 745.809 50.9689 C 738.243 50.0304 731.905 50.7997 725.83 48.9712 C 723.921 48.2987 722.154 46.2053 719.081 45.6314 C 712.627 44.1593 702.95 45.1671 694.599 44.9763 C 682.212 44.6934 668.699 42.0858 655.953 40.9826 C 645.371 40.0667 634.716 41.1894 623.797 40.3066 C 621.572 40.1085 618.692 38.9994 615.855 38.9778 C 612.721 38.9759 609.444 40.4083 605.851 40.3089 C 600.42 40.1885 595.279 37.0381 588.521 36.3114 C 582.746 35.6465 577.083 37.5041 573.195 37.644 C 568.153 37.8959 561.662 36.2351 555.867 36.311 C 554.126 36.3534 551.91 37.1289 549.863 36.9782 C 543.843 36.5122 537.751 33.5109 531.251 33.034 C 515.405 31.8299 501.492 34.9514 490.429 30.1121 C 486.312 31.722 481.548 33.6523 476.679 32.9886 C 474.464 32.6423 471.528 30.2002 468.969 29.8078 C 463.207 28.9243 455.987 30.6161 448.845 29.5788 C 447.013 29.2757 444.638 27.857 442.53 27.7754 C 433.834 27.439 424.633 29.7009 415.167 28.6052 C 412.653 28.2875 409.943 26.9824 406.943 26.8726 C 403.405 26.7703 399.071 28.0701 395.09 27.9249 C 389.986 27.7387 384.599 25.9386 378.95 25.8562 C 372.601 25.7637 366.237 27.6816 360.485 27.8932 C 357.74 27.9941 356.033 26.8977 353.078 26.832 C 347.549 26.7956 341.727 28.8579 336.854 28.787 C 329.276 28.6766 324.601 23.4539 318.944 23.3766 C 315.517 23.3298 311.823 25.632 308.216 26.3051 C 298.156 28.1819 286.024 27.408 280.8 33.8437 C 273.696 27.8378 265.865 19.0475 254.449 19.7799 C 252.678 19.9279 249.494 21.4443 246.718 22.2959 C 244.153 23.0827 240.771 23.6355 238.474 24.4633 C 235.965 25.3673 233.896 27.7657 231.076 28.5943 C 225.11 30.7522 216.241 31.1422 210.271 30.0252 C 203.974 28.8471 197.87 25.202 191.096 23.5839 C 184.969 22.12 179.235 23.27 174.714 23.0287 C 167.894 22.7001 160.989 19.4418 153.764 19.1712 C 147.92 18.9282 142.083 21.6839 135.998 21.3766 C 128.996 21.0229 122.257 16.535 115.243 16.0731 C 112.009 15.8601 106.821 17.4782 102.741 18.1367 C 93.1741 19.7967 78.8478 23.7346 68.3557 18.0889 C 69.4016 21.5144 74.5783 24.7553 74.5756 29.8711 C 74.6371 31.9594 73.8587 37.5851 69.5859 35.8257 C 73.3966 28.9662 71.5079 21.9701 62.4555 21.2045 C 60.8254 18.0877 56.0519 16.0667 52.2328 17.5616 C 53.0513 21.5967 50.2583 31.3993 43.3248 26.9504 C 44.6704 31.8089 45.7595 36.8844 44.7685 43.3658 C 47.5408 45.5158 48.6675 48.1598 51.9509 49.2425 C 55.9256 50.5532 60.0456 48.6686 64.7785 49.2493 C 70.0505 49.8961 74.9625 52.7652 81.0236 53.1723 C 90.2563 53.7925 99.1456 53.1468 107.67 55.3647 C 110.165 56.0139 112.261 57.4324 114.716 57.8342 C 118.394 58.436 122.294 57.4757 126.184 57.613 C 128.366 57.7519 130.671 58.5046 132.762 58.6595 C 142.67 59.4711 152.962 57.4127 162.324 59.0065 C 175.444 61.2399 187.321 67.9157 198.065 70.4688 C 199.752 70.8696 201.632 70.5202 203.128 70.6669 C 207.399 71.4332 212.299 73.397 216.408 75.2678 C 221.511 77.6683 228.613 82.4053 230.416 87.3772 C 227.763 103.349 215.902 102.422 206.863 110.072 C 204.006 112.489 202.571 116.045 199.745 117.988 C 197.741 119.578 195.27 119.996 192.831 121.142 C 187.77 124.285 183.019 128.951 177.464 131.484 C 172.809 134.28 167.201 134.822 161.996 136.96 C 153.17 140.586 144.797 146.89 134.975 148.744 C 118.954 151.77 104.022 159.318 88.9746 163.195 C 82.5905 171.106 57.1071 166.583 58.3362 179.264 C 81.8374 180.978 106.57 171.546 127.762 169.314 C 133.957 168.661 140.33 166.331 146.542 164.647 C 149.855 163.748 153.873 163.419 156.899 162.05 C 159.847 160.716 162.36 158.495 165.342 157.003 C 169.662 155.325 174.101 154.514 177.933 152.333 C 181.11 150.682 183.81 147.679 186.752 145.908 C 188.425 144.97 190.718 144.837 192.291 143.658 C 200.885 139.684 209.197 129.612 216.578 126.623 C 218.712 125.759 220.306 126.236 222.501 125.148 C 228.72 122.064 234.959 113.14 240.671 110.65 C 249.706 107.526 256.781 109.02 262.564 110.147 C 270.966 111.784 278.428 112.493 287.114 113.947 C 296.953 115.594 307.238 120.567 317.614 117.913 C 317.111 115.171 312.71 113.137 313.535 110.83 C 318.358 111.706 320.498 116.7 324.236 118.975 C 326.669 120.369 329.13 120.726 331.441 121.983 C 338.317 125.725 344.402 131.003 350.954 134.199 C 353.617 134.648 353.807 130.502 356.023 132.775 C 353.47 140.914 354.057 152.441 346.394 155.443 C 338.455 154.482 334.156 160.175 340.355 164.701 C 345.371 168.363 351.775 166.303 358.122 166.046 C 362.672 167.948 363.705 172.925 363.893 178.608 C 365.903 180.487 371.316 180.415 373.792 179.293 C 375.652 175.458 377.697 171.413 376.518 168.024 C 375.574 164.208 370.866 164.563 370.051 160.099 C 377.867 158.713 380.99 167.301 379.089 177.308 C 382.422 177.889 385.014 180.604 388.323 178.654 C 388.606 177.926 388.73 177.179 389.653 177.321 C 391.126 169.251 385.807 164.316 385.789 159.399 C 392.219 161.538 392.403 169.799 393.627 176.666 C 402.043 176.514 404.41 167.138 402.199 158.678 C 408.116 147.088 417.626 135.777 414.697 119.589 C 414.257 117.807 410.682 118.801 410.286 116.394 C 413.765 112.055 408.302 108.967 407.073 105.135 C 398.443 103.145 392.793 97.7411 386.907 92.4389 C 384.239 90.9839 378.919 92.0111 378.848 87.4231 C 391.264 90.5854 397.827 100.129 409.634 103.747 C 411.865 107.368 413.816 111.133 415.977 114.23 C 421.963 114.31 426.589 115.282 431.995 115.151 C 445.214 114.83 460.918 109.479 473.376 108.94 C 478.71 108.709 484.726 110.831 489.596 110.669 C 492.928 110.786 494.893 109.835 497.603 109.932 C 504.465 110.178 511.296 112.389 518.107 113.092 C 522.014 113.496 525.612 113.107 529.395 113.703 C 532.582 114.206 535.919 115.824 539.321 116.323 C 550.222 117.92 561.627 117.787 571.832 118.942 C 568.561 115.123 557.88 118.119 557.207 110.955 C 562.264 111.446 574.183 113.475 576.536 117.615 C 590.001 119.236 599.101 125.049 611.845 119.617 C 613.855 117.897 610.003 111.535 613.816 110.948 C 617.577 110.762 615.424 114.524 615.918 116.298 C 617.653 122.531 619.29 130.793 618.502 138.943 C 615.243 142.956 612.14 147.466 609.186 152.27 C 604.59 151.669 602.688 153.997 600.52 156.272 C 601.35 162.89 607.673 162.642 613.847 161.604 C 618 163.445 619.599 169.351 617.852 174.266 C 621.52 175 623.742 176.785 627.848 176.269 C 630.075 174.494 632.445 173.086 633.848 170.935 C 636.063 168.267 632.754 160.256 636.515 159.609 C 640.28 162.144 637.757 173.231 635.85 176.933 C 638.633 178.215 641.872 180.325 644.505 178.936 C 646.369 176.656 646.035 174.987 645.172 171.601 C 648.475 169.668 644.555 162.343 647.847 162.277 C 652.822 164.891 648.569 172.722 650.459 176.922 C 664.284 180.278 657.235 161.587 657.978 154.973 C 658.614 149.321 662.656 146.546 664.642 142.309 C 667.89 135.382 671.273 121.359 671.945 113.64 C 672.391 108.53 673.426 100.733 671.123 95.6121 C 670.542 92.563 663.428 84.0752 660.487 82.9608 C 656.266 81.0593 647.134 82.6729 640.599 80.9745 C 636.996 80.0383 634.094 76.025 629.793 74.2914 C 627.803 73.2097 623.518 73.0726 620.615 72.3081 C 618.37 71.7168 614.017 71.8466 612.506 68.2967 C 620.496 69.119 627.62 68.6915 633.847 71.6294 C 636.548 72.746 638.253 76.0836 640.508 76.9637 C 646.698 79.0999 653.5 77.477 660.506 78.9658 C 669.313 84.7129 675.956 92.3892 675.824 106.277 C 681.417 105.015 686.563 106.709 692.574 105.631 C 694.541 105.278 697.066 103.638 698.414 102.941 C 705.418 101.261 712.355 101.146 719.288 100.304 C 726.504 99.4285 733.472 97.807 739.96 96.9732 C 748.344 95.8959 756.626 95.8264 763.712 94.2744 C 771.402 93.1292 776.543 89.348 783.914 86.9715 C 796.805 82.8156 815.294 85.6029 831.313 86.3126 C 842.419 86.8046 851.887 86.1838 860.676 86.3158 C 869.738 86.4518 878.05 89.2689 887.314 90.3144 C 903.226 92.1103 917.415 89.7343 931.956 91.6456 C 939.87 92.6858 947.626 95.2739 955.294 95.6406 C 964.753 96.0931 973.299 97.8722 980.313 97.6108 C 983.416 97.6426 985.251 96.9983 987.104 96.9583 M 988.42 82.9647 C 992.414 82.195 995.2 85.5947 997.082 83.6326 C 995.633 81.9597 989.112 80.992 988.42 82.9647 M 959.764 75.6352 C 966.842 77.0941 973.207 81.3667 980.412 80.964 C 978.017 78.1511 973.306 77.0492 967.753 76.3001 C 965.378 70.7845 956.581 71.3759 949.099 72.9664 C 948.794 70.6729 944.636 71.7178 943.102 69.6354 C 940.46 71.665 934.999 68.3157 933.068 70.9645 C 937.844 72.9028 940.9 72.5054 945.906 72.9768 C 948.789 73.2482 952.383 75.2801 954.362 75.6289 C 956.673 75.9177 958.482 75.2931 959.764 75.6352 M 911.748 70.2997 C 918.178 70.6498 922.065 70.474 925.753 70.2981 C 912.797 65.9492 892.679 63.7672 877.127 58.9717 C 877.516 58.9924 876.284 59.0019 875.741 58.9669 C 878.497 63.8994 885.253 62.6749 889.895 64.3094 C 892.089 65.0818 894.311 67.101 895.684 67.6258 C 898.508 68.2058 899.673 67.2854 901.906 67.6423 C 905.494 68.2157 909.278 70.1811 911.748 70.2997 M 847.786 53.636 C 849.219 57.0689 856.54 56.6916 858.447 54.9696 C 856.559 53.3446 852.241 53.6369 847.786 53.636 M 821.973 53.6478 C 827.698 54.094 835.41 58.6844 840.354 54.2952 C 833.261 52.1231 824.963 52.1594 815.939 50.9794 C 805.358 49.5958 795.125 48.662 785.297 48.3164 C 777.491 48.0419 769.194 49.6848 761.92 48.3129 C 758.064 47.5857 755.593 44.5062 751.099 43.6339 C 743.213 41.8136 731.98 44.4484 723.838 42.3046 C 724.095 43.49 724.384 44.4031 724.463 44.9683 C 731.585 47.3242 738.834 46.5637 745.902 47.6428 C 748.866 48.0955 752.171 49.5353 754.38 49.6296 C 760.323 49.9465 764.592 48.5941 769.9 48.978 C 782.713 49.9047 794.895 53.8402 807.273 54.3117 C 812.065 54.4942 817.46 53.2961 821.973 53.6478 M 669.847 39.6443 C 682.091 40.6691 695.359 41.916 705.147 40.9763 C 699.143 34.5619 685.142 36.3129 673.844 36.3129 C 673.516 38.1086 670.11 37.1577 669.847 39.6443 M 655.897 37.6483 C 659.765 38.1343 663.725 41.6991 666.46 38.3109 C 659.744 37.8152 655.327 34.5855 650.493 32.9796 C 648.273 32.0425 643.618 32.1185 641.275 30.984 C 638.65 29.7134 637.848 26.6129 634.481 25.6481 C 628.628 27.0004 622.01 30.613 615.252 30.9822 C 613.473 31.0794 612.353 29.6924 609.821 29.6448 C 607.792 29.6371 604.738 30.9885 601.854 31.6462 C 599.707 32.2878 596.61 32.3448 594.524 34.3134 C 596.695 36.3524 600.056 35.5599 602.489 36.3098 C 604.169 36.6413 603.049 37.452 604.533 37.6461 C 620.648 39.754 641.072 35.7857 655.897 37.6483 M 651.837 184.269 C 652.923 183.563 654.079 183.153 653.17 180.938 C 653.505 181.029 651.502 181.029 651.171 180.938 C 651.157 182.729 650.626 183.368 651.837 184.269 M 638.505 181.601 C 637.442 181.313 636.932 180.042 634.516 180.273 C 635.318 182.399 633.684 182.327 633.849 184.269 C 636.866 184.629 638.818 184.115 638.505 181.601 M 618.518 179.609 C 617.676 182.885 623.083 182.117 621.848 179.608 C 622.168 179.7 618.83 179.7 618.518 179.609 M 595.854 166.938 C 598.76 167.068 601.244 164.587 599.85 162.942 C 597.721 161.067 595.679 163.982 595.854 166.938 M 590.451 124.938 C 589.125 121.577 583.38 122.99 579.956 122.974 C 575.608 122.953 569.992 123.467 566.005 122.983 C 563.76 122.711 561.434 121.384 559.302 120.977 C 552.015 119.587 544.271 120.935 537.317 119.66 C 534.816 119.202 532.28 117.525 530.073 117.035 C 528.306 116.642 525.961 116.773 524.022 116.376 C 517.1 114.958 507.819 113.581 500.25 113.238 C 484.17 112.51 468.064 111.412 453.785 114.605 C 451.431 115.29 448.613 117.07 445.389 117.449 C 435.227 119.024 425.73 117.083 417.277 118.197 C 418.142 121.564 418.36 125.481 419.861 127.499 C 439.223 127.335 458.028 128.941 477.319 128.222 C 486.849 127.866 495.475 125.465 504.246 125.875 C 515.323 126.393 526.643 128.409 537.338 128.334 C 544.381 128.284 551.32 126.208 558.655 125.646 C 568.751 124.872 580.254 126.176 590.451 124.938 M 523.332 30.4195 C 538.233 29.7193 555.824 35.1973 571.853 32.9794 C 563.344 29.222 550.551 30.3299 539.23 30.3349 C 534.354 28.3567 527.066 27.5012 520.67 28.4307 C 515.927 25.7701 505.755 26.1146 500.257 28.6412 C 507.989 31.8225 516.1 27.7634 523.332 30.4195 M 477.377 30.336 C 482.415 29.8528 487.083 29.1667 489.12 26.1464 C 477.223 25.0519 465.169 21.0575 452.752 25.4952 C 459.567 28.7483 472.947 25.0027 477.377 30.336 M 405.221 23.6519 C 414.067 23.5109 423.583 27.5779 431.726 24.8387 C 429.858 18.1187 419.828 21.8163 412.796 21.4011 C 408.827 21.1668 404.793 18.6391 400.852 18.4648 C 394.725 18.1939 388.386 20.6452 383.82 23.0104 C 391.723 24.4601 397.569 23.7738 405.221 23.6519 M 390.289 183.308 C 392.234 183.613 392.669 182.484 392.284 180.66 C 390.743 180.54 390.305 181.665 390.289 183.308 M 382.353 183.954 C 382.747 182.313 382.321 181.19 380.379 181.296 C 380.288 182.648 379.139 183.054 379.039 184.611 C 381.102 185.26 380.959 183.776 382.353 183.954 M 363.163 186.562 C 365.352 186.246 367.189 185.636 367.162 183.262 C 365.185 181.494 363.05 183.969 363.163 186.562 M 369.759 22.9438 C 368.174 17.7646 352.597 21.1926 350.159 22.9831 C 356.272 24.735 363.207 24.0375 369.759 22.9438 M 332.291 170.602 C 335.268 170.644 336.449 168.921 336.966 166.649 C 335.873 166.447 335.943 164.826 333.654 165.304 C 333.776 167.559 331.917 167.917 332.291 170.602 M 330.281 21.7114 C 331.694 25.4367 337.036 24.5979 341.144 24.6923 C 340.466 20.6335 334.937 21.7067 330.281 21.7114 M 332.957 127.091 C 330.695 126.841 328.059 123.619 325.358 122.869 C 320.272 121.458 312.61 123.405 305.486 122.328 C 303.587 122.041 301.846 121.119 299.446 120.57 C 288.455 118.406 278.018 115.999 267.922 114.406 C 263.228 113.665 258.477 112.273 254.659 112.173 C 242.729 111.86 234.981 118.43 226.579 125.905 C 234.214 128.686 241.677 129.971 251.874 129.373 C 262.024 128.776 272.73 125.057 283.375 125.353 C 287.206 125.46 291.659 125.512 295.317 126.087 C 299.417 126.731 303.735 129.184 308.488 129.508 C 316.971 130.087 325.772 128.326 332.957 127.091 M 232.731 22.837 C 223.787 16.6146 213.054 21.2831 209.379 26.4427 C 218.641 27.8313 226.709 26.2872 232.731 22.837 M 199.583 73.7788 C 200.607 75.8531 204.183 76.6038 204.647 74.4997 C 203.88 73.5789 199.926 71.9172 199.583 73.7788 M 193.619 117.176 C 192.989 119.824 196.72 117.867 196.278 116.991 C 195.435 116.584 195.006 116.341 193.619 117.176 M 184.134 67.7818 C 183.806 70.6925 189.614 75.6121 190.841 71.5899 C 189.968 69.6399 186.28 69.3413 184.134 67.7818 M 179.332 126.611 C 179.294 125.184 178.53 124.753 177.055 125.345 C 177.149 125.478 177.506 127.462 177.408 127.324 C 177.532 127.769 179.401 126.411 179.332 126.611 M 167.022 62.9739 C 166.515 67.356 173.528 70.0181 175.16 66.3646 C 174.242 64.394 169.064 62.6431 167.022 62.9739 M 161.578 134.99 C 162.127 135.4 165.032 135.626 164.797 133.884 C 163.763 133.53 161.695 132.48 161.578 134.99 M 159.862 61.8129 C 157.018 59.9525 153.047 61.3591 149.819 61.6933 C 150.64 66.8347 159.179 65.6683 159.862 61.8129 M 142.732 143.605 C 144.488 142.915 148.151 143.273 148.439 141.508 C 146.774 141.71 146.148 140.182 144.13 140.547 C 144.297 141.998 142.715 142.304 142.732 143.605 M 139.591 62.4476 C 138.286 60.9596 134.433 61.2215 131.8 60.5338 C 131.666 64.666 137.999 65.4937 139.591 62.4476 M 129.689 146.394 C 127.893 147.044 127.437 145.419 125.51 145.921 C 125.789 146.88 125.562 147.491 125.275 148.013 C 126.598 147.414 129.79 147.982 129.689 146.394 M 118.875 61.1888 C 115.415 61.6178 112.723 58.37 110.322 59.8335 C 113.046 62.804 116.03 65.2265 118.875 61.1888 M 105.614 154.91 C 107.138 154.27 110.575 154.805 110.688 153.15 C 108.915 152.89 107.814 151.39 105.574 151.52 C 106.56 153.319 105.068 153.484 105.614 154.91 M 96.9724 63.1172 C 96.6945 59.8136 101.349 60.6716 99.782 58.165 C 96.9877 57.8491 90.7453 54.8231 89.0444 57.811 C 90.6019 60.421 92.3672 62.847 96.9724 63.1172 M 89.5887 159.681 C 88.5624 156.921 81.4723 158.521 83.3499 162.37 C 84.233 162.608 85.0204 162.837 85.5807 163.259 C 88.1861 162.948 89.578 161.776 89.5887 159.681 M 66.8757 52.9533 C 65.6253 59.4224 75.797 64.0751 77.1894 55.9337 C 73.3664 55.2836 71.5439 53.0893 66.8757 52.9533 M 68.1196 167.652 C 67.3173 163.472 60.7484 163.642 62.2561 168.898 C 62.2812 168.987 68.1614 167.736 68.1196 167.652 M 58.7614 53.0159 C 56.4888 51.7556 50.2575 51.2481 48.5776 53.4276 C 49.6111 54.6521 48.4101 57.4798 49.8228 58.3445 C 53.3813 57.3701 57.2945 56.8444 58.7614 53.0159 M 47.8967 23.623 C 49.1237 22.8246 49.4756 20.0306 47.1024 20.1255 C 46.7664 21.7489 46.495 23.3123 47.8967 23.623"></path>
<path fill="#1F9B31" d="M 1005.69 92.9581 C 1003.8 100.766 993.637 97.0239 987.049 96.9526 C 985.824 97.0538 982.646 97.5664 980.483 97.6313 C 973.068 97.8537 964.843 96.1068 955.309 95.6462 C 947.583 95.2729 939.888 92.6922 931.96 91.6498 C 917.406 89.7362 903.233 92.1119 887.315 90.3168 C 878.048 89.2716 869.73 86.4542 860.68 86.319 C 851.903 86.1879 842.388 86.802 831.322 86.3159 C 815.349 85.6142 796.689 82.805 783.977 86.9814 C 776.706 89.3701 770.874 93.067 764.009 94.3154 C 756.073 95.7588 748.599 95.9298 739.992 96.9808 C 733.337 97.7935 726.574 99.4412 719.301 100.308 C 712.308 101.141 705.461 101.271 698.405 102.941 C 697.077 103.644 694.538 105.285 692.575 105.637 C 686.568 106.713 681.409 105.015 675.828 106.281 C 675.937 92.3916 669.342 84.719 660.484 78.967 C 653.661 77.4999 646.447 79.0715 640.644 76.983 C 638.092 76.0645 636.37 72.7295 633.977 71.6488 C 627.372 68.6657 620.677 69.1417 612.461 68.2953 C 614.148 71.8663 618.238 71.7046 620.637 72.3129 C 623.742 73.1002 627.365 73.1605 629.986 74.3151 C 633.798 75.9944 637.093 80.0531 640.634 80.9823 C 647.055 82.6674 656.327 81.0662 660.477 82.9635 C 663.443 84.079 670.532 92.567 671.121 95.6162 C 673.428 100.738 672.389 108.532 671.943 113.64 C 671.27 121.364 667.888 135.385 664.642 142.313 C 662.658 146.547 658.613 149.323 657.977 154.974 C 657.233 161.592 664.284 180.283 650.459 176.923 C 648.569 172.723 652.824 164.892 647.847 162.28 C 644.553 162.346 648.473 169.669 645.17 171.607 C 646.035 174.993 646.369 176.659 644.505 178.939 C 641.874 180.328 638.633 178.22 635.847 176.934 C 637.757 173.237 640.282 162.15 636.512 159.612 C 632.754 160.259 636.063 168.268 633.848 170.938 C 632.445 173.086 630.075 174.495 627.85 176.272 C 623.745 176.79 621.52 175.003 617.852 174.271 C 619.597 169.356 617.998 163.448 613.849 161.609 C 607.673 162.642 601.347 162.893 600.522 156.278 C 602.686 154.002 604.59 151.672 609.186 152.271 C 612.138 147.471 615.245 142.962 618.503 138.943 C 619.289 130.796 617.654 122.532 615.92 116.302 C 615.426 114.527 617.578 110.763 613.819 110.949 C 610.003 111.54 613.856 117.902 611.845 119.622 C 599.101 125.054 590 119.239 576.536 117.618 C 574.182 113.475 562.268 111.452 557.202 110.955 C 557.901 118.123 568.528 115.115 571.853 118.95 C 561.507 117.761 550.399 117.966 539.224 116.304 C 536.074 115.865 532.72 114.237 529.249 113.673 C 525.741 113.135 522.158 113.535 517.997 113.071 C 511.441 112.425 504.468 110.185 497.525 109.919 C 495.409 109.958 492.364 110.657 489.734 110.704 C 484.554 110.796 478.75 108.724 473.396 108.95 C 460.886 109.478 445.234 114.833 431.994 115.151 C 426.58 115.281 421.972 114.314 415.974 114.231 C 413.818 111.138 411.864 107.374 409.635 103.748 C 397.832 100.134 391.259 90.5847 378.85 87.4277 C 378.918 92.0116 384.239 90.9866 386.906 92.4399 C 392.794 97.7432 398.442 103.147 407.074 105.137 C 408.304 108.97 413.766 112.06 410.288 116.397 C 410.682 118.804 414.255 117.811 414.699 119.593 C 417.623 135.779 408.115 147.094 402.2 158.684 C 404.409 167.139 402.043 176.517 393.628 176.671 C 392.402 169.799 392.22 161.541 385.788 159.402 C 385.808 164.319 391.127 169.251 389.654 177.324 C 388.732 177.179 388.607 177.932 388.324 178.657 C 385.016 180.607 382.418 177.889 379.092 177.312 C 380.978 167.299 377.88 158.721 370.041 160.099 C 370.956 164.605 375.437 164.154 376.584 168.054 C 377.554 171.354 375.757 175.505 373.775 179.286 C 371.343 180.427 365.889 180.48 363.895 178.612 C 363.702 172.927 362.676 167.949 358.122 166.049 C 351.775 166.304 345.369 168.366 340.354 164.704 C 334.155 160.177 338.454 154.485 346.395 155.446 C 354.058 152.446 353.471 140.914 356.021 132.778 C 353.807 130.507 353.616 134.653 350.952 134.203 C 344.403 131.006 338.318 125.729 331.442 121.987 C 329.132 120.729 326.666 120.371 324.238 118.978 C 320.499 116.703 318.36 111.709 313.534 110.836 C 312.712 113.143 317.11 115.171 317.613 117.916 C 307.232 120.57 296.954 115.597 287.115 113.951 C 278.426 112.497 270.965 111.786 262.563 110.149 C 256.781 109.022 249.706 107.531 240.672 110.652 C 234.958 113.144 228.72 122.065 222.5 125.151 C 220.307 126.239 218.711 125.762 216.578 126.627 C 209.197 129.617 200.886 139.684 192.294 143.661 C 190.711 144.837 188.439 144.982 186.744 145.908 C 183.858 147.704 181.053 150.651 177.957 152.349 C 174.053 154.489 169.7 155.346 165.338 157.001 C 162.371 158.501 159.849 160.718 156.901 162.052 C 153.874 163.422 149.857 163.751 146.543 164.649 C 140.333 166.331 133.961 168.661 127.763 169.314 C 106.571 171.547 81.838 180.981 58.3368 179.267 C 57.1099 166.587 82.5937 171.111 88.975 163.197 C 104.023 159.321 118.957 151.775 134.977 148.747 C 144.8 146.891 153.171 140.592 161.999 136.96 C 167.2 134.819 172.81 134.286 177.466 131.487 C 183.021 128.954 187.773 124.286 192.833 121.143 C 195.273 119.998 197.74 119.576 199.746 117.994 C 202.573 116.074 204.009 112.485 206.862 110.071 C 215.897 102.43 227.771 103.349 230.41 87.3811 C 228.635 82.4951 221.466 77.5985 216.433 75.2904 C 212.292 73.3911 207.339 71.3941 203.185 70.7082 C 201.499 70.43 199.768 70.884 198.08 70.4804 C 187.306 67.9052 175.45 61.2481 162.327 59.0091 C 152.965 57.4118 142.655 59.4739 132.779 58.6666 C 130.588 58.4874 128.424 57.7646 126.181 57.6186 C 122.267 57.4585 118.447 58.4666 114.693 57.8254 C 112.259 57.4384 110.232 56.0463 107.644 55.3569 C 99.1808 53.1658 90.2405 53.7871 81.0236 53.1758 C 74.9722 52.7745 70.0442 49.8982 64.7771 49.2536 C 60.0458 48.6745 55.9244 50.556 51.9522 49.2458 C 48.6664 48.162 47.5393 45.5193 44.77 43.3701 C 45.7587 36.8883 44.6689 31.8127 43.3246 26.9514 C 50.258 31.4013 53.0529 21.599 52.2345 17.5639 C 56.0531 16.0719 60.8258 18.0918 62.4569 21.2087 C 71.5059 21.9759 73.3964 28.9682 69.587 35.8309 C 73.862 37.5897 74.6366 31.9634 74.5786 29.8736 C 74.5719 24.7594 69.4158 21.5185 68.3477 18.0898 C 78.8901 23.7439 93.1156 19.7911 102.772 18.1444 C 106.743 17.4674 112.034 15.8672 115.256 16.078 C 122.236 16.5346 129.006 21.028 136.002 21.3799 C 142.076 21.6854 147.926 18.9333 153.763 19.1728 C 160.992 19.4438 167.896 22.7 174.715 23.0315 C 179.236 23.2692 184.969 22.1207 191.098 23.5867 C 197.872 25.2071 203.973 28.8488 210.271 30.027 C 216.245 31.1445 225.104 30.7523 231.084 28.5978 C 233.839 27.7527 236.058 25.3926 238.43 24.4541 C 240.853 23.6549 244.12 23.0782 246.714 22.2956 C 249.518 21.4495 252.662 19.9263 254.45 19.7821 C 265.865 19.0503 273.699 27.8409 280.803 33.847 C 286.024 27.4095 298.163 28.1875 308.223 26.3088 C 311.828 25.6355 315.506 23.3301 318.948 23.3781 C 324.628 23.4573 329.232 28.6721 336.872 28.7896 C 341.788 28.8652 347.365 26.7801 353.21 26.8438 C 355.705 26.8709 357.85 28.0046 360.529 27.898 C 366.137 27.6747 372.676 25.769 378.943 25.8562 C 384.521 25.9339 390.156 27.7516 394.994 27.9173 C 399.33 28.0897 403.213 26.7578 406.986 26.8755 C 409.885 26.978 412.696 28.2906 415.158 28.6073 C 424.685 29.7039 433.769 27.4391 442.569 27.7803 C 444.702 27.8629 446.725 29.2539 448.974 29.5905 C 455.708 30.5979 463.462 28.9393 468.88 29.8042 C 471.775 30.2146 474.292 32.6342 476.704 32.992 C 481.514 33.6524 486.333 31.7221 490.431 30.114 C 501.498 34.9535 515.403 31.8298 531.253 33.034 C 537.752 33.512 543.845 36.512 549.869 36.9783 C 551.89 37.1293 554.169 36.3594 555.839 36.3089 C 561.803 36.2446 567.967 37.8846 573.287 37.6494 C 576.871 37.4908 582.901 35.6563 588.5 36.3097 C 595.317 37.0427 600.398 40.1869 605.857 40.3112 C 609.44 40.4069 612.725 38.9762 615.858 38.9797 C 618.692 39.0025 621.573 40.1083 623.797 40.3087 C 634.718 41.1918 645.373 40.0695 655.955 40.9843 C 668.703 42.0864 682.214 44.6951 694.603 44.9783 C 702.952 45.1692 712.63 44.1612 719.085 45.6334 C 722.163 46.2076 723.914 48.3 725.839 48.9717 C 731.876 50.7973 738.3 50.0343 745.778 50.9662 C 748.99 51.3256 750.545 52.7315 753.332 52.983 C 755.471 53.1761 757.11 52.3349 759.201 52.3066 C 773.072 52.1189 787.099 56.4498 801.262 57.6453 C 814.6 58.7712 827.289 56.2612 837.723 60.2943 C 840.687 60.2499 841.128 58.4163 843.149 58.3065 C 870.41 58.058 886.221 69.1034 909.085 72.295 C 909.386 75.0379 904.341 72.8542 903.735 75.6298 C 909.589 78.8608 917.19 76.8712 923.238 78.3099 C 927.114 79.2318 930.574 82.8745 933.05 80.9613 C 932.269 77.536 927.068 76.6589 922.439 75.6333 C 918.49 74.6179 912.727 75.5425 909.785 72.3 C 921.456 73.3852 932.485 73.4727 942.39 74.9625 C 946.318 75.4822 948.445 76.9833 951.968 77.6505 C 955.548 78.3284 958.751 78.2133 961.921 78.9779 C 970.378 81.0174 977.907 84.5683 985.926 86.3102 C 992.911 87.8276 1001.68 87.6187 1005.69 92.9581 M 867.117 70.9696 C 871.69 73.3644 876.536 78.4 881.11 77.6317 C 878.709 72.9947 873.283 70.8115 867.782 68.304 C 867.847 69.6922 866.214 69.6446 867.117 70.9696 M 781.777 69.631 C 783.011 66.4002 778.502 66.2895 776.578 64.9758 C 772.075 61.9026 768.155 58.5863 761.11 57.6339 C 760.654 57.6403 760.047 57.9772 759.146 58.3031 C 759.509 59.2539 759.829 59.7955 759.822 60.3034 C 768.813 61.6969 774.752 69.3602 781.777 69.631 M 723.933 60.3102 C 726.769 64.0081 729.531 70.8139 733.795 64.9629 C 726.466 61.0144 724.552 51.0145 713.17 50.306 C 713.472 50.3196 713.593 53.0043 713.109 52.9664 C 718.838 54.5742 721.189 56.7325 723.933 60.3102 M 666.499 61.6326 C 667.439 57.9771 663.237 59.0362 661.835 56.9667 C 657.976 52.9919 653.084 49.6253 648.506 45.6401 C 643.673 45.8316 638.179 43.1283 633.851 44.3034 C 634.169 44.3259 634.171 46.3295 633.85 46.3052 C 638.427 47.7816 641.905 48.2459 645.841 48.3072 C 653.651 51.7355 658.06 61.7707 666.499 61.6326 M 573.194 60.9639 C 574.915 55.484 568.583 52.184 566.53 47.6385 C 562.591 46.3415 560.974 42.3834 556.533 40.9796 C 556.812 40.9982 555.485 41 555.2 40.9787 C 555.485 40.9987 555.481 43.6603 555.202 43.6386 C 558.292 45.5117 560.98 47.5106 563.198 49.637 C 566.506 53.7393 568.79 58.6042 573.194 60.9639 M 521.318 59.0739 C 523.57 59.7458 524.555 61.4568 527.269 61.0245 C 521.33 48.9651 512.099 39.7576 498.279 35.3288 C 498.516 35.3326 498.526 38.0125 498.277 37.9936 C 503.17 40.2988 508.002 41.9417 511.419 45.1635 C 513.115 46.4527 512.996 48.4624 514.056 49.8015 C 516.109 51.7042 519.728 51.5154 519.995 54.4173 C 520.991 55.7028 521.097 57.5911 521.318 59.0739 M 467.541 61.7728 C 468.859 59.0414 466.086 55.1085 467.552 51.1171 C 461.297 44.2249 453.53 38.5595 445.031 33.694 C 444.355 33.6848 443.848 34.0553 443.106 34.4083 C 442.794 34.5567 442.603 35.0122 442.466 35.7591 C 442.781 37.4937 444.843 37.0401 446.323 36.9999 C 451.377 43.5248 460.624 45.6372 464.313 53.1861 C 464.275 55.9462 463.251 62.2101 467.541 61.7728 M 427.003 59.4207 C 427.877 53.8101 420.886 50.8142 418.821 45.7221 C 412.329 44.5758 409.454 39.3014 401.199 39.6549 C 398.423 36.5423 394.844 34.0243 388.724 34.1093 C 388.953 34.1454 388.906 36.7906 388.747 36.7914 C 393.302 37.5224 396.531 40.6753 400.566 42.3502 C 401.836 42.7535 402.81 41.9866 403.773 42.2575 C 406.609 43.056 414.772 47.139 416.294 48.4775 C 420.858 51.8305 421.103 58.6112 427.003 59.4207 M 371.071 61.2437 C 371.504 57.5137 367.698 57.5526 365.569 55.4755 C 362.48 51.9031 360.012 46.783 356.003 43.9558 C 350.85 40.3224 338.116 35.8673 331.856 35.5674 C 332.096 35.6178 332.02 37.5788 331.873 37.5866 C 340.791 41.3047 350.037 43.1066 356.59 48.5842 C 361.596 52.7681 363.958 61.9536 371.071 61.2437 M 315.426 52.0036 C 317.274 53.9871 317.604 57.6394 321.895 56.4308 C 320.818 53.5292 317.861 49.8331 314.933 47.3722 C 310.604 43.7337 299.627 37.5601 293.906 37.1775 C 293.173 37.1492 290.496 36.1001 289.838 38.5452 C 290.005 38.5801 289.936 39.8812 289.852 39.9008 C 301.089 41.0493 307.673 47.3134 315.426 52.0036 M 274.678 63.3062 C 275.583 60.0623 272.32 59.2778 270.765 57.1565 C 269.67 55.2197 269.393 52.594 267.605 50.9635 C 265.622 48.8743 262.04 48.1561 259.107 46.4576 C 259.135 46.4956 258.153 46.3874 257.838 46.3847 C 258.152 46.3924 257.879 49.0628 257.815 49.1017 C 266.741 50.636 267.188 60.7776 274.678 63.3062 M 265.396 33.2851 C 267.516 33.4491 267.703 35.3551 269.94 34.8577 C 269.868 30.2905 258.824 26.5225 254.766 25.8002 C 248.164 24.6254 243.271 26.7354 242.019 31.6946 C 245.356 34.273 246.875 29.2288 250.4 30.0157 C 252.339 35.9123 261.772 38.1292 265.396 33.2851 M 236.83 58.9323 C 237.446 54.0883 232.407 51.557 230.01 48.4153 C 228.867 46.7246 228.451 44.2623 226.953 42.8734 C 224.514 40.2901 220.898 39.2381 217.988 36.7091 C 218.141 36.677 216.87 36.5047 216.869 36.3662 C 216.831 37.509 216.951 38.4567 217.263 39.1045 C 219.245 41.4457 221.722 41.7429 223.437 43.3673 C 228.517 47.9652 230.645 55.9073 236.83 58.9323 M 54.0983 31.3553 C 54.4217 34.5109 61.4682 36.5519 62.6518 32.7103 C 62.7816 28.1316 55.2602 26.0974 54.0983 31.3553"></path>
<path fill="#166D20" d="M 997.082 83.6326 C 995.2 85.5947 992.414 82.196 988.42 82.9647 C 989.112 80.993 995.636 81.9597 997.082 83.6326"></path>
<path fill="#166D20" d="M 980.412 80.964 C 973.207 81.3657 966.844 77.0931 959.764 75.6342 C 958.482 75.2921 956.673 75.9187 954.362 75.6279 C 952.383 75.2811 948.789 73.2492 945.906 72.9778 C 940.9 72.5064 937.844 72.9028 933.068 70.9655 C 934.999 68.3147 940.46 71.665 943.102 69.6364 C 944.636 71.7178 948.794 70.6719 949.099 72.9674 C 956.581 71.3759 965.378 70.7845 967.753 76.2991 C 973.306 77.0512 978.017 78.1491 980.412 80.964"></path>
<path fill="#166D20" d="M 925.753 70.2991 C 922.068 70.474 918.178 70.6498 911.748 70.3007 C 909.278 70.1813 905.494 68.2165 901.909 67.6434 C 899.673 67.2859 898.508 68.2083 895.686 67.6266 C 894.31 67.0999 892.091 65.0807 889.895 64.3077 C 885.253 62.6742 878.495 63.8999 875.741 58.9668 C 876.284 59.0021 877.518 58.9923 877.129 58.9717 C 892.679 63.7672 912.797 65.9482 925.753 70.2991"></path>
<path d="M 881.11 77.6317 C 876.536 78.4 871.691 73.3624 867.119 70.9696 C 866.214 69.6456 867.849 69.6922 867.784 68.304 C 873.283 70.8115 878.709 72.9937 881.11 77.6317"></path>
<path fill="#166D20" d="M 858.447 54.9696 C 856.54 56.6916 849.219 57.0689 847.786 53.637 C 852.238 53.6339 856.559 53.3456 858.447 54.9696"></path>
<path fill="#166D20" d="M 840.37 54.2972 C 835.389 58.6809 827.707 54.0939 821.975 53.6486 C 817.457 53.2977 812.066 54.4955 807.276 54.3129 C 794.891 53.8409 782.714 49.9059 769.9 48.977 C 764.59 48.592 760.326 49.9475 754.38 49.6286 C 752.169 49.5371 748.866 48.0977 745.902 47.6447 C 738.834 46.5649 731.581 47.326 724.464 44.9704 C 724.35 44.4022 724.158 43.4937 723.794 42.3029 C 732.162 44.4595 742.952 41.7958 751.247 43.6449 C 754.929 44.4657 758.743 47.6333 761.787 48.303 C 769.157 49.6834 777.818 48.0635 785.11 48.303 C 795.461 48.6875 805.202 49.5872 815.92 50.9793 C 825.063 52.1667 833.18 52.1178 840.37 54.2972"></path>
<path d="M 776.58 64.976 C 778.505 66.289 783.013 66.3986 781.779 69.631 C 774.754 69.3602 768.813 61.6968 759.82 60.3044 C 759.829 59.7955 759.509 59.2539 759.144 58.3031 C 760.047 57.9782 760.656 57.6404 761.11 57.6348 C 768.157 58.5865 772.076 61.9023 776.58 64.976"></path>
<path d="M 733.795 64.9629 C 729.531 70.8139 726.769 64.008 723.935 60.3113 C 721.191 56.7325 718.838 54.5742 713.109 52.9664 C 713.593 53.0043 713.472 50.3196 713.17 50.306 C 724.55 51.0145 726.466 61.0154 733.795 64.9629"></path>
<path fill="#166D20" d="M 705.147 40.9773 C 695.359 41.915 682.089 40.6681 669.847 39.6463 C 670.108 37.1597 673.516 38.1106 673.844 36.3129 C 685.142 36.3139 699.143 34.5619 705.147 40.9773"></path>
<path d="M 661.835 56.9667 C 663.239 59.0352 667.437 57.9781 666.499 61.6336 C 658.06 61.7717 653.654 51.7365 645.843 48.3082 C 641.902 48.2479 638.427 47.7816 633.85 46.3052 C 634.171 46.3295 634.169 44.3269 633.851 44.3044 C 638.182 43.1303 643.673 45.8326 648.506 45.6401 C 653.084 49.6253 657.976 52.9909 661.835 56.9667"></path>
<path fill="#166D20" d="M 666.429 38.3073 C 663.749 41.7015 659.767 38.1335 655.896 37.6477 C 641.063 35.7862 620.673 39.7541 604.514 37.6438 C 603.379 37.4708 603.905 36.6217 602.518 36.3094 C 600.02 35.5565 596.717 36.3548 594.521 34.3122 C 596.617 32.3421 599.704 32.2866 601.857 31.6462 C 604.734 30.9874 607.791 29.6352 609.818 29.6437 C 612.347 29.6909 613.475 31.0797 615.254 30.9824 C 622.002 30.6135 628.637 27.002 634.472 25.6458 C 637.918 26.6129 638.553 29.7075 641.303 30.985 C 643.754 32.1235 647.969 32.0285 650.628 32.9834 C 655.063 34.5752 659.922 37.825 666.429 38.3073"></path>
<path fill="#FFFFFF" d="M 653.172 180.938 C 654.081 183.155 652.923 183.56 651.837 184.271 C 650.624 183.368 651.157 182.727 651.171 180.938 C 651.502 181.029 653.507 181.029 653.172 180.938"></path>
<path fill="#FFFFFF" d="M 634.516 180.271 C 636.93 180.04 637.445 181.311 638.507 181.606 C 638.817 184.115 636.869 184.627 633.849 184.271 C 633.682 182.327 635.317 182.399 634.516 180.271"></path>
<path fill="#FFFFFF" d="M 621.848 179.605 C 623.083 182.117 617.674 182.883 618.518 179.606 C 618.83 179.697 622.168 179.697 621.848 179.605"></path>
<path fill="#FFFFFF" d="M 599.85 162.942 C 601.244 164.587 598.762 167.068 595.854 166.938 C 595.679 163.982 597.721 161.067 599.85 162.942"></path>
<path fill="#D8CC5B" d="M 579.956 122.974 C 583.385 122.991 589.122 121.576 590.451 124.938 C 580.254 126.176 568.751 124.873 558.655 125.646 C 551.32 126.208 544.381 128.284 537.338 128.334 C 526.643 128.409 515.323 126.393 504.246 125.875 C 495.475 125.465 486.849 127.866 477.319 128.222 C 458.028 128.941 439.223 127.335 419.862 127.5 C 418.35 125.478 418.16 121.57 417.264 118.196 C 425.792 117.098 435.136 119.002 445.442 117.464 C 448.413 117.021 451.565 115.324 453.782 114.604 C 468.048 111.409 484.201 112.516 500.234 113.235 C 507.78 113.573 517.251 114.994 523.9 116.351 C 526.286 116.842 528.375 116.658 529.92 116.998 C 532.353 117.54 535.064 119.257 537.191 119.634 C 544.481 120.981 551.897 119.56 559.31 120.979 C 561.479 121.394 563.741 122.707 565.998 122.982 C 570.006 123.47 575.601 122.951 579.956 122.974"></path>
<path d="M 566.53 47.6385 C 568.583 52.185 574.914 55.481 573.194 60.9639 C 568.79 58.6022 566.506 53.7393 563.196 49.637 C 560.983 47.5106 558.289 45.5107 555.202 43.6366 C 555.481 43.6583 555.485 40.9967 555.2 40.9767 C 555.485 40.998 556.812 40.9962 556.533 40.9776 C 560.976 42.3843 562.592 46.3425 566.53 47.6385"></path>
<path fill="#166D20" d="M 571.851 32.9804 C 555.824 35.1982 538.233 29.7194 523.332 30.4204 C 516.101 27.7653 507.991 31.8228 500.258 28.6419 C 505.754 26.1161 515.928 25.7708 520.67 28.4318 C 527.066 27.5032 534.354 28.3607 539.23 30.3359 C 550.554 30.33 563.346 29.222 571.851 32.9804"></path>
<path d="M 527.266 61.0255 C 524.552 61.4549 523.568 59.7438 521.318 59.0719 C 521.1 57.5901 520.993 55.7008 519.998 54.4183 C 519.727 51.516 516.111 51.7044 514.058 49.8025 C 512.996 48.4604 513.113 46.4537 511.42 45.1625 C 508.001 41.9427 503.169 40.2988 498.278 37.9956 C 498.527 38.0145 498.517 35.3336 498.28 35.3298 C 512.1 39.7575 521.327 48.9663 527.266 61.0255"></path>
<path fill="#166D20" d="M 489.12 26.1454 C 487.083 29.1677 482.415 29.8518 477.377 30.337 C 472.947 25.0017 459.567 28.7483 452.752 25.4932 C 465.169 21.0595 477.223 25.0529 489.12 26.1454"></path>
<path d="M 467.553 51.1161 C 466.087 55.1055 468.86 59.0424 467.542 61.7728 C 463.252 62.2091 464.277 55.9462 464.314 53.1841 C 460.625 45.6352 451.377 43.5219 446.324 36.998 C 444.843 37.0401 442.782 37.4927 442.467 35.7591 C 442.603 35.0082 442.795 34.5547 443.105 34.4063 C 443.846 34.0543 444.356 33.6838 445.031 33.69 C 453.529 38.5585 461.296 44.2259 467.553 51.1161"></path>
<path d="M 418.822 45.7201 C 420.885 50.8142 427.878 53.8121 427.004 59.4197 C 421.104 58.6093 420.859 51.8314 416.295 48.4756 C 414.771 47.1375 406.608 43.0558 403.772 42.255 C 402.81 41.9834 401.835 42.7543 400.565 42.3482 C 396.53 40.6744 393.3 37.5203 388.747 36.7924 C 388.906 36.7915 388.953 34.1454 388.724 34.1093 C 394.844 34.0223 398.423 36.5403 401.199 39.6549 C 409.454 39.3014 412.328 44.5768 418.822 45.7201"></path>
<path fill="#166D20" d="M 431.725 24.8376 C 423.584 27.5781 414.068 23.5126 405.221 23.652 C 397.571 23.7726 391.723 24.4603 383.82 23.0093 C 388.386 20.6452 394.724 18.194 400.851 18.4657 C 404.793 18.6405 408.826 21.1652 412.795 21.4003 C 419.829 21.817 429.857 18.12 431.725 24.8376"></path>
<path fill="#FFFFFF" d="M 392.285 180.66 C 392.669 182.484 392.235 183.616 390.289 183.308 C 390.305 181.665 390.744 180.54 392.285 180.66"></path>
<path fill="#FFFFFF" d="M 380.377 181.296 C 382.32 181.19 382.747 182.313 382.353 183.959 C 380.959 183.777 381.102 185.26 379.041 184.611 C 379.14 183.054 380.286 182.649 380.377 181.296"></path>
<path d="M 365.642 55.4877 C 367.485 57.5187 371.654 57.5336 371.055 61.2413 C 363.976 61.9551 361.59 52.7677 356.589 48.5848 C 350.041 43.1077 340.788 41.3039 331.871 37.5838 C 332.012 37.5748 332.101 35.6182 331.847 35.5654 C 338.137 35.8699 350.825 40.317 356.012 43.9564 C 360.048 46.7884 362.374 51.8869 365.642 55.4877"></path>
<path fill="#FFFFFF" d="M 367.161 183.262 C 367.191 185.638 365.354 186.246 363.163 186.564 C 363.051 183.967 365.184 181.495 367.161 183.262"></path>
<path fill="#166D20" d="M 350.16 22.9831 C 352.598 21.1926 368.175 17.7646 369.757 22.9438 C 363.207 24.0385 356.27 24.735 350.16 22.9831"></path>
<path fill="#FFFFFF" d="M 336.965 166.649 C 336.448 168.924 335.268 170.644 332.292 170.602 C 331.918 167.917 333.779 167.559 333.655 165.302 C 335.945 164.826 335.871 166.447 336.965 166.649"></path>
<path fill="#166D20" d="M 341.143 24.6924 C 337.036 24.5978 331.694 25.4368 330.281 21.7114 C 334.94 21.7066 340.464 20.6336 341.143 24.6924"></path>
<path fill="#D8CC5B" d="M 325.357 122.871 C 328.077 123.627 330.679 126.832 332.967 127.095 C 325.733 128.31 317.024 130.108 308.465 129.5 C 303.673 129.16 299.605 126.806 295.209 126.046 C 291.818 125.571 287.195 125.463 283.356 125.347 C 272.69 125.024 262.137 128.851 251.806 129.333 C 241.846 130.071 234.084 128.609 226.609 125.922 C 234.877 118.377 242.863 111.926 254.589 112.137 C 258.643 112.355 263.174 113.641 267.9 114.397 C 278.069 116.025 288.411 118.384 299.462 120.578 C 301.721 121.065 303.76 122.117 305.444 122.307 C 312.671 123.43 320.241 121.449 325.357 122.871"></path>
<path d="M 321.896 56.4309 C 317.604 57.6393 317.275 53.9881 315.427 52.0007 C 307.674 47.3134 301.089 41.0464 289.851 39.8998 C 289.935 39.8795 290.004 38.5775 289.837 38.5421 C 290.497 36.0983 293.173 37.1482 293.906 37.1765 C 299.627 37.5589 310.605 43.7359 314.934 47.3721 C 317.861 49.8304 320.817 53.529 321.896 56.4309"></path>
<path d="M 270.75 57.1542 C 272.34 59.279 275.573 60.0605 274.678 63.3064 C 267.188 60.7771 266.74 50.6366 257.816 49.1008 C 257.882 49.0621 258.152 46.3931 257.842 46.3861 C 258.14 46.3862 259.159 46.5007 259.086 46.4554 C 262.114 48.1671 265.523 48.8583 267.653 50.9702 C 269.269 52.5725 269.764 55.2312 270.75 57.1542"></path>
<path d="M 269.941 34.8588 C 267.704 35.356 267.515 33.4481 265.397 33.2862 C 261.772 38.1291 252.341 35.9125 250.401 30.0167 C 246.875 29.2271 245.358 34.2741 242.021 31.6956 C 243.27 26.7384 248.172 24.6261 254.768 25.8014 C 258.822 26.5237 269.87 30.2903 269.941 34.8588 M 255.668 29.8836 C 255.321 32.4182 259.707 34.1049 260.24 31.6101 C 259.068 30.7801 258.019 29.7325 255.668 29.8836"></path>
<path fill="#9CDBF2" d="M 260.238 31.6099 C 259.71 34.1045 255.316 32.4194 255.672 29.8817 C 258.025 29.7311 259.06 30.7813 260.238 31.6099"></path>
<path d="M 230.009 48.4142 C 232.407 51.556 237.448 54.0894 236.83 58.9313 C 230.645 55.9092 228.516 47.9661 223.437 43.3663 C 221.722 41.7449 219.244 41.4436 217.263 39.1035 C 216.951 38.4577 216.83 37.508 216.868 36.3671 C 216.869 36.5056 218.141 36.678 217.988 36.7101 C 220.898 39.2371 224.514 40.289 226.953 42.8724 C 228.452 44.2614 228.867 46.7256 230.009 48.4142"></path>
<path fill="#1F9B31" d="M 209.379 26.4437 C 213.054 21.2831 223.786 16.6155 232.731 22.838 C 226.708 26.2881 218.64 27.8312 209.379 26.4437"></path>
<path fill="#FFFFFF" d="M 204.647 74.5007 C 204.181 76.6046 200.605 75.8519 199.583 73.7798 C 199.926 71.9162 203.88 73.5799 204.647 74.5007"></path>
<path fill="#FFFFFF" d="M 196.278 116.99 C 196.719 117.869 192.989 119.825 193.62 117.176 C 195.006 116.341 195.435 116.584 196.278 116.99"></path>
<path fill="#FFFFFF" d="M 190.841 71.5908 C 189.614 75.6102 183.806 70.6935 184.134 67.7798 C 186.28 69.3423 189.968 69.6419 190.841 71.5908"></path>
<path fill="#FFFFFF" d="M 177.055 125.345 C 178.531 124.753 179.296 125.184 179.334 126.611 C 179.403 126.411 177.532 127.769 177.408 127.324 C 177.506 127.462 177.149 125.478 177.055 125.345"></path>
<path fill="#FFFFFF" d="M 175.16 66.3656 C 173.527 70.0189 166.514 67.3568 167.023 62.973 C 169.065 62.6443 174.243 64.3961 175.16 66.3656"></path>
<path fill="#FFFFFF" d="M 164.798 133.884 C 165.033 135.628 162.128 135.4 161.579 134.99 C 161.695 132.482 163.762 133.529 164.798 133.884"></path>
<path fill="#FFFFFF" d="M 149.82 61.6945 C 153.045 61.3597 157.018 59.9505 159.862 61.814 C 159.179 65.6702 150.641 66.8358 149.82 61.6945"></path>
<path fill="#FFFFFF" d="M 148.441 141.509 C 148.149 143.273 144.489 142.914 142.731 143.606 C 142.714 142.304 144.299 142 144.132 140.546 C 146.147 140.181 146.774 141.711 148.441 141.509"></path>
<path fill="#FFFFFF" d="M 131.8 60.5348 C 134.433 61.2205 138.286 60.9576 139.589 62.4482 C 137.999 65.4946 131.666 64.666 131.8 60.5348"></path>
<path fill="#FFFFFF" d="M 125.509 145.92 C 127.437 145.42 127.893 147.043 129.689 146.395 C 129.79 147.981 126.598 147.414 125.275 148.014 C 125.561 147.493 125.788 146.879 125.509 145.92"></path>
<path fill="#FFFFFF" d="M 110.322 59.8335 C 112.723 58.37 115.417 61.6181 118.875 61.1888 C 116.033 65.2269 113.045 62.8039 110.322 59.8335"></path>
<path fill="#FFFFFF" d="M 110.689 153.15 C 110.575 154.805 107.14 154.271 105.614 154.91 C 105.068 153.484 106.56 153.318 105.577 151.521 C 107.815 151.388 108.915 152.891 110.689 153.15"></path>
<path fill="#FFFFFF" d="M 99.7829 58.1652 C 101.35 60.6717 96.6965 59.8139 96.9744 63.1175 C 92.3682 62.8472 90.6039 60.4213 89.0454 57.8111 C 90.7444 54.8229 96.9887 57.8492 99.7829 58.1652"></path>
<path fill="#FFFFFF" d="M 83.3499 162.37 C 81.4723 158.521 88.5624 156.921 89.5887 159.681 C 89.578 161.776 88.1861 162.948 85.5807 163.259 C 85.0194 162.837 84.233 162.608 83.3499 162.37"></path>
<path fill="#FFFFFF" d="M 77.1894 55.9337 C 75.796 64.0749 65.624 59.4242 66.8757 52.9533 C 71.5436 53.0913 73.3664 55.2836 77.1894 55.9337"></path>
<path fill="#FFFFFF" d="M 62.2551 168.898 C 60.7504 163.641 67.317 163.471 68.1206 167.652 C 68.1624 167.736 62.2802 168.987 62.2551 168.898"></path>
<path fill="#166D20" d="M 60.2303 30.9771 C 60.6166 33.079 58.6056 31.9289 57.389 31.8763 C 57.7561 30.7596 58.7919 30.5686 60.2303 30.9771"></path>
<path fill="#FFFFFF" d="M 48.5787 53.4268 C 50.2584 51.2493 56.4906 51.7569 58.7624 53.016 C 57.2955 56.8446 53.3813 57.3701 49.8214 58.3473 C 48.4098 57.4818 49.6103 54.651 48.5787 53.4268"></path>
<path d="M 62.6527 32.7105 C 61.4692 36.552 54.4217 34.5109 54.0983 31.3553 C 55.2612 26.0976 62.7826 28.1318 62.6527 32.7105 M 57.388 31.8761 C 58.6056 31.9289 60.6166 33.079 60.2293 30.977 C 58.793 30.5678 57.757 30.7597 57.388 31.8761"></path>
<path fill="#166D20" d="M 47.1024 20.1255 C 49.4774 20.0319 49.1266 22.825 47.8967 23.623 C 46.496 23.3125 46.7672 21.7501 47.1024 20.1255"></path>
</svg>
