<svg version="1.1" id="Layer_1" xmlns="http://www.w3.org/2000/svg" xmlns:xlink="http://www.w3.org/1999/xlink" x="0px" y="0px" width="100px" height="30px" viewBox="0 0 100 30" enable-background="new 0 0 100 30" xml:space="preserve"><defs></defs><path d="M10,20L10.318300885672242,19.70009969288645L10.666727872857402,19.40645655786092L11.044658365899002,19.11906636530513L11.451469769140585,18.837924885600835L11.886539486925692,18.563027889129764L12.34924492359785,18.294371146273654L12.8389634835006,18.031950427414255L13.355072570977478,17.77576150293329L13.896949590372019,17.525800143212503L14.463971946027758,17.28206211863364L15.055517042288237,17.044543199578428L15.670962283496989,16.813239156428615L16.30968507399755,16.588145759565933L16.971062818133454,16.36925877937213L17.654472920248235,16.156573986228935L18.35929278468544,15.950087150518085L19.084899815788603,15.749794042621321L19.83067141790125,15.55569043292039L20.595984995366926,15.367772091797024L21.380217952529165,15.186034789632957L22.1827476937315,15.010474296809933L23.002951623317475,14.84108638370969L23.840207145630618,14.67786682071397L24.693891665014466,14.520811378204499L25.56338258581257,14.36991582656303L26.44805731236845,14.225175936171294L27.34729324902564,14.086587477411031L28.260467800127692,13.95414622066398L29.186958370018125,13.827847936311876L30.126142363040493,13.707688394736468L31.077397183538306,13.593663366319475L32.040100235855135,13.485768621442654L33.01362892433448,13.383999930487736L33.99736065331992,13.288353063836464L34.99067282715496,13.19882379187057L35.992942850183134,13.115407884971798L37.00354812674799,13.038101113521877L38.02186606119307,12.966899247902562L39.0472740578619,12.901798058495576L40.07914952109802,12.842793315682663L41.11686985524496,12.789880789845563L42.15981246464625,12.743056251366019L43.20735475364544,12.702315470625757L44.25887412658608,12.667654218006527L45.31374798781168,12.639068263890062L46.3713537416658,12.6165533786581L47.431068792491935,12.60010533269238L48.492270544633676,12.589719896374646L49.554336402434494,12.585392840086625L50.616643770238,12.587119934210072L51.6785700523877,12.59489694912671L52.739492653227096,12.608719655218286L53.79878897709974,12.628583822866533L54.855836428349214,12.654485222453195L55.910012411319016,12.68641962436001L56.96069433035269,12.724382798968712L58.007259589793755,12.768370516661038L59.04908559398576,12.818378547818739L60.08554974727225,12.874402662823545L61.116029453996745,12.936438632057188L62.1399021185028,13.00448222590142L63.15654514513395,13.078529214737971L64.16533593823371,13.15857536894858L65.16565190214563,13.244616458914985L66.15687044121324,13.336648255018929L67.1383689597801,13.434666527642149L68.10952486218972,13.538667047166378L69.06971555278565,13.648645583973355L70.01831843591138,13.764597908444834L70.95471091591054,13.886519790962534L71.87827039712658,14.014407001908197L72.78837428390307,14.148255311663572L73.68439998058355,14.288060490610393L74.56572489151156,14.433818309130395L75.43172642103065,14.585524537605322L76.28178197348431,14.743174946416904L77.11526895321609,14.90676530594688L77.93156476456954,15.076291386577003L78.73004681188822,15.251748958689L79.51009249951562,15.433133792664602L80.27107923179531,15.620441658885566L81.0123844130708,15.813668327733613L81.7333854476856,16.012809569590495L82.43345973998333,16.217861154837944L83.1119846943075,16.4288188538577L83.76833771500159,16.645678437031496L84.40189620640919,16.868435674741082L85.01203757287378,17.097086337368182L85.59813921873896,17.33162619529455L86.15957854834828,17.572051018901917L86.69573296604521,17.818356578572015L87.20597987617334,18.0705386446866L87.68969668307614,18.328592987627385L88.1462607910972,18.592515377776138L88.57504960458007,18.862301585514572L88.97544052786823,19.137947381224436L89.34681096530522,19.419448535287476L89.68853832123466,19.706800818085416L90,20" class="target-curve-polyline" stroke="#ff0000" style="stroke-width: 3px; fill-opacity: 0; stroke-dasharray: 20px, 10px, 5px, 5px, 5px, 10px;"></path><line x1="9.999999999999906" x2="10" y1="19.999999999999968" y2="20" class="distance-line" stroke="#0000ff" style="stroke-width: 2px; fill-opacity: 0;"></line></svg>