<svg version="1.1" id="Layer_1" xmlns="http://www.w3.org/2000/svg" xmlns:xlink="http://www.w3.org/1999/xlink" x="0px" y="0px" width="800px" height="600px" viewBox="0 0 800 600" enable-background="new 0 0 800 600" xml:space="preserve"><defs></defs><path d="M288.510009765625 519.4530029296875 C 264.614013671875 519.4530029296875 266.1510009765625 493.5660095214844 260.54901123046875 477.7239990234375 C 253.33999633789062 457.3349914550781 246.78700256347656 441.5539855957031 249.80299377441406 419.3179931640625 C 251.39199829101562 407.59698486328125 269.9280090332031 383.16400146484375 268.2040100097656 375.4209899902344 C 267.739013671875 373.3280029296875 225.90699768066406 352.1090087890625 229.50900268554688 351.69000244140625 C 219.51100158691406 352.8559875488281 205.58999633789062 384.0690002441406 199.3489990234375 390.47100830078125 C 178.63099670410156 411.72900390625 160.4409942626953 421.2170104980469 130.64199829101562 422.8890075683594 C 101.04399871826172 424.5450134277344 79.7239990234375 421.3680114746094 63.66600036621094 393.73699951171875 C 58.28799819946289 384.4830017089844 46.808998107910156 340.67498779296875 48.20899963378906 331.22698974609375 C 54.16699981689453 291.0610046386719 127.24299621582031 308.8039855957031 155.572998046875 287.09600830078125 C 102.88700103759766 261.4330139160156 245.86199951171875 127.1050033569336 281.9830017089844 109.18299865722656 C 318.843994140625 90.89399719238281 356.3160095214844 82.24500274658203 396.9330139160156 80.73400115966797 C 467.2669982910156 78.11900329589844 537.5640258789062 103.1510009765625 596.14599609375 140.11099243164062 C 630.083984375 161.5229949951172 640.833984375 178.76499938964844 667.47998046875 205.83999633789062 C 687.7940063476562 226.48300170898438 714.85302734375 235.75599670410156 733.4509887695312 254.8260040283203 C 773.27099609375 295.65899658203125 743.4000244140625 323.66400146484375 693.8060302734375 306.72198486328125 C 689.5809936523438 333.46600341796875 675.5499877929688 356.177001953125 650.9310302734375 368.6099853515625 C 672.5809936523438 395.6000061035156 704.4639892578125 471.83099365234375 660.4450073242188 493.8009948730469 C 623.1439819335938 512.4180297851562 552.385986328125 434.5610046386719 532.947021484375 412.5530090332031 C 513.4879760742188 390.52398681640625 542.6069946289062 399.14898681640625 507.5539855957031 390.11199951171875 C 493.4859924316406 386.4849853515625 472.60101318359375 391.4849853515625 458.2590026855469 392.1180114746094 C 442.1319885253906 392.83099365234375 419.07000732421875 390.2959899902344 404.07000732421875 394.927001953125 C 374.6759948730469 404.0010070800781 395.427001953125 394.2239990234375 378.62200927734375 415.572998046875 C 359.46099853515625 439.9159851074219 331.2539978027344 519.4530029296875 288.510009765625 519.4530029296875 C 272.44000244140625 519.4530029296875 288.7850036621094 519.4530029296875 288.510009765625 519.4530029296875" style="opacity: 0;"></path><rect x="123" y="366" width="10" height="10" rx="2" ry="2" class="handle-original" fill="#da55da" stroke="#000000" style="stroke-width: 2px; opacity: 0.5;"></rect><rect x="294" y="443" width="10" height="10" rx="2" ry="2" class="handle-original" fill="#da55da" stroke="#000000" style="stroke-width: 2px; opacity: 0.5;"></rect><rect x="629" y="426" width="10" height="10" rx="2" ry="2" class="handle-original" fill="#da55da" stroke="#000000" style="stroke-width: 2px; opacity: 0.5;"></rect><rect x="719" y="281" width="10" height="10" rx="2" ry="2" class="handle-original" fill="#da55da" stroke="#000000" style="stroke-width: 2px; opacity: 0.5;"></rect><rect x="418" y="198" width="10" height="10" rx="2" ry="2" class="handle-original" fill="#da55da" stroke="#000000" style="stroke-width: 2px; opacity: 0.5;"></rect><rect x="123" y="366" width="10" height="10" rx="2" ry="2" class="handle" fill="#da55da" stroke="#000000" transform="matrix(1.6332,-0.4682,0.4682,1.6332,-258.7683,-260.9592)" style="stroke-width: 2px;"></rect><rect x="294" y="443" width="10" height="10" rx="2" ry="2" class="handle" fill="#da55da" stroke="#000000" transform="matrix(1,0,0,1,47,1)" style="stroke-width: 2px;"></rect><rect x="629" y="426" width="10" height="10" rx="2" ry="2" class="handle" fill="#da55da" stroke="#000000" transform="matrix(1,0,0,1,-90,0)" style="stroke-width: 2px;"></rect><rect x="719" y="281" width="10" height="10" rx="2" ry="2" class="handle" fill="#da55da" stroke="#000000" transform="matrix(0.9397,0.342,-0.342,0.9397,136.4803,-204.3747)" style="stroke-width: 2px;"></rect><rect x="418" y="198" width="10" height="10" rx="2" ry="2" class="handle" fill="#da55da" stroke="#000000" transform="matrix(1,0,0,1,0,0)" style="stroke-width: 2px;"></rect></svg>