<!--?xml version="1.0" encoding="utf-8"?-->
<!-- Generator: Adobe Illustrator 15.0.2, SVG Export Plug-In . SVG Version: 6.00 Build 0)  -->

<svg version="1.1" id="Layer_1" xmlns="http://www.w3.org/2000/svg" xmlns:xlink="http://www.w3.org/1999/xlink" x="0px" y="0px" width="400px" height="300px" viewBox="0 0 400 300" enable-background="new 0 0 400 300" xml:space="preserve">
<path fill="none" stroke="#231F20" stroke-width="6" stroke-miterlimit="10" d="M 98.1649 106.445 C 59.1516 149.697 94.303 231.277 233.784 253.678 C 346.207 178.615 341.503 104.25 290.458 86.2611 C 233.832 100.921 209.898 146.34 226.389 194.709 C 206.074 135.59 153.922 96.6893 98.1649 106.445"></path>
<g>
	<g>
		<g>
			<g>
				<path fill="none" stroke="#00DF22" stroke-width="6" stroke-miterlimit="10" d="M 115.496 166.492 C 116.354 164.533 117.529 162.829 119.034 161.472"></path>
				<path fill="none" stroke="#00DF22" stroke-width="6" stroke-miterlimit="10" stroke-dasharray="13.033,13.033" d="M 133.053 158.711 C 148.077 162.172 173.514 178.889 222.774 210.065 C 279.757 185.169 288.598 163.462 304.01 158.735"></path>
				<path fill="none" stroke="#00DF22" stroke-width="6" stroke-miterlimit="10" d="M 309.227 158.4 C 310.684 158.584 312.151 158.97 313.622 159.539"></path>
			</g>
		</g>
	</g>
</g>
</svg>
