<svg version="1.1" id="Layer_1" xmlns="http://www.w3.org/2000/svg" xmlns:xlink="http://www.w3.org/1999/xlink" x="0px" y="0px" width="400px" height="300px" viewBox="0 0 400 300" enable-background="new 0 0 400 300" xml:space="preserve"><defs><rect width="10" height="10" class="svg---mgr"></rect></defs><path d="M43.505001068115234 131.21400451660156 C 43.505001068115234 200 100 266.40399169921875 200 266.40399169921875 C 300 266.40399169921875 342.614990234375 200 342.614990234375 131.21400451660156 C 342.614990234375 65 300 21.156999588012695 200 21.156999588012695 C 100 21.156999588012695 43.505001068115234 65 43.505001068115234 131.21400451660156" style="opacity: 0;"></path><rect x="100" y="144" width="10" height="10" rx="2" ry="2" class="handle-original" fill="#da55da" stroke="#000000" style="stroke-width: 2px; opacity: 0.5;"></rect><rect x="287" y="121" width="10" height="10" rx="2" ry="2" class="handle-original" fill="#da55da" stroke="#000000" style="stroke-width: 2px; opacity: 0.5;"></rect><rect x="100" y="144" width="10" height="10" rx="2" ry="2" class="handle" fill="#da55da" stroke="#000000" style="stroke-width: 2px;" transform="matrix(0.5878,0.809,-0.809,0.5878,163.8246,-23.5253)"></rect><rect x="287" y="121" width="10" height="10" rx="2" ry="2" class="handle" fill="#da55da" stroke="#000000" style="stroke-width: 2px;" transform="matrix(-0.1046,-0.9945,0.9945,-0.1046,197.2166,429.5651)"></rect></svg>