<svg version="1.1" id="Layer_1" xmlns="http://www.w3.org/2000/svg" xmlns:xlink="http://www.w3.org/1999/xlink" x="0px" y="0px" viewBox="0 0 500 500" width="500px" height="500px" enable-background="new 0 0 500 500" xml:space="preserve"><defs></defs><path d="M 250.1 69.4 C 286.1 69.4 294.6 206.3 294.6 206.3 C 294.6 206.3 427.4 172.2 438.5 206.3 C 449.6 240.4 322 290.9 322 290.9 C 322 290.9 395.6 406.7 366.5 427.8 C 337.4 448.9 250 343.2 250 343.2 C 250 343.2 162.6 448.8 133.5 427.8 C 104.4 406.8 178 290.9 178 290.9 C 178 290.9 50.5 240.5 61.5 206.3 C 72.5 172.1 205.4 206.3 205.4 206.3 C 205.4 206.3 214.1 69.4 250.1 69.4" class="undeformed-curve" stroke="#bbbbbb" style="fill-opacity: 0; stroke-width: 3px; stroke-dasharray: 10px, 10px;"></path><line x1="250.10000610351562" x2="286.1000061035156" y1="69.4000015258789" y2="69.4000015258789" class="control-point-tangents" stroke="#000000" style="stroke-width: 2px;"></line><line x1="294.6000061035156" x2="294.6000061035156" y1="206.3000030517578" y2="206.3000030517578" class="control-point-tangents" stroke="#000000" style="stroke-width: 2px;"></line><line x1="294.6000061035156" x2="294.6000061035156" y1="206.3000030517578" y2="206.3000030517578" class="control-point-tangents" stroke="#000000" style="stroke-width: 2px;"></line><line x1="438.5" x2="427.3999938964844" y1="206.3000030517578" y2="172.1999969482422" class="control-point-tangents" stroke="#000000" style="stroke-width: 2px;"></line><line x1="438.5" x2="449.6000061035156" y1="206.3000030517578" y2="240.39999389648438" class="control-point-tangents" stroke="#000000" style="stroke-width: 2px;"></line><line x1="322" x2="322" y1="290.8999938964844" y2="290.8999938964844" class="control-point-tangents" stroke="#000000" style="stroke-width: 2px;"></line><line x1="322" x2="322" y1="290.8999938964844" y2="290.8999938964844" class="control-point-tangents" stroke="#000000" style="stroke-width: 2px;"></line><line x1="366.5" x2="395.6000061035156" y1="427.79998779296875" y2="406.70001220703125" class="control-point-tangents" stroke="#000000" style="stroke-width: 2px;"></line><line x1="366.5" x2="337.3999938964844" y1="427.79998779296875" y2="448.8999938964844" class="control-point-tangents" stroke="#000000" style="stroke-width: 2px;"></line><line x1="250" x2="250" y1="343.20001220703125" y2="343.20001220703125" class="control-point-tangents" stroke="#000000" style="stroke-width: 2px;"></line><line x1="250" x2="250" y1="343.20001220703125" y2="343.20001220703125" class="control-point-tangents" stroke="#000000" style="stroke-width: 2px;"></line><line x1="133.5" x2="162.60000610351562" y1="427.79998779296875" y2="448.79998779296875" class="control-point-tangents" stroke="#000000" style="stroke-width: 2px;"></line><line x1="133.5" x2="104.4000015258789" y1="427.79998779296875" y2="406.79998779296875" class="control-point-tangents" stroke="#000000" style="stroke-width: 2px;"></line><line x1="178" x2="178" y1="290.8999938964844" y2="290.8999938964844" class="control-point-tangents" stroke="#000000" style="stroke-width: 2px;"></line><line x1="178" x2="178" y1="290.8999938964844" y2="290.8999938964844" class="control-point-tangents" stroke="#000000" style="stroke-width: 2px;"></line><line x1="61.5" x2="50.5" y1="206.3000030517578" y2="240.5" class="control-point-tangents" stroke="#000000" style="stroke-width: 2px;"></line><line x1="61.5" x2="72.5" y1="206.3000030517578" y2="172.10000610351562" class="control-point-tangents" stroke="#000000" style="stroke-width: 2px;"></line><line x1="205.39999389648438" x2="205.39999389648438" y1="206.3000030517578" y2="206.3000030517578" class="control-point-tangents" stroke="#000000" style="stroke-width: 2px;"></line><line x1="205.39999389648438" x2="205.39999389648438" y1="206.3000030517578" y2="206.3000030517578" class="control-point-tangents" stroke="#000000" style="stroke-width: 2px;"></line><line x1="250.10000610351562" x2="214.10000610351562" y1="69.4000015258789" y2="69.4000015258789" class="control-point-tangents" stroke="#000000" style="stroke-width: 2px;"></line><circle cx="286.1000061035156" cy="69.4000015258789" r="5" class="control-point-inner" fill="#da5555" stroke="#000000" style="stroke-width: 2px;"></circle><circle cx="294.6000061035156" cy="206.3000030517578" r="5" class="control-point-inner" fill="#da5555" stroke="#000000" style="stroke-width: 2px;"></circle><circle cx="294.6000061035156" cy="206.3000030517578" r="5" class="control-point-inner" fill="#da5555" stroke="#000000" style="stroke-width: 2px;"></circle><circle cx="427.3999938964844" cy="172.1999969482422" r="5" class="control-point-inner" fill="#da5555" stroke="#000000" style="stroke-width: 2px;"></circle><circle cx="449.6000061035156" cy="240.39999389648438" r="5" class="control-point-inner" fill="#da5555" stroke="#000000" style="stroke-width: 2px;"></circle><circle cx="322" cy="290.8999938964844" r="5" class="control-point-inner" fill="#da5555" stroke="#000000" style="stroke-width: 2px;"></circle><circle cx="322" cy="290.8999938964844" r="5" class="control-point-inner" fill="#da5555" stroke="#000000" style="stroke-width: 2px;"></circle><circle cx="395.6000061035156" cy="406.70001220703125" r="5" class="control-point-inner" fill="#da5555" stroke="#000000" style="stroke-width: 2px;"></circle><circle cx="337.3999938964844" cy="448.8999938964844" r="5" class="control-point-inner" fill="#da5555" stroke="#000000" style="stroke-width: 2px;"></circle><circle cx="250" cy="343.20001220703125" r="5" class="control-point-inner" fill="#da5555" stroke="#000000" style="stroke-width: 2px;"></circle><circle cx="250" cy="343.20001220703125" r="5" class="control-point-inner" fill="#da5555" stroke="#000000" style="stroke-width: 2px;"></circle><circle cx="162.60000610351562" cy="448.79998779296875" r="5" class="control-point-inner" fill="#da5555" stroke="#000000" style="stroke-width: 2px;"></circle><circle cx="104.4000015258789" cy="406.79998779296875" r="5" class="control-point-inner" fill="#da5555" stroke="#000000" style="stroke-width: 2px;"></circle><circle cx="178" cy="290.8999938964844" r="5" class="control-point-inner" fill="#da5555" stroke="#000000" style="stroke-width: 2px;"></circle><circle cx="178" cy="290.8999938964844" r="5" class="control-point-inner" fill="#da5555" stroke="#000000" style="stroke-width: 2px;"></circle><circle cx="50.5" cy="240.5" r="5" class="control-point-inner" fill="#da5555" stroke="#000000" style="stroke-width: 2px;"></circle><circle cx="72.5" cy="172.10000610351562" r="5" class="control-point-inner" fill="#da5555" stroke="#000000" style="stroke-width: 2px;"></circle><circle cx="205.39999389648438" cy="206.3000030517578" r="5" class="control-point-inner" fill="#da5555" stroke="#000000" style="stroke-width: 2px;"></circle><circle cx="205.39999389648438" cy="206.3000030517578" r="5" class="control-point-inner" fill="#da5555" stroke="#000000" style="stroke-width: 2px;"></circle><circle cx="214.10000610351562" cy="69.4000015258789" r="5" class="control-point-inner" fill="#da5555" stroke="#000000" style="stroke-width: 2px;"></circle><circle cx="250.10000610351562" cy="69.4000015258789" r="10" class="control-point-handle" fill="#5555da" stroke="#000000" style="stroke-width: 2px;"></circle><circle cx="294.6000061035156" cy="206.3000030517578" r="10" class="control-point-handle" fill="#5555da" stroke="#000000" style="stroke-width: 2px;"></circle><circle cx="438.5" cy="206.3000030517578" r="10" class="control-point-handle" fill="#5555da" stroke="#000000" style="stroke-width: 2px;"></circle><circle cx="322" cy="290.8999938964844" r="10" class="control-point-handle" fill="#5555da" stroke="#000000" style="stroke-width: 2px;"></circle><circle cx="366.5" cy="427.79998779296875" r="10" class="control-point-handle" fill="#5555da" stroke="#000000" style="stroke-width: 2px;"></circle><circle cx="250" cy="343.20001220703125" r="10" class="control-point-handle" fill="#5555da" stroke="#000000" style="stroke-width: 2px;"></circle><circle cx="133.5" cy="427.79998779296875" r="10" class="control-point-handle" fill="#5555da" stroke="#000000" style="stroke-width: 2px;"></circle><circle cx="178" cy="290.8999938964844" r="10" class="control-point-handle" fill="#5555da" stroke="#000000" style="stroke-width: 2px;"></circle><circle cx="61.5" cy="206.3000030517578" r="10" class="control-point-handle" fill="#5555da" stroke="#000000" style="stroke-width: 2px;"></circle><circle cx="205.39999389648438" cy="206.3000030517578" r="10" class="control-point-handle" fill="#5555da" stroke="#000000" style="stroke-width: 2px;"></circle></svg>