<svg version="1.1" id="Layer_1" xmlns="http://www.w3.org/2000/svg" xmlns:xlink="http://www.w3.org/1999/xlink" x="0px" y="0px" viewBox="0 0 500 500" width="500px" height="500px" enable-background="new 0 0 500 500" xml:space="preserve"><line x1="235" x2="381" y1="417" y2="142" class="handle-loop" stroke="#da91da" style="opacity: 0.5; stroke-width: 4px;"></line><line x1="381" x2="304" y1="142" y2="97" class="handle-loop" stroke="#da91da" style="opacity: 0.5; stroke-width: 4px;"></line><line x1="304" x2="2" y1="97" y2="74" class="handle-loop" stroke="#da91da" style="opacity: 0.5; stroke-width: 4px;"></line><line x1="2" x2="24" y1="74" y2="438" class="handle-loop" stroke="#da91da" style="opacity: 0.5; stroke-width: 4px;"></line><line x1="24" x2="235" y1="438" y2="417" class="handle-loop" stroke="#da91da" style="opacity: 0.5; stroke-width: 4px;"></line><defs><rect width="10" height="10" class="svg---mgr"></rect></defs><path d="M250.10000610351562 69.4000015258789 C 286.1000061035156 69.4000015258789 294.6000061035156 206.3000030517578 294.6000061035156 206.3000030517578 C 294.6000061035156 206.3000030517578 427.3999938964844 172.1999969482422 438.5 206.3000030517578 C 449.6000061035156 240.39999389648438 322 290.8999938964844 322 290.8999938964844 C 322 290.8999938964844 395.6000061035156 406.70001220703125 366.5 427.79998779296875 C 337.3999938964844 448.8999938964844 250 343.20001220703125 250 343.20001220703125 C 250 343.20001220703125 162.60000610351562 448.79998779296875 133.5 427.79998779296875 C 104.4000015258789 406.79998779296875 178 290.8999938964844 178 290.8999938964844 C 178 290.8999938964844 50.5 240.5 61.5 206.3000030517578 C 72.5 172.10000610351562 205.39999389648438 206.3000030517578 205.39999389648438 206.3000030517578 C 205.39999389648438 206.3000030517578 214.10000610351562 69.4000015258789 250.10000610351562 69.4000015258789" style="opacity: 0;"></path><rect x="385" y="446" width="10" height="10" rx="2" ry="2" class="handle-original" fill="#da55da" stroke="#000000" data-handle_index="0" style="stroke-width: 2px; opacity: 0.5;"></rect><rect x="468" y="190" width="10" height="10" rx="2" ry="2" class="handle-original" fill="#da55da" stroke="#000000" data-handle_index="1" style="stroke-width: 2px; opacity: 0.5;"></rect><rect x="241" y="32" width="10" height="10" rx="2" ry="2" class="handle-original" fill="#da55da" stroke="#000000" data-handle_index="2" style="stroke-width: 2px; opacity: 0.5;"></rect><rect x="27" y="191" width="10" height="10" rx="2" ry="2" class="handle-original" fill="#da55da" stroke="#000000" data-handle_index="3" style="stroke-width: 2px; opacity: 0.5;"></rect><rect x="109" y="449" width="10" height="10" rx="2" ry="2" class="handle-original" fill="#da55da" stroke="#000000" data-handle_index="4" style="stroke-width: 2px; opacity: 0.5;"></rect><rect x="385" y="446" width="10" height="10" rx="2" ry="2" class="handle" fill="#da55da" stroke="#000000" data-handle_index="0" transform="matrix(1,0,0,1,-155,-34)" style="stroke-width: 2px;"></rect><rect x="468" y="190" width="10" height="10" rx="2" ry="2" class="handle" fill="#da55da" stroke="#000000" data-handle_index="1" style="stroke-width: 2px;" transform="matrix(1,0,0,1,-92,-53)"></rect><rect x="241" y="32" width="10" height="10" rx="2" ry="2" class="handle" fill="#da55da" stroke="#000000" data-handle_index="2" style="stroke-width: 2px;" transform="matrix(1,0,0,1,58,60)"></rect><rect x="27" y="191" width="10" height="10" rx="2" ry="2" class="handle" fill="#da55da" stroke="#000000" data-handle_index="3" style="stroke-width: 2px;" transform="matrix(1,0,0,1,-30,-122)"></rect><rect x="109" y="449" width="10" height="10" rx="2" ry="2" class="handle" fill="#da55da" stroke="#000000" data-handle_index="4" style="stroke-width: 2px;" transform="matrix(1,0,0,1,-90,-16)"></rect></svg>