<!--?xml version="1.0" encoding="utf-8"?-->
<!-- Generator: Adobe Illustrator 17.1.0, SVG Export Plug-In . SVG Version: 6.00 Build 0)  -->

<svg version="1.1" id="Layer_1" xmlns="http://www.w3.org/2000/svg" xmlns:xlink="http://www.w3.org/1999/xlink" x="0px" y="0px" viewBox="0 0 500 500" width="500px" height="500px" enable-background="new 0 0 500 500" xml:space="preserve">
<path fill="#8DC63F" stroke="#009444" stroke-width="8" stroke-linecap="round" stroke-linejoin="round" stroke-miterlimit="10" d="M 236.071 68.6824 C 269.541 68.385 226.823 165.789 240.506 178.84 C 240.66 179.896 358.216 136.877 366.171 169.626 C 374.126 202.375 257.014 262.214 250.097 257.685 C 262.292 258.707 293.107 372.625 265.844 394.304 C 238.581 415.983 187.429 309.202 177.3 310.111 C 182.128 305.726 85.82 420.035 58.3045 397.787 C 30.789 375.54 119.062 251.584 117.289 252.518 C 116.295 266.049 3.36998 175.687 16.695 142.341 C 30.0201 108.995 151.665 184.915 157.562 173.684 C 140.733 161.981 202.601 68.9799 236.071 68.6824"></path>
</svg>
