<svg version="1.1" id="Layer_1" xmlns="http://www.w3.org/2000/svg" xmlns:xlink="http://www.w3.org/1999/xlink" x="0px" y="0px" width="400px" height="300px" viewBox="0 0 400 300" enable-background="new 0 0 400 300" xml:space="preserve"><defs></defs><path d="M 46.954 114.959 C 35.944 177.957 96.126 266.404 198.4 266.404 C 300.674 266.404 342.615 182.726 342.615 122.19 C 342.615 61.654 366.375 19.504 241.582 21.157 C 116.789 22.81 61.83 29.835 46.954 114.959" class="undeformed-curve" stroke="#bbbbbb" style="fill-opacity: 0; stroke-width: 3px; stroke-dasharray: 10px, 10px;"></path><line x1="46.95399856567383" x2="35.944000244140625" y1="114.95899963378906" y2="177.95700073242188" class="control-point-tangents" stroke="#000000" style="stroke-width: 2px;"></line><line x1="198.39999389648438" x2="96.1259994506836" y1="266.40399169921875" y2="266.40399169921875" class="control-point-tangents" stroke="#000000" style="stroke-width: 2px;"></line><line x1="198.39999389648438" x2="300.67401123046875" y1="266.40399169921875" y2="266.40399169921875" class="control-point-tangents" stroke="#000000" style="stroke-width: 2px;"></line><line x1="342.614990234375" x2="342.614990234375" y1="122.19000244140625" y2="182.7259979248047" class="control-point-tangents" stroke="#000000" style="stroke-width: 2px;"></line><line x1="342.614990234375" x2="342.614990234375" y1="122.19000244140625" y2="61.65399932861328" class="control-point-tangents" stroke="#000000" style="stroke-width: 2px;"></line><line x1="241.58200073242188" x2="366.375" y1="21.156999588012695" y2="19.503999710083008" class="control-point-tangents" stroke="#000000" style="stroke-width: 2px;"></line><line x1="241.58200073242188" x2="116.78900146484375" y1="21.156999588012695" y2="22.809999465942383" class="control-point-tangents" stroke="#000000" style="stroke-width: 2px;"></line><line x1="46.95399856567383" x2="61.83000183105469" y1="114.95899963378906" y2="29.834999084472656" class="control-point-tangents" stroke="#000000" style="stroke-width: 2px;"></line><circle cx="35.944000244140625" cy="177.95700073242188" r="5" class="control-point-inner" fill="#da5555" stroke="#000000" style="stroke-width: 2px;"></circle><circle cx="96.1259994506836" cy="266.40399169921875" r="5" class="control-point-inner" fill="#da5555" stroke="#000000" style="stroke-width: 2px;"></circle><circle cx="300.67401123046875" cy="266.40399169921875" r="5" class="control-point-inner" fill="#da5555" stroke="#000000" style="stroke-width: 2px;"></circle><circle cx="342.614990234375" cy="182.7259979248047" r="5" class="control-point-inner" fill="#da5555" stroke="#000000" style="stroke-width: 2px;"></circle><circle cx="342.614990234375" cy="61.65399932861328" r="5" class="control-point-inner" fill="#da5555" stroke="#000000" style="stroke-width: 2px;"></circle><circle cx="366.375" cy="19.503999710083008" r="5" class="control-point-inner" fill="#da5555" stroke="#000000" style="stroke-width: 2px;"></circle><circle cx="116.78900146484375" cy="22.809999465942383" r="5" class="control-point-inner" fill="#da5555" stroke="#000000" style="stroke-width: 2px;"></circle><circle cx="61.83000183105469" cy="29.834999084472656" r="5" class="control-point-inner" fill="#da5555" stroke="#000000" style="stroke-width: 2px;"></circle><circle cx="46.95399856567383" cy="114.95899963378906" r="10" class="control-point-handle" fill="#5555da" stroke="#000000" style="stroke-width: 2px;"></circle><circle cx="198.39999389648438" cy="266.40399169921875" r="10" class="control-point-handle" fill="#5555da" stroke="#000000" style="stroke-width: 2px;"></circle><circle cx="342.614990234375" cy="122.19000244140625" r="10" class="control-point-handle" fill="#5555da" stroke="#000000" style="stroke-width: 2px;"></circle><circle cx="241.58200073242188" cy="21.156999588012695" r="10" class="control-point-handle" fill="#5555da" stroke="#000000" style="stroke-width: 2px;"></circle></svg>