<!--?xml version="1.0" encoding="utf-8"?-->
<!-- Generator: Adobe Illustrator 17.0.2, SVG Export Plug-In . SVG Version: 6.00 Build 0)  -->

<svg version="1.1" id="Layer_1" xmlns="http://www.w3.org/2000/svg" xmlns:xlink="http://www.w3.org/1999/xlink" x="0px" y="0px" width="792px" height="612px" viewBox="0 0 792 612" enable-background="new 0 0 792 612" xml:space="preserve">
<path fill="#D6D7EC" stroke="#010101" stroke-width="4.6788" stroke-linecap="round" d="M 96.4594 280.113 C 87.4911 275.375 70.1503 282.971 75.3913 292.776 C 92.5265 324.836 158.591 353.597 194.333 345.185 C 274.028 326.429 355.28 207.384 389.433 305.964 C 410.582 367.009 464.123 384.302 513.495 374.03 C 528.794 370.847 539.445 351.599 544.661 345.634 C 547.342 342.568 560.491 326.941 565.442 362.849 C 569.421 391.71 519.83 436.854 494.241 453.585 C 475.65 465.74 446.26 473.982 434.347 474.451 C 394.838 476.004 379.611 449.054 361.386 445.1 C 339.003 440.245 315.083 467.598 295.413 473.792 C 282.109 477.981 265.116 476.156 250.943 476.115 C 219.262 476.022 230.03 449.512 217.429 461.713 C 211.679 467.28 219.186 484.042 232.001 484.642 C 225.825 512.087 258.292 528.119 274.173 530.749 C 315.741 537.631 463.514 564.409 625.75 472.482 C 728.751 414.119 701.915 337.655 640.884 302.77 C 607.474 283.673 561.095 275.941 532.534 247.185 C 482.323 196.633 422.244 86.0153 342.467 46.0953 C 323.341 36.5245 302.248 28.6304 281.68 24.971 C 244.991 18.4432 207.133 24.7388 178.238 49.9213 C 143.473 80.22 126.194 129.26 111.836 171.797 C 100.305 205.959 100.117 241.586 96.4594 280.113"></path>
<path fill="#FFFFFF" stroke="#010101" stroke-width="4.6788" stroke-linecap="round" d="M 238.705 188.788 C 223.711 199.786 203.988 204.948 185.111 202.297 C 104.013 178.411 172.136 51.1763 231.414 103.604 C 238.786 110.124 252.425 124.878 252.864 134.655 C 253.461 147.973 248.293 181.147 238.705 188.788"></path>
<path fill="#FFFFFF" stroke="#010101" stroke-width="4.6788" stroke-linecap="round" d="M 238.758 188.771 C 255.747 224.057 299.729 218.412 325.431 211.368 C 362.603 201.182 350.672 128.525 303.728 113.362 C 284.193 107.053 266.084 108.763 251.807 124.772 C 237.036 141.334 228.703 167.889 238.758 188.771"></path>
<path fill="#50BFA2" stroke="#010101" stroke-width="4.6788" stroke-linecap="round" d="M 263.11 169.797 C 312.772 211.642 316.82 112.613 263.573 139.639 C 257.322 149.449 251.821 162.488 263.11 169.797"></path>
<path fill="#50BFA2" stroke="#010101" stroke-width="4.6788" stroke-linecap="round" d="M 169.409 162.274 C 183.972 175.501 211.973 162.708 206.158 144.57 C 198.296 120.046 149.635 136.473 169.409 162.274"></path>
<path fill="#7E9ACF" stroke="#010101" stroke-width="4.6788" stroke-linecap="round" d="M 96.2572 281.577 C 94.4728 305.734 165.531 336.819 194.578 320.077 C 264.047 280.036 372.202 205.78 403.97 297.356 C 436.484 391.081 503.995 364.756 520.376 347.984 C 535.929 332.059 528.24 317.274 557.331 320.317 C 605.471 325.352 570.68 418.818 536.574 445.144 C 480.234 488.632 438.127 490.111 400.941 477.885 C 379.577 470.861 377.842 462.71 364.741 458.274 C 344.758 451.508 316.267 479.603 295.399 483.806 C 280.681 486.771 243.434 488.616 228.992 485.062 C 222.216 483.395 210.985 467.466 217.134 461.79 C 230.608 449.353 218.97 476.104 250.924 476.121 C 265.219 476.128 282.068 477.992 295.401 473.795 C 315.114 467.591 338.991 440.249 361.386 445.101 C 379.621 449.051 394.832 476.005 434.349 474.45 C 446.265 473.981 475.65 465.74 494.242 453.584 C 519.83 436.855 569.422 391.71 565.444 362.848 C 560.495 326.94 547.343 342.569 544.663 345.633 C 539.45 351.594 528.795 370.852 513.495 374.034 C 464.125 384.302 410.585 367.001 389.435 305.965 C 355.28 207.399 274.035 326.397 194.333 345.201 C 158.588 353.634 92.5496 324.688 75.3776 292.89 C 70.125 283.164 87.6838 273.972 96.2572 281.577"></path>
</svg>
