<!--?xml version="1.0" encoding="utf-8"?-->
<!-- Generator: Adobe Illustrator 15.0.2, SVG Export Plug-In . SVG Version: 6.00 Build 0)  -->

<svg version="1.1" id="Layer_1" xmlns="http://www.w3.org/2000/svg" xmlns:xlink="http://www.w3.org/1999/xlink" x="0px" y="0px" width="1020px" height="200px" viewBox="0 0 1020 200" enable-background="new 0 0 1020 200" xml:space="preserve">
<path d="M 981.773 75.8711 C 986.845 82.4323 987.291 90.4227 990.933 96.9103 C 982.297 120.269 939.943 101.072 915.588 95.2441 C 909.392 93.7615 902.621 93.6518 895.544 92.0573 C 884.817 89.6404 874.467 84.4241 863.425 81.3229 C 841.595 75.1918 820.056 74.4686 801.665 69.705 C 791.832 67.1578 782.924 62.5054 774.372 61.2078 C 756.944 58.5634 739.34 60.8369 726.689 61.0353 C 719.994 61.1403 715.697 62.0863 711.352 67.1253 C 708.637 70.2741 705.667 75.0279 699.627 77.5301 C 694.168 79.7914 689.492 80.6482 683.926 83.1363 C 678.302 85.6504 672.726 90.5415 666.38 93.0649 C 662.606 94.5658 661.075 95.5387 658.025 99.7997 C 654.574 99.9777 652.246 101.437 651.388 102.956 C 655.911 110.301 655.961 116.837 656.348 123.689 C 656.689 129.738 656.52 136.951 654.863 141.747 C 653.993 144.263 651.799 145.863 651.259 148.095 C 650.134 152.745 651.616 158.66 654.291 162.782 C 652.681 167.315 653.519 172.604 651.45 176.543 C 650.826 177.731 649.598 177.612 648.087 179.301 C 645.481 182.215 644.225 187.691 637.864 187.291 C 636.318 185.971 637.116 183.744 637.248 181.176 C 631.428 182.417 626.234 191.015 617.791 185.813 C 615.857 182.764 621.579 182.852 620.558 179.02 C 615.368 180.716 611.723 186.289 603.731 183.671 C 602.488 180.891 604.552 178.615 605.791 176.874 C 602.072 173.575 604.923 169.13 603.78 164.569 C 601.29 165.148 597.15 164.26 593.847 165.274 C 589.683 166.551 586.05 172.293 581.041 169.9 C 580.118 160.841 587.341 160.047 586.333 151.51 C 594.671 144.525 604.699 141.407 604.357 125.637 C 593.611 126.728 580.621 127.282 568.093 127.643 C 557.952 127.935 547.772 131.619 533.889 131.68 C 524.594 131.721 515.185 129.594 505.408 129.173 C 492.678 128.625 478.802 130.163 465.385 130.319 C 461.86 130.36 458.261 131.767 454.272 131.83 C 442.932 132.011 430.996 129.371 419.493 129.89 C 415.074 134.938 414.236 144.167 410.867 150.978 C 409.474 153.796 406.317 155.328 405.665 158.302 C 405.03 161.2 406.929 164.707 406.336 167.654 C 405.089 173.852 401.602 176.865 395.588 179.581 C 394.427 183.577 393.63 188.182 388.285 188.205 C 385.173 188.93 387.381 184.088 385.653 182.885 C 383.747 185.731 379.21 189.619 375.03 188.173 C 371.215 187.271 375.051 184.079 375.064 181.542 C 369.72 184.275 365.972 192.236 357.141 189.457 C 357.181 185.647 359.837 184.519 359.841 180.839 C 357.969 177.698 360.045 170.397 356.033 168.924 C 352.379 167.943 350.639 171.466 346.789 171.627 C 344.627 171.718 342.672 169.877 340.163 170.276 C 336.183 170.908 334.948 175.447 330.161 175.49 C 323.231 169.647 332.365 162.044 332.936 155.596 C 336.303 152.001 342.321 151.155 347.032 149.081 C 348.781 146.236 348.691 141.642 349.601 138.092 C 348.597 134.025 343.334 135.223 338.945 134.089 C 335.633 133.233 332.745 130.825 329.326 130.555 C 323.82 130.121 316.656 132.364 309.388 132.02 C 295.26 131.35 281.846 126.544 265.358 128.477 C 261.978 128.873 258.47 131.043 254.705 131.519 C 249.201 132.214 243.015 131.994 237.879 131.572 C 233.648 131.224 230.527 128.648 226.681 128.383 C 224.544 128.236 221.559 129.468 218.669 129.7 C 216.397 129.882 213.622 129.761 211.865 130.927 C 206.542 134.459 199.373 141.943 191.811 146.673 C 182.038 152.786 169.88 157.455 159.017 162.649 C 147.052 168.369 135.002 171.215 122.308 172.506 C 112.92 173.461 101.334 177.819 89.197 180.249 C 84.6249 181.164 80.0619 180.969 75.8798 181.716 C 68.179 183.092 55.514 186.823 54.0003 178.141 C 53.5265 175.424 56.6561 172.084 58.222 169.09 C 59.8847 165.911 60.4549 162.777 63.3303 161.166 C 67.6052 162.239 71.6541 166.03 75.6746 164.713 C 80.076 163.27 78.9416 158.113 82.4765 155.055 C 87.5568 154.966 93.389 160.041 98.2126 158.559 C 102.511 157.239 102.666 152.982 105.018 148.898 C 109.469 149.17 113.902 152.856 117.873 151.654 C 122.099 150.374 121.731 146.193 124.954 143.304 C 128.951 143.684 132.125 145.127 135.7 145.801 C 139.397 144.081 140.949 141.024 142.926 138.085 C 150.112 141.016 156.526 139.375 160.704 130.823 C 164.244 131.107 166.861 131.995 169.802 131.58 C 174.175 128.887 172.618 123.446 177.032 122.261 C 182.831 125.812 189.455 121.038 193.423 113.444 C 196.216 113.586 198.112 113.485 200.053 113.067 C 203.181 109.894 203.442 105.707 205.671 103.854 C 208.165 103.876 210.154 103.775 212.112 102.256 C 214.342 100.526 215.604 97.3946 217.571 96.3047 C 220.957 94.4281 223.809 98.2667 226.185 89.5635 C 222.88 80.7667 216.742 77.9493 213.434 80.3721 C 211.421 79.7795 209.364 78.2463 207.519 76.7306 C 204.726 75.8066 204.485 79.2477 201.072 79.1485 C 198.066 78.1331 196.491 75.8537 194.685 73.3128 C 192.495 73.4836 191.082 76.1016 187.926 76.5038 C 184.275 74.742 182.155 71.6254 179.174 68.6667 C 175.809 68.1809 173.679 70.5221 170.312 71.3954 C 166.958 70.1848 166.087 67.0612 163.314 64.8783 C 159.669 65.0418 156.773 66.9709 153.997 69.2636 C 150.763 67.6169 148.286 65.2441 145.576 62.9127 C 141.328 62.5051 139.366 67.5139 135.469 67.2003 C 131.758 66.9018 130.361 62.6795 126.33 61.0147 C 122.444 61.3145 119.703 65.6431 115.515 65.3887 C 111.53 65.1466 109.315 61.8232 105.61 59.7587 C 101.34 60.7761 99.121 64.6946 94.5876 65.4344 C 90.4477 63.4722 88.4047 59.8786 84.3318 57.7419 C 79.0353 57.8892 77.2951 63.0121 73.103 64.7243 C 67.1242 62.843 67.0453 55.8785 61.7443 55.5202 C 57.8406 55.2564 53.3868 62.8471 48.4399 62.8436 C 44.0993 61.5865 46.5424 55.341 46.2498 51.0362 C 46.0833 48.5865 41.5065 46.2701 40.934 42.0893 C 40.6742 40.1918 42.1335 37.4131 42.0819 34.8489 C 41.9984 30.7 39.2769 27.7138 39.4869 25.6659 C 39.8783 21.8483 43.3604 17.3376 45.7604 15.8688 C 47.6747 14.6973 59.3783 12.3686 64.4685 12.7566 C 71.0662 13.2595 76.608 17.5531 84.6604 17.3038 C 87.0092 17.231 89.3101 15.9463 91.665 15.7187 C 93.8203 15.5104 95.7645 16.2981 97.6962 15.9934 C 104.167 14.9724 109.938 11.5204 114.539 11.9141 C 121.873 12.5416 129.004 18.0034 136.492 18.0891 C 141.409 18.1455 145.911 14.9405 151.138 14.5944 C 159.498 14.0408 166.682 18.5994 173.834 18.856 C 176.217 18.9415 178.046 17.482 180.277 17.4139 C 192.319 17.0465 200.929 24.5409 208.178 21.433 C 210.185 20.5726 211.236 17.6906 214.286 16.4006 C 219.875 14.0363 225.855 17.1537 230.201 17.7995 C 231.919 18.0548 233.008 17.1827 234.833 17.24 C 236.321 17.2867 238.092 18.5717 239.316 18.5704 C 245.614 18.5633 250.972 14.9923 258.012 16.4733 C 261.442 17.195 265.195 19.3407 268.402 21.0574 C 273.122 23.5844 275.085 27.6172 281.704 26.6539 C 283.564 26.3831 284.945 25.0347 286.773 24.6216 C 291.567 23.538 297.929 23.4383 303.706 22.3469 C 309.238 21.302 314.998 18.8604 319.274 18.6287 C 321.415 18.5126 322.655 19.4299 324.117 19.1613 C 330.408 18.0056 335.72 13.6247 341.193 19.3323 C 350.135 18.1222 364.809 13.0735 371.997 18.3048 C 382.37 18.998 391.451 13.4764 401.48 14.7181 C 405.755 15.2474 409.567 17.6308 413.544 17.7198 C 417.526 17.8089 421.323 16.2437 425.066 16.7713 C 430.95 17.6008 435.811 22.759 441.016 23.0025 C 443.858 23.1355 445.617 21.8357 448.061 21.4689 C 454.734 20.4669 463.113 19.6586 469.494 19.7434 C 478.219 19.8594 487.094 23.5084 496.305 24.0164 C 506.961 24.604 517.998 23.5955 527.947 24.3903 C 532.469 24.7516 536.103 26.6172 539.904 26.9978 C 547.727 27.7814 555.968 25.4389 563.052 26.1978 C 567.834 26.7101 571.665 29.4944 574.827 29.0803 C 576.762 28.8269 578.273 27.4871 580.083 27.0056 C 584.263 25.8935 588.45 26.1266 591.173 24.7527 C 593.179 23.7403 594.991 21.5996 596.922 21.1617 C 599.952 20.4745 602.425 21.3126 604.445 20.8292 C 610.489 19.3832 614.909 15.6565 620.651 12.316 C 623.417 17.8852 626.955 17.5549 632.086 19.1802 C 637.628 20.9359 642.127 24.781 645.846 15.479 C 651.424 16.5935 654.289 14.2244 658.556 14.1051 C 662.954 13.9822 666.29 15.4215 669.058 15.0216 C 671.393 14.6843 673.658 13.2919 675.946 13.1085 C 678.793 12.8803 680.69 13.5423 682.257 12.7969 C 685.129 11.4313 689.027 8.50649 692.839 8.50295 C 697.386 8.49872 700.214 11.1563 702.437 10.7034 C 708.032 9.56408 715.837 5.64098 725.324 3.87431 C 732.302 2.5748 737.475 1.70221 743.646 2.81354 C 745.004 3.05817 745.356 4.25309 745.622 4.17249 C 747.589 3.57483 750.486 1.64487 752.979 1.78584 C 756.104 1.96261 758.281 3.60405 760.161 3.71535 C 765.292 4.01911 771.756 2.0833 777.552 3.2525 C 783.27 4.40605 786.956 8.62898 791.116 9.65841 C 793.355 10.2123 796.026 9.18668 797.906 9.53677 C 804.83 10.8259 810.346 16.0648 816.219 17.1398 C 818.824 17.6168 821.363 17.0071 823.115 17.4879 C 836.983 21.2947 848.15 29.8179 862.225 32.8651 C 874.536 35.5305 889.846 32.0052 900.201 42.5309 C 907.009 41.2233 915.216 41.9886 921.172 45.6222 C 924.451 47.6228 925.183 50.4754 928.138 52.4377 C 931.448 54.6361 936.304 55.7692 939.889 57.7471 C 943.502 59.7407 947.251 63.2034 949.201 63.864 C 963.839 68.822 974.359 66.2798 981.773 75.8711 M 951.893 97.5674 C 962.477 99.2748 978.511 108.193 984.244 95.8444 C 978.02 85.3975 964.435 83.946 952.495 79.284 C 939.755 74.3095 927.833 66.2782 914.205 60.6046 C 909.653 58.7098 903.673 57.8614 898.021 55.7944 C 893.273 54.0578 888.802 50.7056 883.653 49.1385 C 867.742 44.2956 851.462 42.0326 835.775 38.8616 C 839.028 44.3919 847.143 43.8661 853.019 46.2337 C 859.193 48.7213 866.832 51.0131 867.457 57.113 C 862.277 59.3324 859.052 53.0646 853.111 50.6497 C 844.886 47.3065 833.028 49.0392 826.559 43.3389 C 827.994 38.961 834.602 43.1566 834.743 38.7567 C 804.08 30.238 788.578 13.2929 760.864 15.4997 C 759.097 15.6405 757.904 18.5025 755.392 18.7071 C 746.334 14.0305 735.611 19.1593 725.578 19.8279 C 715.486 20.5003 706.957 18.1225 698.435 21.5094 C 697.322 21.952 695.993 23.2113 694.422 23.5433 C 693.236 23.794 691.913 22.4303 689.942 22.6298 C 685.307 23.0991 681.143 25.325 677.635 24.4682 C 676.699 24.2396 675.609 22.1815 673.793 22.1166 C 669.918 21.9781 664.287 25.1958 658.543 26.5885 C 650.555 28.525 641.96 28.4073 633.901 29.6967 C 627.205 30.7681 618.653 33.1202 610.422 33.5487 C 608.597 33.6437 606.559 32.7503 604.206 33.1212 C 601.898 33.4852 599.294 35.3028 596.438 35.6272 C 592.262 36.1014 588.157 33.4395 582.704 33.369 C 578.083 33.3092 573.564 35.6905 570.221 36.194 C 566.076 36.8184 560.358 35.581 555.009 35.9003 C 553.439 35.994 551.382 36.8533 549.425 36.7656 C 543.853 36.516 537.783 33.5274 531.248 33.0315 C 515.405 31.8293 501.474 34.9337 490.385 30.0765 C 486.277 31.6664 481.452 33.6167 476.624 32.9163 C 474.225 32.5684 471.638 30.1511 468.798 29.7095 C 463.212 28.8406 455.721 30.4895 448.681 29.4223 C 446.603 29.1073 444.655 27.6974 442.234 27.5888 C 433.599 27.2016 424.193 29.4278 414.709 28.272 C 412.166 27.9621 409.386 26.6107 406.426 26.5002 C 402.652 26.3593 398.664 27.6633 394.353 27.4821 C 389.291 27.2694 383.931 25.4409 378.015 25.3188 C 371.802 25.1906 365.188 27.0615 359.367 27.2607 C 356.836 27.3473 354.715 26.2125 351.955 26.1705 C 346.159 26.0824 340.594 28.1463 335.443 28.056 C 327.862 27.9232 323.191 22.699 317.335 22.6172 C 314.045 22.5712 310.303 24.8677 306.555 25.5666 C 296.58 27.4265 284.274 26.7673 279.176 33.2382 C 272.064 27.3224 264.303 18.6132 252.953 19.4571 C 251.129 19.5927 248.145 21.1661 245.263 22.0669 C 242.825 22.829 239.438 23.4394 237.159 24.3318 C 234.796 25.2571 232.583 27.5793 229.932 28.5405 C 223.957 30.7069 215.401 31.2162 209.412 30.1098 C 203.298 28.9807 197.323 25.3543 190.603 23.71 C 184.701 22.2659 178.886 23.3731 174.5 23.1291 C 167.758 22.7542 160.924 19.4896 153.737 19.1864 C 147.868 18.9388 142.15 21.6826 135.972 21.3744 C 129.034 21.0282 122.253 16.5319 115.228 16.0737 C 112.066 15.8675 106.777 17.4593 102.747 18.1456 C 93.1628 19.778 78.8567 23.7481 68.3527 18.086 C 69.4201 21.5185 74.5511 24.7529 74.589 29.8714 C 74.6045 31.959 73.8809 37.5853 69.5832 35.8257 C 73.4005 28.9662 71.5055 21.9701 62.4559 21.2045 C 60.8249 18.0877 56.0522 16.0666 52.2328 17.5616 C 53.0509 21.5966 50.2589 31.3996 43.3243 26.9502 C 44.6735 31.81 45.7543 36.8825 44.7722 43.3671 C 47.514 45.506 48.7046 48.1727 51.9386 49.2392 C 55.9254 50.5539 60.0739 48.6722 64.7627 49.2476 C 70.0589 49.8975 74.9851 52.7659 81.0097 53.171 C 90.2659 53.7932 99.1645 53.1514 107.648 55.3596 C 110.229 56.0314 112.263 57.4289 114.689 57.8304 C 118.458 58.4546 122.249 57.446 126.192 57.6291 C 128.362 57.7299 130.664 58.4955 132.773 58.6651 C 142.626 59.4574 153.008 57.4376 162.221 59.0535 C 175.304 61.3485 186.987 68.0527 197.578 70.5905 C 199.378 71.0219 201.01 70.5361 202.588 70.7982 C 206.761 71.4913 211.629 73.4314 215.637 75.2677 C 220.669 77.5731 227.615 82.1399 229.435 86.9595 C 226.728 102.761 215.194 101.549 206.137 109.4 C 203.668 111.54 201.682 115.412 199.29 117.311 C 197.171 118.993 194.733 119.131 192.436 120.585 C 187.423 123.757 182.665 128.331 177.304 131.223 C 172.556 133.783 167.105 134.681 161.948 136.832 C 153.08 140.531 144.88 146.899 134.953 148.756 C 118.993 151.741 103.997 159.339 88.9786 163.191 C 82.5888 171.11 57.1025 166.581 58.3417 179.264 C 81.808 180.982 106.615 171.54 127.736 169.317 C 134.043 168.653 140.297 166.332 146.525 164.653 C 149.922 163.737 153.831 163.388 156.876 162.036 C 159.877 160.704 162.233 158.298 165.303 156.948 C 169.535 155.088 173.938 154.27 177.762 152.073 C 180.856 150.295 183.513 147.242 186.474 145.516 C 188.106 144.565 190.228 144.078 191.94 143.204 C 200.294 138.941 208.549 128.875 215.706 125.876 C 217.887 124.962 219.346 125.443 221.539 124.398 C 227.746 121.441 233.762 112.256 239.574 110.067 C 248.318 106.774 255.646 108.428 261.165 109.481 C 269.6 111.09 277.043 111.826 285.624 113.248 C 295.626 114.907 305.749 119.863 316.31 117.236 C 315.749 114.489 311.369 112.445 312.165 110.14 C 317.048 111.008 319.155 116.038 322.986 118.306 C 325.305 119.679 328.042 120.143 330.209 121.321 C 337.265 125.156 343.327 130.399 350.035 133.676 C 352.708 134.125 352.894 129.978 355.131 132.258 C 352.64 140.44 353.269 151.987 345.62 155.011 C 337.602 154.004 333.47 159.825 339.535 164.244 C 344.713 168.017 350.937 165.816 357.395 165.628 C 361.925 167.506 363.004 172.518 363.19 178.194 C 365.195 180.08 370.643 179.992 373.091 178.883 C 375.047 175.016 376.893 171.027 375.878 167.586 C 374.765 163.814 370.229 164.115 369.322 159.669 C 377.179 158.279 380.301 166.881 378.412 176.891 C 381.747 177.472 384.349 180.187 387.663 178.236 C 387.945 177.508 388.068 176.76 388.994 176.903 C 390.467 168.831 385.137 163.895 385.117 158.975 C 391.566 161.119 391.748 169.379 392.974 176.247 C 401.409 176.096 403.762 166.708 401.578 158.267 C 407.504 146.673 417.149 135.442 414.277 119.296 C 413.816 117.5 410.23 118.489 409.82 116.072 C 413.336 111.756 407.828 108.642 406.592 104.805 C 397.887 102.773 392.177 97.3359 386.233 92.0026 C 383.534 90.5305 378.166 91.5363 378.08 86.937 C 390.628 90.1673 397.262 99.7483 409.17 103.428 C 411.445 107.059 413.342 110.836 415.596 113.939 C 421.435 114.055 426.47 115.041 431.667 114.945 C 445.057 114.697 460.862 109.372 473.24 108.888 C 478.909 108.667 484.447 110.734 489.629 110.685 C 492.64 110.657 495.153 109.845 497.528 109.922 C 504.413 110.144 511.461 112.408 517.986 113.078 C 522.163 113.506 525.734 113.129 529.248 113.682 C 532.713 114.226 536.092 115.855 539.197 116.301 C 550.165 117.875 560.415 117.437 569.273 118.186 C 566.323 114.446 556.943 117.835 556.187 110.634 C 561.016 111.054 571.39 112.605 573.342 116.673 C 584.886 117.718 592.308 123.21 602.638 117.004 C 604.32 115.241 601.004 108.662 604.227 108.071 C 607.26 107.515 605.499 111.692 605.933 113.36 C 607.616 119.841 608.491 128.006 607.887 136.486 C 604.788 140.601 601.908 145.286 599.062 150.207 C 594.498 149.581 592.618 151.957 590.462 154.283 C 591.358 161.068 597.678 160.842 603.818 159.806 C 607.933 161.701 609.583 167.766 607.827 172.789 C 611.55 173.564 613.786 175.406 617.916 174.908 C 620.116 173.096 622.494 171.669 623.86 169.472 C 625.979 166.735 622.533 158.483 626.136 157.813 C 629.922 160.44 627.852 171.861 625.896 175.631 C 628.738 176.966 631.966 179.143 634.61 177.744 C 636.445 175.412 636.08 173.696 635.152 170.217 C 638.382 168.239 634.226 160.674 637.415 160.602 C 642.447 163.343 638.646 171.375 640.505 175.727 C 654.688 179.195 647.038 160.137 646.916 152.99 C 646.819 147.291 650.238 143.986 651.547 139.666 C 653.805 132.207 654.489 117.187 651.216 107.717 C 649.134 101.692 647.22 92.3513 645.57 86.9367 C 644.504 83.4398 639.361 75.1322 637.092 74.0562 C 634.194 72.6816 628.216 75.4409 623.117 74.2508 C 620.862 73.7245 618.211 69.7527 615.125 68.3079 C 613.411 67.505 610.647 67.7406 608.064 67.1786 C 606.72 66.8863 602.98 67.3297 602.052 63.9096 C 608.432 64.0125 613.593 62.8724 618.187 65.1294 C 620.233 66.1344 621.57 69.4544 623.201 70.0645 C 627.717 71.7538 632.648 69.1812 637.024 69.8071 C 643.605 75.0114 647.36 82.5158 650.055 98.4256 C 653.241 96.3973 654.929 97.0807 658.48 95.3785 C 659.971 94.6638 660.515 92.3569 661.482 91.4974 C 664.72 88.6173 669.128 87.4175 672.712 85.7811 C 677.08 83.7867 680.88 80.902 684.401 79.2355 C 689.567 76.7905 694.411 75.8034 699.532 73.4325 C 704.623 71.0756 708.544 65.9888 712.26 61.7028 C 718.968 53.9674 731.304 55.5955 744.841 56.2423 C 754.457 56.7018 763.682 55.7295 772.078 56.1827 C 781.592 56.6962 790.195 61.607 801.042 64.3495 C 820.946 69.3819 841.285 68.1082 862.556 74.4078 C 874.908 78.0658 886.154 84.1859 898.646 86.8152 C 915.091 90.2764 927.525 95.0992 940.508 96.9073 C 944.977 97.5297 948.592 97.0349 951.893 97.5674 M 957.847 74.4506 C 964.407 74.0533 968.177 80.4981 972.204 77.8732 C 969.87 74.5138 959.186 71.1571 957.847 74.4506 M 911.771 54.5058 C 922.791 58.7706 932.431 67.5069 944.936 68.9752 C 941.332 63.4278 933.708 60.348 924.939 57.7741 C 922.077 47.721 907.123 46.3672 894.937 47.419 C 894.709 43.3457 887.742 44.1227 886.147 40.4523 C 881.105 43.0889 873.242 36.2866 870.136 40.5572 C 876.465 44.5013 881.952 44.7454 889.595 46.6092 C 894.646 47.8408 898.863 51.8644 902.941 53.1339 C 906.088 54.1135 909.411 53.5928 911.771 54.5058 M 839.217 35.9529 C 847.961 37.3837 853.632 37.669 859.336 38.1248 C 840.919 28.5977 813.874 22.7246 797.654 15.6075 C 797.625 15.4321 796.233 15.425 795.864 15.5121 C 797.894 23.0348 806.348 21.5303 811.688 24.2183 C 814.543 25.6559 815.984 28.8474 818.389 29.8306 C 821.13 30.9516 823.864 29.7876 826.325 30.4639 C 831.193 31.8016 835.466 35.339 839.217 35.9529 M 766.65 8.45754 C 767.634 13.4922 775.041 12.468 777.831 10.015 C 775.628 7.41753 770.72 7.9247 766.65 8.45754 M 743.071 11.4907 C 748.124 11.1101 753.836 17.007 759.395 10.0845 C 752.38 7.4372 745.821 8.7919 738.314 8.56375 C 729.878 8.30737 722.33 8.87249 715.353 10.6128 C 710.403 11.8473 704.94 16.0853 700.667 16.0531 C 698.747 16.0387 697.488 13.2918 694.778 12.9875 C 688.946 12.333 681.56 17.7023 677.257 17.4329 C 677.675 18.873 677.407 19.7524 677.647 20.4241 C 681.608 21.5946 686.422 18.9848 690.758 18.9376 C 693.302 18.9099 694.663 19.8599 696.28 19.5979 C 700.247 18.9553 702.406 15.5073 705.309 14.9703 C 714.096 13.345 721.57 15.8518 731.048 14.6026 C 735.149 14.0621 739.721 11.7431 743.071 11.4907 M 642.837 25.5647 C 650.616 24.218 660.175 23.5506 665.98 20.1801 C 662.824 14.4458 652.955 19.0197 645.007 20.8871 C 645.06 23.0944 642.419 22.4737 642.837 25.5647 M 634.402 26.4312 C 637.253 26.209 639.349 29.3293 640.796 24.8377 C 636.63 25.6698 634.525 23.5458 630.966 22.4672 C 629.496 22.0216 626.188 22.6985 624.216 21.7796 C 622.445 20.9544 622.005 17.8453 619.15 17.1437 C 613.836 18.9865 609.105 23.6489 603.708 24.919 C 602.61 25.1773 601.449 23.9441 599.496 24.1689 C 597.891 24.3536 595.429 26.0811 593.124 27.1059 C 591.405 27.8703 589.216 28.566 587.423 30.6664 C 589.688 32.7333 591.9 31.4934 593.994 31.9201 C 594.993 32.1236 594.603 33.0911 595.612 33.1132 C 607.903 33.3824 624.672 27.1897 634.402 26.4312 M 641.983 183.259 C 643.075 182.539 644.259 182.13 643.323 179.856 C 643.655 179.947 641.607 179.928 641.298 179.84 C 641.273 181.669 640.739 182.32 641.983 183.259 M 628.602 180.435 C 627.528 180.127 627.009 178.822 624.584 179.046 C 625.401 181.226 623.733 181.138 623.913 183.133 C 626.968 183.52 628.934 183.008 628.602 180.435 M 608.506 178.262 C 607.636 181.602 613.131 180.859 611.885 178.287 C 612.185 178.376 608.822 178.353 608.506 178.262 M 585.803 165.177 C 588.744 165.326 591.25 162.803 589.832 161.114 C 587.668 159.175 585.606 162.145 585.803 165.177 M 585.072 123.435 C 583.642 120.104 579.372 121.755 576.053 121.903 C 572.541 122.06 567.788 122.811 563.971 122.428 C 562.285 122.259 560.278 121.023 558.013 120.614 C 551.638 119.462 544.272 120.929 537.215 119.642 C 535.024 119.242 532.38 117.549 529.91 117 C 528.412 116.667 526.222 116.831 523.938 116.364 C 517.073 114.958 507.991 113.577 500.141 113.219 C 484.309 112.499 467.848 111.311 453.674 114.516 C 451.196 115.077 448.474 116.891 445.202 117.347 C 434.975 118.769 425.416 116.898 416.872 117.904 C 417.772 121.293 417.89 125.188 419.509 127.218 C 438.871 127.201 458.142 128.833 477.137 128.172 C 486.969 127.83 495.563 125.452 504.106 125.859 C 515.457 126.4 526.728 128.41 537.212 128.335 C 544.601 128.282 551.021 126.115 557.539 125.368 C 567 124.282 576.542 125.225 585.072 123.435 M 523.282 30.3933 C 538.484 29.8413 555.776 35.1837 569.29 31.6714 C 562.079 28.5595 550.397 30.2584 539.237 30.3373 C 534.345 28.3534 527.072 27.5024 520.664 28.4262 C 515.927 25.7672 505.731 26.097 500.238 28.6226 C 507.935 31.7905 516.162 27.7907 523.282 30.3933 M 477.297 30.2699 C 482.352 29.7998 487.028 29.1197 489.073 26.1061 C 477.143 24.9853 465.057 20.9669 452.573 25.3565 C 459.421 28.6324 472.856 24.9278 477.297 30.2699 M 404.587 23.259 C 413.699 23.1647 423.083 27.2893 431.412 24.5872 C 429.359 17.8412 419.572 21.523 412.213 21.0465 C 408.368 20.7975 404.295 18.2433 400.139 18.0419 C 394.246 17.7563 387.499 20.1623 383.058 22.502 C 390.891 23.9926 397.057 23.3369 404.587 23.259 M 389.635 182.892 C 391.581 183.196 392.016 182.066 391.631 180.242 C 390.087 180.123 389.649 181.248 389.635 182.892 M 381.685 183.54 C 382.079 181.898 381.651 180.775 379.708 180.882 C 379.616 182.234 378.466 182.641 378.367 184.199 C 380.433 184.847 380.288 183.362 381.685 183.54 M 362.469 186.157 C 364.659 185.839 366.497 185.227 366.468 182.852 C 364.487 181.083 362.352 183.562 362.469 186.157 M 368.775 22.3449 C 367.159 17.149 351.418 20.5161 348.946 22.2949 C 355.123 24.0668 362.14 23.4009 368.775 22.3449 M 331.517 170.189 C 334.495 170.229 335.675 168.503 336.191 166.23 C 335.097 166.028 335.165 164.406 332.876 164.887 C 332.999 167.143 331.139 167.503 331.517 170.189 M 328.841 20.9606 C 330.267 24.6872 335.654 23.8546 339.818 23.9666 C 339.124 19.9025 333.539 20.9614 328.841 20.9606 M 331.832 126.474 C 329.371 126.175 326.999 123.017 324.062 122.203 C 319.025 120.808 311.258 122.707 304.066 121.646 C 302.347 121.392 300.316 120.35 298.053 119.898 C 286.913 117.673 276.682 115.342 266.483 113.723 C 261.913 112.997 257.247 111.612 253.303 111.509 C 241.668 111.207 233.764 117.728 225.574 125.162 C 232.931 127.978 240.601 129.271 250.524 128.695 C 260.74 128.103 271.324 124.378 281.884 124.667 C 285.883 124.777 290.283 124.836 293.81 125.389 C 298.095 126.062 302.4 128.506 307.058 128.826 C 315.79 129.426 324.398 127.658 331.832 126.474 M 231.514 22.7459 C 222.697 16.6197 212.057 21.3471 208.555 26.5391 C 217.651 27.8732 225.617 26.2636 231.514 22.7459 M 199.081 73.8918 C 200.098 75.9633 203.653 76.7033 204.085 74.5933 C 203.312 73.6754 199.411 72.0306 199.081 73.8918 M 193.176 116.538 C 192.565 119.206 196.242 117.21 195.816 116.344 C 194.958 115.92 194.548 115.691 193.176 116.538 M 183.832 67.9045 C 183.497 70.8195 189.27 75.7383 190.473 71.715 C 189.593 69.7678 185.944 69.4707 183.832 67.9045 M 179.092 126.182 C 179.084 124.816 178.291 124.346 176.848 124.953 C 176.906 125.198 177.323 126.91 177.204 127.055 C 177.246 127.089 179.229 126.222 179.092 126.182 M 166.9 63.045 C 166.386 67.4329 173.374 70.1039 174.975 66.4595 C 174.055 64.4907 168.921 62.725 166.9 63.045 M 161.506 134.847 C 162.057 135.26 164.947 135.461 164.709 133.711 C 163.681 133.366 161.618 132.323 161.506 134.847 M 159.796 61.8559 C 156.966 59.9877 153.017 61.3808 149.796 61.7105 C 150.617 66.8523 159.138 65.6976 159.796 61.8559 M 142.731 143.603 C 144.488 142.914 148.145 143.261 148.431 141.49 C 146.766 141.694 146.144 140.175 144.128 140.542 C 144.295 141.995 142.714 142.302 142.731 143.603 M 139.591 62.4478 C 138.286 60.9594 134.433 61.2216 131.8 60.5338 C 131.666 64.6662 138 65.4933 139.591 62.4478 M 129.689 146.394 C 127.893 147.044 127.437 145.419 125.51 145.921 C 125.789 146.88 125.562 147.491 125.275 148.013 C 126.598 147.414 129.79 147.982 129.689 146.394 M 118.875 61.1888 C 115.415 61.6178 112.723 58.37 110.322 59.8335 C 113.046 62.804 116.03 65.2265 118.875 61.1888 M 105.614 154.91 C 107.138 154.27 110.575 154.805 110.688 153.15 C 108.915 152.89 107.814 151.39 105.574 151.52 C 106.56 153.319 105.068 153.484 105.614 154.91 M 96.9724 63.1172 C 96.6945 59.8136 101.349 60.6716 99.782 58.165 C 96.9877 57.8491 90.7453 54.8231 89.0444 57.811 C 90.6019 60.421 92.3672 62.847 96.9724 63.1172 M 89.5887 159.681 C 88.5624 156.921 81.4723 158.521 83.3499 162.37 C 84.233 162.608 85.0204 162.837 85.5807 163.259 C 88.1861 162.948 89.578 161.776 89.5887 159.681 M 66.8757 52.9533 C 65.6253 59.4224 75.797 64.0751 77.1894 55.9337 C 73.3664 55.2836 71.5439 53.0893 66.8757 52.9533 M 68.1196 167.652 C 67.3173 163.472 60.7484 163.642 62.2561 168.898 C 62.2812 168.987 68.1614 167.736 68.1196 167.652 M 58.7614 53.0159 C 56.4888 51.7556 50.2575 51.2481 48.5776 53.4276 C 49.6111 54.6521 48.4101 57.4798 49.8228 58.3445 C 53.3813 57.3701 57.2945 56.8444 58.7614 53.0159 M 47.8967 23.623 C 49.1237 22.8246 49.4756 20.0306 47.1024 20.1255 C 46.7664 21.7489 46.495 23.3123 47.8967 23.623"></path>
<path fill="#1F9B31" d="M 984.249 95.8468 C 978.517 108.197 962.477 99.2747 951.898 97.5673 C 948.595 97.0343 944.98 97.5337 940.507 96.9123 C 927.524 95.1085 915.092 90.284 898.645 86.8218 C 886.156 84.1929 874.911 78.0744 862.552 74.4133 C 841.286 68.1133 820.952 69.3847 801.04 64.3529 C 790.208 61.6157 781.558 56.6887 772.066 56.1848 C 763.74 55.7428 754.387 56.6908 744.843 56.243 C 731.308 55.6081 718.959 53.9663 712.264 61.7068 C 708.553 65.9974 704.617 71.0766 699.529 73.437 C 694.418 75.8083 689.558 76.7865 684.404 79.2439 C 680.916 80.9071 677.056 83.7942 672.718 85.7811 C 669.126 87.4258 664.723 88.6187 661.481 91.4998 C 660.51 92.3629 659.981 94.6746 658.487 95.3859 C 654.922 97.0835 653.24 96.3978 650.056 98.4295 C 647.353 82.5185 643.6 75.0129 637.025 69.8117 C 632.646 69.1835 627.719 71.757 623.203 70.0675 C 621.573 69.4572 620.224 66.1346 618.191 65.1358 C 613.573 62.8667 608.44 64.0173 602.051 63.9134 C 602.98 67.3341 606.724 66.8904 608.061 67.1809 C 610.668 67.7476 613.388 67.496 615.126 68.3107 C 618.19 69.747 620.875 73.732 623.119 74.2552 C 628.218 75.4443 634.196 72.6836 637.093 74.0594 C 639.361 75.1364 644.501 83.444 645.567 86.9408 C 647.219 92.358 649.135 101.693 651.213 107.717 C 654.481 117.189 653.816 132.213 651.548 139.669 C 650.235 143.986 646.824 147.294 646.917 152.991 C 647.033 160.142 654.689 179.201 640.504 175.728 C 638.646 171.376 642.448 163.344 637.415 160.606 C 634.224 160.677 638.379 168.24 635.151 170.223 C 636.079 173.702 636.445 175.415 634.61 177.747 C 631.968 179.146 628.738 176.971 625.893 175.632 C 627.852 171.867 629.924 160.446 626.133 157.816 C 622.532 158.486 625.981 166.736 623.86 169.475 C 622.494 171.669 620.116 173.097 617.918 174.911 C 613.789 175.411 611.55 173.567 607.827 172.794 C 609.581 167.771 607.93 161.704 603.82 159.811 C 597.678 160.842 591.355 161.071 590.464 154.289 C 592.616 151.963 594.498 149.584 599.062 150.208 C 601.906 145.291 604.79 140.607 607.887 136.486 C 608.49 128.01 607.617 119.842 605.934 113.363 C 605.501 111.695 607.261 107.515 604.229 108.073 C 601.003 108.666 604.321 115.247 602.638 117.009 C 592.309 123.215 584.884 117.721 573.343 116.676 C 571.382 112.603 561.017 111.059 556.185 110.635 C 556.945 117.835 566.325 114.447 569.269 118.188 C 560.408 117.437 550.173 117.881 539.196 116.304 C 536.093 115.858 532.713 114.229 529.246 113.683 C 525.736 113.13 522.162 113.511 517.985 113.081 C 511.459 112.41 504.414 110.151 497.527 109.927 C 495.154 109.85 492.638 110.658 489.63 110.688 C 484.447 110.738 478.909 108.672 473.24 108.894 C 460.865 109.378 445.057 114.695 431.667 114.945 C 426.47 115.042 421.435 114.057 415.595 113.941 C 413.342 110.84 411.446 107.065 409.171 103.429 C 397.267 99.7529 390.624 90.1672 378.082 86.9416 C 378.165 91.5371 383.534 90.5332 386.232 92.0036 C 392.179 97.338 397.886 102.775 406.593 104.807 C 407.83 108.645 413.337 111.761 409.822 116.075 C 410.229 118.492 413.814 117.504 414.278 119.299 C 417.146 135.445 407.503 146.678 401.579 158.273 C 403.76 166.709 401.409 176.099 392.975 176.252 C 391.747 169.379 391.567 161.122 385.116 158.978 C 385.138 163.898 390.468 168.831 388.995 176.906 C 388.07 176.761 387.946 177.514 387.664 178.239 C 384.349 180.19 381.747 177.474 378.413 176.894 C 380.299 166.884 377.177 158.28 369.323 159.674 C 370.229 164.119 374.765 163.818 375.879 167.589 C 376.895 171.029 375.048 175.019 373.092 178.884 C 370.644 179.994 365.196 180.08 363.19 178.197 C 363.004 172.521 361.927 167.507 357.395 165.631 C 350.936 165.817 344.712 168.02 339.534 164.247 C 333.469 159.827 337.601 154.007 345.621 155.014 C 353.27 151.992 352.641 140.44 355.129 132.261 C 352.894 129.983 352.707 134.13 350.033 133.681 C 343.327 130.403 337.265 125.16 330.21 121.325 C 328.043 120.147 325.303 119.681 322.987 118.309 C 319.156 116.041 317.049 111.011 312.164 110.146 C 311.371 112.452 315.748 114.489 316.309 117.239 C 305.743 119.866 295.628 114.91 285.625 113.252 C 277.042 111.829 269.6 111.092 261.164 109.484 C 255.645 108.431 248.318 106.778 239.575 110.07 C 233.761 112.259 227.746 121.443 221.538 124.401 C 219.347 125.445 217.887 124.965 215.706 125.879 C 208.548 128.879 200.295 138.942 191.942 143.207 C 190.228 144.082 188.108 144.57 186.476 145.521 C 183.517 147.244 180.859 150.296 177.762 152.076 C 173.941 154.272 169.538 155.089 165.306 156.949 C 162.236 158.299 159.881 160.708 156.879 162.039 C 153.831 163.391 149.924 163.741 146.526 164.655 C 140.3 166.332 134.047 168.652 127.737 169.317 C 106.616 171.541 81.8086 180.985 58.3423 179.266 C 57.1053 166.585 82.592 171.116 88.979 163.193 C 103.997 159.342 118.996 151.746 134.955 148.759 C 144.883 146.9 153.081 140.537 161.95 136.832 C 167.105 134.679 172.556 133.789 177.306 131.226 C 182.667 128.334 187.426 123.758 192.438 120.587 C 194.737 119.133 197.168 118.989 199.293 117.318 C 201.679 115.442 203.676 111.53 206.135 109.401 C 215.195 101.558 226.728 102.756 229.434 86.9677 C 227.599 82.1916 220.677 77.5563 215.64 75.268 C 211.623 73.4426 206.766 71.4862 202.589 70.8012 C 201.012 70.5426 199.378 71.0233 197.581 70.5927 C 186.987 68.0546 175.307 61.3523 162.221 59.0551 C 153.01 57.4381 142.627 59.4631 132.775 58.6683 C 130.663 58.498 128.361 57.7326 126.191 57.6317 C 122.251 57.4487 118.459 58.457 114.689 57.834 C 112.264 57.4332 110.228 56.0349 107.647 55.363 C 99.1629 53.154 90.2667 53.7952 81.011 53.1751 C 74.9864 52.7714 70.0571 49.9017 64.762 49.2522 C 60.0711 48.6768 55.9258 50.5574 51.9401 49.2425 C 48.7023 48.1744 47.5134 45.51 44.7735 43.3714 C 45.7537 36.8864 44.6718 31.8138 43.3242 26.9512 C 50.2586 31.4015 53.0526 21.5989 52.2345 17.5639 C 56.0534 16.0719 60.8252 18.0919 62.4573 21.2087 C 71.5036 21.9759 73.4001 28.9682 69.5844 35.8309 C 73.883 37.5897 74.6061 31.9633 74.5906 29.8737 C 74.5524 24.7582 69.4217 21.5207 68.3534 18.0882 C 78.8581 23.751 93.1635 19.7816 102.747 18.1483 C 106.779 17.4611 112.066 15.8706 115.231 16.077 C 122.253 16.5348 129.035 21.0318 135.975 21.3775 C 142.15 21.6852 147.868 18.9427 153.737 19.1886 C 160.926 19.4897 167.759 22.7565 174.501 23.1308 C 178.886 23.3742 184.704 22.2661 190.604 23.7123 C 197.324 25.36 203.299 28.9825 209.411 30.1113 C 215.405 31.2182 223.958 30.7083 229.935 28.5428 C 232.591 27.5802 234.789 25.2608 237.16 24.3324 C 239.437 23.4409 242.828 22.8319 245.266 22.0681 C 248.146 21.1661 251.13 19.5945 252.953 19.4592 C 264.304 18.6163 272.066 27.3252 279.179 33.2416 C 284.275 26.7683 296.587 27.4331 306.562 25.5697 C 310.297 24.8719 314.049 22.5724 317.337 22.6184 C 323.195 22.7003 327.861 27.9224 335.443 28.0571 C 340.594 28.1487 346.161 26.0826 351.955 26.1712 C 354.717 26.2135 356.836 27.3487 359.37 27.2619 C 365.185 27.0629 371.806 25.1901 378.017 25.3194 C 383.934 25.4425 389.29 27.2692 394.356 27.4821 C 398.665 27.6632 402.653 26.3614 406.43 26.5003 C 409.387 26.609 412.167 27.9647 414.712 28.2744 C 424.196 29.4281 433.602 27.2063 442.237 27.5908 C 444.659 27.6987 446.603 29.1087 448.683 29.4239 C 455.722 30.4911 463.215 28.8396 468.802 29.7107 C 471.64 30.1534 474.225 32.5695 476.625 32.918 C 481.451 33.6192 486.28 31.6651 490.388 30.0785 C 501.478 34.9361 515.405 31.8288 531.25 33.0318 C 537.782 33.5278 543.859 36.5159 549.428 36.766 C 551.381 36.8537 553.445 35.9946 555.009 35.9013 C 560.37 35.5816 566.07 36.818 570.221 36.1915 C 573.558 35.6878 578.094 33.3112 582.707 33.3693 C 588.158 33.4381 592.265 36.1069 596.438 35.6262 C 599.28 35.2988 601.913 33.4868 604.208 33.1238 C 606.562 32.7515 608.598 33.6454 610.422 33.5506 C 618.655 33.1231 627.207 30.771 633.904 29.6985 C 641.964 28.4074 650.557 28.5283 658.548 26.5903 C 664.291 25.1974 669.919 21.9831 673.798 22.118 C 675.615 22.1812 676.666 24.2329 677.649 24.4714 C 681.104 25.3097 685.32 23.0967 689.949 22.6323 C 691.912 22.4354 693.243 23.7916 694.422 23.544 C 695.999 23.2124 697.321 21.9532 698.44 21.5084 C 706.963 18.1219 715.491 20.4994 725.576 19.8278 C 735.614 19.1592 746.333 14.0322 755.398 18.7062 C 757.9 18.5019 759.111 15.6424 760.867 15.5023 C 788.581 13.2907 804.083 30.2407 834.752 38.7561 C 834.607 43.1593 828.001 38.96 826.559 43.3375 C 833.035 49.0418 844.878 47.3016 853.12 50.6528 C 859.05 53.0638 862.284 59.331 867.456 57.1145 C 866.838 51.017 859.201 48.724 853.026 46.2339 C 847.152 43.8654 839.03 44.3955 835.782 38.8606 C 851.465 42.0329 867.746 44.2957 883.653 49.138 C 888.801 50.7049 893.276 54.0599 898.025 55.7936 C 903.68 57.8584 909.657 58.7119 914.211 60.6073 C 927.837 66.2797 939.759 74.3101 952.502 79.2842 C 964.436 83.9423 978.02 85.3954 984.249 95.8468 M 782.886 33.4136 C 787.328 37.0408 791.481 44.9315 797.167 44.1526 C 794.92 36.5527 789.625 33.1795 784.075 29.3215 C 783.798 31.4015 781.913 31.2559 782.886 33.4136 M 711.274 39.0744 C 711.897 34.3659 709.195 35.2728 707.92 33.7358 C 705.437 30.7429 703.283 27.2651 698.846 27.5198 C 699.032 27.8205 697.743 27.964 697.705 28.8005 C 698.22 30.089 698.176 30.5788 698.241 31.2826 C 703.636 31.1367 707.027 39.9099 711.274 39.0744 M 675.89 38.0447 C 677.28 41.9571 679.285 49.5392 681.498 41.6852 C 676.865 38.1112 677.044 27.2716 669.709 28.6733 C 670.627 29.0018 669.816 31.6198 669.805 31.8863 C 673.4 32.4807 674.742 34.8163 675.89 38.0447 M 640.461 50.0151 C 640.773 45.7472 638.11 47.62 637.135 45.5844 C 634.786 42.0029 631.706 39.2861 628.504 35.7507 C 625.289 36.7741 621.233 34.6617 617.938 36.4326 C 618.458 36.5518 618.243 38.5505 618.07 38.5964 C 621.64 39.6379 624.085 39.6119 626.813 39.0775 C 632.028 41.3957 635.046 51.5106 640.461 50.0151 M 570.259 59.6824 C 571.741 54.0498 566.309 51.1337 564.484 46.6759 C 561.056 45.6119 559.653 41.7435 555.585 40.5183 C 555.974 40.5932 554.461 40.5073 554.442 40.5927 C 554.612 40.6293 554.707 43.2519 554.407 43.2611 C 557.296 45.0332 559.676 46.8987 561.609 48.8975 C 564.542 52.8441 566.612 57.6348 570.259 59.6824 M 521.317 59.0689 C 523.564 59.7456 524.554 61.4532 527.268 61.0234 C 521.327 48.9616 512.094 39.7529 498.252 35.3053 C 498.482 35.3183 498.515 37.9709 498.238 37.9834 C 503.198 40.2245 507.922 42.0093 511.444 45.1113 C 513.054 46.5297 512.939 48.4692 514.103 49.7491 C 515.974 51.8077 519.816 51.4306 519.972 54.4295 C 521.013 55.6765 521.078 57.6008 521.317 59.0689 M 467.438 61.6893 C 468.763 58.9629 465.975 55.0189 467.448 51.0325 C 461.167 44.1207 453.363 38.4282 444.807 33.5234 C 444.126 33.5106 443.616 33.8789 442.869 34.2285 C 442.56 34.3795 442.358 34.8272 442.224 35.5762 C 442.536 37.3085 444.614 36.8655 446.105 36.833 C 451.197 43.3841 460.487 45.5281 464.195 53.0914 C 464.16 55.8537 463.13 62.1127 467.438 61.6893 M 426.661 59.1825 C 427.556 53.559 420.491 50.5406 418.408 45.4269 C 411.855 44.2466 408.948 38.9493 400.611 39.2579 C 397.801 36.1255 394.181 33.5858 387.998 33.6368 C 388.217 33.6742 388.188 36.3098 388.012 36.3228 C 392.643 37.0458 395.854 40.2827 399.989 41.9291 C 401.09 42.3674 402.426 41.6443 403.162 41.8505 C 406.175 42.6942 414.218 46.8584 415.888 48.1399 C 420.407 51.6085 420.754 58.291 426.661 59.1825 M 370.181 60.7079 C 370.679 56.8931 366.647 57.0596 364.652 54.8792 C 361.341 51.2613 359.102 46.2374 354.856 43.2759 C 349.768 39.7269 336.715 35.0796 330.483 34.8475 C 330.685 34.8645 330.628 36.8416 330.495 36.86 C 339.444 40.5484 348.922 42.4811 355.469 47.9198 C 360.647 52.2212 362.928 61.3059 370.181 60.7079 M 313.936 51.2642 C 315.814 53.2592 316.124 56.887 320.478 55.7082 C 319.313 52.7365 316.468 49.1682 313.402 46.608 C 309.11 43.0235 297.96 36.8245 292.286 36.4854 C 291.525 36.44 288.864 35.4468 288.206 37.8721 C 288.377 37.919 288.309 39.2111 288.228 39.234 C 299.473 40.3182 306.121 46.5777 313.936 51.2642 M 273.178 62.7141 C 274.192 59.5101 270.643 58.65 269.354 56.639 C 268.041 54.5887 267.935 52.1622 266.131 50.4274 C 264.072 48.4467 260.626 47.6674 257.651 46.054 C 257.768 46.0788 256.593 45.9763 256.493 45.984 C 256.494 45.9912 256.605 48.6617 256.397 48.7 C 265.25 50.1369 265.744 60.2557 273.178 62.7141 M 263.858 32.8379 C 265.992 32.9902 266.117 34.8788 268.406 34.3683 C 268.155 29.778 257.482 26.1785 253.222 25.4569 C 246.881 24.3829 241.82 26.5132 240.732 31.5024 C 244.003 34.0409 245.513 28.9852 248.989 29.7316 C 250.928 35.5999 260.283 37.7144 263.858 32.8379 M 235.693 58.7217 C 236.321 53.8564 231.252 51.4634 228.963 48.2973 C 227.772 46.6492 227.37 44.2327 225.929 42.7933 C 223.449 40.3165 219.97 39.2111 217.051 36.7522 C 217.231 36.6989 215.943 36.5543 215.967 36.4094 C 215.928 37.56 216.068 38.4937 216.367 39.1512 C 218.354 41.4515 220.744 41.7705 222.467 43.3445 C 227.455 47.9031 229.614 55.7816 235.693 58.7217 M 54.0983 31.3553 C 54.4217 34.5109 61.4682 36.5519 62.6518 32.7103 C 62.7816 28.1316 55.2602 26.0974 54.0983 31.3553"></path>
<path fill="#166D20" d="M 972.204 77.8732 C 968.177 80.4981 964.407 74.055 957.847 74.4506 C 959.186 71.1588 969.875 74.5146 972.204 77.8732"></path>
<path fill="#166D20" d="M 944.936 68.9751 C 932.431 67.5055 922.795 58.769 911.771 54.5044 C 909.412 53.5917 906.088 54.1128 902.941 53.1334 C 898.863 51.8644 894.646 47.843 889.595 46.611 C 881.952 44.7466 876.465 44.5016 870.136 40.5588 C 873.242 36.285 881.105 43.0888 886.146 40.4539 C 887.742 44.1227 894.71 43.3441 894.937 47.4207 C 907.123 46.3672 922.077 47.721 924.94 57.7724 C 933.707 60.3513 941.332 63.4245 944.936 68.9751"></path>
<path fill="#166D20" d="M 859.335 38.1264 C 853.637 37.6692 847.961 37.3846 839.217 35.9541 C 835.466 35.3403 831.193 31.8023 826.33 30.4663 C 823.864 29.789 821.13 30.9549 818.392 29.8326 C 815.984 28.8453 814.547 25.6548 811.688 24.2157 C 806.349 21.5291 797.89 23.0352 795.864 15.5118 C 796.233 15.4253 797.628 15.4324 797.657 15.6079 C 813.874 22.7247 840.919 28.596 859.335 38.1264"></path>
<path d="M 797.167 44.1526 C 791.481 44.9315 787.33 37.0379 782.889 33.414 C 781.912 31.2574 783.801 31.4019 784.078 29.3219 C 789.625 33.1795 794.92 36.5511 797.167 44.1526"></path>
<path fill="#166D20" d="M 777.831 10.015 C 775.041 12.468 767.634 13.4922 766.65 8.45901 C 770.716 7.91973 775.628 7.41899 777.831 10.015"></path>
<path fill="#166D20" d="M 759.395 10.086 C 753.835 17.0044 748.125 11.108 743.072 11.4925 C 739.717 11.7476 735.155 14.0591 731.045 14.6041 C 721.58 15.8593 714.111 13.3511 705.304 14.9696 C 702.407 15.502 700.25 18.9519 696.278 19.6027 C 694.695 19.8619 693.292 18.9147 690.758 18.9407 C 686.422 18.9851 681.605 21.5972 677.647 20.4264 C 677.405 19.7537 677.678 18.8729 677.257 17.4342 C 681.558 17.7015 688.946 12.3318 694.776 12.9889 C 697.504 13.2963 698.718 16.0421 700.686 16.0567 C 704.928 16.0883 710.409 11.843 715.353 10.6126 C 722.333 8.87552 729.864 8.30611 738.316 8.56501 C 745.818 8.7948 752.382 7.43616 759.395 10.086"></path>
<path d="M 707.923 33.7362 C 709.199 35.2726 711.9 34.3638 711.276 39.0746 C 707.029 39.9099 703.636 31.1369 698.238 31.2835 C 698.19 30.5851 698.195 30.0767 697.722 28.8094 C 697.754 27.9707 699.021 27.8142 698.847 27.5213 C 703.284 27.265 705.439 30.743 707.923 33.7362"></path>
<path d="M 681.498 41.6852 C 679.284 49.5393 677.28 41.957 675.892 38.046 C 674.745 34.8162 673.399 32.4809 669.805 31.8862 C 669.816 31.6199 670.628 29.0017 669.709 28.6733 C 677.042 27.2715 676.865 38.1123 681.498 41.6852"></path>
<path fill="#166D20" d="M 665.98 20.1812 C 660.175 23.5494 650.614 24.2169 642.837 25.5669 C 642.416 22.4758 645.06 23.0966 645.007 20.8871 C 652.955 19.0208 662.824 14.4458 665.98 20.1812"></path>
<path d="M 637.135 45.5844 C 638.112 47.619 640.771 45.7483 640.461 50.0162 C 635.046 51.5117 632.031 41.3969 626.815 39.0785 C 624.082 39.6139 621.64 39.6379 618.07 38.5964 C 618.243 38.5505 618.458 36.5529 617.938 36.4336 C 621.236 34.6638 625.289 36.7751 628.504 35.7507 C 631.706 39.2861 634.786 42.0018 637.135 45.5844"></path>
<path fill="#166D20" d="M 640.796 24.8352 C 639.349 29.3313 637.253 26.2077 634.402 26.4306 C 624.674 27.1914 607.903 33.3803 595.612 33.1123 C 594.579 33.0898 595.037 32.1257 593.972 31.9106 C 591.933 31.4987 589.67 32.7319 587.426 30.6657 C 589.214 28.5621 591.407 27.8704 593.126 27.1053 C 595.427 26.0813 597.89 24.3514 599.493 24.1675 C 601.446 23.9434 602.61 25.1773 603.709 24.9189 C 609.106 23.6505 613.832 18.9864 619.151 17.1423 C 621.993 17.8366 622.457 20.9579 624.227 21.7836 C 626.176 22.693 629.503 22.0216 630.965 22.4654 C 634.527 23.5461 636.629 25.6727 640.796 24.8352"></path>
<path fill="#FFFFFF" d="M 643.325 179.856 C 644.261 182.132 643.075 182.536 641.983 183.261 C 640.737 182.32 641.273 181.667 641.298 179.84 C 641.607 179.928 643.657 179.947 643.325 179.856"></path>
<path fill="#FFFFFF" d="M 624.584 179.044 C 627.007 178.82 627.531 180.125 628.604 180.44 C 628.933 183.008 626.971 183.518 623.913 183.135 C 623.732 181.138 625.4 181.225 624.584 179.044"></path>
<path fill="#FFFFFF" d="M 611.885 178.284 C 613.131 180.859 607.634 181.6 608.505 178.259 C 608.822 178.35 612.185 178.373 611.885 178.284"></path>
<path fill="#FFFFFF" d="M 589.832 161.114 C 591.25 162.803 588.746 165.326 585.803 165.177 C 585.606 162.145 587.668 159.175 589.832 161.114"></path>
<path fill="#D8CC5B" d="M 576.053 121.903 C 579.372 121.755 583.642 120.104 585.072 123.435 C 576.542 125.225 567 124.284 557.539 125.368 C 551.021 126.115 544.601 128.282 537.212 128.335 C 526.728 128.41 515.457 126.4 504.106 125.859 C 495.563 125.451 486.969 127.83 477.137 128.172 C 458.142 128.833 438.871 127.201 419.509 127.218 C 417.89 125.187 417.772 121.294 416.872 117.906 C 425.416 116.897 434.975 118.77 445.202 117.348 C 448.474 116.893 451.196 115.077 453.674 114.516 C 467.848 111.311 484.309 112.499 500.141 113.219 C 507.991 113.577 517.073 114.962 523.938 116.366 C 526.222 116.833 528.412 116.665 529.91 116.998 C 532.38 117.547 535.024 119.244 537.215 119.643 C 544.271 120.929 551.638 119.461 558.013 120.614 C 560.278 121.023 562.285 122.259 563.971 122.428 C 567.788 122.811 572.541 122.06 576.053 121.903"></path>
<path d="M 564.484 46.6759 C 566.309 51.1347 571.739 54.0468 570.259 59.6824 C 566.612 57.6328 564.542 52.8441 561.607 48.8975 C 559.678 46.8985 557.293 45.0324 554.407 43.2592 C 554.707 43.2498 554.612 40.6274 554.442 40.5907 C 554.461 40.5055 555.974 40.5911 555.585 40.5163 C 559.654 41.7445 561.057 45.6129 564.484 46.6759"></path>
<path fill="#166D20" d="M 569.288 31.6724 C 555.776 35.1846 538.484 29.8415 523.282 30.3942 C 516.163 27.7925 507.937 31.7908 500.24 28.6234 C 505.73 26.0984 515.929 25.768 520.664 28.4272 C 527.072 27.5043 534.345 28.3575 539.237 30.3383 C 550.399 30.2584 562.082 28.5595 569.288 31.6724"></path>
<path d="M 527.265 61.0243 C 524.551 61.4513 523.562 59.7436 521.317 59.0669 C 521.081 57.5998 521.015 55.6745 519.975 54.4306 C 519.815 51.4313 515.977 51.8077 514.105 49.7501 C 512.938 48.4684 513.054 46.5286 511.444 45.111 C 507.922 42.0091 503.197 40.2254 498.239 37.9852 C 498.516 37.9732 498.483 35.3191 498.253 35.3063 C 512.095 39.7528 521.324 48.9628 527.265 61.0243"></path>
<path fill="#166D20" d="M 489.073 26.1051 C 487.028 29.1207 482.352 29.7988 477.297 30.2709 C 472.856 24.9268 459.421 28.6324 452.573 25.3545 C 465.057 20.9689 477.143 24.9863 489.073 26.1051"></path>
<path d="M 467.449 51.0315 C 465.976 55.0159 468.764 58.964 467.439 61.6893 C 463.131 62.1117 464.162 55.8537 464.196 53.0894 C 460.488 45.5261 451.197 43.3811 446.106 36.831 C 444.614 36.8655 442.537 37.3075 442.225 35.5762 C 442.358 34.8232 442.561 34.3775 442.868 34.2265 C 443.614 33.8779 444.127 33.5096 444.807 33.5194 C 453.362 38.4272 461.166 44.1217 467.449 51.0315"></path>
<path d="M 418.409 45.4249 C 420.49 50.5405 427.557 53.5611 426.662 59.1814 C 420.755 58.2895 420.408 51.6089 415.888 48.1382 C 414.219 46.8568 406.173 42.6936 403.162 41.8484 C 402.423 41.6409 401.091 42.3669 399.989 41.9277 C 395.854 40.2807 392.64 37.0445 388.012 36.3236 C 388.187 36.311 388.217 33.674 387.998 33.6368 C 394.181 33.5838 397.801 36.1235 400.611 39.2579 C 408.948 38.9493 411.854 44.2476 418.409 45.4249"></path>
<path fill="#166D20" d="M 431.411 24.5861 C 423.084 27.2895 413.7 23.1665 404.587 23.2591 C 397.059 23.3356 390.891 23.9928 383.058 22.501 C 387.499 20.1622 394.245 17.7565 400.138 18.0428 C 404.295 18.2448 408.367 20.796 412.212 21.0457 C 419.574 21.5237 429.358 17.8424 431.411 24.5861"></path>
<path fill="#FFFFFF" d="M 391.632 180.242 C 392.016 182.066 391.582 183.199 389.635 182.892 C 389.649 181.248 390.089 180.123 391.632 180.242"></path>
<path fill="#FFFFFF" d="M 379.706 180.882 C 381.65 180.775 382.079 181.898 381.685 183.545 C 380.288 183.363 380.433 184.847 378.369 184.199 C 378.467 182.641 379.615 182.235 379.706 180.882"></path>
<path d="M 364.652 54.88 C 366.646 57.0592 370.681 56.8896 370.181 60.708 C 362.928 61.3045 360.646 52.2217 355.469 47.9206 C 348.921 42.4815 339.444 40.5481 330.492 36.857 C 330.625 36.8385 330.682 34.8636 330.48 34.8464 C 336.714 35.0788 349.77 39.7257 354.856 43.275 C 359.101 46.237 361.34 51.2618 364.652 54.88"></path>
<path fill="#FFFFFF" d="M 366.467 182.852 C 366.499 185.229 364.66 185.839 362.469 186.159 C 362.353 183.56 364.486 181.084 366.467 182.852"></path>
<path fill="#166D20" d="M 348.947 22.2949 C 351.419 20.5161 367.16 17.149 368.773 22.3448 C 362.14 23.4019 355.121 24.0668 348.947 22.2949"></path>
<path fill="#FFFFFF" d="M 336.19 166.23 C 335.674 168.507 334.494 170.229 331.518 170.189 C 331.14 167.503 333.002 167.143 332.876 164.885 C 335.167 164.406 335.095 166.028 336.19 166.23"></path>
<path fill="#166D20" d="M 339.817 23.9666 C 335.654 23.8545 330.268 24.6873 328.841 20.9606 C 333.542 20.9614 339.123 19.9026 339.817 23.9666"></path>
<path fill="#D8CC5B" d="M 324.06 122.205 C 327.001 123.018 329.375 126.176 331.832 126.474 C 324.4 127.658 315.791 129.426 307.056 128.826 C 302.4 128.506 298.095 126.063 293.81 125.39 C 290.28 124.837 285.883 124.777 281.884 124.667 C 271.323 124.377 260.74 128.105 250.524 128.696 C 240.601 129.27 232.93 127.976 225.573 125.162 C 233.764 117.728 241.667 111.205 253.303 111.508 C 257.247 111.611 261.913 112.999 266.482 113.724 C 276.681 115.343 286.914 117.672 298.053 119.899 C 300.318 120.352 302.349 121.391 304.066 121.644 C 311.256 122.703 319.028 120.813 324.06 122.205"></path>
<path d="M 320.479 55.7082 C 316.124 56.8869 315.815 53.2602 313.937 51.2613 C 306.122 46.5778 299.473 40.3152 288.227 39.2329 C 288.309 39.2095 288.376 37.9163 288.205 37.8691 C 288.865 35.4448 291.525 36.4391 292.286 36.4845 C 297.96 36.8234 309.111 43.0256 313.403 46.6079 C 316.467 49.1654 319.312 52.7363 320.479 55.7082"></path>
<path d="M 269.355 56.6389 C 270.639 58.6484 274.195 59.5098 273.177 62.7141 C 265.747 60.2555 265.248 50.1372 256.399 48.6991 C 256.607 48.6608 256.496 45.9924 256.495 45.9851 C 256.595 45.9773 257.766 46.0797 257.649 46.055 C 260.626 47.666 264.073 48.4473 266.13 50.4261 C 267.933 52.1601 268.044 54.5867 269.355 56.6389"></path>
<path d="M 268.408 34.3696 C 266.116 34.8796 265.992 32.9893 263.858 32.839 C 260.283 37.7144 250.93 35.6 248.99 29.7327 C 245.514 28.9836 244.004 34.0418 240.734 31.5035 C 241.816 26.5157 246.894 24.3845 253.222 25.4578 C 257.483 26.1803 268.154 29.7773 268.408 34.3696 M 254.203 29.5414 C 253.87 32.0807 258.225 33.7193 258.739 31.2176 C 257.568 30.3971 256.525 29.3617 254.203 29.5414"></path>
<path fill="#9CDBF2" d="M 258.738 31.2174 C 258.228 33.719 253.865 32.0816 254.207 29.5397 C 256.531 29.3607 257.56 30.398 258.738 31.2174"></path>
<path d="M 228.962 48.2962 C 231.252 51.4624 236.323 53.8577 235.693 58.7206 C 229.614 55.7841 227.454 47.9033 222.466 43.344 C 220.746 41.771 218.352 41.4507 216.367 39.1499 C 216.067 38.4951 215.927 37.5587 215.966 36.4103 C 215.942 36.5552 217.231 36.6999 217.051 36.7532 C 219.97 39.21 223.448 40.3156 225.929 42.7923 C 227.371 44.2319 227.772 46.6502 228.962 48.2962"></path>
<path fill="#1F9B31" d="M 208.555 26.5401 C 212.057 21.3471 222.696 16.6206 231.514 22.7469 C 225.616 26.2645 217.65 27.8731 208.555 26.5401"></path>
<path fill="#FFFFFF" d="M 204.085 74.5943 C 203.651 76.7041 200.096 75.9621 199.081 73.8927 C 199.411 72.0296 203.312 73.6764 204.085 74.5943"></path>
<path fill="#FFFFFF" d="M 195.816 116.343 C 196.241 117.211 192.564 119.207 193.177 116.538 C 194.548 115.691 194.958 115.92 195.816 116.343"></path>
<path fill="#FFFFFF" d="M 190.473 71.716 C 189.27 75.7363 183.497 70.8205 183.833 67.9026 C 185.944 69.4717 189.593 69.7698 190.473 71.716"></path>
<path fill="#FFFFFF" d="M 176.848 124.953 C 178.292 124.346 179.086 124.816 179.094 126.181 C 179.231 126.222 177.246 127.089 177.205 127.055 C 177.323 126.91 176.906 125.198 176.848 124.953"></path>
<path fill="#FFFFFF" d="M 174.975 66.4605 C 173.373 70.1047 166.385 67.4337 166.901 63.0441 C 168.921 62.7261 174.056 64.4928 174.975 66.4605"></path>
<path fill="#FFFFFF" d="M 164.71 133.71 C 164.948 135.462 162.058 135.26 161.507 134.847 C 161.618 132.325 163.679 133.365 164.71 133.71"></path>
<path fill="#FFFFFF" d="M 149.797 61.7116 C 153.015 61.3815 156.967 59.9857 159.797 61.857 C 159.138 65.6996 150.618 66.8535 149.797 61.7116"></path>
<path fill="#FFFFFF" d="M 148.432 141.491 C 148.143 143.26 144.489 142.913 142.73 143.604 C 142.713 142.302 144.298 141.997 144.129 140.541 C 146.143 140.174 146.767 141.695 148.432 141.491"></path>
<path fill="#FFFFFF" d="M 131.8 60.5348 C 134.433 61.2206 138.287 60.9574 139.589 62.4485 C 138 65.4943 131.666 64.6662 131.8 60.5348"></path>
<path fill="#FFFFFF" d="M 125.509 145.92 C 127.437 145.42 127.893 147.043 129.689 146.395 C 129.79 147.981 126.598 147.414 125.275 148.014 C 125.561 147.493 125.788 146.879 125.509 145.92"></path>
<path fill="#FFFFFF" d="M 110.322 59.8335 C 112.723 58.37 115.417 61.6181 118.875 61.1888 C 116.033 65.2269 113.045 62.8039 110.322 59.8335"></path>
<path fill="#FFFFFF" d="M 110.689 153.15 C 110.575 154.805 107.14 154.271 105.614 154.91 C 105.068 153.484 106.56 153.318 105.577 151.521 C 107.815 151.388 108.915 152.891 110.689 153.15"></path>
<path fill="#FFFFFF" d="M 99.7829 58.1652 C 101.35 60.6717 96.6965 59.8139 96.9744 63.1175 C 92.3682 62.8472 90.6039 60.4213 89.0454 57.8111 C 90.7444 54.8229 96.9887 57.8492 99.7829 58.1652"></path>
<path fill="#FFFFFF" d="M 83.3499 162.37 C 81.4723 158.521 88.5624 156.921 89.5887 159.681 C 89.578 161.776 88.1861 162.948 85.5807 163.259 C 85.0194 162.837 84.233 162.608 83.3499 162.37"></path>
<path fill="#FFFFFF" d="M 77.1894 55.9337 C 75.796 64.0749 65.624 59.4242 66.8757 52.9533 C 71.5436 53.0913 73.3664 55.2836 77.1894 55.9337"></path>
<path fill="#FFFFFF" d="M 62.2551 168.898 C 60.7504 163.641 67.317 163.471 68.1206 167.652 C 68.1624 167.736 62.2802 168.987 62.2551 168.898"></path>
<path fill="#166D20" d="M 60.2303 30.9771 C 60.6166 33.079 58.6056 31.9289 57.389 31.8763 C 57.7561 30.7596 58.7919 30.5686 60.2303 30.9771"></path>
<path fill="#FFFFFF" d="M 48.5787 53.4268 C 50.2584 51.2493 56.4906 51.7569 58.7624 53.016 C 57.2955 56.8446 53.3813 57.3701 49.8214 58.3473 C 48.4098 57.4818 49.6103 54.651 48.5787 53.4268"></path>
<path d="M 62.6527 32.7105 C 61.4692 36.552 54.4217 34.5109 54.0983 31.3553 C 55.2612 26.0976 62.7826 28.1318 62.6527 32.7105 M 57.388 31.8761 C 58.6056 31.9289 60.6166 33.079 60.2293 30.977 C 58.793 30.5678 57.757 30.7597 57.388 31.8761"></path>
<path fill="#166D20" d="M 47.1024 20.1255 C 49.4774 20.0319 49.1266 22.825 47.8967 23.623 C 46.496 23.3125 46.7672 21.7501 47.1024 20.1255"></path>
</svg>
