<!--?xml version="1.0" encoding="utf-8"?-->
<!-- Generator: Adobe Illustrator 15.0.2, SVG Export Plug-In . SVG Version: 6.00 Build 0)  -->

<svg version="1.1" id="Layer_1" xmlns="http://www.w3.org/2000/svg" xmlns:xlink="http://www.w3.org/1999/xlink" x="0px" y="0px" width="400px" height="300px" viewBox="0 0 400 300" enable-background="new 0 0 400 300" xml:space="preserve">
<path fill="none" stroke="#231F20" stroke-width="6" stroke-miterlimit="10" d="M 61.7274 93.0523 C 32.5892 122.567 -14.3092 281.208 187.224 292.195 C 372.257 302.283 366.297 136.449 341.405 103.918 C 287.466 33.4282 233.78 61.1074 196.234 110.04 C 192.705 114.639 126.48 27.4631 61.7274 93.0523"></path>
<g>
	<g>
		<g>
			<g>
				<path fill="none" stroke="#00DF22" stroke-width="6" stroke-miterlimit="10" d="M 111.512 171.604 C 112.124 169.577 112.866 167.489 113.917 165.77"></path>
				<path fill="none" stroke="#00DF22" stroke-width="6" stroke-miterlimit="10" stroke-dasharray="13.033,13.033" d="M 124.453 161.874 C 136.745 155.187 152.593 181.99 184.091 183.504 C 235.179 185.96 256.806 143.736 266.79 166.69"></path>
				<path fill="none" stroke="#00DF22" stroke-width="6" stroke-miterlimit="10" d="M 270.069 169.73 C 270.989 171.524 271.676 173.498 272.101 175.607"></path>
			</g>
		</g>
	</g>
</g>
</svg>
