<!--?xml version="1.0" encoding="utf-8"?-->
<!-- Generator: Adobe Illustrator 15.0.2, SVG Export Plug-In . SVG Version: 6.00 Build 0)  -->

<svg version="1.1" id="Layer_1" xmlns="http://www.w3.org/2000/svg" xmlns:xlink="http://www.w3.org/1999/xlink" x="0px" y="0px" width="400px" height="300px" viewBox="0 0 400 300" enable-background="new 0 0 400 300" xml:space="preserve">
<path fill="none" stroke="#231F20" stroke-width="6" stroke-miterlimit="10" d="M 77.88 76.093 C 19.5566 121.127 9.72235 285.144 232.643 240.624 C 455.564 196.105 358.247 57.1261 288.85 62.9006 C 222.047 68.4591 199.185 204.309 221.918 178.019 C 244.652 151.729 134.023 32.7426 77.88 76.093"></path>
<g>
	<g>
		<g>
			<g>
				<path fill="none" stroke="#00DF22" stroke-width="6" stroke-miterlimit="10" d="M 124.291 171.464 C 124.861 169.594 125.518 167.718 126.81 166.338"></path>
				<path fill="none" stroke="#00DF22" stroke-width="6" stroke-miterlimit="10" stroke-dasharray="13.033,13.033" d="M 141.928 166.753 C 155.346 160.919 188.261 202.142 226.457 210.119 C 286.392 222.636 277.241 156.954 298.28 169.513"></path>
				<path fill="none" stroke="#00DF22" stroke-width="6" stroke-miterlimit="10" d="M 301.825 166.218 C 303.359 166.415 304.735 166.748 305.88 167.2"></path>
			</g>
		</g>
	</g>
</g>
</svg>
