<!--?xml version="1.0" encoding="utf-8"?-->
<!-- Generator: Adobe Illustrator 15.0.2, SVG Export Plug-In . SVG Version: 6.00 Build 0)  -->

<svg version="1.1" id="Layer_1" xmlns="http://www.w3.org/2000/svg" xmlns:xlink="http://www.w3.org/1999/xlink" x="0px" y="0px" width="570.833px" height="418.833px" viewBox="0 0 570.833 418.833" enable-background="new 0 0 570.833 418.833" xml:space="preserve">
<path fill="#F2A548" stroke="#010101" stroke-width="2" d="M 420.373 392.15 C 422.043 385.48 431.043 388.11 431.043 388.11 C 431.043 388.11 431.435 388.12 431.435 388.12 C 430.955 388.63 430.293 389.35 429.214 390.44 C 424.025 395.631 426.373 398.11 426.373 398.11 C 426.373 398.11 424.255 398.52 424.255 398.52 C 424.254 398.521 418.703 398.811 420.373 392.15"></path>
<path fill="#DA8327" stroke="#010101" stroke-width="2" d="M 378.043 385.101 C 373.043 390.271 375.873 393.771 375.873 393.771 C 368.623 397.271 370.873 388.521 370.873 388.521 C 371.874 384.521 378.043 385.101 378.043 385.101"></path>
<path fill="#F2A548" stroke="#010101" stroke-width="2" d="M 287.374 382.78 C 285.374 385.44 282.044 393.11 282.044 393.11 C 282.044 393.11 279.044 393.44 277.704 392.78 C 276.374 392.11 278.044 388.78 278.044 388.78 C 280.704 383.11 287.374 382.78 287.374 382.78"></path>
<path fill="#DA8327" stroke="#010101" stroke-width="2" d="M 243.654 381.721 C 242.754 384.061 240.774 390.039 243.704 391.111 C 236.294 394.952 236.874 386.521 236.874 386.521 C 236.874 380.491 242.473 381.44 243.654 381.721"></path>
<path fill="#F2A548" stroke="#010101" stroke-width="2" d="M 216.813 264.351 C 217.752 259 224.703 249.441 224.703 249.441 C 224.703 249.441 230.043 245.441 227.373 242.771 C 224.703 240.111 226.373 238.111 226.373 238.111 C 226.373 238.111 228.703 237.441 232.703 230.441 C 235.453 225.631 238.523 223.571 240.163 222.751 C 240.182 222.751 240.193 222.741 240.203 222.731 C 240.483 222.601 240.763 222.481 241.043 222.372 C 241.083 222.361 241.133 222.351 241.163 222.331 C 245.033 220.872 248.373 221.441 248.373 221.441 C 246.063 226.691 245.073 228.241 244.663 228.661 C 244.663 228.661 260.703 222.771 260.703 222.771 C 262.703 228.771 261.043 236.111 261.043 236.111 C 264.703 231.771 270.703 224.441 270.703 224.441 C 272.043 227.771 269.703 239.111 269.703 239.111 C 276.043 236.771 278.703 229.441 278.703 229.441 C 282.043 224.771 287.373 226.441 287.373 226.441 C 289.043 229.111 288.703 234.111 288.703 234.111 C 290.373 248.441 274.043 247.441 274.043 247.441 C 288.373 259.441 285.373 270.771 285.373 270.771 C 281.493 265.611 276.684 261.691 276.383 261.452 C 281.043 273.441 276.373 282.441 276.373 282.441 C 255.703 271.441 251.703 288.771 251.703 288.771 C 244.373 295.111 243.043 295.111 243.043 295.111 C 231.993 296.901 228.973 291.202 228.453 289.991 C 228.493 290.191 228.523 290.481 228.373 290.771 C 227.932 291.67 228.043 283.441 228.703 280.441 C 229.373 277.441 227.373 275.441 227.373 275.441 C 223.703 276.111 216.703 265.441 216.703 265.441 C 216.703 265.231 216.713 265.01 216.743 264.782 C 216.743 264.782 216.813 264.351 216.813 264.351"></path>
<path fill="#F2A548" stroke="#010101" stroke-width="2" d="M 244.374 228.771 C 244.374 228.771 244.414 228.901 244.654 228.67 C 244.654 228.67 244.374 228.771 244.374 228.771"></path>
<path fill="#72CCD3" stroke="#010101" stroke-width="2" d="M 247.298 245.69 C 247.298 245.69 245.118 247.68 239.998 249.299 C 239.998 249.299 239.958 249.19 239.958 249.19 C 239.818 245.379 241.764 243.07 242.368 242.461 C 244.473 243.391 246.433 244.701 247.473 245.44 C 247.473 245.44 247.298 245.69 247.298 245.69"></path>
<path fill="#8D2222" stroke="#010101" stroke-width="2" d="M 279.051 201.774 C 279.051 201.774 271.082 206.104 267.072 209.764 C 267.693 209.294 285.582 196.154 315.051 217.444 C 315.051 217.444 322.54 222.644 333.26 232.904 C 336.102 235.614 339.17 238.684 342.381 242.114 C 342.381 242.114 346.711 247.114 346.711 247.114 C 346.711 247.114 335.467 245.184 326.859 239.444 C 329.351 241.206 340.58 249.965 336.711 262.444 C 336.711 262.444 326.229 250.974 325.399 248.184 C 325.747 249.734 331.747 277.274 315.715 288.444 C 315.715 288.444 314.875 275.444 309.045 273.774 C 309.045 273.774 301.705 302.114 304.375 311.444 C 304.375 311.444 309.637 318.62 314.437 323.382 C 314.437 323.382 314.375 323.444 314.375 323.444 C 308.815 325.814 303.795 325.864 299.646 324.958 C 292.097 323.298 287.375 318.444 287.375 318.444 C 287.045 327.774 290.045 330.444 290.045 330.444 C 277.435 327.62 268.806 317.991 264.316 311.632 C 261.924 308.241 260.714 305.78 260.714 305.78 C 259.044 313.11 258.714 323.44 258.714 323.44 C 248.044 314.77 251.704 288.77 251.704 288.77 C 251.704 288.77 255.704 271.44 276.374 282.44 C 276.374 282.44 281.044 273.44 276.384 261.452 C 276.685 261.69 281.494 265.61 285.374 270.77 C 285.374 270.77 288.374 259.44 274.044 247.44 C 274.044 247.44 290.374 248.44 288.704 234.11 C 288.704 234.11 289.045 229.11 287.374 226.44 C 287.374 226.44 282.044 224.77 278.704 229.44 C 278.704 229.44 276.044 236.77 269.704 239.11 C 269.704 239.11 272.044 227.77 270.704 224.44 C 270.704 224.44 264.704 231.77 261.044 236.11 C 261.044 236.11 262.704 228.77 260.704 222.77 C 260.704 222.77 244.664 228.661 244.664 228.661 C 245.074 228.241 246.064 226.69 248.374 221.44 C 248.374 221.44 245.034 220.87 241.164 222.331 C 241.134 222.351 241.084 222.36 241.044 222.37 C 240.764 222.48 240.484 222.6 240.204 222.73 C 240.194 222.741 240.183 222.751 240.164 222.751 C 239.234 223.171 238.294 223.73 237.374 224.44 C 237.374 224.44 237.044 219.11 243.044 209.61 C 243.044 209.61 251.374 199.77 259.704 200.44 C 259.704 200.44 256.063 207.08 253.392 212.73 C 253.954 211.86 264.764 195.291 279.051 201.774"></path>
<path fill="#DA8327" stroke="#010101" stroke-width="2" d="M 244.045 380.769 C 244.045 380.769 248.045 381.769 248.045 381.769 C 258.575 373.405 269.095 338.868 270.535 334.008 C 266.335 329.929 263.905 313.897 264.315 311.625 C 268.803 317.99 277.434 327.619 290.044 330.437 C 290.044 330.437 287.044 327.767 287.374 318.437 C 287.374 318.437 292.095 323.291 299.644 324.951 C 298.714 327.347 292.374 338.107 292.374 338.107 C 275.044 364.437 287.704 363.777 280.044 372.777 C 273.185 380.832 265.004 387.541 263.344 388.881 C 251.784 395.051 243.704 391.11 243.704 391.11 C 240.774 390.041 242.754 384.06 243.654 381.72 C 243.884 381.129 244.043 380.771 244.045 380.769"></path>
<path fill="#F2A548" stroke="#010101" stroke-width="2" d="M 339.04 334.437 C 339.04 334.437 330.37 361.452 327.7 365.777 C 327.7 365.777 316.04 388.452 310.37 387.777 C 310.37 387.777 308.7 393.437 302.7 394.437 C 302.7 394.437 296.7 394.107 296.7 394.107 C 290.7 397.107 282.04 393.107 282.04 393.107 C 282.04 393.107 285.37 385.437 287.37 382.777 C 289.37 380.107 293.04 382.777 293.04 382.777 C 311.686 374.557 315.95 329.753 316.33 325.161 C 315.71 324.632 315.074 324.027 314.433 323.382 C 309.63 318.622 304.371 311.443 304.371 311.443 C 301.701 302.113 309.041 273.773 309.041 273.773 C 314.871 275.443 315.711 288.443 315.711 288.443 C 331.745 277.273 325.745 249.733 325.396 248.183 C 326.226 250.973 336.707 262.443 336.707 262.443 C 340.577 249.964 329.344 241.205 326.857 239.443 C 335.466 245.183 346.707 247.113 346.707 247.113 C 346.707 247.113 342.377 242.113 342.377 242.113 C 339.167 238.683 336.098 235.613 333.258 232.903 C 333.258 232.903 333.377 232.773 333.377 232.773 C 333.377 232.773 348.707 237.113 366.707 247.443 C 366.707 247.443 374.037 250.443 395.037 245.773 C 395.037 245.773 424.706 234.103 448.706 251.773 C 448.706 251.773 473.376 271.773 483.706 304.113 C 483.706 304.113 492.456 341.834 518.855 326.693 C 521.605 325.103 524.556 322.953 527.707 320.113 C 527.707 320.113 526.707 326.843 521.906 331.473 C 521.157 332.193 520.316 332.853 519.376 333.443 C 512.376 337.773 501.376 340.773 493.036 335.773 C 484.706 330.773 477.706 318.773 476.706 314.773 C 475.706 310.773 464.717 288.603 456.876 280.773 C 456.876 280.773 456.706 329.783 458.376 339.453 C 458.376 339.453 470.706 343.453 470.036 349.113 C 470.036 349.113 471.036 375.113 446.036 398.113 C 446.036 398.113 441.036 402.113 435.706 398.783 C 430.706 401.453 426.376 398.113 426.376 398.113 C 426.376 398.113 424.025 395.633 429.217 390.443 C 430.296 389.353 430.956 388.634 431.438 388.123 C 432.909 386.603 432.876 387.113 438.376 386.103 C 445.717 384.773 448.046 363.113 448.046 363.113 C 452.376 347.453 443.046 349.113 443.046 349.113 C 419.046 345.783 419.376 324.453 419.376 324.453 C 419.706 313.783 414.706 311.113 414.706 311.113 C 407.376 300.455 394.046 316.783 394.046 316.783 C 389.656 320.543 385.336 323.494 381.176 325.783 C 358.819 338.084 341.046 331.453 341.046 331.453 C 341.046 331.453 340.366 331.183 340.366 331.183 C 339.954 332.25 339.514 333.34 339.04 334.437"></path>
<path fill="#DA8327" stroke="#010101" stroke-width="2" d="M 408.873 364.101 C 408.873 364.101 408.373 377.941 395.704 391.767 C 395.704 391.767 379.124 397.517 375.874 393.767 C 375.874 393.767 373.044 390.267 378.044 385.097 C 378.044 385.097 382.044 384.267 386.044 379.597 C 386.044 379.597 395.204 363.248 392.044 354.437 C 389.114 346.267 382.204 328.426 381.175 325.777 C 385.334 323.487 389.654 320.542 394.044 316.777 C 394.044 316.777 407.374 300.448 414.704 311.107 C 414.704 311.107 419.704 313.777 419.374 324.452 C 419.374 324.452 409.704 330.107 410.044 341.452 C 410.325 351.173 409.134 361.382 408.794 364.093 C 408.794 364.093 408.873 364.101 408.873 364.101"></path>
<path fill="#8D2222" stroke="#010101" stroke-width="2" d="M 533.704 296.931 C 533.704 296.931 542.032 303.601 536.874 315.771 C 536.874 315.771 539.374 314.931 541.032 308.771 C 541.032 308.771 541.532 333.931 522.032 331.601 C 522.032 331.601 521.903 331.471 521.903 331.471 C 526.704 326.84 527.704 320.111 527.704 320.111 C 524.556 322.952 521.602 325.101 518.852 326.691 C 518.852 326.691 518.703 326.431 518.703 326.431 C 518.703 326.431 511.033 312.431 522.874 301.601 C 522.874 301.601 522.204 311.281 522.204 311.281 C 522.204 311.28 525.735 300.73 533.704 296.931"></path>
<path fill="#8D2222" stroke="#010101" d="M 216.744 264.78 C 216.76 264.64 216.784 264.501 216.814 264.35 C 216.932 264.338 217.141 264.418 217.454 264.6 C 220.294 266.26 227.704 263.94 227.704 263.94 C 223.544 269.61 220.544 270.11 220.544 270.11 C 220.544 270.11 217.254 266.122 216.744 264.78"></path>
<path fill="none" stroke="#010101" stroke-width="2" d="M320.043,327.45C319.043,327.236,317.754,326.38,316.333,325.159C315.713,324.63,315.07700000000006,324.026,314.434,323.38C309.63300000000004,318.62,304.37300000000005,311.442,304.37300000000005,311.442C301.70300000000003,302.112,309.04300000000006,273.772,309.04300000000006,273.772C314.87300000000005,275.442,315.7130000000001,288.442,315.7130000000001,288.442C331.74700000000007,277.272,325.74700000000007,249.732,325.3930000000001,248.18200000000002C325.3830000000001,248.17100000000002,325.3830000000001,248.17100000000002,325.3930000000001,248.16100000000003C325.3830000000001,248.14000000000004,325.3730000000001,248.12200000000004,325.3730000000001,248.11000000000004"></path>
<path fill="none" stroke="#010101" stroke-width="2" d="M440.703,391.45C440.703,391.45,430.373,395.45,435.703,398.78C441.03299999999996,402.10999999999996,446.03299999999996,398.10999999999996,446.03299999999996,398.10999999999996C471.03299999999996,375.10999999999996,470.03299999999996,349.10999999999996,470.03299999999996,349.10999999999996C470.703,343.44999999999993,458.37299999999993,339.44999999999993,458.37299999999993,339.44999999999993C456.7029999999999,329.7799999999999,456.87299999999993,280.7699999999999,456.87299999999993,280.7699999999999C464.71399999999994,288.5999999999999,475.7029999999999,310.7699999999999,476.7029999999999,314.7699999999999C477.7029999999999,318.7699999999999,484.7029999999999,330.7699999999999,493.0329999999999,335.7699999999999C501.3729999999999,340.7699999999999,512.3729999999999,337.7699999999999,519.3729999999999,333.43999999999994C520.313,332.84999999999997,521.1539999999999,332.18999999999994,521.9029999999999,331.4699999999999C526.704,326.8399999999999,527.704,320.1099999999999,527.704,320.1099999999999C524.5559999999999,322.9499999999999,521.602,325.0999999999999,518.852,326.6899999999999C492.453,341.8309999999999,483.703,304.1099999999999,483.703,304.1099999999999C473.373,271.76999999999987,448.703,251.7699999999999,448.703,251.7699999999999C424.703,234.0999999999999,395.034,245.7699999999999,395.034,245.7699999999999C374.034,250.43999999999988,366.704,247.43999999999988,366.704,247.43999999999988C348.704,237.10999999999987,333.374,232.7699999999999,333.374,232.7699999999999"></path>
<path fill="none" stroke="#010101" stroke-width="2" d="M299.704,384.44C295.374,386.11,296.704,394.11,296.704,394.11C290.704,397.11,282.044,393.11,282.044,393.11C282.044,393.11,285.37399999999997,385.44,287.37399999999997,382.78000000000003C289.37399999999997,380.11,293.044,382.78000000000003,293.044,382.78000000000003C311.69399999999996,374.56,315.954,329.75100000000003,316.334,325.16100000000006C316.364,324.91100000000006,316.374,324.7800000000001,316.374,324.7800000000001"></path>
<path fill="none" stroke="#010101" stroke-width="2" d="M296.704,394.11C296.704,394.11,302.704,394.44,302.704,394.44C308.704,393.44,310.374,387.78,310.374,387.78C316.04400000000004,388.45,327.704,365.78,327.704,365.78C330.374,361.45,339.044,334.44,339.044,334.44C339.513,333.34,339.954,332.251,340.364,331.18C347.803,311.741,345.70399999999995,296.78000000000003,345.70399999999995,296.78000000000003"></path>
<path fill="none" stroke="#010101" stroke-width="2" d="M248.25,246.021C248.25,246.021,247.96,245.79199999999997,247.474,245.44099999999997C246.42999999999998,244.70199999999997,244.47,243.39099999999996,242.36499999999998,242.46199999999996C240.474,241.62199999999996,238.45499999999998,241.08099999999996,236.87499999999997,241.52299999999997"></path>
<path fill="none" stroke="#010101" stroke-width="2" d="M237.374,250.021C238.32399999999998,249.801,239.194,249.551,239.994,249.301C245.114,247.68099999999998,247.294,245.69099999999997,247.294,245.69099999999997"></path>
<path fill="none" stroke="#010101" stroke-width="2" d="M245.374,280.19C244.214,280.36,242.714,280.11,242.714,280.11C237.794,277.69,232.294,277.86,232.294,277.86"></path>
<path fill="none" stroke="#010101" stroke-width="2" d="M384.124,394.271C377.624,388.771,386.624,385.521,386.624,385.521"></path>
<path fill="none" stroke="#010101" stroke-width="2" d="M250.374,392.271C243.374,384.021,253.124,384.021,253.124,384.021"></path>
<g>
	<path fill="#FFFFFF" stroke="#010101" stroke-width="2" d="M369.098,166.573C369.098,166.573,369.14300000000003,166.598,369.219,166.662C369.709,167.018,371.623,168.63400000000001,373.01,172.80100000000002C373.418,174.01600000000002,373.781,175.454,374.041,177.14600000000002C374.385,179.29000000000002,374.569,181.841,374.506,184.86300000000003C374.49199999999996,185.40400000000002,374.48199999999997,185.93200000000002,374.467,186.45300000000003C374.11699999999996,200.12500000000003,373.234,206.17600000000004,373.234,206.17600000000004C373.234,206.17600000000004,372.756,207.58200000000005,372.24199999999996,209.86000000000004C370.518,217.48200000000003,368.412,234.89500000000004,382.61899999999997,242.12400000000005C385.78099999999995,243.73100000000005,388.70099999999996,244.81400000000005,391.397,245.50100000000006C396.26599999999996,246.74100000000007,400.381,246.68000000000006,403.76,246.04400000000007C409.43,244.98600000000008,413.024,242.31500000000005,414.58799999999997,241.48600000000008C415.52399999999994,240.99700000000007,416.24899999999997,240.96000000000006,416.79699999999997,241.1490000000001C418.02599999999995,241.56300000000007,418.405,243.0790000000001,418.405,243.0790000000001C418.405,243.0790000000001,426.001,250.9740000000001,431.388,241.9720000000001C431.575,241.6730000000001,431.751,241.3490000000001,431.923,241.01100000000008"></path>
	<g id="XMLID_1_">
		<g>
			<path fill="#4C4B54" d="M 370.053 155.516 C 370.053 156.705 370.945 157.666 372.043 157.666 C 373.139 157.666 374.028 156.705 374.028 155.516 C 374.028 154.332 373.136 153.372 372.043 153.372 C 370.945 153.372 370.053 154.332 370.053 155.516 M 414.907 219.538 C 415.065 212.698 404.409 216.038 404.251 215.561 C 404.251 215.561 404.099 215.547 404.099 215.547 C 403.882 218.041 403.933 219.06 403.933 219.06 C 391.884 214.383 398.03 190.743 399.505 185.665 C 399.505 185.665 399.48 185.659 399.48 185.659 C 397.821 179.061 394.562 175.352 390.886 173.361 C 382.957 169.061 373.077 172.776 373.077 172.776 C 373.077 172.776 373.013 172.801 373.013 172.801 C 371.626 168.634 369.712 167.018 369.222 166.662 C 364.132 166.745 358.845 167.368 357.56 166.547 C 357.56 166.547 357.568 166.534 357.568 166.534 C 357.568 166.534 370.589 165.007 375.834 164.663 C 375.834 164.663 375.834 164.65 375.834 164.65 C 379.605 164.498 381.172 162.233 380.605 162.487 C 380.026 162.754 378.276 162.646 378.276 162.646 C 365.571 161.042 359.038 164.535 357.509 165.502 C 357.617 165.343 357.771 165.171 357.968 164.981 C 360.327 162.703 364.386 161.011 367.683 159.917 C 367.853 158.098 370.226 138.012 390.89 143.032 C 390.89 143.032 396.777 145.736 398.685 152.257 C 399.332 154.465 400.021 156.131 400.75 157.582 C 400.75 157.582 400.593 157.665 400.593 157.665 C 400.593 157.665 388.028 160.528 392.162 167.367 C 396.241 174.104 404.638 169.415 404.88 164.409 C 405.192 164.93 405.511 165.491 405.841 166.095 C 407.164 168.538 408.531 172.731 411.406 181.046 C 414.41 189.743 421.973 195.615 421.593 224.137 C 421.593 224.137 421.734 224.137 421.734 224.137 C 421.734 227.108 423.687 242.318 431.392 241.969 C 426.002 250.972 418.408 243.076 418.408 243.076 C 418.408 243.076 418.025 241.561 416.799 241.147 C 416.799 241.147 416.977 240.69 416.977 240.69 C 413.157 233.852 414.907 219.538 414.907 219.538 M 387.867 155.439 C 387.867 154.122 386.907 153.053 385.723 153.053 C 384.534 153.053 383.573 154.122 383.573 155.439 C 383.573 156.756 384.534 157.825 385.723 157.825 C 386.907 157.825 387.867 156.756 387.867 155.439"></path>
			<path fill="#FDB849" d="M 375.831 164.664 C 370.589 165.008 357.565 166.535 357.565 166.535 C 357.565 166.535 357.557 166.548 357.557 166.548 C 357.202 166.332 357.151 165.994 357.506 165.505 C 359.033 164.538 365.568 161.045 378.272 162.649 C 378.272 162.649 380.022 162.757 380.602 162.49 C 381.167 162.236 379.602 164.501 375.831 164.653 C 375.831 164.653 375.831 164.664 375.831 164.664"></path>
			<path fill="#FDB849" d="M 418.407 243.077 C 418.407 243.077 424.608 265.185 414.112 254.212 C 414.112 254.212 409.977 262.96 408.546 252.62 C 408.546 252.62 402.661 262.641 399.161 256.278 C 399.161 256.278 397.411 251.984 403.774 246.098 C 403.774 246.098 403.76 246.039 403.76 246.039 C 409.428 244.983 413.024 242.311 414.588 241.484 C 415.524 240.994 416.247 240.957 416.797 241.147 C 418.024 241.562 418.407 243.077 418.407 243.077"></path>
			<path fill="#FDB849" d="M 400.75 157.583 C 401.959 159.943 403.31 161.737 404.88 164.41 C 404.638 169.417 396.24 174.106 392.162 167.368 C 388.027 160.529 400.593 157.666 400.593 157.666 C 400.593 157.666 400.75 157.583 400.75 157.583"></path>
			<path fill="#FDB849" d="M 391.397 245.5 C 391.397 245.5 391.367 245.621 391.367 245.621 C 391.367 245.621 391.05 248.642 391.05 248.642 C 388.029 260.572 384 251.505 384 251.505 C 377.955 258.981 379.757 250.868 379.757 250.868 C 371.486 257.706 371.646 251.346 371.646 251.346 C 371.487 246.415 382.621 242.12 382.621 242.12 C 385.781 243.731 388.701 244.814 391.397 245.5"></path>
			<path fill="#FBF060" d="M 390.883 173.361 C 390.883 173.361 390.813 173.495 390.813 173.495 C 387.219 177.936 374.545 177.179 374.042 177.147 C 373.781 175.455 373.42 174.017 373.012 172.802 C 373.012 172.802 373.075 172.777 373.075 172.777 C 373.076 172.776 382.956 169.061 390.883 173.361"></path>
			<path fill="#9F5925" d="M 385.723 153.053 C 386.907 153.053 387.867 154.122 387.867 155.439 C 387.867 156.756 386.907 157.825 385.723 157.825 C 384.534 157.825 383.573 156.756 383.573 155.439 C 383.573 154.122 384.534 153.053 385.723 153.053 M 385.723 154.682 C 385.723 154.268 385.416 153.925 385.041 153.925 C 384.672 153.925 384.367 154.269 384.367 154.682 C 384.367 155.102 384.672 155.439 385.041 155.439 C 385.417 155.439 385.723 155.102 385.723 154.682"></path>
			<path fill="#9F5925" d="M 385.042 153.925 C 385.417 153.925 385.723 154.269 385.723 154.682 C 385.723 155.102 385.417 155.439 385.042 155.439 C 384.674 155.439 384.368 155.102 384.368 154.682 C 384.369 154.269 384.674 153.925 385.042 153.925"></path>
			<path fill="#4C4B54" d="M 374.348 186.454 C 374.348 186.454 374.467 186.454 374.467 186.454 C 374.117 200.126 373.234 206.177 373.234 206.177 C 373.234 206.177 372.756 207.583 372.242 209.861 C 372.242 209.861 372.121 209.836 372.121 209.836 C 367.827 213.812 367.509 215.721 367.509 215.721 C 363.85 203.791 374.348 186.454 374.348 186.454"></path>
			<path fill="#9F5925" d="M 372.045 153.372 C 373.139 153.372 374.029 154.332 374.029 155.516 C 374.029 156.705 373.138 157.666 372.045 157.666 C 370.944 157.666 370.055 156.705 370.055 155.516 C 370.053 154.332 370.945 153.372 372.045 153.372 M 372.045 154.765 C 372.045 154.345 371.79 154.008 371.484 154.008 C 371.177 154.008 370.923 154.345 370.923 154.765 C 370.923 155.179 371.177 155.516 371.484 155.516 C 371.791 155.516 372.045 155.178 372.045 154.765"></path>
			<path fill="#9F5925" d="M 371.485 154.008 C 371.791 154.008 372.046 154.345 372.046 154.765 C 372.046 155.179 371.791 155.516 371.485 155.516 C 371.178 155.516 370.924 155.179 370.924 154.765 C 370.926 154.345 371.178 154.008 371.485 154.008"></path>
		</g>
		<g>
			<path fill="none" stroke="#010101" stroke-width="2" d="M367.667,160.052C367.667,160.052,367.674,160.00799999999998,367.67999999999995,159.918C367.852,158.09900000000002,370.22499999999997,138.013,390.88899999999995,143.03300000000002"></path>
			<path fill="none" stroke="#000000" stroke-width="0.5" stroke-linecap="round" stroke-linejoin="round" d="M374.03,177.146C374.03,177.146,374.037,177.146,374.04299999999995,177.146C374.54599999999994,177.178,387.21999999999997,177.93499999999997,390.81399999999996,173.494"></path>
			<path fill="none" stroke="#010101" stroke-width="2" d="M390.889,143.033C390.889,143.033,396.77500000000003,145.737,398.682,152.25799999999998C399.33000000000004,154.46599999999998,400.01800000000003,156.13199999999998,400.748,157.58299999999997C401.957,159.94299999999998,403.307,161.73699999999997,404.877,164.40999999999997C405.189,164.93099999999995,405.508,165.49199999999996,405.838,166.09599999999998C407.16200000000003,168.539,408.529,172.73199999999997,411.404,181.04699999999997C414.408,189.74399999999997,421.972,195.61599999999996,421.59,224.13799999999998C421.59,224.30299999999997,421.584,224.46099999999998,421.584,224.62699999999998"></path>
			<path fill="none" stroke="#010101" stroke-width="2" d="M372.917,158.461C372.917,158.461,370.60299999999995,158.95100000000002,367.681,159.918C364.38599999999997,161.012,360.327,162.705,357.966,164.982C357.769,165.172,357.616,165.344,357.509,165.503C357.153,165.993,357.20300000000003,166.32999999999998,357.56,166.546C358.845,167.367,364.132,166.743,369.222,166.661C372.505,166.603,375.69899999999996,166.769,377.68899999999996,167.685"></path>
			<path fill="none" stroke="#010101" stroke-width="2" d="M418.407,243.077C418.407,243.077,424.608,265.185,414.11199999999997,254.212C414.11199999999997,254.212,409.977,262.96,408.546,252.61999999999998C408.546,252.61999999999998,402.661,262.64099999999996,399.161,256.27799999999996C399.161,256.27799999999996,397.411,251.98399999999995,403.774,246.09799999999996"></path>
			<path fill="none" stroke="#010101" stroke-width="2" d="M382.619,242.124C382.619,242.124,371.485,246.417,371.64300000000003,251.349C371.64300000000003,251.349,371.485,257.71,379.754,250.86999999999998C379.754,250.86999999999998,377.95300000000003,258.98199999999997,383.99800000000005,251.50699999999998C383.99800000000005,251.50699999999998,388.02500000000003,260.573,391.047,248.64499999999998C391.047,248.64499999999998,391.365,245.623,391.365,245.623"></path>
			<path fill="none" stroke="#010101" stroke-width="2" d="M421.746,223.833C421.738,223.909,421.731,224.018,421.731,224.139C421.731,227.11,423.68399999999997,242.32000000000002,431.389,241.971C431.459,241.979,431.535,241.971,431.606,241.964"></path>
			<path fill="none" stroke="#010101" stroke-width="2" d="M399.797,184.705C399.797,184.705,399.68800000000005,185.049,399.504,185.66500000000002C398.026,190.74300000000002,391.88100000000003,214.383,403.932,219.06000000000003C403.932,219.06000000000003,403.88100000000003,218.04100000000003,404.098,215.54700000000003C404.262,213.63100000000003,404.579,210.84500000000003,405.202,206.97200000000004C405.202,206.97200000000004,412.68,201.08700000000005,413.155,196.79200000000003"></path>
			<path fill="none" stroke="#010101" stroke-width="2" d="M374.348,186.454C374.348,186.454,363.85,203.791,367.50800000000004,215.72C367.50800000000004,215.72,367.826,213.811,372.12000000000006,209.835"></path>
			<path fill="none" stroke="#010101" stroke-width="2" d="M 383.573 155.439 C 383.573 156.756 384.534 157.825 385.723 157.825 C 386.907 157.825 387.867 156.756 387.867 155.439 C 387.867 154.122 386.907 153.053 385.723 153.053 C 384.534 153.053 383.573 154.122 383.573 155.439"></path>
			<path fill="none" stroke="#010101" stroke-width="2" d="M 370.053 155.516 C 370.053 156.705 370.945 157.666 372.043 157.666 C 373.139 157.666 374.028 156.705 374.028 155.516 C 374.028 154.332 373.136 153.372 372.043 153.372 C 370.945 153.372 370.053 154.332 370.053 155.516"></path>
			<path fill="none" stroke="#010101" d="M375.831,164.664C370.589,165.00799999999998,357.565,166.535,357.565,166.535"></path>
			<path fill="none" stroke="#010101" d="M373.076,172.776C373.076,172.776,382.956,169.061,390.884,173.36100000000002C394.562,175.353,397.82,179.062,399.48,185.65900000000002"></path>
			<path fill="none" stroke="#010101" d="M404.25,215.561C404.408,216.038,415.063,212.698,414.906,219.538C414.906,219.538,413.156,233.851,416.973,240.691"></path>
			<path fill="none" stroke="#010101" d="M400.592,157.666C400.592,157.666,388.027,160.529,392.161,167.368C396.24,174.105,404.637,169.417,404.879,164.41C404.887,164.334,404.887,164.264,404.887,164.18699999999998"></path>
			<path fill="none" stroke="#010101" d="M357.152,165.746C357.152,165.746,357.26599999999996,165.657,357.508,165.50400000000002C359.034,164.537,365.56899999999996,161.044,378.274,162.64800000000002C378.274,162.64800000000002,380.024,162.75600000000003,380.602,162.48900000000003C381.16799999999995,162.23500000000004,379.604,164.50000000000003,375.83099999999996,164.65200000000004C375.691,164.66500000000005,375.551,164.66500000000005,375.40999999999997,164.66500000000005"></path>
		</g>
	</g>
</g>
</svg>
