<!--?xml version="1.0" encoding="utf-8"?-->
<!-- Generator: Adobe Illustrator 15.0.2, SVG Export Plug-In . SVG Version: 6.00 Build 0)  -->

<svg version="1.1" id="svg2913" inkscape:version="0.45.1" sodipodi:docname="Antarctica blank.svg" sodipodi:docbase="G:\Inkscape" inkscape:output_extension="org.inkscape.output.svg.inkscape" xmlns:svg="http://www.w3.org/2000/svg" xmlns:rdf="http://www.w3.org/1999/02/22-rdf-syntax-ns#" xmlns:cc="http://web.resource.org/cc/" xmlns:dc="http://purl.org/dc/elements/1.1/" inkscape:export-filename="D:\Wikip√©dia\Guatemala carte.svg" inkscape:export-xdpi="72.000000" xmlns:sodipodi="http://sodipodi.sourceforge.net/DTD/sodipodi-0.dtd" inkscape:export-ydpi="72.000000" xmlns:inkscape="http://www.inkscape.org/namespaces/inkscape" sodipodi:version="0.32" xmlns="http://www.w3.org/2000/svg" xmlns:xlink="http://www.w3.org/1999/xlink" x="0px" y="0px" width="804px" height="804px" viewBox="0 0 804 804" enable-background="new 0 0 804 804" xml:space="preserve">
<sodipodi:namedview width="804px" height="804px" showguides="true" bordercolor="#666666" pagecolor="#ffffff" borderopacity="1.0" inkscape:pageopacity="0.0" inkscape:pageshadow="2" inkscape:zoom="1" inkscape:cx="606.83958" inkscape:cy="1006.4754" inkscape:document-units="px" inkscape:current-layer="svg2913" inkscape:window-width="1600" inkscape:window-height="1149" inkscape:window-x="0" inkscape:window-y="22" inkscape:guide-bbox="true" id="base">
	</sodipodi:namedview>
<path fill="#FEFEE9" stroke="#0978AB" d="M 598.74 559.019 C 599.047 559.303 595.45 560.895 595.149 560.608 C 595.452 560.894 593.061 560.637 592.757 560.351 C 591.75 560.496 589.181 560.089 587.075 559.45 C 587.373 559.736 584.081 559.089 583.78 558.806 C 584.086 559.088 573.393 564.091 573.106 563.801 C 573.404 564.086 562.71 569.09 562.432 568.796 C 562.715 569.088 560.286 568.292 559.998 568.002 C 558.952 567.856 555.811 567.437 553.048 567.073 C 553.33 567.362 548.804 567.226 548.526 566.937 C 548.805 567.226 548.615 565.716 548.335 565.426 C 548.511 564.888 547.66 562.687 546.452 560.556 C 546.731 560.842 545.037 557.478 544.76 557.195 C 545.038 557.48 545.196 555.37 544.918 555.087 C 545.196 555.371 545.353 553.26 545.075 552.979 C 545.353 553.261 546.67 552.675 546.391 552.394 C 546.669 552.675 547.986 552.091 547.706 551.807 C 547.985 552.094 548.158 544.979 547.878 544.705 C 548.158 544.987 548.331 537.872 548.051 537.603 C 548.331 537.877 547.353 535.194 547.074 534.922 C 547.354 535.196 546.376 532.512 546.098 532.241 C 546.376 532.514 547.495 529.325 547.216 529.057 C 547.494 529.328 548.614 526.139 548.333 525.873 C 548.613 526.14 546.358 524.192 546.078 523.922 C 545.123 523.124 541.875 519.759 538.892 516.478 C 539.167 516.742 534.229 511.238 533.958 510.979 C 534.234 511.242 527.001 507.443 526.736 507.185 C 527.008 507.446 519.774 503.647 519.514 503.392 C 519.777 503.65 520.312 499.778 520.045 499.523 C 520.602 497.653 521.24 495.109 521.454 493.892 C 521.72 494.142 522.598 492.378 522.331 492.126 C 522.599 492.379 520.402 489.077 520.138 488.829 C 520.404 489.08 518.208 485.777 517.945 485.531 C 518.209 485.78 515.295 483.775 515.031 483.529 C 513.699 482.674 512.099 481.167 511.52 480.173 C 511.405 479.701 509.816 477.921 507.662 476.416 C 506.054 475.384 501.493 473.585 497.362 472.518 C 493.82 471.897 486.877 470.329 481.527 469.275 C 482.097 469.349 472.26 468.13 472.093 467.834 C 471.827 468.378 459.716 469.482 459.186 469.346 C 459.549 469.571 446.932 470.683 446.682 470.409 C 447.434 470.434 437.757 469.299 437.437 469.091 C 431.804 468.94 424.357 468.452 418.879 468.902 C 419.782 468.871 410.591 469.913 409.856 469.869 C 410.33 470.016 402.624 472.741 401.632 472.769 C 402.909 472.629 393.391 475.863 393.275 475.559 C 395.592 475.007 386.996 479.776 387.994 479.059 C 389.737 478.739 381.972 483.101 384.291 481.911 C 382.974 482.718 383.198 484.057 382.512 484.007 C 382.976 484.938 383.619 486.861 384.351 488.097 C 384.467 488.375 386.609 490.908 386.624 490.572 C 386.819 490.823 385.698 492.315 385.478 492.072 C 385.707 492.311 384.48 493.84 384.044 493.68 C 384.144 493.967 384.864 496.855 384.744 496.571 C 384.876 496.848 386.109 499.538 385.963 499.26 C 386.138 499.525 385.705 500.055 385.499 499.803 C 385.706 500.054 385.23 500.602 385.044 500.342 C 385.232 500.602 383.209 499.732 382.94 499.505 C 383.299 499.7 380.769 499.016 380.735 498.702 C 380.743 499.026 378.779 500.482 378.829 500.136 C 378.743 500.496 376.751 501.944 376.662 501.651 C 376.605 501.994 375.675 505.437 375.868 505.044 C 375.831 505.379 376.079 508.414 375.869 508.158 C 376.069 508.416 375.371 508.469 375.185 508.207 C 374.987 508.499 374.122 507.711 373.144 506.502 C 373.307 506.77 371.92 505.024 371.388 504.878 C 371.684 505.105 367.92 505.979 367.394 505.816 C 368.442 505.821 362.525 507.305 363.139 506.791 C 362.51 507.319 355.908 512.788 356.068 512.399 C 355.946 512.769 350.564 517.763 350.087 517.559 C 350.143 517.86 348.778 521.864 348.934 521.509 C 348.904 521.828 349.251 525.382 349.12 525.099 C 349.318 525.364 347.652 524.688 347.482 524.419 C 346.663 524.338 345.055 523.996 343.184 523.832 C 343.855 523.984 339.991 524.345 340.617 523.888 C 339.367 524.487 338.082 527.18 337.626 526.974 C 337.948 527.209 336.362 529.964 336.634 529.591 C 336.502 529.93 335.184 529.825 334.581 529.649 C 334.968 529.872 332.696 529.974 332.21 529.764 C 332.617 529.998 327.021 533.033 327.391 532.642 C 327.063 533.02 322.887 535.716 321.865 535.59 C 321.767 535.912 320.107 539.66 320.309 539.317 C 320.172 539.645 319.516 543.213 319.345 542.935 C 319.576 543.199 320.298 544.402 320.138 544.125 C 320.303 544.401 321.287 545.559 321.165 545.273 C 321.357 545.544 320.922 548.098 320.808 547.807 C 320.885 548.102 320.587 550.628 320.408 550.349 C 320.624 550.62 319.096 551.058 318.952 550.773 C 319.101 551.057 317.589 551.492 317.441 551.208 C 317.515 551.504 317.263 552.936 317.127 552.649 C 317.199 552.947 316.999 554.369 316.872 554.08 C 316.935 554.379 319.081 555.429 318.906 555.148 C 319.077 555.429 321.225 556.48 321.079 556.192 C 321.239 556.476 321.134 557.781 320.967 557.498 C 321.073 558.497 320.717 559.713 320.186 560.187 C 320.349 560.473 319.681 561.859 319.517 561.572 C 319.682 561.859 316.779 561.626 316.622 561.339 C 316.782 561.626 313.887 561.393 313.73 561.106 C 313.886 561.394 311.351 558.23 311.194 557.945 C 309.952 556.497 308.38 554.103 307.638 552.66 C 307.784 552.942 306.788 550.813 306.395 550.563 C 306.76 550.819 302.878 550.891 302.728 550.605 C 302.975 550.879 299.096 550.927 298.995 550.637 C 299.259 550.908 297.803 550.261 297.814 549.964 C 297.908 550.251 296.585 549.589 296.316 549.319 C 296.38 549.614 292.215 551.4 292.374 551.086 C 292.084 551.408 288.913 553.084 288.438 552.822 C 288.678 553.098 287.991 554.385 288.028 554.088 C 287.987 554.385 287.694 555.643 287.574 555.357 C 287.753 555.639 284.937 557.597 284.897 557.303 C 284.902 557.597 282.371 559.528 282.252 559.239 C 282.419 559.526 278.444 558.978 278.261 558.692 C 276.127 558.68 272.752 557.825 270.743 556.8 C 269.03 556.346 265.908 555.108 263.84 554.053 C 264.042 554.34 260.371 552.925 260.374 552.643 C 260.304 552.924 257.064 552.669 256.956 552.386 C 255.245 552.525 252.901 552.091 251.535 551.423 C 251.655 551.704 249.552 551.006 249.422 550.724 C 249.578 551.008 249.735 549.093 249.594 548.813 C 249.693 549.091 249.881 547.18 249.556 546.887 C 249.779 547.18 245.966 542.951 245.775 542.664 C 243.744 540.608 241.491 538.09 240.411 537.077 C 239.878 536.638 237.846 534.922 236.413 533.309 C 234.942 532.224 230.16 526.852 225.39 521.219 C 220.83 516.127 216.485 511.153 215.617 510.342 C 215.815 510.619 214.22 509.567 214.197 509.323 C 214.383 509.601 214.413 507.478 214.273 507.213 C 214.478 507.494 214.191 505.301 214.026 505.031 C 214.343 505.337 212.322 503.275 212.603 503.103 C 212.456 503.306 211.11 501.381 211.142 501.158 C 211.071 501.373 208.973 500.598 208.937 500.358 C 207.996 500.211 207.055 499.835 206.74 499.499 C 206.62 499.67 207.628 498.816 208.802 497.565 C 208.901 497.817 211.299 496.018 210.659 495.64 C 211.139 495.983 210.097 493.996 210.215 493.797 C 210.333 494.054 209.589 492.132 209.747 491.947 C 209.439 492.096 206.918 491.755 206.751 491.488 C 206.874 491.743 204.243 491.375 204.168 491.132 C 204.263 491.381 204.884 489.904 204.776 489.654 C 204.885 489.905 205.488 488.425 205.392 488.178 C 205.475 488.423 208.993 488.869 208.818 488.603 C 209.084 488.89 212.12 489.22 211.773 488.914 C 211.905 489.175 210.558 484.706 210.136 484.377 C 210.836 484.776 208.284 479.984 208.529 479.815 C 207.871 479.904 202.263 472.889 201.988 472.559 C 202.242 472.89 196.334 465.56 196.633 465.409 C 197.066 465.759 196.379 462.21 196.104 461.923 C 197.115 462.441 193.23 457.911 194.326 458.042 C 193.795 458.083 191.434 457.337 191.647 457.195 C 189.252 456.644 187.652 456.666 185.79 456.543 C 186.088 456.839 183.459 457.221 183.745 457.108 C 183.655 457.282 183.589 455.451 182.95 455.036 C 183.125 455.298 182.062 453.126 181.222 452.634 C 181.435 452.913 177.999 451.665 177.566 451.305 C 178.346 451.79 173.87 450.127 174.68 450.218 C 174.171 450.23 173.051 451.313 173.096 451.132 C 173.132 451.341 172.212 452.501 172.171 452.286 C 172.32 452.54 168.493 453.147 168.386 452.906 C 168.341 453.085 165.358 456.909 165.319 456.688 C 165.372 456.913 165.559 453.341 165.427 453.094 C 165.629 453.373 165.451 449.661 165.325 449.416 C 165.483 449.674 163.866 449.023 163.609 448.721 C 163.846 449.014 162.103 448.301 162.214 448.152 C 162.2 448.34 160.464 449.78 160.488 449.595 C 159.649 450.624 158.516 452.689 157.822 454.099 C 157.898 454.329 156.829 457.346 156.782 457.124 C 156.847 457.351 155.683 458.187 155.599 457.952 C 155.483 457.579 154.217 458.898 153.791 458.52 C 153.873 458.755 153.222 458.487 153.156 458.256 C 153.206 458.482 155.093 453.662 155.045 453.444 C 156.182 451.042 158.019 447.36 158.71 445.115 C 159.669 443.366 160.485 440.092 160.704 437.923 C 161.212 436.266 161.59 430.973 161.435 426.05 C 161.609 426.34 161.329 417.63 160.98 417.247 C 160.952 417.418 159.129 414.471 159.4 414.447 C 158.953 414.377 158.367 412.082 158.062 411.749 C 158.322 412.06 160.635 410.481 160.424 410.202 C 160.596 410.462 162.733 408.789 161.988 408.219 C 162.599 408.722 161.769 406.07 162.11 406.097 C 161.897 406.136 162.294 404.169 161.963 403.805 C 162.343 404.224 164.415 394.412 164.513 394.297 C 164.855 394.652 167.302 388.187 166.175 387.404 C 166.46 387.719 164.323 384.858 164.78 384.968 C 163.466 383.465 161.242 380.391 159.745 378.11 C 159.577 378.153 157.241 374.488 157.358 374.422 C 157.379 374.577 158.171 373.232 158.083 373.038 C 158.164 373.23 158.916 371.858 158.835 371.669 C 158.969 371.895 161.465 372.662 161.363 372.462 C 161.56 372.724 163.453 373.105 163.408 372.945 C 162.955 372.786 163.843 372.144 163.19 371.579 C 163.571 371.298 164.418 370.182 165.16 369.219 C 165.352 369.431 166.168 367.658 166.144 367.405 C 164.608 366.867 164.388 347.877 165.309 348.09 C 164.709 348.103 168.238 330.146 168.393 329.887 C 168.142 329.879 167.656 326.031 167.733 326.039 C 167.292 323.896 166.281 319.467 165.013 315.68 C 165.111 315.896 162.989 309.24 163.238 309.414 C 162.82 309.041 158.312 304.649 158.211 304.46 C 158.288 304.619 155.821 300.814 155.744 300.657 C 155.796 300.78 155.722 298.882 155.559 298.625 C 155.736 298.902 155.423 296.7 155.439 296.666 C 155.339 296.601 148.824 288.706 148.812 288.638 C 145.416 284.588 142.444 280.502 142.132 279.457 C 142.21 279.606 141.791 277.988 141.721 277.849 C 141.791 277.992 144.233 275.464 144.158 275.324 C 144.23 275.466 146.672 272.938 146.595 272.8 C 146.671 272.94 146.627 270.76 146.553 270.623 C 146.627 270.762 146.585 268.581 146.51 268.445 C 146.586 268.583 144.509 266.578 144.436 266.443 C 144.511 266.58 142.434 264.574 142.363 264.441 C 142.435 264.575 142.727 263.231 142.653 263.094 C 142.887 262.495 141.983 259.085 140.653 255.548 C 140.726 255.68 138.432 249.469 138.362 249.345 C 138.434 249.471 135.739 248.894 135.671 248.766 C 135.742 248.894 133.047 248.314 132.981 248.188 C 133.048 248.315 133.375 246.806 133.306 246.68 C 133.375 246.807 133.7 245.297 133.632 245.173 C 133.699 245.298 135.906 245.059 135.835 244.934 C 135.904 245.058 138.111 244.82 138.039 244.695 C 138.11 244.822 137.246 241.048 137.177 240.927 C 137.247 241.052 136.383 237.277 136.314 237.159 C 136.382 237.278 138.858 237.599 138.787 237.476 C 139.426 237.012 139.912 234.775 139.864 232.522 C 139.96 230.506 140.441 228.109 140.931 227.208 C 141.564 226.54 142.76 224.018 143.579 221.624 C 143.652 221.738 145.281 217.578 145.206 217.469 C 145.281 217.58 144.003 215.225 143.93 215.116 C 144.004 215.227 142.727 212.871 142.656 212.763 C 142.727 212.873 144.895 211.556 144.82 211.449 C 144.892 211.555 148.513 212.339 148.436 212.228 C 148.51 212.341 152.743 205.308 152.665 205.206 C 155.063 201.451 159.823 200.521 160.119 199.327 C 160.205 199.427 160.899 197.432 160.82 197.33 C 160.896 197.434 169.115 192.448 169.024 192.351 C 172.632 188.759 175.593 185.791 175.582 185.784 C 175.758 185.953 175.101 188.785 174.13 192.052 C 174.219 192.148 172.613 198.28 172.525 198.175 C 172.614 198.277 169.857 199.382 169.772 199.28 C 169.859 199.381 167.102 200.487 167.018 200.385 C 167.105 200.485 162.572 204.578 162.49 204.473 C 161.077 207.778 158.342 207.636 155.62 208.828 C 155.697 208.937 154.084 210.607 154.005 210.5 C 154.084 210.605 154.461 215.48 154.382 215.369 C 154.669 218.152 153.62 219.585 153.827 221.089 C 153.905 221.203 154.424 224.155 154.344 224.04 C 154.425 224.154 150.671 225.354 150.596 225.239 C 150.675 225.354 146.921 226.553 146.848 226.438 C 146.922 226.551 147.294 230.76 147.218 230.639 C 147.294 230.757 146.224 233.572 146.149 233.454 C 146.225 233.569 144.269 239.671 144.196 239.546 C 144.271 239.665 142.314 245.767 142.243 245.638 C 142.314 245.762 143.885 250.632 143.811 250.502 C 143.884 250.628 145.454 255.499 145.379 255.366 C 145.452 255.495 148.861 258.997 148.784 258.864 C 148.858 258.994 152.268 262.498 152.188 262.361 C 152.265 262.496 154.865 261.442 154.785 261.309 C 154.863 261.444 157.461 260.388 157.381 260.257 C 157.457 260.386 163.151 266.102 163.065 265.963 C 163.145 266.096 168.839 271.811 168.749 271.669 C 168.835 271.806 170.356 276.079 170.268 275.936 C 170.356 276.079 171.869 280.338 171.801 280.226 C 171.862 280.326 173.97 284.98 173.89 284.842 C 176.15 287.781 178.705 291.742 179.541 293.614 C 179.619 293.748 181.294 297.404 181.219 297.27 C 181.26 297.354 180.247 299.647 180.167 299.505 C 180.181 299.56 179.359 302.084 179.215 301.856 C 179.451 302.198 182.592 304.145 182.542 304.041 C 182.594 304.148 185.64 305.969 185.508 305.768 C 185.562 305.875 184.974 308.846 184.836 308.635 C 184.985 308.856 184.375 311.785 184.329 311.673 C 184.413 311.822 182.582 312.833 182.603 312.794 C 182.51 312.755 181.136 314.246 181.124 314.164 C 181.044 314.149 182.61 315.67 182.077 315.053 C 182.832 315.897 183.278 316.258 183.647 316.567 C 183.784 316.773 187.28 315.794 187.06 315.507 C 187.243 315.761 190.348 314.38 190.259 314.231 C 190.352 314.386 191.301 315.245 191.203 315.083 C 191.3 315.243 192.246 316.098 192.15 315.94 C 192.239 316.088 190.279 318.324 190.178 318.156 C 190.338 318.377 188.305 320.541 188.439 320.592 C 188.464 320.694 189.843 322.961 189.684 322.735 C 189.782 322.906 191.218 325.2 190.973 324.897 C 191.125 325.114 192.854 325.567 192.764 325.41 C 192.815 325.535 194.431 325.887 194.339 325.728 C 194.403 325.862 194.303 328.213 194.203 328.044 C 194.328 329.567 194.981 332.106 195.766 333.74 C 195.831 333.886 197.247 337.022 197.12 336.825 C 197.149 336.948 195.066 339.927 195.009 339.778 C 195.025 339.898 193.371 343.145 193.345 343.007 C 193.338 343.124 193.96 347.334 193.972 347.204 C 193.877 347.277 194.459 351.377 194.541 351.287 C 194.351 351.307 196.817 353.123 196.511 352.824 C 196.649 353.027 198.483 354.474 198.329 354.264 C 198.396 354.428 196.88 357.904 196.862 357.763 C 196.251 359.906 194.342 364.492 193.054 368.012 C 192.905 368.119 191.444 375.137 191.326 374.905 C 191.833 375.283 193.657 378.404 193.585 378.213 C 193.761 378.44 195.066 381.33 194.969 381.135 C 194.773 381.22 191.094 384.656 191.104 384.496 C 191.074 384.645 188.005 388.299 187.858 388.083 C 187.56 388.124 184.827 387.688 184.844 387.552 C 183.804 387.67 183.393 388.348 185.039 389.432 C 183.229 388.827 187.351 391.56 184.786 390.316 C 186.245 391.119 191.648 395.564 191.7 395.377 C 191.598 395.531 196.179 399.462 196.568 399.412 C 196.49 399.594 205.59 402.798 204.359 402.141 C 208.58 403.743 212.939 404.798 215.492 405.112 C 215.666 405.337 220.039 406.121 219.799 405.874 C 219.955 406.096 221.8 404.254 221.691 404.051 C 221.801 404.257 223.667 402.422 223.56 402.22 C 223.671 402.424 225.007 403.05 224.891 402.844 C 225.005 403.049 226.339 403.674 226.225 403.469 C 226.336 403.672 226.104 405.55 225.984 405.341 C 226.112 405.55 225.856 407.421 225.769 407.22 C 225.828 407.413 222.869 409.839 222.729 409.624 C 221.318 411.186 218.781 413.058 217.994 413.991 C 217.619 414.079 216.84 416.29 217.177 416.193 C 217.263 416.402 219.422 418.099 219.171 417.846 C 219.702 418.804 223.258 420.25 223.15 420.132 C 224.606 420.661 225.991 421.151 225.866 420.936 C 226.714 421.315 230.875 419.688 230.506 419.421 C 230.729 419.659 234.307 417.909 234.213 417.704 C 234.322 417.913 235.986 418.548 235.86 418.332 C 235.982 418.546 237.637 419.177 237.516 418.964 C 237.635 419.176 236.862 421.226 236.743 421.01 C 236.861 421.223 236.109 423.276 235.984 423.059 C 236.105 423.274 231.976 424.601 232.019 424.415 C 231.826 424.57 228.538 426.059 229.173 425.992 C 228.728 426.101 230.612 427.88 230.152 427.594 C 229.709 427.707 233.261 429.791 232.499 429.443 C 232.95 429.744 239.129 431.111 240.083 431.047 C 238.432 430.984 246.613 432.559 244.65 431.997 C 247.434 432.738 258.882 432.196 258.852 431.914 C 265.118 431.744 270.842 431.061 270.3 430.666 C 271.728 430.828 271.427 430.16 271.316 429.319 C 271.032 428.882 270.819 427.662 270.802 426.613 C 270.937 426.83 271.188 425.318 271.036 425.1 C 271.181 425.318 272.569 424.449 272.454 424.235 C 272.578 424.451 274.002 423.585 273.85 423.368 C 273.995 423.584 275.41 424.342 275.271 424.126 C 275.421 424.343 276.847 425.1 276.714 424.884 C 276.834 425.097 276.557 427.721 276.465 427.504 C 276.495 427.715 276.611 430.358 276.899 430.158 C 276.293 430.344 279.563 430.595 278.913 430.346 C 279.816 430.607 282.333 430.778 281.67 430.542 C 282.919 430.8 285.547 429.111 285.585 428.893 C 285.481 429.107 287.881 427.404 287.473 427.169 C 287.188 427.416 294.579 427.724 294.67 427.453 C 294.654 427.731 303.113 427.733 302.897 427.464 C 302.868 427.722 307.359 428.517 307.183 428.286 C 308.131 428.445 311.857 429.233 313.786 428.756 C 311.213 429.306 318.113 427.551 316.341 427.514 C 316.876 427.703 320.052 426.329 319.462 426.171 C 320.82 426.211 319.173 423.724 318.563 423.573 C 318.959 423.758 315.862 421.472 315.701 421.258 C 315.844 421.475 316.076 419.794 315.915 419.58 C 316.056 419.797 316.315 418.113 316.126 417.903 C 316.304 418.115 318.705 417.043 318.601 416.822 C 318.743 417.039 321.27 415.946 321.146 415.727 C 321.192 415.958 325.338 416.745 325.274 416.505 C 325.184 416.777 330.409 417.316 330.204 417.089 C 330.672 417.272 336.494 415.353 336.395 415.092 C 336.35 415.391 342.456 413.232 341.696 413.159 C 342.032 413.335 344.189 414.263 344.101 414.027 C 344.355 414.216 346.92 415.017 347.406 414.593 C 347.713 414.769 350.069 414.246 351.123 413.624 C 350.206 414.204 354.746 412.912 354.825 412.596 C 355.022 412.811 357.137 410.848 356.998 410.619 C 357.937 410.573 358.718 409.04 359.161 408.615 C 360.159 408.513 359.841 403.273 358.612 403.45 C 359.565 403.38 356.076 399.314 355.871 399.124 C 356.045 399.33 355.076 396.237 354.834 396.054 C 355.125 396.223 353.89 393.209 353.752 392.996 C 353.85 393.225 354.002 390.695 353.757 390.517 C 353.999 390.698 353.975 388.219 353.743 388.041 C 353.96 388.224 357.134 387.199 357.124 386.928 C 357.11 387.213 360.972 385.881 360.891 385.629 C 361.107 385.819 361.34 382.872 361.053 382.718 C 361.225 381.358 360.573 378.702 359.57 376.872 C 359.798 377.043 358.241 374.087 357.988 373.925 C 358.167 374.131 358.217 368.653 358.023 368.462 C 358.253 368.639 358.191 363.158 358.006 362.965 C 358.137 363.19 359.43 359.847 359.254 359.655 C 359.489 359.809 360.68 356.503 360.617 356.226 C 360.813 356.408 360.028 353.149 359.866 352.949 C 359.979 353.19 359.219 349.88 358.972 349.747 C 359.23 349.871 356.32 347.233 356.132 347.062 C 356.323 347.236 353.332 344.654 353.152 344.482 C 353.273 344.703 352.579 344.938 352.333 344.816 C 352.114 345.133 350.049 346.786 347.78 348.468 C 347.965 348.638 344.137 352.038 343.951 351.864 C 344.131 352.043 341.589 351.042 341.418 350.863 C 341.593 351.042 339.057 350.04 338.883 349.863 C 339.055 350.044 337.642 347.028 337.468 346.854 C 337.644 347.03 336.227 344.017 336.059 343.84 C 336.226 344.023 335.147 337.571 334.976 337.397 C 334.555 334.029 333.949 329.718 333.641 327.854 C 333.673 326.322 333.353 323.086 332.93 320.683 C 333.101 320.847 332.637 316.768 332.465 316.609 C 332.637 316.772 333.692 311.747 333.52 311.588 C 333.691 311.753 334.74 306.717 334.567 306.568 C 334.737 306.725 336.968 303.608 336.795 303.451 C 338.192 301.897 339.131 299.89 338.876 299.026 C 338.971 298.465 338.485 296.237 337.8 294.105 C 337.973 294.252 337.039 290.638 336.868 290.492 C 337.04 290.64 337.957 288.894 337.786 288.745 C 338.461 287.937 339.528 285.473 340.147 283.295 C 340.321 283.439 341.768 279.732 341.593 279.593 C 341.768 279.735 341.213 278.489 341.039 278.347 C 341.213 278.49 340.658 277.242 340.485 277.102 C 340.659 277.243 339.042 277.963 338.87 277.821 C 338.156 278.357 337.176 279.331 336.699 279.977 C 336.871 280.12 336.315 281.56 336.143 281.416 C 336.315 281.56 335.071 281.394 334.901 281.251 C 335.072 281.394 333.829 281.229 333.659 281.085 C 333.83 281.23 332.868 279.07 332.699 278.928 C 332.869 279.071 331.907 276.912 331.739 276.772 C 331.907 276.914 333.985 274.328 333.813 274.189 C 333.983 274.33 336.06 271.743 335.887 271.606 C 336.059 271.745 335.388 270.196 335.218 270.059 C 335.389 270.197 334.719 268.65 334.549 268.512 C 334.719 268.652 335.645 263.525 335.474 263.392 C 336.154 260.714 336.369 257.961 335.948 257.298 C 335.873 256.892 335.083 256.065 334.201 255.463 C 334.371 255.593 333.073 254.735 332.904 254.604 C 333.073 254.737 333.422 250.404 333.252 250.278 C 333.614 248.028 334.062 245.94 334.247 245.656 C 334.771 245.615 336.254 246.431 337.53 247.46 C 337.702 247.586 340.343 249.691 340.168 249.562 C 340.342 249.691 341.699 248.744 341.524 248.618 C 341.697 248.745 343.055 247.8 342.879 247.673 C 343.055 247.801 342.416 244.879 342.242 244.754 C 342.066 243.277 341.864 240.832 341.794 239.344 C 342.072 238.096 342.494 236.823 342.725 236.523 C 342.9 236.643 343.642 236.312 343.466 236.193 C 343.641 236.311 344.204 238.727 344.029 238.604 C 344.204 238.724 344.767 241.139 344.591 241.015 C 344.766 241.139 346.21 241.059 346.033 240.937 C 346.21 241.059 347.652 240.982 347.475 240.859 C 347.65 240.984 351.638 238.239 351.456 238.119 C 351.634 238.242 355.621 235.497 355.437 235.379 C 355.619 235.498 358.548 235.675 358.366 235.555 C 360.156 235.772 362.377 235.455 363.282 234.852 C 363.468 234.972 365.459 234.092 365.272 233.973 C 365.458 234.093 365.623 231.88 365.436 231.763 C 365.623 231.882 365.787 229.67 365.602 229.553 C 365.786 229.673 368.698 226.088 368.508 225.975 C 368.695 226.091 371.606 222.506 371.416 222.394 C 371.602 222.509 377.27 219.457 377.075 219.346 C 377.265 219.46 382.934 216.407 382.735 216.299 C 382.932 216.409 383.789 214.714 383.594 214.605 C 383.79 214.715 384.649 213.019 384.453 212.91 C 384.647 213.02 388.584 211.428 388.384 211.321 C 388.581 211.429 392.517 209.837 392.315 209.731 C 392.514 209.836 396.04 211.698 395.837 211.589 C 396.037 211.696 399.564 213.557 399.357 213.447 C 399.562 213.557 400.733 213.035 400.53 212.925 C 401.376 212.749 402.124 211.746 402.181 210.704 C 402.387 210.812 402.869 209.109 402.664 209.003 C 402.868 209.111 405.09 207.568 404.882 207.463 C 405.088 207.57 407.308 206.027 407.1 205.923 C 407.306 206.028 410.441 206.206 410.231 206.1 C 410.439 206.205 413.574 206.383 413.363 206.277 C 413.571 206.384 418.056 203.679 417.841 203.577 C 418.052 203.682 422.536 200.977 422.318 200.877 C 422.533 200.978 426.922 202.641 426.706 202.537 C 429.328 203.552 433.426 204.766 435.772 205.225 C 435.996 205.33 440.682 206.358 440.458 206.252 C 440.679 206.359 448.938 204.2 448.708 204.096 C 453.466 203.018 458.339 201.496 459.489 200.731 C 459.728 200.833 462.263 199.622 462.028 199.52 C 462.261 199.622 465.63 199.812 465.391 199.71 C 465.627 199.812 468.993 200.004 468.753 199.901 C 468.99 200.005 473.864 197.399 473.62 197.3 C 473.859 197.401 478.733 194.798 478.486 194.699 C 478.73 194.8 480.676 191.382 480.43 191.286 C 480.674 191.385 482.621 187.965 482.374 187.872 C 482.62 187.966 483.434 188.278 483.187 188.181 C 483.433 188.278 484.246 188.586 484 188.492 C 484.245 188.583 487.477 195.504 487.227 195.4 C 487.474 195.496 490.706 202.417 490.454 202.309 C 490.703 202.413 494.262 204.39 494.009 204.286 C 494.259 204.389 497.818 206.368 497.562 206.261 C 497.816 206.368 500.153 204.715 499.897 204.611 C 500.151 204.716 502.488 203.065 502.231 202.961 C 502.487 203.067 504.21 199.542 503.952 199.442 C 504.209 199.545 505.932 196.02 505.673 195.922 C 505.931 196.021 508.011 195.645 507.754 195.544 C 509.151 195.438 512.443 194.554 515.04 193.586 C 515.302 193.685 520.516 192.101 520.247 192.004 C 520.514 192.102 521.992 192.477 521.728 192.379 C 522.805 192.683 525.184 192.578 526.998 192.147 C 529.349 191.911 532.318 191.189 533.571 190.549 C 533.845 190.646 536.629 189.654 536.355 189.558 C 536.629 189.654 537.897 191.668 537.623 191.57 C 538.593 192.773 539.806 194.001 540.308 194.289 C 540.585 194.388 542.003 195.095 541.727 194.995 C 542.002 195.095 544.033 194.191 543.754 194.093 C 544.031 194.192 546.062 193.288 545.782 193.189 C 546.061 193.289 545.718 191.191 545.44 191.095 C 545.718 191.193 545.375 189.095 545.098 189 C 545.375 189.096 546.696 189.273 546.417 189.176 C 546.695 189.273 548.016 189.449 547.736 189.353 C 548.015 189.448 548.299 191.192 548.02 191.093 C 548.299 191.19 548.584 192.933 548.304 192.834 C 548.583 192.932 550.063 194.032 549.782 193.933 C 550.062 194.031 551.541 195.132 551.259 195.032 C 551.539 195.132 552.819 194.562 552.537 194.463 C 552.818 194.562 554.098 193.993 553.815 193.894 C 554.097 193.995 554.296 190.692 554.014 190.595 C 554.406 188.881 554.829 187.242 554.954 186.968 C 555.64 186.882 557.556 186.579 559.194 186.295 C 559.479 186.39 562.983 186.047 562.695 185.952 C 562.981 186.047 566.57 187.248 566.281 187.153 C 568.538 187.906 571.275 189.331 572.337 190.305 C 572.63 190.403 575.102 192.357 574.809 192.259 C 575.101 192.354 576.446 197.002 576.151 196.899 C 576.444 196.997 577.789 201.645 577.493 201.539 C 577.79 201.643 575.524 202.65 575.231 202.547 C 575.526 202.65 573.259 203.659 572.969 203.555 C 573.259 203.658 575.005 205.825 574.711 205.721 C 575.962 207.015 575.35 208.455 576.001 210.279 C 576.294 210.383 578.754 216.503 578.457 216.388 C 578.752 216.5 581.418 217.87 581.122 217.761 C 582.412 218.602 584.909 219.377 585.941 221.315 C 586.24 221.427 588.671 225.165 588.37 225.048 C 588.669 225.163 590.931 226.659 590.629 226.542 C 590.93 226.659 593.191 228.15 592.888 228.037 C 593.188 228.144 597.977 239.676 597.672 239.547 C 601.707 244.358 607.226 245.511 607.432 245.736 C 607.746 245.864 608.696 246.51 608.387 246.385 C 608.698 246.509 607.762 248.387 607.453 248.259 C 607.763 248.386 606.828 250.262 606.517 250.135 C 606.831 250.261 600.083 253.457 599.777 253.328 C 596.384 255.21 591.984 257.411 590.042 258.198 C 590.34 258.331 587.339 260.009 587.04 259.876 C 587.339 260.008 587.777 261.894 587.477 261.76 C 587.776 261.893 588.214 263.779 587.913 263.644 C 588.214 263.777 586.816 266.414 586.518 266.276 C 586.818 266.411 585.419 269.047 585.122 268.909 C 585.419 269.045 586.386 271.215 586.086 271.076 C 586.384 271.213 587.352 273.383 587.05 273.243 C 587.353 273.381 582.861 275.381 582.566 275.24 C 582.866 275.379 578.373 277.379 578.081 277.236 C 578.375 277.378 578.759 278.24 578.464 278.098 C 578.968 278.713 580.203 279.177 581.197 279.126 C 581.494 279.268 583.843 279.435 583.547 279.291 C 583.838 279.436 592.932 275.621 592.625 275.482 C 592.922 275.625 602.015 271.81 601.701 271.674 C 602.01 271.811 604.591 273.121 604.283 272.98 C 604.59 273.119 607.173 274.428 606.862 274.287 C 607.172 274.426 607.923 276.115 607.613 275.974 C 607.923 276.114 608.675 277.803 608.364 277.66 C 608.675 277.803 609.516 277.426 609.208 277.285 C 609.976 277.219 612.949 277.83 615.784 278.636 C 616.097 278.778 621.84 280.506 621.52 280.362 C 621.837 280.506 624.071 279.51 623.753 279.368 C 624.07 279.511 626.305 278.515 625.985 278.374 C 626.303 278.516 629.549 278.7 629.226 278.557 C 629.546 278.7 632.793 278.882 632.468 278.741 C 632.79 278.882 636.04 281.501 635.716 281.357 C 637.822 282.938 640.102 284.346 640.762 284.474 C 642.079 284.896 643.21 284.905 643.269 284.497 C 643.985 284.38 644.863 283.971 645.214 283.593 C 645.544 283.738 646.785 283.311 646.455 283.168 C 646.784 283.31 647.385 286.25 647.055 286.103 C 647.385 286.247 647.985 289.187 647.655 289.038 C 647.984 289.185 650.824 290.674 650.491 290.525 C 650.821 290.673 653.662 292.163 653.327 292.013 C 653.661 292.161 653.737 293.678 653.404 293.527 C 653.738 293.677 653.813 295.192 653.482 295.043 C 653.811 295.19 658.46 299.17 658.122 299.015 C 658.456 299.166 663.104 303.145 662.763 302.988 C 663.102 303.141 664.024 306.745 663.686 306.587 C 664.024 306.742 664.947 310.346 664.608 310.187 C 664.945 310.343 668.34 314.006 667.998 313.844 C 668.337 314.002 671.732 317.665 671.387 317.501 C 671.73 317.662 672.461 320.567 672.118 320.403 C 672.461 320.565 673.192 323.47 672.849 323.304 C 673.191 323.467 675.741 327.117 675.395 326.949 C 675.739 327.114 678.289 330.764 677.941 330.593 C 678.288 330.761 677.873 332.869 677.528 332.699 C 677.874 332.868 677.459 334.975 677.114 334.804 C 677.458 334.973 679.975 339.463 679.628 339.29 C 681.354 341.926 683.172 344.495 683.648 344.974 C 683.998 345.152 685.508 346.352 685.159 346.176 C 685.508 346.352 686.77 345.79 686.42 345.614 C 687.462 345.481 688.51 345.552 688.738 345.77 C 689.089 345.946 690.148 346.664 689.795 346.488 C 690.149 346.663 688.544 349.738 688.193 349.558 C 688.545 349.735 686.94 352.809 686.591 352.627 C 686.94 352.807 688.804 354.249 688.452 354.068 C 688.802 354.248 690.666 355.69 690.313 355.508 C 690.665 355.688 692.022 358.737 691.669 358.553 C 692.02 358.735 693.38 361.783 693.023 361.598 C 693.382 361.78 686.715 368.279 686.37 368.092 C 685.489 374.205 685.896 381.792 685.128 381.36 C 680.392 378.808 686.664 384.293 685.883 385.212 C 686.233 385.408 685.758 388.137 685.409 387.937 C 685.758 388.136 687.396 389.403 687.046 389.205 C 688.294 390.098 689.392 391.474 689.474 392.251 C 689.827 392.451 690.62 394.234 690.268 394.033 C 690.619 394.233 692.764 395.051 692.41 394.849 C 692.762 395.051 694.907 395.867 694.552 395.666 C 694.905 395.865 697.184 399.892 696.827 399.686 C 697.182 399.888 699.462 403.915 699.104 403.706 C 699.461 403.913 698.646 405.55 698.289 405.344 C 698.201 406.448 696.393 408.222 694.286 409.27 C 694.641 409.479 691.447 411.772 691.096 411.561 C 691.448 411.771 691.901 413.664 691.548 413.453 C 692.15 414.702 692.168 416.244 691.587 416.865 C 691.94 417.078 691.526 418.601 691.173 418.387 C 691.527 418.6 689.553 419.479 689.203 419.265 C 689.555 419.479 687.582 420.356 687.231 420.143 C 687.583 420.354 685.192 425.353 684.844 425.133 C 685.194 425.348 682.802 430.345 682.456 430.123 C 682.803 430.341 682.86 434.906 682.511 434.682 C 682.859 434.902 682.915 439.466 682.567 439.24 C 682.914 439.461 684.822 445.357 684.472 445.128 C 684.82 445.352 686.728 451.247 686.376 451.013 C 686.727 451.244 686.363 453.77 686.013 453.538 C 686.364 453.768 686 456.296 685.651 456.062 C 686 456.294 687.104 458.181 686.753 457.947 C 687.103 458.179 688.207 460.066 687.856 459.831 C 688.207 460.065 686.251 461.709 685.9 461.474 C 685.178 462.612 682.803 464.066 680.645 464.694 C 680.992 464.931 677.687 466.508 677.343 466.27 C 677.688 466.506 677.5 469.63 677.154 469.389 C 677.5 469.627 677.311 472.751 676.966 472.508 C 677.31 472.749 679.71 474.655 679.363 474.413 C 681.026 475.7 682.415 477.249 682.437 477.839 C 682.786 478.084 683.464 479.607 683.115 479.363 C 683.465 479.605 682.045 485.517 681.697 485.27 C 681.268 488.758 679.916 493.556 678.705 495.886 C 679.051 496.141 677.474 500.859 677.129 500.602 C 677.475 500.857 675.449 501.759 675.105 501.503 C 675.451 501.758 673.422 502.662 673.081 502.404 C 673.423 502.661 673.268 503.797 672.923 503.542 C 673.183 504.421 671.266 506.986 668.673 509.227 C 666.768 511.982 663.477 515.864 661.388 517.82 C 659.969 520.312 658.014 522.367 657.053 522.378 C 656.759 522.925 655.843 523.969 655.018 524.697 C 654.865 525.957 653.052 527.969 651.006 529.149 C 651.338 529.419 648.213 532.067 647.884 531.794 C 648.215 532.067 646.522 531.117 646.193 530.847 C 646.523 531.119 644.831 530.169 644.501 529.9 C 644.834 530.169 639.706 532.724 639.383 532.451 C 639.712 532.721 634.584 535.276 634.264 535.001 C 634.587 535.275 632.814 535.284 632.492 535.011 C 632.815 535.285 631.041 535.294 630.719 535.022 C 631.043 535.293 628.096 538.923 627.777 538.646 C 628.098 538.919 625.152 542.549 624.835 542.27 C 625.154 542.548 622.59 542.365 622.273 542.089 C 622.592 542.366 620.028 542.184 619.713 541.909 C 620.03 542.183 617.763 544.564 617.449 544.285 C 617.766 544.562 615.499 546.943 615.186 546.663 C 615.5 546.941 615.05 549.229 614.736 548.948 C 615.05 549.227 614.6 551.515 614.286 551.232 C 614.601 551.514 612.346 551.354 612.034 551.073 C 611.11 551.266 609.303 551.545 608.031 551.693 C 607.381 552.4 605.699 553.872 604.306 554.949 C 604.614 555.232 602.637 557.712 602.33 557.427 C 602.639 557.711 599.044 559.305 598.74 559.019"></path>
</svg>
