<!--?xml version="1.0" encoding="utf-8"?-->
<!-- Generator: Adobe Illustrator 15.0.2, SVG Export Plug-In . SVG Version: 6.00 Build 0)  -->

<svg version="1.1" id="svg2913" inkscape:version="0.45.1" sodipodi:docname="Antarctica blank.svg" sodipodi:docbase="G:\Inkscape" inkscape:output_extension="org.inkscape.output.svg.inkscape" xmlns:svg="http://www.w3.org/2000/svg" xmlns:rdf="http://www.w3.org/1999/02/22-rdf-syntax-ns#" xmlns:cc="http://web.resource.org/cc/" xmlns:dc="http://purl.org/dc/elements/1.1/" inkscape:export-filename="D:\Wikip√©dia\Guatemala carte.svg" inkscape:export-xdpi="72.000000" xmlns:sodipodi="http://sodipodi.sourceforge.net/DTD/sodipodi-0.dtd" inkscape:export-ydpi="72.000000" xmlns:inkscape="http://www.inkscape.org/namespaces/inkscape" sodipodi:version="0.32" xmlns="http://www.w3.org/2000/svg" xmlns:xlink="http://www.w3.org/1999/xlink" x="0px" y="0px" width="804px" height="804px" viewBox="0 0 804 804" enable-background="new 0 0 804 804" xml:space="preserve">
<sodipodi:namedview width="804px" height="804px" showguides="true" bordercolor="#666666" pagecolor="#ffffff" borderopacity="1.0" inkscape:pageopacity="0.0" inkscape:pageshadow="2" inkscape:zoom="1" inkscape:cx="606.83958" inkscape:cy="1006.4754" inkscape:document-units="px" inkscape:current-layer="svg2913" inkscape:window-width="1600" inkscape:window-height="1149" inkscape:window-x="0" inkscape:window-y="22" inkscape:guide-bbox="true" id="base">
	</sodipodi:namedview>
<path fill="#FEFEE9" stroke="#0978AB" d="M 472.873 625.978 C 473.126 626.296 468.497 626.958 468.252 626.638 C 468.494 626.958 466.464 625.954 466.223 625.635 C 465.348 625.405 463.254 624.19 461.591 622.953 C 461.818 623.268 459.231 621.593 458.961 621.278 C 459.291 621.596 444.645 623.969 444.326 623.64 C 444.659 623.97 429.497 626.284 429.201 625.946 C 429.446 626.272 427.59 624.732 427.376 624.416 C 426.587 623.894 423.668 622.566 420.875 621.479 C 421.101 621.795 416.378 620.392 416.156 620.078 C 416.371 620.394 417.499 618.754 417.287 618.435 C 418.119 617.852 419.149 615.295 419.567 612.771 C 419.781 613.085 420.933 609.051 420.719 608.74 C 420.933 609.053 422.97 606.836 422.753 606.524 C 422.969 606.837 425.003 604.607 424.784 604.298 C 425.002 604.608 426.926 604.315 426.706 604.007 C 426.925 604.312 428.839 604.028 428.619 603.709 C 428.84 604.045 435.251 596.317 435.017 595.992 C 435.247 596.325 441.607 588.47 441.368 588.154 C 441.598 588.461 442.9 585.211 442.676 584.913 C 442.901 585.214 444.207 581.956 443.979 581.658 C 444.208 581.961 448.099 578.61 447.863 578.31 C 448.096 578.613 451.954 575.23 451.715 574.935 C 451.95 575.228 451.313 572.466 451.082 572.171 C 450.965 570.953 450.511 566.341 450.057 561.965 C 450.292 562.252 449.872 554.792 449.63 554.515 C 449.885 554.787 445.534 548.902 445.279 548.642 C 445.54 548.906 441.031 543.115 440.783 542.856 C 441.019 543.135 444.933 538.655 444.701 538.37 C 447.069 536.176 449.904 533.227 450.989 531.873 C 451.225 532.144 453.627 530.161 453.391 529.888 C 453.627 530.163 454.063 525.791 453.828 525.523 C 454.063 525.795 454.48 521.417 454.243 521.153 C 454.481 521.416 453.042 518.521 452.808 518.259 C 452.243 516.939 451.784 514.859 451.808 513.638 C 452.292 512.942 451.872 510.592 450.849 508.447 C 450.297 506.818 447.684 503.707 444.976 501.598 C 442.761 499.984 438.203 496.661 434.81 494.28 C 435.07 494.509 429.231 490.657 428.946 490.434 C 429.268 490.659 418.619 489.81 418.294 489.581 C 418.631 489.814 407.37 489.063 407.062 488.827 C 407.339 489.06 400.902 485.943 400.652 485.71 C 397.287 484.264 391.945 482.458 388.952 481.659 C 389.172 481.902 384.051 480.89 383.832 480.645 C 384.046 480.895 379.053 482.119 378.848 481.864 C 379.058 482.119 373.992 483.294 373.793 483.039 C 373.987 483.289 372.505 485.227 372.314 484.977 C 372.506 485.226 371.016 487.156 370.826 486.904 C 371.02 487.155 374.201 487.476 374.004 487.227 C 375.933 487.649 379.399 488.525 381.619 489.178 C 381.833 489.425 386.207 491.077 385.988 490.828 C 386.195 491.08 383.754 493.089 383.559 492.832 C 383.757 493.088 381.31 495.072 381.113 494.817 C 381.314 495.066 382.765 497.671 382.56 497.42 C 382.763 497.669 384.17 500.293 383.965 500.039 C 384.165 500.294 383.092 501.063 382.898 500.807 C 383.093 501.063 382.024 501.829 381.826 501.572 C 382.031 501.829 378.622 501.45 378.421 501.193 C 378.625 501.45 375.169 501.064 374.971 500.807 C 375.167 501.066 372.371 502.769 372.18 502.507 C 372.373 502.768 369.568 504.445 369.378 504.184 C 369.57 504.44 368.761 507.806 368.569 507.545 C 368.761 507.803 367.931 511.167 367.741 510.903 C 367.93 511.165 366.6 511.4 366.412 511.138 C 365.869 511.529 364.475 510.888 363.307 509.725 C 363.497 509.984 361.696 508.343 361.504 508.084 C 361.699 508.349 356.793 509.445 356.605 509.174 C 356.797 509.444 351.849 510.485 351.664 510.214 C 351.849 510.488 346.576 515.409 346.401 515.124 C 346.58 515.405 341.303 520.223 341.132 519.941 C 341.309 520.208 341.56 523.773 341.378 523.508 C 341.559 523.771 341.773 527.351 341.593 527.08 C 341.772 527.352 338.745 526.973 338.567 526.702 C 337.079 526.763 334.071 526.694 331.915 526.541 C 332.087 526.815 328.459 527.019 328.289 526.746 C 328.458 527.015 327.294 529.639 327.127 529.367 C 327.295 529.637 326.128 532.258 325.961 531.983 C 326.131 532.259 322.952 532.48 322.786 532.204 C 322.954 532.479 319.765 532.68 319.601 532.402 C 319.765 532.685 314.336 535.518 314.182 535.228 C 314.34 535.516 308.932 538.267 308.78 537.98 C 308.939 538.255 309.308 541.633 309.143 541.358 C 309.307 541.631 309.643 545.018 309.481 544.738 C 309.641 545.017 311.869 545.986 311.706 545.706 C 311.867 545.986 314.08 546.947 313.916 546.667 C 314.078 546.945 313.478 549.516 313.318 549.234 C 313.479 549.513 312.874 552.084 312.713 551.8 C 312.874 552.085 310.094 552.703 309.937 552.418 C 310.096 552.703 307.315 553.304 307.16 553.019 C 307.316 553.301 306.988 554.737 306.831 554.454 C 306.988 554.736 306.656 556.174 306.5 555.888 C 306.658 556.176 310.849 556.946 310.683 556.655 C 310.846 556.945 315.006 557.682 314.837 557.392 C 315.001 557.678 314.667 559.019 314.507 558.735 C 314.486 559.755 313.694 561.042 312.757 561.578 C 312.915 561.865 311.502 563.366 311.341 563.075 C 311.508 563.372 305.961 563.498 305.804 563.198 C 305.964 563.498 300.401 563.562 300.243 563.263 C 300.412 563.56 295.693 560.587 295.527 560.296 C 293.076 558.946 290.14 556.628 289.076 555.192 C 289.226 555.474 287.548 553.371 287.396 553.086 C 287.548 553.379 281.709 553.442 281.568 553.145 C 281.714 553.442 275.874 553.429 275.737 553.134 C 275.877 553.422 274.021 552.72 273.88 552.438 C 274.021 552.721 272.157 552.017 272.018 551.732 C 272.155 552.021 267.16 553.622 267.032 553.329 C 267.164 553.621 262.201 555.169 262.076 554.877 C 262.207 555.162 262.023 556.401 261.887 556.118 C 262.022 556.401 261.832 557.645 261.698 557.359 C 261.83 557.648 257.524 559.475 257.401 559.183 C 257.527 559.472 253.255 561.269 253.132 560.972 C 253.26 561.277 246.266 560.428 246.142 560.124 C 242.435 559.93 236.786 558.712 233.617 557.45 C 230.684 556.777 225.671 555.112 222.516 553.761 C 222.627 554.056 217.079 552.089 216.973 551.795 C 217.079 552.088 211.901 551.281 211.797 550.991 C 209.07 550.824 205.03 549.892 202.844 548.946 C 202.943 549.232 199.143 548.01 199.044 547.725 C 199.146 548.007 199.236 546.053 199.133 545.777 C 199.234 546.053 199.321 544.107 199.216 543.822 C 199.325 544.124 193.511 538.983 193.41 538.689 C 190.316 536.122 186.739 532.951 185.503 531.753 C 184.446 531.094 181.737 528.908 179.483 526.857 C 177.432 525.383 170.386 518.572 163.998 511.421 C 157.751 504.84 151.732 498.161 150.501 497.029 C 150.565 497.282 148.438 495.67 148.362 495.414 C 148.438 495.669 148.415 493.379 148.339 493.128 C 148.415 493.381 148.394 491.088 148.318 490.836 C 148.392 491.092 146.394 488.526 146.323 488.273 C 146.395 488.528 144.416 485.941 144.347 485.69 C 144.415 485.942 141.4 484.312 141.334 484.062 C 139.757 483.41 138.133 482.502 137.716 482.063 C 137.435 482.115 138.676 481.486 140.487 480.675 C 140.551 480.919 143.995 479.892 143.926 479.649 C 143.997 479.895 143.421 477.746 143.348 477.502 C 143.421 477.748 142.849 475.591 142.779 475.347 C 142.844 475.594 138.661 473.954 138.604 473.708 C 138.664 473.955 134.544 472.291 134.488 472.048 C 134.551 472.29 135.052 470.717 134.981 470.478 C 135.052 470.719 135.544 469.148 135.483 468.909 C 135.53 469.152 141.103 471.375 141.051 471.125 C 141.098 471.373 146.787 473.55 146.727 473.298 C 146.794 473.548 146.834 469.045 146.763 468.806 C 146.834 469.047 146.896 464.536 146.834 464.289 C 146.877 464.559 142.493 456.412 142.469 456.148 C 142.494 456.419 138.356 448.095 138.332 447.845 C 138.383 448.08 139.525 444.938 139.454 444.715 C 139.52 444.943 140.679 441.808 140.613 441.586 C 140.682 441.81 139.379 441.119 139.308 440.893 C 138.665 440.737 137.224 440.597 136.121 440.586 C 136.188 440.81 134.306 441.203 134.241 440.977 C 134.305 441.206 133.076 438.546 133.015 438.32 C 133.077 438.548 131.88 435.872 131.819 435.649 C 131.881 435.873 129.212 434.353 129.154 434.13 C 129.214 434.354 126.58 432.826 126.523 432.605 C 126.584 432.825 126.427 434.407 126.364 434.184 C 126.427 434.406 126.276 435.984 126.214 435.761 C 126.274 435.982 122.28 436.009 122.231 435.791 C 122.283 436.007 120.139 440.289 120.091 440.061 C 120.138 440.294 118.82 435.514 118.776 435.287 C 118.82 435.518 117.588 430.704 117.543 430.482 C 117.596 430.703 115.836 429.627 115.778 429.408 C 115.836 429.628 114.086 428.55 114.031 428.332 C 114.087 428.55 113.012 430.323 112.956 430.105 C 112.425 431.294 111.932 433.843 111.891 435.733 C 111.941 435.958 111.98 439.805 111.93 439.576 C 111.985 439.801 110.883 440.601 110.826 440.377 C 110.385 439.731 109.375 441.165 108.827 440.65 C 108.883 440.874 107.981 440.348 107.933 440.119 C 107.969 440.353 108.293 434.312 108.256 434.085 C 108.501 430.99 108.971 426.205 109.263 423.502 C 109.647 421.229 110.164 417.352 110.407 414.903 C 110.741 412.888 111.531 406.991 112.371 401.841 C 112.366 402.048 114.123 393.03 114.137 392.835 C 114.163 393.035 112.876 389.565 112.822 389.366 C 112.871 389.568 111.623 386.087 111.579 385.892 C 111.626 386.086 114.554 385.018 114.5 384.827 C 114.55 385.019 117.51 383.974 117.455 383.782 C 117.509 383.977 118.188 381.823 118.128 381.628 C 118.197 381.826 118.866 379.666 118.844 379.482 C 118.806 379.65 125.77 371.878 125.795 371.732 C 125.79 371.886 133.681 368.752 133.652 368.597 C 133.705 368.773 133.782 366.871 133.713 366.678 C 133.821 365.82 132.763 362.889 131.443 360.198 C 131.492 360.38 129.243 355.812 129.199 355.635 C 129.255 355.815 130.046 354.231 129.98 354.051 C 130.044 354.232 130.844 352.649 130.782 352.473 C 130.841 352.648 133.8 354.223 133.738 354.045 C 133.797 354.221 136.793 355.814 136.727 355.634 C 136.796 355.815 137.324 354.791 137.258 354.61 C 137.613 354.228 139.298 353.681 140.979 353.41 C 141.081 353.594 144.223 353.422 144.247 353.266 C 144.051 353.38 152.394 338.705 152.583 338.639 C 152.398 338.714 162.125 324.571 162.242 324.521 C 162.25 324.643 162.83 321.641 162.73 321.463 C 163.108 319.967 162.925 316.119 162.381 312.981 C 162.448 313.132 161.631 307.712 161.564 307.566 C 161.636 307.714 157.608 303.824 157.541 303.681 C 157.613 303.83 155.401 300.298 155.329 300.152 C 155.405 300.302 155.326 298.387 155.246 298.234 C 155.328 298.391 155.246 296.468 155.177 296.332 C 155.229 296.445 149.014 288.962 148.963 288.852 C 145.661 284.939 142.784 281.027 142.5 280.032 C 142.571 280.171 142.182 278.612 142.112 278.471 C 142.179 278.61 144.571 276.027 144.5 275.894 C 144.569 276.03 146.982 273.477 146.908 273.344 C 146.982 273.481 146.974 271.38 146.9 271.244 C 146.974 271.382 146.97 269.291 146.895 269.157 C 146.97 269.292 144.98 267.464 144.909 267.332 C 144.982 267.466 143 265.658 142.93 265.528 C 143.001 265.661 143.312 264.376 143.238 264.238 C 143.482 263.674 142.673 260.497 141.455 257.282 C 141.527 257.398 139.441 251.812 139.372 251.705 C 139.442 251.824 136.85 251.471 136.783 251.344 C 136.853 251.47 134.269 251.128 134.204 251.004 C 134.271 251.131 134.619 249.736 134.55 249.61 C 134.619 249.737 134.964 248.346 134.896 248.221 C 134.962 248.346 137.095 247.978 137.026 247.854 C 137.093 247.979 139.233 247.623 139.161 247.499 C 139.234 247.622 138.478 244.282 138.407 244.165 C 138.479 244.285 137.72 240.978 137.651 240.863 C 137.718 240.98 140.109 241.112 140.037 240.989 C 140.671 240.558 141.187 238.547 141.176 236.553 C 141.309 234.797 141.813 232.685 142.297 231.856 C 142.925 231.262 144.122 229.016 144.937 226.904 C 145.013 227.014 146.631 223.387 146.552 223.281 C 146.629 223.392 145.401 221.459 145.328 221.349 C 145.403 221.461 144.175 219.54 144.102 219.432 C 144.175 219.542 146.277 218.327 146.203 218.219 C 146.272 218.326 149.788 218.818 149.708 218.715 C 149.795 218.81 153.88 212.787 153.791 212.699 C 156.09 209.524 160.676 208.662 160.944 207.654 C 161.027 207.759 161.666 206.104 161.58 206.008 C 161.673 206.088 169.478 201.931 169.373 201.85 C 172.739 198.931 175.429 196.565 175.421 196.531 C 175.594 196.694 175.098 198.967 174.279 201.603 C 174.378 201.696 173.024 206.708 172.925 206.609 C 173.019 206.71 170.377 207.62 170.291 207.515 C 170.379 207.62 167.736 208.538 167.647 208.437 C 167.743 208.531 163.413 211.963 163.325 211.862 C 161.997 214.648 159.326 214.581 156.687 215.624 C 156.763 215.736 155.204 217.175 155.122 217.07 C 155.205 217.17 155.577 221.268 155.494 221.16 C 155.773 223.531 154.74 224.787 154.93 226.049 C 155.009 226.163 155.495 228.686 155.413 228.573 C 155.495 228.684 151.81 229.833 151.736 229.721 C 151.813 229.832 148.135 231.013 148.063 230.902 C 148.139 231.01 148.442 234.66 148.364 234.544 C 148.441 234.66 147.351 237.173 147.274 237.059 C 147.354 237.162 145.33 242.657 145.254 242.548 C 145.331 242.652 143.294 248.234 143.222 248.12 C 143.294 248.233 144.715 252.592 144.641 252.473 C 144.714 252.588 146.135 257.007 146.062 256.885 C 146.132 257.004 149.391 260.133 149.316 260.01 C 149.388 260.13 152.664 263.319 152.588 263.192 C 152.663 263.322 155.251 262.271 155.172 262.139 C 155.25 262.274 157.841 261.229 157.765 261.109 C 157.833 261.212 163.379 266.573 163.304 266.464 C 163.373 266.567 168.98 272.085 168.901 271.968 C 168.983 272.092 170.458 276.265 170.374 276.13 C 170.456 276.261 171.95 280.476 171.866 280.34 C 171.948 280.472 173.956 284.953 173.875 284.818 C 176.055 287.626 178.506 291.445 179.275 293.234 C 179.363 293.38 180.941 296.924 180.854 296.777 C 180.944 296.925 179.779 299.036 179.689 298.885 C 179.78 299.034 178.622 301.157 178.535 301.005 C 178.621 301.155 181.62 302.954 181.53 302.802 C 181.617 302.953 184.636 304.767 184.544 304.614 C 184.635 304.765 183.929 307.657 183.84 307.502 C 183.93 307.654 183.248 310.563 183.158 310.405 C 183.251 310.562 181.282 311.448 181.192 311.29 C 181.284 311.447 179.322 312.342 179.234 312.184 C 179.323 312.342 180.274 313.254 180.182 313.094 C 180.274 313.253 181.226 314.166 181.136 314.006 C 181.223 314.163 184.527 312.923 184.435 312.768 C 184.524 312.924 187.848 311.706 187.753 311.552 C 187.848 311.708 188.883 312.701 188.787 312.541 C 188.882 312.7 189.923 313.691 189.826 313.533 C 189.922 313.688 187.854 315.91 187.763 315.751 C 187.856 315.908 185.808 318.148 185.719 317.988 C 185.809 318.148 186.936 320.271 186.843 320.108 C 186.934 320.269 188.079 322.396 187.986 322.231 C 188.079 322.395 189.745 322.814 189.648 322.65 C 189.744 322.814 191.413 323.235 191.316 323.071 C 191.41 323.234 191.328 325.708 191.235 325.544 C 191.29 327.066 191.912 329.695 192.633 331.356 C 192.722 331.526 194.229 334.863 194.139 334.693 C 194.231 334.858 191.859 337.728 191.771 337.559 C 191.861 337.726 189.536 340.62 189.452 340.449 C 189.534 340.619 189.506 344.583 189.426 344.407 C 189.506 344.58 189.564 348.552 189.483 348.372 C 189.571 348.55 191.64 350.249 191.544 350.068 C 191.638 350.248 193.725 351.94 193.633 351.759 C 193.717 351.936 192.289 355.587 192.206 355.411 C 191.534 357.592 189.064 362.031 186.905 365.274 C 186.947 365.449 183.281 371.727 183.252 371.547 C 183.312 371.735 185.343 375.176 185.26 374.976 C 185.338 375.174 187.446 378.579 187.369 378.383 C 187.443 378.568 182.755 381.638 182.692 381.452 C 182.76 381.634 178.216 384.762 178.153 384.57 C 178.221 384.77 172.465 382.891 172.396 382.693 C 169.35 381.853 166.297 381.205 165.559 381.269 C 165.641 381.462 164.445 381.928 164.366 381.733 C 164.436 381.928 165.876 385.225 165.806 385.023 C 165.876 385.222 167.392 388.501 167.324 388.297 C 167.385 388.5 172.441 391.081 172.376 390.877 C 175.25 392.486 180.199 394.635 183.335 395.618 C 183.406 395.832 189.335 397.98 189.26 397.766 C 189.344 397.971 191.624 396.302 191.531 396.104 C 191.621 396.305 193.934 394.65 193.841 394.451 C 193.934 394.652 196.094 395.873 195.997 395.667 C 196.092 395.872 198.276 397.074 198.179 396.869 C 198.273 397.072 198.468 399.301 198.375 399.095 C 198.469 399.299 198.704 401.52 198.612 401.314 C 198.701 401.516 194.795 403.507 194.707 403.304 C 192.676 404.604 189.347 406.081 187.323 406.566 C 187.409 406.773 183.9 408.041 183.817 407.835 C 183.904 408.043 184.599 409.623 184.508 409.413 C 184.985 410.487 186.181 411.649 187.155 411.98 C 187.249 412.193 189.2 413.179 189.112 412.966 C 189.19 413.178 194.488 412.42 194.403 412.208 C 194.483 412.421 199.868 411.652 199.778 411.439 C 199.87 411.653 202.807 413.007 202.71 412.789 C 202.805 413.006 205.781 414.326 205.682 414.11 C 205.781 414.321 205.238 416.503 205.14 416.291 C 205.239 416.501 204.73 418.688 204.635 418.47 C 204.724 418.693 198.313 418.908 198.238 418.684 C 198.319 418.906 192.026 419.072 191.953 418.852 C 192.04 419.067 191.749 420.514 191.651 420.299 C 191.748 420.512 191.46 421.962 191.368 421.745 C 191.455 421.965 194.763 423.443 194.669 423.22 C 194.765 423.439 198.103 424.89 198.026 424.657 C 198.073 424.906 207.428 425.886 207.36 425.638 C 212.651 426.357 217.432 426.614 217.762 426.366 C 218.335 426.551 217.839 425.703 216.701 424.466 C 215.781 423.667 215.097 422.097 215.176 421.007 C 215.282 421.222 215.629 419.628 215.522 419.414 C 215.628 419.629 218.251 419.432 218.141 419.215 C 218.249 419.432 220.885 419.222 220.775 419.005 C 220.88 419.224 223.61 420.809 223.503 420.585 C 223.609 420.808 226.381 422.347 226.272 422.125 C 226.38 422.34 225.853 425.037 225.748 424.82 C 225.854 425.035 225.378 427.733 225.272 427.512 C 225.38 427.735 228.052 428.54 227.938 428.315 C 228.049 428.539 230.743 429.315 230.629 429.09 C 230.741 429.313 233.017 428.015 232.897 427.799 C 233.019 428.01 235.29 426.732 235.19 426.492 C 235.255 426.782 245.389 429.269 245.313 428.955 C 245.383 429.269 255.785 431.265 255.688 430.959 C 255.797 431.222 261.036 432.947 260.915 432.705 C 261.031 432.951 266.346 434.549 266.219 434.301 C 266.352 434.534 268.609 433.778 268.47 433.558 C 268.609 433.777 270.86 433.025 270.727 432.788 C 270.842 433.052 264.475 429.836 264.379 429.571 C 264.478 429.84 258.305 426.376 258.212 426.121 C 258.329 426.351 259.262 424.828 259.126 424.617 C 259.258 424.831 260.185 423.326 260.057 423.105 C 260.181 423.341 265.48 423.297 265.345 423.057 C 265.478 423.294 270.79 423.131 270.66 422.883 C 270.77 423.152 278.396 425.03 278.279 424.749 C 278.392 425.026 286.156 426.577 286.024 426.297 C 286.163 426.579 294.759 425.742 294.6 425.458 C 294.753 425.745 303.321 424.553 303.153 424.28 C 303.308 424.519 306.456 425.562 306.306 425.341 C 306.456 425.565 309.633 426.573 309.476 426.345 C 309.633 426.573 313.027 426.273 312.865 426.046 C 313.025 426.274 316.412 425.921 316.247 425.695 C 316.41 425.916 317.414 424.657 317.249 424.443 C 317.415 424.655 318.404 423.409 318.247 423.179 C 318.386 423.434 311.482 419.735 311.37 419.477 C 311.482 419.743 304.82 415.797 304.718 415.544 C 304.85 415.771 303.793 412.891 303.645 412.684 C 303.789 412.897 302.785 410.017 302.643 409.807 C 302.794 410.018 304.144 407.842 303.985 407.636 C 304.142 407.841 305.477 405.673 305.321 405.457 C 305.474 405.702 311.827 405.292 311.662 405.036 C 311.823 405.292 318.158 404.626 317.988 404.384 C 318.151 404.6 318.193 402.287 318.035 402.085 C 318.224 401.028 317.507 398.797 316.507 397.126 C 316.65 397.333 315.158 394.64 315.013 394.433 C 315.177 394.639 317.858 389.997 317.682 389.8 C 317.854 390.001 320.478 385.359 320.302 385.163 C 320.481 385.368 323.983 382.719 323.795 382.513 C 323.981 382.72 327.371 380.015 327.187 379.815 C 327.352 380.012 327.544 377.298 327.387 377.107 C 327.547 377.299 327.784 374.59 327.63 374.394 C 327.765 374.607 325.11 372.112 324.988 371.895 C 325.112 372.114 322.677 369.474 322.551 369.264 C 322.702 369.462 321.392 369.573 321.22 369.386 C 320.663 369.632 316.83 370.562 312.607 371.13 C 312.796 371.393 305.323 372.61 305.145 372.335 C 305.294 372.565 303.086 370.595 302.957 370.396 C 303.09 370.604 301.003 368.554 300.868 368.351 C 301.01 368.546 302.032 365.503 301.886 365.318 C 302.029 365.506 303.102 362.46 302.95 362.272 C 303.117 362.465 307.455 356.983 307.281 356.797 C 309.801 353.968 312.706 350.346 313.757 348.791 C 315.144 347.592 317.382 344.931 318.703 342.894 C 318.874 343.07 321.569 339.676 321.388 339.497 C 321.581 339.688 326.105 336.235 325.899 336.047 C 326.1 336.236 330.434 332.695 330.232 332.51 C 330.423 332.704 334.207 331.069 334.022 330.879 C 336.253 330.123 338.212 328.792 338.426 328.021 C 338.99 327.582 340.027 325.619 340.724 323.67 C 340.898 323.836 342.488 320.584 342.311 320.422 C 342.489 320.588 344.179 319.461 344 319.293 C 345.099 318.838 347.289 317.142 348.804 315.52 C 348.995 315.689 352.062 313.013 351.868 312.847 C 352.052 313.009 352.392 311.839 352.215 311.681 C 352.393 311.84 352.743 310.671 352.563 310.511 C 352.744 310.676 351.314 310.83 351.135 310.665 C 350.531 310.901 349.353 311.4 348.518 311.789 C 348.698 311.949 347.496 312.95 347.318 312.788 C 347.494 312.951 346.808 312.405 346.634 312.242 C 346.809 312.405 346.133 311.839 345.959 311.677 C 346.133 311.839 346.845 309.741 346.669 309.584 C 346.844 309.742 347.565 307.645 347.387 307.485 C 347.569 307.654 350.338 306.294 350.149 306.123 C 350.334 306.295 353.059 304.856 352.871 304.69 C 353.053 304.85 353.541 303.373 353.363 303.22 C 353.54 303.374 354.04 301.9 353.856 301.744 C 354.049 301.904 357.463 298.011 357.268 297.857 C 359.307 295.868 360.922 293.681 360.895 293.026 C 361.238 292.665 361.264 291.759 360.961 291.005 C 361.143 291.156 360.931 290.047 360.747 289.896 C 360.935 290.047 363.493 286.638 363.301 286.493 C 364.884 284.769 366.234 283.213 366.313 283.046 C 366.769 283.163 367.081 284.269 367.04 285.45 C 367.219 285.605 367.503 288.001 367.324 287.841 C 367.508 287.995 368.737 287.542 368.547 287.393 C 368.736 287.543 369.96 287.076 369.772 286.926 C 369.959 287.074 371.131 284.553 370.943 284.408 C 371.776 283.17 372.938 281.137 373.507 279.91 C 374.46 278.963 375.332 278.028 375.442 277.83 C 375.634 277.972 376.185 277.865 375.993 277.723 C 376.185 277.864 375.242 279.939 375.052 279.795 C 375.243 279.937 374.304 282.012 374.115 281.866 C 374.304 282.014 375.115 282.232 374.924 282.085 C 375.114 282.229 375.93 282.435 375.74 282.281 C 375.928 282.448 379.472 280.862 379.278 280.696 C 379.468 280.862 383.019 279.161 382.824 279.001 C 383.014 279.158 384.579 279.589 384.39 279.435 C 385.45 279.804 386.893 279.693 387.563 279.221 C 387.759 279.368 389.343 278.766 389.146 278.62 C 389.343 278.763 390.467 277.035 390.268 276.896 C 390.466 277.037 391.592 275.316 391.393 275.175 C 391.591 275.319 394.96 272.645 394.756 272.507 C 394.957 272.646 398.323 269.972 398.122 269.831 C 398.313 269.986 403.096 267.728 402.902 267.574 C 403.091 267.727 407.946 265.383 407.746 265.239 C 407.951 265.377 409.243 264.11 409.032 263.979 C 409.242 264.112 410.53 262.856 410.323 262.721 C 410.524 262.861 413.703 261.6 413.498 261.462 C 413.701 261.6 416.918 260.316 416.712 260.178 C 416.911 260.322 418.418 261.454 418.22 261.305 C 418.416 261.452 420.009 262.509 419.807 262.362 C 420.017 262.5 421.036 262.05 420.821 261.917 C 421.593 261.807 422.519 261.064 422.869 260.276 C 423.085 260.408 424.119 259.216 423.904 259.085 C 424.117 259.216 426.281 258.018 426.064 257.889 C 426.28 258.019 428.451 256.83 428.235 256.701 C 428.446 256.834 430.566 256.725 430.353 256.59 C 430.565 256.725 432.723 256.594 432.51 256.463 C 432.721 256.588 437.032 254.49 436.813 254.372 C 437.029 254.491 441.372 252.447 441.153 252.326 C 441.361 252.458 443.99 253.161 443.783 253.024 C 445.462 253.531 448.182 253.928 449.789 253.921 C 450.006 254.055 453.375 254.276 453.163 254.154 C 453.366 254.256 460.796 252.43 460.579 252.331 C 464.91 251.489 469.477 250.452 470.608 249.916 C 470.852 250.038 473.364 249.295 473.125 249.172 C 473.361 249.294 476.149 249.312 475.91 249.189 C 476.147 249.312 478.959 249.352 478.719 249.232 C 478.956 249.345 483.926 247.928 483.68 247.82 C 483.921 247.929 488.908 246.606 488.659 246.495 C 488.904 246.615 491.624 244.87 491.376 244.749 C 491.621 244.872 494.362 243.143 494.111 243.024 C 494.362 243.146 494.966 243.338 494.712 243.213 C 494.97 243.337 495.561 243.529 495.324 243.404 C 495.535 243.529 496.287 247.236 496.079 247.105 C 496.286 247.231 497.272 250.925 497.057 250.795 C 497.292 250.919 499.992 252.108 499.741 251.986 C 499.986 252.107 502.723 253.334 502.472 253.21 C 502.725 253.335 505.236 252.657 504.977 252.533 C 505.234 252.658 507.744 252.001 507.486 251.876 C 507.739 252.003 510.158 250.361 509.902 250.237 C 510.156 250.363 512.602 248.735 512.343 248.612 C 512.604 248.736 514.574 248.75 514.314 248.626 C 515.653 248.761 518.849 248.663 521.388 248.461 C 521.653 248.574 526.771 248.464 526.501 248.353 C 526.77 248.473 528.016 248.878 527.749 248.751 C 528.702 249.097 530.888 249.396 532.593 249.438 C 534.84 249.727 537.72 249.874 538.967 249.75 C 539.243 249.873 542.021 249.883 541.744 249.76 C 542.018 249.885 542.689 251.147 542.415 251.02 C 543.062 251.842 543.889 252.705 544.236 252.93 C 544.513 253.058 545.652 253.707 545.375 253.579 C 545.651 253.706 547.716 253.667 547.436 253.54 C 547.715 253.667 549.78 253.64 549.499 253.512 C 549.778 253.641 549.947 252.495 549.669 252.367 C 549.947 252.496 550.131 251.353 549.852 251.226 C 550.131 251.353 551.296 251.727 551.014 251.599 C 551.295 251.726 552.459 252.105 552.177 251.977 C 552.458 252.104 552.308 253.059 552.029 252.93 C 552.309 253.058 552.169 254.014 551.889 253.884 C 552.169 254.012 553.277 254.911 552.995 254.783 C 553.276 254.91 554.388 255.819 554.106 255.689 C 554.388 255.819 555.687 255.826 555.403 255.696 C 555.687 255.826 556.984 255.836 556.701 255.707 C 556.98 255.837 557.908 254.182 557.627 254.054 C 558.427 253.277 559.206 252.537 559.335 252.413 C 560.032 252.545 561.853 252.848 563.367 253.104 C 563.654 253.229 566.935 253.941 566.644 253.819 C 566.932 253.94 569.926 255.511 569.638 255.388 C 571.572 256.385 573.747 257.896 574.454 258.72 C 574.747 258.848 576.576 260.599 576.286 260.471 C 576.571 260.596 576.816 263.471 576.533 263.342 C 576.816 263.468 577.117 266.379 576.83 266.247 C 577.123 266.38 574.855 266.232 574.562 266.097 C 574.857 266.232 572.584 266.091 572.294 265.959 C 572.583 266.089 573.776 267.791 573.484 267.656 C 574.436 268.733 573.608 269.325 573.847 270.545 C 574.125 270.665 575.351 274.842 575.071 274.717 C 575.36 274.848 577.583 276.501 577.287 276.364 C 578.376 277.247 580.529 278.529 581.132 280.034 C 581.426 280.168 583.082 283.193 582.788 283.058 C 583.083 283.195 584.922 284.897 584.621 284.751 C 584.924 284.903 586.747 286.594 586.46 286.483 C 586.724 286.539 589.525 295.395 589.247 295.312 C 592.314 299.835 597.072 302.948 597.171 303.228 C 597.483 303.39 598.24 304.207 597.938 304.056 C 598.242 304.208 597.195 305.032 596.892 304.876 C 597.195 305.032 596.155 305.857 595.852 305.706 C 596.156 305.849 589.861 305.106 589.563 304.963 C 586.416 304.724 582.317 304.398 580.486 304.196 C 580.779 304.348 577.974 304.264 577.681 304.113 C 577.974 304.264 578.207 305.689 577.913 305.534 C 578.207 305.687 578.443 307.124 578.148 306.969 C 578.442 307.122 577.006 308.342 576.715 308.187 C 577.007 308.341 575.586 309.578 575.296 309.423 C 575.588 309.576 576.287 311.458 575.992 311.302 C 576.286 311.456 576.984 313.358 576.689 313.202 C 576.985 313.354 572.93 312.943 572.641 312.792 C 572.934 312.942 568.884 312.576 568.599 312.425 C 568.887 312.581 569.178 313.341 568.888 313.182 C 569.336 313.757 570.393 314.573 571.22 314.993 C 571.514 315.155 573.547 316.21 573.257 316.062 C 573.54 316.192 581.677 317.232 581.38 317.103 C 581.668 317.233 589.826 318.439 589.523 318.302 C 589.826 318.453 591.936 320.531 591.631 320.368 C 591.934 320.527 594.032 322.623 593.726 322.462 C 594.03 322.623 594.52 324.187 594.217 324.023 C 594.52 324.185 595.009 325.762 594.705 325.596 C 595.009 325.762 595.758 325.871 595.457 325.707 C 596.167 325.931 598.642 327.733 600.896 329.754 C 601.209 329.908 605.86 333.927 605.54 333.768 C 605.852 333.934 607.825 334.266 607.516 334.095 C 607.824 334.265 609.804 334.6 609.492 334.432 C 609.803 334.598 612.495 336.32 612.179 336.151 C 612.492 336.32 615.176 338.056 614.858 337.888 C 615.176 338.05 617.557 341.661 617.238 341.494 C 618.853 343.657 620.548 345.907 621.004 346.446 C 622.099 347.343 623.022 347.93 623.055 347.746 C 623.725 347.918 624.497 348.051 624.767 348.042 C 625.086 348.22 626.159 348.526 625.839 348.351 C 626.159 348.522 626.253 351.128 625.933 350.953 C 626.253 351.125 626.343 353.757 626.023 353.581 C 626.344 353.756 628.436 356.425 628.112 356.246 C 628.434 356.422 630.512 359.11 630.186 358.929 C 630.509 359.11 630.352 360.375 630.031 360.191 C 630.352 360.376 630.198 361.64 629.874 361.463 C 630.203 361.629 633.32 367.362 632.983 367.187 C 633.317 367.357 636.371 373.168 636.034 372.987 C 636.364 373.168 636.508 376.708 636.181 376.521 C 636.508 376.705 636.639 380.281 636.311 380.094 C 636.641 380.276 638.653 385.288 638.317 385.099 C 638.651 385.284 640.618 390.346 640.282 390.152 C 640.613 390.346 640.644 393.313 640.316 393.115 C 640.645 393.311 640.666 396.299 640.336 396.102 C 640.668 396.294 641.906 400.982 641.571 400.783 C 641.905 400.978 643.105 405.704 642.77 405.5 C 643.101 405.704 642.363 407.406 642.037 407.199 C 642.364 407.405 641.628 409.114 641.298 408.911 C 641.634 409.107 642.566 414.672 642.229 414.468 C 643.058 417.741 643.82 421.18 643.949 422.043 C 644.279 422.261 645.115 424.236 644.785 424.02 C 645.114 424.236 646.168 424.403 645.838 424.188 C 646.746 424.495 647.499 425.145 647.502 425.624 C 647.833 425.842 648.442 427.112 648.11 426.896 C 648.443 427.108 646.547 429.145 646.217 428.93 C 646.549 429.143 644.648 431.207 644.32 430.991 C 644.649 431.208 645.654 433.633 645.322 433.412 C 645.653 433.632 646.649 436.059 646.317 435.838 C 646.65 436.055 646.867 439.774 646.533 439.551 C 646.866 439.773 647.06 443.502 646.726 443.285 C 647.06 443.483 640.576 446.26 640.245 446.066 C 638.135 451.521 636.217 459.545 635.655 458.848 C 633.198 453.531 636.022 462.532 635.042 463.226 C 635.372 463.458 634.205 466.039 633.881 465.803 C 634.204 466.04 634.962 468.231 634.637 467.993 C 635.375 469.432 635.711 471.452 635.378 472.462 C 635.704 472.704 635.686 474.991 635.36 474.749 C 635.685 474.99 636.917 476.984 636.592 476.74 C 636.916 476.983 638.147 478.977 637.819 478.734 C 638.151 478.972 638.398 484.409 638.063 484.163 C 638.397 484.405 638.6 489.858 638.267 489.607 C 638.596 489.857 637.455 491.16 637.129 490.912 C 636.831 491.879 634.947 492.817 632.956 493.002 C 633.281 493.25 630.238 494.058 629.916 493.811 C 630.239 494.06 629.859 496.333 629.536 496.081 C 629.648 497.58 629.084 499.256 628.291 499.788 C 628.612 500.043 627.749 501.483 627.428 501.228 C 627.75 501.483 626.048 501.437 625.73 501.182 C 626.048 501.438 624.35 501.395 624.027 501.145 C 624.359 501.387 620.752 505.668 620.425 505.419 C 620.755 505.664 617.083 510.004 616.758 509.752 C 617.084 510.005 615.224 515.105 614.9 514.844 C 615.225 515.101 613.312 520.22 612.988 519.957 C 613.316 520.216 612.039 527.73 611.711 527.459 C 612.04 527.724 610.677 535.246 610.352 534.969 C 610.67 535.242 609.235 537.911 608.922 537.638 C 609.237 537.909 607.787 540.587 607.475 540.311 C 607.787 540.586 607.655 543.228 607.344 542.949 C 607.655 543.226 607.516 545.866 607.205 545.586 C 607.517 545.863 605.345 546.813 605.034 546.537 C 604.151 547.339 601.764 547.899 599.747 547.785 C 600.056 548.061 596.931 548.369 596.624 548.094 C 596.934 548.37 595.205 551.852 594.897 551.57 C 595.206 551.849 593.45 555.334 593.144 555.049 C 593.447 555.332 594.151 558.568 593.847 558.283 C 594.536 560.342 594.703 562.72 594.218 563.546 C 594.52 563.836 594.195 565.867 593.884 565.581 C 594.207 565.863 589.976 571.977 589.657 571.689 C 587.626 575.335 583.927 580.232 581.494 582.521 C 581.802 582.819 577.889 587.544 577.584 587.245 C 577.884 587.544 575.858 587.734 575.564 587.436 C 575.86 587.734 573.827 587.932 573.535 587.633 C 573.827 587.933 573.03 589.17 572.736 588.87 C 572.592 589.849 569.631 591.997 566.104 593.659 C 563.179 595.916 558.229 599.073 555.164 600.636 C 552.672 602.813 549.802 604.424 548.854 604.197 C 548.463 604.588 547.061 605.438 545.734 606.083 C 544.973 607.345 542.206 608.966 539.584 609.682 C 539.867 609.991 535.573 611.871 535.294 611.56 C 535.569 611.872 534.874 610.178 534.603 609.868 C 534.873 610.18 534.185 608.485 533.906 608.178 C 534.197 608.481 528.298 609.578 528.015 609.273 C 528.304 609.577 522.317 610.709 522.04 610.402 C 522.31 610.712 520.844 610.115 520.58 609.804 C 520.845 610.115 519.381 609.52 519.111 609.211 C 519.391 609.519 514.309 612.663 514.035 612.349 C 514.314 612.66 509.161 615.801 508.893 615.484 C 509.157 615.799 507.118 614.743 506.859 614.432 C 507.12 614.745 505.074 613.699 504.813 613.388 C 505.079 613.7 501.343 615.663 501.081 615.348 C 501.346 615.662 497.572 617.623 497.315 617.307 C 497.572 617.622 495.425 620.056 495.171 619.737 C 495.427 620.054 493.269 622.48 493.017 622.159 C 493.27 622.477 491.41 621.579 491.157 621.264 C 490.387 621.088 488.568 620.833 487.125 620.696 C 486.186 621.189 483.523 622.312 481.214 623.173 C 481.464 623.493 477.696 625.638 477.446 625.317 C 477.701 625.636 473.122 626.296 472.873 625.978"></path>
</svg>
