<svg version="1.1" id="svg2913" inkscape:version="0.45.1" sodipodi:docname="Antarctica blank.svg" sodipodi:docbase="G:\Inkscape" inkscape:output_extension="org.inkscape.output.svg.inkscape" xmlns:svg="http://www.w3.org/2000/svg" xmlns:rdf="http://www.w3.org/1999/02/22-rdf-syntax-ns#" xmlns:cc="http://web.resource.org/cc/" xmlns:dc="http://purl.org/dc/elements/1.1/" inkscape:export-filename="D:\Wikip√©dia\Guatemala carte.svg" inkscape:export-xdpi="72.000000" xmlns:sodipodi="http://sodipodi.sourceforge.net/DTD/sodipodi-0.dtd" inkscape:export-ydpi="72.000000" xmlns:inkscape="http://www.inkscape.org/namespaces/inkscape" sodipodi:version="0.32" xmlns="http://www.w3.org/2000/svg" xmlns:xlink="http://www.w3.org/1999/xlink" x="0px" y="0px" width="804px" height="804px" viewBox="0 0 804 804" enable-background="new 0 0 804 804" xml:space="preserve"><defs></defs><path d="M508.5 663.885009765625 C 508.5 663.885009765625 503.35400390625 663.8729858398438 503.35400390625 663.8729858398438 C 503.35400390625 663.8729858398438 500.6300048828125 662.2919921875 500.6300048828125 662.2919921875 C 499.1310119628906 661.4219970703125 496.2860107421875 659.572998046875 494.3070068359375 658.1840209960938 C 494.3070068359375 658.1840209960938 490.7090148925781 655.6580200195312 490.7090148925781 655.6580200195312 C 490.7090148925781 655.6580200195312 475.26800537109375 655.947998046875 475.26800537109375 655.947998046875 C 475.26800537109375 655.947998046875 459.8269958496094 656.2379760742188 459.8269958496094 656.2379760742188 C 459.8269958496094 656.2379760742188 457.3399963378906 653.9920043945312 457.3399963378906 653.9920043945312 C 455.97198486328125 652.7570190429688 452.45001220703125 650.5889892578125 449.5140075683594 649.1740112304688 C 449.5140075683594 649.1740112304688 444.17498779296875 646.6019897460938 444.17498779296875 646.6019897460938 C 444.17498779296875 646.6019897460938 444.7510070800781 644.6929931640625 444.7510070800781 644.6929931640625 C 445.0679931640625 643.6420288085938 445.22198486328125 640.5670166015625 445.0929870605469 637.8579711914062 C 445.0929870605469 637.8579711914062 444.8590087890625 632.9340209960938 444.8590087890625 632.9340209960938 C 444.8590087890625 632.9340209960938 446.1709899902344 630.4949951171875 446.1709899902344 630.4949951171875 C 446.1709899902344 630.4949951171875 447.4830017089844 628.0560302734375 447.4830017089844 628.0560302734375 C 447.4830017089844 628.0560302734375 449.3699951171875 628.0560302734375 449.3699951171875 628.0560302734375 C 449.3699951171875 628.0560302734375 451.2560119628906 628.0560302734375 451.2560119628906 628.0560302734375 C 451.2560119628906 628.0560302734375 455.24798583984375 619.64599609375 455.24798583984375 619.64599609375 C 455.24798583984375 619.64599609375 459.239990234375 611.2360229492188 459.239990234375 611.2360229492188 C 459.239990234375 611.2360229492188 459.4989929199219 607.5070190429688 459.4989929199219 607.5070190429688 C 459.4989929199219 607.5070190429688 459.7590026855469 603.7780151367188 459.7590026855469 603.7780151367188 C 459.7590026855469 603.7780151367188 462.79400634765625 600.56201171875 462.79400634765625 600.56201171875 C 462.79400634765625 600.56201171875 465.8290100097656 597.3460083007812 465.8290100097656 597.3460083007812 C 465.8290100097656 597.3460083007812 464.16900634765625 593.81201171875 464.16900634765625 593.81201171875 C 463.2569885253906 591.8679809570312 461.1709899902344 586.1329956054688 459.53399658203125 581.0679931640625 C 459.53399658203125 581.0679931640625 456.5589904785156 571.8579711914062 456.5589904785156 571.8579711914062 C 456.5589904785156 571.8579711914062 449.9360046386719 563.468017578125 449.9360046386719 563.468017578125 C 449.9360046386719 563.468017578125 443.31201171875 555.0780029296875 443.31201171875 555.0780029296875 C 443.31201171875 555.0780029296875 446.010986328125 550.7310180664062 446.010986328125 550.7310180664062 C 447.4949951171875 548.3389892578125 449.6059875488281 545.6439819335938 450.6990051269531 544.739990234375 C 450.6990051269531 544.739990234375 452.6889953613281 543.094970703125 452.6889953613281 543.094970703125 C 452.6889953613281 543.094970703125 451.8210144042969 537.97900390625 451.8210144042969 537.97900390625 C 451.8210144042969 537.97900390625 450.9530029296875 532.8629760742188 450.9530029296875 532.8629760742188 C 450.9530029296875 532.8629760742188 448.53399658203125 528.9140014648438 448.53399658203125 528.9140014648438 C 447.2030029296875 526.7429809570312 446.1130065917969 524.093017578125 446.1099853515625 523.0260009765625 C 446.10699462890625 521.958984375 444.9849853515625 519.0050048828125 443.6159973144531 516.4619750976562 C 442.2460021972656 513.9190063476562 438.62799072265625 509.26300048828125 435.57501220703125 506.114013671875 C 432.52099609375 502.96600341796875 427.0589904785156 497.2699890136719 423.43499755859375 493.4580078125 C 423.43499755859375 493.4580078125 416.84698486328125 486.5270080566406 416.84698486328125 486.5270080566406 C 416.84698486328125 486.5270080566406 406.7099914550781 481.4739990234375 406.7099914550781 481.4739990234375 C 406.7099914550781 481.4739990234375 396.572998046875 476.4200134277344 396.572998046875 476.4200134277344 C 396.572998046875 476.4200134277344 390.5159912109375 470.1340026855469 390.5159912109375 470.1340026855469 C 387.1839904785156 466.677001953125 382.5849914550781 462.47198486328125 380.2950134277344 460.7900085449219 C 380.2950134277344 460.7900085449219 376.1319885253906 457.73199462890625 376.1319885253906 457.73199462890625 C 376.1319885253906 457.73199462890625 372.48199462890625 457.73199462890625 372.48199462890625 457.73199462890625 C 372.48199462890625 457.73199462890625 368.8320007324219 457.73199462890625 368.8320007324219 457.73199462890625 C 368.8320007324219 457.73199462890625 368 459.8919982910156 368 459.8919982910156 C 368 459.8919982910156 367.1669921875 462.0509948730469 367.1669921875 462.0509948730469 C 367.1669921875 462.0509948730469 369.5979919433594 463.4129943847656 369.5979919433594 463.4129943847656 C 370.93499755859375 464.1619873046875 373.7019958496094 466.3739929199219 375.74700927734375 468.3290100097656 C 375.74700927734375 468.3290100097656 379.46600341796875 471.8819885253906 379.46600341796875 471.8819885253906 C 379.46600341796875 471.8819885253906 377.8919982910156 473.77099609375 377.8919982910156 473.77099609375 C 377.8919982910156 473.77099609375 376.3179931640625 475.65899658203125 376.3179931640625 475.65899658203125 C 376.3179931640625 475.65899658203125 377.9339904785156 479.5429992675781 377.9339904785156 479.5429992675781 C 377.9339904785156 479.5429992675781 379.54998779296875 483.427001953125 379.54998779296875 483.427001953125 C 379.54998779296875 483.427001953125 378.843994140625 484.1300048828125 378.843994140625 484.1300048828125 C 378.843994140625 484.1300048828125 378.13800048828125 484.8330078125 378.13800048828125 484.8330078125 C 378.13800048828125 484.8330078125 375.37200927734375 483.3599853515625 375.37200927734375 483.3599853515625 C 375.37200927734375 483.3599853515625 372.6059875488281 481.885986328125 372.6059875488281 481.885986328125 C 372.6059875488281 481.885986328125 370.75799560546875 483.4119873046875 370.75799560546875 483.4119873046875 C 370.75799560546875 483.4119873046875 368.9110107421875 484.93798828125 368.9110107421875 484.93798828125 C 368.9110107421875 484.93798828125 368.9110107421875 489.26300048828125 368.9110107421875 489.26300048828125 C 368.9110107421875 489.26300048828125 368.9110107421875 493.5880126953125 368.9110107421875 493.5880126953125 C 368.9110107421875 493.5880126953125 367.9339904785156 493.5880126953125 367.9339904785156 493.5880126953125 C 367.39599609375 493.5880126953125 366.21099853515625 492.3999938964844 365.29998779296875 490.9469909667969 C 365.29998779296875 490.9469909667969 363.64300537109375 488.3059997558594 363.64300537109375 488.3059997558594 C 363.64300537109375 488.3059997558594 360.177001953125 488.7049865722656 360.177001953125 488.7049865722656 C 360.177001953125 488.7049865722656 356.71099853515625 489.10400390625 356.71099853515625 489.10400390625 C 356.71099853515625 489.10400390625 353.6910095214844 494.8599853515625 353.6910095214844 494.8599853515625 C 353.6910095214844 494.8599853515625 350.6709899902344 500.61700439453125 350.6709899902344 500.61700439453125 C 350.6709899902344 500.61700439453125 351.4679870605469 505.5780029296875 351.4679870605469 505.5780029296875 C 351.4679870605469 505.5780029296875 352.2650146484375 510.53900146484375 352.2650146484375 510.53900146484375 C 352.2650146484375 510.53900146484375 349.9729919433594 509.572998046875 349.9729919433594 509.572998046875 C 348.7130126953125 509.0429992675781 346.52398681640625 508.5419921875 345.1090087890625 508.46099853515625 C 345.1090087890625 508.46099853515625 342.5360107421875 508.31500244140625 342.5360107421875 508.31500244140625 C 342.5360107421875 508.31500244140625 342.1289978027344 511.83599853515625 342.1289978027344 511.83599853515625 C 342.1289978027344 511.83599853515625 341.72198486328125 515.3569946289062 341.72198486328125 515.3569946289062 C 341.72198486328125 515.3569946289062 339.4750061035156 515.3569946289062 339.4750061035156 515.3569946289062 C 339.4750061035156 515.3569946289062 337.2279968261719 515.3569946289062 337.2279968261719 515.3569946289062 C 337.2279968261719 515.3569946289062 333.8059997558594 518.9130249023438 333.8059997558594 518.9130249023438 C 333.8059997558594 518.9130249023438 330.38299560546875 522.469970703125 330.38299560546875 522.469970703125 C 330.38299560546875 522.469970703125 331.1570129394531 527.2169799804688 331.1570129394531 527.2169799804688 C 331.1570129394531 527.2169799804688 331.9309997558594 531.9639892578125 331.9309997558594 531.9639892578125 C 331.9309997558594 531.9639892578125 333.6960144042969 533.4219970703125 333.6960144042969 533.4219970703125 C 333.6960144042969 533.4219970703125 335.46099853515625 534.8800048828125 335.46099853515625 534.8800048828125 C 335.46099853515625 534.8800048828125 335.46099853515625 538.4290161132812 335.46099853515625 538.4290161132812 C 335.46099853515625 538.4290161132812 335.46099853515625 541.9769897460938 335.46099853515625 541.9769897460938 C 335.46099853515625 541.9769897460938 333.531005859375 542.7130126953125 333.531005859375 542.7130126953125 C 333.531005859375 542.7130126953125 331.60101318359375 543.4500122070312 331.60101318359375 543.4500122070312 C 331.60101318359375 543.4500122070312 331.60101318359375 545.4429931640625 331.60101318359375 545.4429931640625 C 331.60101318359375 545.4429931640625 331.60101318359375 547.4359741210938 331.60101318359375 547.4359741210938 C 331.60101318359375 547.4359741210938 334.8169860839844 548.6530151367188 334.8169860839844 548.6530151367188 C 334.8169860839844 548.6530151367188 338.0329895019531 549.8699951171875 338.0329895019531 549.8699951171875 C 338.0329895019531 549.8699951171875 338.0329895019531 551.718994140625 338.0329895019531 551.718994140625 C 338.0329895019531 552.7349853515625 337.6820068359375 554.47802734375 337.25201416015625 555.5919799804688 C 337.25201416015625 555.5919799804688 336.47100830078125 557.6170043945312 336.47100830078125 557.6170043945312 C 336.47100830078125 557.6170043945312 332.3580017089844 557.6170043945312 332.3580017089844 557.6170043945312 C 332.3580017089844 557.6170043945312 328.2449951171875 557.6170043945312 328.2449951171875 557.6170043945312 C 328.2449951171875 557.6170043945312 324.2869873046875 553.4559936523438 324.2869873046875 553.4559936523438 C 322.1109924316406 551.1669921875 319.6520080566406 547.97998046875 318.8240051269531 546.3759765625 C 318.8240051269531 546.3759765625 317.3190002441406 543.458984375 317.3190002441406 543.458984375 C 317.3190002441406 543.458984375 313.15301513671875 543.7379760742188 313.15301513671875 543.7379760742188 C 313.15301513671875 543.7379760742188 308.98699951171875 544.0170288085938 308.98699951171875 544.0170288085938 C 308.98699951171875 544.0170288085938 307.5790100097656 543.1510009765625 307.5790100097656 543.1510009765625 C 307.5790100097656 543.1510009765625 306.1709899902344 542.2849731445312 306.1709899902344 542.2849731445312 C 306.1709899902344 542.2849731445312 302.8030090332031 544.9219970703125 302.8030090332031 544.9219970703125 C 302.8030090332031 544.9219970703125 299.43499755859375 547.5590209960938 299.43499755859375 547.5590209960938 C 299.43499755859375 547.5590209960938 299.43499755859375 549.3209838867188 299.43499755859375 549.3209838867188 C 299.43499755859375 549.3209838867188 299.43499755859375 551.083984375 299.43499755859375 551.083984375 C 299.43499755859375 551.083984375 296.5400085449219 554.1079711914062 296.5400085449219 554.1079711914062 C 296.5400085449219 554.1079711914062 293.6449890136719 557.1320190429688 293.6449890136719 557.1320190429688 C 293.6449890136719 557.1320190429688 288.4989929199219 556.8939819335938 288.4989929199219 556.8939819335938 C 285.66900634765625 556.7630004882812 281.47198486328125 556.0079956054688 279.1719970703125 555.2160034179688 C 276.87200927734375 554.4240112304688 273.1090087890625 553.1110229492188 270.80999755859375 552.2979736328125 C 270.80999755859375 552.2979736328125 266.62799072265625 550.8200073242188 266.62799072265625 550.8200073242188 C 266.62799072265625 550.8200073242188 262.7690124511719 550.958984375 262.7690124511719 550.958984375 C 260.64599609375 551.0360107421875 257.60699462890625 550.8250122070312 256.0150146484375 550.4920043945312 C 256.0150146484375 550.4920043945312 253.1199951171875 549.885009765625 253.1199951171875 549.885009765625 C 253.1199951171875 549.885009765625 253.1199951171875 547.1840209960938 253.1199951171875 547.1840209960938 C 253.1199951171875 547.1840209960938 253.1199951171875 544.4819946289062 253.1199951171875 544.4819946289062 C 253.1199951171875 544.4819946289062 248.6199951171875 539.2050170898438 248.6199951171875 539.2050170898438 C 246.14500427246094 536.302001953125 243.39500427246094 533.2169799804688 242.50900268554688 532.3499755859375 C 241.6230010986328 531.4819946289062 239.531005859375 529.4639892578125 237.86099243164062 527.8679809570312 C 236.1909942626953 526.27001953125 230.75399780273438 519.7769775390625 225.781005859375 513.43798828125 C 220.8070068359375 507.0989990234375 215.9510040283203 501.4519958496094 214.98899841308594 500.88800048828125 C 214.98899841308594 500.88800048828125 213.23899841308594 499.864013671875 213.23899841308594 499.864013671875 C 213.23899841308594 499.864013671875 213.23899841308594 496.97100830078125 213.23899841308594 496.97100830078125 C 213.23899841308594 496.97100830078125 213.23899841308594 494.0769958496094 213.23899841308594 494.0769958496094 C 213.23899841308594 494.0769958496094 211.59500122070312 491.8399963378906 211.59500122070312 491.8399963378906 C 211.59500122070312 491.8399963378906 209.95199584960938 489.60400390625 209.95199584960938 489.60400390625 C 209.95199584960938 489.60400390625 207.41400146484375 489.13299560546875 207.41400146484375 489.13299560546875 C 206.01800537109375 488.87298583984375 204.63099670410156 488.61700439453125 204.33099365234375 488.5639953613281 C 204.031005859375 488.510986328125 205.0959930419922 487.0769958496094 206.69900512695312 485.37799072265625 C 206.69900512695312 485.37799072265625 209.61300659179688 482.2909851074219 209.61300659179688 482.2909851074219 C 209.61300659179688 482.2909851074219 209.125 479.9360046386719 209.125 479.9360046386719 C 209.125 479.9360046386719 208.63699340820312 477.58099365234375 208.63699340820312 477.58099365234375 C 208.63699340820312 477.58099365234375 205.0679931640625 477.8330078125 205.0679931640625 477.8330078125 C 205.0679931640625 477.8330078125 201.49899291992188 478.08599853515625 201.49899291992188 478.08599853515625 C 201.49899291992188 478.08599853515625 201.91299438476562 475.9119873046875 201.91299438476562 475.9119873046875 C 201.91299438476562 475.9119873046875 202.32699584960938 473.739013671875 202.32699584960938 473.739013671875 C 202.32699584960938 473.739013671875 207.14100646972656 473.3420104980469 207.14100646972656 473.3420104980469 C 207.14100646972656 473.3420104980469 211.95399475097656 472.94500732421875 211.95399475097656 472.94500732421875 C 211.95399475097656 472.94500732421875 211.95399475097656 467.3900146484375 211.95399475097656 467.3900146484375 C 211.95399475097656 467.3900146484375 211.95399475097656 461.8340148925781 211.95399475097656 461.8340148925781 C 211.95399475097656 461.8340148925781 208.07000732421875 454.4830017089844 208.07000732421875 454.4830017089844 C 208.07000732421875 454.4830017089844 204.18499755859375 447.1319885253906 204.18499755859375 447.1319885253906 C 204.18499755859375 447.1319885253906 204.9969940185547 442.82598876953125 204.9969940185547 442.82598876953125 C 204.9969940185547 442.82598876953125 205.8090057373047 438.52099609375 205.8090057373047 438.52099609375 C 205.8090057373047 438.52099609375 204.63699340820312 438.52099609375 204.63699340820312 438.52099609375 C 203.99200439453125 438.52099609375 202.73399353027344 439.24200439453125 201.84100341796875 440.12200927734375 C 201.84100341796875 440.12200927734375 200.2169952392578 441.7239990234375 200.2169952392578 441.7239990234375 C 200.2169952392578 441.7239990234375 198.9459991455078 439.4830017089844 198.9459991455078 439.4830017089844 C 198.9459991455078 439.4830017089844 197.6750030517578 437.24200439453125 197.6750030517578 437.24200439453125 C 197.6750030517578 437.24200439453125 195.16600036621094 437.24200439453125 195.16600036621094 437.24200439453125 C 195.16600036621094 437.24200439453125 192.65699768066406 437.24200439453125 192.65699768066406 437.24200439453125 C 192.65699768066406 437.24200439453125 192.65699768066406 439.07598876953125 192.65699768066406 439.07598876953125 C 192.65699768066406 439.07598876953125 192.65699768066406 440.90899658203125 192.65699768066406 440.90899658203125 C 192.65699768066406 440.90899658203125 189.0279998779297 443.4809875488281 189.0279998779297 443.4809875488281 C 189.0279998779297 443.4809875488281 187.3990020751953 449.5530090332031 187.3990020751953 449.5530090332031 C 187.3990020751953 449.5530090332031 185.79800415039062 445.1470031738281 185.79800415039062 445.1470031738281 C 185.79800415039062 445.1470031738281 184.197998046875 440.74200439453125 184.197998046875 440.74200439453125 C 184.197998046875 440.74200439453125 182.43800354003906 440.74200439453125 182.43800354003906 440.74200439453125 C 182.43800354003906 440.74200439453125 180.67799377441406 440.74200439453125 180.67799377441406 440.74200439453125 C 180.67799377441406 440.74200439453125 179.8520050048828 443.3330078125 179.8520050048828 443.3330078125 C 179.39700317382812 444.7569885253906 179.18699645996094 447.7909851074219 179.38499450683594 450.0740051269531 C 179.38499450683594 450.0740051269531 179.74400329589844 454.2250061035156 179.74400329589844 454.2250061035156 C 179.74400329589844 454.2250061035156 178.76199340820312 455.8070068359375 178.76199340820312 455.8070068359375 C 178.2209930419922 455.177001953125 177.375 457.3890075683594 176.88099670410156 457.3890075683594 C 176.88099670410156 457.3890075683594 175.98300170898438 457.3890075683594 175.98300170898438 457.3890075683594 C 175.98300170898438 457.3890075683594 175.76800537109375 450.6659851074219 175.76800537109375 450.6659851074219 C 175.6490020751953 446.9679870605469 175.56100463867188 441.63800048828125 175.5709991455078 438.82000732421875 C 175.58099365234375 436.00201416015625 175.531005859375 431.67999267578125 175.46200561523438 429.21600341796875 C 175.39199829101562 426.75 175.177001953125 420.3080139160156 174.98500061035156 414.89898681640625 C 174.98500061035156 414.89898681640625 174.63499450683594 405.0639953613281 174.63499450683594 405.0639953613281 C 174.63499450683594 405.0639953613281 172.52699279785156 402.7330017089844 172.52699279785156 402.7330017089844 C 172.52699279785156 402.7330017089844 170.41900634765625 400.4020080566406 170.41900634765625 400.4020080566406 C 170.41900634765625 400.4020080566406 172.88900756835938 397.3800048828125 172.88900756835938 397.3800048828125 C 172.88900756835938 397.3800048828125 175.35899353027344 394.35699462890625 175.35899353027344 394.35699462890625 C 175.35899353027344 394.35699462890625 175.35899353027344 391.9309997558594 175.35899353027344 391.9309997558594 C 175.35899353027344 391.9309997558594 175.35899353027344 389.5060119628906 175.35899353027344 389.5060119628906 C 175.35899353027344 389.5060119628906 179.14100646972656 377.77301025390625 179.14100646972656 377.77301025390625 C 179.14100646972656 377.77301025390625 184.9219970703125 369.5400085449219 184.9219970703125 369.5400085449219 C 184.9219970703125 369.5400085449219 184.26699829101562 367.85400390625 184.26699829101562 367.85400390625 C 183.906005859375 366.927001953125 181.88299560546875 365.18701171875 179.77200317382812 363.98699951171875 C 179.77200317382812 363.98699951171875 175.93299865722656 361.80499267578125 175.93299865722656 361.80499267578125 C 175.93299865722656 361.80499267578125 175.93299865722656 359.9639892578125 175.93299865722656 359.9639892578125 C 175.93299865722656 359.9639892578125 175.93299865722656 358.12200927734375 175.93299865722656 358.12200927734375 C 175.93299865722656 358.12200927734375 179.1490020751953 357.3179931640625 179.1490020751953 357.3179931640625 C 179.1490020751953 357.3179931640625 182.36500549316406 356.5140075683594 182.36500549316406 356.5140075683594 C 182.36500549316406 356.5140075683594 182.36500549316406 355.3080139160156 182.36500549316406 355.3080139160156 C 182.36500549316406 354.6440124511719 183.5189971923828 353.031005859375 184.92999267578125 351.7229919433594 C 184.92999267578125 351.7229919433594 187.4949951171875 349.343994140625 187.4949951171875 349.343994140625 C 187.4949951171875 349.343994140625 187 332 187 332 C 187 332 186.50399780273438 314.65399169921875 186.50399780273438 314.65399169921875 C 186.50399780273438 314.65399169921875 185.10699462890625 312.0559997558594 185.10699462890625 312.0559997558594 C 184.33900451660156 310.6260070800781 181.91600036621094 307.9540100097656 179.72300720214844 306.1180114746094 C 179.72300720214844 306.1180114746094 175.73599243164062 302.77899169921875 175.73599243164062 302.77899169921875 C 175.73599243164062 302.77899169921875 170.30299377441406 302.77899169921875 170.30299377441406 302.77899169921875 C 170.30299377441406 302.77899169921875 166.36900329589844 301.77899169921875 166.36900329589844 301.77899169921875 C 166.36900329589844 301.77899169921875 165.0449981689453 300.46099853515625 165.0449981689453 300.46099853515625 C 165.0449981689453 300.46099853515625 163.7209930419922 299.14300537109375 163.7209930419922 299.14300537109375 C 163.7209930419922 299.14300537109375 153.98300170898438 298.0559997558594 153.98300170898438 298.0559997558594 C 148.6280059814453 297.4580078125 143.60800170898438 296.5769958496094 142.8280029296875 296.09698486328125 C 142.8280029296875 296.09698486328125 141.41099548339844 295.2250061035156 141.41099548339844 295.2250061035156 C 141.41099548339844 295.2250061035156 141.41099548339844 291.7149963378906 141.41099548339844 291.7149963378906 C 141.41099548339844 291.7149963378906 141.41099548339844 288.2049865722656 141.41099548339844 288.2049865722656 C 141.41099548339844 288.2049865722656 139.86700439453125 286.6679992675781 139.86700439453125 286.6679992675781 C 139.86700439453125 286.6679992675781 138.322998046875 285.1310119628906 138.322998046875 285.1310119628906 C 138.322998046875 285.1310119628906 135.44000244140625 285.1310119628906 135.44000244140625 285.1310119628906 C 135.44000244140625 285.1310119628906 132.5570068359375 285.1310119628906 132.5570068359375 285.1310119628906 C 132.5570068359375 285.1310119628906 131.83099365234375 283.96099853515625 131.83099365234375 283.96099853515625 C 131.4320068359375 283.3179931640625 128.4239959716797 281.5 125.14700317382812 279.9200134277344 C 125.14700317382812 279.9200134277344 119.18900299072266 277.04901123046875 119.18900299072266 277.04901123046875 C 119.18900299072266 277.04901123046875 116.85099792480469 278.50299072265625 116.85099792480469 278.50299072265625 C 116.85099792480469 278.50299072265625 114.51300048828125 279.95599365234375 114.51300048828125 279.95599365234375 C 114.51300048828125 279.95599365234375 113.69999694824219 278.6449890136719 113.69999694824219 278.6449890136719 C 113.69999694824219 278.6449890136719 112.88700103759766 277.3340148925781 112.88700103759766 277.3340148925781 C 112.88700103759766 277.3340148925781 114.30599975585938 275.6310119628906 114.30599975585938 275.6310119628906 C 114.30599975585938 275.6310119628906 115.72599792480469 273.9280090332031 115.72599792480469 273.9280090332031 C 115.72599792480469 273.9280090332031 112.48699951171875 271.8160095214844 112.48699951171875 271.8160095214844 C 112.48699951171875 271.8160095214844 109.24800109863281 269.7040100097656 109.24800109863281 269.7040100097656 C 109.24800109863281 269.7040100097656 111.24800109863281 268.2149963378906 111.24800109863281 268.2149963378906 C 111.24800109863281 267.39599609375 110.0479965209961 265.4549865722656 108.58100128173828 263.9010009765625 C 107.11399841308594 262.34698486328125 105.7979965209961 260.2929992675781 105.65599822998047 259.33599853515625 C 105.51399993896484 258.3789978027344 104.625 255.7429962158203 103.68099975585938 253.47799682617188 C 103.68099975585938 253.47799682617188 101.96499633789062 249.35800170898438 101.96499633789062 249.35800170898438 C 101.96499633789062 249.35800170898438 99.41200256347656 248.552001953125 99.41200256347656 248.552001953125 C 99.41200256347656 248.552001953125 96.86000061035156 247.7449951171875 96.86000061035156 247.7449951171875 C 96.86000061035156 247.7449951171875 97.50399780273438 245.2949981689453 97.50399780273438 245.2949981689453 C 97.50399780273438 245.2949981689453 100.64800262451172 243.343994140625 100.64800262451172 243.343994140625 C 100.64800262451172 243.343994140625 98.81099700927734 235.35299682617188 98.81099700927734 235.35299682617188 C 97.80000305175781 230.95799255371094 100.57599639892578 226.9980010986328 100.08999633789062 225.9409942626953 C 100.08999633789062 225.9409942626953 99.20600128173828 224.02000427246094 99.20600128173828 224.02000427246094 C 99.20600128173828 224.02000427246094 101.6500015258789 214.73599243164062 101.6500015258789 214.73599243164062 C 101.61900329589844 209.6300048828125 101.68900299072266 205.45199584960938 101.80500030517578 205.45199584960938 C 101.9209976196289 205.45199584960938 103.41100311279297 207.93600463867188 105.11599731445312 210.97300720214844 C 105.11599731445312 210.97300720214844 108.21600341796875 216.49400329589844 108.21600341796875 216.49400329589844 C 108.21600341796875 216.49400329589844 107.00199890136719 219.20199584960938 107.00199890136719 219.20199584960938 C 107.00199890136719 219.20199584960938 105.78800201416016 221.91000366210938 105.78800201416016 221.91000366210938 C 105.78800201416016 221.91000366210938 105.37100219726562 227.9969940185547 105.37100219726562 227.9969940185547 C 106.51699829101562 231.34500122070312 104.4540023803711 233.12899780273438 103.4540023803711 235.90699768066406 C 103.4540023803711 235.90699768066406 103.4540023803711 238.22999572753906 103.4540023803711 238.22999572753906 C 103.4540023803711 238.22999572753906 107.10800170898438 241.4709930419922 107.10800170898438 241.4709930419922 C 109.11699676513672 243.2530059814453 109.35199737548828 245.0050048828125 110.68399810791016 245.9739990234375 C 110.68399810791016 245.9739990234375 113.10600280761719 247.73699951171875 113.10600280761719 247.73699951171875 C 113.10600280761719 247.73699951171875 111.24199676513672 251.20399475097656 111.24199676513672 251.20399475097656 C 111.24199676513672 251.20399475097656 109.37799835205078 254.67100524902344 109.37799835205078 254.67100524902344 C 109.37799835205078 254.67100524902344 112.56400299072266 257.43701171875 112.56400299072266 257.43701171875 C 112.56400299072266 257.43701171875 113.75 260.2040100097656 113.75 260.2040100097656 C 113.75 260.2040100097656 116.5780029296875 265.94500732421875 116.5780029296875 265.94500732421875 C 116.5780029296875 265.94500732421875 119.40599822998047 271.6860046386719 119.40599822998047 271.6860046386719 C 119.40599822998047 271.6860046386719 123.91400146484375 274.09600830078125 123.91400146484375 274.09600830078125 C 123.91400146484375 274.09600830078125 128.4219970703125 276.5060119628906 128.4219970703125 276.5060119628906 C 128.4219970703125 276.5060119628906 133.302001953125 276.6570129394531 133.302001953125 276.6570129394531 C 133.302001953125 276.6570129394531 138.1820068359375 276.8080139160156 138.1820068359375 276.8080139160156 C 138.1820068359375 276.8080139160156 139.31900024414062 274.24700927734375 139.31900024414062 274.24700927734375 C 139.31900024414062 274.24700927734375 140.4550018310547 271.6860046386719 140.4550018310547 271.6860046386719 C 140.4550018310547 271.6860046386719 148.50999450683594 271.8420104980469 148.50999450683594 271.8420104980469 C 148.50999450683594 271.8420104980469 156.56500244140625 271.99798583984375 156.56500244140625 271.99798583984375 C 156.56500244140625 271.99798583984375 160.6230010986328 274.01300048828125 160.6230010986328 274.01300048828125 C 160.6230010986328 274.01300048828125 164.68099975585938 276.02801513671875 164.68099975585938 276.02801513671875 C 164.68099975585938 276.02801513671875 169.23500061035156 277.8590087890625 169.23500061035156 277.8590087890625 C 172.56500244140625 278.3160095214844 176.8470001220703 279.3370056152344 178.75100708007812 280.1289978027344 C 178.75100708007812 280.1289978027344 182.21200561523438 281.5679931640625 182.21200561523438 281.5679931640625 C 182.21200561523438 281.5679931640625 182.8249969482422 283.9010009765625 182.8249969482422 283.9010009765625 C 182.8249969482422 283.9010009765625 183.43800354003906 286.2349853515625 183.43800354003906 286.2349853515625 C 183.43800354003906 286.2349853515625 186.656005859375 285.4309997558594 186.656005859375 285.4309997558594 C 186.656005859375 285.4309997558594 189.8730010986328 284.62701416015625 189.8730010986328 284.62701416015625 C 189.8730010986328 284.62701416015625 191.26100158691406 287.2080078125 191.26100158691406 287.2080078125 C 191.26100158691406 287.2080078125 192.6490020751953 289.78900146484375 192.6490020751953 289.78900146484375 C 192.6490020751953 289.78900146484375 191.8730010986328 291.8030090332031 191.8730010986328 291.8030090332031 C 191.8730010986328 291.8030090332031 191.0970001220703 293.8169860839844 191.0970001220703 293.8169860839844 C 191.0970001220703 293.8169860839844 192.31500244140625 293.8169860839844 192.31500244140625 293.8169860839844 C 192.31500244140625 293.8169860839844 193.5330047607422 293.8169860839844 193.5330047607422 293.8169860839844 C 193.5330047607422 293.8169860839844 194.9980010986328 290.6159973144531 194.9980010986328 290.6159973144531 C 194.9980010986328 290.6159973144531 196.46400451660156 287.41400146484375 196.46400451660156 287.41400146484375 C 196.46400451660156 287.41400146484375 197.7779998779297 287.41400146484375 197.7779998779297 287.41400146484375 C 197.7779998779297 287.41400146484375 199.0919952392578 287.41400146484375 199.0919952392578 287.41400146484375 C 199.0919952392578 287.41400146484375 199.0919952392578 290.4779968261719 199.0919952392578 290.4779968261719 C 199.0919952392578 290.4779968261719 199.0919952392578 293.5419921875 199.0919952392578 293.5419921875 C 199.0919952392578 293.5419921875 201.13800048828125 294.3240051269531 201.13800048828125 294.3240051269531 C 201.13800048828125 294.3240051269531 203.1840057373047 295.1050109863281 203.1840057373047 295.1050109863281 C 203.1840057373047 295.1050109863281 204.5500030517578 294.2650146484375 204.5500030517578 294.2650146484375 C 204.5500030517578 294.2650146484375 205.91600036621094 293.42498779296875 205.91600036621094 293.42498779296875 C 205.91600036621094 293.42498779296875 207.32899475097656 295.3320007324219 207.32899475097656 295.3320007324219 C 208.1060028076172 296.3810119628906 210.0449981689453 297.92999267578125 211.63699340820312 298.77398681640625 C 211.63699340820312 298.77398681640625 214.53199768066406 300.3089904785156 214.53199768066406 300.3089904785156 C 214.53199768066406 300.3089904785156 214.53199768066406 304.1510009765625 214.53199768066406 304.1510009765625 C 214.53199768066406 304.1510009765625 214.53199768066406 307.9930114746094 214.53199768066406 307.9930114746094 C 214.53199768066406 307.9930114746094 216.61000061035156 311.14898681640625 216.61000061035156 311.14898681640625 C 216.61000061035156 311.14898681640625 218.68800354003906 314.3059997558594 218.68800354003906 314.3059997558594 C 218.68800354003906 314.3059997558594 220.95199584960938 314.3059997558594 220.95199584960938 314.3059997558594 C 220.95199584960938 314.3059997558594 223.2169952392578 314.3059997558594 223.2169952392578 314.3059997558594 C 223.2169952392578 314.3059997558594 224.02099609375 318.3080139160156 224.02099609375 318.3080139160156 C 224.46299743652344 320.50799560546875 224.8249969482422 325.9129943847656 224.8249969482422 330.3169860839844 C 224.8249969482422 330.3169860839844 224.8249969482422 338.32501220703125 224.8249969482422 338.32501220703125 C 224.8249969482422 338.32501220703125 227.59800720214844 340.1579895019531 227.59800720214844 340.1579895019531 C 227.59800720214844 340.1579895019531 230.37100219726562 341.9909973144531 230.37100219726562 341.9909973144531 C 230.37100219726562 341.9909973144531 228.09800720214844 347.9159851074219 228.09800720214844 347.9159851074219 C 228.09800720214844 347.9159851074219 225.8249969482422 353.8420104980469 225.8249969482422 353.8420104980469 C 225.8249969482422 353.8420104980469 220.93099975585938 355.7900085449219 220.93099975585938 355.7900085449219 C 218.24000549316406 356.86199951171875 215.69400024414062 358.2929992675781 215.2729949951172 358.97100830078125 C 215.2729949951172 358.97100830078125 214.50799560546875 360.2019958496094 214.50799560546875 360.2019958496094 C 214.50799560546875 360.2019958496094 216.67100524902344 362.35400390625 216.67100524902344 362.35400390625 C 216.67100524902344 362.35400390625 218.83399963378906 364.5060119628906 218.83399963378906 364.5060119628906 C 218.83399963378906 364.5060119628906 223.43800354003906 363.7489929199219 223.43800354003906 363.7489929199219 C 225.97000122070312 363.3320007324219 230.24000549316406 362.375 232.927001953125 361.62200927734375 C 232.927001953125 361.62200927734375 237.81300354003906 360.25299072265625 237.81300354003906 360.25299072265625 C 237.81300354003906 360.25299072265625 239.00599670410156 357.1289978027344 239.00599670410156 357.1289978027344 C 239.00599670410156 357.1289978027344 240.19900512695312 354.0039978027344 240.19900512695312 354.0039978027344 C 240.19900512695312 354.0039978027344 242.07400512695312 354.0039978027344 242.07400512695312 354.0039978027344 C 242.07400512695312 354.0039978027344 243.94900512695312 354.0039978027344 243.94900512695312 354.0039978027344 C 243.94900512695312 354.0039978027344 244.6790008544922 356.29400634765625 244.6790008544922 356.29400634765625 C 244.6790008544922 356.29400634765625 245.40899658203125 358.5840148925781 245.40899658203125 358.5840148925781 C 245.40899658203125 358.5840148925781 243.10899353027344 363.01800537109375 243.10899353027344 363.01800537109375 C 241.843994140625 365.45599365234375 239.76800537109375 369.010009765625 238.4949951171875 370.9159851074219 C 238.4949951171875 370.9159851074219 236.18099975585938 374.3819885253906 236.18099975585938 374.3819885253906 C 236.18099975585938 374.3819885253906 237.01100158691406 375.718994140625 237.01100158691406 375.718994140625 C 237.46800231933594 376.4540100097656 238.56700134277344 377.0559997558594 239.45399475097656 377.0559997558594 C 239.45399475097656 377.0559997558594 241.06700134277344 377.0559997558594 241.06700134277344 377.0559997558594 C 241.06700134277344 377.0559997558594 244.76499938964844 373.2139892578125 244.76499938964844 373.2139892578125 C 244.76499938964844 373.2139892578125 248.46299743652344 369.37200927734375 248.46299743652344 369.37200927734375 C 248.46299743652344 369.37200927734375 250.7949981689453 369.37200927734375 250.7949981689453 369.37200927734375 C 250.7949981689453 369.37200927734375 253.1280059814453 369.37200927734375 253.1280059814453 369.37200927734375 C 253.1280059814453 369.37200927734375 253.1280059814453 372.25299072265625 253.1280059814453 372.25299072265625 C 253.1280059814453 372.25299072265625 253.1280059814453 375.135009765625 253.1280059814453 375.135009765625 C 253.1280059814453 375.135009765625 248.625 378.71099853515625 248.625 378.71099853515625 C 248.625 378.71099853515625 244.1219940185547 382.2869873046875 244.1219940185547 382.2869873046875 C 244.1219940185547 382.2869873046875 244.1219940185547 384.15301513671875 244.1219940185547 384.15301513671875 C 244.1219940185547 384.15301513671875 244.1219940185547 386.0190124511719 244.1219940185547 386.0190124511719 C 244.1219940185547 386.0190124511719 246.718994140625 386.0190124511719 246.718994140625 386.0190124511719 C 246.718994140625 386.0190124511719 249.3159942626953 386.0190124511719 249.3159942626953 386.0190124511719 C 249.3159942626953 386.0190124511719 256.0459899902344 382.59100341796875 256.0459899902344 382.59100341796875 C 259.74798583984375 380.70599365234375 263.0270080566406 378.9679870605469 263.3340148925781 378.72900390625 C 263.6409912109375 378.489013671875 263.2070007324219 377.6109924316406 262.3689880371094 376.7770080566406 C 261.5320129394531 375.9440002441406 260.84698486328125 374.2959899902344 260.84698486328125 373.114013671875 C 260.84698486328125 373.114013671875 260.84698486328125 370.96600341796875 260.84698486328125 370.96600341796875 C 260.84698486328125 370.96600341796875 262.614013671875 369.5060119628906 262.614013671875 369.5060119628906 C 262.614013671875 369.5060119628906 264.3810119628906 368.0469970703125 264.3810119628906 368.0469970703125 C 264.3810119628906 368.0469970703125 266.4739990234375 368.84698486328125 266.4739990234375 368.84698486328125 C 266.4739990234375 368.84698486328125 268.5669860839844 369.64599609375 268.5669860839844 369.64599609375 C 268.5669860839844 369.64599609375 268.5669860839844 373.35101318359375 268.5669860839844 373.35101318359375 C 268.5669860839844 373.35101318359375 268.5669860839844 377.0559997558594 268.5669860839844 377.0559997558594 C 268.5669860839844 377.0559997558594 270.45098876953125 377.0559997558594 270.45098876953125 377.0559997558594 C 270.45098876953125 377.0559997558594 272.33599853515625 377.0559997558594 272.33599853515625 377.0559997558594 C 272.33599853515625 377.0559997558594 273.7130126953125 374.4939880371094 273.7130126953125 374.4939880371094 C 273.7130126953125 374.4939880371094 275.0899963378906 371.9320068359375 275.0899963378906 371.9320068359375 C 275.0899963378906 371.9320068359375 282.0369873046875 371.9320068359375 282.0369873046875 371.9320068359375 C 282.0369873046875 371.9320068359375 288.9840087890625 371.9320068359375 288.9840087890625 371.9320068359375 C 288.9840087890625 371.9320068359375 292.4930114746094 373.260009765625 292.4930114746094 373.260009765625 C 292.4930114746094 373.260009765625 296.00299072265625 374.5880126953125 296.00299072265625 374.5880126953125 C 296.00299072265625 374.5880126953125 297.4010009765625 373.15399169921875 297.4010009765625 373.15399169921875 C 297.4010009765625 373.15399169921875 298.79998779296875 371.7200012207031 298.79998779296875 371.7200012207031 C 298.79998779296875 371.7200012207031 294.5 368.11199951171875 294.5 368.11199951171875 C 294.5 368.11199951171875 290.20001220703125 364.5039978027344 290.20001220703125 364.5039978027344 C 290.20001220703125 364.5039978027344 290.65301513671875 362.1610107421875 290.65301513671875 362.1610107421875 C 290.65301513671875 362.1610107421875 291.1059875488281 359.8190002441406 291.1059875488281 359.8190002441406 C 291.1059875488281 359.8190002441406 294.5690002441406 358.6059875488281 294.5690002441406 358.6059875488281 C 294.5690002441406 358.6059875488281 298.0320129394531 357.3940124511719 298.0320129394531 357.3940124511719 C 298.0320129394531 357.3940124511719 303.156005859375 359.0769958496094 303.156005859375 359.0769958496094 C 303.156005859375 359.0769958496094 308.2799987792969 360.760986328125 308.2799987792969 360.760986328125 C 308.2799987792969 360.760986328125 313.8009948730469 359.364990234375 313.8009948730469 359.364990234375 C 313.8009948730469 359.364990234375 319.3219909667969 357.9700012207031 319.3219909667969 357.9700012207031 C 319.3219909667969 357.9700012207031 321.385009765625 359.8280029296875 321.385009765625 359.8280029296875 C 321.385009765625 359.8280029296875 323.4469909667969 361.68499755859375 323.4469909667969 361.68499755859375 C 323.4469909667969 361.68499755859375 325.6369934082031 361.68499755859375 325.6369934082031 361.68499755859375 C 325.6369934082031 361.68499755859375 327.8269958496094 361.68499755859375 327.8269958496094 361.68499755859375 C 327.8269958496094 361.68499755859375 328.4859924316406 359.97601318359375 328.4859924316406 359.97601318359375 C 328.4859924316406 359.97601318359375 329.1449890136719 358.2669982910156 329.1449890136719 358.2669982910156 C 329.1449890136719 358.2669982910156 324.63299560546875 351.5929870605469 324.63299560546875 351.5929870605469 C 324.63299560546875 351.5929870605469 320.1210021972656 344.91900634765625 320.1210021972656 344.91900634765625 C 320.1210021972656 344.91900634765625 319.28900146484375 340.5050048828125 319.28900146484375 340.5050048828125 C 319.28900146484375 340.5050048828125 318.4570007324219 336.0899963378906 318.4570007324219 336.0899963378906 C 318.4570007324219 336.0899963378906 319.2669982910156 332.8800048828125 319.2669982910156 332.8800048828125 C 319.2669982910156 332.8800048828125 320.07598876953125 329.6700134277344 320.07598876953125 329.6700134277344 C 320.07598876953125 329.6700134277344 324.55499267578125 329.6700134277344 324.55499267578125 329.6700134277344 C 324.55499267578125 329.6700134277344 329.03399658203125 329.6700134277344 329.03399658203125 329.6700134277344 C 329.03399658203125 329.6700134277344 329.03399658203125 326.1400146484375 329.03399658203125 326.1400146484375 C 329.03399658203125 324.1990051269531 328.4649963378906 320.6340026855469 327.7690124511719 318.2200012207031 C 327.7690124511719 318.2200012207031 326.5039978027344 313.8299865722656 326.5039978027344 313.8299865722656 C 326.5039978027344 313.8299865722656 328.2749938964844 307.0769958496094 328.2749938964844 307.0769958496094 C 328.2749938964844 307.0769958496094 330.0469970703125 300.32501220703125 330.0469970703125 300.32501220703125 C 330.0469970703125 300.32501220703125 332.7560119628906 296.89599609375 332.7560119628906 296.89599609375 C 332.7560119628906 296.89599609375 335.4649963378906 293.4670104980469 335.4649963378906 293.4670104980469 C 335.4649963378906 293.4670104980469 335.4649963378906 289.2309875488281 335.4649963378906 289.2309875488281 C 335.4649963378906 289.2309875488281 335.4649963378906 284.9949951171875 335.4649963378906 284.9949951171875 C 335.4649963378906 284.9949951171875 332.7650146484375 280.44000244140625 332.7650146484375 280.44000244140625 C 332.7650146484375 280.44000244140625 330.06500244140625 275.8840026855469 330.06500244140625 275.8840026855469 C 330.06500244140625 275.8840026855469 328.82598876953125 275.8840026855469 328.82598876953125 275.8840026855469 C 328.1440124511719 275.8840026855469 324.6809997558594 276.8299865722656 321.1300048828125 277.98699951171875 C 321.1300048828125 277.98699951171875 314.6730041503906 280.0889892578125 314.6730041503906 280.0889892578125 C 314.6730041503906 280.0889892578125 312.12701416015625 277.5539855957031 312.12701416015625 277.5539855957031 C 312.12701416015625 277.5539855957031 309.58099365234375 275.0199890136719 309.58099365234375 275.0199890136719 C 309.58099365234375 275.0199890136719 309.4389953613281 270.6499938964844 309.4389953613281 270.6499938964844 C 309.4389953613281 270.6499938964844 309.2969970703125 266.2799987792969 309.2969970703125 266.2799987792969 C 309.2969970703125 266.2799987792969 311.322998046875 257.95599365234375 311.322998046875 257.95599365234375 C 312.43701171875 253.3780059814453 313.9339904785156 247.9029998779297 314.64898681640625 245.7899932861328 C 315.364013671875 243.677001953125 316.6570129394531 239.64300537109375 317.52301025390625 236.8260040283203 C 317.52301025390625 236.8260040283203 319.09698486328125 231.70399475097656 319.09698486328125 231.70399475097656 C 319.09698486328125 231.70399475097656 322.99798583984375 226.25900268554688 322.99798583984375 226.25900268554688 C 322.99798583984375 226.25900268554688 326.89801025390625 220.81300354003906 326.89801025390625 220.81300354003906 C 326.89801025390625 220.81300354003906 331.21099853515625 218.27999877929688 331.21099853515625 218.27999877929688 C 333.5840148925781 216.88699340820312 335.7550048828125 215.01499938964844 336.0369873046875 214.12100219726562 C 336.3190002441406 213.2270050048828 336.9110107421875 210.33200073242188 337.35198974609375 207.68800354003906 C 337.35198974609375 207.68800354003906 338.1549987792969 202.88099670410156 338.1549987792969 202.88099670410156 C 338.1549987792969 202.88099670410156 340.1820068359375 201.28399658203125 340.1820068359375 201.28399658203125 C 341.2969970703125 200.406005859375 343.8760070800781 198.04200744628906 345.9119873046875 196.031005859375 C 345.9119873046875 196.031005859375 349.614990234375 192.37399291992188 349.614990234375 192.37399291992188 C 349.614990234375 192.37399291992188 349.614990234375 190.58799743652344 349.614990234375 190.58799743652344 C 349.614990234375 190.58799743652344 349.614990234375 188.802001953125 349.614990234375 188.802001953125 C 349.614990234375 188.802001953125 347.29901123046875 188.802001953125 347.29901123046875 188.802001953125 C 346.0249938964844 188.802001953125 344.3389892578125 189.44400024414062 343.5509948730469 190.2270050048828 C 343.5509948730469 190.2270050048828 342.1189880371094 191.65199279785156 342.1189880371094 191.65199279785156 C 342.1189880371094 191.65199279785156 340.7200012207031 190.79200744628906 340.7200012207031 190.79200744628906 C 340.7200012207031 190.79200744628906 339.3219909667969 189.9320068359375 339.3219909667969 189.9320068359375 C 339.3219909667969 189.9320068359375 339.3219909667969 186.83900451660156 339.3219909667969 186.83900451660156 C 339.3219909667969 186.83900451660156 339.3219909667969 183.74600219726562 339.3219909667969 183.74600219726562 C 339.3219909667969 183.74600219726562 343.1820068359375 181.75999450683594 343.1820068359375 181.75999450683594 C 343.1820068359375 181.75999450683594 347.0409851074219 179.7729949951172 347.0409851074219 179.7729949951172 C 347.0409851074219 179.7729949951172 347.0639953613281 177.56500244140625 347.0639953613281 177.56500244140625 C 347.0639953613281 177.56500244140625 347.0870056152344 175.35699462890625 347.0870056152344 175.35699462890625 C 347.0870056152344 175.35699462890625 350.9230041503906 169.7220001220703 350.9230041503906 169.7220001220703 C 353.0329895019531 166.6219940185547 354.7510070800781 163.4530029296875 354.739013671875 162.6790008544922 C 354.7279968261719 161.90499877929688 354.22698974609375 160.4969940185547 353.625 159.552001953125 C 353.625 159.552001953125 352.5299987792969 157.83299255371094 352.5299987792969 157.83299255371094 C 352.5299987792969 157.83299255371094 355.25299072265625 152.83999633789062 355.25299072265625 152.83999633789062 C 356.7510070800781 150.09300231933594 358.3949890136719 147.8419952392578 358.9070129394531 147.83599853515625 C 359.4200134277344 147.8300018310547 360.7560119628906 149.58999633789062 361.8760070800781 151.7469940185547 C 361.8760070800781 151.7469940185547 363.9129943847656 155.66900634765625 363.9129943847656 155.66900634765625 C 363.9129943847656 155.66900634765625 366.03900146484375 155.26100158691406 366.03900146484375 155.26100158691406 C 366.03900146484375 155.26100158691406 368.1650085449219 154.85299682617188 368.1650085449219 154.85299682617188 C 368.1650085449219 154.85299682617188 368.9570007324219 151.0189971923828 368.9570007324219 151.0189971923828 C 369.39300537109375 148.91000366210938 370.45001220703125 145.88800048828125 371.30499267578125 144.3040008544922 C 372.1600036621094 142.718994140625 373.3389892578125 141.42300415039062 373.9230041503906 141.42300415039062 C 373.9230041503906 141.42300415039062 374.9859924316406 141.42300415039062 374.9859924316406 141.42300415039062 C 374.9859924316406 141.42300415039062 374.3739929199219 144.60899353027344 374.3739929199219 144.60899353027344 C 374.3739929199219 144.60899353027344 373.7619934082031 147.7949981689453 373.7619934082031 147.7949981689453 C 373.7619934082031 147.7949981689453 375.5299987792969 148.47000122070312 375.5299987792969 148.47000122070312 C 375.5299987792969 148.47000122070312 377.2969970703125 149.14500427246094 377.2969970703125 149.14500427246094 C 377.2969970703125 149.14500427246094 383.52301025390625 147.98699951171875 383.52301025390625 147.98699951171875 C 383.52301025390625 147.98699951171875 389.7489929199219 146.82899475097656 389.7489929199219 146.82899475097656 C 389.7489929199219 146.82899475097656 393.1600036621094 148.60000610351562 393.1600036621094 148.60000610351562 C 395.0360107421875 149.57400512695312 397.8529968261719 150.375 399.4200134277344 150.37899780273438 C 399.4200134277344 150.37899780273438 402.2699890136719 150.38699340820312 402.2699890136719 150.38699340820312 C 402.2699890136719 150.38699340820312 403.6440124511719 147.8300018310547 403.6440124511719 147.8300018310547 C 403.6440124511719 147.8300018310547 405.0190124511719 145.2729949951172 405.0190124511719 145.2729949951172 C 405.0190124511719 145.2729949951172 410.406005859375 142.53799438476562 410.406005859375 142.53799438476562 C 410.406005859375 142.53799438476562 415.79400634765625 139.802001953125 415.79400634765625 139.802001953125 C 415.79400634765625 139.802001953125 424.1929931640625 139.1699981689453 424.1929931640625 139.1699981689453 C 424.1929931640625 139.1699981689453 432.5929870605469 138.53799438476562 432.5929870605469 138.53799438476562 C 432.5929870605469 138.53799438476562 434.52301025390625 136.96800231933594 434.52301025390625 136.96800231933594 C 434.52301025390625 136.96800231933594 436.4540100097656 135.3979949951172 436.4540100097656 135.3979949951172 C 436.4540100097656 135.3979949951172 442.0069885253906 135.58999633789062 442.0069885253906 135.58999633789062 C 442.0069885253906 135.58999633789062 447.55999755859375 135.78199768066406 447.55999755859375 135.78199768066406 C 447.55999755859375 135.78199768066406 450.7850036621094 139.88299560546875 450.7850036621094 139.88299560546875 C 450.7850036621094 139.88299560546875 454.0090026855469 143.98399353027344 454.0090026855469 143.98399353027344 C 454.0090026855469 143.98399353027344 455.6889953613281 143.98399353027344 455.6889953613281 143.98399353027344 C 456.61199951171875 143.98399353027344 458.0360107421875 143.1840057373047 458.85101318359375 142.2050018310547 C 458.85101318359375 142.2050018310547 460.3340148925781 140.42599487304688 460.3340148925781 140.42599487304688 C 460.3340148925781 140.42599487304688 463.80999755859375 139.76499938964844 463.80999755859375 139.76499938964844 C 463.80999755859375 139.76499938964844 467.2860107421875 139.10299682617188 467.2860107421875 139.10299682617188 C 467.2860107421875 139.10299682617188 470.9389953613281 140.98399353027344 470.9389953613281 140.98399353027344 C 470.9389953613281 140.98399353027344 474.5929870605469 142.86500549316406 474.5929870605469 142.86500549316406 C 474.5929870605469 142.86500549316406 481.39300537109375 142.0189971923828 481.39300537109375 142.0189971923828 C 481.39300537109375 142.0189971923828 488.1919860839844 141.17300415039062 488.1919860839844 141.17300415039062 C 488.1919860839844 141.17300415039062 492.5570068359375 145.4980010986328 492.5570068359375 145.4980010986328 C 494.9570007324219 147.8769989013672 499.197998046875 151.5 501.9800109863281 153.5489959716797 C 501.9800109863281 153.5489959716797 507.03900146484375 157.27499389648438 507.03900146484375 157.27499389648438 C 507.03900146484375 157.27499389648438 518.06201171875 159.09100341796875 518.06201171875 159.09100341796875 C 524.1240234375 160.08999633789062 530.7410278320312 160.86300659179688 532.7650146484375 160.8090057373047 C 532.7650146484375 160.8090057373047 536.4459838867188 160.71200561523438 536.4459838867188 160.71200561523438 C 536.4459838867188 160.71200561523438 540.3699951171875 162.73199462890625 540.3699951171875 162.73199462890625 C 540.3699951171875 162.73199462890625 544.2930297851562 164.7519989013672 544.2930297851562 164.7519989013672 C 544.2930297851562 164.7519989013672 551.5050048828125 164.23199462890625 551.5050048828125 164.23199462890625 C 551.5050048828125 164.23199462890625 558.7160034179688 163.71299743652344 558.7160034179688 163.71299743652344 C 558.7160034179688 163.71299743652344 562.8619995117188 160.66299438476562 562.8619995117188 160.66299438476562 C 562.8619995117188 160.66299438476562 567.0079956054688 157.61199951171875 567.0079956054688 157.61199951171875 C 567.0079956054688 157.61199951171875 567.8159790039062 158.41600036621094 567.8159790039062 158.41600036621094 C 567.8159790039062 158.41600036621094 568.6240234375 159.22000122070312 568.6240234375 159.22000122070312 C 568.6240234375 159.22000122070312 568.8049926757812 169.2100067138672 568.8049926757812 169.2100067138672 C 568.8049926757812 169.2100067138672 568.9849853515625 179.1999969482422 568.9849853515625 179.1999969482422 C 568.9849853515625 179.1999969482422 572.18701171875 183.4600067138672 572.18701171875 183.4600067138672 C 572.18701171875 183.4600067138672 575.3880004882812 187.718994140625 575.3880004882812 187.718994140625 C 575.3880004882812 187.718994140625 579.06201171875 186.98800659179688 579.06201171875 186.98800659179688 C 579.06201171875 186.98800659179688 582.7349853515625 186.2570037841797 582.7349853515625 186.2570037841797 C 582.7349853515625 186.2570037841797 586.6710205078125 182.96099853515625 586.6710205078125 182.96099853515625 C 586.6710205078125 182.96099853515625 590.6060180664062 179.6649932861328 590.6060180664062 179.6649932861328 C 590.6060180664062 179.6649932861328 593.2969970703125 180.32200622558594 593.2969970703125 180.32200622558594 C 594.7769775390625 180.68299865722656 599.1719970703125 181.37600708007812 603.0640258789062 181.86099243164062 C 603.0640258789062 181.86099243164062 610.1400146484375 182.7429962158203 610.1400146484375 182.7429962158203 C 610.1400146484375 182.7429962158203 611.7109985351562 183.97999572753906 611.7109985351562 183.97999572753906 C 612.5759887695312 184.66000366210938 615.4710083007812 185.7989959716797 618.1439819335938 186.51100158691406 C 620.8179931640625 187.2220001220703 624.7429809570312 187.93800354003906 626.864990234375 188.1020050048828 C 626.864990234375 188.1020050048828 630.7239990234375 188.3990020751953 630.7239990234375 188.3990020751953 C 630.7239990234375 188.3990020751953 631.1690063476562 191.48300170898438 631.1690063476562 191.48300170898438 C 631.4140014648438 193.17999267578125 632.2080078125 195.28799438476562 632.9349975585938 196.16900634765625 C 632.9349975585938 196.16900634765625 634.2559814453125 197.77000427246094 634.2559814453125 197.77000427246094 C 634.2559814453125 197.77000427246094 637.1640014648438 197.77000427246094 637.1640014648438 197.77000427246094 C 637.1640014648438 197.77000427246094 640.072998046875 197.77000427246094 640.072998046875 197.77000427246094 C 640.072998046875 197.77000427246094 640.7789916992188 195.0800018310547 640.7789916992188 195.0800018310547 C 640.7789916992188 195.0800018310547 641.4860229492188 192.38999938964844 641.4860229492188 192.38999938964844 C 641.4860229492188 192.38999938964844 642.9710083007812 193.3040008544922 642.9710083007812 193.3040008544922 C 642.9710083007812 193.3040008544922 644.4559936523438 194.21800231933594 644.4559936523438 194.21800231933594 C 644.4559936523438 194.21800231933594 643.8679809570312 196.4530029296875 643.8679809570312 196.4530029296875 C 643.8679809570312 196.4530029296875 643.281005859375 198.68800354003906 643.281005859375 198.68800354003906 C 643.281005859375 198.68800354003906 644.4639892578125 200.79100036621094 644.4639892578125 200.79100036621094 C 644.4639892578125 200.79100036621094 645.64599609375 202.8939971923828 645.64599609375 202.8939971923828 C 645.64599609375 202.8939971923828 647.47900390625 202.8939971923828 647.47900390625 202.8939971923828 C 647.47900390625 202.8939971923828 649.31201171875 202.8939971923828 649.31201171875 202.8939971923828 C 649.31201171875 202.8939971923828 651.3079833984375 199.052001953125 651.3079833984375 199.052001953125 C 652.406005859375 196.93899536132812 653.781982421875 195.2100067138672 654.3660278320312 195.2100067138672 C 654.948974609375 195.2100067138672 657.39501953125 195.86500549316406 659.801025390625 196.6649932861328 C 659.801025390625 196.6649932861328 664.1740112304688 198.1199951171875 664.1740112304688 198.1199951171875 C 664.1740112304688 198.1199951171875 667.8259887695312 201.46800231933594 667.8259887695312 201.46800231933594 C 669.8359985351562 203.3090057373047 672.3419799804688 206.4600067138672 673.39599609375 208.47000122070312 C 673.39599609375 208.47000122070312 675.31298828125 212.125 675.31298828125 212.125 C 675.31298828125 212.125 674.447021484375 218.39500427246094 674.447021484375 218.39500427246094 C 674.447021484375 218.39500427246094 673.5809936523438 224.6649932861328 673.5809936523438 224.6649932861328 C 673.5809936523438 224.6649932861328 670.3359985351562 224.6649932861328 670.3359985351562 224.6649932861328 C 670.3359985351562 224.6649932861328 667.0900268554688 224.6649932861328 667.0900268554688 224.6649932861328 C 667.0900268554688 224.6649932861328 668.02197265625 228.18600463867188 668.02197265625 228.18600463867188 C 668.5339965820312 230.1230010986328 667.0360107421875 231.51300048828125 667.1370239257812 234.3300018310547 C 667.1370239257812 234.3300018310547 666.8209838867188 242.9530029296875 666.8209838867188 242.9530029296875 C 666.8209838867188 242.9530029296875 669.2789916992188 246.01400756835938 669.2789916992188 246.01400756835938 C 670.0819702148438 247.42300415039062 672.6500244140625 249.66900634765625 673.1539916992188 252.83799743652344 C 673.1539916992188 252.83799743652344 674.0709838867188 258.60101318359375 674.0709838867188 258.60101318359375 C 674.0709838867188 258.60101318359375 675.97900390625 261.5929870605469 675.97900390625 261.5929870605469 C 675.97900390625 261.5929870605469 677.8870239257812 264.5840148925781 677.8870239257812 264.5840148925781 C 677.8870239257812 264.5840148925781 677.4769897460938 280.9129943847656 677.4769897460938 280.9129943847656 C 679.4509887695312 288.5190124511719 685.4249877929688 292.8190002441406 685.864013671875 293.5249938964844 C 685.864013671875 293.5249938964844 686.6599731445312 294.8080139160156 686.6599731445312 294.8080139160156 C 686.6599731445312 294.8080139160156 684.5430297851562 296.5539855957031 684.5430297851562 296.5539855957031 C 684.5430297851562 296.5539855957031 682.4249877929688 298.29998779296875 682.4249877929688 298.29998779296875 C 682.4249877929688 298.29998779296875 672.656005859375 298.5299987792969 672.656005859375 298.5299987792969 C 667.2839965820312 298.6570129394531 660.8699951171875 298.9460144042969 658.4030151367188 299.1709899902344 C 658.4030151367188 299.1709899902344 653.9180297851562 299.5799865722656 653.9180297851562 299.5799865722656 C 653.9180297851562 299.5799865722656 653.43701171875 302.0679931640625 653.43701171875 302.0679931640625 C 653.43701171875 302.0679931640625 652.9559936523438 304.5559997558594 652.9559936523438 304.5559997558594 C 652.9559936523438 304.5559997558594 649.8820190429688 306.9630126953125 649.8820190429688 306.9630126953125 C 649.8820190429688 306.9630126953125 646.8079833984375 309.3699951171875 646.8079833984375 309.3699951171875 C 646.8079833984375 309.3699951171875 646.8079833984375 312.4779968261719 646.8079833984375 312.4779968261719 C 646.8079833984375 312.4779968261719 646.8079833984375 315.58599853515625 646.8079833984375 315.58599853515625 C 646.8079833984375 315.58599853515625 640.375 315.58599853515625 640.375 315.58599853515625 C 640.375 315.58599853515625 633.9420166015625 315.58599853515625 633.9420166015625 315.58599853515625 C 633.9420166015625 315.58599853515625 633.9420166015625 316.8210144042969 633.9420166015625 316.8210144042969 C 633.9420166015625 317.5010070800781 635.1680297851562 318.7099914550781 636.666015625 319.50799560546875 C 636.666015625 319.50799560546875 639.3889770507812 320.9580078125 639.3889770507812 320.9580078125 C 639.3889770507812 320.9580078125 652.2860107421875 321.23699951171875 652.2860107421875 321.23699951171875 C 652.2860107421875 321.23699951171875 665.1820068359375 321.5159912109375 665.1820068359375 321.5159912109375 C 665.1820068359375 321.5159912109375 667.573974609375 324.4549865722656 667.573974609375 324.4549865722656 C 667.573974609375 324.4549865722656 669.9650268554688 327.3940124511719 669.9650268554688 327.3940124511719 C 669.9650268554688 327.3940124511719 669.9650268554688 329.81298828125 669.9650268554688 329.81298828125 C 669.9650268554688 329.81298828125 669.9650268554688 332.23199462890625 669.9650268554688 332.23199462890625 C 669.9650268554688 332.23199462890625 671.1740112304688 332.23199462890625 671.1740112304688 332.23199462890625 C 671.8380126953125 332.23199462890625 675.0579833984375 334.5379943847656 678.3270263671875 337.3550109863281 C 678.3270263671875 337.3550109863281 684.2730102539062 342.47698974609375 684.2730102539062 342.47698974609375 C 684.2730102539062 342.47698974609375 687.4749755859375 342.47698974609375 687.4749755859375 342.47698974609375 C 687.4749755859375 342.47698974609375 690.677001953125 342.47698974609375 690.677001953125 342.47698974609375 C 690.677001953125 342.47698974609375 694.458984375 344.42401123046875 694.458984375 344.42401123046875 C 694.458984375 344.42401123046875 698.2420043945312 346.3710021972656 698.2420043945312 346.3710021972656 C 698.2420043945312 346.3710021972656 700.7340087890625 351.2330017089844 700.7340087890625 351.2330017089844 C 702.10400390625 353.9070129394531 704.0750122070312 356.7959899902344 705.114013671875 357.65399169921875 C 706.1519775390625 358.5119934082031 707.4979858398438 359.1260070800781 708.1019897460938 359.0169982910156 C 708.7069702148438 358.9100036621094 709.9719848632812 358.8890075683594 710.9130249023438 358.97198486328125 C 710.9130249023438 358.97198486328125 712.6240234375 359.1239929199219 712.6240234375 359.1239929199219 C 712.6240234375 359.1239929199219 711.7780151367188 362.9570007324219 711.7780151367188 362.9570007324219 C 711.7780151367188 362.9570007324219 710.9320068359375 366.7900085449219 710.9320068359375 366.7900085449219 C 710.9320068359375 366.7900085449219 713.5339965820312 370.0820007324219 713.5339965820312 370.0820007324219 C 713.5339965820312 370.0820007324219 716.135986328125 373.3739929199219 716.135986328125 373.3739929199219 C 716.135986328125 373.3739929199219 715.4210205078125 375.2279968261719 715.4210205078125 375.2279968261719 C 715.4210205078125 375.2279968261719 714.7059936523438 377.0820007324219 714.7059936523438 377.0820007324219 C 714.7059936523438 377.0820007324219 718.1439819335938 384.3110046386719 718.1439819335938 384.3110046386719 C 718.1439819335938 384.3110046386719 721.5819702148438 391.5400085449219 721.5819702148438 391.5400085449219 C 721.5819702148438 391.5400085449219 720.7680053710938 396.3399963378906 720.7680053710938 396.3399963378906 C 720.7680053710938 396.3399963378906 719.9539794921875 401.1400146484375 719.9539794921875 401.1400146484375 C 719.9539794921875 401.1400146484375 722.06201171875 407.3240051269531 722.06201171875 407.3240051269531 C 722.06201171875 407.3240051269531 724.1710205078125 413.50799560546875 724.1710205078125 413.50799560546875 C 724.1710205078125 413.50799560546875 723.4990234375 417.3710021972656 723.4990234375 417.3710021972656 C 723.4990234375 417.3710021972656 722.8270263671875 421.2330017089844 722.8270263671875 421.2330017089844 C 722.8270263671875 421.2330017089844 723.9329833984375 426.9530029296875 723.9329833984375 426.9530029296875 C 723.9329833984375 426.9530029296875 725.0390014648438 432.6719970703125 725.0390014648438 432.6719970703125 C 725.0390014648438 432.6719970703125 723.4210205078125 434.97198486328125 723.4210205078125 434.97198486328125 C 723.4210205078125 434.97198486328125 721.8040161132812 437.27099609375 721.8040161132812 437.27099609375 C 721.8040161132812 437.27099609375 722.4219970703125 443.97900390625 722.4219970703125 443.97900390625 C 722.7620239257812 447.66900634765625 723.5650024414062 451.6969909667969 724.2059936523438 452.9289855957031 C 724.2059936523438 452.9289855957031 725.3729858398438 455.1700134277344 725.3729858398438 455.1700134277344 C 725.3729858398438 455.1700134277344 727.1820068359375 455.1700134277344 727.1820068359375 455.1700134277344 C 728.177001953125 455.1700134277344 729.3880004882812 455.80999755859375 729.8740234375 456.5920104980469 C 729.8740234375 456.5920104980469 730.7570190429688 458.0150146484375 730.7570190429688 458.0150146484375 C 730.7570190429688 458.0150146484375 727.2030029296875 460.83599853515625 727.2030029296875 460.83599853515625 C 727.2030029296875 460.83599853515625 723.6489868164062 463.656005859375 723.6489868164062 463.656005859375 C 723.6489868164062 463.656005859375 725.1090087890625 466.37200927734375 725.1090087890625 466.37200927734375 C 725.1090087890625 466.37200927734375 726.5689697265625 469.0880126953125 726.5689697265625 469.0880126953125 C 726.5689697265625 469.0880126953125 726.5689697265625 473.4549865722656 726.5689697265625 473.4549865722656 C 726.5689697265625 473.4549865722656 726.5689697265625 477.8219909667969 726.5689697265625 477.8219909667969 C 726.5689697265625 477.8219909667969 715.1430053710938 482.0469970703125 715.1430053710938 482.0469970703125 C 710.5079956054688 488.4949951171875 706.9650268554688 497.7650146484375 706.5850219726562 497.2720031738281 C 701.9630126953125 491.2720031738281 706.5460205078125 501.1759948730469 705.4359741210938 502.2820129394531 C 705.4359741210938 502.2820129394531 703.416015625 505.2919921875 703.416015625 505.2919921875 C 703.416015625 505.2919921875 704.7000122070312 507.6809997558594 704.7000122070312 507.6809997558594 C 705.406005859375 508.9939880371094 705.9840087890625 511.2179870605469 705.9840087890625 512.6220092773438 C 705.9840087890625 512.6220092773438 705.9840087890625 515.177001953125 705.9840087890625 515.177001953125 C 705.9840087890625 515.177001953125 708.1129760742188 517.2960205078125 708.1129760742188 517.2960205078125 C 708.1129760742188 517.2960205078125 710.2420043945312 519.4149780273438 710.2420043945312 519.4149780273438 C 710.2420043945312 519.4149780273438 710.822998046875 525.4400024414062 710.822998046875 525.4400024414062 C 710.822998046875 525.4400024414062 711.405029296875 531.4660034179688 711.405029296875 531.4660034179688 C 711.405029296875 531.4660034179688 709.5579833984375 532.9910278320312 709.5579833984375 532.9910278320312 C 708.5419921875 533.8300170898438 705.4450073242188 534.9849853515625 702.6729736328125 535.5579833984375 C 702.6729736328125 535.5579833984375 697.6339721679688 536.5999755859375 697.6339721679688 536.5999755859375 C 697.6339721679688 536.5999755859375 697.1669921875 539.10498046875 697.1669921875 539.10498046875 C 696.9099731445312 540.4829711914062 696.1129760742188 542.3309936523438 695.39501953125 543.2109985351562 C 695.39501953125 543.2109985351562 694.0889892578125 544.81201171875 694.0889892578125 544.81201171875 C 694.0889892578125 544.81201171875 691.2620239257812 544.81201171875 691.2620239257812 544.81201171875 C 691.2620239257812 544.81201171875 688.4349975585938 544.81201171875 688.4349975585938 544.81201171875 C 688.4349975585938 544.81201171875 682.9169921875 549.5130004882812 682.9169921875 549.5130004882812 C 682.9169921875 549.5130004882812 677.3989868164062 554.2139892578125 677.3989868164062 554.2139892578125 C 677.3989868164062 554.2139892578125 675.0360107421875 559.7000122070312 675.0360107421875 559.7000122070312 C 675.0360107421875 559.7000122070312 672.6740112304688 565.1859741210938 672.6740112304688 565.1859741210938 C 672.6740112304688 565.1859741210938 671.8159790039062 573.2479858398438 671.8159790039062 573.2479858398438 C 671.8159790039062 573.2479858398438 670.958984375 581.3090209960938 670.958984375 581.3090209960938 C 670.958984375 581.3090209960938 669.1790161132812 584.1370239257812 669.1790161132812 584.1370239257812 C 669.1790161132812 584.1370239257812 667.4000244140625 586.9650268554688 667.4000244140625 586.9650268554688 C 667.4000244140625 586.9650268554688 667.7150268554688 589.8079833984375 667.7150268554688 589.8079833984375 C 667.7150268554688 589.8079833984375 668.031005859375 592.6510009765625 668.031005859375 592.6510009765625 C 668.031005859375 592.6510009765625 664.8150024414062 593.5759887695312 664.8150024414062 593.5759887695312 C 663.0449829101562 594.0850219726562 659.4420166015625 594.5579833984375 656.8070068359375 594.6290283203125 C 656.8070068359375 594.6290283203125 652.0150146484375 594.7559814453125 652.0150146484375 594.7559814453125 C 652.0150146484375 594.7559814453125 650.1279907226562 598.3889770507812 650.1279907226562 598.3889770507812 C 650.1279907226562 598.3889770507812 648.239990234375 602.02197265625 648.239990234375 602.02197265625 C 648.239990234375 602.02197265625 650.093994140625 605.5789794921875 650.093994140625 605.5789794921875 C 651.114013671875 607.5360107421875 651.947998046875 610.1190185546875 651.947998046875 611.3200073242188 C 651.947998046875 611.3200073242188 651.947998046875 613.5040283203125 651.947998046875 613.5040283203125 C 651.947998046875 613.5040283203125 647.10302734375 619.8179931640625 647.10302734375 619.8179931640625 C 644.4390258789062 623.291015625 640.281005859375 628.2930297851562 637.8610229492188 630.9340209960938 C 637.8610229492188 630.9340209960938 633.4630126953125 635.7369995117188 633.4630126953125 635.7369995117188 C 633.4630126953125 635.7369995117188 630.5599975585938 635.7369995117188 630.5599975585938 635.7369995117188 C 630.5599975585938 635.7369995117188 627.656005859375 635.7369995117188 627.656005859375 635.7369995117188 C 627.656005859375 635.7369995117188 626.8629760742188 637.0139770507812 626.8629760742188 637.0139770507812 C 626.426025390625 637.7169799804688 622.7739868164062 639.760009765625 618.7459716796875 641.5540161132812 C 614.718994140625 643.3469848632812 608.7319946289062 646.22998046875 605.4439697265625 647.958984375 C 602.155029296875 649.68798828125 598.7269897460938 651.10400390625 597.8259887695312 651.10400390625 C 596.9249877929688 651.10400390625 595.2730102539062 651.864990234375 594.156005859375 652.7940063476562 C 593.0390014648438 653.7249755859375 589.8090209960938 655.1610107421875 586.97900390625 655.9860229492188 C 586.97900390625 655.9860229492188 581.8330078125 657.4879760742188 581.8330078125 657.4879760742188 C 581.8330078125 657.4879760742188 580.3140258789062 655.4530029296875 580.3140258789062 655.4530029296875 C 580.3140258789062 655.4530029296875 578.7949829101562 653.4180297851562 578.7949829101562 653.4180297851562 C 578.7949829101562 653.4180297851562 571.3079833984375 653.7429809570312 571.3079833984375 653.7429809570312 C 571.3079833984375 653.7429809570312 563.8209838867188 654.0679931640625 563.8209838867188 654.0679931640625 C 563.8209838867188 654.0679931640625 561.6950073242188 653.135986328125 561.6950073242188 653.135986328125 C 561.6950073242188 653.135986328125 559.5679931640625 652.2039794921875 559.5679931640625 652.2039794921875 C 559.5679931640625 652.2039794921875 554.114013671875 654.9739990234375 554.114013671875 654.9739990234375 C 554.114013671875 654.9739990234375 548.6610107421875 657.7440185546875 548.6610107421875 657.7440185546875 C 548.6610107421875 657.7440185546875 545.6920166015625 656.1619873046875 545.6920166015625 656.1619873046875 C 545.6920166015625 656.1619873046875 542.7230224609375 654.5809936523438 542.7230224609375 654.5809936523438 C 542.7230224609375 654.5809936523438 538.7470092773438 656.219970703125 538.7470092773438 656.219970703125 C 538.7470092773438 656.219970703125 534.77099609375 657.8599853515625 534.77099609375 657.8599853515625 C 534.77099609375 657.8599853515625 533.0150146484375 660.35498046875 533.0150146484375 660.35498046875 C 533.0150146484375 660.35498046875 531.2589721679688 662.8499755859375 531.2589721679688 662.8499755859375 C 531.2589721679688 662.8499755859375 528.6480102539062 661.458984375 528.6480102539062 661.458984375 C 527.2119750976562 660.6929931640625 524.906982421875 660.0670166015625 523.5260009765625 660.0670166015625 C 522.14599609375 660.0670166015625 519.3579711914062 660.927978515625 517.3309936523438 661.97998046875 C 517.3309936523438 661.97998046875 513.64599609375 663.8930053710938 513.64599609375 663.8930053710938 C 513.64599609375 663.8930053710938 508.5 663.885009765625 508.5 663.885009765625" style="opacity: 0;"></path><rect x="476" y="341" width="10" height="10" rx="2" ry="2" class="handle-original" fill="#da55da" stroke="#000000" style="stroke-width: 2px; opacity: 0.5;"></rect><rect x="158" y="282" width="10" height="10" rx="2" ry="2" class="handle-original" fill="#da55da" stroke="#000000" style="stroke-width: 2px; opacity: 0.5;"></rect><rect x="476" y="341" width="10" height="10" rx="2" ry="2" class="handle" fill="#da55da" stroke="#000000" style="stroke-width: 2px;" transform="matrix(0.6974,-0.3105,0.3105,0.6974,38.1263,254.0583)"></rect><rect x="158" y="282" width="10" height="10" rx="2" ry="2" class="handle" fill="#da55da" stroke="#000000" style="stroke-width: 2px;" transform="matrix(0.7193,0.6947,-0.6947,0.7193,245.1146,-32.6798)"></rect></svg>