<svg version="1.1" id="Layer_1" xmlns="http://www.w3.org/2000/svg" xmlns:xlink="http://www.w3.org/1999/xlink" x="0px" y="0px" width="400px" height="300px" viewBox="0 0 400 300" enable-background="new 0 0 400 300" xml:space="preserve"><defs></defs><path d="M 43.505 131.214 C 43.505 200 100 266.404 200 266.404 C 300 266.404 342.615 200 342.615 131.214 C 342.615 65 300 21.157 200 21.157 C 100 21.157 43.505 65 43.505 131.214" class="undeformed-curve" stroke="#bbbbbb" style="fill-opacity: 0; stroke-width: 3px; stroke-dasharray: 10px, 10px;"></path><path d="M122.776,151.944C121.97999999999999,149.927,121.437,147.875,121.216,145.82899999999998" class="undeformed-curve" stroke="#bbbbbb" style="fill-opacity: 0; stroke-width: 3px; stroke-dasharray: 10px, 10px;"></path><path d="M124.581,133.573C131.338,124.68700000000001,148.84300000000002,117.93,184.715,117.93C241.003,117.93,258.995,122.36000000000001,262.429,139.139" class="undeformed-curve" stroke="#bbbbbb" style="fill-opacity: 0; stroke-width: 3px; stroke-dasharray: 10px, 10px;"></path><path d="M263.076,145.62C263.108,147.594,263.024,149.699,262.84700000000004,151.945" class="undeformed-curve" stroke="#bbbbbb" style="fill-opacity: 0; stroke-width: 3px; stroke-dasharray: 10px, 10px;"></path><line x1="43.505001068115234" x2="43.505001068115234" y1="131.21400451660156" y2="200" class="control-point-tangents" stroke="#000000" style="stroke-width: 2px;"></line><line x1="200" x2="100" y1="266.40399169921875" y2="266.40399169921875" class="control-point-tangents" stroke="#000000" style="stroke-width: 2px;"></line><line x1="200" x2="300" y1="266.40399169921875" y2="266.40399169921875" class="control-point-tangents" stroke="#000000" style="stroke-width: 2px;"></line><line x1="342.614990234375" x2="342.614990234375" y1="131.21400451660156" y2="200" class="control-point-tangents" stroke="#000000" style="stroke-width: 2px;"></line><line x1="342.614990234375" x2="342.614990234375" y1="131.21400451660156" y2="65" class="control-point-tangents" stroke="#000000" style="stroke-width: 2px;"></line><line x1="200" x2="300" y1="21.156999588012695" y2="21.156999588012695" class="control-point-tangents" stroke="#000000" style="stroke-width: 2px;"></line><line x1="200" x2="100" y1="21.156999588012695" y2="21.156999588012695" class="control-point-tangents" stroke="#000000" style="stroke-width: 2px;"></line><line x1="43.505001068115234" x2="43.505001068115234" y1="131.21400451660156" y2="65" class="control-point-tangents" stroke="#000000" style="stroke-width: 2px;"></line><line x1="122.7760009765625" x2="121.9800033569336" y1="151.94400024414062" y2="149.927001953125" class="control-point-tangents" stroke="#000000" style="stroke-width: 2px;"></line><line x1="121.21600341796875" x2="121.43699645996094" y1="145.82899475097656" y2="147.875" class="control-point-tangents" stroke="#000000" style="stroke-width: 2px;"></line><line x1="124.58100128173828" x2="131.33799743652344" y1="133.572998046875" y2="124.68699645996094" class="control-point-tangents" stroke="#000000" style="stroke-width: 2px;"></line><line x1="184.71499633789062" x2="148.84300231933594" y1="117.93000030517578" y2="117.93000030517578" class="control-point-tangents" stroke="#000000" style="stroke-width: 2px;"></line><line x1="184.71499633789062" x2="241.0030059814453" y1="117.93000030517578" y2="117.93000030517578" class="control-point-tangents" stroke="#000000" style="stroke-width: 2px;"></line><line x1="262.4289855957031" x2="258.9949951171875" y1="139.13900756835938" y2="122.36000061035156" class="control-point-tangents" stroke="#000000" style="stroke-width: 2px;"></line><line x1="263.07598876953125" x2="263.1080017089844" y1="145.6199951171875" y2="147.593994140625" class="control-point-tangents" stroke="#000000" style="stroke-width: 2px;"></line><line x1="262.84698486328125" x2="263.02398681640625" y1="151.94500732421875" y2="149.69900512695312" class="control-point-tangents" stroke="#000000" style="stroke-width: 2px;"></line><circle cx="43.505001068115234" cy="200" r="5" class="control-point-inner" fill="#da5555" stroke="#000000" style="stroke-width: 2px;"></circle><circle cx="100" cy="266.40399169921875" r="5" class="control-point-inner" fill="#da5555" stroke="#000000" style="stroke-width: 2px;"></circle><circle cx="300" cy="266.40399169921875" r="5" class="control-point-inner" fill="#da5555" stroke="#000000" style="stroke-width: 2px;"></circle><circle cx="342.614990234375" cy="200" r="5" class="control-point-inner" fill="#da5555" stroke="#000000" style="stroke-width: 2px;"></circle><circle cx="342.614990234375" cy="65" r="5" class="control-point-inner" fill="#da5555" stroke="#000000" style="stroke-width: 2px;"></circle><circle cx="300" cy="21.156999588012695" r="5" class="control-point-inner" fill="#da5555" stroke="#000000" style="stroke-width: 2px;"></circle><circle cx="100" cy="21.156999588012695" r="5" class="control-point-inner" fill="#da5555" stroke="#000000" style="stroke-width: 2px;"></circle><circle cx="43.505001068115234" cy="65" r="5" class="control-point-inner" fill="#da5555" stroke="#000000" style="stroke-width: 2px;"></circle><circle cx="121.9800033569336" cy="149.927001953125" r="5" class="control-point-inner" fill="#da5555" stroke="#000000" style="stroke-width: 2px;"></circle><circle cx="121.43699645996094" cy="147.875" r="5" class="control-point-inner" fill="#da5555" stroke="#000000" style="stroke-width: 2px;"></circle><circle cx="131.33799743652344" cy="124.68699645996094" r="5" class="control-point-inner" fill="#da5555" stroke="#000000" style="stroke-width: 2px;"></circle><circle cx="148.84300231933594" cy="117.93000030517578" r="5" class="control-point-inner" fill="#da5555" stroke="#000000" style="stroke-width: 2px;"></circle><circle cx="241.0030059814453" cy="117.93000030517578" r="5" class="control-point-inner" fill="#da5555" stroke="#000000" style="stroke-width: 2px;"></circle><circle cx="258.9949951171875" cy="122.36000061035156" r="5" class="control-point-inner" fill="#da5555" stroke="#000000" style="stroke-width: 2px;"></circle><circle cx="263.1080017089844" cy="147.593994140625" r="5" class="control-point-inner" fill="#da5555" stroke="#000000" style="stroke-width: 2px;"></circle><circle cx="263.02398681640625" cy="149.69900512695312" r="5" class="control-point-inner" fill="#da5555" stroke="#000000" style="stroke-width: 2px;"></circle><circle cx="43.505001068115234" cy="131.21400451660156" r="10" class="control-point-handle" fill="#5555da" stroke="#000000" style="stroke-width: 2px;"></circle><circle cx="200" cy="266.40399169921875" r="10" class="control-point-handle" fill="#5555da" stroke="#000000" style="stroke-width: 2px;"></circle><circle cx="342.614990234375" cy="131.21400451660156" r="10" class="control-point-handle" fill="#5555da" stroke="#000000" style="stroke-width: 2px;"></circle><circle cx="200" cy="21.156999588012695" r="10" class="control-point-handle" fill="#5555da" stroke="#000000" style="stroke-width: 2px;"></circle><circle cx="122.7760009765625" cy="151.94400024414062" r="10" class="control-point-handle" fill="#5555da" stroke="#000000" style="stroke-width: 2px;"></circle><circle cx="121.21600341796875" cy="145.82899475097656" r="10" class="control-point-handle" fill="#5555da" stroke="#000000" style="stroke-width: 2px;"></circle><circle cx="124.58100128173828" cy="133.572998046875" r="10" class="control-point-handle" fill="#5555da" stroke="#000000" style="stroke-width: 2px;"></circle><circle cx="184.71499633789062" cy="117.93000030517578" r="10" class="control-point-handle" fill="#5555da" stroke="#000000" style="stroke-width: 2px;"></circle><circle cx="262.4289855957031" cy="139.13900756835938" r="10" class="control-point-handle" fill="#5555da" stroke="#000000" style="stroke-width: 2px;"></circle><circle cx="263.07598876953125" cy="145.6199951171875" r="10" class="control-point-handle" fill="#5555da" stroke="#000000" style="stroke-width: 2px;"></circle><circle cx="262.84698486328125" cy="151.94500732421875" r="10" class="control-point-handle" fill="#5555da" stroke="#000000" style="stroke-width: 2px;"></circle></svg>