<!--?xml version="1.0" encoding="utf-8"?-->
<!-- Generator: Adobe Illustrator 15.0.2, SVG Export Plug-In . SVG Version: 6.00 Build 0)  -->

<svg version="1.1" id="Layer_1" xmlns="http://www.w3.org/2000/svg" xmlns:xlink="http://www.w3.org/1999/xlink" x="0px" y="0px" width="400px" height="300px" viewBox="0 0 400 300" enable-background="new 0 0 400 300" xml:space="preserve">
<path fill="none" stroke="#231F20" stroke-width="6" stroke-miterlimit="10" d="M 43.505 131.214 C 43.505 200 100 266.404 200 266.404 C 300 266.404 342.615 200 342.615 131.214 C 342.615 65 300 21.157 200 21.157 C 100 21.157 43.505 65 43.505 131.214"></path>
<g>
	<g>
		<g>
			<g>
				<path fill="none" stroke="#00DF22" stroke-width="6" stroke-miterlimit="10" d="M122.776,151.944C121.97999999999999,149.927,121.437,147.875,121.216,145.82899999999998"></path>
				<path fill="none" stroke="#00DF22" stroke-width="6" stroke-miterlimit="10" stroke-dasharray="13.033,13.033" d="M124.581,133.573C131.338,124.68700000000001,148.84300000000002,117.93,184.715,117.93C241.003,117.93,258.995,122.36000000000001,262.429,139.139"></path>
				<path fill="none" stroke="#00DF22" stroke-width="6" stroke-miterlimit="10" d="M263.076,145.62C263.108,147.594,263.024,149.699,262.84700000000004,151.945"></path>
			</g>
		</g>
	</g>
</g>
</svg>
