<!--?xml version="1.0" encoding="utf-8"?-->
<!-- Generator: Adobe Illustrator 15.0.2, SVG Export Plug-In . SVG Version: 6.00 Build 0)  -->

<svg version="1.1" id="Layer_1" xmlns="http://www.w3.org/2000/svg" xmlns:xlink="http://www.w3.org/1999/xlink" x="0px" y="0px" width="595px" height="194px" viewBox="0 0 595 194" enable-background="new 0 0 595 194" xml:space="preserve">
<g>
	<path d="M 83.704 108.077 C 83.704 108.077 90.298 108.077 90.298 108.077 C 90.298 108.077 90.298 67.446 90.298 67.446 C 90.298 67.446 83.704 67.446 83.704 67.446 C 83.704 67.446 83.704 66.614 83.704 66.614 C 83.704 66.614 102.831 66.614 102.831 66.614 C 102.831 66.614 102.831 67.446 102.831 67.446 C 102.831 67.446 96.237 67.446 96.237 67.446 C 96.237 67.446 96.237 86.871 96.237 86.871 C 96.237 86.871 116.018 86.871 116.018 86.871 C 116.018 86.871 116.018 67.446 116.018 67.446 C 116.018 67.446 109.424 67.446 109.424 67.446 C 109.424 67.446 109.424 66.614 109.424 66.614 C 109.424 66.614 128.551 66.614 128.551 66.614 C 128.551 66.614 128.551 67.446 128.551 67.446 C 128.551 67.446 121.957 67.446 121.957 67.446 C 121.957 67.446 121.957 108.077 121.957 108.077 C 121.957 108.077 128.551 108.077 128.551 108.077 C 128.551 108.077 128.551 108.909 128.551 108.909 C 128.551 108.909 109.424 108.909 109.424 108.909 C 109.424 108.909 109.424 108.077 109.424 108.077 C 109.424 108.077 116.018 108.077 116.018 108.077 C 116.018 108.077 116.018 87.702 116.018 87.702 C 116.018 87.702 96.238 87.702 96.238 87.702 C 96.238 87.702 96.238 108.077 96.238 108.077 C 96.238 108.077 102.832 108.077 102.832 108.077 C 102.832 108.077 102.832 108.909 102.832 108.909 C 102.832 108.909 83.704 108.909 83.704 108.909 C 83.704 108.909 83.704 108.077 83.704 108.077"></path>
	<path d="M 158.729 108.255 C 158.214 108.651 157.6 108.997 156.887 109.295 C 156.174 109.592 155.303 109.74 154.273 109.74 C 152.372 109.74 150.996 109.334 150.145 108.522 C 149.293 107.711 148.709 106.572 148.393 105.106 C 148.393 105.106 148.274 105.106 148.274 105.106 C 148.115 105.462 147.897 105.908 147.621 106.442 C 147.344 106.977 146.917 107.492 146.344 107.986 C 145.77 108.482 145.008 108.898 144.057 109.234 C 143.106 109.57 141.898 109.739 140.433 109.739 C 138.769 109.739 137.442 109.55 136.453 109.175 C 135.462 108.8 134.69 108.334 134.136 107.779 C 133.581 107.225 133.215 106.601 133.037 105.907 C 132.859 105.215 132.77 104.571 132.77 103.977 C 132.77 102.591 133.046 101.482 133.602 100.65 C 134.156 99.8182 134.879 99.155 135.77 98.6599 C 136.661 98.1648 137.65 97.7604 138.74 97.442 C 139.828 97.1239 140.929 96.793 142.036 96.43 C 143.345 96.0008 144.421 95.6191 145.274 95.3039 C 146.126 94.9888 146.789 94.6004 147.264 94.145 C 147.739 93.6901 148.066 93.1159 148.244 92.422 C 148.422 91.73 148.512 90.789 148.512 89.601 C 148.512 88.65 148.452 87.7989 148.334 87.0471 C 148.215 86.2951 147.997 85.6507 147.681 85.1162 C 147.364 84.5808 146.909 84.1759 146.314 83.8981 C 145.72 83.6208 144.928 83.482 143.938 83.482 C 142.631 83.4821 141.552 83.7107 140.701 84.1652 C 139.849 84.6206 139.424 85.3632 139.424 86.393 C 139.424 87.0669 139.484 87.7301 139.602 88.383 C 139.721 89.036 139.78 89.522 139.78 89.838 C 139.78 90.3931 139.582 90.8578 139.186 91.2341 C 138.79 91.6109 138.215 91.798 137.463 91.798 C 136.156 91.798 135.344 91.56 135.027 91.085 C 134.71 90.61 134.552 89.996 134.552 89.244 C 134.552 88.373 134.749 87.5421 135.146 86.749 C 135.542 85.9571 136.126 85.2549 136.898 84.641 C 137.67 84.0271 138.64 83.5418 139.809 83.1851 C 140.976 82.829 142.313 82.6499 143.819 82.6501 C 145.64 82.6503 147.165 82.8783 148.393 83.3334 C 149.62 83.7883 150.611 84.4023 151.363 85.1741 C 152.115 85.9459 152.65 86.818 152.967 87.7881 C 153.283 88.7588 153.442 89.7781 153.442 90.848 C 153.442 90.848 153.442 105.639 153.442 105.639 C 153.442 106.788 153.62 107.56 153.977 107.956 C 154.333 108.352 154.848 108.55 155.521 108.55 C 155.957 108.55 156.412 108.471 156.887 108.312 C 157.363 108.154 157.817 107.917 158.253 107.6 C 158.253 107.6 158.729 108.255 158.729 108.255 M 148.333 94.355 C 148.333 94.355 148.214 94.355 148.214 94.355 C 148.134 94.87 147.481 95.385 146.254 95.899 C 146.254 95.899 141.799 97.681 141.799 97.681 C 140.531 98.196 139.561 98.919 138.888 99.849 C 138.214 100.78 137.878 101.938 137.878 103.324 C 137.878 103.918 137.938 104.532 138.056 105.166 C 138.174 105.8 138.393 106.364 138.71 106.859 C 139.027 107.355 139.472 107.76 140.046 108.077 C 140.62 108.394 141.362 108.552 142.274 108.552 C 143.581 108.552 144.64 108.276 145.452 107.72 C 146.264 107.166 146.878 106.472 147.294 105.641 C 147.71 104.809 147.987 103.909 148.126 102.938 C 148.265 101.968 148.334 101.087 148.334 100.294 C 148.334 100.294 148.334 94.355 148.334 94.355 C 148.334 94.355 148.333 94.355 148.333 94.355"></path>
	<path d="M 160.569 124.71 C 160.569 124.71 165.143 124.71 165.143 124.71 C 165.143 124.71 165.143 84.257 165.143 84.257 C 165.143 84.257 160.569 84.257 160.569 84.257 C 160.569 84.257 160.569 83.425 160.569 83.425 C 160.569 83.425 170.133 83.425 170.133 83.425 C 170.133 83.425 170.133 88.415 170.133 88.415 C 170.133 88.415 170.252 88.415 170.252 88.415 C 170.846 86.751 171.826 85.376 173.192 84.287 C 174.558 83.1981 176.33 82.6529 178.508 82.6531 C 180.211 82.6532 181.814 83.0194 183.32 83.7523 C 184.824 84.4846 186.151 85.455 187.3 86.6631 C 188.448 87.8708 189.359 89.287 190.032 90.9101 C 190.705 92.5348 191.042 94.2371 191.042 96.019 C 191.042 97.841 190.695 99.574 190.002 101.217 C 189.309 102.861 188.368 104.316 187.18 105.583 C 185.992 106.851 184.616 107.861 183.052 108.613 C 181.487 109.364 179.834 109.741 178.092 109.741 C 176.745 109.741 175.606 109.513 174.676 109.058 C 173.745 108.603 172.983 108.069 172.389 107.454 C 171.795 106.841 171.339 106.207 171.023 105.553 C 170.707 104.9 170.487 104.375 170.37 103.979 C 170.37 103.979 170.251 103.979 170.251 103.979 C 170.251 103.979 170.251 124.71 170.251 124.71 C 170.251 124.71 174.825 124.71 174.825 124.71 C 174.825 124.71 174.825 125.542 174.825 125.542 C 174.825 125.542 160.568 125.542 160.568 125.542 C 160.568 125.542 160.568 124.71 160.568 124.71 C 160.568 124.71 160.569 124.71 160.569 124.71 M 185.102 95.306 C 185.102 93.485 185.004 91.8509 184.805 90.405 C 184.606 88.96 184.26 87.7228 183.765 86.6931 C 183.269 85.6639 182.577 84.8719 181.686 84.3171 C 180.795 83.7627 179.656 83.4853 178.27 83.485 C 176.804 83.4847 175.598 83.7435 174.646 84.2569 C 173.693 84.7705 172.927 85.4283 172.327 86.2151 C 171.898 86.7761 171.545 87.3642 171.289 87.9987 C 171.032 88.6339 170.823 89.3856 170.665 90.2559 C 170.506 91.1283 170.397 92.1269 170.338 93.256 C 170.278 94.3841 170.249 95.7209 170.249 97.265 C 170.249 98.5721 170.348 99.9189 170.546 101.305 C 170.743 102.692 171.119 103.949 171.674 105.077 C 172.229 106.206 173.01 107.126 174.02 107.839 C 175.03 108.552 176.367 108.908 178.03 108.908 C 179.654 108.908 180.941 108.592 181.891 107.958 C 182.841 107.325 183.554 106.413 184.03 105.225 C 184.506 104.037 184.801 102.602 184.922 100.918 C 185.042 99.236 185.103 97.365 185.102 95.306"></path>
	<path d="M 195.794 124.71 C 195.794 124.71 200.368 124.71 200.368 124.71 C 200.368 124.71 200.368 84.257 200.368 84.257 C 200.368 84.257 195.794 84.257 195.794 84.257 C 195.794 84.257 195.794 83.425 195.794 83.425 C 195.794 83.425 205.358 83.425 205.358 83.425 C 205.358 83.425 205.358 88.415 205.358 88.415 C 205.358 88.415 205.477 88.415 205.477 88.415 C 206.071 86.751 207.051 85.376 208.417 84.287 C 209.783 83.1981 211.555 82.6529 213.733 82.6531 C 215.436 82.6532 217.039 83.0194 218.545 83.7523 C 220.049 84.4846 221.376 85.455 222.525 86.6631 C 223.673 87.8708 224.584 89.287 225.257 90.9101 C 225.93 92.5348 226.267 94.2371 226.267 96.019 C 226.267 97.841 225.92 99.574 225.227 101.217 C 224.534 102.861 223.593 104.316 222.405 105.583 C 221.217 106.851 219.841 107.861 218.277 108.613 C 216.712 109.364 215.059 109.741 213.317 109.741 C 211.97 109.741 210.831 109.513 209.901 109.058 C 208.97 108.603 208.208 108.069 207.614 107.454 C 207.02 106.841 206.564 106.207 206.248 105.553 C 205.932 104.9 205.712 104.375 205.595 103.979 C 205.595 103.979 205.476 103.979 205.476 103.979 C 205.476 103.979 205.476 124.71 205.476 124.71 C 205.476 124.71 210.05 124.71 210.05 124.71 C 210.05 124.71 210.05 125.542 210.05 125.542 C 210.05 125.542 195.793 125.542 195.793 125.542 C 195.793 125.542 195.793 124.71 195.793 124.71 C 195.793 124.71 195.794 124.71 195.794 124.71 M 220.327 95.306 C 220.327 93.485 220.229 91.8509 220.03 90.405 C 219.831 88.96 219.485 87.7228 218.99 86.6931 C 218.494 85.6639 217.802 84.8719 216.911 84.3171 C 216.02 83.7627 214.881 83.4853 213.495 83.485 C 212.029 83.4847 210.823 83.7435 209.871 84.2569 C 208.918 84.7705 208.152 85.4283 207.552 86.2151 C 207.123 86.7761 206.77 87.3642 206.514 87.9987 C 206.257 88.6339 206.048 89.3856 205.89 90.2559 C 205.731 91.1283 205.622 92.1269 205.563 93.256 C 205.503 94.3841 205.474 95.7209 205.474 97.265 C 205.474 98.5721 205.573 99.9189 205.771 101.305 C 205.968 102.692 206.344 103.949 206.899 105.077 C 207.454 106.206 208.235 107.126 209.245 107.839 C 210.255 108.552 211.592 108.908 213.255 108.908 C 214.879 108.908 216.166 108.592 217.116 107.958 C 218.066 107.325 218.779 106.413 219.255 105.225 C 219.731 104.037 220.026 102.602 220.147 100.918 C 220.267 99.236 220.328 97.365 220.327 95.306"></path>
	<path d="M 229.059 83.425 C 229.059 83.425 243.612 83.425 243.612 83.425 C 243.612 83.425 243.612 84.257 243.612 84.257 C 243.612 84.257 238.622 84.257 238.622 84.257 C 238.622 84.257 246.285 102.909 246.285 102.909 C 246.285 102.909 254.305 84.257 254.305 84.257 C 254.305 84.257 249.374 84.257 249.374 84.257 C 249.374 84.257 249.374 83.425 249.374 83.425 C 249.374 83.425 258.462 83.425 258.462 83.425 C 258.462 83.425 258.462 84.257 258.462 84.257 C 258.462 84.257 255.254 84.257 255.254 84.257 C 255.254 84.257 245.453 107.186 245.453 107.186 C 244.7 108.889 243.988 110.602 243.314 112.324 C 242.64 114.047 241.968 115.779 241.293 117.522 C 240.74 118.949 240.184 120.195 239.63 121.264 C 239.075 122.333 238.491 123.204 237.878 123.878 C 237.264 124.551 236.601 125.056 235.888 125.393 C 235.175 125.729 234.344 125.898 233.393 125.898 C 232.244 125.898 231.323 125.72 230.631 125.363 C 229.938 125.007 229.393 124.591 228.997 124.115 C 228.601 123.639 228.344 123.144 228.225 122.63 C 228.106 122.115 228.047 121.679 228.047 121.323 C 228.047 120.333 228.324 119.59 228.879 119.095 C 229.433 118.599 230.106 118.352 230.899 118.352 C 231.176 118.352 231.473 118.382 231.79 118.441 C 232.106 118.5 232.403 118.609 232.681 118.768 C 232.957 118.926 233.195 119.144 233.394 119.421 C 233.591 119.698 233.691 120.035 233.691 120.431 C 233.691 120.985 233.522 121.51 233.186 122.005 C 232.849 122.5 232.681 123.045 232.681 123.639 C 232.681 124.153 232.819 124.49 233.097 124.649 C 233.374 124.807 233.751 124.886 234.226 124.886 C 234.859 124.886 235.444 124.738 235.978 124.441 C 236.512 124.144 237.037 123.659 237.552 122.985 C 238.066 122.311 238.581 121.431 239.096 120.342 C 239.61 119.252 240.184 117.916 240.819 116.332 C 240.819 116.332 243.432 109.679 243.432 109.679 C 243.432 109.679 233.156 84.255 233.156 84.255 C 233.156 84.255 229.057 84.255 229.057 84.255 C 229.057 84.255 229.057 83.425 229.057 83.425 C 229.057 83.425 229.059 83.425 229.059 83.425"></path>
	<path d="M 276.224 108.077 C 276.224 108.077 282.818 108.077 282.818 108.077 C 282.818 108.077 282.818 67.446 282.818 67.446 C 282.818 67.446 276.224 67.446 276.224 67.446 C 276.224 67.446 276.224 66.614 276.224 66.614 C 276.224 66.6141 286.62 66.6139 286.62 66.6139 C 287.214 66.6167 287.817 66.6009 288.432 66.5852 C 289.045 66.5695 289.669 66.5219 290.303 66.5021 C 290.936 66.4823 291.55 66.4908 292.145 66.4664 C 292.739 66.442 293.312 66.4355 293.868 66.4354 C 296.758 66.4345 299.135 66.7822 300.996 67.475 C 302.857 68.1679 304.322 69.0191 305.392 70.029 C 306.462 71.039 307.194 72.129 307.59 73.296 C 307.986 74.4639 308.184 75.524 308.184 76.474 C 308.184 77.7809 307.897 78.9891 307.323 80.098 C 306.749 81.2069 305.976 82.1773 305.007 83.0088 C 304.036 83.8413 302.918 84.514 301.651 85.0289 C 300.383 85.5442 299.057 85.8808 297.672 86.0391 C 297.672 86.0388 297.672 86.1583 297.672 86.1578 C 299.098 86.2777 300.553 86.5831 302.038 87.0784 C 303.522 87.5735 304.868 88.2659 306.077 89.1572 C 307.284 90.0475 308.265 91.1472 309.017 92.454 C 309.769 93.7609 310.146 95.2661 310.146 96.969 C 310.146 98.7509 309.809 100.385 309.136 101.87 C 308.462 103.355 307.451 104.632 306.106 105.702 C 304.759 106.772 303.056 107.613 300.998 108.226 C 298.938 108.84 296.543 109.147 293.81 109.147 C 293.255 109.147 292.711 109.137 292.176 109.117 C 291.642 109.096 291.077 109.067 290.484 109.028 C 289.889 108.988 289.275 108.959 288.642 108.939 C 288.008 108.918 287.335 108.909 286.622 108.909 C 286.622 108.909 276.226 108.909 276.226 108.909 C 276.226 108.909 276.226 108.077 276.226 108.077 C 276.226 108.077 276.224 108.077 276.224 108.077 M 288.758 85.801 C 288.758 85.801 294.223 85.801 294.223 85.801 C 295.331 85.8013 296.341 85.6624 297.252 85.3853 C 298.162 85.1085 298.945 84.6232 299.599 83.93 C 300.252 83.2379 300.757 82.296 301.114 81.108 C 301.471 79.92 301.648 78.416 301.648 76.593 C 301.648 74.534 301.381 72.881 300.846 71.633 C 300.312 70.3853 299.618 69.4444 298.767 68.8112 C 297.915 68.1779 296.964 67.7615 295.915 67.5634 C 294.865 67.3652 293.826 67.2663 292.797 67.2661 C 292.084 67.2659 291.361 67.2758 290.629 67.2962 C 289.896 67.3166 289.272 67.3663 288.758 67.444 C 288.758 67.444 288.758 85.801 288.758 85.801 M 288.758 108.077 C 289.233 108.117 289.757 108.166 290.331 108.225 C 290.905 108.284 291.727 108.314 292.797 108.314 C 294.657 108.314 296.251 108.136 297.579 107.78 C 298.905 107.424 299.994 106.8 300.846 105.908 C 301.698 105.017 302.321 103.839 302.717 102.374 C 303.113 100.909 303.311 99.0679 303.311 96.85 C 303.311 93.6821 302.637 91.1868 301.291 89.3651 C 299.944 87.5437 297.944 86.6332 295.292 86.633 C 295.292 86.633 288.758 86.633 288.758 86.633 C 288.758 86.633 288.758 108.077 288.758 108.077"></path>
	<path d="M 315.726 108.077 C 315.726 108.077 320.3 108.077 320.3 108.077 C 320.3 108.077 320.3 84.257 320.3 84.257 C 320.3 84.257 315.726 84.257 315.726 84.257 C 315.726 84.257 315.726 83.425 315.726 83.425 C 315.726 83.425 325.409 83.425 325.409 83.425 C 325.409 83.425 325.409 108.077 325.409 108.077 C 325.409 108.077 329.983 108.077 329.983 108.077 C 329.983 108.077 329.983 108.909 329.983 108.909 C 329.983 108.909 315.726 108.909 315.726 108.909 C 315.726 108.909 315.726 108.077 315.726 108.077 M 319.587 69.584 C 319.587 68.713 319.894 67.971 320.508 67.356 C 321.121 66.742 321.863 66.4349 322.736 66.435 C 323.606 66.4351 324.349 66.7417 324.964 67.3562 C 325.577 67.9697 325.885 68.7132 325.885 69.584 C 325.885 70.4559 325.577 71.1982 324.964 71.8119 C 324.35 72.4261 323.607 72.7319 322.736 72.732 C 321.864 72.732 321.122 72.426 320.508 71.812 C 319.894 71.198 319.587 70.456 319.587 69.584"></path>
	<path d="M 333.248 108.077 C 333.248 108.077 337.822 108.077 337.822 108.077 C 337.822 108.077 337.822 84.257 337.822 84.257 C 337.822 84.257 333.248 84.257 333.248 84.257 C 333.248 84.257 333.248 83.425 333.248 83.425 C 333.248 83.425 342.812 83.425 342.812 83.425 C 342.812 83.425 342.812 89.425 342.812 89.425 C 342.812 89.425 342.93 89.425 342.93 89.425 C 343.088 88.8311 343.346 88.1579 343.702 87.405 C 344.058 86.653 344.554 85.9299 345.187 85.2371 C 345.82 84.5448 346.583 83.9601 347.474 83.485 C 348.365 83.01 349.443 82.772 350.711 82.772 C 351.621 82.772 352.413 82.9201 353.087 83.2179 C 353.76 83.5153 354.314 83.8916 354.75 84.3462 C 355.186 84.8017 355.502 85.3261 355.7 85.92 C 355.898 86.5139 355.997 87.108 355.997 87.702 C 355.997 89.009 355.7 89.88 355.106 90.316 C 354.512 90.752 353.819 90.969 353.027 90.969 C 351.284 90.969 350.414 90.415 350.414 89.306 C 350.414 88.95 350.453 88.662 350.532 88.444 C 350.611 88.2269 350.7 88.0091 350.8 87.791 C 350.899 87.574 350.988 87.3261 351.068 87.049 C 351.147 86.7721 351.186 86.376 351.186 85.861 C 351.186 84.594 350.493 83.9599 349.107 83.96 C 348.473 83.9601 347.8 84.1978 347.087 84.6731 C 346.374 85.1488 345.711 85.8422 345.098 86.752 C 344.483 87.6641 343.969 88.7629 343.553 90.049 C 343.137 91.3369 342.929 92.811 342.929 94.475 C 342.929 94.475 342.929 108.078 342.929 108.078 C 342.929 108.078 348.097 108.078 348.097 108.078 C 348.097 108.078 348.097 108.91 348.097 108.91 C 348.097 108.91 333.246 108.91 333.246 108.91 C 333.246 108.91 333.246 108.077 333.246 108.077 C 333.246 108.077 333.248 108.077 333.248 108.077"></path>
	<path d="M 356.831 83.425 C 356.831 83.425 361.405 83.425 361.405 83.425 C 361.405 83.425 361.405 75.762 361.405 75.762 C 361.721 75.8813 362.018 75.9794 362.296 76.0592 C 362.572 76.1386 363.048 76.1782 363.722 76.178 C 364.316 76.1778 364.83 76.1092 365.267 75.9699 C 365.702 75.8312 366.118 75.6039 366.514 75.287 C 366.514 75.287 366.514 83.425 366.514 83.425 C 366.514 83.425 374.95 83.425 374.95 83.425 C 374.95 83.425 374.95 84.257 374.95 84.257 C 374.95 84.257 366.514 84.257 366.514 84.257 C 366.514 84.257 366.514 103.681 366.514 103.681 C 366.514 104.79 366.623 105.692 366.841 106.384 C 367.059 107.077 367.346 107.612 367.702 107.988 C 368.058 108.365 368.444 108.612 368.86 108.731 C 369.276 108.85 369.681 108.909 370.078 108.909 C 371.464 108.909 372.582 108.404 373.434 107.394 C 374.285 106.384 374.83 105.226 375.067 103.919 C 375.067 103.919 375.899 104.216 375.899 104.216 C 375.78 104.731 375.602 105.306 375.364 105.939 C 375.127 106.573 374.76 107.177 374.265 107.751 C 373.77 108.325 373.126 108.801 372.334 109.176 C 371.542 109.552 370.552 109.74 369.364 109.74 C 366.393 109.74 364.324 109.166 363.156 108.017 C 361.988 106.869 361.404 105.246 361.404 103.146 C 361.404 103.146 361.404 84.256 361.404 84.256 C 361.404 84.256 356.83 84.256 356.83 84.256 C 356.83 84.256 356.83 83.425 356.83 83.425 C 356.83 83.425 356.831 83.425 356.831 83.425"></path>
	<path d="M 377.087 108.077 C 377.087 108.077 381.66 108.077 381.66 108.077 C 381.66 108.077 381.66 66.911 381.66 66.911 C 381.66 66.911 377.087 66.911 377.087 66.911 C 377.087 66.911 377.087 66.08 377.087 66.08 C 377.087 66.08 386.77 66.08 386.77 66.08 C 386.77 66.08 386.77 89.425 386.77 89.425 C 386.77 89.4249 386.888 89.4251 386.888 89.4249 C 387.086 88.9113 387.422 88.2666 387.898 87.4941 C 388.374 86.722 389.017 85.9897 389.829 85.2962 C 390.641 84.6035 391.631 84.0094 392.8 83.5139 C 393.967 83.0192 395.363 82.7709 396.988 82.771 C 399.602 82.7712 401.73 83.4046 403.374 84.6722 C 405.017 85.9396 405.839 87.9602 405.839 90.731 C 405.839 90.731 405.839 108.077 405.839 108.077 C 405.839 108.077 410.413 108.077 410.413 108.077 C 410.413 108.077 410.413 108.909 410.413 108.909 C 410.413 108.909 396.156 108.909 396.156 108.909 C 396.156 108.909 396.156 108.077 396.156 108.077 C 396.156 108.077 400.73 108.077 400.73 108.077 C 400.73 108.077 400.73 88.89 400.73 88.89 C 400.73 87.3461 400.364 86.0779 399.631 85.0881 C 398.898 84.0989 397.76 83.6031 396.215 83.603 C 394.947 83.6029 393.74 83.8801 392.592 84.4349 C 391.443 84.9901 390.433 85.762 389.563 86.751 C 388.691 87.742 388.008 88.91 387.513 90.256 C 387.017 91.6031 386.771 93.0679 386.771 94.652 C 386.771 94.652 386.771 108.077 386.771 108.077 C 386.771 108.077 391.344 108.077 391.344 108.077 C 391.344 108.077 391.344 108.909 391.344 108.909 C 391.344 108.909 377.088 108.909 377.088 108.909 C 377.088 108.909 377.088 108.077 377.088 108.077 C 377.088 108.077 377.087 108.077 377.087 108.077"></path>
	<path d="M 431.202 66.08 C 431.202 66.08 440.885 66.08 440.885 66.08 C 440.885 66.08 440.885 108.078 440.885 108.078 C 440.885 108.078 445.459 108.078 445.459 108.078 C 445.459 108.078 445.459 108.91 445.459 108.91 C 445.459 108.91 435.896 108.91 435.896 108.91 C 435.896 108.91 435.896 103.742 435.896 103.742 C 435.896 103.742 435.777 103.742 435.777 103.742 C 435.618 104.217 435.381 104.792 435.064 105.465 C 434.747 106.139 434.282 106.792 433.668 107.425 C 433.054 108.059 432.282 108.604 431.352 109.058 C 430.421 109.513 429.283 109.741 427.937 109.741 C 426.194 109.741 424.541 109.364 422.976 108.613 C 421.412 107.861 420.036 106.851 418.848 105.583 C 417.66 104.316 416.719 102.861 416.027 101.217 C 415.334 99.5738 414.987 97.8411 414.987 96.019 C 414.987 94.237 415.323 92.535 415.997 90.91 C 416.67 89.287 417.581 87.871 418.729 86.663 C 419.877 85.4551 421.204 84.4849 422.709 83.7521 C 424.213 83.0199 425.817 82.653 427.521 82.653 C 429.698 82.653 431.46 83.188 432.807 84.257 C 434.154 85.326 435.104 86.633 435.659 88.177 C 435.659 88.177 435.778 88.177 435.778 88.177 C 435.778 88.177 435.778 66.911 435.778 66.911 C 435.778 66.911 431.204 66.911 431.204 66.911 C 431.204 66.911 431.204 66.08 431.204 66.08 C 431.204 66.08 431.202 66.08 431.202 66.08 M 420.926 95.306 C 420.926 97.366 420.986 99.237 421.104 100.919 C 421.223 102.603 421.52 104.038 421.996 105.226 C 422.471 106.414 423.184 107.326 424.135 107.959 C 425.085 108.593 426.371 108.909 427.995 108.909 C 429.659 108.909 430.995 108.553 432.005 107.84 C 433.015 107.127 433.797 106.207 434.352 105.078 C 434.906 103.95 435.283 102.693 435.481 101.306 C 435.679 99.9201 435.778 98.5739 435.778 97.266 C 435.778 95.7221 435.748 94.3849 435.689 93.257 C 435.629 92.1281 435.52 91.1287 435.362 90.2571 C 435.203 89.3865 434.987 88.6318 434.708 88.0005 C 434.43 87.3687 434.101 86.7688 433.696 86.22 C 433.109 85.4231 432.332 84.7738 431.383 84.2585 C 430.433 83.743 429.223 83.4864 427.759 83.4861 C 426.372 83.4859 425.235 83.7638 424.343 84.3182 C 423.452 84.8725 422.759 85.6652 422.264 86.6941 C 421.768 87.7237 421.423 88.9613 421.224 90.4059 C 421.025 91.8511 420.926 93.4839 420.926 95.306"></path>
	<path d="M 475.516 108.255 C 475 108.651 474.387 108.997 473.674 109.295 C 472.961 109.592 472.09 109.74 471.061 109.74 C 469.16 109.74 467.784 109.334 466.932 108.522 C 466.08 107.711 465.496 106.572 465.18 105.106 C 465.18 105.106 465.061 105.106 465.061 105.106 C 464.903 105.462 464.684 105.908 464.408 106.442 C 464.131 106.977 463.705 107.492 463.131 107.986 C 462.557 108.482 461.795 108.898 460.844 109.234 C 459.894 109.57 458.686 109.739 457.221 109.739 C 455.558 109.739 454.23 109.551 453.241 109.175 C 452.251 108.8 451.479 108.334 450.925 107.779 C 450.37 107.224 450.004 106.601 449.826 105.907 C 449.647 105.215 449.558 104.571 449.558 103.977 C 449.558 102.591 449.834 101.482 450.39 100.65 C 450.944 99.8181 451.666 99.1552 452.558 98.6599 C 453.449 98.165 454.438 97.7604 455.528 97.4419 C 456.616 97.1239 457.717 96.793 458.824 96.43 C 460.133 96.0008 461.21 95.619 462.062 95.304 C 462.914 94.9887 463.577 94.6003 464.052 94.1451 C 464.528 93.6899 464.854 93.116 465.032 92.422 C 465.21 91.7299 465.299 90.789 465.299 89.601 C 465.299 88.65 465.24 87.799 465.121 87.047 C 465.002 86.2951 464.784 85.6508 464.468 85.1161 C 464.151 84.581 463.696 84.1756 463.102 83.8982 C 462.507 83.6207 461.715 83.482 460.726 83.4821 C 459.418 83.4821 458.339 83.7107 457.488 84.1652 C 456.636 84.6206 456.212 85.3632 456.212 86.393 C 456.212 87.0669 456.272 87.7301 456.39 88.383 C 456.509 89.036 456.569 89.522 456.569 89.838 C 456.569 90.3931 456.37 90.8578 455.974 91.2341 C 455.578 91.6108 455.003 91.798 454.251 91.798 C 452.944 91.798 452.133 91.56 451.815 91.085 C 451.497 90.61 451.34 89.996 451.34 89.244 C 451.34 88.373 451.537 87.542 451.934 86.749 C 452.33 85.9571 452.914 85.2549 453.686 84.641 C 454.458 84.0271 455.428 83.5417 456.597 83.1851 C 457.765 82.8289 459.101 82.6499 460.607 82.6501 C 462.428 82.6503 463.953 82.8783 465.181 83.3334 C 466.408 83.7884 467.398 84.4021 468.151 85.1742 C 468.903 85.9457 469.437 86.818 469.755 87.7881 C 470.073 88.7588 470.231 89.7782 470.231 90.848 C 470.231 90.848 470.231 105.639 470.231 105.639 C 470.231 106.788 470.41 107.56 470.766 107.956 C 471.122 108.352 471.636 108.55 472.31 108.55 C 472.746 108.55 473.202 108.471 473.676 108.312 C 474.152 108.153 474.606 107.917 475.042 107.6 C 475.042 107.6 475.516 108.255 475.516 108.255 M 465.12 94.355 C 465.12 94.355 465.001 94.355 465.001 94.355 C 464.921 94.87 464.268 95.385 463.041 95.899 C 463.041 95.899 458.586 97.681 458.586 97.681 C 457.318 98.196 456.348 98.919 455.675 99.849 C 455.001 100.78 454.665 101.938 454.665 103.324 C 454.665 103.918 454.725 104.532 454.844 105.166 C 454.962 105.8 455.18 106.364 455.497 106.859 C 455.813 107.355 456.259 107.76 456.833 108.077 C 457.407 108.394 458.149 108.552 459.061 108.552 C 460.369 108.552 461.427 108.276 462.24 107.72 C 463.051 107.166 463.666 106.472 464.081 105.641 C 464.497 104.809 464.773 103.909 464.913 102.938 C 465.052 101.968 465.121 101.087 465.121 100.294 C 465.121 100.294 465.121 94.355 465.121 94.355 C 465.121 94.355 465.12 94.355 465.12 94.355"></path>
	<path d="M 474.505 83.425 C 474.505 83.425 489.059 83.425 489.059 83.425 C 489.059 83.425 489.059 84.257 489.059 84.257 C 489.059 84.257 484.069 84.257 484.069 84.257 C 484.069 84.257 491.732 102.909 491.732 102.909 C 491.732 102.909 499.752 84.257 499.752 84.257 C 499.752 84.257 494.821 84.257 494.821 84.257 C 494.821 84.257 494.821 83.425 494.821 83.425 C 494.821 83.425 503.91 83.425 503.91 83.425 C 503.91 83.425 503.91 84.257 503.91 84.257 C 503.91 84.257 500.702 84.257 500.702 84.257 C 500.702 84.257 490.9 107.186 490.9 107.186 C 490.148 108.889 489.435 110.602 488.762 112.324 C 488.088 114.047 487.416 115.779 486.74 117.522 C 486.187 118.948 485.633 120.195 485.078 121.264 C 484.523 122.333 483.939 123.204 483.326 123.878 C 482.712 124.551 482.049 125.056 481.336 125.393 C 480.623 125.729 479.792 125.898 478.841 125.898 C 477.693 125.898 476.772 125.72 476.079 125.363 C 475.386 125.007 474.841 124.591 474.445 124.115 C 474.049 123.639 473.792 123.144 473.673 122.63 C 473.555 122.115 473.495 121.679 473.495 121.323 C 473.495 120.333 473.772 119.59 474.326 119.095 C 474.881 118.599 475.554 118.352 476.347 118.352 C 476.623 118.352 476.92 118.382 477.238 118.441 C 477.554 118.5 477.851 118.609 478.129 118.768 C 478.406 118.926 478.644 119.144 478.842 119.421 C 479.04 119.698 479.139 120.035 479.139 120.431 C 479.139 120.985 478.97 121.51 478.634 122.005 C 478.297 122.5 478.129 123.045 478.129 123.639 C 478.129 124.153 478.268 124.49 478.545 124.649 C 478.821 124.807 479.198 124.886 479.674 124.886 C 480.307 124.886 480.892 124.738 481.426 124.441 C 481.961 124.144 482.486 123.659 483 122.985 C 483.515 122.311 484.03 121.431 484.545 120.342 C 485.06 119.252 485.634 117.916 486.268 116.332 C 486.268 116.332 488.881 109.679 488.881 109.679 C 488.881 109.679 478.605 84.255 478.605 84.255 C 478.605 84.255 474.506 84.255 474.506 84.255 C 474.506 84.255 474.506 83.425 474.506 83.425 C 474.506 83.425 474.505 83.425 474.505 83.425"></path>
	<path d="M 509.551 106.414 C 509.551 105.543 509.858 104.801 510.472 104.186 C 511.085 103.573 511.828 103.266 512.7 103.266 C 513.572 103.266 514.314 103.572 514.928 104.186 C 515.542 104.8 515.849 105.543 515.849 106.414 C 515.849 107.286 515.541 108.028 514.928 108.642 C 514.314 109.255 513.572 109.562 512.7 109.562 C 511.828 109.562 511.086 109.255 510.472 108.642 C 509.857 108.028 509.551 107.285 509.551 106.414 M 510.264 73.802 C 510.224 73.446 510.184 72.991 510.145 72.436 C 510.106 71.882 510.066 71.328 510.027 70.773 C 509.987 70.219 509.947 69.714 509.908 69.258 C 509.868 68.803 509.848 68.496 509.848 68.337 C 509.848 67.5451 510.106 66.8808 510.62 66.3471 C 511.135 65.8129 511.828 65.545 512.699 65.545 C 513.57 65.5451 514.262 65.8127 514.778 66.3472 C 515.293 66.8816 515.55 67.5452 515.55 68.337 C 515.55 68.4959 515.529 68.8031 515.49 69.258 C 515.45 69.714 515.41 70.218 515.371 70.773 C 515.331 71.328 515.292 71.882 515.253 72.436 C 515.213 72.991 515.173 73.446 515.134 73.802 C 515.134 73.802 513.292 98.335 513.292 98.335 C 513.292 98.335 512.104 98.335 512.104 98.335 C 512.104 98.335 510.264 73.802 510.264 73.802"></path>
</g>
</svg>
