<svg xmlns="http://www.w3.org/2000/svg" width="757.838" height="911.787"><defs></defs><path d="M0 0 C 0 0 6062.7099609375 0 6062.7099609375 0 C 6062.7099609375 0 6062.7099609375 7294 6062.7099609375 7294 C 6062.7099609375 7294 0 7294 0 7294 C 0 7294 0 0 0 0" style="opacity: 0;"></path><rect x="372" y="254" width="10" height="10" rx="2" ry="2" class="handle-original" fill="#da55da" stroke="#000000" style="stroke-width: 2px; opacity: 0.5;"></rect><rect x="371" y="408" width="10" height="10" rx="2" ry="2" class="handle-original" fill="#da55da" stroke="#000000" style="stroke-width: 2px; opacity: 0.5;"></rect><rect x="372" y="254" width="10" height="10" rx="2" ry="2" class="handle" fill="#da55da" stroke="#000000" transform="matrix(1.017,1.2559,-1.2559,1.017,318.85,-477.8798)" style="stroke-width: 2px;"></rect><rect x="371" y="408" width="10" height="10" rx="2" ry="2" class="handle" fill="#da55da" stroke="#000000" transform="matrix(0.883,-0.4694,0.4694,0.883,-85.8973,264.8663)" style="stroke-width: 2px;"></rect></svg>