<!--?xml version="1.0" encoding="utf-8"?-->
<!-- Generator: Adobe Illustrator 15.0.2, SVG Export Plug-In . SVG Version: 6.00 Build 0)  -->

<svg version="1.1" id="Layer_1" xmlns="http://www.w3.org/2000/svg" xmlns:xlink="http://www.w3.org/1999/xlink" x="0px" y="0px" width="1020px" height="200px" viewBox="0 0 1020 200" enable-background="new 0 0 1020 200" xml:space="preserve">
<path d="M 1005.51 79.0405 C 1008.95 82.1467 1010.45 87.0081 1012.7 90.1599 C 1010.5 104.579 983.517 97.612 969.108 96.6777 C 965.143 96.4207 961.106 97.019 957.176 96.8308 C 950.517 96.5118 943.421 94.4662 936.412 93.7622 C 921.718 92.2863 906.24 93.7413 891.727 92.2815 C 883.592 91.4634 875.212 89.0787 866.94 88.5638 C 849.272 87.4642 829.412 89.0182 812.018 88.3916 C 802.005 88.0308 793.803 87.7632 785.231 90.586 C 779.701 92.4069 774.735 95.903 767.145 97.3355 C 758.889 98.8936 751.841 99.0798 742.238 100.129 C 731.233 101.332 721.671 104.344 710.401 105.558 C 704.335 106.453 698.675 106.184 693.633 109.611 C 688.17 109.311 683.67 110.149 678.082 110.319 C 676.499 115.529 675.803 121.525 674.338 127.635 C 673.06 132.969 672.31 139.871 669.689 144.226 C 668.987 146.785 666.357 148.16 665.104 150.229 C 663.506 154.653 663.894 160.17 666.689 164.166 C 664.834 168.49 665.921 173.748 663.562 177.444 C 663.553 178.721 661.61 178.665 660.36 180.143 C 657.771 183.202 656.625 188.318 650.354 188.113 C 648.791 186.813 649.493 184.675 649.557 182.156 C 643.628 183.421 638.685 191.844 630.204 186.876 C 628.184 183.933 633.855 183.956 632.713 180.228 C 627.475 181.926 624.034 187.396 616.062 184.929 C 614.753 182.236 616.7 179.997 617.892 178.278 C 614.147 175.124 616.844 170.729 615.581 166.319 C 613.049 166.801 608.892 166.178 605.528 167.004 C 601.365 168.424 597.938 173.913 592.919 171.687 C 591.785 162.84 598.746 161.977 597.838 153.701 C 605.315 146.671 617.296 143.998 615.481 128.371 C 601.429 128.633 585.598 128.6 571.266 128.406 C 559.239 128.243 548.141 131.718 534.717 131.788 C 525.175 131.838 515.843 129.675 506.407 129.24 C 493.497 128.645 480.177 130.183 467.233 130.382 C 463.567 130.438 460.19 131.866 456.605 131.952 C 445.408 132.223 434.368 129.743 423.087 130.303 C 418.842 135.213 418.277 144.476 415.418 151.33 C 414.197 154.257 411.412 155.778 410.886 158.855 C 410.4 161.701 412.268 165.138 411.847 168.134 C 410.978 174.324 407.963 177.54 402.584 180.458 C 401.724 184.513 401.216 189.131 396.357 189.385 C 393.592 190.255 395.368 185.33 393.721 184.192 C 392.122 187.115 388.201 191.202 384.341 189.954 C 380.878 189.255 384.196 185.89 384.063 183.342 C 379.336 186.319 376.328 194.433 368.223 192.133 C 368.114 188.36 370.46 187.096 370.271 183.417 C 368.46 180.415 369.982 173.004 366.226 171.742 C 362.836 170.889 361.466 174.651 357.935 174.882 C 356.124 175.255 354.059 173.434 351.964 173.978 C 348.299 174.93 347.509 179.437 343.114 179.806 C 336.647 174.487 344.559 166.362 344.783 159.911 C 347.687 156.136 353.082 154.903 357.128 152.482 C 358.476 149.493 358.163 144.897 358.518 141.149 C 357.182 136.987 351.738 138.221 347.67 137.307 C 344.308 136.551 341.261 134.266 337.906 134.038 C 332.031 133.637 325.216 136.297 317.85 136.132 C 303.842 136.178 289.589 131.887 272.087 133.989 C 268.399 134.432 264.693 136.581 260.975 137.131 C 255.167 137.989 248.676 137.718 243.311 137.175 C 238.673 136.706 235.429 133.989 230.886 132.675 C 228.465 132.066 225.058 132.56 221.93 132.088 C 219.301 131.837 216.353 130.497 214.106 130.806 C 207.961 131.264 199.764 136.838 191.88 140.592 C 181.581 145.495 169.424 153.036 158.854 160.57 C 147.027 169.001 134.088 164.879 120.386 156.653 C 110.199 150.537 97.8004 147.612 85.1018 144.643 C 80.2964 143.52 75.8082 141.212 71.4464 140.348 C 63.5868 138.743 50.3642 138.7 50.2576 128.298 C 50.2223 124.851 53.8314 121.859 55.8511 118.738 C 58.0586 115.327 59.0919 111.492 62.2058 110.389 C 66.1661 112.865 69.5403 119.346 73.6782 119.076 C 78.2466 118.976 77.9374 111.369 81.9343 108.386 C 86.8721 109.849 91.7908 120.225 96.8159 120.858 C 101.241 121.416 101.957 114.71 104.936 108.644 C 109.176 111.394 113.072 122.352 117.195 123.842 C 121.546 125.849 121.589 116.418 125.202 112.053 C 128.998 117.107 131.942 125.545 135.51 131.432 C 139.267 131.404 141.005 123.743 143.304 115.994 C 150.028 131.855 156.432 127.293 161.548 109.819 C 165.032 111.122 167.373 114.419 170.357 115.389 C 174.909 113.645 174.087 104.252 178.567 103.523 C 183.695 110.441 190.915 109.383 195.525 102.201 C 198.265 102.467 200.138 103.877 202.132 104.784 C 205.587 104.028 206.142 100.156 208.456 98.4111 C 210.905 98.8517 212.921 99.8119 214.955 99.4653 C 217.359 99.1912 218.601 96.6008 220.693 95.9995 C 223.857 95.3033 227.082 99.4277 229.051 95.4696 C 224.753 92.7226 217.399 91.1806 214.239 96.4153 C 212.186 95.8327 209.881 95.3363 207.742 94.4359 C 204.6 95.1558 204.697 99.8624 201.361 100.676 C 198.245 100.447 196.378 98.1072 194.145 96.0078 C 191.77 98.1446 190.758 102.346 187.749 104.15 C 183.883 103.246 181.314 99.5703 177.9 96.7196 C 174.35 98.4281 172.558 103.985 169.455 107.759 C 165.947 107.561 164.623 101.149 161.644 97.8863 C 157.98 100.916 155.312 108.704 153.158 117.648 C 149.691 115.39 146.824 108.871 144.049 101.209 C 139.688 102.347 138.71 120.945 135.015 119.634 C 131.366 118.339 129.188 104.295 125.188 100.084 C 121.352 102.455 119.535 114.008 115.483 112.896 C 111.561 112.358 108.771 105.198 104.864 102.087 C 100.847 105.143 99.4555 112.469 95.2318 113.978 C 90.7916 111.117 88.1429 105.779 83.827 103.424 C 78.6749 104.878 77.9235 112.58 74.2138 115.455 C 67.9952 113.738 66.6443 104.468 61.4492 105.145 C 57.5621 105.651 54.6408 116.152 49.8397 116.79 C 45.3654 116.032 46.5567 107.98 45.5683 102.746 C 44.943 99.8243 40.1394 98.0195 38.8655 93.1816 C 38.3214 91.0421 39.302 87.3392 38.8622 84.3638 C 38.1417 79.4898 35.0604 76.8277 34.9359 74.3899 C 34.7763 69.9263 37.5981 63.9103 39.8045 61.4729 C 41.5337 59.6932 52.9784 53.3795 58.2163 51.8971 C 64.9931 50.1253 71.0767 52.8533 79.4036 48.9774 C 81.765 47.8782 84.1309 45.3839 86.5359 43.9622 C 88.7929 42.7853 90.9053 42.6274 92.9311 41.3211 C 99.6962 36.8413 105.631 30.6749 110.629 28.8035 C 118.651 26.1859 126.946 26.589 134.936 24.6268 C 140.031 23.3757 144.156 21.2452 149.252 21.3059 C 157.244 21.401 164.248 27.0299 171.092 28.5676 C 173.233 29.0486 174.942 27.8847 177.062 28.1418 C 188.144 29.4862 197.442 36.4216 205.502 31.8746 C 207.772 30.7004 208.802 27.4531 211.813 26.0293 C 217.19 23.4862 223.265 26.3092 228.241 26.4446 C 229.915 26.4902 231.261 25.4878 233.19 25.4228 C 234.608 25.375 236.495 26.5231 238.042 26.3689 C 245.111 25.6642 250.437 21.7173 257.809 22.8183 C 261.172 23.3206 265.295 25.2375 268.891 26.8305 C 273.898 29.049 276.621 33.0452 284.282 31.8558 C 286.139 31.5674 288.115 30.197 289.783 29.6641 C 294.979 28.4468 301.457 28.1638 307.703 26.9197 C 313.4 25.7853 319.313 23.177 323.584 22.7636 C 325.47 22.5811 327.107 23.4602 328.426 23.1351 C 335.108 21.9598 339.773 17.1701 345.48 22.7265 C 354.791 21.4596 368.722 15.7377 375.776 20.6835 C 386.257 21.1961 394.684 15.3775 404.468 16.2348 C 408.326 16.5729 412.064 18.8336 416.116 18.8471 C 419.763 18.8592 423.501 17.1978 427.21 17.6184 C 432.528 18.2215 437.608 23.2691 442.531 23.4881 C 445.622 23.6334 446.875 22.3506 449.553 21.9201 C 456.136 20.8617 463.995 19.9613 470.553 19.9803 C 478.944 20.0047 487.529 23.5735 496.926 24.1039 C 507.258 24.6872 518.326 23.6973 528.411 24.5119 C 532.582 24.8489 536.295 26.7033 540.333 27.1254 C 547.94 27.9206 557.021 25.9589 564.961 27.1169 C 569.784 27.8203 574.85 30.9763 578.826 31.1095 C 581.606 31.2132 583.122 30.1077 585.707 29.8036 C 590.618 29.2258 595.884 29.9901 599.842 29.1709 C 602.354 28.6509 605.059 26.8572 607.138 26.5256 C 610.728 26.165 613.693 27.3181 616.602 27.2096 C 624.66 26.9924 631.032 24.3188 636.814 21.2725 C 639.858 26.6392 644.555 27.1123 652.384 29.924 C 658.814 32.233 670.44 39.0867 676.484 31.9141 C 683.015 33.3545 688.144 32.5444 694.169 33.2346 C 699.948 33.8965 705.342 36.3018 710.985 37.1872 C 714.418 37.7258 719.047 37.3834 722.235 37.8122 C 726.422 38.2547 729.705 39.6449 733.182 39.7769 C 738.567 39.9813 744.352 38.4476 749.138 39.0414 C 755.175 39.6882 759.32 42.8098 764.765 43.6146 C 775.064 45.1368 787.678 44.2779 800.178 44.7205 C 809.559 45.0795 815.587 45.0476 822.989 46.5467 C 824.521 46.7876 825.268 47.8358 825.684 47.853 C 828.885 48.0231 831.996 46.936 834.323 47.1174 C 837.744 47.361 839.755 48.6764 842.526 49.0478 C 848.323 49.8248 854.899 48.7967 859.729 49.5486 C 865.135 50.2648 868.649 53.1854 873.366 54.0754 C 875.233 54.4278 877.54 53.8105 879.37 54.0175 C 884.691 54.6199 890.497 57.926 895.202 58.4749 C 897.474 58.7057 899.5 58.2012 900.54 58.4215 C 911.577 60.1327 920.059 64.5942 930.131 65.3952 C 938.404 66.0531 947.841 62.736 954.613 67.7463 C 958.906 66.5365 963.754 65.9962 967.286 67.6002 C 969.971 68.4031 969.94 69.9214 972.188 70.8639 C 974.251 71.7284 977.199 71.8864 979.522 72.7579 C 981.433 73.4749 984.734 75.1325 985.294 75.3124 C 994.753 76.7694 1000.16 74.2082 1005.51 79.0405 M 990.224 94.4134 C 996.667 94.3955 1006.98 97.9837 1008.73 90.2111 C 1004.71 84.9853 995.921 85.293 988.944 83.8768 C 980.94 82.2522 973.328 78.82 964.921 76.9007 C 961.771 76.1817 958.35 76.323 955.011 75.7083 C 951.723 75.1031 948.591 73.5685 945.559 73.1628 C 935.058 71.7575 924.645 71.8437 912.651 70.8652 C 915.745 74.0628 921.398 73.0754 925.394 74.0379 C 930.061 75.0079 935.183 75.8134 936.101 79.205 C 933.316 81.1132 930.487 77.5896 926.076 76.6718 C 920.424 75.3499 912.371 77.3698 906.719 74.2415 C 907.202 71.4778 912.355 73.5948 912.001 70.8718 C 889.09 67.9523 873.172 57.146 845.827 57.6262 C 843.797 57.7554 843.364 59.5842 840.393 59.6492 C 829.887 55.7342 817.177 58.3269 803.747 57.3032 C 789.479 56.2156 775.401 52.0019 761.35 52.2508 C 759.236 52.2882 758.003 53.1657 755.223 52.937 C 753.193 52.7579 750.739 51.3026 747.883 50.9859 C 740.248 50.0874 733.854 50.8774 727.72 49.0763 C 725.79 48.4143 724.002 46.3363 720.902 45.7719 C 714.379 44.3284 704.61 45.3528 696.167 45.1769 C 683.644 44.9162 669.976 42.3246 657.083 41.2184 C 646.379 40.2999 635.586 41.4051 624.548 40.505 C 622.294 40.303 619.387 39.1915 616.522 39.1646 C 613.35 39.1557 610.028 40.5764 606.401 40.4698 C 600.909 40.3366 595.737 37.184 588.929 36.4455 C 583.106 35.7694 577.387 37.6087 573.475 37.7415 C 568.397 37.9825 561.89 36.3191 556.082 36.3918 C 554.335 36.4326 552.109 37.2049 550.061 37.0529 C 544.038 36.584 537.975 33.5861 531.486 33.0993 C 515.671 31.875 501.794 34.9352 490.885 30.1198 C 486.791 31.7189 482.062 33.6367 477.27 32.993 C 475.097 32.6553 472.231 30.2443 469.722 29.8694 C 464.074 29.0252 456.986 30.7508 449.999 29.7809 C 448.211 29.495 445.904 28.1184 443.822 28.0434 C 435.233 27.7343 426.336 30.162 417.142 29.2684 C 414.726 29.0247 412.072 27.7782 409.162 27.7421 C 405.736 27.7332 401.544 29.1334 397.68 29.1012 C 392.727 29.06 387.489 27.4449 381.917 27.5027 C 375.654 27.5677 369.406 29.6594 363.737 30.053 C 361.032 30.2408 359.312 29.2142 356.376 29.2298 C 350.857 29.3687 345.022 31.5651 340.11 31.6524 C 332.472 31.7882 327.573 26.7313 321.815 26.8372 C 318.327 26.9014 314.549 29.3146 310.795 30.0827 C 300.328 32.2246 287.339 31.8898 281.771 38.6076 C 273.42 32.867 264.19 24.6013 252.788 26.1339 C 250.878 26.4375 247.676 28.225 244.768 29.3507 C 242.082 30.3907 238.477 31.3203 236.077 32.4124 C 233.456 33.6049 231.392 36.3187 228.493 37.449 C 222.286 40.3822 213.151 41.8044 206.951 41.2499 C 200.412 40.665 193.966 37.3785 187.355 35.4425 C 181.375 33.691 176.194 33.8834 172.003 32.6891 C 165.726 30.8092 159.238 25.7952 152.308 24.6192 C 146.737 23.6004 141.216 25.2195 134.745 26.9 C 127.299 28.834 119.437 29.1062 111.8 32.1434 C 108.278 33.5439 102.758 38.131 98.4999 40.8911 C 88.2912 48.0672 73.9956 59.4139 62.7944 56.4792 C 64.2249 60.1764 69.8453 61.8594 70.4138 68.1842 C 70.7012 70.7525 70.6121 78.2613 66.1498 77.5006 C 69.0781 67.3371 66.4303 59.916 57.1969 62.242 C 55.1909 59.1913 50.1076 58.5701 46.4979 61.413 C 47.8088 65.7163 46.3898 78.1001 38.9258 74.8106 C 40.9485 80.0713 42.7594 85.7953 42.8335 93.7968 C 45.8835 95.7742 47.4327 98.6832 50.816 99.3101 C 54.9116 100.069 58.6289 96.7171 63.3479 96.2714 C 68.6044 95.7749 73.8668 98.3856 79.8457 97.4619 C 88.9534 96.0549 97.5854 91.8582 106.25 92.6887 C 108.785 92.9318 111.006 95.2806 113.459 95.3564 C 117.133 95.4699 120.844 91.6138 124.727 89.8826 C 126.884 89.5159 129.216 90.0774 131.272 90.5403 C 141.075 87.3642 151.245 79.7825 160.315 83.4054 C 173.024 88.4823 185.572 92.5912 196.74 91.4594 C 198.494 91.2817 200.348 90.0809 201.898 89.6807 C 206.312 88.983 211.627 89.149 216.092 89.3809 C 221.734 89.7544 229.861 90.2738 232.21 93.8171 C 230.418 106.124 217.904 100.885 208.657 104.802 C 205.735 106.04 203.915 109.241 201.019 109.954 C 198.865 110.803 196.393 109.947 193.867 110.49 C 188.595 111.637 183.475 115.473 177.793 118.103 C 172.965 121.094 167.41 120.229 162.093 123.764 C 153.076 129.758 144.703 145.444 134.665 137.292 C 118.293 123.995 102.504 123.978 87.0202 122.924 C 79.5483 129.475 55.1094 114.895 54.3503 131.197 C 77.3601 139.868 103.535 142.104 126.408 157.621 C 133.095 162.157 139.988 163.081 146.366 163.179 C 149.767 163.231 153.747 162.228 156.737 160.519 C 159.651 158.854 162.138 155.912 165.039 153.485 C 169.253 150.437 173.589 148.626 177.405 145.792 C 180.579 143.65 183.355 140.212 186.358 138.361 C 188.086 137.509 190.374 137.409 192.051 136.624 C 200.881 133.079 210.24 126.646 218.31 126.248 C 220.643 126.132 222.383 127.155 224.768 126.58 C 231.527 124.951 237.921 116.732 243.857 114.879 C 253.239 112.401 260.69 113.824 266.795 114.916 C 275.667 116.503 283.513 117.031 292.621 118.238 C 302.935 119.604 313.692 124.173 324.043 121.145 C 323.52 118.488 318.923 116.593 319.584 114.223 C 324.462 114.911 326.943 119.862 330.776 121.978 C 333.308 123.31 335.784 123.567 338.189 124.766 C 345.346 128.334 351.638 133.431 358.376 136.532 C 361.05 136.942 360.873 132.705 363.136 134.911 C 361.532 143.388 362.959 155.037 356.132 158.473 C 349.029 158.094 345.349 163.998 351.147 168.09 C 355.837 171.4 361.532 168.972 367.279 168.358 C 371.525 170.022 372.74 174.958 373.163 180.602 C 375.088 182.377 379.977 182.023 382.159 180.778 C 383.689 176.875 385.352 172.736 384.109 169.4 C 383.083 165.64 378.827 166.233 377.835 161.793 C 384.898 160.021 388.167 168.487 386.874 178.543 C 389.947 178.976 392.424 181.565 395.328 179.464 C 395.571 178.736 395.646 177.981 396.476 178.076 C 397.472 169.966 392.421 165.28 392.165 160.357 C 398.142 162.216 398.665 170.465 400.058 177.245 C 407.755 176.762 409.431 167.262 407.161 158.963 C 412.062 147.114 420.834 135.747 417.945 119.873 C 417.413 118.053 414.137 119.176 413.621 116.734 C 416.859 112.363 411.597 109.393 410.325 105.592 C 402.105 103.814 396.579 98.5657 390.82 93.4454 C 388.239 92.0699 383.22 93.2894 382.937 88.6591 C 394.947 91.4501 401.395 100.782 412.713 104.142 C 414.933 107.719 416.882 111.438 418.993 114.481 C 424.717 114.469 429.18 115.395 434.373 115.222 C 447.07 114.798 462.113 109.367 474.29 108.832 C 479.504 108.604 485.441 110.737 490.234 110.591 C 493.519 110.711 495.435 109.765 498.114 109.87 C 504.898 110.137 511.709 112.38 518.49 113.104 C 522.381 113.519 525.956 113.138 529.735 113.744 C 532.921 114.255 536.278 115.884 539.684 116.389 C 550.597 118.004 562.01 117.855 572.306 119.023 C 568.949 115.193 558.268 118.194 557.498 111.014 C 562.568 111.507 574.585 113.548 577.02 117.695 C 590.607 119.327 599.883 125.144 612.705 119.71 C 614.716 117.992 610.74 111.63 614.603 111.044 C 618.4 110.86 616.268 114.619 616.788 116.393 C 618.615 122.623 620.379 130.879 619.727 139.02 C 616.494 143.033 613.444 147.543 610.568 152.345 C 605.914 151.753 604.047 154.081 601.917 156.356 C 602.904 162.967 609.266 162.706 615.472 161.656 C 619.699 163.487 621.443 169.374 619.808 174.279 C 623.519 175.002 625.801 176.775 629.931 176.246 C 632.13 174.471 634.488 173.061 635.86 170.91 C 638.03 168.247 634.521 160.268 638.315 159.611 C 642.16 162.131 639.844 173.188 638.016 176.881 C 640.848 178.15 644.165 180.239 646.792 178.844 C 648.617 176.568 648.244 174.908 647.304 171.536 C 650.592 169.601 646.486 162.315 649.816 162.236 C 654.889 164.826 650.746 172.643 652.758 176.815 C 666.766 180.105 659.284 161.52 659.923 154.925 C 660.47 149.29 664.519 146.511 666.465 142.282 C 669.647 135.367 672.906 121.377 673.522 113.677 C 673.931 108.578 674.905 100.803 672.553 95.6968 C 671.936 92.6585 664.688 84.1993 661.708 83.0877 C 657.418 81.1945 648.171 82.8068 641.541 81.1085 C 637.887 80.1724 634.927 76.1629 630.573 74.4274 C 628.547 73.3448 624.211 73.2027 621.269 72.4349 C 618.994 71.841 614.58 71.9629 613.054 68.4148 C 621.141 69.2503 628.359 68.834 634.676 71.7735 C 637.411 72.8907 639.146 76.2242 641.438 77.1042 C 647.714 79.2396 654.604 77.6204 661.711 79.1016 C 670.655 84.8315 677.412 92.4758 677.39 106.325 C 683.042 105.054 688.269 106.728 694.347 105.634 C 696.336 105.276 698.873 103.635 700.24 102.933 C 707.309 101.238 714.332 101.094 721.335 100.226 C 728.622 99.3221 735.652 97.6734 742.2 96.8083 C 750.659 95.6907 759.011 95.5767 766.152 93.9823 C 773.893 92.8005 779.052 88.9981 786.461 86.5852 C 799.416 82.3658 818.035 84.9912 834.133 85.5543 C 845.292 85.9447 854.791 85.2402 863.609 85.2859 C 872.7 85.333 881.057 88.0452 890.349 88.9855 C 906.309 90.6008 920.493 88.0871 935.056 89.8139 C 942.982 90.7537 950.762 93.2314 958.43 93.5007 C 967.889 93.8328 976.447 95.5015 983.448 95.1439 C 986.55 95.1448 988.375 94.4807 990.224 94.4134 M 991.405 80.5271 C 995.387 79.7199 998.2 83.0546 1000.06 81.0806 C 998.598 79.4464 992.079 78.5686 991.405 80.5271 M 962.716 73.6092 C 969.802 74.977 976.199 79.1362 983.39 78.6429 C 980.974 75.8892 976.259 74.8541 970.703 74.1729 C 968.284 68.7379 959.501 69.4285 952.034 71.0878 C 951.711 68.8218 947.564 69.9062 946.011 67.8534 C 943.388 69.9018 937.9 66.642 935.99 69.2857 C 940.784 71.1615 943.835 70.7278 948.843 71.1367 C 951.726 71.3722 955.339 73.3523 957.317 73.6662 C 959.631 73.9318 961.433 73.2898 962.716 73.6092 M 914.655 68.8618 C 921.094 69.1446 924.982 68.9271 928.668 68.7067 C 915.675 64.542 895.521 62.5891 879.902 57.9738 C 880.292 57.9948 879.058 58.0166 878.514 57.9824 C 881.31 62.8591 888.07 61.573 892.731 63.1471 C 894.933 63.8911 897.175 65.8794 898.553 66.3776 C 901.386 66.9323 902.545 65.9998 904.783 66.331 C 908.38 66.8633 912.183 68.7772 914.655 68.8618 M 850.452 52.9465 C 851.91 56.3482 859.252 55.9077 861.152 54.1758 C 859.249 52.5829 854.921 52.9121 850.452 52.9465 M 824.542 53.1745 C 830.294 53.5715 838.063 58.0757 842.999 53.6648 C 835.868 51.5743 827.538 51.6717 818.466 50.5685 C 807.829 49.275 797.536 48.4162 787.647 48.1339 C 779.793 47.9097 771.444 49.5938 764.112 48.2649 C 760.225 47.5606 757.723 44.5125 753.195 43.6612 C 745.242 41.889 733.919 44.555 725.699 42.4449 C 725.958 43.6257 726.25 44.5341 726.334 45.095 C 733.523 47.4194 740.836 46.6332 747.966 47.6754 C 750.957 48.1125 754.289 49.5332 756.52 49.6122 C 762.506 49.9028 766.806 48.5303 772.152 48.8833 C 785.056 49.7352 797.33 53.5684 809.775 53.9456 C 814.592 54.0917 820.007 52.8615 824.542 53.1745 M 671.143 39.8865 C 683.522 40.9063 696.937 42.131 706.825 41.1719 C 700.757 34.7986 686.615 36.5634 675.19 36.5658 C 674.854 38.3559 671.41 37.409 671.143 39.8865 M 657.035 37.895 C 660.946 38.381 664.941 41.9355 667.72 38.5581 C 660.923 38.0645 656.464 34.8429 651.585 33.2393 C 649.338 32.3037 644.634 32.3747 642.269 31.2414 C 639.621 29.9721 638.822 26.8824 635.43 25.9172 C 629.501 27.2546 622.79 30.8414 615.959 31.1954 C 614.161 31.2886 613.034 29.9038 610.482 29.8519 C 608.429 29.8392 605.335 31.1787 602.421 31.8278 C 600.246 32.4616 597.119 32.5113 595.001 34.4683 C 597.174 36.5042 600.573 35.7225 603.029 36.4758 C 604.719 36.8095 603.586 37.615 605.085 37.812 C 621.354 39.9514 642.044 36.0326 657.035 37.895 M 654.309 184.124 C 655.385 183.418 656.541 183.005 655.579 180.802 C 655.915 180.893 653.894 180.902 653.562 180.81 C 653.584 182.596 653.064 183.234 654.309 184.124 M 640.803 181.521 C 639.72 181.24 639.176 179.976 636.749 180.213 C 637.605 182.329 635.956 182.264 636.175 184.196 C 639.22 184.544 641.175 184.025 640.803 181.521 M 620.614 179.604 C 619.849 182.874 625.272 182.091 623.968 179.593 C 624.289 179.685 620.928 179.695 620.614 179.604 M 597.482 167.019 C 600.403 167.143 602.84 164.66 601.4 163.02 C 599.208 161.151 597.225 164.067 597.482 167.019 M 591.16 125.03 C 589.762 121.667 583.996 123.079 580.545 123.062 C 576.163 123.039 570.522 123.553 566.511 123.069 C 564.252 122.796 561.896 121.466 559.751 121.059 C 552.419 119.666 544.708 121.025 537.745 119.737 C 535.241 119.274 532.683 117.589 530.475 117.093 C 528.707 116.695 526.376 116.823 524.438 116.42 C 517.522 114.981 508.289 113.573 500.802 113.206 C 484.896 112.425 469.119 111.299 455.384 114.563 C 453.132 115.26 450.46 117.061 447.352 117.455 C 437.612 119.092 428.432 117.218 420.349 118.431 C 421.241 121.759 421.534 125.653 423.013 127.638 C 441.792 127.437 459.74 128.858 478.616 128.189 C 487.94 127.859 496.337 125.455 505.027 125.901 C 516.002 126.465 527.279 128.504 537.941 128.437 C 544.961 128.394 551.845 126.305 559.184 125.738 C 569.287 124.959 580.883 126.268 591.16 125.03 M 523.609 30.4801 C 538.493 29.8249 556.02 35.2795 572.168 33.0924 C 563.638 29.3338 550.819 30.4454 539.497 30.4306 C 534.64 28.4519 527.377 27.5939 520.987 28.5069 C 516.291 25.8547 506.168 26.1865 500.657 28.6719 C 508.285 31.8306 516.436 27.8362 523.609 30.4801 M 477.969 30.3424 C 482.95 29.8579 487.558 29.1566 489.634 26.1817 C 477.851 25.0783 466.109 21.2402 453.871 25.7139 C 460.466 28.8394 473.674 25.0765 477.969 30.3424 M 407.446 24.5736 C 416.031 24.2085 425.294 28.0612 433.188 25.1969 C 431.397 18.5733 421.702 22.4706 414.834 22.1916 C 410.958 22.0341 407.031 19.6332 403.226 19.582 C 397.31 19.5024 391.213 22.1508 386.661 24.5485 C 394.379 25.754 400.019 24.8894 407.446 24.5736 M 397.331 184.023 C 399.127 184.249 399.471 183.104 399.02 181.292 C 397.636 181.251 397.287 182.392 397.331 184.023 M 390.146 185.021 C 390.449 183.378 390.01 182.276 388.238 182.466 C 388.23 183.825 387.211 184.287 387.173 185.833 C 389.09 186.392 388.89 184.918 390.146 185.021 M 372.88 188.566 C 374.857 188.144 376.487 187.44 376.338 185.068 C 374.49 183.422 372.675 186.002 372.88 188.566 M 372.756 24.8306 C 371.162 19.7554 355.912 23.7019 353.381 25.4945 C 359.452 27.0171 366.315 26.1091 372.756 24.8306 M 344.121 174.466 C 346.83 174.324 347.821 172.54 348.17 170.239 C 347.194 170.124 347.187 168.512 345.123 169.124 C 345.349 171.365 343.686 171.844 344.121 174.466 M 333.319 24.8217 C 334.753 28.456 340.089 27.4258 344.279 27.4163 C 343.544 23.4246 338.032 24.6738 333.319 24.8217 M 340.087 129.877 C 337.756 129.681 334.935 126.529 332.169 125.865 C 326.961 124.614 319.32 126.834 312.033 126.032 C 310.091 125.818 308.259 124.974 305.764 124.49 C 294.388 122.743 283.301 120.616 272.658 119.161 C 267.71 118.485 262.682 117.131 258.664 116.982 C 246.111 116.515 238.273 122.409 229.333 128.675 C 237.839 133.364 245.844 134.846 256.391 134.226 C 266.89 133.609 278.215 129.825 289.354 129.81 C 293.363 129.804 297.978 129.709 301.777 130.153 C 306.034 130.65 310.573 132.935 315.387 133.062 C 323.981 133.291 332.664 131.195 340.087 129.877 M 229.904 31.3526 C 220.02 26.108 209.94 31.0846 205.88 37.4996 C 215.455 38.1097 223.583 35.6749 229.904 31.3526 M 198.677 94.8906 C 199.955 97.1773 203.565 96.9381 203.849 93.8058 C 203.011 92.7904 198.816 92.2958 198.677 94.8906 M 194.986 105.808 C 194.133 108.506 197.986 107.802 197.613 106.283 C 196.832 106.195 196.429 105.278 194.986 105.808 M 182.479 93.373 C 182.493 98.0912 188.915 102.601 189.591 96.2344 C 188.516 93.6255 184.81 94.7109 182.479 93.373 M 180.078 110.895 C 180.207 108.605 179.525 107.649 178.009 108.128 C 178.093 108.193 178.207 111.531 178.122 111.463 C 178.21 111.516 180.173 110.948 180.078 110.895 M 165.049 91.766 C 164.895 102.444 172.209 103.438 173.363 95.4907 C 172.273 92.165 167.062 90.2898 165.049 91.766 M 161.844 119.325 C 162.359 120.105 165.185 121.15 165.112 117.736 C 164.148 116.683 162.236 113.743 161.844 119.325 M 157.922 91.8057 C 155.116 86.9164 151.258 92.3359 148.069 95.0426 C 149.282 113.625 157.466 102.732 157.922 91.8057 M 142.625 132.604 C 144.41 132.063 148.033 134.957 148.394 130.562 C 146.727 130.392 146.213 125.278 144.202 125.028 C 144.254 129.226 142.677 128.965 142.625 132.604 M 138.155 101.913 C 136.789 96.5485 133.076 98.5532 130.429 97.0639 C 130.779 110.863 137.032 114.022 138.155 101.913 M 129.465 125.676 C 127.623 124.877 127.333 120.288 125.381 119.489 C 125.552 122.019 125.273 123.153 124.93 124.227 C 126.306 124.126 129.444 129.439 129.465 125.676 M 117.956 102.393 C 114.677 103.84 111.564 97.177 109.449 101.165 C 112.577 106.583 115.889 112.958 117.956 102.393 M 104.621 119.713 C 106.221 119.481 109.567 123.093 109.873 120.386 C 108.149 118.389 107.278 114.872 105.055 113.757 C 105.772 117.523 104.283 116.778 104.621 119.713 M 97.0786 109.788 C 96.1846 104.184 100.87 104.669 98.9323 100.51 C 96.1674 100.516 89.5831 97.3312 88.4225 102.492 C 90.3726 106.245 92.5551 109.925 97.0786 109.788 M 88.132 118.054 C 87.5613 113.361 80.3633 112.886 81.5861 119.05 C 82.4394 119.673 83.1735 120.348 83.6559 121.248 C 86.2853 121.94 87.8287 120.987 88.132 118.054 M 66 100.665 C 65.895 109.306 76.6613 114.257 76.5531 102.383 C 72.7278 102.307 70.5764 99.7109 66 100.665 M 65.7943 120.187 C 65.6973 114.467 59.2537 112.703 59.8382 119.777 C 59.8662 119.822 65.8363 120.215 65.7943 120.187 M 58.1006 102.534 C 55.6682 101.441 49.4965 102.208 48.2446 105.191 C 49.4597 106.521 48.7997 110.235 50.3404 111.018 C 53.6265 109.182 57.3293 107.782 58.1006 102.534 M 42.9848 69.6655 C 44.0883 68.4049 44.0632 65.1007 41.717 65.8965 C 41.5992 67.8702 41.5465 69.7464 42.9848 69.6655"></path>
<path fill="#1F9B31" d="M 1008.74 90.2127 C 1006.93 97.9811 996.751 94.4023 990.168 94.4079 C 988.95 94.5347 985.777 95.0706 983.618 95.1639 C 976.216 95.4836 967.979 93.8462 958.445 93.5061 C 950.719 93.2306 943 90.76 935.06 89.8181 C 920.484 88.0889 906.316 90.6023 890.35 88.9879 C 881.055 88.048 872.693 85.3354 863.613 85.2891 C 854.807 85.2443 845.261 85.9421 834.141 85.5575 C 818.09 85.0025 799.299 82.3552 786.523 86.5951 C 779.216 89.0201 773.363 92.7382 766.449 94.0233 C 758.456 95.509 750.914 95.7246 742.232 96.8159 C 735.517 97.6599 728.693 99.3348 721.347 100.229 C 714.285 101.089 707.352 101.249 700.231 102.934 C 698.884 103.641 696.333 105.282 694.348 105.64 C 688.273 106.732 683.034 105.054 677.394 106.328 C 677.392 92.4783 670.684 84.8375 661.69 79.1028 C 654.765 77.6432 647.463 79.2112 641.575 77.1234 C 638.985 76.2052 637.232 72.8741 634.806 71.7929 C 628.11 68.8083 621.322 69.273 613.009 68.4134 C 614.712 71.9826 618.861 71.8287 621.291 72.4397 C 624.435 73.2304 628.11 73.2954 630.767 74.4512 C 634.631 76.1321 637.983 80.1872 641.576 81.1164 C 648.092 82.8013 657.478 81.2014 661.698 83.0904 C 664.702 84.2031 671.926 92.6625 672.551 95.7009 C 674.907 100.808 673.928 108.581 673.52 113.677 C 672.904 121.382 669.646 135.37 666.465 142.285 C 664.521 146.512 660.469 149.292 659.922 154.926 C 659.282 161.526 666.765 180.11 652.758 176.816 C 650.747 172.644 654.891 164.827 649.817 162.239 C 646.484 162.318 650.59 169.602 647.302 171.542 C 648.244 174.914 648.617 176.571 646.792 178.847 C 644.167 180.242 640.848 178.155 638.013 176.882 C 639.844 173.194 642.162 162.137 638.312 159.614 C 634.521 160.271 638.03 168.248 635.86 170.913 C 634.488 173.061 632.13 174.472 629.933 176.249 C 625.804 176.78 623.519 175.005 619.808 174.284 C 621.441 169.379 619.697 163.49 615.474 161.661 C 609.266 162.706 602.901 162.97 601.919 156.362 C 604.045 154.086 605.914 151.756 610.568 152.346 C 613.443 147.548 616.496 143.039 619.727 139.02 C 620.379 130.882 618.615 122.624 616.79 116.396 C 616.27 114.622 618.401 110.861 614.605 111.045 C 610.74 111.635 614.716 117.997 612.705 119.715 C 599.883 125.149 590.607 119.33 577.02 117.698 C 574.585 113.548 562.572 111.512 557.493 111.015 C 558.29 118.198 568.916 115.185 572.327 119.031 C 561.891 117.83 550.773 118.05 539.587 116.37 C 536.432 115.925 533.059 114.286 529.589 113.714 C 526.085 113.166 522.524 113.558 518.38 113.082 C 511.853 112.415 504.901 110.144 498.036 109.858 C 495.948 109.887 492.959 110.585 490.37 110.624 C 485.271 110.702 479.544 108.618 474.309 108.842 C 462.081 109.365 447.091 114.801 434.371 115.222 C 429.171 115.393 424.727 114.474 418.991 114.481 C 416.886 111.445 414.931 107.724 412.714 104.143 C 401.397 100.785 394.947 91.4531 382.938 88.663 C 383.221 93.2914 388.238 92.072 390.819 93.4465 C 396.58 98.5676 402.104 103.816 410.326 105.594 C 411.599 109.396 416.86 112.368 413.623 116.737 C 414.136 119.179 417.412 118.058 417.946 119.876 C 420.832 135.75 412.061 147.119 407.162 158.969 C 409.429 167.263 407.755 176.765 400.059 177.25 C 398.665 170.465 398.143 162.219 392.164 160.36 C 392.422 165.283 397.473 169.966 396.477 178.079 C 395.648 177.982 395.573 178.742 395.329 179.467 C 392.426 181.569 389.944 178.977 386.877 178.547 C 388.156 168.486 384.912 160.029 377.825 161.794 C 378.917 166.273 382.948 165.588 384.173 169.429 C 385.211 172.679 383.792 176.921 382.142 180.772 C 380.004 182.035 375.075 182.371 373.165 180.606 C 372.737 174.96 371.529 170.024 367.279 168.361 C 361.531 168.973 355.836 171.403 351.146 168.092 C 345.348 164 349.028 158.097 356.133 158.476 C 362.96 155.042 361.532 143.388 363.135 134.914 C 360.873 132.71 361.049 136.947 358.374 136.537 C 351.639 133.434 345.347 128.338 338.19 124.769 C 335.786 123.571 333.306 123.312 330.777 121.981 C 326.944 119.865 324.463 114.914 319.583 114.229 C 318.924 116.598 323.521 118.489 324.042 121.148 C 313.691 124.178 302.937 119.607 292.622 118.241 C 283.512 117.034 275.667 116.506 266.794 114.919 C 260.689 113.827 253.24 112.406 243.858 114.881 C 237.921 116.737 231.527 124.952 224.768 126.583 C 222.384 127.159 220.642 126.135 218.31 126.251 C 210.24 126.651 200.882 133.079 192.054 136.626 C 190.367 137.408 188.101 137.524 186.35 138.36 C 183.406 140.244 180.518 143.608 177.431 145.812 C 173.538 148.592 169.293 150.461 165.034 153.481 C 162.149 155.917 159.652 158.854 156.739 160.52 C 153.747 162.231 149.769 163.233 146.367 163.181 C 139.992 163.082 133.099 162.16 126.409 157.622 C 103.535 142.105 77.3603 139.872 54.3505 131.201 C 55.1115 114.9 79.5507 129.482 87.0203 122.928 C 102.504 123.981 118.295 124.008 134.668 137.301 C 144.706 145.451 153.077 129.762 162.095 123.77 C 167.409 120.239 172.965 121.094 177.795 118.11 C 183.477 115.474 188.599 111.639 193.868 110.492 C 196.397 109.948 198.864 110.805 201.02 109.959 C 203.913 109.244 205.739 106.043 208.657 104.805 C 217.897 100.886 230.429 106.131 232.202 93.8178 C 229.919 90.3051 221.65 89.7209 216.132 89.3998 C 211.591 89.1357 206.268 88.965 201.956 89.709 C 200.207 90.0108 198.512 91.3071 196.757 91.4751 C 185.555 92.5477 173.03 88.5423 160.317 83.3937 C 151.247 79.7206 141.058 87.592 131.29 90.384 C 129.122 91.0037 126.95 88.7892 124.722 90.0108 C 120.824 91.4014 117.178 95.6558 113.439 95.3134 C 111.005 95.2714 108.843 93.0856 106.228 92.645 C 97.616 91.937 88.9401 96.0246 79.8465 97.4648 C 73.8762 98.4103 68.5994 95.7714 63.3474 96.2762 C 58.6295 96.7296 54.9112 100.07 50.8178 99.3136 C 47.4317 98.6879 45.8828 95.7774 42.8356 93.8018 C 42.7592 85.7997 40.9475 80.0764 38.9258 74.8117 C 46.3898 78.1026 47.8107 65.7184 46.4999 61.415 C 50.1095 58.5757 55.1917 59.1959 57.1988 62.2465 C 66.429 59.9234 69.078 67.3399 66.1516 77.5067 C 70.6154 78.2676 70.7023 70.755 70.4163 68.1881 C 69.8439 61.8559 64.2321 60.194 62.7917 56.4705 C 74.0146 59.4683 88.2671 47.9967 98.5131 40.9346 C 102.726 38.0309 108.289 33.5789 111.807 32.1587 C 119.428 29.0828 127.304 28.8482 134.749 26.9029 C 141.212 25.2142 146.741 23.6082 152.309 24.6191 C 159.24 25.7989 165.728 30.8092 172.004 32.6921 C 176.195 33.8831 181.374 33.6946 187.356 35.4462 C 193.969 37.3824 200.411 40.6676 206.952 41.252 C 213.156 41.8063 222.28 40.3824 228.502 37.453 C 231.316 36.3142 233.575 33.6196 236.024 32.4072 C 238.577 31.3327 242.042 30.3892 244.763 29.3508 C 247.706 28.2282 250.859 26.4373 252.789 26.1361 C 264.188 24.6041 273.424 32.87 281.774 38.6106 C 287.343 31.8925 300.328 32.2279 310.8 30.0852 C 314.552 29.3174 318.316 26.902 321.82 26.8387 C 327.599 26.7341 332.429 31.7838 340.128 31.6551 C 345.082 31.5722 350.679 29.3562 356.505 29.2401 C 358.991 29.1906 361.139 30.2494 363.78 30.0573 C 369.31 29.655 375.727 27.572 381.91 27.5025 C 387.412 27.4407 392.895 29.0719 397.585 29.0941 C 401.801 29.1513 405.546 27.7218 409.204 27.7445 C 412.014 27.7743 414.768 29.0272 417.132 29.2706 C 426.387 30.1642 435.167 27.7341 443.86 28.0479 C 445.967 28.1239 447.926 29.4758 450.126 29.7912 C 456.712 30.7353 464.325 29.0376 469.635 29.8666 C 472.474 30.2562 474.927 32.6489 477.295 32.9961 C 482.028 33.6371 486.811 31.7187 490.887 30.1216 C 501.8 34.9373 515.67 31.8749 531.488 33.0992 C 537.976 33.5872 544.039 36.5838 550.067 37.0531 C 552.089 37.2054 554.379 36.4385 556.054 36.3897 C 562.03 36.3286 568.211 37.9714 573.567 37.7468 C 577.176 37.5955 583.262 35.7792 588.908 36.4438 C 595.774 37.1885 600.887 40.335 606.407 40.4721 C 610.025 40.575 613.354 39.156 616.525 39.1666 C 619.388 39.1947 622.296 40.3028 624.548 40.5072 C 635.588 41.4074 646.381 40.3027 657.085 41.2201 C 669.98 42.3252 683.646 44.9179 696.172 45.1789 C 704.612 45.3549 714.382 44.3303 720.905 45.7739 C 724.011 46.3386 725.783 48.4156 727.729 49.0768 C 733.825 50.8749 740.305 50.0913 747.851 50.9832 C 751.087 51.3299 752.664 52.7181 755.473 52.9561 C 757.628 53.1388 759.28 52.2911 761.386 52.2525 C 775.361 51.9969 789.501 56.2165 803.749 57.3032 C 817.167 58.3265 829.897 55.7356 840.395 59.6481 C 843.37 59.5833 843.799 57.7564 845.829 57.6272 C 873.174 57.1451 889.09 67.9531 912.007 70.8708 C 912.329 73.5933 907.263 71.4817 906.677 74.2369 C 912.566 77.3873 920.156 75.3255 926.219 76.6846 C 930.104 77.5555 933.598 81.1363 936.056 79.2021 C 935.247 75.8195 930.037 75.0073 925.397 74.0368 C 921.439 73.0781 915.678 74.0584 912.706 70.8681 C 924.398 71.8232 935.43 71.7873 945.344 73.145 C 949.278 73.6242 951.415 75.0788 954.943 75.7018 C 958.528 76.3349 961.726 76.1786 964.901 76.8998 C 973.37 78.8236 980.923 82.2508 988.946 83.8761 C 995.935 85.292 1004.69 84.9827 1008.74 90.2127 M 869.954 69.9841 C 874.556 72.3221 879.452 77.2733 884.03 76.4598 C 881.588 71.8855 876.135 69.7719 870.602 67.3309 C 870.677 68.7126 869.039 68.6812 869.954 69.9841 M 784.205 69.3543 C 785.428 66.1375 780.89 66.0528 778.945 64.7582 C 774.394 61.7299 770.431 58.4558 763.33 57.543 C 762.869 57.5545 762.258 57.8926 761.353 58.2197 C 761.721 59.166 762.045 59.7032 762.043 60.2065 C 771.107 61.5469 777.127 69.1343 784.205 69.3543 M 725.832 60.375 C 728.707 64.0478 731.519 70.8154 735.807 64.9693 C 728.387 61.0693 726.431 51.1185 714.939 50.4451 C 715.241 50.4582 715.368 53.1327 714.883 53.0947 C 720.668 54.6818 723.05 56.8215 725.832 60.375 M 667.746 61.808 C 668.689 58.1624 664.437 59.2202 663.02 57.1559 C 659.108 53.1928 654.158 49.8335 649.537 45.8564 C 644.64 46.0436 639.087 43.3413 634.707 44.5068 C 635.024 44.5294 635.021 46.5274 634.699 46.503 C 639.325 47.9818 642.844 48.4486 646.833 48.5137 C 654.726 51.9382 659.193 61.9491 667.746 61.808 M 573.336 61.0055 C 575.085 55.5353 568.724 52.229 566.693 47.6925 C 562.738 46.3919 561.146 42.4439 556.705 41.0419 C 556.984 41.0605 555.653 41.0613 555.368 41.04 C 555.653 41.0599 555.626 43.7121 555.346 43.6905 C 558.429 45.5595 561.112 47.5558 563.329 49.6807 C 566.626 53.7773 568.903 58.639 573.336 61.0055 M 521.344 59.0199 C 523.584 59.6927 524.564 61.4061 527.278 60.986 C 521.396 48.9272 512.283 39.7332 498.61 35.3111 C 498.847 35.3132 498.823 37.9736 498.571 37.9524 C 503.402 40.2496 508.196 41.9002 511.566 45.1168 C 513.248 46.407 513.111 48.4079 514.157 49.7467 C 516.185 51.6455 519.797 51.4704 520.047 54.3682 C 521.033 55.6514 521.131 57.5391 521.344 59.0199 M 468.107 61.6323 C 469.425 58.9228 466.693 54.9952 468.15 51.0251 C 462.055 44.192 454.505 38.6226 446.221 33.876 C 445.571 33.8786 445.073 34.2499 444.33 34.597 C 444.068 34.7788 443.826 35.1911 443.691 35.937 C 443.971 37.6363 445.994 37.1728 447.439 37.1211 C 452.357 43.5556 461.365 45.5821 464.961 53.0898 C 464.936 55.8523 463.903 62.0744 468.107 61.6323 M 428.693 59.6354 C 429.535 54.0565 422.77 51.1953 420.731 46.1702 C 414.467 45.1682 411.658 39.9977 403.659 40.5442 C 400.964 37.5394 397.481 35.1398 391.532 35.3928 C 391.729 35.4083 391.723 38.0386 391.534 38.0204 C 395.967 38.619 399.123 41.6557 403.033 43.2103 C 404.262 43.5752 405.197 42.7927 406.131 43.0369 C 408.883 43.7563 416.813 47.6407 418.27 48.9318 C 422.737 52.2006 422.974 58.9061 428.693 59.6354 M 374.749 62.8181 C 375.127 59.1243 371.431 59.2846 369.278 57.2734 C 366.182 53.8275 363.621 48.8086 359.606 46.1302 C 354.446 42.688 341.598 38.6587 335.221 38.5527 C 335.425 38.5781 335.438 40.5562 335.24 40.5347 C 344.362 43.9543 353.649 45.4506 360.248 50.6864 C 365.289 54.6856 367.824 63.7442 374.749 62.8181 M 318.921 55.4347 C 320.901 57.3715 321.326 60.9719 325.69 59.6264 C 324.589 56.8271 321.399 53.2153 318.306 50.8596 C 313.732 47.3768 302.106 41.5847 296.008 41.4085 C 295.243 41.4184 292.358 40.4695 291.706 42.9345 C 291.855 42.9584 291.846 44.2844 291.719 44.2706 C 303.698 44.983 310.759 51.0371 318.921 55.4347 M 276.934 68.3234 C 277.798 65.0697 274.219 64.4774 272.506 62.4359 C 271.154 60.5871 270.709 57.9949 268.729 56.4782 C 266.443 54.5501 262.618 54.0754 259.355 52.6159 C 259.482 52.6407 258.235 52.66 258.099 52.6305 C 258.24 52.6623 258.204 55.3708 258.096 55.3583 C 267.7 56.2084 268.903 66.2501 276.934 68.3234 M 265.038 38.9823 C 267.193 39.0142 267.564 40.9109 269.983 40.245 C 269.618 35.6391 257.607 32.6474 253.361 32.2405 C 246.454 31.5786 241.25 34.2405 240.194 39.4433 C 243.756 41.7665 245.184 36.4367 248.928 36.9271 C 251.357 42.6979 261.444 44.0914 265.038 38.9823 M 236.595 67.2429 C 236.939 62.3537 231.317 60.6838 228.581 57.8282 C 227.238 56.313 226.608 53.9008 224.966 52.6542 C 222.226 50.3703 218.358 49.8083 215.228 47.4748 C 215.332 47.5 214.109 47.3489 213.999 47.3249 C 214.006 48.5852 214.149 49.5926 214.493 50.2684 C 216.649 52.4985 219.294 52.4065 221.197 53.8108 C 226.892 57.7572 229.641 65.4982 236.595 67.2429 M 50.2004 76.8856 C 50.9657 80.6043 58.1983 81.0582 58.8596 75.8853 C 58.3932 70.3023 50.6196 70.3745 50.2004 76.8856"></path>
<path fill="#166D20" d="M 1000.06 81.0806 C 998.2 83.0546 995.387 79.7209 991.405 80.5271 C 992.079 78.5695 998.601 79.4464 1000.06 81.0806"></path>
<path fill="#166D20" d="M 983.39 78.6429 C 976.199 79.1352 969.804 74.976 962.716 73.6082 C 961.433 73.2888 959.631 73.9328 957.317 73.6652 C 955.339 73.3533 951.726 71.3732 948.843 71.1377 C 943.835 70.7288 940.784 71.1615 935.99 69.2866 C 937.9 66.641 943.388 69.9018 946.011 67.8544 C 947.564 69.9062 951.711 68.8208 952.034 71.0888 C 959.501 69.4285 968.284 68.7379 970.703 74.1719 C 976.259 74.8561 980.974 75.8872 983.39 78.6429"></path>
<path fill="#166D20" d="M 928.668 68.7077 C 924.985 68.927 921.094 69.1447 914.655 68.8628 C 912.183 68.7773 908.38 66.8641 904.786 66.3321 C 902.545 66.0003 901.386 66.9347 898.555 66.3783 C 897.175 65.8783 894.936 63.8899 892.731 63.1455 C 888.07 61.5723 881.308 62.8596 878.514 57.9822 C 879.058 58.0167 880.294 57.9947 879.904 57.9738 C 895.521 62.5891 915.675 64.541 928.668 68.7077"></path>
<path d="M 884.03 76.4598 C 879.452 77.2733 874.557 72.3201 869.956 69.984 C 869.039 68.6822 870.679 68.7126 870.604 67.3309 C 876.135 69.7719 881.588 71.8845 884.03 76.4598"></path>
<path fill="#166D20" d="M 861.152 54.1758 C 859.252 55.9077 851.91 56.3482 850.452 52.9475 C 854.918 52.9091 859.249 52.5839 861.152 54.1758"></path>
<path fill="#166D20" d="M 843.015 53.6669 C 838.042 58.0722 830.303 53.5714 824.543 53.1753 C 820.003 52.8632 814.593 54.0929 809.778 53.9468 C 797.326 53.5691 785.057 49.7364 772.152 48.8823 C 766.804 48.5283 762.509 49.9038 756.519 49.6112 C 754.287 49.5351 750.956 48.1147 747.966 47.6773 C 740.837 46.6344 733.518 47.4212 726.335 45.0971 C 726.216 44.5331 726.021 43.6294 725.654 42.4431 C 734.101 44.5662 744.98 41.8711 753.343 43.6723 C 757.056 44.4719 760.907 47.6082 763.979 48.255 C 771.406 49.5925 780.121 47.9311 787.46 48.1206 C 797.874 48.4417 807.672 49.2664 818.447 50.5684 C 827.638 51.679 835.786 51.569 843.015 53.6669"></path>
<path d="M 778.948 64.7584 C 780.892 66.0523 785.43 66.1358 784.207 69.3542 C 777.129 69.1344 771.107 61.5469 762.041 60.2075 C 762.045 59.7032 761.721 59.166 761.351 58.2197 C 762.258 57.8935 762.87 57.5546 763.33 57.544 C 770.433 58.456 774.396 61.7296 778.948 64.7584"></path>
<path d="M 735.807 64.9692 C 731.519 70.8155 728.707 64.0477 725.834 60.376 C 723.052 56.8215 720.668 54.6819 714.883 53.0947 C 715.368 53.1328 715.241 50.4582 714.939 50.4451 C 726.429 51.1185 728.387 61.0703 735.807 64.9692"></path>
<path fill="#166D20" d="M 706.825 41.1729 C 696.937 42.13 683.52 40.9053 671.143 39.8885 C 671.408 37.411 674.854 38.3579 675.19 36.5658 C 686.615 36.5644 700.757 34.7986 706.825 41.1729"></path>
<path d="M 663.02 57.1559 C 664.439 59.2192 668.687 58.1634 667.746 61.809 C 659.193 61.9501 654.729 51.9392 646.835 48.5147 C 642.841 48.4506 639.325 47.9818 634.699 46.503 C 635.021 46.5274 635.024 44.5304 634.707 44.5078 C 639.09 43.3433 644.64 46.0446 649.537 45.8564 C 654.158 49.8335 659.108 53.1918 663.02 57.1559"></path>
<path fill="#166D20" d="M 667.689 38.5546 C 664.965 41.938 660.948 38.3802 657.034 37.8944 C 642.035 36.033 621.379 39.9516 605.066 37.8096 C 603.918 37.6349 604.454 36.7891 603.058 36.4756 C 600.537 35.719 597.197 36.5067 594.998 34.4671 C 597.126 32.5087 600.243 32.4604 602.424 31.8278 C 605.332 31.1776 608.429 29.8373 610.48 29.8508 C 613.029 29.9023 614.164 31.2889 615.962 31.1956 C 622.783 30.8418 629.511 27.2562 635.421 25.9148 C 638.892 26.8823 639.524 29.9662 642.297 31.2424 C 644.77 32.3797 649.034 32.2896 651.721 33.2431 C 656.2 34.8326 661.102 38.0743 667.689 38.5546"></path>
<path fill="#FFFFFF" d="M 655.581 180.802 C 656.543 183.007 655.385 183.415 654.309 184.126 C 653.062 183.234 653.584 182.594 653.562 180.81 C 653.894 180.902 655.917 180.893 655.581 180.802"></path>
<path fill="#FFFFFF" d="M 636.749 180.211 C 639.173 179.974 639.723 181.238 640.805 181.526 C 641.174 184.025 639.223 184.542 636.175 184.198 C 635.955 182.264 637.604 182.329 636.749 180.211"></path>
<path fill="#FFFFFF" d="M 623.968 179.59 C 625.272 182.091 619.847 182.872 620.614 179.601 C 620.928 179.692 624.289 179.682 623.968 179.59"></path>
<path fill="#FFFFFF" d="M 601.4 163.02 C 602.84 164.66 600.405 167.143 597.482 167.019 C 597.225 164.067 599.208 161.151 601.4 163.02"></path>
<path fill="#D8CC5B" d="M 580.544 123.061 C 584.001 123.08 589.759 121.666 591.16 125.03 C 580.883 126.268 569.288 124.96 559.184 125.739 C 551.845 126.304 544.961 128.394 537.941 128.438 C 527.279 128.504 516.002 126.465 505.027 125.901 C 496.337 125.454 487.94 127.859 478.616 128.189 C 459.74 128.858 441.791 127.436 423.013 127.638 C 421.525 125.65 421.26 121.764 420.336 118.429 C 428.495 117.233 437.519 119.069 447.406 117.47 C 450.256 117.01 453.269 115.295 455.381 114.562 C 469.104 111.296 484.927 112.431 500.786 113.202 C 508.251 113.565 517.672 115.016 524.317 116.396 C 526.698 116.891 528.778 116.712 530.322 117.056 C 532.755 117.603 535.49 119.33 537.619 119.711 C 544.918 121.072 552.301 119.64 559.758 121.06 C 561.94 121.476 564.233 122.792 566.503 123.067 C 570.537 123.556 576.156 123.038 580.544 123.061"></path>
<path d="M 566.693 47.6925 C 568.724 52.23 575.083 55.5323 573.336 61.0055 C 568.903 58.637 566.626 53.7773 563.327 49.6807 C 561.115 47.5558 558.426 45.5585 555.347 43.6885 C 555.626 43.7101 555.653 41.0579 555.368 41.0381 C 555.653 41.0593 556.984 41.0585 556.705 41.0399 C 561.148 42.4448 562.739 46.3929 566.693 47.6925"></path>
<path fill="#166D20" d="M 572.166 33.0934 C 556.02 35.2805 538.493 29.8249 523.609 30.4811 C 516.436 27.8372 508.288 31.8316 500.659 28.6729 C 506.166 26.1875 516.293 25.8557 520.987 28.5079 C 527.377 27.5959 534.64 28.4559 539.497 30.4316 C 550.821 30.4454 563.641 29.3338 572.166 33.0934"></path>
<path d="M 527.275 60.987 C 524.561 61.4042 523.582 59.6907 521.344 59.0179 C 521.134 57.5381 521.035 55.6494 520.05 54.3692 C 519.797 51.4714 516.187 51.6455 514.159 49.7477 C 513.111 48.4059 513.246 46.408 511.567 45.1158 C 508.195 41.9012 503.401 40.2497 498.572 37.9544 C 498.824 37.9755 498.848 35.3141 498.611 35.3121 C 512.284 39.7332 521.393 48.9282 527.275 60.987"></path>
<path fill="#166D20" d="M 489.634 26.1807 C 487.558 29.1576 482.95 29.8569 477.969 30.3434 C 473.674 25.0755 460.466 28.8394 453.871 25.7119 C 466.109 21.2422 477.851 25.0793 489.634 26.1807"></path>
<path d="M 468.151 51.0241 C 466.693 54.9922 469.426 58.9238 468.107 61.6323 C 463.904 62.0733 464.938 55.8523 464.962 53.0877 C 461.366 45.58 452.357 43.5526 447.44 37.1191 C 445.994 37.1728 443.972 37.6353 443.692 35.937 C 443.826 35.1872 444.069 34.7768 444.329 34.5951 C 445.071 34.249 445.571 33.8775 446.221 33.8721 C 454.504 38.6217 462.054 44.193 468.151 51.0241"></path>
<path d="M 420.732 46.1682 C 422.769 51.1953 429.536 54.0585 428.694 59.6344 C 422.974 58.9041 422.738 52.2016 418.27 48.9298 C 416.813 47.6397 408.881 43.7554 406.131 43.0349 C 405.198 42.7905 404.261 43.5754 403.033 43.2083 C 399.122 41.6548 395.965 38.6171 391.534 38.0214 C 391.723 38.0396 391.729 35.4083 391.532 35.3928 C 397.481 35.1378 400.964 37.5375 403.659 40.5442 C 411.658 39.9977 414.466 45.1692 420.732 46.1682"></path>
<path fill="#166D20" d="M 433.187 25.1959 C 425.295 28.0614 416.032 24.2102 407.446 24.5737 C 400.021 24.8881 394.379 25.7542 386.661 24.5475 C 391.213 22.1507 397.309 19.5026 403.225 19.5829 C 407.031 19.6346 410.957 22.0327 414.833 22.1908 C 421.704 22.4712 431.396 18.5746 433.187 25.1959"></path>
<path fill="#FFFFFF" d="M 399.021 181.292 C 399.471 183.104 399.128 184.252 397.331 184.023 C 397.287 182.392 397.637 181.251 399.021 181.292"></path>
<path fill="#FFFFFF" d="M 388.236 182.466 C 390.009 182.277 390.449 183.378 390.147 185.026 C 388.89 184.919 389.09 186.392 387.175 185.833 C 387.212 184.287 388.23 183.826 388.236 182.466"></path>
<path d="M 369.354 57.2866 C 371.207 59.2477 375.285 59.1463 374.732 62.8155 C 367.844 63.7459 365.283 54.6851 360.247 50.687 C 353.653 45.4518 344.358 43.9534 335.238 40.5322 C 335.43 40.5524 335.431 38.5789 335.212 38.5509 C 341.62 38.6617 354.42 42.682 359.616 46.1309 C 363.659 48.8146 366.07 53.8099 369.354 57.2866"></path>
<path fill="#FFFFFF" d="M 376.337 185.068 C 376.489 187.442 374.858 188.144 372.88 188.568 C 372.676 186 374.489 183.423 376.337 185.068"></path>
<path fill="#166D20" d="M 353.382 25.4945 C 355.912 23.7018 371.163 19.7553 372.754 24.8307 C 366.315 26.1101 359.45 27.0172 353.382 25.4945"></path>
<path fill="#FFFFFF" d="M 348.169 170.239 C 347.821 172.544 346.829 174.325 344.122 174.466 C 343.687 171.844 345.352 171.365 345.124 169.122 C 347.189 168.512 347.193 170.124 348.169 170.239"></path>
<path fill="#166D20" d="M 344.278 27.4164 C 340.089 27.4258 334.753 28.456 333.319 24.8217 C 338.035 24.6736 343.542 23.4247 344.278 27.4164"></path>
<path fill="#D8CC5B" d="M 332.169 125.867 C 334.956 126.539 337.735 129.67 340.098 129.881 C 332.623 131.177 324.037 133.313 315.364 133.053 C 310.508 132.908 306.229 130.731 301.663 130.108 C 298.152 129.781 293.341 129.796 289.333 129.801 C 278.196 129.815 266.969 133.646 256.34 134.205 C 245.974 134.903 237.737 133.318 229.358 128.687 C 238.18 122.369 246.234 116.567 258.599 116.952 C 262.838 117.197 267.659 118.465 272.637 119.155 C 283.349 120.637 294.347 122.724 305.78 124.496 C 308.14 124.924 310.255 125.887 311.993 126.012 C 319.379 126.857 326.93 124.604 332.169 125.867"></path>
<path d="M 325.691 59.6264 C 321.326 60.9718 320.902 57.3725 318.922 55.4317 C 310.76 51.037 303.698 44.98 291.718 44.2696 C 291.845 44.2834 291.854 42.9554 291.705 42.9315 C 292.359 40.4675 295.243 41.4174 296.008 41.4075 C 302.106 41.5836 313.733 47.3789 318.307 50.8595 C 321.399 53.2126 324.589 56.8269 325.691 59.6264"></path>
<path d="M 272.493 62.4333 C 274.236 64.479 277.789 65.0677 276.935 68.3236 C 268.902 66.2499 267.702 56.2085 258.097 55.3572 C 258.207 55.37 258.24 52.6629 258.102 52.6318 C 258.224 52.6583 259.503 52.6466 259.337 52.6134 C 262.683 54.0884 266.356 54.5313 268.77 56.4862 C 270.602 57.9693 271.231 60.6021 272.493 62.4333"></path>
<path d="M 269.984 40.2459 C 267.564 40.9121 267.193 39.0131 265.038 38.9833 C 261.444 44.0914 251.359 42.6979 248.929 36.9281 C 245.185 36.4346 243.757 41.7676 240.196 39.4443 C 241.251 34.243 246.456 31.5812 253.362 32.2418 C 257.607 32.6477 269.618 35.6396 269.984 40.2459 M 254.516 36.3137 C 254.257 38.9362 258.986 40.2518 259.461 37.6776 C 258.246 36.9308 257.067 35.9504 254.516 36.3137"></path>
<path fill="#9CDBF2" d="M 259.459 37.6776 C 258.987 40.2518 254.258 38.9362 254.515 36.3127 C 257.066 35.9504 258.245 36.9308 259.459 37.6776"></path>
<path d="M 228.58 57.8271 C 231.317 60.6827 236.941 62.3548 236.595 67.2419 C 229.641 65.5003 226.891 57.7582 221.197 53.8098 C 219.294 52.4087 216.648 52.4963 214.493 50.2673 C 214.149 49.5937 214.005 48.584 213.998 47.3259 C 214.108 47.3499 215.332 47.5011 215.228 47.4759 C 218.358 49.8072 222.226 50.3692 224.966 52.6531 C 226.609 53.8998 227.238 56.314 228.58 57.8271"></path>
<path fill="#1F9B31" d="M 205.88 37.5007 C 209.94 31.0846 220.019 26.1089 229.904 31.3537 C 223.582 35.6759 215.455 38.1096 205.88 37.5007"></path>
<path fill="#FFFFFF" d="M 203.849 93.8071 C 203.563 96.9394 199.953 97.1761 198.677 94.8919 C 198.816 92.2945 203.011 92.7917 203.849 93.8071"></path>
<path fill="#FFFFFF" d="M 197.613 106.282 C 197.985 107.804 194.132 108.507 194.987 105.808 C 196.429 105.278 196.832 106.195 197.613 106.282"></path>
<path fill="#FFFFFF" d="M 189.591 96.2358 C 188.915 102.598 182.493 98.0927 182.479 93.3698 C 184.81 94.7126 188.516 93.6284 189.591 96.2358"></path>
<path fill="#FFFFFF" d="M 178.009 108.128 C 179.526 107.649 180.209 108.605 180.08 110.894 C 180.175 110.947 178.21 111.516 178.122 111.463 C 178.207 111.531 178.093 108.193 178.009 108.128"></path>
<path fill="#FFFFFF" d="M 173.363 95.4926 C 172.208 103.44 164.894 102.446 165.05 91.7638 C 167.062 90.2926 172.274 92.1689 173.363 95.4926"></path>
<path fill="#FFFFFF" d="M 165.113 117.736 C 165.186 121.153 162.36 120.105 161.845 119.325 C 162.236 113.748 164.147 116.681 165.113 117.736"></path>
<path fill="#FFFFFF" d="M 148.07 95.0466 C 151.256 92.338 155.117 86.9105 157.923 91.8088 C 157.466 102.737 149.283 113.629 148.07 95.0466"></path>
<path fill="#FFFFFF" d="M 148.395 130.565 C 148.032 134.954 144.411 132.06 142.624 132.607 C 142.676 128.965 144.256 129.232 144.203 125.025 C 146.212 125.275 146.727 130.395 148.395 130.565"></path>
<path fill="#FFFFFF" d="M 130.429 97.0673 C 133.076 98.5499 136.789 96.5407 138.153 101.916 C 137.032 114.026 130.779 110.863 130.429 97.0673"></path>
<path fill="#FFFFFF" d="M 125.381 119.486 C 127.333 120.291 127.623 124.875 129.465 125.678 C 129.444 129.437 126.306 124.126 124.93 124.23 C 125.272 123.155 125.551 122.016 125.381 119.486"></path>
<path fill="#FFFFFF" d="M 109.449 101.165 C 111.564 97.1769 114.679 103.84 117.956 102.393 C 115.892 112.959 112.576 106.582 109.449 101.165"></path>
<path fill="#FFFFFF" d="M 109.874 120.386 C 109.567 123.093 106.223 119.483 104.621 119.713 C 104.283 116.778 105.772 117.521 105.057 113.76 C 107.28 114.871 108.149 118.391 109.874 120.386"></path>
<path fill="#FFFFFF" d="M 98.9333 100.511 C 100.871 104.669 96.1866 104.185 97.0805 109.788 C 92.5561 109.926 90.3746 106.245 88.4235 102.492 C 89.5822 97.3312 96.1684 100.516 98.9333 100.511"></path>
<path fill="#FFFFFF" d="M 81.586 119.05 C 80.3633 112.886 87.5613 113.361 88.132 118.054 C 87.8287 120.987 86.2853 121.94 83.6559 121.248 C 83.1725 120.348 82.4394 119.673 81.586 119.05"></path>
<path fill="#FFFFFF" d="M 76.5531 102.383 C 76.6603 114.257 65.8941 109.308 66 100.665 C 70.5765 99.7137 72.7278 102.307 76.5531 102.383"></path>
<path fill="#FFFFFF" d="M 59.8372 119.777 C 59.2557 112.703 65.6973 114.466 65.7953 120.187 C 65.8373 120.215 59.8652 119.822 59.8372 119.777"></path>
<path fill="#166D20" d="M 56.2272 74.5572 C 56.8875 77.0134 54.7401 76.2507 53.5311 76.5285 C 53.7379 75.1004 54.7408 74.552 56.2272 74.5572"></path>
<path fill="#FFFFFF" d="M 48.2455 105.189 C 49.4976 102.209 55.6702 101.443 58.1016 102.534 C 57.3303 107.782 53.6265 109.182 50.3395 111.022 C 48.7998 110.238 49.4587 106.519 48.2455 105.189"></path>
<path d="M 58.8606 75.8851 C 58.1993 81.0581 50.9657 80.6043 50.2004 76.8856 C 50.6206 70.3744 58.3942 70.3021 58.8606 75.8851 M 53.5301 76.5286 C 54.7401 76.2507 56.8875 77.0134 56.2262 74.5573 C 54.7418 74.5507 53.7389 75.1003 53.5301 76.5286"></path>
<path fill="#166D20" d="M 41.717 65.8965 C 44.0651 65.1016 44.0913 68.4046 42.9848 69.6655 C 41.5475 69.7463 41.6002 67.8713 41.717 65.8965"></path>
</svg>
