<svg version="1.1" id="Layer_1" xmlns="http://www.w3.org/2000/svg" xmlns:xlink="http://www.w3.org/1999/xlink" x="0px" y="0px" width="1020px" height="200px" viewBox="0 0 1020 200" enable-background="new 0 0 1020 200" xml:space="preserve"><defs><rect width="10" height="10" class="svg---mgr"></rect></defs><path d="M1002.6699829101562 81.6520004272461 C 1006.1300048828125 84.83399963378906 1006.8499755859375 89.68599700927734 1010 92.98500061035156 C 1006.760009765625 107.4229965209961 980.4819946289062 100.10099792480469 966 98.98200225830078 C 962.0150146484375 98.67400360107422 958.0449829101562 99.23400115966797 954.0059814453125 98.98200225830078 C 947.1619873046875 98.55999755859375 940.4439697265625 96.45500183105469 933.3359985351562 95.64700317382812 C 918.4340209960938 93.96700286865234 903.1599731445312 95.2750015258789 888.6719970703125 93.6520004272461 C 880.552001953125 92.74099731445312 872.2890014648438 90.25399780273438 864.0009765625 89.65499877929688 C 846.2999877929688 88.36000061035156 826.5120239257812 89.74099731445312 809.3359985351562 88.98799896240234 C 799.448974609375 88.5459976196289 791.0650024414062 88.19300079345703 782.6719970703125 90.98699951171875 C 777.2570190429688 92.78600311279297 772.1710205078125 96.25599670410156 764.6719970703125 97.64900207519531 C 756.5170288085938 99.16899871826172 749.4099731445312 99.29499816894531 740.010009765625 100.31400299072266 C 729.239013671875 101.48699951171875 719.1530151367188 104.37000274658203 708.6710205078125 105.64800262451172 C 702.1710205078125 106.447998046875 696.72802734375 106.1729965209961 692.0020141601562 109.64700317382812 C 686.2960205078125 109.2750015258789 681.7869873046875 110.09400177001953 676.6740112304688 110.31600189208984 C 674.541015625 115.45600128173828 674.1799926757812 121.51699829101562 672.6729736328125 127.65399932861328 C 671.35498046875 133.00999450683594 670.1079711914062 139.8260040283203 668.0050048828125 144.3179931640625 C 666.844970703125 146.78599548339844 664.31298828125 148.1750030517578 663.3400268554688 150.31500244140625 C 661.364990234375 154.6820068359375 661.64501953125 160.1999969482422 664.6729736328125 164.3159942626953 C 662.43798828125 168.57699584960938 663.3729858398438 173.83200073242188 661.3389892578125 177.6510009765625 C 660.7379760742188 178.7760009765625 659.3250122070312 178.8489990234375 658.0050048828125 180.3179931640625 C 655.2739868164062 183.35800170898438 653.780029296875 188.40899658203125 648.0050048828125 188.3159942626953 C 646.1170043945312 186.88400268554688 646.89697265625 184.76400756835938 647.3380126953125 182.31700134277344 C 641.0910034179688 183.4770050048828 636.010986328125 191.90499877929688 628.0089721679688 186.98699951171875 C 625.7780151367188 183.92300415039062 631.3870239257812 183.97799682617188 630.676025390625 180.3179931640625 C 625.1019897460938 181.91799926757812 621.5750122070312 187.38499450683594 614.0050048828125 184.98399353027344 C 612.47900390625 182.1790008544922 614.4609985351562 179.9459991455078 616.0059814453125 178.3179931640625 C 612.0540161132812 175.04200744628906 614.8469848632812 170.66400146484375 614.0050048828125 166.31700134277344 C 611.1669921875 166.71200561523438 607.0670166015625 166.0760040283203 604.0070190429688 166.98199462890625 C 599.5260009765625 168.31500244140625 595.9860229492188 173.79200744628906 591.3389892578125 171.6490020751953 C 590.1510009765625 162.68800354003906 597.10400390625 161.86199951171875 596.6740112304688 153.6490020751953 C 604.0070190429688 146.53799438476562 615.8060302734375 143.89300537109375 614.6719970703125 128.31900024414062 C 600.2050170898438 128.46499633789062 585.0449829101562 128.531005859375 570.677001953125 128.31900024414062 C 558.6199951171875 128.13699340820312 547.5280151367188 131.6060028076172 534.0070190429688 131.6510009765625 C 524.39501953125 131.677001953125 514.9609985351562 129.4770050048828 505.34100341796875 128.98800659179688 C 492.1789855957031 128.31399536132812 478.1730041503906 129.65199279785156 464.6780090332031 129.65199279785156 C 460.85699462890625 129.65199279785156 457.1440124511719 130.9720001220703 453.3420104980469 130.98399353027344 C 441.4679870605469 131.00999450683594 429.3070068359375 128.08999633789062 417.3450012207031 128.31900024414062 C 412.1310119628906 132.93099975585938 411.4779968261719 142.25399780273438 408.010009765625 148.98800659179688 C 406.531005859375 151.86399841308594 403.37799072265625 153.24899291992188 402.677001953125 156.31399536132812 C 402.0260009765625 159.1479949951172 403.9169921875 162.6529998779297 403.3429870605469 165.6479949951172 C 402.1570129394531 171.83599853515625 398.3760070800781 174.78900146484375 392.67401123046875 177.6510009765625 C 391.2489929199219 181.5540008544922 390.5350036621094 186.17799377441406 385.34100341796875 186.3179931640625 C 382.0350036621094 186.95599365234375 384.2200012207031 182.10400390625 382.67498779296875 180.98300170898438 C 380.5400085449219 183.74400329589844 376.02801513671875 187.6510009765625 372.0069885253906 186.3179931640625 C 367.9930114746094 185.3249969482422 371.8139953613281 182.12399291992188 372.0069885253906 179.6540069580078 C 366.3909912109375 182.30299377441406 362.7239990234375 190.2989959716797 354.0119934082031 187.6510009765625 C 353.864990234375 183.72500610351562 356.5119934082031 182.59800720214844 356.677001953125 178.98500061035156 C 354.5840148925781 175.74400329589844 356.6059875488281 168.38999938964844 352.677001953125 166.98199462890625 C 348.75 165.8300018310547 347.0429992675781 169.51100158691406 343.3429870605469 169.6490020751953 C 340.9840087890625 169.74200439453125 339.04400634765625 167.91200256347656 336.67401123046875 168.31500244140625 C 332.52899169921875 169.02200317382812 331.302001953125 173.41799926757812 326.67498779296875 173.64999389648438 C 319.52899169921875 167.69500732421875 328.6499938964844 160.0760040283203 329.3420104980469 153.6490020751953 C 332.5299987792969 149.947998046875 338.54400634765625 149.072998046875 343.3429870605469 146.98599243164062 C 344.77801513671875 143.9720001220703 344.54998779296875 139.3070068359375 345.3450012207031 135.65199279785156 C 343.64300537109375 131.21200561523438 337.8890075683594 132.2239990234375 333.34100341796875 130.98399353027344 C 329.5820007324219 129.95799255371094 326.3489990234375 127.44999694824219 322.6730041503906 126.98500061035156 C 316.2349853515625 126.16999816894531 308.406005859375 128.23399353027344 300.6780090332031 127.65399932861328 C 285.0710144042969 126.46499633789062 270.1159973144531 121.15899658203125 251.3470001220703 121.6500015258789 C 247.39199829101562 121.75599670410156 243.31900024414062 123.49099731445312 239.34300231933594 123.6510009765625 C 233.13099670410156 123.89700317382812 226.23599243164062 122.83799743652344 220.67599487304688 121.6500015258789 C 215.8699951171875 120.62300109863281 212.43499755859375 117.39700317382812 208.01499938964844 115.6510009765625 C 205.35499572753906 114.6050033569336 201.8209991455078 114.55599975585938 198.68099975585938 113.65299987792969 C 195.87399291992188 112.83799743652344 192.87399291992188 111.18199920654297 190.68099975585938 110.98300170898438 C 184.04600524902344 110.3740005493164 175.29299926757812 113.01399993896484 166.67799377441406 113.65299987792969 C 155.4239959716797 114.48300170898438 142.322998046875 112.72200012207031 130.68099975585938 114.31700134277344 C 117.65399932861328 116.10299682617188 105.36499786376953 117.18800354003906 92.68399810791016 115.6510009765625 C 83.25599670410156 114.51200103759766 71.04900360107422 116.4749984741211 58.67900085449219 116.31600189208984 C 53.99800109863281 116.25499725341797 49.571998596191406 115.1240005493164 45.35100173950195 114.98200225830078 C 37.50299835205078 114.72899627685547 24.35700035095215 115.6510009765625 24.68400001525879 106.98200225830078 C 24.790000915527344 104.10900115966797 28.530000686645508 101.52799987792969 30.683000564575195 98.98200225830078 C 33.03799819946289 96.20099639892578 34.13100051879883 93.14900207519531 37.35100173950195 92.32099914550781 C 41.27799987792969 94.10600280761719 44.4640007019043 98.77400207519531 48.68000030517578 98.31500244140625 C 53.27899932861328 97.81999969482422 53.22100067138672 92.43299865722656 57.34700012207031 90.3219985961914 C 62.31399917602539 91.14800262451172 66.9530029296875 97.4280014038086 72.01300048828125 96.98200225830078 C 76.46900177001953 96.59300231933594 77.48799896240234 92.33999633789062 80.68299865722656 88.98799896240234 C 84.94400024414062 90.0270004272461 88.50900268554688 94.67400360107422 92.68399810791016 94.31300354003906 C 97.052001953125 93.947998046875 97.54299926757812 89.6729965209961 101.35099792480469 87.65399932861328 C 105.13800048828125 88.75399780273438 107.93099975585938 90.84200286865234 111.34600067138672 92.32099914550781 C 115.26699829101562 91.3479995727539 117.4209976196289 88.60900115966797 120.01399993896484 86.31900024414062 C 126.39600372314453 90.40799713134766 132.88800048828125 91.56700134277344 138.68299865722656 84.98799896240234 C 142.0290069580078 85.86100006103516 144.3780059814453 87.73300170898438 147.35000610351562 88.98799896240234 C 151.99000549316406 88.96099853515625 151.37100219726562 83.67500305175781 156.01100158691406 83.65399932861328 C 160.98699951171875 88.25299835205078 168.26800537109375 89.39399719238281 173.3470001220703 84.32099914550781 C 176.01400756835938 84.75900268554688 177.9149932861328 85.9739990234375 180.01400756835938 86.98600006103516 C 183.48800659179688 86.68000030517578 184.16200256347656 83.5739974975586 186.68299865722656 82.31900024414062 C 189.08799743652344 82.79399871826172 191.12899780273438 83.75399780273438 193.34800720214844 83.65399932861328 C 195.7220001220703 83.54000091552734 197.06300354003906 81.35199737548828 199.3489990234375 80.98600006103516 C 202.52999877929688 80.47200012207031 205.74400329589844 84.40599822998047 208.01600646972656 80.98600006103516 C 203.48199462890625 78.13700103759766 195.9219970703125 76.5989990234375 192.67999267578125 80.98600006103516 C 190.46099853515625 80.31099700927734 188.1020050048828 79.78500366210938 186.01400756835938 78.98400115966797 C 182.66700744628906 79.41300201416016 182.69500732421875 83.21900177001953 179.3459930419922 83.65399932861328 C 176.0540008544922 83.16600036621094 174.1999969482422 81.24600219726562 172.01300048828125 79.6510009765625 C 169.46800231933594 81.0979995727539 168.3730010986328 84.01100158691406 165.3470001220703 84.98799896240234 C 161.33700561523438 83.88099670410156 158.79100036621094 81.32099914550781 155.34300231933594 79.6510009765625 C 151.63099670410156 80.5989990234375 149.82899475097656 83.46800231933594 146.6820068359375 84.98799896240234 C 143.07000732421875 84.37300109863281 141.75599670410156 81.46700286865234 138.6820068359375 80.31800079345703 C 134.9080047607422 81.65899658203125 132.3350067138672 84.19100189208984 130.01400756835938 86.98600006103516 C 126.4749984741211 85.86100006103516 123.66100311279297 84.00599670410156 120.68000030517578 82.31900024414062 C 116.31199645996094 82.79399871826172 115.18000030517578 88.0199966430664 111.34600067138672 88.32099914550781 C 107.55999755859375 88.61599731445312 105.5260009765625 84.62699890136719 101.35099792480469 83.65399932861328 C 97.48500061035156 84.5199966430664 95.47000122070312 89.25399780273438 91.3499984741211 89.65499877929688 C 87.31099700927734 90.04100036621094 84.61199951171875 87.0790023803711 80.68399810791016 85.6520004272461 C 76.56300354003906 87.30599975585938 74.99600219726562 91.51300048828125 70.68299865722656 92.98500061035156 C 66.22899627685547 91.66100311279297 63.6619987487793 88.44599914550781 59.34700012207031 86.98600006103516 C 54.0880012512207 87.9489974975586 53.18000030517578 93.26000213623047 49.34700012207031 95.64700317382812 C 43.097999572753906 94.68000030517578 41.946998596191406 87.84600067138672 36.683998107910156 88.32099914550781 C 32.74599838256836 88.67500305175781 29.551000595092773 96.8290023803711 24.68400001525879 97.64900207519531 C 20.18199920654297 97.04100036621094 21.59600067138672 90.51899719238281 20.68400001525879 86.31900024414062 C 20.06800079345703 83.91200256347656 15.24899959564209 82.33300018310547 14.015000343322754 78.31700134277344 C 13.447999954223633 76.45899963378906 14.468999862670898 73.49299621582031 14.015000343322754 70.98500061035156 C 13.269000053405762 66.87699890136719 10.13599967956543 64.36399841308594 10.015000343322754 62.319000244140625 C 9.795999526977539 58.45800018310547 12.529999732971191 53.49700164794922 14.682999610900879 51.6510009765625 C 16.388999938964844 50.19599914550781 27.549999237060547 46.07099914550781 32.683998107910156 45.650001525878906 C 39.25699996948242 45.12300109863281 45.37300109863281 48.4900016784668 53.34700012207031 46.983001708984375 C 55.608001708984375 46.55400085449219 57.68000030517578 44.92300033569336 60.013999938964844 44.314998626708984 C 62.066001892089844 43.78900146484375 64.11399841308594 44.27000045776367 66.01399993896484 43.64799880981445 C 72.20800018310547 41.6349983215332 77.3479995727539 37.314998626708984 82.01699829101562 36.987998962402344 C 89.31700134277344 36.465999603271484 97.1780014038086 40.73400115966797 104.677001953125 39.65399932861328 C 109.45800018310547 38.96200180053711 113.43299865722656 35.000999450683594 118.68099975585938 33.654998779296875 C 126.90899658203125 31.540000915527344 134.8560028076172 34.38199996948242 142.6820068359375 32.32099914550781 C 145.1300048828125 31.674999237060547 146.9429931640625 29.621000289916992 149.35000610351562 28.986000061035156 C 161.93699645996094 25.67300033569336 172.4969940185547 30.219999313354492 181.3470001220703 24.31999969482422 C 183.572998046875 22.832000732421875 184.77499389648438 19.47100067138672 188.01300048828125 17.652000427246094 C 193.79400634765625 14.39900016784668 200.54200744628906 16.552000045776367 206.01600646972656 16.319000244140625 C 207.85699462890625 16.23900032043457 209.2429962158203 15.163000106811523 211.343994140625 14.984000205993652 C 212.88900756835938 14.852999687194824 215.0240020751953 15.871000289916992 216.6790008544922 15.652000427246094 C 224.23899841308594 14.645999908447266 230.0070037841797 10.62600040435791 238.01300048828125 11.652999877929688 C 241.66600036621094 12.118000030517578 246.0919952392578 14.027000427246094 250.01400756835938 15.652000427246094 C 255.47500610351562 17.917999267578125 258.23699951171875 21.92099952697754 266.677001953125 20.985000610351562 C 268.7229919433594 20.757999420166016 270.5299987792969 19.417999267578125 272.6759948730469 18.98699951171875 C 277.9960021972656 17.910999298095703 285.24200439453125 17.930999755859375 292.0119934082031 16.985000610351562 C 298.18499755859375 16.118999481201172 304.5270080566406 13.805999755859375 309.34600830078125 13.652000427246094 C 311.4739990234375 13.583000183105469 312.88800048828125 14.526000022888184 314.6809997558594 14.317000389099121 C 321.7829895019531 13.51200008392334 326.9360046386719 8.96500015258789 333.3420104980469 14.984000205993652 C 343.41900634765625 14.298999786376953 358.6600036621094 9.45199966430664 366.6809997558594 14.984000205993652 C 377.89599609375 16.187000274658203 387.343994140625 10.859000205993652 398.0119934082031 12.321000099182129 C 402.218994140625 12.897000312805176 406.2439880371094 15.413000106811523 410.67999267578125 15.652000427246094 C 414.6730041503906 15.871000289916992 418.60101318359375 14.364999771118164 422.67401123046875 14.984000205993652 C 428.5140075683594 15.871000289916992 433.5799865722656 21.187999725341797 439.34100341796875 21.652000427246094 C 442.0639953613281 21.875 443.95599365234375 20.665000915527344 446.6759948730469 20.31800079345703 C 453.364013671875 19.46500015258789 461.9119873046875 18.80500030517578 468.6789855957031 18.98699951171875 C 477.3380126953125 19.21299934387207 486.36700439453125 22.993000030517578 496.00799560546875 23.65399932861328 C 506.6090087890625 24.37299919128418 517.7030029296875 23.454999923706055 528.0040283203125 24.320999145507812 C 532.2650146484375 24.68000030517578 535.9340209960938 26.554000854492188 540.0079956054688 26.98699951171875 C 547.6820068359375 27.802000045776367 556.5540161132812 25.81999969482422 564.676025390625 26.98699951171875 C 569.6099853515625 27.69499969482422 574.072021484375 30.827999114990234 578.677001953125 30.98699951171875 C 580.7969970703125 31.05299949645996 582.864990234375 29.9689998626709 585.3389892578125 29.65399932861328 C 590.0399780273438 29.054000854492188 595.2990112304688 29.81399917602539 599.3400268554688 28.98699951171875 C 601.905029296875 28.46299934387207 604.0549926757812 26.634000778198242 606.6749877929688 26.31999969482422 C 609.833984375 25.934999465942383 612.8610229492188 27.086999893188477 616.0070190429688 26.98699951171875 C 623.718994140625 26.733999252319336 629.9099731445312 24.048999786376953 636.0120239257812 20.986000061035156 C 638.5599975585938 26.361000061035156 643.5670166015625 26.833999633789062 651.3380126953125 29.65399932861328 C 657.719970703125 31.968000411987305 668.781005859375 38.821998596191406 675.343994140625 31.65399932861328 C 681.177001953125 33.07500076293945 686.7780151367188 32.2869987487793 692.6699829101562 32.987998962402344 C 698.3209838867188 33.654998779296875 703.5430297851562 36.07400131225586 709.3389892578125 36.987998962402344 C 712.864990234375 37.54199981689453 716.7579956054688 37.17399978637695 720.6729736328125 37.654998779296875 C 724.1329956054688 38.07400131225586 727.9149780273438 39.50899887084961 731.3400268554688 39.65399932861328 C 736.6439819335938 39.875 741.9559936523438 38.33399963378906 747.3369750976562 38.98699951171875 C 752.6300048828125 39.62200164794922 757.3070068359375 42.81399917602539 762.6719970703125 43.64699935913086 C 772.8179931640625 45.22700119018555 784.9879760742188 44.41299819946289 798.0009765625 44.97999954223633 C 806.8690185546875 45.375999450683594 812.9010009765625 45.388999938964844 820.6710205078125 46.98099899291992 C 821.7730102539062 47.20800018310547 822.5269775390625 48.268001556396484 823.3389892578125 48.316001892089844 C 826.1630249023438 48.48699951171875 829.1480102539062 47.4119987487793 832.0050048828125 47.64799880981445 C 834.6859741210938 47.87300109863281 837.281982421875 49.25400161743164 840.0070190429688 49.64799880981445 C 845.7069702148438 50.474998474121094 851.8350219726562 49.46799850463867 857.333984375 50.314998626708984 C 861.9749755859375 51.03499984741211 866.06298828125 54.04800033569336 870.6680297851562 54.983001708984375 C 872.4910278320312 55.35499954223633 874.823974609375 54.755001068115234 876.6699829101562 54.983001708984375 C 882.0399780273438 55.64899826049805 887.239013671875 58.98899841308594 892.6740112304688 59.64899826049805 C 894.4039916992188 59.86199951171875 896.427001953125 59.37699890136719 898.0059814453125 59.64899826049805 C 908.2990112304688 61.435001373291016 917.2379760742188 66.05699920654297 927.3359985351562 66.98200225830078 C 935.6300048828125 67.74199676513672 944.4609985351562 64.44999694824219 952.0059814453125 69.6510009765625 C 955.7219848632812 68.43000030517578 960.614990234375 67.9489974975586 964.6669921875 69.6510009765625 C 966.5180053710938 70.42500305175781 967.2349853515625 72.01799774169922 969.3350219726562 72.98400115966797 C 971.260986328125 73.87100219726562 974.156005859375 74.05899810791016 976.6680297851562 74.98500061035156 C 978.7349853515625 75.74500274658203 981.1719970703125 77.38300323486328 982.6719970703125 77.65399932861328 C 991.322021484375 79.1719970703125 997.2899780273438 76.6989974975586 1002.6699829101562 81.6520004272461" style="opacity: 0;"></path><rect x="111" y="52" width="10" height="10" rx="2" ry="2" class="handle-original" fill="#da55da" stroke="#000000" style="stroke-width: 2px; opacity: 0.5;"></rect><rect x="117" y="101" width="10" height="10" rx="2" ry="2" class="handle-original" fill="#da55da" stroke="#000000" style="stroke-width: 2px; opacity: 0.5;"></rect><rect x="539" y="67" width="10" height="10" rx="2" ry="2" class="handle-original" fill="#da55da" stroke="#000000" style="stroke-width: 2px; opacity: 0.5;"></rect><rect x="111" y="52" width="10" height="10" rx="2" ry="2" class="handle" fill="#da55da" stroke="#000000" style="stroke-width: 2px;" transform="matrix(0.9877,0.1564,-0.1564,0.9877,39.3449,-37.4446)"></rect><rect x="117" y="101" width="10" height="10" rx="2" ry="2" class="handle" fill="#da55da" stroke="#000000" style="stroke-width: 2px;" transform="matrix(0.9781,-0.2079,0.2079,0.9781,7.6274,78.6816)"></rect><rect x="539" y="67" width="10" height="10" rx="2" ry="2" class="handle" fill="#da55da" stroke="#000000" style="stroke-width: 2px;"></rect></svg>