<svg version="1.1" id="Layer_1" xmlns="http://www.w3.org/2000/svg" xmlns:xlink="http://www.w3.org/1999/xlink" x="0px" y="0px" width="400px" height="300px" viewBox="0 0 400 300" enable-background="new 0 0 400 300" xml:space="preserve"><defs></defs><path d="M50.9539985657,115.958999634L50.6421235072,117.8757023L50.3736509942,119.807280097L50.1484010822,121.753028729L49.9661938266,123.712243904L49.8268492829,125.684221327L49.7301875066,127.668256704L49.676028553,129.66364574L49.6641924777,131.669684142L49.6944993361,133.685667615L49.7667691836,135.710891866L49.8808220757,137.7446526L50.0364780679,139.786245523L50.2335572156,141.834966341L50.4718795743,143.89011076L50.7512651993,145.950974486L51.0715341463,148.016853224L51.4325064705,150.087042681L51.8340022276,152.160838562L52.2758414728,154.237536573L52.7578442618,156.316432421L53.2798306498,158.39682181L53.8416206925,160.478000447L54.4430344452,162.559264038L55.0838919634,164.639908289L55.7640133026,166.719228905L56.4832185181,168.796521592L57.2413276655,170.871082057L58.0381608002,172.942206004L58.8735379777,175.009189141L59.7472792534,177.071327172L60.6592046828,179.127915805L61.6091343212,181.178250743L62.5968882243,183.221627695L63.6222864474,185.257342364L64.73623681443961,187.13304735219845L65.93057141762631,188.85615526590686L67.17315246468914,190.51184448588216L68.45934357771384,192.10752763776148L69.79830245124333,193.60437140085384L71.17823067176364,195.0324421936654L72.60204907941835,196.37200045683622L74.06558781208676,197.62762706555142L75.5593988503482,198.82659502842787L77.08426273988727,199.95763439215608L78.64154416765227,201.004551530658L80.22498196101154,201.98423913328426L81.83704945611618,202.87331048583422L83.47407945172759,203.67577052459615L85.12912004138386,204.4157358834743L86.80307341167742,205.07582734863993L88.4938390273802,205.65335259220507L90.19744506950464,206.15830609124637L91.91186748410445,206.58906575079448L93.63318934108689,206.95987624735955L95.36286547024847,207.23942864213888L97.0941930166643,207.4696070966649L98.82893801363602,207.6106052770796L100.56136029475736,207.70574657628364L102.29156663362244,207.7301764993966L104.01735653991842,207.68455857723518L105.7365584793329,207.56923819927317L107.44672417082556,207.39885160288256L109.14621465502194,207.17193395270723L110.83332064298153,206.89080916686567L112.50631677138807,206.55152320918842L114.16279962645862,206.13474673279015L115.80230529233282,205.6906194219051L117.42237280082594,205.18766452163385L119.01983838609578,204.60796376112359L120.59672090964476,204.01008955711887L122.14995994036568,203.366360008012L123.67713232406727,202.66891648454418L125.17729784865514,201.9262110953972L126.65196885358075,201.16226729024203L128.09457771589263,200.33741640361717L129.5107097767671,199.50186646385802L130.8935026085589,198.61868504617223L132.24449396932505,197.70699439908952L133.5582497101592,196.74644296633818L134.84175793272692,195.779988618282L136.08947275715818,194.7858673256771L137.30539696509118,193.78677559549004L138.48255663196454,192.75841679975142L139.61954520276777,191.70239235601107L140.72685847296617,190.66130079617054L141.79222637466228,189.59525384106558L142.82442288534628,188.5377104833275L143.81308252211645,187.45977209662266L144.76048606016474,186.37379680897456L145.67900441572294,185.31737208434924L146.5529497306607,184.25008751016992L147.39814532306298,183.21587729268236L148.2010984117055,182.18310783060662L148.961850004279,181.15608399234077L149.69279809386916,180.16537639678245L150.37815681101893,179.17912429949865L151.02770637012168,178.22137743614752L151.6589486314617,177.32747278284546L152.25190046074823,176.45953456786754" class="target-curve-polyline" stroke="#ff00c7" style="stroke-width: 3px; fill-opacity: 0; stroke-dasharray: 20px, 10px, 5px, 5px, 5px, 10px;"></path><line x1="48.01888223094815" x2="50.9539985657" y1="105.74081667582468" y2="115.958999634" class="distance-line" stroke="#0000ff" style="stroke-width: 2px; fill-opacity: 0;"></line><path d="M152.25190046074823,176.45953456786754L152.80642170319624,175.63980300480023L153.32999464961745,174.8955132547364L153.81480598757855,174.20511372194335L154.2843117402299,173.59870537017323L154.71977339113653,173.03896515108983L155.13492871373452,172.5406036999206L155.54073900386393,172.1124269668373L155.92930440966066,171.73665791354307L156.31868754803165,171.43151264255636L156.6926059019411,171.16969187089603L157.06801748186857,170.96766296366457L157.42970146196126,170.80202642580377L157.80767668093296,170.70356930414894L158.1863532093696,170.64910573425357L158.58460275614667,170.65480457047397L158.98128007493943,170.69364267676332L159.39588007510218,170.78223993364867L159.83611550454629,170.92372923029245L160.28081630828322,171.09384793736393L160.7469956297147,171.30562891753996L161.2350531636144,171.55591732230485L161.74140486735058,171.83846959752492L162.27705510327627,172.15960962543886L162.82163395260406,172.49998952635036L163.39624547429653,172.87426324518924L163.99977564535058,173.27872526744198L164.62862064398976,173.7082257954392L165.2911099456099,174.16637013080523L165.96831130521971,174.638025136944L166.6812943745372,175.13563911352514L167.42517720432585,175.65379756677558L168.19817113721166,176.18951598248458L169.0061743295666,176.7445033354558L169.83208282274038,177.30736024706212L170.6978133686728,177.88897758688017L171.59677057275093,178.48392902517833L172.52873773286268,179.09055474721475L173.495125640349,179.70805350997634L174.49182499538782,180.33310289091577L175.5242656778557,180.96686139284412L176.57832300510069,181.60211590503633L177.67726928823615,182.24736476005603L178.80881629502565,182.89618042987667L179.97160073148027,183.54695992164488L181.17071975500403,184.20037325880855L182.4055545548266,184.85494230857483L183.67803285379568,185.5100035871028L184.97699716504968,186.1611829872729L186.3220807990892,186.8128064204357L187.69892579850466,187.4597044988048L189.10951259642152,188.1013399519695L190.5530218019162,188.73646824069743L192.02044813088287,189.36243369998448L193.5317186957638,189.98188306877984L195.07588636802998,190.59157947875312L196.64642514896957,191.18963592451303L198.2595687735391,191.7769827982538L199.9020965066575,192.35081083265246L201.56741984901592,192.90971977506118L203.274207642503,193.45392213088414L205.01075427098854,193.98136133939624L206.77245354782605,194.49088924513785L208.57303421629453,194.98141400288029L210.39846148995753,195.4516418911378L212.24465631379755,195.90080353215873L214.12943088081775,196.32676128908412L216.0387164381003,196.72889425847296L217.98246280418786,197.10486669811348L219.94682910691964,197.45470496510188L221.93403644969243,197.77696538375594L223.97794831197635,198.06417923729384L226.07474406431584,198.3134521071393L228.16814459494952,198.53394534413624L230.25753649417277,198.72592908488758L232.3423063537348,198.88967346769533L234.42184076271894,199.02544862843402L236.49552631360282,199.13352470419335L238.56274959571152,199.21417183181825L240.6228972000687,199.2676601466996L242.67535571842382,199.29425978713928L244.71951174010184,199.29424088998235L246.75475185733868,199.26787359134795L248.78046266018765,199.2154280268689L250.79603073845763,199.13717433533094L252.80084268438452,199.0333826528532L254.7942850872933,198.9043231162808L256.77574453942,198.75026586173306L258.7446076300894,198.57148102605478L260.700260950809,198.36823874657776L262.6420910928447,198.14080915966295L264.5692736512105,197.88961731436873L266.4813253566147,197.61485618743248L268.3776715987318,197.3167745558652L270.25771855950785,196.99563213740126L272.12087687450025,196.6516819988295L273.9665418177331,196.2851877961117L275.7941207456121,195.89640003635486L277.6030150848113,195.4855715489839L279.3926146705948,195.052964557645" class="target-curve-polyline" stroke="#ff00eb" style="stroke-width: 3px; fill-opacity: 0; stroke-dasharray: 20px, 10px, 5px, 5px, 5px, 10px;"></path><line x1="286.87416107676086" x2="279.3926146705948" y1="194.90151026672592" y2="195.052964557645" class="distance-line" stroke="#0000ff" style="stroke-width: 2px; fill-opacity: 0;"></line><path d="M279.3926146705948,195.052964557645L281.1686392126941,194.61776976610014L282.9369451466912,194.19832686823864L284.6971370158136,193.79360775711012L286.4487905742151,193.40261644970093L288.19148276528796,193.02435692348405L289.92478769679,192.65783864699762L291.6483058719754,192.30203456607325L293.3616024711713,191.9559676703931L295.0641941796601,191.618745018629L296.75567690291655,191.28936017293248L298.4356077272596,190.96687403224809L300.1034591678598,190.6505175223053L301.75879863581963,190.3393795784552L303.4014020679143,190.03213164540625L305.0308592118864,189.72777786360152L306.64675981494565,189.4253223725861L308.24869362434924,189.12376931292394L309.8362503875489,188.82212282513044L311.4090198515601,188.51938704879933L312.9665917640762,188.21456612541633L314.50855587220985,187.9066641945508L316.0345019231705,187.59468539574797L317.5440196642158,187.27763386957167L319.036698842942,186.95451375753206L320.5121292065586,186.62432919917413L321.9699005020813,186.28608433409153L323.4096024770586,185.9387833027756L324.83082487898986,185.5814302467606L326.2331574546486,185.21302930466965L327.6161899516805,184.83258461696994L328.97951211748784,184.4391003252198L330.32271369894124,184.03158056801846L331.64538444383123,183.60902948682738L332.9471140993182,183.17045122223473L334.22749241246675,182.7148499127911L335.48610913077636,182.24122970003071L336.72255400160134,181.74859472449336L337.9364167721515,181.23594912572418L339.12728718978116,180.70229704426274L340.29475500150596,180.1466426197028L341.4384099551163,179.56798999350588L342.55784179762765,178.96534330526566L343.6526402764915,178.3377066954975L344.7223951387236,177.684084303795L345.76669613167815,177.00348027069796L346.78513300314575,176.2948987376679L347.77729549980296,175.5573438433523L348.7427733691983,174.78981972824246L349.68115635883106,173.99133053387257L350.5920342155721,173.16088039884178L351.4749966872116,172.29747346461164L352.32963352081316,171.40011387179442L353.15553446353834,170.46780575891663L353.9522892628866,169.49955326751245L354.71948766621244,168.4943605381216L355.4567194203865,167.45123170934315L356.163574273344,166.3691709236332L356.8396419719557,165.24718231959082L357.4845122637209,164.0842700387502L358.09777489570433,162.87943821966206L358.67901961555026,161.63169100485513L359.2278361703233,160.34003253287997L359.74381430728096,159.00346694430067L360.22654377387477,157.62099837963254L360.6756143172173,156.19163097844503L361.09075380065826,154.71486073767278L361.471678026707,153.19003316264101L361.8176732588788,151.61504830388841L362.1277962845546,149.98734326191067L362.40172434353417,148.30645634748728L362.64022604176483,146.57478287749836L362.8421970477417,144.78923955282733L363.0072271091581,142.94883051495992L363.1349059731267,141.05255990346558L363.17605781269117,138.99270744664824L363.1538391370443,136.83345498225628L363.06904349743877,134.58332273093797L362.91156065556595,132.229258225948L362.6775344486999,129.77247821207246L362.3718335472061,127.2294381633617L361.98868558858914,124.59703015232279L361.51743092667516,121.86602781627307L360.9592734233175,119.04695427773606L360.30218622164625,116.13118899088555L359.5397513430595,113.1201727994743L358.67268773478173,110.02500155861048L357.6893711257754,106.84162420366665L356.57717432875444,103.56725294827599L355.3341588159722,100.21232971852682L353.9412260893851,96.77055622798402L352.3950504628034,93.25340713678669L350.6763843392251,89.65888812312666L348.77229966440854,85.99330055860429L346.6849969282703,82.27561257391272L344.39453315782583,78.50843792268532L341.88024601120054,74.69706584955881L339.1350374654742,70.85750775070946L336.131832935751,66.99564513058596L332.8500961685492,63.12441001479438" class="target-curve-polyline" stroke="#ff0082" style="stroke-width: 3px; fill-opacity: 0; stroke-dasharray: 20px, 10px, 5px, 5px, 5px, 10px;"></path><line x1="329.2953775560708" x2="336.131832935751" y1="74.53208745671242" y2="66.99564513058596" class="distance-line" stroke="#0000ff" style="stroke-width: 2px; fill-opacity: 0;"></line><path d="M332.8500961685492,63.12441001479438L329.3610953465192,59.329973152301854L325.7169019629064,55.67730558061277L321.9492112818713,52.18285758546596L318.0434825563829,48.84359194116674L314.02420506352223,45.66882970806377L309.89242596130345,42.658796083919015L305.65046983005834,39.81384691600033L301.3021088905706,37.134327424147855L296.86944193966826,34.62278970175454L292.3537423832665,32.27705409544092L287.7658582101868,30.095897708103145L283.11071865544807,28.076877961906956L278.4096837343274,26.217993300771397L273.6587092376418,24.51519284824203L268.87755027937794,22.965004056214877L264.062989523857,21.56327369155613L259.228779860011,20.30568548003312L254.3915408884407,19.18699998396326L249.5457843621276,18.20304974966318L244.70197831752168,17.34879534028761L239.87877091065724,16.617807155324424L235.06778383526134,16.006567173799844L230.281334251702,15.509251495316835L225.5281172127743,15.120218676679077L220.81142386504177,14.834660860822563L216.14442530566754,14.645897546786593L211.5143678729159,14.552483782067434L206.93798845136098,14.547150342567612L202.41996372600173,14.624956190272613L197.9632784048395,14.781438171456237L193.57336207644667,15.011580280009497L189.246729899448,15.312906650873295L184.98974419787302,15.680412195425912L180.7851134001596,16.116393269372637L176.66761653499117,16.607292412144883L172.62580420707422,17.15362993303813L168.66428125296179,17.75107481328811L164.76638706011138,18.402920711893387L160.95638050376783,19.09817698576495L157.22195571392706,19.838902024735827L153.56962027337113,20.620433194718025L149.9787766015918,21.44893364055517L146.47078075077528,22.314120857174416L143.04305966961536,23.21510465756196L139.69516999643443,24.150273484994933L136.43010003905923,25.116585215996377L133.22681569500972,26.121985165194637L130.10559637861786,27.15597171536813L127.06081076818018,28.219697368586516L124.09141936534635,29.312357183019465L121.19512265965619,30.433874038606334L118.36591749681044,31.58620983240465L115.610449952085,32.76501009578675L112.9090332090136,33.97971308883127L110.28477076730249,35.21735701528138L107.7308178834757,36.480627857360915L105.22843411009207,37.77924461567732L102.79799449976603,39.101229076127545L100.43295905129926,40.44952908690362L98.12968532373165,41.82565505706635L95.88543963386704,43.23073256116586L93.69786236102341,44.665783420915616L91.57192327852891,46.12731616318868L89.49195347609103,47.624874059856275L87.48130799555359,49.14320226574932L85.5273387984054,50.68992493941378L83.63413375047016,52.26191083952098L81.79630067196008,53.86236123274963L80.00152994171415,55.499583165607184L78.27561663412796,57.15526041171537L76.60328107937309,58.83963558222465L74.99270612501455,60.54633825040799L73.43117584766794,62.28429416809999L71.91057019698218,64.05955757067284L70.45840308311537,65.85077998159242L69.05012694552875,67.67645174162871L67.7148828645607,69.51294468000935L66.4608714276597,71.3521467235532L65.27035460296737,73.20715072823349L64.15840680400001,75.0639634715L63.21200101181563,76.84482777925555L62.3137913868,78.6476626041L61.4330740604,80.4995357278L60.579838362,82.3920241818L59.7539003214,84.3255776853L58.9550759687,86.3006459574L58.1831813335,88.3176787172L57.4380324459,90.3771256838L56.7194453357,92.4794365764L56.0272360328,94.625061114L55.3612205671,96.8144490158L54.7212149684,99.0480500008L54.1070352667,101.326313788L53.5184974918,103.649690097L52.9554176736,106.018628647L52.417611842,108.433579156L51.9048960269,110.894991344L51.4170862582,113.403314931L50.9539985657,115.958999634" class="target-curve-polyline" stroke="#ff0000" style="stroke-width: 3px; fill-opacity: 0; stroke-dasharray: 20px, 10px, 5px, 5px, 5px, 10px;"></path><line x1="329.295377556071" x2="332.8500961685492" y1="74.53208745671265" y2="63.12441001479438" class="distance-line" stroke="#0000ff" style="stroke-width: 2px; fill-opacity: 0;"></line></svg>