<!--?xml version="1.0" encoding="utf-8"?-->
<!-- Generator: Adobe Illustrator 15.0.2, SVG Export Plug-In . SVG Version: 6.00 Build 0)  -->

<svg version="1.1" id="Layer_1" xmlns="http://www.w3.org/2000/svg" xmlns:xlink="http://www.w3.org/1999/xlink" x="0px" y="0px" width="691.389px" height="776.604px" viewBox="0 0 691.389 776.604" enable-background="new 0 0 691.389 776.604" xml:space="preserve">
<g>
	<path fill="#FFE563" stroke="#E8D46D" stroke-width="3.1718" stroke-linejoin="bevel" stroke-miterlimit="10" d="M 559.976 577.856 C 556.049 582.881 545.853 604.139 531.137 611.746 C 516.367 619.382 507.575 618.818 491.161 615.288 C 474.878 611.786 457.396 609.917 443.538 604.453 C 429.66 598.98 416.018 604.27 409.2 605.326 C 402.818 606.314 383.96 613.079 376.9 616.602 C 370.15 619.971 360.537 624.85 354.98 626.209 C 349.566 627.534 329.503 634.318 318.959 633.329 C 308.558 632.354 298.437 633.664 285.355 627.188 C 272.28 620.715 259.674 615.546 248.347 606.954 C 236.998 598.345 233.094 585.338 223.464 578.439 C 213.789 571.507 207.02 566.878 200.81 564.954 C 194.746 563.076 191.955 559.945 185.722 562.338 C 187.326 570.393 206.195 602.155 221.043 610.896 C 235.414 619.357 247.231 626.763 267.568 632.547 C 287.83 638.311 331.466 640.44 369.482 633.898 C 407.498 627.355 435.513 627.728 459.736 626.791 C 483.657 625.866 512.666 627.945 526.544 624.156 C 540.031 620.473 546.514 614.469 550.505 609.049 C 554.567 603.53 558.998 594.221 559.976 577.856"></path>
	<path fill="#7BD968" stroke="#598C4E" stroke-width="3.1718" stroke-linejoin="bevel" stroke-miterlimit="10" d="M 103.922 628.421 C 103.906 633.59 103.282 649.503 111.675 658.122 C 125.451 672.27 143.649 666.598 148.716 666.377 C 153.774 666.156 178.455 666.736 195.168 640.371 C 211.994 613.826 228.906 603.574 238.665 596.88 C 233.663 590.098 229.75 582.954 223.463 578.447 C 213.797 571.518 207.008 566.869 200.818 564.968 C 194.658 563.076 192.116 559.933 185.602 562.372 C 185.106 562.557 184.562 562.764 184.096 562.971 C 176.808 573.014 163.427 583.537 154.144 585.103 C 144.669 586.702 130.945 588.473 127.236 588.742 C 124.445 588.944 121.89 591.772 120.944 592.468 C 113.029 598.29 103.964 615.039 103.922 628.421"></path>
	<path fill="#7BD968" stroke="#598C4E" stroke-width="3.1718" stroke-linejoin="bevel" stroke-miterlimit="10" d="M 342.519 629.7 C 334.679 631.802 325.113 633.905 318.971 633.329 C 308.541 632.352 298.45 633.662 285.354 627.187 C 282.15 625.603 278.862 624.058 275.813 622.554 C 266.172 631.898 254.035 653.457 251.89 661.635 C 249.711 669.949 247.234 684.326 257.189 698.023 C 267.062 711.607 266.035 716.428 269.583 722.296 C 273.126 728.157 274.152 733.237 283.231 732.402 C 292.314 731.567 296.583 724.963 302.026 717.291 C 307.47 709.619 318.639 700.096 327.655 687.517 C 334.968 677.314 339.853 668.593 342.109 660.663 C 344.344 652.803 342.425 630.396 342.561 630.36 C 342.499 630.375 342.548 629.7 342.517 629.706 C 342.533 629.703 342.515 629.702 342.522 629.699 C 342.518 629.701 342.525 629.699 342.519 629.7"></path>
	<path fill="#7BD968" stroke="#598C4E" stroke-width="3.1718" stroke-linejoin="bevel" stroke-miterlimit="10" d="M 561.215 576.048 C 564.98 570.011 570.615 556.18 574.916 555.796 C 579.655 555.373 584.017 559.011 585.629 557.713 C 594.555 560.4 604.779 565.721 604.682 573.303 C 604.585 580.864 601.742 581.005 598.464 583.615 C 595.187 586.223 588.598 585.734 583.806 584.137 C 579.01 582.537 565.73 579.557 561.215 576.048"></path>
	<path fill="#7BD968" stroke="#598C4E" stroke-width="3.1718" stroke-linejoin="bevel" stroke-miterlimit="10" d="M 520.058 616.292 C 511.025 618.834 503.032 617.825 491.167 615.3 C 481.163 613.172 470.756 611.567 460.998 609.459 C 460.393 624.24 460.546 650.186 483.946 669.678 C 496.369 680.026 503.349 680.954 510.993 684.75 C 518.641 688.547 528.666 701.669 542.076 704.241 C 548.76 705.523 551.417 704.954 554.95 700.939 C 558.472 696.937 559.402 695.884 559.213 691.628 C 559.025 687.379 558.574 672.244 553.971 663.683 C 549.37 655.125 541.781 642.529 537.438 636.839 C 533.134 631.201 519.976 617.072 520.148 616.89 C 520.065 616.975 520.099 616.253 520.058 616.296 C 520.079 616.275 520.054 616.298 520.064 616.288 C 520.057 616.293 520.069 616.288 520.058 616.292"></path>
	<path fill="#94AEFF" stroke="#4464C7" stroke-width="3.1718" stroke-linejoin="bevel" stroke-miterlimit="10" d="M 120.915 592.442 C 125.971 593.318 128.268 602.541 128.29 602.549 C 132.768 600.934 135.108 601.695 136.724 602.459 C 138.281 596.237 144.49 588.773 152.22 588.481 C 160.026 588.185 167.081 587.391 169.994 602.377 C 180.631 601.805 191.358 594.927 195.557 595.283 C 199.688 595.633 203.007 598.139 203.382 599.491 C 203.758 600.849 205.777 606.088 205.768 607.838 C 205.758 609.592 204.892 612.714 202.791 613.322 C 200.679 613.933 198.157 612.204 197.536 610.46 C 196.913 608.707 197.147 605.791 195.707 605.018 C 194.268 604.246 191.95 604.873 190.536 605.437 C 188.943 606.073 171.562 610.941 169.532 611.721 C 168.698 617.776 163.473 627.88 152.695 628.286 C 142 628.69 140.097 624.548 139.084 620.397 C 138.074 616.261 137.179 612.955 137.167 612.956 C 132.284 613.383 133.184 613.183 129.967 613.207 C 128.005 620.249 123.669 630.339 113.347 630.771 C 103.115 631.199 97.6914 625.211 98.872 610.86 C 93.7869 610.317 95.6027 609.27 95.5998 609.268 C 96.7011 601.909 96.7453 601.915 96.734 601.915 C 96.7212 601.908 103.503 601.996 103.526 602.015 C 105.284 592.112 117.516 591.853 120.915 592.442"></path>
	<path fill="#FFFFFF" stroke="#4464C7" stroke-width="3.1718" stroke-linejoin="bevel" stroke-miterlimit="10" d="M 109.773 600.134 C 115.664 597.018 123.235 601.673 124.264 605.376 C 125.274 609.013 124.203 620.316 119.472 623.35 C 114.648 626.443 106.735 625.822 105.089 621.318 C 103.418 616.749 102.956 603.74 109.773 600.134"></path>
	<path fill="#E0B577" stroke="#A87C3B" stroke-width="3.1718" stroke-linejoin="bevel" stroke-miterlimit="10" d="M 110.293 610.855 C 111.725 608.599 117.321 608.349 118.88 610.655 C 120.43 612.946 119.408 616.007 117.858 616.943 C 116.294 617.886 111.71 621.481 110.319 618.798 C 108.929 616.116 108.411 613.819 110.293 610.855"></path>
	<path fill="#FFFFFF" stroke="#4464C7" stroke-width="3.1718" stroke-linejoin="bevel" stroke-miterlimit="10" d="M 143.758 617.982 C 140.829 610.73 141.095 604.328 143.835 600.916 C 146.568 597.512 154.311 594.728 159.423 600.178 C 164.545 605.639 165.975 610.312 164.578 613.304 C 163.182 616.296 158.917 622.098 154.837 622.262 C 150.726 622.427 145.343 621.905 143.758 617.982"></path>
	<path fill="#E0B577" stroke="#A87C3B" stroke-width="3.1718" stroke-linejoin="bevel" stroke-miterlimit="10" d="M 148.242 607.85 C 150.009 606.397 156.529 608.353 157.11 609.562 C 157.683 610.752 156.917 613.958 155.978 614.012 C 155.005 614.068 148.995 616.877 147.49 614.023 C 145.979 611.158 145.618 610.007 148.242 607.85"></path>
	<path fill="#C79C52" stroke="#806434" stroke-width="3.1718" stroke-linejoin="bevel" stroke-miterlimit="10" d="M 459.681 413.197 C 444.119 404.042 419.258 398.91 404.741 398.329 C 395.584 397.963 381.883 400.987 367.621 406.01 C 371.841 409.926 379.733 424.357 380.528 444.807 C 396.587 435.74 432.74 436.932 443.882 444.351 C 449.884 438.186 457.722 422.781 459.681 413.197"></path>
	<path fill="#C79C52" stroke="#806434" stroke-width="3.1718" stroke-linejoin="bevel" stroke-miterlimit="10" d="M 469.271 492.959 C 465.991 475.258 455.414 459.387 443.915 444.232 C 449.832 438.288 457.753 422.807 459.676 413.113 C 463.204 415.038 466.062 416.959 468.523 418.926 C 481.114 428.989 509.18 456.465 520.133 472.099 C 529.25 485.111 537.533 501.577 542.904 510.22 C 523.68 503.321 497.283 492.794 487.068 491.457 C 476.599 490.087 469.303 492.94 469.271 492.959"></path>
	<path fill="#C79C52" stroke="#806434" stroke-width="3.1718" stroke-linejoin="bevel" stroke-miterlimit="10" d="M 542.909 510.233 C 523.667 503.305 497.289 492.809 487.064 491.457 C 476.61 490.074 469.277 492.983 469.288 492.92 C 464.717 496.689 447.805 529.086 447.914 528.917 C 447.776 541.428 453.556 545.489 457.502 554.449 C 461.432 563.372 465.709 578.078 468.242 592.351 C 482.519 596.427 504.348 603.871 520.063 595.852 C 538.181 586.607 536.654 577.55 544.559 563.885 C 551.542 551.815 558.969 539.025 572.091 539.298 C 572.115 539.294 572.075 539.333 572.106 539.288 C 561.941 534.042 550.138 521.267 545.535 514.447 C 544.811 513.374 543.818 511.958 542.909 510.233"></path>
	<path fill="#C79C52" stroke="#806434" stroke-width="3.1718" stroke-linejoin="bevel" stroke-miterlimit="10" d="M 385.475 513.95 C 360.081 536.917 344.311 592.084 346.76 606.867 C 348.939 606.141 351.699 605.106 354.5 604.016 C 382.242 593.222 387.155 592.519 400.555 586.471 C 413.51 580.624 421.583 583.079 428.873 583.252 C 436.181 583.426 448.774 587.702 462.554 590.884 C 464.283 591.283 466.18 591.765 468.232 592.352 C 465.717 578.074 461.433 563.378 457.497 554.443 C 453.574 545.537 447.745 541.34 447.932 528.982 C 441.547 520.504 418.009 502.997 385.475 513.95"></path>
	<path fill="#C79C52" stroke="#806434" stroke-width="3.1718" stroke-linejoin="bevel" stroke-miterlimit="10" d="M 443.892 444.357 C 432.687 436.883 396.657 435.811 380.481 444.764 C 375.412 447.569 366.016 458.137 362.854 466.427 C 367.11 471.482 376.995 484.842 379.895 491.461 C 382.813 498.12 384.656 511.122 385.439 514.025 C 418.068 502.877 441.512 520.602 447.942 528.947 C 447.756 529.044 464.737 496.724 469.286 492.915 C 465.95 475.402 455.454 459.193 443.892 444.357"></path>
	<path fill="#C79C52" stroke="#806434" stroke-width="3.1718" stroke-linejoin="bevel" stroke-miterlimit="10" d="M 362.698 466.307 C 341.373 472.918 296.651 499.396 282.697 507.902 C 268.727 516.419 242.759 555.365 239.048 567.687 C 243.819 572.401 248.695 577.381 253.414 582.489 C 274.172 604.953 292.392 611.339 305.04 612.944 C 316.636 614.414 324.085 614.924 346.745 606.897 C 344.34 592.005 360.064 537.017 385.482 513.892 C 384.605 511.32 382.823 497.984 379.914 491.493 C 376.876 484.715 367.328 471.658 362.698 466.307"></path>
	<path fill="#C79C52" stroke="#806434" stroke-width="3.1718" stroke-linejoin="bevel" stroke-miterlimit="10" d="M 362.714 466.338 C 341.264 472.755 296.814 499.622 282.618 507.806 C 276.279 489.51 255.692 471.354 246.273 471.209 C 248.894 469.272 251.572 467.033 254.531 465.115 C 275.208 451.709 310.296 431.297 330.736 420.984 C 340.708 415.952 354.524 410.612 367.604 405.97 C 371.902 409.922 379.648 424.449 380.581 444.72 C 375.131 447.469 366.311 458.298 362.714 466.338"></path>
	<path fill="#C79C52" stroke="#806434" stroke-width="3.1718" stroke-linejoin="bevel" stroke-miterlimit="10" d="M 239.056 567.73 C 222.659 552.136 207.466 540.345 198.881 537.845 C 192.269 535.92 185.885 536.21 179.312 539.015 C 190.421 532.104 188.439 528.351 205.342 510.699 C 219.921 495.472 230.713 483.03 246.247 471.201 C 255.785 471.385 276.14 489.454 282.706 507.845 C 268.773 516.617 242.71 555.199 239.056 567.73"></path>
	<path fill="#FFC163" stroke="#B38645" stroke-width="3.1718" stroke-linejoin="bevel" stroke-miterlimit="10" d="M 165.799 548.488 C 176.955 537.686 187.737 534.576 198.904 537.849 C 209.847 541.057 232.661 560.007 253.435 582.502 C 274.151 604.935 292.388 611.346 305.052 612.946 C 317.769 614.553 325.941 615.026 354.502 603.993 C 382.248 593.274 387.157 592.493 400.552 586.47 C 413.52 580.638 421.58 583.078 428.873 583.251 C 436.202 583.424 448.741 587.717 462.577 590.876 C 476.254 593.999 502.072 605.023 520.069 595.855 C 538.176 586.63 536.667 577.541 544.554 563.905 C 552.619 549.963 561.126 535.304 578.401 540.298 C 595.736 545.308 587.3 556.375 585.622 557.736 C 584.044 559.016 579.645 555.353 574.918 555.804 C 570.142 556.26 563.666 573.241 560.004 577.855 C 556.012 582.885 545.885 604.14 531.139 611.755 C 516.372 619.381 507.581 618.826 491.164 615.294 C 474.883 611.791 457.398 609.923 443.541 604.459 C 429.663 598.987 416.022 604.274 409.206 605.331 C 402.823 606.321 383.965 613.086 376.905 616.608 C 370.157 619.974 360.543 624.854 354.984 626.215 C 349.571 627.539 329.508 634.326 318.964 633.336 C 308.563 632.358 298.442 633.669 285.36 627.194 C 272.284 620.722 259.678 615.552 248.351 606.96 C 237.001 598.351 233.101 585.343 223.467 578.445 C 213.799 571.523 207.014 566.868 200.821 564.967 C 194.664 563.077 192.118 559.932 185.607 562.369 C 179.133 564.791 173.82 568.749 167.861 565.251 C 161.898 561.75 161.703 552.454 165.799 548.488"></path>
	
		<path fill="#7BD968" stroke="#598C4E" stroke-width="3.1718" stroke-linecap="round" stroke-linejoin="bevel" stroke-miterlimit="10" d="M 117.175 648.288 C 118.34 649.855 123.258 655.915 130.176 655.638 C 137.065 655.362 144.651 653.931 146 649.575"></path>
</g>
<g>
	<g>
		<path fill="#FFE563" stroke="#E8D46D" stroke-width="2.0004" stroke-linejoin="bevel" stroke-miterlimit="10" d="M 491.526 368.053 C 489.614 372.387 483.573 391.058 474.467 398.416 C 465.327 405.8 460.157 405.758 450.316 404.495 C 440.544 403.24 429.654 403.959 421.299 401.405 C 412.958 398.856 404.461 403.998 400.507 405.218 C 396.643 406.411 385.62 412.318 381.612 414.981 C 377.669 417.601 372.199 421.312 369.128 422.443 C 366.146 423.54 355.023 428.841 349.57 428.599 C 344.253 428.362 338.821 429.59 332.62 426.102 C 326.413 422.61 320.319 420.209 315.005 415.867 C 309.715 411.545 308.377 404.324 303.317 401.51 C 298.284 398.711 294.495 397.046 290.979 396.842 C 287.45 396.636 286.077 395.206 282.151 397.479 C 283.707 400.892 292.451 416.689 299.684 420.603 C 306.835 424.473 312.439 428.135 322.621 430.557 C 332.83 432.985 355.241 432.908 376.41 427.219 C 397.66 421.508 414.865 419.741 429.956 416.772 C 444.997 413.813 462.626 413.101 470.896 409.469 C 479.192 405.826 483.161 400.43 485.699 395.569 C 488.255 390.674 491.222 382.238 491.526 368.053"></path>
		<path fill="#7BD968" stroke="#598C4E" stroke-width="2.0004" stroke-linejoin="bevel" stroke-miterlimit="10" d="M 220.957 440.648 C 219.946 443.391 216.274 452.051 220.226 456.52 C 226.857 464.018 240.977 459.922 244.516 459.453 C 247.903 459.005 265.265 458.133 280.346 440.599 C 295.242 423.282 304.713 415.517 310.615 410.655 C 308.332 407.053 306.625 403.355 303.324 401.513 C 298.281 398.699 294.501 397.068 290.983 396.839 C 287.475 396.611 286.043 395.282 282.185 397.417 C 281.877 397.587 281.605 397.785 281.279 397.914 C 276.989 404.155 267.996 411.303 261.764 413.196 C 255.559 415.081 246.008 417.449 243.353 417.927 C 241.405 418.277 239.31 419.99 238.554 420.455 C 232.506 424.174 223.593 433.495 220.957 440.648"></path>
		<path fill="#7BD968" stroke="#598C4E" stroke-width="2.0004" stroke-linejoin="bevel" stroke-miterlimit="10" d="M 362.282 425.275 C 357.948 426.974 352.75 428.75 349.588 428.606 C 344.257 428.364 338.829 429.606 332.641 426.1 C 331.086 425.219 329.63 424.439 328.044 423.654 C 322.419 430.264 312.533 444.882 309.845 450.434 C 307.181 455.935 302.97 465.614 305.956 474.471 C 308.966 483.403 307.379 486.723 308.252 490.685 C 309.122 494.637 308.706 498.153 314.416 497.416 C 320.115 496.681 324.014 492.011 328.58 486.582 C 333.179 481.115 341.217 474.294 347.973 465.397 C 353.46 458.173 357.109 452.036 359.214 446.492 C 361.319 440.951 362.255 425.687 362.219 425.701 C 362.234 425.696 362.28 425.274 362.282 425.275"></path>
		<path fill="#7BD968" stroke="#598C4E" stroke-width="2.0004" stroke-linejoin="bevel" stroke-miterlimit="10" d="M 492.175 366.513 C 494.249 361.216 496.701 349.666 498.96 349.424 C 501.574 349.143 504.171 352.386 504.984 351.406 C 510.026 354.026 515.926 359.59 516.06 366.282 C 516.195 373.002 514.546 372.846 512.79 374.835 C 510.983 376.88 507.418 375.928 504.769 374.202 C 502.123 372.478 494.791 369.378 492.175 366.513"></path>
		<path fill="#7BD968" stroke="#598C4E" stroke-width="2.0004" stroke-linejoin="bevel" stroke-miterlimit="10" d="M 467.692 402.957 C 462.155 405.735 457.449 405.387 450.322 404.489 C 444.332 403.734 437.908 403.742 431.956 403.163 C 430.739 414.907 428.871 434.386 440.628 449.321 C 446.97 457.376 450.814 458.224 454.852 461.503 C 458.88 464.775 462.831 476.013 470.102 479.155 C 473.73 480.723 475.297 480.517 477.899 477.435 C 480.522 474.329 481.154 473.516 481.716 469.816 C 482.266 466.204 484.162 452.834 482.664 444.863 C 481.177 436.943 478.191 425.494 476.233 420.448 C 474.263 415.373 467.743 403.429 467.71 403.483 C 467.725 403.458 467.687 402.973 467.692 402.957"></path>
		<path fill="#94AEFF" stroke="#4464C7" stroke-width="2.0004" stroke-linejoin="bevel" stroke-miterlimit="10" d="M 238.564 420.439 C 242.096 420.383 242.572 425.018 242.56 425.039 C 245.904 423.761 247.405 423.964 248.44 424.182 C 250.328 420.73 255.211 416.174 260.276 415.19 C 265.362 414.203 270.071 412.853 270.316 420.835 C 277.1 419.413 284.173 414.392 286.549 414.14 C 288.963 413.884 290.666 414.958 290.756 415.686 C 290.849 416.441 291.513 419.271 291.321 420.284 C 291.12 421.346 290.271 423.24 288.955 423.798 C 287.642 424.355 286.387 423.584 286.209 422.636 C 286.029 421.675 286.514 419.966 285.695 419.67 C 284.948 419.4 283.5 419.922 282.565 420.436 C 281.652 420.938 270.358 425.5 268.862 426.097 C 267.596 429.579 262.621 435.872 255.325 436.995 C 248.046 438.117 247.457 435.92 247.446 433.718 C 247.434 431.51 247.297 429.802 247.296 429.802 C 243.849 430.475 244.517 430.279 242.292 430.544 C 239.882 434.51 234.968 440.443 227.417 441.318 C 219.853 442.196 217.127 439.22 220.242 431.711 C 216.541 431.793 218.08 431.118 218.077 431.116 C 219.958 427.262 219.94 427.275 219.946 427.272 C 219.943 427.268 224.923 426.844 224.93 426.83 C 227.476 421.673 236.246 420.476 238.564 420.439"></path>
		<path fill="#FFFFFF" stroke="#4464C7" stroke-width="2.0004" stroke-linejoin="bevel" stroke-miterlimit="10" d="M 229.68 425.37 C 234.383 423.27 239.136 425.02 239.397 426.881 C 239.65 428.69 237.165 434.867 233.137 436.9 C 229.186 438.894 223.493 439.091 223.102 436.792 C 222.705 434.459 224.359 427.746 229.68 425.37"></path>
		<path fill="#E0B577" stroke="#A87C3B" stroke-width="2.0004" stroke-linejoin="bevel" stroke-miterlimit="10" d="M 228.589 430.916 C 229.996 429.609 234.028 429.043 234.799 430.129 C 235.581 431.231 234.36 432.92 233.088 433.551 C 231.828 434.176 227.923 436.435 227.356 435.096 C 226.79 433.76 226.764 432.611 228.589 430.916"></path>
		<path fill="#FFFFFF" stroke="#4464C7" stroke-width="2.0004" stroke-linejoin="bevel" stroke-miterlimit="10" d="M 250.995 431.992 C 250.153 428.248 251.183 424.773 253.436 422.685 C 255.691 420.595 261.094 418.272 263.793 420.708 C 266.502 423.155 266.788 425.654 265.468 427.475 C 264.15 429.291 260.531 432.95 257.743 433.42 C 255.017 433.879 251.45 434.018 250.995 431.992"></path>
		<path fill="#E0B577" stroke="#A87C3B" stroke-width="2.0004" stroke-linejoin="bevel" stroke-miterlimit="10" d="M 255.537 426.007 C 256.907 425.067 260.945 425.47 261.159 426.098 C 261.362 426.696 260.472 428.555 259.775 428.686 C 259.135 428.806 254.747 430.92 254.147 429.466 C 253.551 428.02 253.489 427.412 255.537 426.007"></path>
		<path fill="#C79C52" stroke="#806434" stroke-width="2.0004" stroke-linejoin="bevel" stroke-miterlimit="10" d="M 413.062 270.606 C 401.909 269.567 385.326 272.934 376.18 275.9 C 370.409 277.772 362.691 282.438 355.387 287.952 C 359.046 289.086 367.648 295.005 372.309 306.125 C 379.683 298.427 401.887 291.068 409.921 292.501 C 412.408 287.448 413.992 276.467 413.062 270.606"></path>
		<path fill="#C79C52" stroke="#806434" stroke-width="2.0004" stroke-linejoin="bevel" stroke-miterlimit="10" d="M 432.823 316.659 C 428.529 305.775 419.655 298.597 409.915 292.44 C 412.403 287.473 413.998 276.484 413.046 270.56 C 415.503 270.821 417.741 270.926 419.427 271.66 C 429.3 273.631 450.268 283.527 459.001 292.079 C 466.059 298.99 473.242 309.134 477.104 315.185 C 465.705 311.573 449.288 310.03 443.049 311.547 C 436.853 313.053 432.807 316.609 432.823 316.659"></path>
		<path fill="#C79C52" stroke="#806434" stroke-width="2.0004" stroke-linejoin="bevel" stroke-miterlimit="10" d="M 477.109 315.186 C 465.67 311.56 449.299 310.035 443.037 311.545 C 436.821 313.044 432.859 316.631 432.763 316.646 C 430.92 320.069 423.653 345.894 423.376 345.791 C 424.16 354.521 427.844 356.274 430.587 362.054 C 433.327 367.831 436.091 378.115 437.211 388.952 C 446.035 389.84 459.238 393.42 468.655 385.368 C 479.498 376.097 478.559 368.496 482.539 356.654 C 486.008 346.331 489.015 335.685 496.252 335.835 C 496.258 335.857 496.276 335.842 496.271 335.869 C 490.271 331.488 482.464 322.439 479.1 317.962 C 478.569 317.256 477.845 316.185 477.109 315.186"></path>
		<path fill="#C79C52" stroke="#806434" stroke-width="2.0004" stroke-linejoin="bevel" stroke-miterlimit="10" d="M 385.101 346.197 C 373.754 363.545 366.233 399.589 365.763 409.761 C 367.301 409.042 368.528 408.373 370.122 407.464 C 385.348 398.785 388.307 397.876 396.033 392.657 C 403.7 387.477 408.501 388.224 412.944 387.487 C 417.412 386.746 425.165 388.157 433.714 388.632 C 434.771 388.691 435.96 388.769 437.212 388.942 C 436.108 378.147 433.328 367.837 430.598 362.059 C 427.89 356.329 424.105 354.442 423.439 345.863 C 418.995 341.034 402.759 334.912 385.101 346.197"></path>
		<path fill="#C79C52" stroke="#806434" stroke-width="2.0004" stroke-linejoin="bevel" stroke-miterlimit="10" d="M 409.933 292.485 C 401.835 291.039 379.706 298.437 372.283 306.093 C 369.796 308.658 366.715 316.04 366.349 321.217 C 369.742 323.263 377.231 329.522 379.681 333.111 C 382.134 336.703 384.571 344.418 385.178 346.227 C 402.634 334.856 419.103 341.064 423.399 345.825 C 423.656 345.82 430.93 320.096 432.785 316.627 C 428.585 305.84 419.613 298.523 409.933 292.485"></path>
		<path fill="#C79C52" stroke="#806434" stroke-width="2.0004" stroke-linejoin="bevel" stroke-miterlimit="10" d="M 366.27 321.133 C 355.44 328.551 336.588 348.938 330.618 355.526 C 324.94 361.792 314.887 386.279 311.765 393.671 C 314.528 395.885 316.844 398.05 319.154 400.711 C 329.046 412.102 337.506 415.463 344.06 415.787 C 349.757 416.069 353.83 416.112 365.794 409.778 C 366.152 399.578 373.834 363.599 385.063 346.178 C 384.73 344.535 382.05 336.631 379.698 333.153 C 377.173 329.42 369.872 323.403 366.27 321.133"></path>
		<path fill="#C79C52" stroke="#806434" stroke-width="2.0004" stroke-linejoin="bevel" stroke-miterlimit="10" d="M 366.308 321.16 C 355.272 328.397 336.809 349.156 330.532 355.431 C 325.163 346.511 310.236 341.395 304.961 343.175 C 305.978 341.751 306.797 340.25 307.939 338.769 C 315.652 328.768 328.774 312.192 337.742 302.945 C 342.063 298.491 348.647 292.997 355.36 287.938 C 359.036 289.077 367.622 295.029 372.293 306.089 C 369.714 308.596 366.82 316.151 366.308 321.16"></path>
		<path fill="#C79C52" stroke="#806434" stroke-width="2.0004" stroke-linejoin="bevel" stroke-miterlimit="10" d="M 311.833 393.717 C 303.527 386.754 294.192 383.066 289.201 383.041 C 285.353 383.022 281.591 384.107 277.944 386.463 C 283.869 381.364 282.957 379.927 290.14 368.736 C 296.258 359.204 299.373 351.425 304.98 343.163 C 310.205 341.404 325.185 346.472 330.517 355.445 C 325.221 362.006 314.654 386.103 311.833 393.717"></path>
		<path fill="#FFC163" stroke="#B38645" stroke-width="2.0004" stroke-linejoin="bevel" stroke-miterlimit="10" d="M 270.09 393.017 C 276.648 386.16 282.652 383.033 289.193 383.035 C 295.74 383.036 309.253 389.331 319.154 400.706 C 329.043 412.068 337.508 415.466 344.059 415.77 C 350.418 416.065 354.643 416.173 370.11 407.43 C 385.365 398.807 388.302 397.844 396.024 392.636 C 403.708 387.454 408.503 388.238 412.932 387.46 C 417.437 386.668 425.127 388.269 433.728 388.574 C 442.224 388.875 457.952 394.425 468.652 385.362 C 479.571 376.114 478.555 368.482 482.553 356.645 C 486.542 344.836 489.896 332.42 499.809 336.732 C 509.908 341.125 505.813 350.468 505.016 351.384 C 504.151 352.378 501.625 349.104 498.96 349.414 C 496.551 349.695 493.543 363.941 491.588 368.061 C 489.554 372.349 483.642 391.048 474.485 398.412 C 465.332 405.772 460.193 405.762 450.331 404.488 C 440.568 403.227 429.666 403.949 421.325 401.391 C 412.987 398.835 404.484 403.985 400.535 405.204 C 396.661 406.4 385.643 412.301 381.631 414.97 C 377.696 417.588 372.219 421.298 369.153 422.431 C 366.164 423.534 355.044 428.825 349.594 428.584 C 344.271 428.349 338.843 429.579 332.644 426.089 C 326.439 422.596 320.342 420.199 315.025 415.851 C 309.738 411.526 308.394 404.311 303.337 401.496 C 298.298 398.69 294.524 397.044 291.003 396.82 C 287.491 396.597 286.064 395.266 282.201 397.399 C 278.373 399.513 275.036 402.226 271.43 401.174 C 267.798 400.115 267.662 395.556 270.09 393.017"></path>
		
			<path fill="#7BD968" stroke="#598C4E" stroke-width="2.0004" stroke-linecap="round" stroke-linejoin="bevel" stroke-miterlimit="10" d="M 226.507 450.786 C 226.975 451.566 229.178 454.731 234.135 454.2 C 239.077 453.672 244.677 452.385 246.541 449.743"></path>
	</g>
</g>
<g>
	<g>
		<path fill="#FFE563" stroke="#E8D46D" stroke-width="1.2222" stroke-linejoin="bevel" stroke-miterlimit="10" d="M 413.62 229.529 C 413.569 232.199 414.765 243.334 411.449 249.822 C 408.138 256.301 405.19 257.822 399.257 260.028 C 393.329 262.232 387.157 265.647 381.574 266.612 C 375.986 267.579 372.299 272.348 370.317 273.932 C 368.337 275.514 363.483 281.111 361.903 283.331 C 360.324 285.55 358.199 288.605 356.766 289.838 C 355.348 291.057 350.534 296.037 347.465 297.07 C 344.422 298.094 341.811 299.807 337.348 299.497 C 332.859 299.185 328.729 299.408 324.284 298.592 C 319.87 297.781 316.467 294.798 312.461 294.629 C 308.486 294.462 305.592 294.538 303.458 295.213 C 301.299 295.896 299.944 295.54 298.544 297.442 C 301.09 298.748 312.212 303.911 317.402 304.08 C 322.729 304.255 326.929 304.737 333.214 303.685 C 339.503 302.632 351.606 298.087 362.174 290.583 C 372.795 283.041 382.48 277.765 390.503 272.135 C 398.535 266.498 408.389 260.905 412.114 256.602 C 415.873 252.262 416.769 248.34 417.008 245.102 C 417.246 241.867 416.854 236.679 413.62 229.529"></path>
		<path fill="#7BD968" stroke="#598C4E" stroke-width="1.2222" stroke-linejoin="bevel" stroke-miterlimit="10" d="M 281.881 329.529 C 282.37 330.921 283.486 335.265 287.048 336.342 C 293.026 338.15 299.148 333.625 300.869 332.672 C 302.451 331.796 311.398 327.989 313.721 317.111 C 316.018 306.351 318.313 300.679 320.021 297.185 C 317.411 296.042 315.092 294.739 312.466 294.628 C 308.484 294.46 305.601 294.542 303.46 295.211 C 301.32 295.88 299.923 295.573 298.567 297.413 C 298.461 297.557 298.381 297.713 298.253 297.839 C 298.367 301.687 296.23 306.854 293.512 309.043 C 290.806 311.223 286.459 314.323 285.161 315.079 C 284.19 315.644 283.836 316.868 283.528 317.202 C 281.77 320.131 280.641 326.001 281.881 329.529"></path>
		<path fill="#7BD968" stroke="#598C4E" stroke-width="1.2222" stroke-linejoin="bevel" stroke-miterlimit="10" d="M 353.659 292.724 C 351.68 294.498 349.268 296.462 347.477 297.065 C 344.433 298.091 341.817 299.814 337.363 299.487 C 336.229 299.404 335.202 299.36 334.064 299.331 C 333.041 303.626 332.051 312.426 332.146 315.521 C 332.241 318.634 332.652 323.897 336.099 327.623 C 339.587 331.392 339.37 333.351 340.555 335.17 C 341.741 336.992 342.097 338.857 344.812 337.574 C 347.514 336.296 348.684 333.277 349.99 329.734 C 351.3 326.179 354.1 321.315 355.757 315.545 C 357.101 310.865 357.628 307.043 357.458 303.847 C 357.287 300.621 353.834 292.906 353.723 292.95 C 353.771 292.933 353.646 292.728 353.659 292.724"></path>
		<path fill="#7BD968" stroke="#598C4E" stroke-width="1.2222" stroke-linejoin="bevel" stroke-miterlimit="10" d="M 413.612 228.577 C 413.49 225.335 412.145 218.963 413.368 218.216 C 414.778 217.354 416.987 218.237 417.211 217.542 C 420.65 217.457 425.195 218.704 426.812 222.026 C 428.435 225.362 427.495 225.709 426.992 227.161 C 426.477 228.651 424.301 229.107 422.431 228.943 C 420.571 228.781 415.766 229.243 413.612 228.577"></path>
		<path fill="#7BD968" stroke="#598C4E" stroke-width="1.2222" stroke-linejoin="bevel" stroke-miterlimit="10" d="M 408.755 254.149 C 406.313 257.211 403.564 258.416 399.258 260.022 C 395.625 261.377 391.914 263.207 388.273 264.582 C 390.575 270.867 394.221 281.547 404.042 286.72 C 409.334 289.508 411.669 288.955 414.61 289.705 C 417.545 290.453 421.902 295.952 426.508 295.883 C 428.827 295.849 429.659 295.267 430.546 292.707 C 431.444 290.116 431.598 289.451 431.231 287.104 C 430.864 284.756 429.201 276.459 426.674 272.409 C 424.144 268.355 419.935 262.985 417.671 260.853 C 415.4 258.715 408.937 254.331 408.882 254.426 C 408.908 254.383 408.748 254.166 408.755 254.149"></path>
		<path fill="#94AEFF" stroke="#4464C7" stroke-width="1.2222" stroke-linejoin="bevel" stroke-miterlimit="10" d="M 283.546 317.2 C 285.515 316.434 287.692 318.358 287.681 318.366 C 289.02 317.105 289.929 316.87 290.593 316.746 C 290.245 314.842 291.077 311.789 293.509 310.251 C 295.937 308.716 298.091 307.099 301.342 310.575 C 304.518 308.482 306.541 304.697 307.776 304.059 C 309.027 303.412 310.383 303.523 310.703 303.828 C 311.038 304.146 312.444 305.269 312.7 305.759 C 312.972 306.281 313.182 307.305 312.659 307.842 C 312.142 308.372 311.181 308.302 310.741 307.919 C 310.297 307.533 309.936 306.667 309.376 306.714 C 308.86 306.758 308.263 307.304 307.936 307.735 C 307.611 308.164 303.121 312.625 302.538 313.199 C 303.153 315.004 302.719 318.795 299.201 320.821 C 295.698 322.838 294.583 322.02 293.751 321.078 C 292.918 320.133 292.18 319.423 292.18 319.424 C 290.554 320.444 290.845 320.218 289.727 320.802 C 289.959 323.018 289.484 326.576 285.68 328.494 C 281.859 330.42 279.276 329.722 277.987 325.889 C 275.938 326.67 276.528 326.072 276.526 326.071 C 275.991 324.031 275.972 324.034 275.977 324.033 C 275.978 324.034 278.598 322.832 278.599 322.822 C 277.849 320.065 282.259 317.701 283.546 317.2"></path>
		<path fill="#FFFFFF" stroke="#4464C7" stroke-width="1.2222" stroke-linejoin="bevel" stroke-miterlimit="10" d="M 280.645 321.211 C 282.402 319.312 285.788 319.088 286.676 319.83 C 287.564 320.572 288.598 323.733 287.152 325.44 C 285.744 327.102 282.701 328.368 281.588 327.463 C 280.49 326.57 278.674 323.341 280.645 321.211"></path>
		<path fill="#E0B577" stroke="#A87C3B" stroke-width="1.2222" stroke-linejoin="bevel" stroke-miterlimit="10" d="M 282.311 323.827 C 282.567 322.976 284.577 321.89 285.436 322.197 C 286.308 322.508 286.294 323.484 285.839 324.021 C 285.391 324.55 284.115 326.321 283.284 325.869 C 282.448 325.414 281.98 324.934 282.311 323.827"></path>
		<path fill="#FFFFFF" stroke="#4464C7" stroke-width="1.2222" stroke-linejoin="bevel" stroke-miterlimit="10" d="M 295.026 319.582 C 293.162 318.15 292.342 316.422 292.75 315.024 C 293.156 313.631 295.225 311.441 297.688 311.931 C 300.147 312.42 301.24 313.455 301.2 314.53 C 301.161 315.609 300.544 317.969 299.21 318.764 C 297.904 319.542 296.039 320.361 295.026 319.582"></path>
		<path fill="#E0B577" stroke="#A87C3B" stroke-width="1.2222" stroke-linejoin="bevel" stroke-miterlimit="10" d="M 295.217 316.023 C 295.603 315.321 297.976 314.63 298.329 314.857 C 298.673 315.077 298.886 316.073 298.558 316.28 C 298.253 316.471 296.665 318.321 295.788 317.821 C 294.911 317.321 294.64 317.074 295.217 316.023"></path>
		<path fill="#C79C52" stroke="#806434" stroke-width="1.2222" stroke-linejoin="bevel" stroke-miterlimit="10" d="M 343.618 203.346 C 336.202 205.624 325.77 211.025 320.171 214.413 C 316.627 216.557 312.293 220.595 308.447 224.949 C 311.175 224.988 318.175 226.798 324.075 231.662 C 327.176 226.057 340.454 217.041 345.963 215.616 C 346.471 212.391 345.27 206.247 343.618 203.346"></path>
		<path fill="#C79C52" stroke="#806434" stroke-width="1.2222" stroke-linejoin="bevel" stroke-miterlimit="10" d="M 366.305 221.55 C 360.979 217.392 353.69 216.279 345.957 215.592 C 346.475 212.403 345.27 206.236 343.611 203.339 C 345.225 202.755 346.748 202.493 347.939 202.264 C 354.722 200.961 369.893 200.046 376.939 201.718 C 382.758 203.098 389.225 205.957 392.883 207.767 C 385.392 209.373 375.015 213.488 371.473 216.056 C 367.964 218.6 366.292 221.537 366.305 221.55"></path>
		<path fill="#C79C52" stroke="#806434" stroke-width="1.2222" stroke-linejoin="bevel" stroke-miterlimit="10" d="M 392.875 207.768 C 385.379 209.378 375.014 213.488 371.464 216.059 C 367.953 218.602 366.309 221.537 366.284 221.555 C 365.83 223.816 367.998 238.57 367.887 238.576 C 370.699 242.63 373.461 242.431 376.663 244.479 C 379.863 246.524 384.263 250.783 387.709 255.902 C 393.169 253.833 401.639 251.741 404.984 244.873 C 408.823 236.992 406.416 233.477 405.801 226.463 C 405.266 220.369 404.508 214.287 408.688 212.314 C 408.687 212.327 408.705 212.31 408.701 212.329 C 404.288 211.867 397.679 209.737 394.684 208.542 C 394.203 208.35 393.558 208.049 392.875 207.768"></path>
		<path fill="#C79C52" stroke="#806434" stroke-width="1.2222" stroke-linejoin="bevel" stroke-miterlimit="10" d="M 343.729 249.042 C 341.533 260.526 348.707 279.426 351.223 284.434 C 351.949 283.738 352.44 283.133 353.102 282.331 C 359.507 274.568 361.066 273.334 364.195 268.859 C 367.337 264.365 370.446 263.456 372.903 261.905 C 375.381 260.341 380.408 258.932 385.569 256.738 C 386.208 256.467 386.931 256.17 387.709 255.895 C 384.273 250.792 379.865 246.522 376.668 244.477 C 373.484 242.441 370.675 242.605 367.917 238.592 C 363.973 237.497 351.88 239.076 343.729 249.042"></path>
		<path fill="#C79C52" stroke="#806434" stroke-width="1.2222" stroke-linejoin="bevel" stroke-miterlimit="10" d="M 345.967 215.604 C 340.429 217.035 327.178 226.059 324.064 231.648 C 322.989 233.576 322.861 238.152 324.082 240.932 C 326.935 241.286 333.727 242.716 336.357 243.907 C 339.015 245.11 342.886 248.329 343.777 249.043 C 351.807 239.074 364.031 237.492 367.895 238.586 C 367.999 238.537 365.835 223.824 366.289 221.544 C 361.004 217.405 353.667 216.265 345.967 215.604"></path>
		<path fill="#C79C52" stroke="#806434" stroke-width="1.2222" stroke-linejoin="bevel" stroke-miterlimit="10" d="M 324.058 240.911 C 318.49 247.181 312.892 261.862 311.518 266.392 C 310.134 270.961 313.265 285.075 314.426 289.102 C 316.832 289.538 319.028 290.005 321.336 290.717 C 331.105 293.731 336.761 293.466 340.611 292.165 C 343.926 291.044 346.233 290.196 351.248 284.436 C 348.659 279.435 341.585 260.538 343.709 249.04 C 342.989 248.349 338.953 245.104 336.372 243.92 C 333.696 242.693 326.983 241.318 324.058 240.911"></path>
		<path fill="#C79C52" stroke="#806434" stroke-width="1.2222" stroke-linejoin="bevel" stroke-miterlimit="10" d="M 324.075 240.912 C 318.412 247.162 312.996 261.891 311.478 266.379 C 304.709 263.106 292.955 263.087 290.082 264.977 C 290.18 263.996 290.261 263.029 290.456 261.967 C 291.749 254.923 295.818 243.187 299.781 236.423 C 301.676 233.187 304.87 228.947 308.434 224.947 C 311.156 224.985 318.168 226.803 324.06 231.652 C 322.962 233.553 322.891 238.192 324.075 240.912"></path>
		<path fill="#C79C52" stroke="#806434" stroke-width="1.2222" stroke-linejoin="bevel" stroke-miterlimit="10" d="M 314.461 289.108 C 306.887 287.77 299.638 287.991 296.6 289.053 C 294.255 289.873 292.465 291.198 291.299 293.128 C 292.666 289.368 291.349 288.897 290.99 281.685 C 290.68 275.47 289.551 270.652 290.086 264.968 C 292.937 263.09 304.721 263.093 311.463 266.382 C 310.274 270.986 313.149 285.052 314.461 289.108"></path>
		<path fill="#FFC163" stroke="#B38645" stroke-width="1.2222" stroke-linejoin="bevel" stroke-miterlimit="10" d="M 289.563 297.957 C 290.363 293.28 292.615 290.445 296.598 289.052 C 300.547 287.67 311.496 287.712 321.327 290.717 C 331.106 293.706 336.758 293.472 340.605 292.158 C 344.326 290.887 346.657 290.067 353.09 282.317 C 359.519 274.571 361.055 273.32 364.187 268.848 C 367.335 264.352 370.448 263.46 372.893 261.894 C 375.372 260.306 380.42 258.979 385.561 256.711 C 390.709 254.442 401.169 252.642 404.986 244.866 C 408.858 236.979 406.418 233.471 405.807 226.45 C 405.201 219.485 404.269 212.409 410.922 211.763 C 417.622 211.112 417.453 216.871 417.226 217.516 C 416.972 218.241 414.795 217.324 413.369 218.208 C 412.05 219.025 413.762 226.869 413.652 229.518 C 413.54 232.185 414.793 243.313 411.457 249.814 C 408.137 256.282 405.207 257.812 399.264 260.018 C 393.337 262.218 387.162 265.636 381.585 266.597 C 375.997 267.559 372.309 272.337 370.33 273.917 C 368.346 275.502 363.493 281.097 361.912 283.32 C 360.336 285.535 358.207 288.592 356.777 289.824 C 355.357 291.048 350.544 296.023 347.477 297.055 C 344.431 298.08 341.82 299.795 337.359 299.484 C 332.869 299.171 328.74 299.395 324.292 298.577 C 319.878 297.766 316.475 294.784 312.468 294.615 C 308.489 294.447 305.605 294.526 303.464 295.197 C 301.323 295.868 299.927 295.562 298.57 297.399 C 297.224 299.221 296.461 301.193 293.927 301.494 C 291.389 301.795 289.267 299.691 289.563 297.957"></path>
		
			<path fill="#7BD968" stroke="#598C4E" stroke-width="1.2222" stroke-linecap="round" stroke-linejoin="bevel" stroke-miterlimit="10" d="M 288.533 332.668 C 289.061 332.898 291.289 333.786 293.756 332.552 C 296.214 331.323 298.762 329.628 298.887 328.116"></path>
	</g>
</g>
<g>
	<g>
		<path fill="#FFE563" stroke="#E8D46D" stroke-width="0.7789" stroke-linejoin="bevel" stroke-miterlimit="10" d="M 341.611 181.544 C 341.859 183.136 344.145 189.31 342.914 193.789 C 341.684 198.263 339.946 199.83 336.247 202.413 C 332.557 204.99 328.862 208.266 325.155 209.924 C 321.436 211.587 319.682 215.054 318.577 216.355 C 317.473 217.655 315.107 221.826 314.437 223.414 C 313.766 225.006 312.9 227.188 312.148 228.165 C 311.401 229.135 309.097 232.928 307.17 234.057 C 305.25 235.182 303.801 236.651 300.561 237.163 C 297.306 237.678 294.428 238.412 291.102 238.504 C 287.79 238.594 284.743 237.098 281.911 237.429 C 279.087 237.759 277.095 238.096 275.743 238.752 C 274.39 239.409 273.358 239.327 272.8 240.692 C 274.809 241.419 283.802 243.483 287.559 242.875 C 291.345 242.263 294.453 241.965 298.648 240.354 C 302.853 238.74 310.282 233.983 316.138 227.624 C 322.01 221.247 327.79 216.232 332.315 211.276 C 336.845 206.314 342.619 200.844 344.43 197.5 C 346.251 194.138 346.255 191.69 345.942 189.78 C 345.628 187.865 344.616 185.001 341.611 181.544"></path>
		<path fill="#7BD968" stroke="#598C4E" stroke-width="0.7789" stroke-linejoin="bevel" stroke-miterlimit="10" d="M 270.17 263.957 C 270.996 264.805 273.337 267.488 276.231 267.619 C 281.034 267.836 283.623 264.018 284.501 263.178 C 285.348 262.366 290.068 258.625 288.496 251.561 C 286.927 244.504 287.416 240.596 287.762 238.173 C 285.696 237.776 283.764 237.212 281.913 237.429 C 279.086 237.761 277.097 238.098 275.744 238.752 C 274.393 239.405 273.358 239.335 272.805 240.687 C 272.762 240.792 272.736 240.904 272.682 241.002 C 273.564 243.545 273.354 247.2 272.032 248.949 C 270.71 250.698 268.539 253.253 267.861 253.908 C 267.353 254.399 267.445 255.263 267.347 255.522 C 266.95 257.702 268.063 261.796 270.17 263.957"></path>
		<path fill="#7BD968" stroke="#598C4E" stroke-width="0.7789" stroke-linejoin="bevel" stroke-miterlimit="10" d="M 310.578 230.417 C 309.565 231.809 308.308 233.394 307.176 234.055 C 305.253 235.178 303.808 236.652 300.569 237.157 C 299.756 237.284 298.991 237.416 298.207 237.565 C 298.417 240.36 300.096 245.829 301.059 247.644 C 302.033 249.477 303.891 252.515 307.524 253.976 C 311.164 255.44 311.654 256.559 313.081 257.327 C 314.501 258.092 315.37 259.036 316.825 257.756 C 318.274 256.48 318.107 254.578 317.916 252.346 C 317.723 250.104 318.218 246.815 317.778 243.221 C 317.422 240.305 316.818 238.016 315.885 236.211 C 314.951 234.405 310.705 230.519 310.684 230.535 C 310.693 230.529 310.574 230.418 310.578 230.417"></path>
		<path fill="#7BD968" stroke="#598C4E" stroke-width="0.7789" stroke-linejoin="bevel" stroke-miterlimit="10" d="M 341.487 180.991 C 341.004 179.128 339.424 175.659 340.152 174.948 C 340.979 174.141 342.515 174.177 342.585 173.716 C 344.825 172.91 347.907 172.607 349.353 174.152 C 350.81 175.711 350.248 176.121 350.1 177.088 C 349.95 178.069 348.586 178.852 347.335 179.195 C 346.1 179.534 342.988 180.909 341.487 180.991"></path>
		<path fill="#7BD968" stroke="#598C4E" stroke-width="0.7789" stroke-linejoin="bevel" stroke-miterlimit="10" d="M 341.766 196.891 C 340.594 199.209 338.929 200.534 336.246 202.412 C 333.988 203.992 331.726 205.847 329.455 207.394 C 332.044 210.565 336.655 215.901 344.558 216.327 C 348.763 216.553 350.258 215.629 352.408 215.278 C 354.561 214.926 358.718 216.727 361.786 215.413 C 363.32 214.756 363.746 214.215 363.771 212.599 C 363.795 210.969 363.773 210.558 363.02 209.403 C 362.269 208.251 359.477 204.209 357.018 202.658 C 354.556 201.105 350.77 199.191 348.883 198.554 C 346.996 197.917 341.904 196.985 341.899 197.016 C 341.901 197.001 341.767 196.898 341.766 196.891"></path>
		<path fill="#94AEFF" stroke="#4464C7" stroke-width="0.7789" stroke-linejoin="bevel" stroke-miterlimit="10" d="M 267.353 255.52 C 268.494 254.787 270.579 255.823 270.577 255.825 C 271.133 254.828 271.7 254.566 272.128 254.404 C 271.317 253.183 271.057 251.046 272.346 249.757 C 273.641 248.46 274.715 247.178 277.917 249.065 C 279.575 247.312 280.046 244.625 280.764 244.063 C 281.486 243.499 282.465 243.406 282.766 243.564 C 283.078 243.728 284.348 244.271 284.651 244.549 C 284.976 244.848 285.387 245.47 285.159 245.879 C 284.933 246.283 284.235 246.366 283.826 246.179 C 283.411 245.989 282.936 245.481 282.553 245.58 C 282.195 245.672 281.925 246.101 281.8 246.416 C 281.675 246.731 279.707 250.169 279.478 250.617 C 280.403 251.708 281.217 254.185 279.383 255.963 C 277.556 257.736 276.524 257.364 275.644 256.856 C 274.767 256.35 274.034 255.976 274.035 255.977 C 273.212 256.851 273.344 256.668 272.747 257.19 C 273.59 258.625 274.429 260.996 272.449 262.766 C 270.467 264.538 268.418 264.45 266.223 262.031 C 265.075 262.809 265.277 262.333 265.277 262.332 C 264.227 261.018 264.223 261.018 264.224 261.017 C 264.224 261.018 265.647 259.894 265.647 259.89 C 264.242 258.101 266.606 256 267.353 255.52"></path>
		<path fill="#FFFFFF" stroke="#4464C7" stroke-width="0.7789" stroke-linejoin="bevel" stroke-miterlimit="10" d="M 266.558 258.559 C 267.183 257.079 269.477 256.533 270.32 256.923 C 271.161 257.311 272.878 259.271 272.443 260.569 C 272.015 261.848 270.338 263.08 269.256 262.629 C 268.183 262.183 265.848 260.238 266.558 258.559"></path>
		<path fill="#E0B577" stroke="#A87C3B" stroke-width="0.7789" stroke-linejoin="bevel" stroke-miterlimit="10" d="M 268.547 260.118 C 268.447 259.515 269.5 258.549 270.196 258.647 C 270.899 258.745 271.205 259.393 271.063 259.805 C 270.922 260.212 270.621 261.546 269.894 261.354 C 269.163 261.161 268.676 260.895 268.547 260.118"></path>
		<path fill="#FFFFFF" stroke="#4464C7" stroke-width="0.7789" stroke-linejoin="bevel" stroke-miterlimit="10" d="M 276.076 255.717 C 274.33 255.026 273.25 253.98 273.133 253.009 C 273.016 252.035 273.863 250.354 275.724 250.385 C 277.578 250.416 278.636 250.946 278.913 251.646 C 279.192 252.35 279.452 253.951 278.759 254.639 C 278.08 255.314 277.023 256.092 276.076 255.717"></path>
		<path fill="#E0B577" stroke="#A87C3B" stroke-width="0.7789" stroke-linejoin="bevel" stroke-miterlimit="10" d="M 275.148 253.368 C 275.213 252.86 276.679 252.119 276.991 252.222 C 277.293 252.321 277.733 252.944 277.562 253.118 C 277.402 253.281 276.838 254.688 276.076 254.473 C 275.314 254.258 275.051 254.127 275.148 253.368"></path>
		<path fill="#C79C52" stroke="#806434" stroke-width="0.7789" stroke-linejoin="bevel" stroke-miterlimit="10" d="M 293.662 176.44 C 289.001 178.551 282.48 182.666 278.99 185.13 C 276.775 186.694 274.117 189.493 271.776 192.462 C 273.542 192.368 278.104 193.203 282.236 195.888 C 283.973 192.131 292.208 185.415 295.712 183.951 C 295.871 181.887 294.821 178.131 293.662 176.44"></path>
		<path fill="#C79C52" stroke="#806434" stroke-width="0.7789" stroke-linejoin="bevel" stroke-miterlimit="10" d="M 309.429 185.305 C 305.604 183.462 300.776 183.634 295.705 183.942 C 295.873 181.886 294.821 178.127 293.657 176.437 C 294.676 175.95 295.624 175.605 296.393 175.358 C 300.677 173.984 310.393 171.579 315.031 171.558 C 318.883 171.54 323.267 172.277 325.799 172.693 C 321.064 175.034 314.57 179.124 312.428 181.2 C 310.303 183.261 309.424 185.299 309.429 185.305"></path>
		<path fill="#C79C52" stroke="#806434" stroke-width="0.7789" stroke-linejoin="bevel" stroke-miterlimit="10" d="M 325.795 172.695 C 321.06 175.035 314.57 179.124 312.426 181.202 C 310.301 183.26 309.422 185.304 309.424 185.31 C 309.217 186.792 312.007 195.531 312 195.53 C 314.309 197.583 316.187 197.017 318.6 197.708 C 321.016 198.399 324.565 200.145 327.686 202.449 C 331.149 200.168 336.556 197.129 337.847 192.397 C 339.326 186.976 337.283 185.454 336.075 181.432 C 335.027 177.943 333.96 174.451 336.498 172.423 C 336.499 172.426 336.507 172.42 336.508 172.425 C 333.585 173.073 329.081 173.047 327.038 172.846 C 326.706 172.814 326.269 172.756 325.795 172.695"></path>
		<path fill="#C79C52" stroke="#806434" stroke-width="0.7789" stroke-linejoin="bevel" stroke-miterlimit="10" d="M 296.722 205.117 C 296.196 212.626 304.165 223.393 307.163 225.86 C 307.467 225.38 307.737 224.879 308.039 224.316 C 311.097 218.618 311.991 217.619 313.438 214.422 C 314.891 211.208 316.931 210.135 318.39 208.779 C 319.864 207.409 323.132 205.668 326.346 203.363 C 326.741 203.08 327.198 202.765 327.69 202.446 C 324.566 200.148 321.017 198.396 318.605 197.706 C 316.192 197.017 314.309 197.577 312.008 195.533 C 309.271 195.497 301.208 198.053 296.722 205.117"></path>
		<path fill="#C79C52" stroke="#806434" stroke-width="0.7789" stroke-linejoin="bevel" stroke-miterlimit="10" d="M 295.71 183.944 C 292.193 185.416 283.972 192.129 282.226 195.882 C 281.618 197.189 281.805 200.124 282.813 201.808 C 284.724 201.846 289.366 202.175 291.24 202.673 C 293.117 203.172 296.052 204.803 296.729 205.12 C 301.194 198.055 309.277 195.493 312 195.531 C 312.005 195.521 309.223 186.79 309.421 185.306 C 305.61 183.466 300.771 183.632 295.71 183.944"></path>
		<path fill="#C79C52" stroke="#806434" stroke-width="0.7789" stroke-linejoin="bevel" stroke-miterlimit="10" d="M 282.817 201.802 C 279.432 206.174 277.101 216.08 276.687 219.139 C 276.266 222.247 280.392 231.192 282.209 233.645 C 283.887 233.67 285.592 233.737 287.323 233.909 C 294.806 234.648 298.792 233.564 301.212 232.212 C 303.36 231.012 304.711 230.164 307.171 225.861 C 304.157 223.395 296.207 212.629 296.723 205.115 C 296.073 204.805 293.112 203.17 291.248 202.672 C 289.366 202.169 284.73 201.85 282.817 201.802"></path>
		<path fill="#C79C52" stroke="#806434" stroke-width="0.7789" stroke-linejoin="bevel" stroke-miterlimit="10" d="M 282.818 201.801 C 279.424 206.175 277.11 216.08 276.683 219.14 C 271.681 217.532 263.877 218.126 262.136 219.512 C 262.099 218.858 262.084 218.197 262.113 217.486 C 262.309 212.687 264.312 204.795 266.606 200.247 C 267.706 198.067 269.599 195.188 271.772 192.461 C 273.53 192.366 278.104 193.202 282.226 195.885 C 281.613 197.178 281.814 200.139 282.818 201.801"></path>
		<path fill="#C79C52" stroke="#806434" stroke-width="0.7789" stroke-linejoin="bevel" stroke-miterlimit="10" d="M 282.213 233.644 C 276.635 233.589 271.72 234.311 269.803 235.277 C 268.338 236.016 267.355 237.052 266.906 238.453 C 267.178 235.798 266.096 235.59 264.768 230.726 C 263.627 226.547 262.342 223.354 262.133 219.508 C 263.872 218.122 271.676 217.53 276.677 219.137 C 276.28 222.246 280.379 231.194 282.213 233.644"></path>
		<path fill="#FFC163" stroke="#B38645" stroke-width="0.7789" stroke-linejoin="bevel" stroke-miterlimit="10" d="M 266.685 241.874 C 266.261 238.625 267.319 236.533 269.803 235.276 C 272.277 234.024 279.818 233.176 287.319 233.909 C 294.8 234.64 298.788 233.566 301.208 232.21 C 303.602 230.87 304.989 229.995 308.036 224.313 C 311.093 218.613 311.986 217.615 313.432 214.419 C 314.887 211.202 316.93 210.136 318.383 208.775 C 319.856 207.397 323.137 205.681 326.339 203.356 C 329.552 201.023 336.373 197.775 337.851 192.393 C 339.341 186.966 337.286 185.45 336.079 181.427 C 334.879 177.427 333.635 173.395 337.896 171.633 C 342.174 169.863 342.668 173.255 342.591 173.702 C 342.51 174.173 340.983 174.131 340.153 174.942 C 339.341 175.735 341.381 179.96 341.617 181.541 C 341.854 183.129 344.149 189.305 342.915 193.785 C 341.684 198.259 339.95 199.826 336.248 202.41 C 332.557 204.987 328.862 208.264 325.158 209.919 C 321.44 211.58 319.684 215.053 318.583 216.347 C 317.474 217.65 315.109 221.82 314.44 223.41 C 313.771 224.999 312.902 227.182 312.152 228.158 C 311.405 229.132 309.1 232.92 307.173 234.051 C 305.253 235.177 303.805 236.645 300.566 237.158 C 297.312 237.672 294.432 238.407 291.105 238.498 C 287.792 238.589 284.745 237.093 281.913 237.424 C 279.089 237.754 277.098 238.091 275.745 238.745 C 274.393 239.399 273.358 239.329 272.804 240.681 C 272.254 242.022 272.173 243.415 270.479 243.864 C 268.785 244.313 266.842 243.078 266.685 241.874"></path>
		
			<path fill="#7BD968" stroke="#598C4E" stroke-width="0.7789" stroke-linecap="round" stroke-linejoin="bevel" stroke-miterlimit="10" d="M 275.907 265.058 C 276.36 265.131 278.223 265.358 279.5 264.207 C 280.77 263.06 281.962 261.611 281.537 260.644"></path>
	</g>
</g>
<g>
	<g>
		<path fill="#FFE563" stroke="#E8D46D" stroke-width="0.4563" stroke-linejoin="bevel" stroke-miterlimit="10" d="M 288.705 163.807 C 288.873 164.722 290.344 168.145 289.757 170.85 C 289.171 173.551 288.205 174.607 286.118 176.377 C 284.034 178.144 281.96 180.294 279.829 181.476 C 277.687 182.664 276.751 184.781 276.137 185.601 C 275.522 186.42 274.248 188.989 273.905 189.958 C 273.56 190.927 273.122 192.258 272.71 192.87 C 272.301 193.479 271.075 195.835 269.97 196.591 C 268.869 197.345 268.061 198.284 266.145 198.717 C 264.222 199.151 262.531 199.69 260.555 199.847 C 258.582 200.004 256.724 199.175 255.06 199.442 C 253.397 199.708 252.23 199.955 251.448 200.383 C 250.67 200.809 250.054 200.787 249.767 201.628 C 250.966 202.053 256.385 203.092 258.614 202.606 C 260.845 202.119 262.695 201.833 265.138 200.706 C 267.588 199.576 271.823 196.409 275.07 192.355 C 278.322 188.293 281.579 185.015 284.086 181.814 C 286.594 178.612 289.803 174.983 290.753 172.881 C 291.704 170.775 291.636 169.35 291.401 168.262 C 291.166 167.175 290.499 165.597 288.705 163.807"></path>
		<path fill="#7BD968" stroke="#598C4E" stroke-width="0.4563" stroke-linejoin="bevel" stroke-miterlimit="10" d="M 249.358 216.217 C 249.914 216.725 251.547 218.353 253.324 218.321 C 256.265 218.268 257.517 215.757 257.985 215.209 C 258.453 214.66 260.97 212.151 259.608 207.877 C 258.249 203.612 258.448 201.22 258.548 199.748 C 257.315 199.562 256.143 199.27 255.058 199.444 C 253.392 199.712 252.228 199.957 251.446 200.386 C 250.666 200.813 250.052 200.79 249.764 201.631 C 249.742 201.696 249.729 201.764 249.703 201.827 C 250.296 203.368 250.317 205.63 249.607 206.748 C 248.895 207.866 247.721 209.511 247.351 209.947 C 247.085 210.261 247.149 210.807 247.132 210.971 C 246.995 212.35 247.925 214.91 249.358 216.217"></path>
		<path fill="#7BD968" stroke="#598C4E" stroke-width="0.4563" stroke-linejoin="bevel" stroke-miterlimit="10" d="M 271.858 194.28 C 271.307 195.151 270.621 196.151 269.972 196.592 C 268.869 197.343 268.065 198.286 266.149 198.716 C 265.67 198.823 265.213 198.929 264.758 199.047 C 264.98 200.72 266.273 203.943 266.97 204.999 C 267.668 206.056 268.994 207.815 271.341 208.489 C 273.687 209.162 274.092 209.793 275.042 210.161 C 275.986 210.528 276.619 211.025 277.401 210.161 C 278.181 209.301 277.904 208.183 277.604 206.872 C 277.301 205.552 277.354 203.573 276.855 201.473 C 276.451 199.771 275.962 198.454 275.303 197.44 C 274.645 196.425 271.928 194.342 271.929 194.342 C 271.929 194.342 271.858 194.278 271.858 194.28"></path>
		<path fill="#7BD968" stroke="#598C4E" stroke-width="0.4563" stroke-linejoin="bevel" stroke-miterlimit="10" d="M 288.619 163.492 C 288.301 162.441 287.334 160.522 287.734 160.052 C 288.189 159.519 289.064 159.422 289.092 159.146 C 290.346 158.506 292.088 158.071 292.95 158.849 C 293.819 159.633 293.507 159.923 293.448 160.502 C 293.388 161.09 292.627 161.667 291.922 161.974 C 291.226 162.276 289.477 163.335 288.619 163.492"></path>
		<path fill="#7BD968" stroke="#598C4E" stroke-width="0.4563" stroke-linejoin="bevel" stroke-miterlimit="10" d="M 289.179 172.747 C 288.567 174.185 287.633 175.088 286.119 176.376 C 284.844 177.459 283.568 178.691 282.283 179.74 C 283.881 181.421 286.803 184.243 291.558 183.781 C 294.076 183.536 294.931 182.839 296.197 182.422 C 297.463 182.004 300.055 182.581 301.822 181.459 C 302.702 180.9 302.926 180.538 302.844 179.612 C 302.761 178.681 302.728 178.446 302.213 177.878 C 301.7 177.312 299.837 175.312 298.322 174.681 C 296.803 174.047 294.507 173.307 293.385 173.108 C 292.259 172.908 289.258 172.802 289.26 172.804 C 289.259 172.803 289.18 172.748 289.179 172.747"></path>
		<path fill="#94AEFF" stroke="#4464C7" stroke-width="0.4563" stroke-linejoin="bevel" stroke-miterlimit="10" d="M 247.133 210.968 C 247.776 210.48 249.079 211.074 249.079 211.074 C 249.357 210.435 249.681 210.256 249.93 210.142 C 249.376 209.401 249.121 208.072 249.832 207.24 C 250.548 206.402 251.128 205.589 253.124 206.669 C 254.032 205.541 254.2 203.88 254.607 203.518 C 255.015 203.155 255.595 203.071 255.78 203.159 C 255.972 203.251 256.751 203.548 256.945 203.709 C 257.152 203.881 257.425 204.25 257.307 204.506 C 257.189 204.76 256.777 204.832 256.523 204.729 C 256.266 204.626 255.96 204.328 255.736 204.398 C 255.525 204.464 255.385 204.734 255.323 204.932 C 255.261 205.127 254.244 207.298 254.134 207.584 C 254.738 208.23 255.367 209.736 254.375 210.899 C 253.382 212.061 252.738 211.862 252.178 211.572 C 251.62 211.283 251.159 211.069 251.159 211.069 C 250.715 211.64 250.784 211.522 250.457 211.866 C 251.046 212.743 251.71 214.201 250.645 215.385 C 249.579 216.57 248.33 216.588 246.843 215.114 C 246.208 215.643 246.296 215.334 246.296 215.334 C 245.578 214.529 245.578 214.528 245.578 214.528 C 245.578 214.529 246.361 213.773 246.361 213.773 C 245.411 212.677 246.712 211.289 247.133 210.968"></path>
		<path fill="#FFFFFF" stroke="#4464C7" stroke-width="0.4563" stroke-linejoin="bevel" stroke-miterlimit="10" d="M 246.827 212.905 C 247.114 211.954 248.458 211.548 248.986 211.77 C 249.51 211.991 250.662 213.171 250.488 214.002 C 250.317 214.821 249.393 215.655 248.71 215.404 C 248.03 215.155 246.5 213.989 246.827 212.905"></path>
		<path fill="#E0B577" stroke="#A87C3B" stroke-width="0.4563" stroke-linejoin="bevel" stroke-miterlimit="10" d="M 248.117 213.836 C 248.018 213.457 248.592 212.817 249.016 212.859 C 249.444 212.9 249.668 213.3 249.609 213.563 C 249.551 213.824 249.459 214.675 249.009 214.576 C 248.557 214.477 248.244 214.323 248.117 213.836"></path>
		<path fill="#FFFFFF" stroke="#4464C7" stroke-width="0.4563" stroke-linejoin="bevel" stroke-miterlimit="10" d="M 252.371 210.849 C 251.281 210.469 250.577 209.845 250.458 209.243 C 250.338 208.638 250.763 207.573 251.876 207.544 C 252.985 207.515 253.645 207.813 253.848 208.238 C 254.052 208.664 254.297 209.647 253.92 210.097 C 253.551 210.538 252.961 211.055 252.371 210.849"></path>
		<path fill="#E0B577" stroke="#A87C3B" stroke-width="0.4563" stroke-linejoin="bevel" stroke-miterlimit="10" d="M 251.683 209.413 C 251.695 209.095 252.534 208.594 252.727 208.649 C 252.912 208.702 253.21 209.076 253.116 209.189 C 253.028 209.295 252.768 210.185 252.3 210.075 C 251.83 209.964 251.665 209.887 251.683 209.413"></path>
		<path fill="#C79C52" stroke="#806434" stroke-width="0.4563" stroke-linejoin="bevel" stroke-miterlimit="10" d="M 261.375 162.968 C 258.732 164.307 255.008 166.81 253.001 168.294 C 251.73 169.234 250.196 170.907 248.836 172.676 C 249.848 172.609 252.456 173.069 254.816 174.601 C 255.827 172.364 260.545 168.288 262.535 167.341 C 262.627 166.127 262.03 163.941 261.375 162.968"></path>
		<path fill="#C79C52" stroke="#806434" stroke-width="0.4563" stroke-linejoin="bevel" stroke-miterlimit="10" d="M 270.36 167.759 C 268.168 166.811 265.42 167.052 262.532 167.342 C 262.625 166.13 262.029 163.943 261.372 162.969 C 261.952 162.67 262.485 162.435 262.925 162.276 C 265.354 161.396 270.838 159.68 273.458 159.472 C 275.634 159.3 278.119 159.536 279.557 159.633 C 276.908 161.275 273.252 163.943 272.045 165.241 C 270.846 166.53 270.358 167.757 270.36 167.759"></path>
		<path fill="#C79C52" stroke="#806434" stroke-width="0.4563" stroke-linejoin="bevel" stroke-miterlimit="10" d="M 279.557 159.63 C 276.907 161.273 273.252 163.94 272.044 165.239 C 270.847 166.526 270.356 167.758 270.359 167.759 C 270.243 168.639 271.913 173.671 271.918 173.668 C 273.269 174.784 274.349 174.373 275.753 174.666 C 277.161 174.96 279.245 175.803 281.119 176.961 C 283.089 175.429 286.153 173.281 286.785 170.425 C 287.507 167.157 286.299 166.414 285.531 164.143 C 284.864 162.172 284.21 160.19 285.611 158.832 C 285.612 158.833 285.616 158.831 285.617 158.832 C 283.97 159.415 281.416 159.67 280.258 159.659 C 280.071 159.657 279.825 159.647 279.557 159.63"></path>
		<path fill="#C79C52" stroke="#806434" stroke-width="0.4563" stroke-linejoin="bevel" stroke-miterlimit="10" d="M 263.184 179.788 C 262.9 184.247 267.769 190.405 269.675 191.723 C 269.826 191.435 269.979 191.119 270.14 190.777 C 271.785 187.28 272.287 186.656 273.062 184.71 C 273.84 182.755 275.011 182.034 275.835 181.165 C 276.666 180.29 278.539 179.106 280.361 177.571 C 280.585 177.383 280.844 177.174 281.123 176.957 C 279.249 175.802 277.163 174.957 275.757 174.662 C 274.354 174.368 273.274 174.78 271.922 173.667 C 270.35 173.765 265.722 175.522 263.184 179.788"></path>
		<path fill="#C79C52" stroke="#806434" stroke-width="0.4563" stroke-linejoin="bevel" stroke-miterlimit="10" d="M 262.532 167.342 C 260.537 168.293 255.823 172.367 254.811 174.6 C 254.458 175.379 254.563 177.115 255.142 178.096 C 256.242 178.097 258.916 178.213 259.998 178.469 C 261.083 178.725 262.79 179.627 263.183 179.79 C 265.72 175.522 270.346 173.763 271.916 173.669 C 271.91 173.669 270.241 168.64 270.356 167.759 C 268.167 166.811 265.419 167.052 262.532 167.342"></path>
		<path fill="#C79C52" stroke="#806434" stroke-width="0.4563" stroke-linejoin="bevel" stroke-miterlimit="10" d="M 255.148 178.094 C 253.182 180.719 251.875 186.653 251.653 188.5 C 251.43 190.366 253.959 195.695 255.134 197.141 C 256.109 197.119 257.132 197.122 258.156 197.18 C 262.609 197.433 264.954 196.626 266.341 195.735 C 267.584 194.937 268.342 194.382 269.677 191.726 C 267.77 190.408 262.901 184.251 263.187 179.789 C 262.793 179.626 261.085 178.727 260.003 178.469 C 258.921 178.212 256.243 178.096 255.148 178.094"></path>
		<path fill="#C79C52" stroke="#806434" stroke-width="0.4563" stroke-linejoin="bevel" stroke-miterlimit="10" d="M 255.147 178.094 C 253.185 180.72 251.871 186.651 251.656 188.5 C 248.729 187.606 244.206 188.03 243.196 188.88 C 243.173 188.486 243.163 188.084 243.178 187.659 C 243.281 184.758 244.473 180.029 245.819 177.32 C 246.465 176.02 247.568 174.303 248.832 172.677 C 249.841 172.61 252.453 173.069 254.81 174.601 C 254.458 175.374 254.566 177.119 255.147 178.094"></path>
		<path fill="#C79C52" stroke="#806434" stroke-width="0.4563" stroke-linejoin="bevel" stroke-miterlimit="10" d="M 255.133 197.141 C 251.834 197.229 248.965 197.746 247.857 198.368 C 247.01 198.843 246.455 199.495 246.223 200.364 C 246.328 198.727 245.672 198.616 244.823 195.659 C 244.096 193.126 243.33 191.2 243.193 188.879 C 244.205 188.029 248.725 187.608 251.654 188.499 C 251.427 190.365 253.963 195.697 255.133 197.141"></path>
		<path fill="#FFC163" stroke="#B38645" stroke-width="0.4563" stroke-linejoin="bevel" stroke-miterlimit="10" d="M 246.185 202.477 C 245.842 200.476 246.425 199.176 247.857 198.367 C 249.288 197.56 253.697 196.931 258.154 197.18 C 262.606 197.429 264.951 196.625 266.339 195.734 C 267.722 194.847 268.503 194.264 270.138 190.776 C 271.779 187.277 272.283 186.654 273.057 184.709 C 273.834 182.754 275.009 182.033 275.831 181.165 C 276.662 180.287 278.538 179.111 280.356 177.569 C 282.177 176.024 286.066 173.678 286.789 170.419 C 287.515 167.148 286.303 166.408 285.535 164.137 C 284.77 161.872 284.011 159.596 286.393 158.264 C 288.785 156.927 289.13 158.862 289.097 159.138 C 289.063 159.418 288.189 159.514 287.736 160.046 C 287.285 160.575 288.539 162.895 288.706 163.804 C 288.875 164.716 290.344 168.141 289.758 170.846 C 289.173 173.547 288.207 174.604 286.12 176.374 C 284.036 178.141 281.961 180.29 279.831 181.472 C 277.692 182.659 276.752 184.778 276.139 185.596 C 275.524 186.417 274.25 188.985 273.906 189.954 C 273.562 190.924 273.123 192.255 272.713 192.867 C 272.304 193.477 271.076 195.829 269.971 196.587 C 268.869 197.342 268.064 198.28 266.147 198.713 C 264.225 199.147 262.533 199.686 260.555 199.843 C 258.582 200 256.725 199.173 255.06 199.439 C 253.397 199.705 252.229 199.951 251.449 200.379 C 250.669 200.806 250.055 200.784 249.767 201.624 C 249.482 202.459 249.48 203.319 248.494 203.631 C 247.502 203.945 246.312 203.218 246.185 202.477"></path>
		
			<path fill="#7BD968" stroke="#598C4E" stroke-width="0.4563" stroke-linecap="round" stroke-linejoin="bevel" stroke-miterlimit="10" d="M 252.913 216.714 C 253.194 216.745 254.343 216.818 255.027 216.045 C 255.707 215.277 256.318 214.328 255.989 213.742"></path>
	</g>
</g>
<g>
	<g>
		<path fill="#FFE563" stroke="#E8D46D" stroke-width="0.2788" stroke-linejoin="bevel" stroke-miterlimit="10" d="M 259.661 155.494 C 259.76 156.054 260.621 158.13 260.269 159.799 C 259.918 161.465 259.344 162.131 258.1 163.247 C 256.86 164.361 255.619 165.705 254.344 166.454 C 253.066 167.204 252.494 168.512 252.123 169.023 C 251.751 169.533 250.977 171.121 250.766 171.721 C 250.554 172.322 250.285 173.144 250.036 173.524 C 249.788 173.902 249.04 175.363 248.374 175.838 C 247.71 176.31 247.222 176.896 246.069 177.174 C 244.911 177.453 243.892 177.794 242.704 177.9 C 241.517 178.005 240.406 177.496 239.404 177.665 C 238.401 177.833 237.696 177.99 237.222 178.259 C 236.75 178.526 236.379 178.512 236.199 179.036 C 236.92 179.299 240.173 179.931 241.519 179.62 C 242.865 179.309 243.979 179.124 245.454 178.413 C 246.934 177.699 249.489 175.713 251.452 173.188 C 253.418 170.66 255.374 168.611 256.876 166.614 C 258.378 164.619 260.292 162.338 260.859 161.029 C 261.426 159.719 261.387 158.849 261.248 158.185 C 261.108 157.52 260.716 156.563 259.661 155.494"></path>
		<path fill="#7BD968" stroke="#598C4E" stroke-width="0.2788" stroke-linejoin="bevel" stroke-miterlimit="10" d="M 235.865 188.177 C 236.201 188.493 237.189 189.512 238.265 189.48 C 240.047 189.426 240.804 187.837 241.088 187.492 C 241.374 187.145 242.891 185.553 242.087 182.896 C 241.285 180.243 241.427 178.758 241.497 177.844 C 240.756 177.733 240.055 177.556 239.401 177.666 C 238.396 177.837 237.693 177.991 237.219 178.26 C 236.746 178.527 236.375 178.513 236.195 179.037 C 236.181 179.079 236.173 179.121 236.157 179.161 C 236.501 180.118 236.496 181.529 236.06 182.23 C 235.623 182.932 234.903 183.968 234.679 184.241 C 234.516 184.44 234.551 184.782 234.54 184.886 C 234.448 185.752 234.999 187.361 235.865 188.177"></path>
		<path fill="#7BD968" stroke="#598C4E" stroke-width="0.2788" stroke-linejoin="bevel" stroke-miterlimit="10" d="M 249.516 174.397 C 249.181 174.94 248.764 175.561 248.373 175.839 C 247.708 176.31 247.221 176.898 246.068 177.174 C 245.78 177.243 245.504 177.312 245.23 177.386 C 245.351 178.421 246.115 180.412 246.531 181.064 C 246.948 181.716 247.742 182.8 249.158 183.196 C 250.574 183.593 250.818 183.979 251.392 184.198 C 251.964 184.417 252.347 184.716 252.817 184.171 C 253.286 183.626 253.115 182.937 252.933 182.127 C 252.751 181.314 252.782 180.087 252.486 178.796 C 252.245 177.748 251.956 176.94 251.565 176.32 C 251.173 175.7 249.557 174.437 249.559 174.436 C 249.558 174.436 249.516 174.396 249.516 174.397"></path>
		<path fill="#7BD968" stroke="#598C4E" stroke-width="0.2788" stroke-linejoin="bevel" stroke-miterlimit="10" d="M 259.612 155.303 C 259.425 154.664 258.859 153.5 259.096 153.205 C 259.365 152.869 259.88 152.795 259.896 152.627 C 260.634 152.211 261.658 151.912 262.164 152.372 C 262.675 152.838 262.492 153.02 262.457 153.377 C 262.421 153.739 261.975 154.109 261.559 154.312 C 261.149 154.511 260.12 155.192 259.612 155.303"></path>
		<path fill="#7BD968" stroke="#598C4E" stroke-width="0.2788" stroke-linejoin="bevel" stroke-miterlimit="10" d="M 259.922 160.975 C 259.557 161.866 259.002 162.434 258.098 163.248 C 257.34 163.932 256.58 164.702 255.81 165.363 C 256.75 166.373 258.479 168.075 261.31 167.703 C 262.809 167.505 263.319 167.057 264.069 166.775 C 264.821 166.493 266.365 166.782 267.412 166.046 C 267.933 165.679 268.067 165.45 268.016 164.884 C 267.964 164.317 267.944 164.17 267.639 163.837 C 267.332 163.503 266.228 162.326 265.332 161.976 C 264.432 161.624 263.074 161.219 262.41 161.119 C 261.745 161.02 259.971 161.008 259.972 161.007 C 259.971 161.007 259.922 160.975 259.922 160.975"></path>
		<path fill="#94AEFF" stroke="#4464C7" stroke-width="0.2788" stroke-linejoin="bevel" stroke-miterlimit="10" d="M 234.54 184.884 C 234.931 184.574 235.715 184.943 235.715 184.943 C 235.886 184.54 236.082 184.427 236.234 184.354 C 235.904 183.892 235.757 183.061 236.193 182.538 C 236.631 182.012 236.986 181.502 238.183 182.17 C 238.739 181.462 238.851 180.426 239.099 180.201 C 239.347 179.975 239.697 179.919 239.808 179.974 C 239.923 180.031 240.39 180.213 240.505 180.312 C 240.629 180.418 240.79 180.647 240.718 180.806 C 240.646 180.966 240.397 181.011 240.245 180.948 C 240.091 180.884 239.909 180.701 239.774 180.745 C 239.646 180.787 239.559 180.956 239.52 181.079 C 239.482 181.201 238.856 182.557 238.788 182.738 C 239.149 183.139 239.521 184.077 238.917 184.81 C 238.312 185.543 237.925 185.422 237.587 185.242 C 237.251 185.063 236.973 184.932 236.973 184.932 C 236.703 185.291 236.744 185.217 236.545 185.436 C 236.898 185.983 237.293 186.896 236.646 187.647 C 235.999 188.399 235.241 188.418 234.346 187.495 C 233.959 187.832 234.013 187.637 234.013 187.637 C 233.581 187.132 233.582 187.132 233.582 187.132 C 233.582 187.132 234.058 186.652 234.058 186.651 C 233.488 185.965 234.283 185.086 234.54 184.884"></path>
		<path fill="#FFFFFF" stroke="#4464C7" stroke-width="0.2788" stroke-linejoin="bevel" stroke-miterlimit="10" d="M 234.345 186.102 C 234.523 185.502 235.338 185.241 235.655 185.379 C 235.97 185.515 236.662 186.251 236.554 186.775 C 236.447 187.291 235.888 187.821 235.474 187.667 C 235.064 187.515 234.141 186.787 234.345 186.102"></path>
		<path fill="#E0B577" stroke="#A87C3B" stroke-width="0.2788" stroke-linejoin="bevel" stroke-miterlimit="10" d="M 235.12 186.683 C 235.061 186.445 235.411 186.039 235.668 186.064 C 235.926 186.089 236.061 186.338 236.024 186.504 C 235.988 186.668 235.929 187.205 235.658 187.145 C 235.384 187.085 235.196 186.988 235.12 186.683"></path>
		<path fill="#FFFFFF" stroke="#4464C7" stroke-width="0.2788" stroke-linejoin="bevel" stroke-miterlimit="10" d="M 237.706 184.788 C 237.048 184.555 236.626 184.166 236.558 183.79 C 236.489 183.41 236.753 182.743 237.425 182.721 C 238.094 182.699 238.491 182.881 238.611 183.148 C 238.73 183.413 238.875 184.029 238.646 184.311 C 238.421 184.588 238.061 184.913 237.706 184.788"></path>
		<path fill="#E0B577" stroke="#A87C3B" stroke-width="0.2788" stroke-linejoin="bevel" stroke-miterlimit="10" d="M 237.297 183.891 C 237.307 183.691 237.814 183.374 237.932 183.408 C 238.043 183.44 238.221 183.673 238.165 183.744 C 238.111 183.81 237.949 184.369 237.667 184.302 C 237.383 184.234 237.283 184.188 237.297 183.891"></path>
		<path fill="#C79C52" stroke="#806434" stroke-width="0.2788" stroke-linejoin="bevel" stroke-miterlimit="10" d="M 243.502 155.202 C 241.925 156.028 239.685 157.561 238.472 158.472 C 237.704 159.049 236.773 160.072 235.941 161.156 C 236.548 161.116 238.103 161.403 239.499 162.342 C 240.128 160.97 242.973 158.469 244.16 157.884 C 244.226 157.136 243.885 155.796 243.502 155.202"></path>
		<path fill="#C79C52" stroke="#806434" stroke-width="0.2788" stroke-linejoin="bevel" stroke-miterlimit="10" d="M 248.805 158.109 C 247.513 157.537 245.881 157.694 244.161 157.88 C 244.226 157.136 243.887 155.796 243.503 155.2 C 243.849 155.018 244.168 154.87 244.429 154.772 C 245.879 154.229 249.135 153.154 250.682 153.006 C 251.969 152.883 253.434 153.008 254.282 153.05 C 252.716 154.087 250.542 155.749 249.819 156.552 C 249.102 157.35 248.804 158.108 248.805 158.109"></path>
		<path fill="#C79C52" stroke="#806434" stroke-width="0.2788" stroke-linejoin="bevel" stroke-miterlimit="10" d="M 254.279 153.053 C 252.714 154.09 250.542 155.751 249.818 156.555 C 249.099 157.353 248.802 158.109 248.803 158.109 C 248.73 158.651 249.687 161.726 249.69 161.726 C 250.485 162.402 251.13 162.141 251.961 162.31 C 252.793 162.48 254.028 162.977 255.131 163.667 C 256.308 162.707 258.131 161.347 258.512 159.586 C 258.949 157.567 258.237 157.13 257.79 155.748 C 257.402 154.546 257.021 153.34 257.846 152.486 C 257.846 152.486 257.848 152.486 257.849 152.486 C 256.881 152.866 255.374 153.055 254.691 153.062 C 254.585 153.063 254.44 153.057 254.279 153.053"></path>
		<path fill="#C79C52" stroke="#806434" stroke-width="0.2788" stroke-linejoin="bevel" stroke-miterlimit="10" d="M 244.446 165.517 C 244.235 168.258 247.091 172.036 248.227 172.836 C 248.318 172.658 248.411 172.46 248.51 172.249 C 249.517 170.087 249.821 169.697 250.294 168.497 C 250.77 167.293 251.474 166.839 251.968 166.299 C 252.468 165.755 253.591 165.011 254.678 164.051 C 254.812 163.932 254.966 163.802 255.132 163.667 C 254.026 162.98 252.794 162.478 251.962 162.309 C 251.131 162.139 250.486 162.402 249.691 161.724 C 248.76 161.794 245.998 162.892 244.446 165.517"></path>
		<path fill="#C79C52" stroke="#806434" stroke-width="0.2788" stroke-linejoin="bevel" stroke-miterlimit="10" d="M 244.161 157.88 C 242.971 158.467 240.126 160.966 239.498 162.34 C 239.279 162.817 239.325 163.884 239.661 164.486 C 240.32 164.488 241.916 164.556 242.559 164.711 C 243.204 164.867 244.214 165.418 244.447 165.517 C 246 162.891 248.759 161.795 249.692 161.723 C 249.689 161.724 248.731 158.648 248.805 158.107 C 247.512 157.537 245.881 157.696 244.161 157.88"></path>
		<path fill="#C79C52" stroke="#806434" stroke-width="0.2788" stroke-linejoin="bevel" stroke-miterlimit="10" d="M 239.663 164.486 C 238.462 166.098 237.614 169.752 237.462 170.896 C 237.309 172.047 238.771 175.342 239.466 176.237 C 240.053 176.221 240.667 176.221 241.282 176.254 C 243.954 176.397 245.367 175.885 246.204 175.329 C 246.955 174.831 247.411 174.482 248.228 172.837 C 247.093 172.037 244.235 168.26 244.448 165.518 C 244.213 165.42 243.204 164.87 242.56 164.713 C 241.917 164.556 240.319 164.487 239.663 164.486"></path>
		<path fill="#C79C52" stroke="#806434" stroke-width="0.2788" stroke-linejoin="bevel" stroke-miterlimit="10" d="M 239.663 164.486 C 238.464 166.098 237.612 169.752 237.463 170.896 C 235.717 170.345 232.993 170.605 232.375 171.13 C 232.366 170.887 232.365 170.638 232.379 170.375 C 232.475 168.581 233.247 165.668 234.084 164.005 C 234.486 163.206 235.167 162.153 235.94 161.155 C 236.546 161.115 238.103 161.401 239.497 162.341 C 239.278 162.815 239.325 163.887 239.663 164.486"></path>
		<path fill="#C79C52" stroke="#806434" stroke-width="0.2788" stroke-linejoin="bevel" stroke-miterlimit="10" d="M 239.466 176.237 C 237.482 176.298 235.753 176.62 235.078 177.01 C 234.563 177.307 234.223 177.713 234.073 178.255 C 234.153 177.235 233.758 177.166 233.278 175.33 C 232.867 173.758 232.429 172.564 232.374 171.128 C 232.993 170.604 235.715 170.345 237.463 170.895 C 237.306 172.046 238.773 175.343 239.466 176.237"></path>
		<path fill="#FFC163" stroke="#B38645" stroke-width="0.2788" stroke-linejoin="bevel" stroke-miterlimit="10" d="M 234.029 179.571 C 233.841 178.324 234.205 177.515 235.076 177.009 C 235.947 176.504 238.604 176.112 241.279 176.253 C 243.951 176.395 245.364 175.884 246.201 175.328 C 247.036 174.773 247.507 174.407 248.509 172.248 C 249.512 170.084 249.819 169.696 250.292 168.495 C 250.768 167.29 251.472 166.837 251.966 166.298 C 252.465 165.753 253.59 165.013 254.676 164.05 C 255.765 163.084 258.077 161.595 258.515 159.581 C 258.954 157.563 258.238 157.127 257.792 155.744 C 257.347 154.363 256.906 152.978 258.307 152.125 C 259.715 151.268 259.916 152.45 259.897 152.619 C 259.877 152.793 259.362 152.864 259.097 153.197 C 258.832 153.529 259.566 154.934 259.664 155.488 C 259.762 156.045 260.622 158.123 260.27 159.792 C 259.919 161.459 259.345 162.125 258.103 163.239 C 256.861 164.355 255.62 165.698 254.346 166.446 C 253.068 167.196 252.496 168.506 252.125 169.014 C 251.751 169.525 250.977 171.114 250.767 171.714 C 250.555 172.314 250.285 173.136 250.037 173.517 C 249.789 173.896 249.042 175.354 248.373 175.83 C 247.71 176.302 247.221 176.888 246.07 177.166 C 244.913 177.445 243.893 177.786 242.703 177.891 C 241.516 177.997 240.405 177.487 239.403 177.657 C 238.4 177.826 237.695 177.98 237.221 178.249 C 236.749 178.517 236.377 178.505 236.198 179.027 C 236.018 179.548 236.011 180.081 235.413 180.282 C 234.811 180.484 234.1 180.036 234.029 179.571"></path>
		
			<path fill="#7BD968" stroke="#598C4E" stroke-width="0.2788" stroke-linecap="round" stroke-linejoin="bevel" stroke-miterlimit="10" d="M 238.016 188.47 C 238.186 188.488 238.881 188.527 239.297 188.037 C 239.709 187.55 240.08 186.95 239.882 186.583"></path>
	</g>
</g>
<g>
	<g>
		<path fill="#FFE563" stroke="#E8D46D" stroke-width="0.1233" stroke-linejoin="bevel" stroke-miterlimit="10" d="M 240.572 153.167 C 240.614 153.414 240.98 154.333 240.823 155.077 C 240.668 155.815 240.42 156.112 239.88 156.608 C 239.343 157.102 238.804 157.698 238.249 158.031 C 237.694 158.363 237.438 158.945 237.275 159.169 C 237.112 159.394 236.767 160.099 236.671 160.366 C 236.574 160.633 236.452 160.998 236.341 161.167 C 236.231 161.334 235.896 161.984 235.602 162.195 C 235.31 162.405 235.093 162.664 234.59 162.787 C 234.083 162.911 233.637 163.062 233.119 163.109 C 232.602 163.155 232.121 162.926 231.681 163.001 C 231.242 163.076 230.933 163.145 230.722 163.264 C 230.512 163.382 230.351 163.379 230.267 163.61 C 230.58 163.729 231.998 164.012 232.587 163.874 C 233.177 163.736 233.664 163.654 234.311 163.338 C 234.961 163.021 236.088 162.138 236.956 161.018 C 237.826 159.895 238.68 158.988 239.339 158.1 C 239.997 157.215 240.824 156.203 241.07 155.622 C 241.318 155.039 241.302 154.654 241.246 154.359 C 241.188 154.063 241.025 153.639 240.572 153.167"></path>
		<path fill="#7BD968" stroke="#598C4E" stroke-width="0.1233" stroke-linejoin="bevel" stroke-miterlimit="10" d="M 230.028 167.703 C 230.171 167.845 230.593 168.303 231.066 168.287 C 231.847 168.261 232.194 167.548 232.323 167.393 C 232.451 167.237 233.129 166.523 232.805 165.335 C 232.482 164.149 232.558 163.487 232.596 163.079 C 232.274 163.031 231.97 162.95 231.683 162.999 C 231.242 163.074 230.935 163.142 230.724 163.262 C 230.514 163.381 230.353 163.376 230.268 163.609 C 230.261 163.628 230.258 163.646 230.25 163.664 C 230.391 164.091 230.376 164.724 230.176 165.038 C 229.978 165.351 229.651 165.814 229.549 165.936 C 229.473 166.028 229.492 166.178 229.479 166.227 C 229.436 166.615 229.657 167.336 230.028 167.703"></path>
		<path fill="#7BD968" stroke="#598C4E" stroke-width="0.1233" stroke-linejoin="bevel" stroke-miterlimit="10" d="M 236.111 161.553 C 235.967 161.789 235.772 162.073 235.608 162.189 C 235.306 162.405 235.107 162.658 234.589 162.785 C 234.488 162.81 234.333 162.846 234.231 162.878 C 234.262 163.332 234.595 164.235 234.758 164.514 C 234.93 164.81 235.29 165.297 235.871 165.466 C 236.509 165.652 236.597 165.822 236.835 165.914 C 237.101 166.017 237.249 166.153 237.456 165.904 C 237.672 165.645 237.605 165.391 237.524 164.975 C 237.465 164.673 237.474 164.056 237.364 163.514 C 237.266 163.033 237.155 162.693 236.983 162.402 C 236.827 162.139 236.126 161.56 236.132 161.569 C 236.133 161.57 236.111 161.547 236.114 161.552"></path>
		<path fill="#7BD968" stroke="#598C4E" stroke-width="0.1233" stroke-linejoin="bevel" stroke-miterlimit="10" d="M 240.553 153.082 C 240.473 152.799 240.231 152.281 240.332 152.152 C 240.448 152.003 240.668 151.97 240.675 151.895 C 240.991 151.708 241.43 151.573 241.646 151.777 C 241.863 151.983 241.786 152.065 241.771 152.223 C 241.757 152.384 241.566 152.549 241.387 152.64 C 241.209 152.73 240.769 153.032 240.553 153.082"></path>
		<path fill="#7BD968" stroke="#598C4E" stroke-width="0.1233" stroke-linejoin="bevel" stroke-miterlimit="10" d="M 240.673 155.596 C 240.514 155.992 240.273 156.245 239.882 156.605 C 239.555 156.907 239.223 157.251 238.889 157.544 C 239.289 157.993 240.024 158.748 241.242 158.58 C 241.884 158.491 242.104 158.292 242.428 158.164 C 242.752 158.037 243.411 158.161 243.861 157.831 C 244.086 157.667 244.142 157.566 244.123 157.314 C 244.103 157.062 244.096 156.997 243.966 156.851 C 243.837 156.705 243.368 156.186 242.985 156.033 C 242.602 155.879 242.022 155.7 241.74 155.657 C 241.456 155.614 240.694 155.612 240.694 155.612 C 240.694 155.612 240.673 155.596 240.673 155.596"></path>
		<path fill="#94AEFF" stroke="#4464C7" stroke-width="0.1233" stroke-linejoin="bevel" stroke-miterlimit="10" d="M 229.481 166.226 C 229.658 166.085 229.997 166.251 229.997 166.251 C 230.076 166.07 230.164 166.019 230.231 165.987 C 230.09 165.78 230.035 165.409 230.232 165.174 C 230.43 164.938 230.59 164.71 231.108 165.01 C 231.357 164.694 231.417 164.23 231.528 164.13 C 231.64 164.028 231.792 164.004 231.84 164.029 C 231.89 164.055 232.091 164.137 232.141 164.182 C 232.194 164.229 232.263 164.331 232.229 164.402 C 232.197 164.472 232.087 164.494 232.021 164.466 C 231.955 164.437 231.877 164.354 231.818 164.375 C 231.761 164.394 231.721 164.469 231.704 164.523 C 231.687 164.577 231.398 165.184 231.367 165.264 C 231.52 165.443 231.674 165.864 231.402 166.192 C 231.13 166.522 230.96 166.467 230.816 166.386 C 230.67 166.305 230.55 166.247 230.55 166.247 C 230.428 166.408 230.446 166.375 230.357 166.472 C 230.506 166.717 230.67 167.127 230.378 167.465 C 230.086 167.804 229.752 167.814 229.37 167.399 C 229.196 167.551 229.223 167.463 229.223 167.463 C 229.039 167.236 229.039 167.236 229.039 167.236 C 229.039 167.236 229.254 167.019 229.254 167.019 C 229.01 166.711 229.368 166.317 229.481 166.226"></path>
		<path fill="#FFFFFF" stroke="#4464C7" stroke-width="0.1233" stroke-linejoin="bevel" stroke-miterlimit="10" d="M 229.384 166.772 C 229.468 166.503 229.829 166.387 229.967 166.447 C 230.104 166.508 230.399 166.837 230.346 167.073 C 230.294 167.303 230.043 167.543 229.863 167.474 C 229.685 167.406 229.287 167.08 229.384 166.772"></path>
		<path fill="#E0B577" stroke="#A87C3B" stroke-width="0.1233" stroke-linejoin="bevel" stroke-miterlimit="10" d="M 229.718 167.032 C 229.695 166.926 229.853 166.743 229.964 166.754 C 230.077 166.765 230.135 166.876 230.116 166.952 C 230.099 167.025 230.067 167.266 229.949 167.24 C 229.828 167.214 229.748 167.17 229.718 167.032"></path>
		<path fill="#FFFFFF" stroke="#4464C7" stroke-width="0.1233" stroke-linejoin="bevel" stroke-miterlimit="10" d="M 230.871 166.182 C 230.587 166.077 230.407 165.903 230.38 165.734 C 230.353 165.566 230.477 165.266 230.77 165.256 C 231.064 165.246 231.234 165.327 231.283 165.447 C 231.333 165.566 231.39 165.841 231.287 165.967 C 231.186 166.091 231.025 166.238 230.871 166.182"></path>
		<path fill="#E0B577" stroke="#A87C3B" stroke-width="0.1233" stroke-linejoin="bevel" stroke-miterlimit="10" d="M 230.702 165.78 C 230.708 165.692 230.933 165.548 230.984 165.564 C 231.033 165.579 231.108 165.682 231.082 165.714 C 231.058 165.743 230.982 165.994 230.858 165.964 C 230.735 165.934 230.693 165.913 230.702 165.78"></path>
		<path fill="#C79C52" stroke="#806434" stroke-width="0.1233" stroke-linejoin="bevel" stroke-miterlimit="10" d="M 233.603 153.03 C 232.915 153.395 231.937 154.071 231.404 154.471 C 231.067 154.725 230.655 155.177 230.286 155.658 C 230.551 155.642 231.232 155.769 231.836 156.188 C 232.118 155.579 233.366 154.476 233.882 154.219 C 233.913 153.887 233.768 153.294 233.603 153.03"></path>
		<path fill="#C79C52" stroke="#806434" stroke-width="0.1233" stroke-linejoin="bevel" stroke-miterlimit="10" d="M 235.894 154.325 C 235.335 154.072 234.63 154.138 233.882 154.217 C 233.913 153.887 233.768 153.294 233.602 153.03 C 233.752 152.952 233.892 152.884 234.004 152.842 C 234.636 152.603 236.045 152.131 236.712 152.067 C 237.267 152.013 237.898 152.07 238.263 152.089 C 237.59 152.548 236.649 153.282 236.335 153.638 C 236.025 153.988 235.894 154.325 235.894 154.325"></path>
		<path fill="#C79C52" stroke="#806434" stroke-width="0.1233" stroke-linejoin="bevel" stroke-miterlimit="10" d="M 238.264 152.087 C 237.592 152.546 236.651 153.281 236.337 153.636 C 236.024 153.988 235.894 154.325 235.894 154.325 C 235.862 154.564 236.264 155.929 236.265 155.929 C 236.607 156.229 236.886 156.114 237.242 156.19 C 237.601 156.267 238.131 156.488 238.605 156.793 C 239.115 156.367 239.904 155.764 240.072 154.984 C 240.264 154.089 239.958 153.896 239.769 153.282 C 239.605 152.75 239.441 152.215 239.796 151.836 C 239.796 151.836 239.799 151.834 239.799 151.834 C 239.384 152.003 238.735 152.09 238.442 152.091 C 238.395 152.091 238.333 152.089 238.264 152.087"></path>
		<path fill="#C79C52" stroke="#806434" stroke-width="0.1233" stroke-linejoin="bevel" stroke-miterlimit="10" d="M 233.973 157.603 C 233.866 158.819 235.08 160.5 235.565 160.857 C 235.606 160.778 235.648 160.69 235.692 160.596 C 236.143 159.636 236.278 159.465 236.491 158.932 C 236.705 158.398 237.011 158.197 237.228 157.958 C 237.447 157.717 237.935 157.388 238.408 156.962 C 238.465 156.911 238.531 156.853 238.604 156.792 C 238.132 156.486 237.601 156.265 237.244 156.19 C 236.884 156.114 236.606 156.228 236.266 155.927 C 235.862 155.957 234.663 156.44 233.973 157.603"></path>
		<path fill="#C79C52" stroke="#806434" stroke-width="0.1233" stroke-linejoin="bevel" stroke-miterlimit="10" d="M 233.882 154.217 C 233.365 154.476 232.116 155.58 231.835 156.188 C 231.737 156.399 231.751 156.873 231.895 157.14 C 232.181 157.143 232.878 157.174 233.157 157.244 C 233.436 157.313 233.871 157.561 233.973 157.603 C 234.663 156.44 235.862 155.957 236.266 155.925 C 236.266 155.925 235.862 154.562 235.895 154.323 C 235.337 154.07 234.63 154.138 233.882 154.217"></path>
		<path fill="#C79C52" stroke="#806434" stroke-width="0.1233" stroke-linejoin="bevel" stroke-miterlimit="10" d="M 231.896 157.139 C 231.364 157.853 230.969 159.474 230.894 159.984 C 230.818 160.495 231.431 161.964 231.726 162.363 C 231.981 162.356 232.251 162.357 232.517 162.372 C 233.683 162.438 234.299 162.211 234.668 161.964 C 234.998 161.743 235.2 161.588 235.567 160.858 C 235.081 160.501 233.868 158.819 233.975 157.604 C 233.874 157.56 233.438 157.315 233.159 157.244 C 232.879 157.173 232.182 157.14 231.896 157.139"></path>
		<path fill="#C79C52" stroke="#806434" stroke-width="0.1233" stroke-linejoin="bevel" stroke-miterlimit="10" d="M 231.896 157.139 C 231.365 157.853 230.968 159.474 230.894 159.984 C 230.136 159.736 228.939 159.85 228.662 160.084 C 228.66 159.975 228.662 159.865 228.67 159.748 C 228.726 158.949 229.084 157.657 229.46 156.919 C 229.641 156.564 229.944 156.1 230.287 155.657 C 230.551 155.64 231.232 155.769 231.835 156.187 C 231.737 156.397 231.753 156.872 231.896 157.139"></path>
		<path fill="#C79C52" stroke="#806434" stroke-width="0.1233" stroke-linejoin="bevel" stroke-miterlimit="10" d="M 231.725 162.363 C 230.858 162.388 230.097 162.531 229.797 162.705 C 229.569 162.836 229.415 163.018 229.345 163.26 C 229.389 162.805 229.216 162.775 229.022 161.956 C 228.856 161.255 228.674 160.723 228.661 160.083 C 228.937 159.85 230.134 159.735 230.893 159.982 C 230.816 160.494 231.43 161.963 231.725 162.363"></path>
		<path fill="#FFC163" stroke="#B38645" stroke-width="0.1233" stroke-linejoin="bevel" stroke-miterlimit="10" d="M 229.314 163.848 C 229.242 163.29 229.412 162.93 229.798 162.705 C 230.185 162.48 231.351 162.306 232.517 162.372 C 233.682 162.437 234.299 162.21 234.667 161.964 C 235.034 161.718 235.243 161.556 235.694 160.596 C 236.145 159.636 236.278 159.464 236.491 158.932 C 236.706 158.397 237.013 158.197 237.229 157.957 C 237.446 157.716 237.937 157.387 238.409 156.962 C 238.882 156.534 239.881 155.874 240.075 154.981 C 240.268 154.086 239.961 153.894 239.771 153.281 C 239.582 152.668 239.394 152.056 239.996 151.675 C 240.599 151.294 240.685 151.816 240.676 151.894 C 240.667 151.969 240.448 152.003 240.332 152.152 C 240.218 152.3 240.533 152.92 240.573 153.167 C 240.613 153.415 240.981 154.335 240.824 155.077 C 240.669 155.816 240.421 156.112 239.881 156.608 C 239.342 157.104 238.805 157.698 238.249 158.031 C 237.695 158.362 237.439 158.945 237.277 159.17 C 237.114 159.395 236.766 160.101 236.671 160.367 C 236.575 160.634 236.452 160.999 236.341 161.168 C 236.231 161.335 235.896 161.985 235.602 162.196 C 235.31 162.406 235.092 162.666 234.59 162.789 C 234.084 162.913 233.638 163.064 233.118 163.111 C 232.601 163.157 232.12 162.929 231.681 163.003 C 231.241 163.078 230.931 163.146 230.721 163.267 C 230.512 163.386 230.351 163.379 230.266 163.613 C 230.182 163.844 230.174 164.087 229.909 164.173 C 229.648 164.258 229.34 164.054 229.314 163.848"></path>
		
			<path fill="#7BD968" stroke="#598C4E" stroke-width="0.1233" stroke-linecap="round" stroke-linejoin="bevel" stroke-miterlimit="10" d="M 230.968 167.833 C 231.041 167.84 231.347 167.859 231.534 167.638 C 231.719 167.419 231.887 167.149 231.804 166.985"></path>
	</g>
</g>
<polygon fill="#7BD968" points="400.823,211.973 400.821,211.973 400.83,211.979 "></polygon>
</svg>
