<!--?xml version="1.0" encoding="utf-8"?-->
<!-- Generator: Adobe Illustrator 17.0.2, SVG Export Plug-In . SVG Version: 6.00 Build 0)  -->

<svg version="1.1" id="Layer_1" xmlns="http://www.w3.org/2000/svg" xmlns:xlink="http://www.w3.org/1999/xlink" x="0px" y="0px" width="792px" height="612px" viewBox="0 0 792 612" enable-background="new 0 0 792 612" xml:space="preserve">
<path fill="#D6D7EC" stroke="#010101" stroke-width="4.6788" stroke-linecap="round" d="M 253.819 333.27 C 247.07 333.037 235.916 338.528 240.201 342.474 C 254.204 355.377 290.57 354.085 310.74 347.513 C 355.716 332.858 429.192 198.169 441.194 306.396 C 448.626 373.415 474.106 422.611 518.439 417.717 C 532.177 416.2 538.331 402.329 540.801 391.63 C 542.07 386.13 547.342 360.754 562.89 380.401 C 575.384 396.194 548.576 429.7 530.378 434.98 C 517.157 438.814 489.583 434.047 479.085 427.556 C 444.265 406.026 439.986 327.787 422.355 306.298 C 400.702 279.908 352.504 341.981 329.983 349.491 C 314.751 354.571 301.37 357.384 286.322 363.208 C 252.685 376.226 267.653 350.207 250.493 366.574 C 242.663 374.042 252.999 382.272 259.554 380.725 C 260.891 399.624 255.575 417.947 267.163 421.553 C 297.493 430.994 540.767 545.59 649.62 456.404 C 718.729 399.781 690.74 310.297 617.356 298.807 C 577.184 292.518 539.7 300.02 515.447 279.955 C 472.81 244.676 410.299 128.009 341.067 122.197 C 324.468 120.804 307.926 123.043 293.153 127.466 C 266.801 135.356 244.876 151.444 235.023 176.691 C 223.167 207.065 230.96 244.151 236.859 272.986 C 241.597 296.144 252.372 314.738 253.819 333.27"></path>
<path fill="#FFFFFF" stroke="#010101" stroke-width="4.6788" stroke-linecap="round" d="M 320.025 231.72 C 316.033 248.087 305.999 261.743 293.22 267.829 C 232.418 285.511 228.738 184.612 280.499 184.295 C 286.936 184.256 300.233 185.066 304.307 190.141 C 309.857 197.053 321.939 220.884 320.025 231.72"></path>
<path fill="#FFFFFF" stroke="#010101" stroke-width="4.6788" stroke-linecap="round" d="M 320.025 231.72 C 348.628 246.838 374.119 218.421 385.722 203.178 C 402.503 181.133 367.848 144.47 330.176 155.87 C 314.5 160.614 303.041 169.441 299.985 185.386 C 296.825 201.882 303.097 222.773 320.025 231.72"></path>
<path fill="#50BFA2" stroke="#010101" stroke-width="4.6788" stroke-linecap="round" d="M 326.096 204.975 C 375.277 199.12 334.567 141.5 313.214 187.404 C 312.751 195.494 315.027 206.588 326.096 204.975"></path>
<path fill="#50BFA2" stroke="#010101" stroke-width="4.6788" stroke-linecap="round" d="M 267.162 248.621 C 280.675 251.146 291.364 229.126 280.763 220.77 C 266.429 209.472 245.327 240.153 267.162 248.621"></path>
<path fill="#7E9ACF" stroke="#010101" stroke-width="4.6788" stroke-linecap="round" d="M 253.819 333.27 C 254.985 348.223 299.035 344.444 318.718 334.429 C 365.794 310.478 434.053 186.798 450.417 300.67 C 467.164 417.213 512.894 411.361 523.378 393.603 C 533.331 376.743 522.525 358.589 544.863 352.07 C 581.828 341.277 588.234 423.183 565.004 439.493 C 526.63 466.437 471.78 459.362 441.396 414.49 C 423.94 388.71 427.14 368.126 416.733 347.7 C 400.857 316.544 336.848 359.306 318.831 361.828 C 306.124 363.607 273.528 377.428 259.556 380.725 C 253 382.272 242.665 374.042 250.495 366.573 C 267.655 350.206 252.687 376.226 286.323 363.208 C 301.371 357.383 314.752 354.57 329.984 349.491 C 352.505 341.981 400.703 279.908 422.356 306.298 C 439.987 327.788 444.264 406.025 479.087 427.556 C 489.588 434.048 517.158 438.814 530.38 434.98 C 548.575 429.7 575.385 396.193 562.891 380.401 C 547.346 360.754 542.071 386.13 540.802 391.63 C 538.333 402.33 532.178 416.201 518.44 417.717 C 474.108 422.611 448.628 373.416 441.195 306.397 C 429.193 198.17 355.717 332.858 310.742 347.513 C 290.572 354.085 254.206 355.376 240.202 342.473 C 235.916 338.528 247.07 333.037 253.819 333.27"></path>
</svg>
