<?xml version="1.0" encoding="utf-8"?>
<!-- Generator: Adobe Illustrator 17.1.0, SVG Export Plug-In . SVG Version: 6.00 Build 0)  -->
<!DOCTYPE svg PUBLIC "-//W3C//DTD SVG 1.1//EN" "http://www.w3.org/Graphics/SVG/1.1/DTD/svg11.dtd">
<svg version="1.1" id="Layer_1" xmlns="http://www.w3.org/2000/svg" xmlns:xlink="http://www.w3.org/1999/xlink" x="0px" y="0px"
	 viewBox="0 0 420 500" enable-background="new 0 0 420 500" xml:space="preserve">
<g>
	<path fill="#BDD24C" stroke="#000000" stroke-width="6" stroke-miterlimit="10" d="M58.2,244.3c0-0.1,0.1-0.1,0.1-0.1
		C58.3,244.2,58.2,244.3,58.2,244.3"/>
	<path fill="#BDD24C" stroke="#000000" stroke-width="6" stroke-miterlimit="10" d="M58.2,244.3c0-0.1,0.1-0.1,0.1-0.1
		C58.3,244.2,58.2,244.3,58.2,244.3"/>
	<path fill="#BDD24C" stroke="#000000" stroke-width="6" stroke-miterlimit="10" d="M58.3,244.2C58.3,244.2,58.3,244.2,58.3,244.2
		C58.3,244.2,58.3,244.2,58.3,244.2"/>
	<path fill="#BDD24C" stroke="#000000" stroke-width="6" stroke-miterlimit="10" d="M58.3,244.2C58.3,244.2,58.3,244.2,58.3,244.2
		C58.3,244.2,58.3,244.2,58.3,244.2"/>
	<path fill="#BDD24C" stroke="#000000" stroke-width="6" stroke-miterlimit="10" d="M97.2,295.3c-2.1,0-4.9-0.7-4.9-3.3
		c0-3.5,4.1-3.5,4.4-6c-10.2,4.4-18.6,9.1-30.1,5.9c-9.5-2.6-18.5-7.9-18.7-18.6c0-1.8,0.2-3.4,0.5-5.2c0.2-1.1,0.4-2.2,0.6-3.3
		c0.5-2.3-0.2-2.1-1-4.1c-1.5-3.8-0.9-8.9,2.5-11.6c1.3-1,2.8-1.5,4.5-1.7c0.7-0.5,1.4-2.1,1.9-2.9c0.8-1.2,2.2-2.2,3.4-3.1
		c2.9-2.1,2.6-1.9,0.9-5.3c-1-2-1.9-4.6-4.4-4.6c-6.4,0-2-6.2,1.4-7.4c2.3-0.8,7.1,0.2,5.9,3.7c-0.3,0.7-0.9,1.2-1.1,2
		c-0.3,1.5,0.8,2.9,1.5,4.2c0.5,1,1.1,1.9,1.6,2.8c1.2,2.1,1.6,1.1,3.7,0.7c2.1-0.4,4.3-0.6,6.5-0.7c3.1-0.1,4,0.6,5.4-2.2
		c0.8-1.6,1.8-3.4,2.3-5.2c-1.2-1.5-3.2-2.2-0.8-4.1c3.2-2.6,8.2,0.2,9.4,3.6c0.7,2.1-0.1,4.2-2.7,3.3c-1.4-0.5-3.5,4-3.7,4.8
		c4.1,2,11.6,0.7,15.3,3.2c5.7,3.9,14.3-3.6,18.7-1.9c6.2,2.3,42-41.3,77.4-16.9c21.8,15,41.6,50,62,48.7
		c23.3-1.5,43.3-14,49.6-15.4c10.6-2.3,22-5,31.2,1.3c7.4,5,16.5,10.5,19.2,19.9c1.5,5.2-0.8,7.8-6.1,7.9c-0.3,3.2-0.5,3.1,1.5,5.1
		c2.1,2.2-0.4,3.9-2.4,4.4c-2.4,0.6-8.1,2.9-9.1-0.8c-0.5-1.9,1.1-3,2.6-3.8c1.9-1,2.1-3.1,2.2-5.1c-2.1,0-4.2,0.2-6.2-0.2
		c-1.8-0.4-1.6-0.1-1.8,1.8c-0.2,1.3-0.4,1.5,0.2,1.9c4.1,2.7-0.5,6.5-3,7.4c-2.3,0.9-10-1.5-7.5-3.1c5-3.2,5.8-7.4,5.7-7.6
		c-3-15.1-36.3,14.8-77.1,20.1c-19.7,2.6-41.8-34.4-60.1-47.3c-30.7-21.7-59.7,11.4-59.9,11.5c-5.6,5.1,0.4,7.6,1.4,9.5
		c2.4,4.9-3.4,5.7-5.6,6.1c-2.2,0.4-6.1-0.4-4.1-3.5c1.9-3,0.1-5.5,1-8.2c-2.6,1.9-4.7,2.2-5.4,6.5c-0.4,2.6-1.6,4.9,0.2,5.7
		c1.9,0.8,3.2,3.5,1.7,5.2c-1.2,1.3-3.7,1.8-5.3,2.1c-1.6,0.3-4.6,0.1-4.6-2.3c0-2,1.9-3.3,2.4-5.4c0.6-2.7,1.3-6.4-1.7-4.7
		c-1.7,0.9-3.3,1.5-5,2.6c-0.2,2.9-0.4,4.8-0.3,6.8c7.2,0,2.6,5.8-2.2,6.4c-2.1,0.2-6.8,0.2-6.6-3.1c0.1-1.6,1.6-2.6,2.2-4
		c0.6-1.4,0.5-3,0.5-4.6c-2.4,0.5-5.5,0-5.5,2.7c0,1.7-0.9,3.4,1,3.7c2.1,0.4,1.8,3,0.4,4.1C101.8,294.8,99.2,295.3,97.2,295.3
		C95.8,295.3,98.5,295.3,97.2,295.3"/>
</g>
</svg>
