<!--?xml version="1.0" encoding="utf-8"?-->
<!-- Generator: Adobe Illustrator 17.1.0, SVG Export Plug-In . SVG Version: 6.00 Build 0)  -->

<svg version="1.1" id="Layer_1" xmlns="http://www.w3.org/2000/svg" xmlns:xlink="http://www.w3.org/1999/xlink" x="0px" y="0px" width="920.352px" height="383.168px" viewBox="0 0 920.352 383.168" enable-background="new 0 0 920.352 383.168" xml:space="preserve">
<g>
	<path fill="#BDD24C" stroke="#000000" stroke-width="6" stroke-miterlimit="10" d="M 127.535 179.185 C 127.617 179.058 127.674 178.972 127.714 178.91 C 127.676 178.969 127.616 179.061 127.535 179.185"></path>
	<path fill="#BDD24C" stroke="#000000" stroke-width="6" stroke-miterlimit="10" d="M 127.535 179.185 C 127.617 179.058 127.674 178.972 127.714 178.91 C 127.676 178.969 127.616 179.061 127.535 179.185"></path>
	<path fill="#BDD24C" stroke="#000000" stroke-width="6" stroke-miterlimit="10" d="M 127.714 178.91 C 127.736 178.875 127.754 178.847 127.764 178.833 C 127.755 178.846 127.732 178.882 127.714 178.91"></path>
	<path fill="#BDD24C" stroke="#000000" stroke-width="6" stroke-miterlimit="10" d="M 127.714 178.91 C 127.736 178.875 127.754 178.847 127.764 178.833 C 127.755 178.846 127.732 178.882 127.714 178.91"></path>
	<path fill="#BDD24C" stroke="#000000" stroke-width="6" stroke-miterlimit="10" d="M 213.066 290.881 C 208.5 290.881 202.436 289.261 202.381 283.672 C 202.307 276.106 211.348 275.966 212.114 270.5 C 189.692 280.217 171.31 290.418 146.131 283.437 C 125.393 277.687 105.62 266.205 105.173 242.666 C 105.1 238.811 105.624 235.106 106.299 231.323 C 106.728 228.917 107.177 226.516 107.654 224.119 C 108.659 219.081 107.22 219.443 105.514 215.045 C 102.268 206.676 103.594 195.451 110.983 189.618 C 113.777 187.412 117.223 186.238 120.748 185.942 C 122.377 184.825 123.769 181.303 124.846 179.649 C 126.591 176.97 129.768 174.821 132.342 172.906 C 138.601 168.248 138.142 168.78 134.408 161.235 C 132.199 156.772 130.145 151.132 124.785 151.132 C 110.86 151.132 120.454 137.437 127.774 134.856 C 132.776 133.092 143.375 135.338 140.606 142.927 C 140.044 144.469 138.527 145.6 138.182 147.204 C 137.494 150.403 140.043 153.512 141.573 156.366 C 142.702 158.472 143.914 160.531 145.151 162.574 C 147.883 167.086 148.589 164.991 153.232 164.055 C 157.921 163.11 162.697 162.644 167.474 162.484 C 174.209 162.258 176.164 163.86 179.329 157.632 C 181.156 154.036 183.356 150.172 184.309 146.226 C 181.722 142.999 177.331 141.481 182.494 137.216 C 189.51 131.419 200.484 137.707 202.992 145.06 C 204.556 149.648 202.739 154.298 197.128 152.345 C 193.983 151.251 189.394 161.203 189.023 162.797 C 198.115 167.13 214.363 164.228 222.447 169.753 C 234.913 178.273 253.822 161.896 263.508 165.562 C 277.093 170.703 355.569 74.9783 433.225 128.443 C 480.996 161.332 524.474 237.935 569.173 235.154 C 620.256 231.976 664.062 204.464 677.934 201.406 C 701.088 196.302 726.038 190.517 746.271 204.26 C 762.387 215.207 782.439 227.346 788.332 247.833 C 791.586 259.146 786.646 264.937 774.947 265.139 C 774.354 272.17 773.889 272.006 778.141 276.404 C 782.784 281.206 777.249 284.988 772.97 286.136 C 767.74 287.54 755.242 292.468 753.013 284.356 C 751.844 280.101 755.481 277.744 758.732 276.13 C 763.001 274.01 763.35 269.343 763.622 265.027 C 759.073 264.932 754.44 265.491 749.982 264.585 C 746.078 263.792 746.549 264.36 746.033 268.451 C 745.673 271.312 745.196 271.743 746.516 272.63 C 755.408 278.602 745.483 286.824 739.951 288.938 C 734.939 290.854 718.059 285.636 723.558 282.135 C 734.553 275.135 736.238 265.893 736.145 265.426 C 729.512 232.423 656.635 297.817 567.266 309.511 C 524.159 315.152 475.605 234.032 435.596 205.8 C 368.291 158.307 304.788 230.682 304.406 231.033 C 292.143 242.275 305.387 247.645 307.483 251.904 C 312.724 262.552 300.083 264.432 295.258 265.206 C 290.348 265.993 281.928 264.365 286.272 257.521 C 290.382 251.045 286.413 245.501 288.361 239.566 C 282.583 243.738 278.027 244.406 276.55 253.711 C 275.649 259.382 272.989 264.435 277.078 266.165 C 281.216 267.916 284.132 273.823 280.785 277.5 C 278.264 280.269 272.648 281.448 269.154 282.107 C 265.547 282.787 259.1 282.305 259.154 277.091 C 259.201 272.68 263.393 269.912 264.363 265.246 C 265.601 259.287 267.132 251.187 260.622 254.884 C 256.973 256.957 253.376 258.089 249.709 260.49 C 249.182 266.891 248.909 271.033 249.003 275.471 C 264.697 275.43 254.683 288.208 244.177 289.43 C 239.589 289.964 229.196 289.823 229.776 282.743 C 230.07 279.156 233.213 277.141 234.612 274.079 C 235.988 271.065 235.738 267.542 235.626 264.074 C 230.466 265.098 223.5 264.065 223.496 269.941 C 223.494 273.755 221.594 277.338 225.608 278.12 C 230.123 279 229.558 284.767 226.522 287.111 C 223.007 289.825 217.343 290.881 213.066 290.881 C 209.904 290.881 215.901 290.881 213.066 290.881"></path>
</g>
<g>
</g>
<g>
</g>
<g>
</g>
<g>
</g>
<g>
</g>
<g>
</g>
</svg>
