<!--?xml version="1.0" encoding="utf-8"?-->
<!-- Generator: Adobe Illustrator 17.1.0, SVG Export Plug-In . SVG Version: 6.00 Build 0)  -->

<svg version="1.1" id="Layer_1" xmlns="http://www.w3.org/2000/svg" xmlns:xlink="http://www.w3.org/1999/xlink" x="0px" y="0px" width="920.352px" height="383.168px" viewBox="0 0 920.352 383.168" enable-background="new 0 0 920.352 383.168" xml:space="preserve">
<g>
	<path fill="#BDD24C" stroke="#000000" stroke-width="6" stroke-miterlimit="10" d="M 127.535 179.185 C 127.617 179.058 127.674 178.972 127.714 178.91 C 127.676 178.969 127.616 179.061 127.535 179.185"></path>
	<path fill="#BDD24C" stroke="#000000" stroke-width="6" stroke-miterlimit="10" d="M 127.535 179.185 C 127.617 179.058 127.674 178.972 127.714 178.91 C 127.676 178.969 127.616 179.061 127.535 179.185"></path>
	<path fill="#BDD24C" stroke="#000000" stroke-width="6" stroke-miterlimit="10" d="M 127.714 178.91 C 127.736 178.875 127.754 178.847 127.764 178.833 C 127.755 178.846 127.732 178.882 127.714 178.91"></path>
	<path fill="#BDD24C" stroke="#000000" stroke-width="6" stroke-miterlimit="10" d="M 127.714 178.91 C 127.736 178.875 127.754 178.847 127.764 178.833 C 127.755 178.846 127.732 178.882 127.714 178.91"></path>
	<path fill="#BDD24C" stroke="#000000" stroke-width="6" stroke-miterlimit="10" d="M 213.066 290.881 C 208.5 290.881 202.436 289.261 202.381 283.672 C 202.307 276.106 211.348 275.966 212.114 270.5 C 189.692 280.217 171.31 290.418 146.131 283.437 C 125.393 277.687 105.62 266.205 105.173 242.666 C 105.1 238.811 105.624 235.106 106.299 231.323 C 106.728 228.917 107.177 226.516 107.654 224.119 C 108.659 219.081 107.22 219.443 105.514 215.045 C 102.268 206.676 103.594 195.451 110.983 189.618 C 113.777 187.412 117.223 186.238 120.748 185.942 C 122.377 184.825 123.769 181.303 124.846 179.649 C 126.591 176.97 129.768 174.821 132.342 172.906 C 138.601 168.248 138.142 168.78 134.408 161.235 C 132.199 156.772 130.145 151.132 124.785 151.132 C 110.86 151.132 120.454 137.437 127.774 134.856 C 132.776 133.092 143.375 135.338 140.606 142.927 C 140.044 144.469 138.527 145.6 138.182 147.204 C 137.494 150.403 140.043 153.512 141.573 156.366 C 142.702 158.472 143.914 160.531 145.151 162.574 C 147.883 167.086 148.589 164.991 153.232 164.055 C 157.921 163.11 162.697 162.644 167.474 162.484 C 174.211 162.258 176.16 163.86 179.33 157.632 C 181.156 154.046 183.351 150.151 184.315 146.243 C 181.688 142.9 177.363 141.604 182.509 137.194 C 189.34 131.339 200.765 137.925 202.855 144.902 C 204.549 150.559 203.268 153.102 196.637 152.833 C 195.377 152.782 188.344 155.493 189.225 168.074 C 197.471 144.566 215.25 188.626 221.877 169.357 C 238.003 122.468 250.673 234.354 262.323 181.352 C 305.867 -16.7436 620.984 337.439 681.09 194.065 C 684.564 185.777 739.268 200.695 743.847 203.246 C 765.462 215.289 781.155 227.959 788.197 247.457 C 792.805 260.215 785.573 264.105 775.189 265.315 C 774.064 271.954 773.997 272.095 778.152 276.409 C 782.751 281.185 777.258 285.001 772.975 286.138 C 767.725 287.533 755.251 292.479 753.01 284.353 C 751.842 280.116 755.483 277.735 758.728 276.132 C 763.014 274.016 763.327 269.329 763.636 265.037 C 758.984 264.865 754.569 265.582 749.917 264.546 C 746.234 263.725 746.452 264.647 746.045 268.202 C 745.542 272.592 745.537 270.839 746.129 271.507 C 757.122 283.9 743.167 281.463 740.975 287.877 C 731.558 315.427 721.495 253.887 723.308 280.816 C 728.978 364.996 744.329 155.099 736.23 236.738 C 718.878 411.636 321.85 121.403 302.441 230.59 C 302.227 231.796 298.207 252.525 308.037 254.472 C 312.72 255.4 300.314 268.62 294.86 265.667 C 291.534 263.866 281.024 266.256 286.397 257.489 C 290.173 251.328 286.513 245.622 288.327 239.718 C 282.604 243.75 277.988 244.711 276.534 253.873 C 275.635 259.535 272.977 264.583 277.06 266.314 C 281.206 268.072 284.114 273.973 280.77 277.652 C 278.251 280.422 272.63 281.6 269.14 282.259 C 265.529 282.94 259.086 282.456 259.14 277.244 C 259.185 272.831 263.378 270.063 264.348 265.394 C 265.587 259.428 267.119 251.313 260.613 254.972 C 256.964 257.024 253.369 258.151 249.704 260.523 C 249.18 266.889 248.907 271.028 249.001 275.471 C 264.695 275.43 254.681 288.206 244.175 289.426 C 239.587 289.959 229.194 289.822 229.774 282.741 C 230.068 279.156 233.211 277.141 234.61 274.079 C 235.986 271.065 235.736 267.544 235.624 264.075 C 230.464 265.1 223.498 264.063 223.494 269.941 C 223.492 273.755 221.592 277.338 225.606 278.12 C 230.122 279 229.555 284.766 226.52 287.111 C 223.006 289.824 217.344 290.881 213.066 290.881 C 209.904 290.881 215.901 290.881 213.066 290.881"></path>
</g>
<g>
</g>
<g>
</g>
<g>
</g>
<g>
</g>
<g>
</g>
<g>
</g>
</svg>
