<!--?xml version="1.0" encoding="utf-8"?-->
<!-- Generator: Adobe Illustrator 15.0.2, SVG Export Plug-In . SVG Version: 6.00 Build 0)  -->

<svg version="1.1" id="Layer_1" xmlns="http://www.w3.org/2000/svg" xmlns:xlink="http://www.w3.org/1999/xlink" x="0px" y="0px" width="1020px" height="200px" viewBox="0 0 1020 200" enable-background="new 0 0 1020 200" xml:space="preserve">
<path d="M 1002.48 81.5679 C 1006.16 85.0673 1007.28 89.5618 1009.72 92.9744 C 1007.08 107.436 980.678 100.122 965.766 98.9641 C 962.249 98.691 958.295 99.2404 953.76 98.965 C 947.413 98.5796 940.681 96.4811 933.091 95.6215 C 918.705 93.9922 903.353 95.3013 888.452 93.6274 C 880.774 92.7648 872.516 90.2727 863.771 89.6353 C 846.56 88.3808 826.681 89.756 809.135 88.9749 C 799.677 88.5539 791.221 88.179 782.501 91.0239 C 777.387 92.6924 772.388 96.2232 764.483 97.691 C 756.712 99.1341 749.59 99.2801 739.823 100.331 C 729.441 101.448 719.313 104.399 708.497 105.65 C 702.344 106.362 696.904 106.29 691.828 109.603 C 686.45 109.322 682.006 110.116 676.463 110.284 C 674.935 115.514 674.043 121.503 672.628 127.641 C 671.379 133.06 670.212 139.768 667.954 144.353 C 666.801 146.695 664.367 148.171 663.308 150.344 C 661.246 154.575 662.03 160.351 664.45 164.249 C 662.788 168.693 663.308 173.784 661.289 177.653 C 660.677 178.824 659.455 178.705 657.919 180.367 C 655.282 183.219 654.055 188.588 647.818 188.241 C 646.31 186.973 647.052 184.786 647.17 182.274 C 641.272 183.517 636.154 191.958 627.853 186.938 C 625.928 183.976 631.558 184.018 630.511 180.274 C 625.278 181.959 621.716 187.437 613.852 184.936 C 612.629 182.231 614.622 179.987 615.848 178.273 C 612.21 175.083 615.009 170.718 613.844 166.262 C 611.355 166.842 607.18 165.993 603.867 166.99 C 599.659 168.256 596.148 173.906 591.187 171.593 C 590.304 162.756 597.252 161.886 596.526 153.61 C 604.14 146.585 615.984 143.921 614.507 128.282 C 600.393 128.535 585.164 128.509 570.533 128.311 C 558.786 128.152 547.63 131.595 533.899 131.674 C 524.586 131.728 515.196 129.592 505.42 129.181 C 492.705 128.647 478.853 130.204 465.484 130.399 C 461.971 130.45 458.392 131.866 454.413 131.942 C 443.128 132.157 431.235 129.553 419.892 130.172 C 415.595 135.3 414.787 144.548 411.447 151.374 C 410.065 154.197 406.916 155.732 406.28 158.713 C 405.658 161.621 407.559 165.129 406.968 168.077 C 405.724 174.275 402.24 177.284 396.235 179.999 C 395.079 183.996 394.277 188.598 388.937 188.617 C 385.826 189.338 388.037 184.502 386.313 183.299 C 384.413 186.146 379.875 190.028 375.7 188.58 C 371.889 187.675 375.725 184.488 375.743 181.954 C 370.414 184.689 366.658 192.64 357.836 189.856 C 357.88 186.048 360.535 184.923 360.543 181.247 C 358.677 178.107 360.763 170.815 356.769 169.348 C 353.133 168.372 351.392 171.892 347.547 172.05 C 345.387 172.139 343.437 170.298 340.93 170.695 C 336.955 171.325 335.716 175.859 330.932 175.898 C 324.012 170.052 333.147 162.462 333.724 156.02 C 337.094 152.431 343.108 151.591 347.827 149.529 C 349.591 146.695 349.521 142.112 350.47 138.586 C 349.537 134.558 344.343 135.784 339.995 134.665 C 336.717 133.821 333.873 131.43 330.5 131.179 C 325.073 130.774 317.964 133.027 310.734 132.69 C 296.687 132.035 283.327 127.227 266.742 129.151 C 263.344 129.546 259.81 131.717 256.029 132.194 C 250.499 132.892 244.27 132.682 239.094 132.272 C 234.833 131.935 231.676 129.369 227.762 129.12 C 225.584 128.981 222.55 130.221 219.62 130.462 C 217.312 130.651 214.476 130.527 212.671 131.687 C 207.207 135.199 199.883 142.572 192.209 147.196 C 182.286 153.174 169.958 157.591 159.046 162.698 C 147.024 168.326 135.016 171.23 122.306 172.508 C 112.921 173.452 101.333 177.825 89.1974 180.248 C 84.6238 181.161 80.0625 180.97 75.8798 181.717 C 68.1787 183.091 55.5143 186.824 54.0002 178.141 C 53.5264 175.424 56.6562 172.084 58.222 169.09 C 59.8846 165.911 60.455 162.777 63.3303 161.166 C 67.6052 162.239 71.6541 166.03 75.6746 164.713 C 80.076 163.27 78.9416 158.113 82.4765 155.055 C 87.5568 154.966 93.389 160.041 98.2126 158.559 C 102.511 157.239 102.666 152.982 105.018 148.898 C 109.469 149.17 113.902 152.856 117.873 151.654 C 122.099 150.374 121.731 146.193 124.954 143.304 C 128.951 143.684 132.125 145.127 135.7 145.801 C 139.398 144.083 140.947 141.02 142.927 138.088 C 150.107 141.008 156.572 139.468 160.777 130.974 C 164.316 131.254 166.951 132.174 169.928 131.821 C 174.369 129.238 172.816 123.82 177.241 122.64 C 183.048 126.202 189.852 121.651 193.872 114.093 C 196.665 114.232 198.603 114.156 200.587 113.762 C 203.806 110.641 204.093 106.456 206.329 104.601 C 208.832 104.616 210.856 104.52 212.853 102.991 C 215.128 101.248 216.424 98.1066 218.396 96.9979 C 221.812 95.0775 224.702 98.9633 227.145 90.0193 C 223.828 80.8587 217.511 77.9972 214.145 80.3514 C 212.128 79.7624 210.041 78.1944 208.155 76.6651 C 205.289 75.7104 205.009 79.1525 201.588 79.0424 C 198.567 78.018 196.985 75.7328 195.132 73.1886 C 192.863 73.359 191.433 75.9795 188.265 76.3769 C 184.601 74.6118 182.468 71.4933 179.427 68.5503 C 175.989 68.0853 173.838 70.4363 170.459 71.3108 C 167.097 70.1023 166.225 66.9785 163.412 64.8175 C 159.72 65.0058 156.811 66.9447 154.029 69.2399 C 150.793 67.5942 148.309 65.2257 145.588 62.9028 C 141.325 62.5074 139.367 67.5137 135.468 67.2003 C 131.758 66.9019 130.36 62.6794 126.33 61.0147 C 122.444 61.3145 119.703 65.6432 115.515 65.3887 C 111.53 65.1466 109.315 61.8232 105.61 59.7587 C 101.34 60.7761 99.121 64.6946 94.5876 65.4344 C 90.4477 63.4722 88.4047 59.8786 84.3318 57.7419 C 79.0353 57.8892 77.2951 63.0121 73.103 64.7243 C 67.1242 62.843 67.0453 55.8785 61.7443 55.5202 C 57.8406 55.2564 53.3868 62.8471 48.4399 62.8436 C 44.0993 61.5865 46.5424 55.341 46.2498 51.0362 C 46.0833 48.5865 41.5065 46.2701 40.934 42.0893 C 40.6742 40.1918 42.1335 37.4131 42.0819 34.8489 C 41.9984 30.7 39.2769 27.7138 39.4869 25.6659 C 39.8783 21.8483 43.3604 17.3376 45.7604 15.8688 C 47.6747 14.6973 59.3783 12.3686 64.4685 12.7566 C 71.0662 13.2595 76.608 17.5531 84.6604 17.3038 C 87.0092 17.231 89.3101 15.9462 91.665 15.7187 C 93.8203 15.5105 95.7645 16.2981 97.6962 15.9934 C 104.167 14.9726 109.938 11.5202 114.539 11.9141 C 121.873 12.542 129.004 18.0026 136.492 18.0895 C 141.406 18.1465 145.917 14.9362 151.159 14.5821 C 159.544 14.0158 166.776 18.5464 174.048 18.7638 C 176.469 18.8361 178.333 17.3693 180.591 17.2972 C 192.762 16.9084 201.555 24.3918 209.05 21.3382 C 211.116 20.4966 212.224 17.6235 215.302 16.3524 C 220.953 14.0196 226.978 17.1765 231.41 17.8741 C 233.147 18.1475 234.276 17.2908 236.111 17.363 C 237.615 17.4221 239.403 18.7274 240.653 18.7428 C 247.064 18.8221 252.474 15.3056 259.547 16.8439 C 262.994 17.5934 266.763 19.775 269.989 21.5257 C 274.726 24.0963 276.717 28.1688 283.369 27.2784 C 285.236 27.0284 286.625 25.6906 288.451 25.2899 C 293.25 24.237 299.597 24.1687 305.341 23.092 C 310.844 22.0605 316.565 19.6243 320.811 19.3934 C 322.942 19.2776 324.167 20.1973 325.614 19.9233 C 331.819 18.7491 337.144 14.3856 342.526 20.0644 C 351.311 18.7963 365.88 13.7162 372.962 18.8976 C 383.158 19.503 392.156 13.9361 402.105 15.1388 C 406.352 15.6522 410.12 18.0111 414.047 18.0707 C 417.983 18.1305 421.754 16.5489 425.472 17.064 C 431.326 17.8749 436.137 22.9998 441.28 23.2026 C 444.098 23.3137 445.838 22.0047 448.268 21.6274 C 454.901 20.5976 463.244 19.7614 469.602 19.8314 C 478.301 19.9273 487.148 23.5535 496.338 24.0456 C 506.973 24.615 518.002 23.5986 527.948 24.3929 C 532.467 24.7538 536.108 26.6118 539.9 26.9993 C 547.791 27.8056 556.715 25.8381 564.531 26.9689 C 569.744 27.7232 574.232 30.8358 578.526 30.9779 C 580.954 31.0582 583.004 29.9465 585.195 29.67 C 590.182 29.0406 595.449 29.7894 599.194 29.0128 C 602.038 28.4231 604.218 26.6157 606.522 26.3383 C 609.984 25.9215 613.019 27.0822 615.854 26.9899 C 623.859 26.729 630.089 24.0538 635.845 20.9873 C 638.735 26.3191 643.713 26.9084 651.184 29.6185 C 657.85 32.0367 668.983 38.7848 675.167 31.6566 C 681.35 33.0579 686.956 32.3215 692.495 32.9693 C 698.489 33.6704 703.729 36.1021 709.16 36.9611 C 713.037 37.5745 716.946 37.1991 720.49 37.6319 C 724.312 38.0984 728.105 39.5137 731.155 39.6422 C 736.823 39.881 742.153 38.363 747.147 38.9624 C 752.819 39.6432 757.495 42.8498 762.485 43.6235 C 772.985 45.2512 785.216 44.4213 797.794 44.9719 C 807.06 45.3774 813.131 45.3927 820.456 46.9716 C 821.958 47.2956 822.754 48.2755 823.129 48.298 C 826.37 48.4935 829.365 47.4302 831.792 47.6303 C 834.9 47.8864 837.49 49.2933 839.797 49.6223 C 845.909 50.4936 852.061 49.5011 857.117 50.285 C 862.187 51.0712 866.287 54.0761 870.45 54.9453 C 872.698 55.4147 875.05 54.7855 876.451 54.9571 C 882.249 55.668 887.48 59.0135 892.443 59.6222 C 894.642 59.8918 896.636 59.4316 897.785 59.627 C 908.504 61.4486 917.494 66.0819 927.098 66.9624 C 935.854 67.7651 944.722 64.4577 951.757 69.6413 C 955.992 68.3725 960.819 68.0856 964.444 69.5714 C 966.745 70.515 967.433 72.1157 969.128 72.8897 C 971.455 73.953 974.393 74.1637 976.441 74.9035 C 978.946 75.8081 981.444 77.4412 982.415 77.6091 C 991.62 79.2001 997.453 76.7793 1002.48 81.5679 M 987.087 96.9843 C 993.616 96.9759 1003.76 100.785 1005.74 92.9641 C 1001.37 87.5542 993.343 87.9264 985.754 86.2732 C 978.103 84.6067 970.444 81.0415 961.765 78.9372 C 959.146 78.3022 955.559 78.3531 951.768 77.6042 C 948.978 77.053 945.951 75.4708 942.426 74.9542 C 932.431 73.4893 921.487 73.3715 909.774 72.3065 C 912.737 75.506 918.476 74.6697 922.436 75.6105 C 927.087 76.7153 932.211 77.4855 933.093 80.9767 C 930.303 82.8055 927.483 79.3217 923.1 78.278 C 917.449 76.9324 909.401 78.8171 903.776 75.6402 C 904.282 72.8412 909.411 75.0461 909.08 72.2938 C 886.22 69.1111 870.409 58.0462 843.146 58.3138 C 841.169 58.3332 840.598 60.3083 837.784 60.297 C 827.03 56.2431 814.929 58.7973 801.131 57.6338 C 787.322 56.4692 772.987 52.1155 759.151 52.3055 C 757.485 52.3284 755.486 53.1829 753.144 52.9687 C 750.987 52.7715 748.69 51.3121 745.805 50.9577 C 738.257 50.0307 731.886 50.8381 725.84 48.9377 C 723.942 48.3411 722.063 46.2577 719.15 45.6245 C 712.342 44.1441 703.307 45.1785 694.487 44.9745 C 682.293 44.6926 668.806 42.0968 655.841 40.9729 C 645.685 40.0923 634.468 41.175 623.857 40.3069 C 621.486 40.113 618.741 38.9949 615.848 38.9829 C 612.729 38.9701 609.44 40.398 605.851 40.3117 C 600.421 40.1813 595.276 37.0552 588.522 36.3039 C 582.745 35.6615 577.082 37.4854 573.195 37.6554 C 568.152 37.8759 561.664 36.234 555.867 36.3179 C 554.126 36.3432 551.91 37.1352 549.863 36.9766 C 543.843 36.5101 537.75 33.5198 531.252 33.0303 C 515.403 31.8366 501.494 34.946 490.428 30.114 C 486.33 31.7099 481.516 33.6698 476.701 32.9808 C 474.311 32.6387 471.734 30.2287 468.904 29.7947 C 463.339 28.9414 455.88 30.6135 448.881 29.5762 C 446.816 29.2702 444.884 27.8683 442.478 27.7739 C 433.92 27.4381 424.576 29.7057 415.178 28.6011 C 412.658 28.3048 409.91 26.9705 406.975 26.8766 C 403.24 26.7572 399.288 28.0802 395.019 27.9233 C 390.013 27.7394 384.711 25.94 378.868 25.8557 C 372.74 25.7673 366.203 27.6735 360.446 27.8986 C 357.945 27.9963 355.854 26.8724 353.123 26.8427 C 347.402 26.7807 341.899 28.8645 336.799 28.7872 C 329.3 28.6736 324.684 23.4576 318.872 23.3767 C 315.609 23.3312 311.89 25.6199 308.161 26.3144 C 298.255 28.1596 285.96 27.4245 280.81 33.8402 C 273.686 27.8475 265.866 19.0355 254.453 19.7866 C 252.611 19.9078 249.596 21.4428 246.677 22.3143 C 244.207 23.0512 240.771 23.6171 238.452 24.4852 C 236.054 25.3826 233.799 27.6852 231.104 28.6184 C 225.027 30.7229 216.337 31.1612 210.235 30.019 C 204.009 28.8532 197.895 25.212 191.063 23.5753 C 185.06 22.1371 179.17 23.2584 174.723 23.0329 C 167.886 22.6861 160.987 19.4542 153.77 19.1676 C 147.874 18.9334 142.148 21.6836 135.972 21.3746 C 129.034 21.0276 122.254 16.5322 115.228 16.0737 C 112.066 15.8674 106.777 17.4593 102.747 18.1456 C 93.1628 19.7779 78.8567 23.7481 68.3527 18.086 C 69.4201 21.5185 74.5511 24.7529 74.589 29.8714 C 74.6045 31.959 73.8809 37.5853 69.5832 35.8257 C 73.4005 28.9662 71.5055 21.9701 62.4559 21.2045 C 60.8249 18.0877 56.0522 16.0666 52.2328 17.5616 C 53.0509 21.5966 50.2589 31.3996 43.3243 26.9502 C 44.6735 31.81 45.7543 36.8825 44.7722 43.3671 C 47.514 45.506 48.7046 48.1727 51.9386 49.2392 C 55.9254 50.5539 60.0739 48.6722 64.7627 49.2476 C 70.0589 49.8975 74.9851 52.7659 81.0097 53.171 C 90.2659 53.7932 99.1645 53.1514 107.648 55.3596 C 110.229 56.0314 112.263 57.4288 114.689 57.8304 C 118.458 58.4547 122.249 57.4457 126.192 57.6292 C 128.362 57.7302 130.664 58.4946 132.774 58.6651 C 142.622 59.4611 153.023 57.422 162.302 59.0033 C 175.477 61.2487 187.315 67.9062 198.052 70.4727 C 199.879 70.9092 201.538 70.4289 203.137 70.6963 C 207.374 71.4045 212.326 73.3917 216.4 75.2764 C 221.529 77.6486 228.592 82.4303 230.428 87.3615 C 227.7 103.431 215.998 102.298 206.804 110.143 C 204.301 112.279 202.27 116.131 199.833 118.006 C 197.675 119.665 195.205 119.782 192.867 121.205 C 187.772 124.307 182.939 128.781 177.518 131.593 C 172.721 134.083 167.214 134.886 162.018 136.976 C 153.101 140.563 144.869 146.89 134.953 148.752 C 118.993 151.749 103.996 159.333 88.9786 163.192 C 82.5888 171.109 57.1025 166.582 58.3417 179.263 C 81.808 180.982 106.615 171.539 127.736 169.317 C 134.044 168.653 140.296 166.332 146.525 164.653 C 149.921 163.738 153.837 163.397 156.893 162.067 C 159.906 160.755 162.279 158.374 165.37 157.062 C 169.635 155.253 174.085 154.503 177.954 152.368 C 181.087 150.639 183.782 147.636 186.782 145.957 C 188.438 145.031 190.595 144.576 192.332 143.728 C 200.81 139.592 209.259 129.644 216.558 126.636 C 218.774 125.722 220.266 126.199 222.492 125.15 C 228.793 122.181 234.846 112.934 240.72 110.728 C 249.554 107.41 256.951 109.085 262.509 110.145 C 271.006 111.766 278.481 112.513 287.065 113.941 C 297.071 115.606 307.148 120.558 317.635 117.915 C 317.078 115.17 312.733 113.135 313.529 110.832 C 318.384 111.696 320.461 116.713 324.258 118.971 C 326.555 120.336 329.268 120.794 331.406 121.961 C 338.378 125.765 344.36 130.975 350.963 134.205 C 353.603 134.639 353.817 130.508 356.021 132.773 C 353.48 140.921 354.043 152.431 346.404 155.45 C 338.387 154.433 334.256 160.248 340.308 164.667 C 345.478 168.442 351.698 166.247 358.136 166.056 C 362.653 167.932 363.715 172.935 363.893 178.606 C 365.894 180.492 371.335 180.407 373.777 179.298 C 375.735 175.434 377.58 171.448 376.57 168.008 C 375.463 164.24 370.939 164.542 370.042 160.102 C 377.879 158.71 380.982 167.303 379.09 177.308 C 382.42 177.889 385.015 180.603 388.323 178.654 C 388.606 177.926 388.73 177.179 389.653 177.321 C 391.126 169.251 385.807 164.316 385.789 159.399 C 392.219 161.538 392.403 169.799 393.627 176.666 C 402.043 176.514 404.41 167.138 402.199 158.678 C 408.116 147.088 417.626 135.777 414.697 119.589 C 414.257 117.807 410.682 118.801 410.286 116.394 C 413.765 112.055 408.302 108.967 407.073 105.135 C 398.443 103.145 392.793 97.7411 386.907 92.4389 C 384.239 90.9838 378.918 92.0111 378.848 87.423 C 391.262 90.5855 397.83 100.129 409.632 103.747 C 411.889 107.367 413.772 111.135 416.009 114.229 C 421.8 114.317 426.791 115.273 431.948 115.151 C 445.238 114.837 460.976 109.462 473.316 108.95 C 478.969 108.716 484.494 110.772 489.665 110.715 C 492.672 110.682 495.181 109.867 497.552 109.941 C 504.428 110.155 511.469 112.414 517.991 113.081 C 522.166 113.508 525.738 113.129 529.249 113.682 C 532.72 114.228 536.076 115.847 539.223 116.308 C 550.398 117.945 561.508 117.77 571.856 118.945 C 568.528 115.118 557.899 118.122 557.204 110.954 C 562.268 111.448 574.18 113.472 576.536 117.617 C 589.999 119.229 599.103 125.062 611.843 119.608 C 613.873 117.996 609.974 111.387 613.833 111.005 C 617.501 110.641 615.503 114.645 615.93 116.265 C 617.597 122.596 619.336 130.748 618.493 138.951 C 615.257 142.944 612.132 147.473 609.188 152.269 C 604.588 151.671 602.689 153.996 600.52 156.272 C 601.35 162.89 607.673 162.642 613.847 161.604 C 618 163.445 619.599 169.351 617.852 174.266 C 621.52 175 623.742 176.785 627.848 176.269 C 630.075 174.494 632.445 173.086 633.848 170.935 C 636.063 168.267 632.754 160.256 636.515 159.609 C 640.28 162.144 637.757 173.231 635.85 176.933 C 638.633 178.215 641.872 180.325 644.505 178.936 C 646.368 176.656 646.036 174.987 645.172 171.601 C 648.475 169.667 644.554 162.345 647.847 162.275 C 652.819 164.897 648.574 172.712 650.455 176.929 C 664.301 180.242 657.215 161.641 657.98 154.942 C 658.605 149.469 662.703 146.377 664.614 142.361 C 667.978 135.288 671.172 121.414 671.979 113.639 C 672.518 108.453 673.092 100.858 671.29 95.5682 C 670.263 92.5506 663.555 84.1818 660.5 82.9103 C 656.161 81.1044 647.293 82.6962 640.513 80.9434 C 637.26 80.1023 633.863 76.0087 629.867 74.2662 C 627.567 73.2633 623.77 73.0977 620.518 72.2746 C 618.583 71.7845 613.88 71.7948 612.518 68.3115 C 620.495 69.0623 627.601 68.7669 633.861 71.5928 C 636.521 72.7939 638.247 76.1177 640.518 76.9348 C 646.679 79.1517 653.513 77.4436 660.503 78.9708 C 669.323 84.7024 675.942 92.4001 675.834 106.272 C 681.339 105.059 686.693 106.638 692.495 105.674 C 694.886 105.276 696.721 103.471 698.513 102.992 C 705.104 101.23 712.721 101.118 719.158 100.329 C 726.603 99.4159 733.613 97.7634 739.828 97.0003 C 748.69 95.9122 756.321 95.7183 763.815 94.3529 C 771.043 93.0357 776.927 89.2819 783.837 87.0108 C 796.732 82.7727 815.604 85.6245 831.115 86.3076 C 842.642 86.8152 852.113 86.1849 860.448 86.309 C 869.928 86.45 878.33 89.3016 887.117 90.2933 C 903.407 92.1317 917.562 89.755 931.762 91.6207 C 940.246 92.7354 947.693 95.2699 955.089 95.6287 C 965.29 96.1236 972.881 97.8327 980.414 97.6371 C 983.267 97.563 985.344 96.9865 987.087 96.9843 M 988.42 82.9647 C 992.414 82.195 995.2 85.5947 997.082 83.6326 C 995.633 81.9597 989.112 80.992 988.42 82.9647 M 959.767 75.6114 C 966.836 77.1375 973.211 81.3375 980.411 80.9695 C 978.018 78.1434 973.306 77.0537 967.753 76.2995 C 965.379 70.7853 956.581 71.3754 949.099 72.9665 C 948.791 70.6723 944.643 71.7186 943.097 69.6349 C 940.488 71.6679 934.952 68.3109 933.101 70.9678 C 937.659 72.8841 941.174 72.5334 945.764 72.9618 C 949.172 73.2798 952.092 75.2735 954.423 75.6148 C 956.596 75.9327 958.511 75.3403 959.767 75.6114 M 911.77 70.3038 C 918.147 70.6393 922.081 70.481 925.752 70.2975 C 912.798 65.9501 892.678 63.7668 877.127 58.9717 C 877.538 59.0055 876.239 58.9756 875.776 58.9867 C 878.359 63.8216 885.444 62.7794 889.791 64.2581 C 892.46 65.1663 893.972 67.1156 895.787 67.5916 C 898.17 68.2166 900.06 67.3435 901.778 67.6169 C 905.735 68.2464 909.121 70.1644 911.77 70.3038 M 847.786 53.636 C 849.219 57.0689 856.54 56.6916 858.447 54.9696 C 856.559 53.3446 852.241 53.6369 847.786 53.636 M 821.797 53.6359 C 828.144 54.1306 835.053 58.6511 840.452 54.3068 C 832.913 52.0758 825.382 52.2169 815.797 50.9628 C 805.458 49.6102 795.285 48.6653 785.14 48.3097 C 777.795 48.0523 769.139 49.6938 761.815 48.2902 C 758.504 47.6558 755.252 44.508 751.146 43.6107 C 743.141 41.8614 732.029 44.4129 723.826 42.3134 C 724.131 43.4834 724.336 44.3986 724.493 44.9761 C 731.464 47.2928 739.004 46.6049 745.807 47.6251 C 749.21 48.1354 751.864 49.5048 754.477 49.6381 C 759.965 49.9179 764.999 48.6242 769.814 48.9725 C 782.719 49.9059 795.073 53.848 807.123 54.3054 C 812.385 54.5051 817.524 53.3028 821.797 53.6359 M 669.847 39.6443 C 682.091 40.6691 695.359 41.916 705.147 40.9763 C 699.143 34.5619 685.142 36.3129 673.844 36.3129 C 673.516 38.1086 670.11 37.1577 669.847 39.6443 M 655.828 37.6401 C 660.106 38.1782 663.462 41.6569 666.495 38.3252 C 659.718 37.757 655.31 34.663 650.518 32.9441 C 648.123 32.085 643.816 32.1527 641.194 30.9375 C 638.823 29.8384 637.724 26.5292 634.507 25.6548 C 628.543 27.0028 622.122 30.5987 615.188 30.9907 C 613.737 31.0727 612.151 29.6799 609.851 29.6537 C 607.753 29.6297 604.755 30.973 601.858 31.6723 C 599.684 32.1973 596.634 32.408 594.516 34.3085 C 596.734 36.3243 599.998 35.6143 602.524 36.2838 C 603.905 36.6499 603.356 37.4903 604.535 37.6448 C 620.591 39.7487 641.177 35.7977 655.828 37.6401 M 651.837 184.269 C 652.923 183.563 654.079 183.153 653.17 180.938 C 653.505 181.029 651.502 181.029 651.171 180.938 C 651.157 182.729 650.626 183.368 651.837 184.269 M 638.505 181.601 C 637.442 181.313 636.932 180.042 634.516 180.273 C 635.318 182.399 633.684 182.327 633.849 184.269 C 636.866 184.629 638.818 184.115 638.505 181.601 M 618.518 179.609 C 617.676 182.885 623.083 182.117 621.848 179.608 C 622.168 179.7 618.83 179.7 618.518 179.609 M 595.854 166.938 C 598.76 167.068 601.244 164.587 599.85 162.942 C 597.721 161.067 595.679 163.982 595.854 166.938 M 590.514 124.934 C 588.879 121.581 583.683 122.99 579.856 122.971 C 575.656 122.951 570.151 123.486 565.865 122.966 C 563.899 122.727 561.658 121.427 559.195 120.957 C 552.103 119.604 544.34 120.947 537.221 119.642 C 535.018 119.239 532.385 117.549 529.911 116.999 C 528.414 116.666 526.224 116.831 523.941 116.364 C 517.079 114.96 508 113.584 500.161 113.235 C 484.347 112.53 467.931 111.379 453.821 114.631 C 451.354 115.2 448.645 117.023 445.392 117.491 C 435.22 118.952 425.738 117.132 417.273 118.186 C 418.176 121.577 418.3 125.477 419.904 127.498 C 439.045 127.343 458.271 128.932 477.199 128.225 C 487.01 127.859 495.587 125.472 504.122 125.871 C 515.461 126.401 526.731 128.408 537.214 128.334 C 544.591 128.282 551.373 126.203 558.541 125.654 C 569.025 124.85 580.034 126.193 590.514 124.934 M 523.332 30.4195 C 538.233 29.7193 555.824 35.1973 571.853 32.9794 C 563.344 29.222 550.551 30.3299 539.23 30.3349 C 534.354 28.3567 527.066 27.5012 520.67 28.4307 C 515.927 25.7701 505.755 26.1146 500.257 28.6412 C 507.989 31.8225 516.1 27.7634 523.332 30.4195 M 477.377 30.336 C 482.415 29.8528 487.083 29.1667 489.12 26.1464 C 477.223 25.0519 465.169 21.0575 452.752 25.4952 C 459.567 28.7483 472.947 25.0027 477.377 30.336 M 405.166 23.653 C 414.189 23.5092 423.484 27.5782 431.756 24.8394 C 429.73 18.112 420 21.8266 412.715 21.3964 C 408.913 21.1719 404.886 18.643 400.763 18.4607 C 394.926 18.2026 388.235 20.6396 383.856 23.0109 C 391.607 24.4608 397.709 23.7718 405.166 23.653 M 390.289 183.308 C 392.234 183.613 392.669 182.484 392.284 180.66 C 390.743 180.54 390.305 181.665 390.289 183.308 M 382.353 183.954 C 382.747 182.313 382.321 181.19 380.379 181.296 C 380.288 182.648 379.139 183.054 379.039 184.611 C 381.102 185.26 380.959 183.776 382.353 183.954 M 363.163 186.562 C 365.352 186.246 367.189 185.636 367.162 183.262 C 365.185 181.494 363.05 183.969 363.163 186.562 M 369.759 22.9438 C 368.174 17.7646 352.597 21.1926 350.159 22.9831 C 356.272 24.735 363.207 24.0375 369.759 22.9438 M 332.291 170.602 C 335.268 170.644 336.449 168.921 336.966 166.649 C 335.873 166.447 335.943 164.826 333.654 165.304 C 333.776 167.559 331.917 167.917 332.291 170.602 M 330.281 21.7114 C 331.694 25.4367 337.036 24.5979 341.144 24.6923 C 340.466 20.6335 334.937 21.7067 330.281 21.7114 M 332.989 127.095 C 330.562 126.809 328.222 123.662 325.312 122.857 C 320.326 121.479 312.614 123.389 305.455 122.332 C 303.746 122.08 301.725 121.041 299.469 120.589 C 288.373 118.369 278.125 116.028 267.869 114.398 C 263.276 113.668 258.57 112.277 254.597 112.172 C 242.851 111.86 234.886 118.432 226.607 125.903 C 234.096 128.693 241.829 129.962 251.816 129.376 C 262.09 128.772 272.757 125.058 283.319 125.352 C 287.323 125.464 291.718 125.524 295.234 126.076 C 299.509 126.748 303.794 129.188 308.425 129.503 C 317.11 130.095 325.662 128.318 332.989 127.095 M 232.731 22.837 C 223.787 16.6146 213.054 21.2831 209.379 26.4427 C 218.641 27.8313 226.709 26.2872 232.731 22.837 M 199.583 73.7788 C 200.607 75.8531 204.183 76.6038 204.647 74.4997 C 203.88 73.5789 199.926 71.9172 199.583 73.7788 M 193.619 117.176 C 192.989 119.824 196.72 117.867 196.278 116.991 C 195.435 116.584 195.006 116.341 193.619 117.176 M 184.134 67.7818 C 183.806 70.6925 189.614 75.6121 190.841 71.5899 C 189.968 69.6399 186.28 69.3413 184.134 67.7818 M 179.322 126.584 C 179.312 125.215 178.514 124.746 177.062 125.337 C 177.109 125.574 177.548 127.296 177.415 127.429 C 177.461 127.475 179.461 126.619 179.322 126.584 M 167.022 62.9739 C 166.515 67.356 173.528 70.0181 175.16 66.3646 C 174.242 64.394 169.064 62.6431 167.022 62.9739 M 161.578 134.99 C 162.127 135.4 165.032 135.626 164.797 133.884 C 163.763 133.53 161.695 132.48 161.578 134.99 M 159.862 61.8129 C 157.018 59.9525 153.047 61.3591 149.819 61.6933 C 150.64 66.8347 159.179 65.6683 159.862 61.8129 M 142.732 143.605 C 144.488 142.915 148.151 143.273 148.439 141.508 C 146.774 141.71 146.148 140.182 144.13 140.547 C 144.297 141.998 142.715 142.304 142.732 143.605 M 139.591 62.4476 C 138.286 60.9596 134.433 61.2215 131.8 60.5338 C 131.666 64.666 137.999 65.4937 139.591 62.4476 M 129.689 146.394 C 127.893 147.044 127.437 145.419 125.51 145.921 C 125.789 146.88 125.562 147.491 125.275 148.013 C 126.598 147.414 129.79 147.982 129.689 146.394 M 118.875 61.1888 C 115.415 61.6178 112.723 58.37 110.322 59.8335 C 113.046 62.804 116.03 65.2265 118.875 61.1888 M 105.614 154.91 C 107.138 154.27 110.575 154.805 110.688 153.15 C 108.915 152.89 107.814 151.39 105.574 151.52 C 106.56 153.319 105.068 153.484 105.614 154.91 M 96.9724 63.1172 C 96.6945 59.8136 101.349 60.6716 99.782 58.165 C 96.9877 57.8491 90.7453 54.8231 89.0444 57.811 C 90.6019 60.421 92.3672 62.847 96.9724 63.1172 M 89.5887 159.681 C 88.5624 156.921 81.4723 158.521 83.3499 162.37 C 84.233 162.608 85.0204 162.837 85.5807 163.259 C 88.1861 162.948 89.578 161.776 89.5887 159.681 M 66.8757 52.9533 C 65.6253 59.4224 75.797 64.0751 77.1894 55.9337 C 73.3664 55.2836 71.5439 53.0893 66.8757 52.9533 M 68.1196 167.652 C 67.3173 163.472 60.7484 163.642 62.2561 168.898 C 62.2812 168.987 68.1614 167.736 68.1196 167.652 M 58.7614 53.0159 C 56.4888 51.7556 50.2575 51.2481 48.5776 53.4276 C 49.6111 54.6521 48.4101 57.4798 49.8228 58.3445 C 53.3813 57.3701 57.2945 56.8444 58.7614 53.0159 M 47.8967 23.623 C 49.1237 22.8246 49.4756 20.0306 47.1024 20.1255 C 46.7664 21.7489 46.495 23.3123 47.8967 23.623"></path>
<path fill="#1F9B31" d="M 1005.74 92.965 C 1003.76 100.786 993.616 96.9759 987.09 96.9838 C 985.346 96.9859 983.269 97.5651 980.414 97.6401 C 972.881 97.8381 965.29 96.1281 955.089 95.6326 C 947.695 95.2736 940.249 92.7402 931.76 91.6242 C 917.564 89.758 903.41 92.1329 887.117 90.2955 C 878.328 89.3043 869.928 86.4534 860.448 86.3118 C 852.114 86.1872 842.642 86.8164 831.118 86.3102 C 815.603 85.6286 796.732 82.7766 783.839 87.0133 C 776.929 89.284 771.043 93.0395 763.812 94.3565 C 756.325 95.7203 748.69 95.9142 739.826 97.0037 C 733.615 97.7671 726.603 99.4195 719.16 100.331 C 712.722 101.12 705.106 101.234 698.513 102.995 C 696.72 103.473 694.887 105.284 692.497 105.68 C 686.693 106.641 681.337 105.06 675.834 106.275 C 675.942 92.405 669.321 84.7046 660.503 78.9747 C 653.513 77.4466 646.68 79.1541 640.521 76.9377 C 638.246 76.1192 636.519 72.7973 633.861 71.5969 C 627.603 68.7707 620.495 69.0635 612.518 68.3154 C 613.882 71.7995 618.583 71.7875 620.518 72.2769 C 623.772 73.0996 627.569 73.2648 629.867 74.2676 C 633.864 76.0118 637.263 80.1067 640.516 80.9475 C 647.294 82.6989 656.163 81.1066 660.5 82.9132 C 663.555 84.1859 670.259 92.5548 671.288 95.572 C 673.093 100.864 672.516 108.455 671.978 113.639 C 671.17 121.419 667.977 135.291 664.614 142.364 C 662.706 146.377 658.603 149.471 657.979 154.943 C 657.214 161.647 664.301 180.247 650.455 176.93 C 648.575 172.713 652.82 164.898 647.847 162.278 C 644.552 162.348 648.473 169.668 645.17 171.607 C 646.036 174.993 646.368 176.659 644.505 178.939 C 641.874 180.328 638.633 178.22 635.847 176.934 C 637.757 173.237 640.282 162.15 636.512 159.612 C 632.754 160.259 636.063 168.268 633.848 170.938 C 632.445 173.086 630.075 174.495 627.85 176.272 C 623.745 176.79 621.52 175.003 617.852 174.271 C 619.597 169.356 617.998 163.448 613.849 161.609 C 607.673 162.642 601.347 162.893 600.522 156.278 C 602.687 154.001 604.588 151.674 609.188 152.27 C 612.13 147.478 615.259 142.95 618.493 138.951 C 619.335 130.751 617.598 122.597 615.931 116.268 C 615.505 114.649 617.502 110.641 613.835 111.006 C 609.973 111.391 613.873 118.002 611.843 119.613 C 599.103 125.067 589.999 119.232 576.536 117.62 C 574.182 113.473 562.268 111.453 557.202 110.955 C 557.902 118.122 568.527 115.118 571.854 118.948 C 561.506 117.771 550.401 117.951 539.223 116.312 C 536.076 115.85 532.721 114.231 529.247 113.683 C 525.74 113.13 522.165 113.513 517.991 113.084 C 511.467 112.415 504.429 110.162 497.551 109.946 C 495.182 109.872 492.67 110.684 489.666 110.718 C 484.494 110.776 478.969 108.72 473.316 108.956 C 460.979 109.469 445.237 114.836 431.949 115.152 C 426.791 115.275 421.8 114.319 416.008 114.23 C 413.771 111.14 411.89 107.374 409.632 103.748 C 397.835 100.134 391.257 90.5848 378.85 87.4277 C 378.917 92.0116 384.239 90.9866 386.906 92.4399 C 392.794 97.7432 398.442 103.147 407.074 105.137 C 408.304 108.97 413.766 112.06 410.288 116.397 C 410.682 118.804 414.255 117.811 414.699 119.593 C 417.623 135.779 408.115 147.094 402.2 158.684 C 404.409 167.139 402.043 176.517 393.628 176.671 C 392.402 169.799 392.22 161.541 385.788 159.402 C 385.808 164.319 391.127 169.251 389.654 177.324 C 388.732 177.18 388.607 177.932 388.324 178.657 C 385.015 180.606 382.419 177.891 379.091 177.311 C 380.98 167.306 377.877 158.711 370.044 160.106 C 370.939 164.545 375.464 164.245 376.571 168.012 C 377.582 171.451 375.736 175.437 373.778 179.299 C 371.336 180.408 365.895 180.492 363.893 178.609 C 363.715 172.938 362.655 167.933 358.136 166.059 C 351.697 166.248 345.477 168.445 340.307 164.67 C 334.255 160.25 338.387 154.436 346.405 155.453 C 354.044 152.436 353.48 140.921 356.019 132.776 C 353.817 130.513 353.602 134.644 350.961 134.21 C 344.361 130.979 338.379 125.769 331.407 121.964 C 329.27 120.798 326.552 120.338 324.259 118.974 C 320.462 116.716 318.385 111.699 313.527 110.838 C 312.735 113.142 317.077 115.17 317.634 117.918 C 307.142 120.561 297.073 115.609 287.066 113.945 C 278.479 112.516 271.006 111.768 262.508 110.147 C 256.951 109.088 249.554 107.414 240.722 110.73 C 234.844 112.937 228.793 122.183 222.491 125.153 C 220.267 126.202 218.774 125.725 216.557 126.639 C 209.258 129.649 200.811 139.592 192.334 143.731 C 190.595 144.58 188.44 145.036 186.784 145.962 C 183.786 147.639 181.09 150.64 177.954 152.371 C 174.088 154.504 169.638 155.254 165.373 157.064 C 162.282 158.375 159.91 160.758 156.896 162.069 C 153.837 163.399 149.923 163.742 146.527 164.656 C 140.299 166.331 134.047 168.652 127.737 169.317 C 106.616 171.54 81.8086 180.985 58.3423 179.266 C 57.1053 166.586 82.5919 171.114 88.9791 163.195 C 103.997 159.335 118.996 151.755 134.956 148.755 C 144.872 146.891 153.102 140.569 162.02 136.976 C 167.213 134.884 172.721 134.088 177.52 131.597 C 182.941 128.783 187.775 124.307 192.869 121.208 C 195.209 119.784 197.672 119.662 199.836 118.013 C 202.266 116.161 204.308 112.269 206.802 110.144 C 215.999 102.307 227.7 103.426 230.427 87.3699 C 228.578 82.4853 221.535 77.6301 216.404 75.2767 C 212.319 73.4032 207.379 71.3991 203.138 70.6993 C 201.541 70.4357 199.878 70.9106 198.055 70.4749 C 187.315 67.9082 175.48 61.2524 162.302 59.0049 C 153.024 57.4226 142.623 59.4667 132.775 58.6684 C 130.663 58.4972 128.361 57.733 126.191 57.6319 C 122.251 57.4484 118.459 58.4571 114.689 57.834 C 112.264 57.4332 110.228 56.0349 107.647 55.363 C 99.1629 53.1539 90.2667 53.7952 81.011 53.1751 C 74.9864 52.7714 70.0571 49.9017 64.762 49.2522 C 60.0711 48.6768 55.9258 50.5574 51.9401 49.2425 C 48.7023 48.1744 47.5134 45.51 44.7735 43.3714 C 45.7537 36.8864 44.6718 31.8138 43.3242 26.9512 C 50.2586 31.4015 53.0526 21.5989 52.2345 17.5639 C 56.0534 16.0719 60.8252 18.0919 62.4573 21.2087 C 71.5036 21.9759 73.4001 28.9682 69.5844 35.8309 C 73.883 37.5897 74.6061 31.9633 74.5906 29.8737 C 74.5524 24.7582 69.4217 21.5207 68.3534 18.0882 C 78.8581 23.751 93.1634 19.7816 102.747 18.1483 C 106.779 17.4611 112.066 15.8705 115.231 16.077 C 122.253 16.5352 129.034 21.0311 135.975 21.3778 C 142.148 21.6862 147.875 18.9373 153.77 19.1697 C 160.989 19.4543 167.888 22.6884 174.725 23.0346 C 179.17 23.2596 185.062 22.1372 191.064 23.5777 C 197.897 25.2176 204.01 28.8551 210.235 30.0205 C 216.34 31.1632 225.028 30.7244 231.106 28.6206 C 233.806 27.6861 236.048 25.3862 238.453 24.4859 C 240.771 23.6184 244.21 23.0541 246.679 22.3155 C 249.597 21.4428 252.612 19.9096 254.453 19.7886 C 265.868 19.0386 273.687 27.8503 280.812 33.8436 C 285.961 27.4254 298.261 28.1662 308.169 26.3175 C 311.885 25.6242 315.613 23.3324 318.875 23.3779 C 324.688 23.459 329.299 28.6729 336.8 28.7883 C 341.898 28.8668 347.403 26.7807 353.123 26.8434 C 355.857 26.8734 357.945 27.9978 360.449 27.8998 C 366.199 27.6747 372.744 25.7669 378.87 25.8563 C 384.715 25.9416 390.011 27.7392 395.022 27.9233 C 399.289 28.08 403.241 26.7593 406.979 26.8767 C 409.911 26.9688 412.658 28.3075 415.181 28.6035 C 424.579 29.7059 433.923 27.4429 442.48 27.7758 C 444.888 27.8695 446.816 29.2716 448.882 29.5779 C 455.88 30.615 463.342 28.9404 468.907 29.796 C 471.737 30.2311 474.311 32.6398 476.702 32.9826 C 481.515 33.6724 486.333 31.7086 490.431 30.1159 C 501.498 34.9484 515.403 31.836 531.254 33.0307 C 537.75 33.5203 543.847 36.5096 549.867 36.9773 C 551.912 37.1362 554.128 36.3444 555.869 36.3188 C 561.668 36.2337 568.154 37.8765 573.197 37.6555 C 577.087 37.4851 582.748 35.6614 588.526 36.3042 C 595.279 37.0555 600.421 40.1833 605.853 40.3129 C 609.442 40.3985 612.731 38.9699 615.852 38.9845 C 618.742 38.9979 621.488 40.1145 623.857 40.3086 C 634.47 41.1781 645.687 40.0948 655.843 40.9745 C 668.81 42.0976 682.295 44.6941 694.492 44.9766 C 703.309 45.1807 712.344 44.1458 719.154 45.6266 C 722.067 46.2599 723.944 48.3421 725.842 48.9381 C 731.89 50.8378 738.261 50.0303 745.81 50.9581 C 748.69 51.3122 750.992 52.7723 753.144 52.9692 C 755.49 53.1839 757.485 52.328 759.155 52.3049 C 772.991 52.1137 787.326 56.4689 801.13 57.6335 C 814.931 58.7978 827.031 56.2437 837.788 60.2961 C 840.6 60.3072 841.172 58.3343 843.148 58.3148 C 870.411 58.0452 886.221 69.1121 909.085 72.2928 C 909.414 75.0472 904.286 72.84 903.776 75.6394 C 909.403 78.8175 917.453 76.9323 923.104 78.2786 C 927.484 79.322 930.305 82.8037 933.093 80.9777 C 932.215 77.4871 927.092 76.7163 922.44 75.61 C 918.481 74.6685 912.739 75.5079 909.778 72.3053 C 921.489 73.3714 932.433 73.489 942.426 74.9539 C 945.95 75.4706 948.98 77.0539 951.77 77.6035 C 955.563 78.3507 959.148 78.3029 961.769 78.9383 C 970.446 81.0419 978.105 84.6068 985.758 86.2727 C 993.343 87.9242 1001.37 87.553 1005.74 92.965 M 867.117 70.9696 C 871.69 73.3644 876.536 78.4 881.11 77.6317 C 878.709 72.9947 873.283 70.8115 867.782 68.304 C 867.847 69.6922 866.214 69.6446 867.117 70.9696 M 781.793 69.6425 C 782.844 66.2859 778.742 66.453 776.499 64.9224 C 772.22 62.0018 768.051 58.5152 761.135 57.6513 C 760.618 57.6159 760.067 57.9913 759.143 58.3013 C 759.51 59.2546 759.832 59.7977 759.818 60.3008 C 768.83 61.708 774.727 69.3431 781.793 69.6425 M 723.886 60.2497 C 726.868 64.1368 729.465 70.7282 733.804 64.974 C 726.453 60.9974 724.561 51.0261 713.167 50.3028 C 713.489 50.3416 713.564 52.9666 713.13 52.9931 C 718.754 54.4646 721.299 56.8759 723.886 60.2497 M 666.499 61.6326 C 667.439 57.9771 663.237 59.0362 661.835 56.9667 C 657.976 52.9919 653.084 49.6253 648.506 45.6401 C 643.673 45.8316 638.179 43.1283 633.851 44.3034 C 634.169 44.3259 634.171 46.3295 633.85 46.3052 C 638.427 47.7816 641.905 48.2459 645.841 48.3072 C 653.651 51.7355 658.06 61.7707 666.499 61.6326 M 573.194 60.9639 C 574.916 55.4842 568.582 52.1837 566.53 47.6387 C 562.589 46.34 560.978 42.386 556.531 40.9777 C 556.875 41.0388 555.369 40.9455 555.279 40.984 C 555.289 41.0091 555.611 43.6498 555.191 43.6397 C 558.307 45.5102 560.971 47.5114 563.199 49.6369 C 566.504 53.7395 568.791 58.6041 573.194 60.9639 M 521.32 59.0721 C 523.567 59.7482 524.557 61.4555 527.269 61.0246 C 521.33 48.9648 512.099 39.758 498.279 35.3285 C 498.509 35.342 498.542 37.9943 498.265 38.0072 C 503.218 40.2419 507.936 42.0215 511.454 45.1207 C 513.063 46.5378 512.948 48.4774 514.111 49.7564 C 515.981 51.8138 519.82 51.4348 519.976 54.4334 C 521.017 55.6801 521.082 57.6042 521.32 59.0721 M 467.541 61.7728 C 468.859 59.0414 466.086 55.1085 467.552 51.1171 C 461.297 44.2249 453.53 38.5595 445.031 33.694 C 444.355 33.6848 443.848 34.0553 443.106 34.4083 C 442.794 34.5567 442.603 35.0122 442.466 35.7591 C 442.781 37.4937 444.843 37.0401 446.323 36.9999 C 451.377 43.5248 460.624 45.6372 464.313 53.1861 C 464.275 55.9462 463.251 62.2101 467.541 61.7728 M 426.997 59.4274 C 427.887 53.8006 420.88 50.8197 418.822 45.7213 C 412.328 44.577 409.454 39.3006 401.199 39.655 C 398.423 36.542 394.843 34.0247 388.725 34.109 C 388.949 34.1499 388.913 36.7821 388.742 36.7976 C 393.325 37.4962 396.498 40.7113 400.585 42.332 C 401.68 42.7662 403.001 42.0351 403.728 42.2364 C 406.712 43.0627 414.672 47.1781 416.326 48.4503 C 420.798 51.8888 421.143 58.5709 426.997 59.4274 M 371.074 61.2599 C 371.574 57.4457 367.581 57.6304 365.616 55.4641 C 362.351 51.8658 360.154 46.8624 355.957 43.9191 C 350.941 40.4019 338.048 35.8069 331.873 35.583 C 332.081 35.6035 332.016 37.5765 331.885 37.5961 C 340.744 41.2673 350.1 43.1565 356.561 48.5606 C 361.666 52.831 363.912 61.9009 371.074 61.2599 M 315.426 52.0029 C 317.283 53.9955 317.587 57.6239 321.907 56.4421 C 320.754 53.4706 317.944 49.9095 314.905 47.3478 C 310.659 43.7686 299.587 37.549 293.916 37.1764 C 293.161 37.1268 290.503 36.1221 289.836 38.5393 C 290.008 38.588 289.934 39.877 289.853 39.9011 C 301.088 41.0486 307.674 47.3145 315.426 52.0029 M 274.667 63.3023 C 275.701 60.1026 272.137 59.214 270.848 57.1889 C 269.532 55.1227 269.434 52.6882 267.627 50.9356 C 265.559 48.9302 262.091 48.1152 259.092 46.4675 C 259.215 46.4876 258.022 46.3861 257.928 46.3868 C 257.928 46.3892 258.02 49.0638 257.811 49.1025 C 266.739 50.6324 267.199 60.7833 274.667 63.3023 M 265.394 33.2849 C 267.537 33.4528 267.664 35.3481 269.969 34.8628 C 269.745 30.2685 258.987 26.5514 254.698 25.7882 C 248.306 24.6506 243.17 26.7175 242.039 31.6981 C 245.329 34.2681 246.89 29.2315 250.398 30.0154 C 252.341 35.9125 261.773 38.1293 265.394 33.2849 M 236.824 58.9369 C 237.484 54.0617 232.35 51.5952 230.037 48.3976 C 228.832 46.732 228.43 44.3028 226.975 42.8482 C 224.467 40.3411 220.933 39.2004 217.979 36.7185 C 218.154 36.6634 216.862 36.513 216.871 36.3646 C 216.826 37.5143 216.958 38.4493 217.259 39.1093 C 219.264 41.4254 221.699 41.7678 223.444 43.3604 C 228.503 47.9788 230.659 55.8955 236.824 58.9369 M 54.0983 31.3553 C 54.4217 34.5109 61.4682 36.5519 62.6518 32.7103 C 62.7816 28.1316 55.2602 26.0974 54.0983 31.3553"></path>
<path fill="#166D20" d="M 997.082 83.6326 C 995.2 85.5947 992.414 82.196 988.42 82.9647 C 989.112 80.993 995.636 81.9597 997.082 83.6326"></path>
<path fill="#166D20" d="M 980.411 80.9695 C 973.211 81.3367 966.838 77.1362 959.767 75.6106 C 958.511 75.3396 956.596 75.9323 954.423 75.6145 C 952.092 75.2735 949.172 73.2812 945.764 72.9629 C 941.174 72.5342 937.659 72.8843 933.101 70.9687 C 934.952 68.31 940.488 71.6679 943.097 69.6359 C 944.643 71.7185 948.791 70.6713 949.099 72.9675 C 956.581 71.3754 965.379 70.7853 967.753 76.2985 C 973.306 77.0556 978.018 78.1414 980.411 80.9695"></path>
<path fill="#166D20" d="M 925.752 70.2985 C 922.084 70.4807 918.147 70.6398 911.77 70.3045 C 909.12 70.1652 905.735 68.2468 901.781 67.618 C 900.06 67.3443 898.17 68.2188 895.789 67.5925 C 893.971 67.1144 892.463 65.1652 889.791 64.2565 C 885.444 62.7786 878.357 63.8222 875.776 58.9865 C 876.239 58.9758 877.54 59.0054 877.129 58.9717 C 892.678 63.7668 912.798 65.949 925.752 70.2985"></path>
<path d="M 881.11 77.6317 C 876.536 78.4 871.691 73.3624 867.119 70.9696 C 866.214 69.6456 867.849 69.6922 867.784 68.304 C 873.283 70.8115 878.709 72.9937 881.11 77.6317"></path>
<path fill="#166D20" d="M 858.447 54.9696 C 856.54 56.6916 849.219 57.0689 847.786 53.637 C 852.238 53.6339 856.559 53.3456 858.447 54.9696"></path>
<path fill="#166D20" d="M 840.452 54.3077 C 835.051 58.6491 828.146 54.1299 821.797 53.6367 C 817.524 53.3047 812.385 54.5063 807.125 54.3065 C 795.07 53.8489 782.719 49.9068 769.814 48.9716 C 764.997 48.6226 759.968 49.9177 754.477 49.638 C 751.861 49.5047 749.21 48.1383 745.807 47.6272 C 739.004 46.6056 731.461 47.295 724.493 44.978 C 724.334 44.3997 724.134 43.4834 723.826 42.3144 C 732.029 44.4128 743.138 41.8595 751.146 43.6126 C 755.254 44.5119 758.503 47.6556 761.815 48.2902 C 769.143 49.6944 777.794 48.051 785.14 48.3096 C 795.285 48.6668 805.458 49.6127 815.797 50.964 C 825.383 52.2171 832.913 52.0764 840.452 54.3077"></path>
<path d="M 776.502 64.9226 C 778.744 66.4525 782.845 66.2842 781.796 69.6425 C 774.729 69.3432 768.83 61.708 759.816 60.3018 C 759.832 59.7977 759.51 59.2546 759.141 58.3013 C 760.067 57.9922 760.62 57.616 761.135 57.6522 C 768.053 58.5154 772.221 62.0015 776.502 64.9226"></path>
<path d="M 733.804 64.974 C 729.465 70.7282 726.868 64.1368 723.888 60.2507 C 721.301 56.8758 718.754 54.4647 713.13 52.9931 C 713.564 52.9666 713.489 50.3416 713.167 50.3028 C 724.559 51.0261 726.453 60.9984 733.804 64.974"></path>
<path fill="#166D20" d="M 705.147 40.9773 C 695.359 41.915 682.089 40.6681 669.847 39.6463 C 670.108 37.1597 673.516 38.1106 673.844 36.3129 C 685.142 36.3139 699.143 34.5619 705.147 40.9773"></path>
<path d="M 661.835 56.9667 C 663.239 59.0352 667.437 57.9781 666.499 61.6336 C 658.06 61.7717 653.654 51.7365 645.843 48.3082 C 641.902 48.2479 638.427 47.7816 633.85 46.3052 C 634.171 46.3295 634.169 44.3269 633.851 44.3044 C 638.182 43.1303 643.673 45.8326 648.506 45.6401 C 653.084 49.6253 657.976 52.9909 661.835 56.9667"></path>
<path fill="#166D20" d="M 666.495 38.3228 C 663.462 41.6586 660.106 38.1772 655.828 37.6396 C 641.179 35.7989 620.591 39.7473 604.535 37.6437 C 603.356 37.4892 603.905 36.6466 602.526 36.2817 C 600 35.6135 596.734 36.325 594.516 34.3077 C 596.635 32.4039 599.684 32.1979 601.861 31.6717 C 604.752 30.9728 607.752 29.6278 609.848 29.6523 C 612.148 29.6792 613.737 31.0728 615.19 30.9908 C 622.121 30.5995 628.541 27.0039 634.507 25.6527 C 637.721 26.5262 638.825 29.8365 641.197 30.9374 C 643.815 32.1525 648.123 32.0829 650.518 32.9425 C 655.31 34.663 659.718 37.7599 666.495 38.3228"></path>
<path fill="#FFFFFF" d="M 653.172 180.938 C 654.081 183.155 652.923 183.56 651.837 184.271 C 650.624 183.368 651.157 182.727 651.171 180.938 C 651.502 181.029 653.507 181.029 653.172 180.938"></path>
<path fill="#FFFFFF" d="M 634.516 180.271 C 636.93 180.04 637.445 181.311 638.507 181.606 C 638.817 184.115 636.869 184.627 633.849 184.271 C 633.682 182.327 635.317 182.399 634.516 180.271"></path>
<path fill="#FFFFFF" d="M 621.848 179.605 C 623.083 182.117 617.674 182.883 618.518 179.606 C 618.83 179.697 622.168 179.697 621.848 179.605"></path>
<path fill="#FFFFFF" d="M 599.85 162.942 C 601.244 164.587 598.762 167.068 595.854 166.938 C 595.679 163.982 597.721 161.067 599.85 162.942"></path>
<path fill="#D8CC5B" d="M 579.856 122.971 C 583.683 122.99 588.879 121.582 590.514 124.934 C 580.034 126.193 569.025 124.851 558.541 125.654 C 551.373 126.203 544.591 128.282 537.214 128.334 C 526.731 128.408 515.461 126.401 504.122 125.871 C 495.587 125.472 487.01 127.859 477.199 128.225 C 458.271 128.932 439.045 127.343 419.904 127.498 C 418.3 125.476 418.176 121.578 417.273 118.189 C 425.738 117.131 435.22 118.953 445.392 117.492 C 448.646 117.025 451.354 115.199 453.821 114.631 C 467.931 111.38 484.347 112.53 500.161 113.235 C 508 113.584 517.078 114.964 523.941 116.366 C 526.224 116.833 528.415 116.665 529.911 116.997 C 532.386 117.547 535.018 119.24 537.221 119.644 C 544.34 120.948 552.103 119.603 559.195 120.957 C 561.658 121.427 563.899 122.727 565.865 122.966 C 570.151 123.486 575.656 122.951 579.856 122.971"></path>
<path d="M 566.53 47.6387 C 568.582 52.1847 574.914 55.4812 573.194 60.9639 C 568.791 58.6021 566.504 53.7395 563.197 49.6369 C 560.974 47.5114 558.304 45.5092 555.191 43.6377 C 555.611 43.6478 555.289 41.0071 555.279 40.982 C 555.369 40.9435 556.875 41.0368 556.531 40.9757 C 560.98 42.387 562.59 46.341 566.53 47.6387"></path>
<path fill="#166D20" d="M 571.851 32.9804 C 555.824 35.1982 538.233 29.7194 523.332 30.4204 C 516.101 27.7653 507.991 31.8228 500.258 28.6419 C 505.754 26.1161 515.928 25.7708 520.67 28.4318 C 527.066 27.5032 534.354 28.3607 539.23 30.3359 C 550.554 30.33 563.346 29.222 571.851 32.9804"></path>
<path d="M 527.266 61.0256 C 524.554 61.4536 523.565 59.7462 521.32 59.0702 C 521.085 57.6032 521.019 55.6781 519.979 54.4344 C 519.82 51.4355 515.984 51.8139 514.112 49.7573 C 512.947 48.4766 513.063 46.5367 511.455 45.1204 C 507.936 42.0213 503.216 40.2428 498.267 38.0089 C 498.543 37.9966 498.51 35.3428 498.28 35.3295 C 512.1 39.7579 521.328 48.966 527.266 61.0256"></path>
<path fill="#166D20" d="M 489.12 26.1454 C 487.083 29.1677 482.415 29.8518 477.377 30.337 C 472.947 25.0017 459.567 28.7483 452.752 25.4932 C 465.169 21.0595 477.223 25.0529 489.12 26.1454"></path>
<path d="M 467.553 51.1161 C 466.087 55.1055 468.86 59.0424 467.542 61.7728 C 463.252 62.2091 464.277 55.9462 464.314 53.1841 C 460.625 45.6352 451.377 43.5219 446.324 36.998 C 444.843 37.0401 442.782 37.4927 442.467 35.7591 C 442.603 35.0082 442.795 34.5547 443.105 34.4063 C 443.846 34.0543 444.356 33.6838 445.031 33.69 C 453.529 38.5585 461.296 44.2259 467.553 51.1161"></path>
<path d="M 418.823 45.7193 C 420.879 50.8196 427.888 53.8027 426.998 59.4263 C 421.144 58.5694 420.799 51.8892 416.326 48.4486 C 414.672 47.1765 406.71 43.0621 403.728 42.2343 C 402.997 42.0314 401.682 42.7659 400.585 42.3305 C 396.498 40.7093 393.322 37.4949 388.742 36.7984 C 388.913 36.7833 388.95 34.1498 388.725 34.109 C 394.843 34.0227 398.423 36.54 401.199 39.655 C 409.454 39.3007 412.327 44.578 418.823 45.7193"></path>
<path fill="#166D20" d="M 431.755 24.8384 C 423.485 27.5784 414.19 23.5109 405.166 23.6531 C 397.711 23.7705 391.607 24.461 383.856 23.0099 C 388.235 20.6395 394.925 18.2027 400.762 18.4616 C 404.886 18.6444 408.912 21.1703 412.714 21.3956 C 420.002 21.8272 429.729 18.1133 431.755 24.8384"></path>
<path fill="#FFFFFF" d="M 392.285 180.66 C 392.669 182.484 392.235 183.616 390.289 183.308 C 390.305 181.665 390.744 180.54 392.285 180.66"></path>
<path fill="#FFFFFF" d="M 380.377 181.296 C 382.32 181.19 382.747 182.313 382.353 183.959 C 380.959 183.777 381.102 185.26 379.041 184.611 C 379.14 183.054 380.286 182.649 380.377 181.296"></path>
<path d="M 365.616 55.4649 C 367.581 57.63 371.575 57.4422 371.074 61.26 C 363.913 61.8995 361.666 52.8314 356.561 48.5614 C 350.1 43.1568 340.744 41.267 331.882 37.5932 C 332.013 37.5733 332.078 35.6025 331.87 35.5819 C 338.047 35.8061 350.944 40.4007 355.957 43.9182 C 360.152 46.8619 362.35 51.8663 365.616 55.4649"></path>
<path fill="#FFFFFF" d="M 367.161 183.262 C 367.191 185.638 365.354 186.246 363.163 186.564 C 363.051 183.967 365.184 181.495 367.161 183.262"></path>
<path fill="#166D20" d="M 350.16 22.9831 C 352.598 21.1926 368.175 17.7646 369.757 22.9438 C 363.207 24.0385 356.27 24.735 350.16 22.9831"></path>
<path fill="#FFFFFF" d="M 336.965 166.649 C 336.448 168.924 335.268 170.644 332.292 170.602 C 331.918 167.917 333.779 167.559 333.655 165.302 C 335.945 164.826 335.871 166.447 336.965 166.649"></path>
<path fill="#166D20" d="M 341.143 24.6924 C 337.036 24.5978 331.694 25.4368 330.281 21.7114 C 334.94 21.7066 340.464 20.6336 341.143 24.6924"></path>
<path fill="#D8CC5B" d="M 325.309 122.858 C 328.223 123.663 330.567 126.809 332.989 127.095 C 325.663 128.318 317.111 130.095 308.423 129.503 C 303.794 129.187 299.509 126.749 295.234 126.077 C 291.715 125.524 287.323 125.464 283.319 125.352 C 272.756 125.057 262.091 128.775 251.816 129.377 C 241.829 129.962 234.096 128.691 226.607 125.904 C 234.886 118.432 242.85 111.857 254.597 112.171 C 258.571 112.277 263.276 113.67 267.868 114.4 C 278.125 116.029 288.374 118.368 299.469 120.59 C 301.727 121.042 303.749 122.079 305.455 122.331 C 312.613 123.385 320.329 121.484 325.309 122.858"></path>
<path d="M 321.908 56.4421 C 317.587 57.6238 317.284 53.9965 315.427 52 C 307.675 47.3145 301.088 41.0456 289.852 39.9 C 289.934 39.8754 290.007 38.5854 289.835 38.5363 C 290.504 36.1202 293.161 37.1259 293.916 37.1755 C 299.587 37.5479 310.66 43.7707 314.906 47.3477 C 317.944 49.9068 320.754 53.4704 321.908 56.4421"></path>
<path d="M 270.848 57.1887 C 272.133 59.2124 275.705 60.1023 274.666 63.3024 C 267.202 60.7829 266.737 50.6329 257.813 49.1016 C 258.021 49.0629 257.93 46.3903 257.93 46.3879 C 258.024 46.3873 259.214 46.4883 259.09 46.4685 C 262.091 48.1137 265.561 48.9308 267.626 50.9343 C 269.432 52.6863 269.535 55.1204 270.848 57.1887"></path>
<path d="M 269.971 34.8641 C 267.663 35.3488 267.537 33.452 265.395 33.2859 C 261.773 38.1293 252.343 35.9127 250.399 30.0165 C 246.89 29.2299 245.329 34.269 242.042 31.6993 C 243.167 26.72 248.318 24.652 254.699 25.7891 C 258.988 26.5533 269.744 30.2677 269.971 34.8641 M 255.668 29.8836 C 255.321 32.4182 259.707 34.1049 260.24 31.6101 C 259.068 30.7801 258.019 29.7325 255.668 29.8836"></path>
<path fill="#9CDBF2" d="M 260.238 31.6099 C 259.71 34.1045 255.316 32.4194 255.672 29.8817 C 258.025 29.7311 259.06 30.7813 260.238 31.6099"></path>
<path d="M 230.036 48.3965 C 232.351 51.5941 237.486 54.0629 236.824 58.9359 C 230.658 55.8979 228.503 47.979 223.443 43.3599 C 221.7 41.7682 219.262 41.4245 217.259 39.108 C 216.957 38.4506 216.826 37.513 216.87 36.3656 C 216.861 36.5139 218.154 36.6643 217.979 36.7195 C 220.933 39.1993 224.466 40.3402 226.975 42.8471 C 228.431 44.302 228.832 46.7329 230.036 48.3965"></path>
<path fill="#1F9B31" d="M 209.379 26.4437 C 213.054 21.2831 223.786 16.6155 232.731 22.838 C 226.708 26.2881 218.64 27.8312 209.379 26.4437"></path>
<path fill="#FFFFFF" d="M 204.647 74.5007 C 204.181 76.6046 200.605 75.8519 199.583 73.7798 C 199.926 71.9162 203.88 73.5799 204.647 74.5007"></path>
<path fill="#FFFFFF" d="M 196.278 116.99 C 196.719 117.869 192.989 119.825 193.62 117.176 C 195.006 116.341 195.435 116.584 196.278 116.99"></path>
<path fill="#FFFFFF" d="M 190.841 71.5908 C 189.614 75.6102 183.806 70.6935 184.134 67.7798 C 186.28 69.3423 189.968 69.6419 190.841 71.5908"></path>
<path fill="#FFFFFF" d="M 177.062 125.337 C 178.515 124.746 179.314 125.215 179.324 126.584 C 179.463 126.618 177.461 127.475 177.415 127.429 C 177.548 127.296 177.109 125.574 177.062 125.337"></path>
<path fill="#FFFFFF" d="M 175.16 66.3656 C 173.527 70.0189 166.514 67.3568 167.023 62.973 C 169.065 62.6443 174.243 64.3961 175.16 66.3656"></path>
<path fill="#FFFFFF" d="M 164.798 133.884 C 165.033 135.628 162.128 135.4 161.579 134.99 C 161.695 132.482 163.762 133.529 164.798 133.884"></path>
<path fill="#FFFFFF" d="M 149.82 61.6945 C 153.045 61.3597 157.018 59.9505 159.862 61.814 C 159.179 65.6702 150.641 66.8358 149.82 61.6945"></path>
<path fill="#FFFFFF" d="M 148.441 141.509 C 148.149 143.273 144.489 142.914 142.731 143.606 C 142.714 142.304 144.299 142 144.132 140.546 C 146.147 140.181 146.774 141.711 148.441 141.509"></path>
<path fill="#FFFFFF" d="M 131.8 60.5348 C 134.433 61.2205 138.286 60.9576 139.589 62.4482 C 137.999 65.4946 131.666 64.666 131.8 60.5348"></path>
<path fill="#FFFFFF" d="M 125.509 145.92 C 127.437 145.42 127.893 147.043 129.689 146.395 C 129.79 147.981 126.598 147.414 125.275 148.014 C 125.561 147.493 125.788 146.879 125.509 145.92"></path>
<path fill="#FFFFFF" d="M 110.322 59.8335 C 112.723 58.37 115.417 61.6181 118.875 61.1888 C 116.033 65.2269 113.045 62.8039 110.322 59.8335"></path>
<path fill="#FFFFFF" d="M 110.689 153.15 C 110.575 154.805 107.14 154.271 105.614 154.91 C 105.068 153.484 106.56 153.318 105.577 151.521 C 107.815 151.388 108.915 152.891 110.689 153.15"></path>
<path fill="#FFFFFF" d="M 99.7829 58.1652 C 101.35 60.6717 96.6965 59.8139 96.9744 63.1175 C 92.3682 62.8472 90.6039 60.4213 89.0454 57.8111 C 90.7444 54.8229 96.9887 57.8492 99.7829 58.1652"></path>
<path fill="#FFFFFF" d="M 83.3499 162.37 C 81.4723 158.521 88.5624 156.921 89.5887 159.681 C 89.578 161.776 88.1861 162.948 85.5807 163.259 C 85.0194 162.837 84.233 162.608 83.3499 162.37"></path>
<path fill="#FFFFFF" d="M 77.1894 55.9337 C 75.796 64.0749 65.624 59.4242 66.8757 52.9533 C 71.5436 53.0913 73.3664 55.2836 77.1894 55.9337"></path>
<path fill="#FFFFFF" d="M 62.2551 168.898 C 60.7504 163.641 67.317 163.471 68.1206 167.652 C 68.1624 167.736 62.2802 168.987 62.2551 168.898"></path>
<path fill="#166D20" d="M 60.2303 30.9771 C 60.6166 33.079 58.6056 31.9289 57.389 31.8763 C 57.7561 30.7596 58.7919 30.5686 60.2303 30.9771"></path>
<path fill="#FFFFFF" d="M 48.5787 53.4268 C 50.2584 51.2493 56.4906 51.7569 58.7624 53.016 C 57.2955 56.8446 53.3813 57.3701 49.8214 58.3473 C 48.4098 57.4818 49.6103 54.651 48.5787 53.4268"></path>
<path d="M 62.6527 32.7105 C 61.4692 36.552 54.4217 34.5109 54.0983 31.3553 C 55.2612 26.0976 62.7826 28.1318 62.6527 32.7105 M 57.388 31.8761 C 58.6056 31.9289 60.6166 33.079 60.2293 30.977 C 58.793 30.5678 57.757 30.7597 57.388 31.8761"></path>
<path fill="#166D20" d="M 47.1024 20.1255 C 49.4774 20.0319 49.1266 22.825 47.8967 23.623 C 46.496 23.3125 46.7672 21.7501 47.1024 20.1255"></path>
</svg>
