<svg version="1.1" id="Layer_1" xmlns="http://www.w3.org/2000/svg" xmlns:xlink="http://www.w3.org/1999/xlink" x="0px" y="0px" width="400px" height="400px" viewBox="0 0 400 400" enable-background="new 0 0 400 400" xml:space="preserve"><defs></defs><path d="M129.71579999999997,50.08200000000002L131.334046794349,51.257779314855824L132.95278384108,52.43391483533602L134.57200613814598,53.61040292707322L136.19170868349997,54.78723995570002L137.81188647428598,55.96442228626121L139.432534507648,57.141946283801616L141.05364778073,58.319808313366025L142.67522129148497,59.49800474058702L144.29725003786598,60.676531931097216L145.91972901539899,61.85538624876581L147.54265322365498,63.034564060401024L149.166017658969,64.21406173045982L150.78981731848498,65.39387562398701L152.41404720015598,66.57400210661523L154.038702301126,67.75443754338923L155.663777619348,68.93517829994161L157.289268151966,70.11622074131722L158.90136018718454,71.32391055938889L160.5018359394869,72.55413461175151L162.08296405577937,73.82070686780666L163.64937796966558,75.11393678065384L165.19993739308484,76.43505065020449L166.72258543806802,77.80501751334386L168.2235729107926,79.21094432994607L169.6960198561968,80.66375117522303L171.14525335448093,82.15230196089541L172.57080445407976,83.67592889550367L173.96902059391863,85.23937720434557L175.34922835909876,86.82496794947161L176.7026498109106,88.44619118285925L178.03777064345223,90.08709642855831L179.3459660944203,91.760480066702L180.64045090487076,93.44298411523944L181.9218088124457,95.13252654005959L183.1850118696002,96.83590869498404L184.43970366403104,98.53662130872398L185.67994199202215,100.24289471132633L186.91498192822434,101.9394097037845L188.13845602107077,103.63494079588646L189.35853712775247,105.31631271109453L190.5662163064962,106.99591335730229L191.7736284527545,108.65519728540164L192.98149729996013,110.29269392339675L194.1801658246965,111.92127014113571L195.38164476477118,113.52356905155341L196.5866250860446,115.09839950175805L197.7864938210887,116.65675008643903L198.99222361533776,118.18372331206432L200.20436273709407,119.67856400530943L201.41786412866634,121.14743431407128L202.63843737133254,122.58305949979601L203.8587479313914,123.99406996193302L205.08869218780026,125.36854587155972L206.32870993646242,126.70621821203619L207.5742149080233,128.0123647895359L208.82980276953862,129.28198448215338L210.08866257369056,130.52241588197984L211.36063923684827,131.7234402461226L212.64603695875346,132.88531359185822L213.93427472141315,134.0186771930363L215.23616220522365,135.1132597899438L216.55194485903232,136.16948468228708L217.8776400344975,137.1914537053913L219.21630173734556,138.17697307392308L220.56552378591383,139.1285894196198L221.9280145321741,140.04465663340966L223.30238541513597,140.92688864846298L224.69100412615887,141.77421809338728L226.09187686642255,142.58880977313945L227.50734311106612,143.36985491147522L228.93281161306658,144.12101372765133L230.37712751456698,144.837809940443L231.8402393428254,145.52170962104242L233.3116211520121,146.17932446364168L234.79783395405934,146.808060423296L236.297309467451,147.40967879087333L237.81102349380473,147.9847848630269L239.33893008521073,148.53451144727427L240.88038392788084,149.0601998508297L242.43624202867906,149.56274140644828L244.0065293004124,150.04338502268916L245.59244561728434,150.5032217551127L247.18952772191759,150.9443411984537L248.80157970987315,151.36737825815175L250.42842472722032,151.77384963284464L252.06802139037444,152.16529807678083L253.72068844188024,152.54305505983615L255.38984109633444,152.90883380123876L257.0755795527154,153.26458728465394L258.7694004241072,153.61078248870427L260.47656917419323,153.9495035850174L262.19684200736685,154.28235833483018L263.9260776535523,154.6096783192034L265.6671833901431,154.93370696078264L267.41990346082514,155.25596365849663L269.1846687481804,155.57831143645248L270.9613457664253,155.90246565089342L272.7503425626913,156.23050589224795L274.55120161176217,156.5641114514908" class="target-curve-polyline" stroke="#ff0042" style="stroke-width: 3px; fill-opacity: 0; stroke-dasharray: 20px, 10px, 5px, 5px, 5px, 10px;"></path><line x1="276.506613522439" x2="274.55120161176217" y1="155.1298937511863" y2="156.5641114514908" class="distance-line" stroke="#0000ff" style="stroke-width: 2px; fill-opacity: 0;"></line><path d="M274.55120161176217,156.5641114514908L274.2106661750583,158.34107911899014L273.8605082473449,160.1114989070775L273.5022446544217,161.87555902738336L273.13865792459245,163.63439265465882L272.7713056564577,165.38830504507942L272.40111310262057,167.13706707676278L272.02983584519575,168.88107146505752L271.66266916849384,170.62401739847317L271.29656326667623,172.36212709991113L270.9333599684731,174.09577682595705L270.57738946331347,175.82835647181574L270.2280230357791,177.55791060582158L269.8868599517576,179.28477816758698L269.555881975904,181.0099719730558L269.2364414127488,182.73374063561548L268.92964182415267,184.45571454113397L268.6370210861543,186.1761519662285L268.36058830833605,187.89741430655926L268.10100655477663,189.61746555264185L267.859898563912,191.33667392427614L267.6387736100738,193.05627071696966L267.43895392181287,194.7763819500409L267.2616423843214,196.4976589305103L267.1081713605827,198.22004366329668L266.97896357695663,199.94525324695786L266.87613047535933,201.6716048198861L266.8010570834621,203.39944592919412L266.7522193011749,205.13188900564475L266.7324631142861,206.86686636324907L266.74284802835166,208.6046715796863L266.7828221625624,210.3466053744823L266.85357251106086,212.09249295999956L266.9551147697552,213.84288775644848L267.0887690192395,215.59757700398046L267.2545133071679,217.3570368149384L267.4538869869375,219.12102483465114L267.68645255866295,220.89011305217267L267.9539619218947,222.66403028687583L268.25203145341305,224.44441521062723L268.5853362486978,226.22999486721267L268.9542486606272,228.02096261817533L269.3532425117828,229.81880941645002L269.7861504364264,231.62265228104718L270.25024299121856,233.4331193299333L270.747562480017,235.24982365485548L271.27792161461736,237.07285364613128L271.83794150267585,238.90274444249658L272.43052045941585,240.73901891874743L273.0504447154237,242.58233691163616L273.7006095970231,244.4322260670005L274.37305421914675,246.28945414039984L275.07421834956403,248.15316324897205L275.8033879602356,250.02335184207232L276.5500200268991,251.9007452340527L277.32072221435,253.7845844741842L278.1144468732607,255.67480190498725L278.9196727761446,257.5718766359273L279.7431526112738,259.4751385028994L280.583612385706,261.38444924354803L281.4307978082039,263.2999732008746L282.2894664112785,265.22122170434307L283.1480611143292,267.14823255236854L284.01584653704106,269.08043557274175L284.8914132047257,271.0176264574092L285.7591545684048,272.95972750780084L286.6263252340185,274.9062891974787L287.4819904110351,276.85703289906235L288.33412167219376,278.81158903748553L289.17060988690696,280.7695980711453L289.99847143579035,282.7307513716229L290.81029450145695,284.6946597818137L291.6046093287766,286.6609602492447L292.3817329283221,288.6293334972264L293.1402904502438,290.5994463167345L293.86945166297244,292.5707070050035L294.57885052040143,294.54304488228127L295.25588149556563,296.51577699109504L295.90811238835937,298.4888329042053L296.5239678167712,300.46149747151804L297.10180744129724,302.4333670520114L297.6464862810632,304.4043305969418L298.13750205362874,306.37316132365777L298.62940037830214,308.3421360630854L299.1208531621166,310.31118660947624L299.6114319603465,312.2802808173852L300.1018045317427,314.24944410632264L300.59293251742423,316.2187247750628L301.084078457243,318.1880774346821L301.57524085494026,320.15749608561714L302.0664182144993,322.1269747292749L302.55760903966126,324.0965073660919L303.0488118341674,326.0660879965049L303.5400251020009,328.03571062192077L304.03124734690306,330.0053692427763L304.5224770726151,331.97505785950796L305.01371278312024,333.9447704735227L305.5049529819177,335.9145010842871L305.99619617323265,337.8842436941781L306.48744086080643,339.8539923036324" class="target-curve-polyline" stroke="#ff004a" style="stroke-width: 3px; fill-opacity: 0; stroke-dasharray: 20px, 10px, 5px, 5px, 5px, 10px;"></path><line x1="276.50661352243895" x2="274.55120161176217" y1="155.1298937511863" y2="156.5641114514908" class="distance-line" stroke="#0000ff" style="stroke-width: 2px; fill-opacity: 0;"></line><path d="M306.48744086080643,339.8539923036324L304.54679453706285,340.33797903799166L302.60556028910025,340.82211239748267L300.6637441155117,341.3063908860886L298.7213520148903,341.7908130077927L296.7783899867995,342.275377266336L294.83486403080246,342.76008216546006L292.89078014646265,343.2449262089059L290.9461443323732,343.72990790065677L289.00096258712705,344.21502574469594L287.0552409122281,344.70027824428064L285.10898530432905,345.185663903878L283.16220176396337,345.67118122698736L281.21489629069436,346.1568287173499L279.26707488311524,346.64260487894893L277.31874354078934,347.1285082155255L275.36990826230965,347.614537231063L273.4205750472397,348.10069042930263L271.47218495900984,348.58742340411925L269.52043880558176,349.07336338885307L267.5696477771504,349.5598801578883L265.54771775768535,350.021020234822L263.4499336407612,350.45199229710846L261.3196070972324,350.8664009289328L259.13385566433465,351.2535838062653L256.90948639155806,351.6181367983989L254.64815403186088,351.95904990290484L252.33288269147374,352.2670553281998L249.9804561036267,352.54746862493994L247.58196283207707,352.7943170643911L245.14617473968895,353.009774979382L242.673450146623,353.1922541289332L240.153442458278,353.33458225882265L237.60306332247586,353.4435767817364L235.02277527141854,353.517976556392L232.40162118797127,353.55005188128337L229.75537094606113,353.54695848681854L227.0706979890008,353.49939725074097L224.36115852090688,353.4137261327447L221.62761912463725,353.2891413102403L218.86351804788342,353.1200854703841L216.08368487259318,352.9147107386434L213.27978725543642,352.6664154758215L210.46611035547858,352.38372552404894L207.63506480022306,352.0605614310501L204.80035639292447,351.70578699618926L201.94884121121393,351.3092383102538L199.09360354278255,350.8797618561986L196.21711796893976,350.40335339842676L193.33935642263728,349.89449631209663L190.46132391828712,349.3536737657564L187.5791745075839,348.7774341870091L184.70427884150007,348.1748611985203L181.81760005557942,347.52971437664235L178.94034979715474,346.85967465158956L176.07352273169246,346.16583005095254L173.201302746526,345.4340520991947L170.3409494460346,344.6797700309852L167.49327960494705,343.9040857188565L164.6515199638415,343.1008628589896L161.82418110694127,342.2784594032289L158.99840000940492,341.42452643595516L156.1936552221977,340.55862650774446L153.4106309256955,339.68230629693363L150.6284666951051,338.77452930647814L147.87168968869616,337.8612783629024L145.14088478002023,336.9442917745908L142.41682194342107,336.0034524814151L139.7173379342067,335.0589084226102L137.0429266006414,334.1123149615802L134.38813883347595,333.1584738333962L131.75799272434054,332.20414614254537L129.14946656118224,331.24684013612847L126.56786339631542,330.2939910889631L124.00230710921244,329.3334278982201L121.46685584425036,328.3834979309219L118.9617802376787,327.44605001824425L116.48257347745994,326.5167809868152L114.03349887641194,325.60259031567136L111.60464726632283,324.6918043282893L109.20874112033026,323.8026528580404L106.84589832577086,322.93706127208196L104.51059769565826,322.08911675120254L102.20590538460677,321.26463872225906L99.9285135931043,320.4605608611057L97.6749296182976,319.67329666696077L95.45051094460395,318.9120650158861L93.2552652977996,318.178531588057L91.08454692326933,317.46731408629864L88.93990783466776,316.7822056773386L86.82090429117711,316.12403252445904L84.72800683719258,315.4950491146185L82.66601967603711,314.9045214653034L80.63481179019878,314.3541267788903L78.63405064494485,313.8452228813628L76.6646704301097,313.38127750320353L74.72457200289215,312.960734274478L72.8135952908452,312.58519909671537L70.93293405766782,312.2586379253032L69.0827106461951,311.9832643297917" class="target-curve-polyline" stroke="#ff0000" style="stroke-width: 3px; fill-opacity: 0; stroke-dasharray: 20px, 10px, 5px, 5px, 5px, 10px;"></path><line x1="279.31999173512173" x2="279.26707488311524" y1="349.80887038927574" y2="346.64260487894893" class="distance-line" stroke="#0000ff" style="stroke-width: 2px; fill-opacity: 0;"></line><path d="M69.0827106461951,311.9832643297917L69.2969188637124,310.1139285896745L69.47535847976849,308.17848592022744L69.61960675284263,306.1767081251824L69.74936204731432,304.1422341583951L69.85546900891532,302.05601454890353L69.93952878381464,299.9185091529199L70.00810340749229,297.73994608089765L70.05416028572482,295.5040422025585L70.0795194543598,293.2113660891504L70.0915043877952,290.873918520677L70.09177466703584,288.49260453439996L70.07703649730372,286.0577121512862L70.04877334388351,283.56923729281107L70.01191634951655,281.0348703804554L69.9679163067704,278.45495306471133L69.9183764032482,275.8301879778673L69.8649025828964,273.16132105454983L69.81361604028822,270.4601396577773L69.75955298154477,267.71185934052784L69.70446066520537,264.9174078123227L69.65599120636628,262.0931886922122L69.60665815542802,259.2167007596704L69.55838853528356,256.28895880355134L69.52479096119347,253.34392564371242L69.49906926365448,250.360216004039L69.4827980334972,247.33891865079585L69.48234495695516,244.29586451907477L69.49377399313005,241.21631570524687L69.51859586199959,238.10136923544047L69.56045804626142,234.9593802348302L69.61925008341966,231.78678674627358L69.70049765426492,228.5996584619183L69.80059509752533,225.38252355881662L69.92216159842063,222.14149478587865L70.06525554587384,218.8733883552584L70.23113525529018,215.57945565575713L70.42655137838611,212.2848640886012L70.64727704071495,208.9696573347444L70.89582112324818,205.6419745792669L71.17298270920973,202.30304706902956L71.48098908341548,198.96177705325007L71.81762051661717,195.60456038154598L72.18377957225556,192.23277070716836L72.58441476959656,188.8730606208493L73.01621285910657,185.5047423232296L73.48121778723221,182.1390083440542L73.97918223775706,178.77307567082906L74.5104726833245,175.40827104153516L75.07652694853758,172.0560183623024L75.67619124880873,168.70672236928897L76.31157812779512,165.38243882249492L76.98028753038042,162.06043865535975L77.68255362117222,158.74219416380575L78.42029174489424,155.4583970576538L79.19140621187094,152.18424038175095L79.99585065480258,148.92115844410836L80.83424065303147,145.6963408706135L81.70522710119748,142.49056466506678L82.60841194784915,139.30524273816795L83.5432783402597,136.15627676608088L84.50881545462926,133.0464066502979L85.50427451682873,129.96304464289585L86.52832289163852,126.92461433712256L87.5801737542798,123.9207714926826L88.65882209820123,120.9525610707652L89.76186097407101,118.04064352589715L90.88943559802358,115.16219708945562L92.04052051052301,112.31823653384413L93.21138688616072,109.53581319786836L94.4027073253328,106.79229028140477L95.61326285314507,104.08829309172391L96.83788661738438,101.45335554635261L98.0742517082634,98.88850037758687L99.32331053711361,96.3735670220635L100.5799596032521,93.92949543128424L101.84371998059298,91.54625893813146L103.1126525610121,89.22372922138956L104.38310741570314,86.97013917098579L105.6553800729895,84.77352726278765L106.92760159524084,82.63384962194279L108.19350927616546,80.56945864177429L109.45553391821288,78.5604150477127L110.71142561797761,76.60817140485598L111.95293509732211,74.73583030924948L113.18549122494727,72.91462890924035L114.40392437601298,71.15601731848503L115.58373826954018,69.53221765896903L116.76323593959897,67.90885322365503L117.94241375123418,66.28592901539902L119.12126806890278,64.66345003786601L120.29979525941297,63.04142129148502L121.47799168663397,61.419847780730024L122.65585371619838,59.79873450764802L123.83337771373878,58.17808647428602L125.01056004429998,56.55790868350002L126.18739707292679,54.938206138146015L127.36388516466397,53.31898384108001L128.54002068514416,51.70024679434903L129.71579999999997,50.08200000000002" class="target-curve-polyline" stroke="#ff0021" style="stroke-width: 3px; fill-opacity: 0; stroke-dasharray: 20px, 10px, 5px, 5px, 5px, 10px;"></path><line x1="114.92272582580472" x2="116.76323593959897" y1="65.7887366339566" y2="67.90885322365503" class="distance-line" stroke="#0000ff" style="stroke-width: 2px; fill-opacity: 0;"></line></svg>