<svg version="1.1" id="Layer_1" xmlns="http://www.w3.org/2000/svg" xmlns:xlink="http://www.w3.org/1999/xlink" x="0px" y="0px" width="760.5px" height="389.5px" viewBox="0 0 760.5 389.5" enable-background="new 0 0 760.5 389.5" xml:space="preserve"><defs></defs><path d="M178.466995239,206.149993896L174.199676601,203.341381192L170.419210501,200.591253388L167.11537755,197.89954014L164.277958356,195.266171101L161.896733531,192.691075927L159.961483684,190.174184272L158.461989425,187.715425791L157.388031364,185.31473014L156.729390111,182.972026971L156.475846275,180.687245941L156.617180467,178.460316704L157.143173297,176.291168914L158.043605374,174.179732227L159.308257308,172.125936297L160.92690971,170.129710779L162.889343189,168.190985328L165.185338355,166.309689598L167.804675818,164.485753244L170.737136188,162.71910592L173.98322498053628,160.98404534669868L177.5401154412173,159.26463985629374L181.39891620018912,157.56017591384872L185.5631145076193,155.84218597758905L190.02512335785318,154.10902818738896L194.796513516258,152.3178904429144L199.86953595316012,150.47070251995697L205.2476259670065,148.54644757115125L210.9253478195306,146.54450291224757L216.90854860366701,144.442505241476L223.2065168530665,142.21411688432806L229.7986129069704,139.8937209544424L236.69242387461458,137.46125680310314L243.86209532311813,134.9611600957138L251.31194327630692,132.38158638029122L258.99949774722364,129.79525018889223L266.92311199918316,127.20027706685354L275.06992963190066,124.61536653808345L283.4170414618296,122.07555730124518L291.9399082190604,119.61681100902494L300.61343102699766,117.27400282091314L309.40919908208593,115.08483491477199L318.31025135642517,113.0678559196281L327.28832442522076,111.25661525296772L336.31702299019423,109.67930589681654L345.36700990459565,108.36529828361385L354.41733347638365,107.33024564179003L363.43830735361655,106.5983807739911L372.4043038892064,106.18559889476504L381.2978329304106,106.0959057031219L390.08125799767157,106.35246519114024L398.7434958220745,106.94651426936454L407.25844983888413,107.88250586226872L415.60838135732513,109.15365662969162L423.7717297460167,110.75379742627388L431.73232520719057,112.66924519437757L439.47676380403664,114.8819732113264L446.9983526401477,117.36795956726604L454.28104801912934,120.10769395689712L461.3120905702175,123.07701522809077L468.0899739585519,126.24504183091526L474.60364696136753,129.58439567128312L480.85854515254573,133.06181656444508L486.84220653212014,136.64919208348272L492.56255802598105,140.3144782347472L498.02626547373177,144.029557256967L503.2269600106612,147.76815728560268L508.16965029073174,151.50594943423621L512.8596406441313,155.22244962774383L517.2927624837303,158.8968621197231L521.4804759430023,162.51822841696168L525.4235008885098,166.07600527351255L529.1195785532682,169.56075324558986L532.5682688351036,172.96747602853267L535.7635782329842,176.28870357077045L538.7030271086209,179.52286656791262L541.3799124226612,182.6657548689152L543.7868382905383,185.71326203935683L545.916202386772,188.66187808442697L547.7591896325089,191.5064323885685L549.3069849480296,194.24175433572452L550.5507732553467,196.86267331083792L551.4817394752408,199.36401869698557L552.0910685297245,201.7406198791104L552.3699453382126,203.98730624065553L552.3095548235834,206.09890716706377L551.9010819066177,208.07025204141212L551.1357115075962,209.89617024764357L550.0046285493974,211.57149117120088L548.4990179519357,213.09104419466115L546.6100646372242,214.44965870296744L544.3289535264092,215.64216408056245L541.6468695397714,216.6633897113893L538.5549975989572,217.50816497902485L535.0445226259795,218.17131926841205L531.1066295411188,218.64768196349394L526.7325032655217,218.93208244871335L521.913328722201,219.01935010728135L516.6402908295709,218.90431432437282L510.9045745106444,218.58180448319877" class="target-curve-polyline" stroke="#ff0000" style="stroke-width: 3px; fill-opacity: 0; stroke-dasharray: 20px, 10px, 5px, 5px, 5px, 10px;"></path><line x1="503.61741133008013" x2="510.9045745106444" y1="246.48802062260174" y2="218.58180448319877" class="distance-line" stroke="#0000ff" style="stroke-width: 2px; fill-opacity: 0;"></line><path d="M510.9045745106444,218.58180448319877L513.9551805935997,223.55627367615625L516.5971458823117,228.23204741058896L518.8393089777253,232.61418135859628L520.6905084812852,236.70773119141154L522.1595829918383,240.5177525787683L523.2553711111956,244.04930119326593L523.9867114390697,247.3074327051379L524.3624425764058,250.2972027864837L524.3914031229162,253.0236671075366L524.0824316795463,255.49188134039622L523.4443668473748,257.7069011549298L522.4860472264802,259.673782222737L521.2163114169418,261.3975802154171L519.6439980202042,262.8833508042036L517.7779456356143,264.13614965796387L515.626992864849,265.1610324515294L513.199978307255,265.96305485376774L510.5057405634113,266.54727253541205L507.5531182356288,266.918741168196L504.3509499217542,267.082516423585L500.9080742232322,267.0436539728123L497.23332974200804,266.8072094862456L493.3355550767943,266.37823863585015L489.2284102517534,265.75969049572416L484.9226090626589,264.9570533063004L480.43155517327114,263.9757248775088L475.76506104610235,262.82343272728485L470.9391400170092,261.50775196536483L465.96863662930633,260.03911040679554L460.863049108666,258.43029089260307L455.63673259060965,256.69584835402713L450.31334778695987,254.8558886079885L444.89821346209885,252.93119334219574L439.40201640114725,250.94542308917576L433.8314081707821,248.92273964234764L428.19911846027344,246.89309764385942L422.51618673910014,244.8898810775589L416.78528224194883,242.94288553753913L411.00380856458526,241.07646404718395L405.1801806619664,239.3267916316228L399.31022041288145,237.71600394812847L393.39699930060425,236.27455448688946L387.4383202928318,235.02444127556714L381.43000009523166,233.98070015891093L375.3733997266701,233.16601319483328L369.2633870406172,232.58567411766327L363.101478808249,232.25596283221952L356.88400306965286,232.17489697613252L350.61134263214456,232.3454138169481L344.2812872144116,232.75447386221396L337.8991485487296,233.4098313697264L331.46143083655414,234.2751364358835L324.9755577899316,235.3519173469706L318.4429978437576,236.60392494059158L311.8711859426947,238.0158125116895L305.2660431136551,239.55235329827846L298.63749222001246,241.19550333900622L291.99316239186663,242.89504278945722L285.3457518710095,244.63327765611072L278.7057738850059,246.35396519985838L272.09001901160735,248.07584180813598L265.50925822689226,249.7106872127626L258.9798121823604,251.2393984478374L252.51813355332638,252.64662732404355L246.14031517079022,253.88036556209022L239.86377146879212,254.93051920435158L233.7053548992687,255.80646184253925L227.68214013711557,256.4612912347609L221.81081813049212,256.89813658932724L216.10883630399897,257.0838840930224L210.59115438979097,257.0509042277241L205.2743728492151,256.7749018584309L200.17172094002606,256.2909354487856L195.29572170456808,255.62406015185806L190.66160817350638,254.75225828031333L186.2806436662835,253.70481531585486L182.16271605831892,252.51475913787536L178.31808646629597,251.200830065683L174.75895559392313,249.7581014788553L171.4939450920978,248.21360470565358L168.534953805,246.560884724L165.892180267,244.807931892L163.570931029,242.997303793L161.581388381,241.128959464L159.93373461,239.202857947L158.638152003,237.21895828L157.70482285,235.177219503L157.143929438,233.077600654L156.965654056,230.920060774L157.180178991,228.704558902L157.797686532,226.431054077L158.828358967,224.099505338L160.282378584,221.709871725L162.16992767,219.262112278L164.501188515,216.756186035L167.286343406,214.192052036L170.535574632,211.56966932L174.25906448,208.888996927L178.466995239,206.149993896" class="target-curve-polyline" stroke="#ff0005" style="stroke-width: 3px; fill-opacity: 0; stroke-dasharray: 20px, 10px, 5px, 5px, 5px, 10px;"></path><line x1="507.1719906777052" x2="510.9045745106444" y1="246.79163974103585" y2="218.58180448319877" class="distance-line" stroke="#0000ff" style="stroke-width: 2px; fill-opacity: 0;"></line></svg>