<!--?xml version="1.0" encoding="utf-8"?-->
<!-- Generator: Adobe Illustrator 17.0.2, SVG Export Plug-In . SVG Version: 6.00 Build 0)  -->

<svg version="1.1" id="Layer_1" xmlns="http://www.w3.org/2000/svg" xmlns:xlink="http://www.w3.org/1999/xlink" x="0px" y="0px" width="792px" height="612px" viewBox="0 0 792 612" enable-background="new 0 0 792 612" xml:space="preserve">
<path fill="#D6D7EC" stroke="#010101" stroke-width="4.6788" stroke-linecap="round" d="M 253.819 333.27 C 247.191 332.04 235.453 336.134 240.201 342.474 C 255.719 363.204 287.431 349.517 310.74 347.513 C 362.715 343.044 416.642 268.512 441.194 306.396 C 456.398 329.856 479.028 439.672 518.439 417.717 C 530.651 410.913 537.586 404.45 540.801 391.63 C 542.453 385.041 546.527 363.934 562.89 380.401 C 576.039 393.639 544.466 425.114 530.378 434.98 C 520.142 442.146 487.577 431.24 479.085 427.556 C 450.918 415.336 445.309 307.985 422.355 306.298 C 394.164 304.227 355.557 344.518 329.983 349.491 C 312.687 352.855 304.038 361.837 286.322 363.208 C 246.722 366.272 263.615 347.675 250.493 366.574 C 244.506 375.197 251.05 379.394 259.554 380.725 C 274.245 411.574 233.729 409.082 267.163 421.553 C 354.678 454.199 561.122 538.151 649.62 456.404 C 705.805 404.504 691.863 308.045 617.356 298.807 C 576.57 293.751 549.2 276.824 515.447 279.955 C 456.107 285.455 406.347 111.532 341.067 122.197 C 325.416 124.754 308.137 121.984 293.153 127.466 C 266.424 137.245 245.9 149.713 235.023 176.691 C 221.935 209.148 234.058 240.223 236.859 272.986 C 239.109 299.299 250.35 307.148 253.819 333.27"></path>
<path fill="#FFFFFF" stroke="#010101" stroke-width="4.6788" stroke-linecap="round" d="M 320.025 231.72 C 314.927 246.372 306.824 262.448 293.22 267.829 C 229.47 282.094 218.213 173.872 280.499 184.295 C 288.245 185.591 299.387 183.716 304.307 190.141 C 311.01 198.893 322.643 221.957 320.025 231.72"></path>
<path fill="#FFFFFF" stroke="#010101" stroke-width="4.6788" stroke-linecap="round" d="M 320.025 231.72 C 348.864 248.011 374.792 225.991 385.722 203.178 C 401.53 170.184 365.926 139.502 330.176 155.87 C 315.3 162.681 302.271 167.818 299.985 185.386 C 297.622 203.562 302.957 222.079 320.025 231.72"></path>
<path fill="#50BFA2" stroke="#010101" stroke-width="4.6788" stroke-linecap="round" d="M 326.096 204.975 C 377.928 204.378 333.826 139.279 313.214 187.404 C 313.251 196.483 314.429 205.405 326.096 204.975"></path>
<path fill="#50BFA2" stroke="#010101" stroke-width="4.6788" stroke-linecap="round" d="M 267.162 248.621 C 281.771 252.046 292.44 230.563 280.763 220.77 C 264.975 207.529 244.028 238.584 267.162 248.621"></path>
<path fill="#7E9ACF" stroke="#010101" stroke-width="4.6788" stroke-linecap="round" d="M 253.819 333.27 C 256.617 354.348 300.718 342.937 318.718 334.429 C 361.768 314.081 425.581 258.676 450.417 300.67 C 475.835 343.648 511.404 418.018 523.378 393.603 C 534.746 370.423 517.897 368.071 544.863 352.07 C 589.486 325.586 582.795 418.402 565.004 439.493 C 535.615 474.334 469.532 447.55 441.396 414.49 C 425.232 395.496 431.741 356.404 416.733 347.7 C 393.839 334.423 346.353 362.72 318.831 361.828 C 299.42 361.199 277.683 383.562 259.556 380.725 C 251.051 379.394 244.508 375.198 250.495 366.573 C 263.617 347.674 246.723 366.271 286.323 363.208 C 304.039 361.836 312.688 352.854 329.984 349.491 C 355.558 344.518 394.165 304.227 422.356 306.298 C 445.31 307.986 450.918 415.336 479.087 427.556 C 487.581 431.24 520.143 442.146 530.38 434.98 C 544.466 425.115 576.04 393.638 562.891 380.401 C 546.531 363.933 542.453 385.041 540.802 391.63 C 537.588 404.45 530.653 410.913 518.44 417.717 C 479.03 439.673 456.399 329.856 441.195 306.397 C 416.644 268.513 362.716 343.044 310.742 347.513 C 287.432 349.517 255.721 363.203 240.202 342.473 C 235.453 336.134 247.191 332.04 253.819 333.27"></path>
</svg>
