<svg version="1.1" id="Layer_1" xmlns="http://www.w3.org/2000/svg" xmlns:xlink="http://www.w3.org/1999/xlink" x="0px" y="0px" width="432px" height="200px" viewBox="0 0 432 200" enable-background="new 0 0 432 200" xml:space="preserve"><defs></defs><path d="M380.7539978027344 153.6739959716797 C 382.2669982910156 159.01400756835938 378.3089904785156 163.572998046875 375.239013671875 165.1999969482422 C 374.114013671875 165.7969970703125 372.0150146484375 166.3249969482422 370.2340087890625 166.7030029296875 C 363.5690002441406 168.10299682617188 354.3529968261719 168.67799377441406 346.1809997558594 168.95899963378906 C 345.4700012207031 168.97900390625 344.6239929199219 168.91799926757812 343.92498779296875 168.95899963378906 C 343.27899169921875 169.00100708007812 342.5889892578125 169.427001953125 341.9230041503906 169.45899963378906 C 337.3269958496094 169.677001953125 332.51800537109375 169.25100708007812 327.8940124511719 169.70899963378906 C 324.95001220703125 170.00399780273438 322.0690002441406 170.55499267578125 319.1239929199219 170.71200561523438 C 309.0320129394531 171.25399780273438 296.09100341796875 170.83700561523438 285.55499267578125 170.20899963378906 C 284.19000244140625 170.12600708007812 282.87200927734375 170.51400756835938 281.54901123046875 170.46200561523438 C 277.7869873046875 170.31500244140625 274.41900634765625 169.16799926757812 270.52301025390625 169.45899963378906 C 268.95098876953125 169.57400512695312 267.5790100097656 170.19900512695312 266.26800537109375 170.20899963378906 C 262.9989929199219 170.24099731445312 259.1159973144531 168.78900146484375 255.7469940185547 168.45599365234375 C 250.93099975585938 167.9759979248047 245.32699584960938 168.593994140625 239.71299743652344 167.45599365234375 C 237.61399841308594 167.02699279785156 235.93299865722656 165.88999938964844 233.9510040283203 165.4499969482422 C 232.58099365234375 165.1490020751953 231.05499267578125 165.28399658203125 229.6909942626953 164.94700622558594 C 228.47900390625 164.65899658203125 227.35000610351562 163.968994140625 226.1820068359375 163.69700622558594 C 219.81500244140625 162.23300170898438 213.14300537109375 161.6820068359375 206.64100646972656 160.18899536132812 C 205.42999267578125 159.906005859375 204.11500549316406 159.5 202.88400268554688 159.18899536132812 C 196.71400451660156 157.63099670410156 190.70199584960938 155.44900512695312 184.09500122070312 153.927001953125 C 178.63499450683594 152.66400146484375 172.94700622558594 152.20199584960938 167.31199645996094 151.92100524902344 C 161.53900146484375 151.63900756835938 157.66700744628906 152.94200134277344 153.28199768066406 154.67999267578125 C 149.3769989013672 156.2220001220703 146.81100463867188 158.33299255371094 143.51199340820312 160.69200134277344 C 141.7989959716797 161.91299438476562 139.82699584960938 162.76499938964844 137.99899291992188 163.94700622558594 C 136.2989959716797 165.03399658203125 134.76699829101562 166.61000061035156 132.99000549316406 167.70599365234375 C 132.03799438476562 168.2899932861328 131.07699584960938 168.56100463867188 130.23500061035156 169.20899963378906 C 129.42100524902344 169.83399963378906 128.8800048828125 170.68899536132812 127.97899627685547 171.21200561523438 C 126.53900146484375 172.052001953125 124.7760009765625 172.10899353027344 123.21700286865234 172.71800231933594 C 122.04900360107422 173.17300415039062 121.13099670410156 174.25999450683594 119.96099853515625 174.71800231933594 C 118.38600158691406 175.3459930419922 115.9540023803711 175.68899536132812 113.94999694824219 175.9709930419922 C 109.10700225830078 176.66299438476562 105.75499725341797 176.5469970703125 100.92400360107422 175.4739990234375 C 97.79000091552734 174.7760009765625 95.01699829101562 173.82400512695312 92.65699768066406 172.71800231933594 C 88.0199966430664 170.5489959716797 83.69100189208984 166.5850067138672 83.38600158691406 159.44000244140625 C 83.12699890136719 153.3419952392578 85.68399810791016 147.08099365234375 88.64600372314453 143.6580047607422 C 87.38700103759766 141.46299743652344 84.59600067138672 140.30599975585938 83.13600158691406 137.64300537109375 C 81.47599792480469 134.61500549316406 80.5790023803711 129.75399780273438 81.38400268554688 125.62000274658203 C 81.8010025024414 123.45999908447266 83.76300048828125 122.03700256347656 84.13800048828125 119.6050033569336 C 86.09100341796875 118.63400268554688 87.5009994506836 117.12200164794922 88.9000015258789 115.59700012207031 C 92.5199966430664 114.77300262451172 95.93199920654297 113.94000244140625 99.91999816894531 114.59400177001953 C 101.00599670410156 114.77300262451172 102.06400299072266 114.64800262451172 102.927001953125 114.84700012207031 C 104.9540023803711 115.31500244140625 106.55899810791016 116.5770034790039 108.18699645996094 117.0989990234375 C 112.7509994506836 115.70500183105469 117.14299774169922 113.23799896240234 121.96700286865234 112.59100341796875 C 124.41899871826172 112.26699829101562 126.96900177001953 112.38300323486328 129.48300170898438 112.09100341796875 C 129.95199584960938 112.03700256347656 130.31900024414062 111.62000274658203 130.98599243164062 111.58799743652344 C 131.5800018310547 111.55899810791016 131.9340057373047 111.6709976196289 132.48800659179688 111.58799743652344 C 136.3939971923828 110.99500274658203 141.61099243164062 110.23300170898438 147.01699829101562 110.58799743652344 C 151.24400329589844 110.87000274658203 155.5659942626953 111.89199829101562 160.04600524902344 112.34100341796875 C 163.45899963378906 112.68399810791016 166.18299865722656 113.31199645996094 169.31500244140625 114.09400177001953 C 170.19000244140625 114.31199645996094 171.21499633789062 114.69000244140625 172.0709991455078 114.84700012207031 C 176.42300415039062 115.64800262451172 181.05799865722656 114.75399780273438 184.59800720214844 115.59700012207031 C 185.5760040283203 115.83100128173828 186.5469970703125 116.49400329589844 187.60400390625 116.8499984741211 C 190.41000366210938 117.81099700927734 193.6649932861328 118.73699951171875 196.87100219726562 119.6050033569336 C 199.9600067138672 120.44100189208984 203.35299682617188 121.2229995727539 206.39300537109375 122.11100006103516 C 207.4759979248047 122.4219970703125 208.70899963378906 123.11100006103516 209.3979949951172 123.11100006103516 C 210.72500610351562 123.11100006103516 211.74400329589844 121.84200286865234 212.90699768066406 121.86100006103516 C 214.15699768066406 121.88099670410156 215.48300170898438 123.54000091552734 216.66400146484375 123.86699676513672 C 220.32699584960938 123.68399810791016 223.7830047607422 125.16799926757812 226.6840057373047 125.86900329589844 C 227.95599365234375 126.16999816894531 229.24000549316406 126.33699798583984 230.4409942626953 126.61900329589844 C 233.11199951171875 127.25700378417969 235.6269989013672 127.2020034790039 238.45899963378906 127.61900329589844 C 240.78500366210938 127.96900177001953 243.1529998779297 128.74099731445312 245.47300720214844 129.375 C 247.68499755859375 129.97999572753906 250.01100158691406 131.0760040283203 252.23500061035156 131.38099670410156 C 253.7100067138672 131.5800018310547 255.01300048828125 131.21099853515625 256.2439880371094 131.38099670410156 C 258.5610046386719 131.70799255371094 260.9729919433594 132.87100219726562 263.5090026855469 133.38299560546875 C 266.0360107421875 133.88600158691406 268.70001220703125 134.1230010986328 271.2770080566406 134.63600158691406 C 273.6990051269531 135.1199951171875 275.9230041503906 135.9080047607422 278.5409851074219 136.38900756835938 C 278.57000732421875 136.3990020751953 279.16900634765625 136.03399658203125 279.54400634765625 136.13900756835938 C 281.43499755859375 136.67100524902344 284.6709899902344 137.89199829101562 287.31201171875 138.14199829101562 C 289.7409973144531 138.37600708007812 292.3330078125 138.03900146484375 294.8269958496094 138.14199829101562 C 298.28399658203125 138.2989959716797 301.92498779296875 138.98800659179688 305.34698486328125 139.39500427246094 C 308.7919921875 139.81199645996094 312.156005859375 140.50999450683594 315.3699951171875 140.6479949951172 C 317.58099365234375 140.74099731445312 319.80499267578125 140.46800231933594 321.8819885253906 140.6479949951172 C 323.0509948730469 140.75100708007812 324.08599853515625 140.8780059814453 325.1369934082031 140.8979949951172 C 327.84100341796875 140.9530029296875 330.09698486328125 141.4720001220703 332.4049987792969 141.6510009765625 C 333.8529968261719 141.76600646972656 335.2439880371094 141.31500244140625 336.6669921875 141.4010009765625 C 337.57000732421875 141.45199584960938 338.5220031738281 141.87899780273438 339.4159851074219 141.9040069580078 C 346.64300537109375 142.0709991455078 352.94500732421875 141.33700561523438 359.2130126953125 142.1510009765625 C 361.8919982910156 142.5070037841797 364.67999267578125 142.6540069580078 366.9739990234375 143.1540069580078 C 372.5799865722656 144.38800048828125 379.4309997558594 149.01199340820312 380.7539978027344 153.6739959716797" style="opacity: 0;"></path><rect x="116" y="138" width="10" height="10" rx="2" ry="2" class="handle-original" fill="#da55da" stroke="#000000" style="stroke-width: 2px; opacity: 0.5;"></rect><rect x="349" y="150" width="10" height="10" rx="2" ry="2" class="handle-original" fill="#da55da" stroke="#000000" style="stroke-width: 2px; opacity: 0.5;"></rect><rect x="116" y="138" width="10" height="10" rx="2" ry="2" class="handle" fill="#da55da" stroke="#000000" transform="matrix(1,0,0,1,92,-91)" style="stroke-width: 2px;"></rect><rect x="349" y="150" width="10" height="10" rx="2" ry="2" class="handle" fill="#da55da" stroke="#000000" transform="matrix(0.891,0.454,-0.454,0.891,108.9498,-143.8176)" style="stroke-width: 2px;"></rect></svg>