<!--?xml version="1.0" encoding="utf-8"?-->
<!-- Generator: Adobe Illustrator 15.0.2, SVG Export Plug-In . SVG Version: 6.00 Build 0)  -->

<svg version="1.1" id="Layer_1" xmlns="http://www.w3.org/2000/svg" xmlns:xlink="http://www.w3.org/1999/xlink" x="0px" y="0px" width="432px" height="200px" viewBox="0 0 432 200" enable-background="new 0 0 432 200" xml:space="preserve">
<g enable-background="new    ">
	<path d="M 378.419 165.947 C 377.339 171.385 371.822 173.698 368.277 173.711 C 366.977 173.716 364.853 173.254 363.118 172.773 C 356.629 170.975 347.978 167.582 341.274 163.268 C 340.691 162.892 340.167 162.437 339.604 162.086 C 339.083 161.761 338.297 161.654 337.798 161.331 C 334.353 159.097 331.051 155.619 327.989 153.056 C 326.038 151.424 323.963 150.003 322.108 148.25 C 315.751 142.241 309.281 133.095 304.723 125.565 C 304.132 124.589 303.483 124.068 302.842 123.227 C 301.018 120.835 300.025 117.59 298.547 115.289 C 297.951 114.361 297.061 114.161 296.377 113.491 C 294.671 111.822 293.24 108.292 292.101 106.039 C 290.472 102.819 287.755 100.642 285.032 97.1195 C 284.014 95.8019 283.6 94.0114 282.98 92.6085 C 282.552 91.6393 281.781 91.1631 281.194 90.296 C 280.674 89.5272 280.272 88.3715 279.905 87.6127 C 277.91 83.4792 274.787 80.6267 271.628 77.2945 C 271.039 76.6733 270.415 75.8883 269.864 75.2563 C 267.102 72.0886 264.196 68.5126 260.963 65.8201 C 258.291 63.5946 255.009 62.3983 251.529 61.6502 C 247.964 60.8838 245.469 62.0469 242.187 63.6751 C 239.265 65.1242 237.365 67.2712 234.462 69.6132 C 232.957 70.8279 231.221 71.7144 229.545 72.8951 C 227.992 73.9894 226.63 75.6004 224.865 76.6859 C 223.922 77.2666 223.033 77.5562 222.207 78.2056 C 221.409 78.8328 220.854 79.6796 219.973 80.2107 C 218.564 81.0606 216.765 81.1046 215.218 81.7188 C 214.06 82.1788 213.1 83.2441 211.962 83.7197 C 210.426 84.3615 207.915 84.6715 205.936 84.9663 C 201.151 85.6792 197.741 85.5422 192.922 84.4731 C 189.795 83.7795 187.002 82.8149 184.65 81.7156 C 180.031 79.5563 175.711 75.5889 175.372 68.4357 C 175.083 62.3307 177.804 56.1146 180.579 52.6389 C 179.507 50.4987 176.553 49.2919 175.12 46.6387 C 173.49 43.6218 172.611 38.7572 173.364 34.6166 C 173.758 32.4538 175.875 31.0548 176.082 28.5957 C 178.145 27.6453 179.549 26.126 180.849 24.5901 C 184.597 23.7842 187.929 22.9384 191.904 23.5923 C 192.987 23.7704 194.075 23.6498 194.922 23.8465 C 196.912 24.3085 198.675 25.5937 200.123 26.0897 C 204.846 24.721 209.064 22.2082 213.75 21.5497 C 216.131 21.2151 218.701 21.3333 220.95 21.0227 C 221.369 20.9648 221.791 20.5561 222.425 20.5229 C 222.989 20.4934 223.222 20.5974 223.764 20.5156 C 227.587 19.9387 232.288 19.1889 237.192 19.6563 C 241.027 20.0218 244.758 21.1817 248.439 21.8705 C 251.243 22.3952 253.566 23.2258 255.886 24.2704 C 256.534 24.5622 257.303 25.0441 257.925 25.2967 C 261.087 26.5807 264.559 26.3533 267.238 27.6817 C 267.978 28.0488 268.647 28.8489 269.369 29.3953 C 271.289 30.8483 273.273 32.4447 275.224 34.0551 C 277.104 35.6067 279.092 37.3351 280.719 39.0862 C 281.298 39.7092 281.905 40.8075 282.186 41.0783 C 282.727 41.5998 283.405 40.8014 284.324 41.0616 C 285.312 41.3412 286.198 43.3783 286.268 44.2072 C 288.735 45.354 290.246 48.0766 291.723 49.9686 C 292.37 50.7972 292.864 51.5676 293.482 52.3696 C 294.857 54.1548 296.005 55.3336 297.568 57.0045 C 298.853 58.3775 300.015 60.234 301.014 62.0513 C 301.966 63.7841 302.904 66.0788 303.721 67.7214 C 304.262 68.8105 304.985 69.2203 305.662 70.0328 C 306.936 71.5628 307.87 73.9939 308.815 76.1161 C 309.755 78.2297 311.183 80.047 312.232 82.1393 C 313.218 84.1061 314.353 86.3918 315.056 88.5381 C 315.126 88.9487 315.441 88.6537 315.657 89.0053 C 316.746 90.7788 317.591 94.0807 318.678 96.3338 C 319.677 98.4063 320.989 99.9255 322.36 101.721 C 324.261 104.21 326 107.332 327.74 110.111 C 329.492 112.909 331.203 115.929 332.915 118.351 C 334.093 120.018 335.703 121.331 336.927 122.832 C 337.615 123.677 338.224 124.505 338.932 125.214 C 340.755 127.037 341.999 129.003 343.478 130.642 C 344.407 131.671 345.57 132.225 346.62 133.113 C 347.286 133.677 347.693 134.604 348.357 135.181 C 353.725 139.841 359.294 142.261 364.472 145.892 C 366.685 147.445 369.074 148.818 370.917 150.319 C 375.423 153.99 379.362 161.198 378.419 165.947 M 372.701 165.566 C 374.117 163.466 371.015 157.469 367.731 154.884 C 366.807 154.157 365.429 153.652 364.292 152.85 C 361.757 151.06 356.933 147.483 354.281 146.557 C 352.865 150.067 350.153 156.791 347.945 159.618 C 350.111 160.6 354.235 163.213 356.631 163.276 C 357.57 163.629 356.957 164.3 357.743 164.414 C 358.636 164.501 359.421 164.381 359.936 164.411 C 361.439 165.356 362.622 165.982 364.391 166.394 C 366.954 166.991 371.743 166.989 372.701 165.566 M 342.455 156.188 C 345.564 153.474 350.026 147.713 349.646 142.91 C 347.52 141.545 344.943 139.131 343.271 137.902 C 343.062 142.619 339.68 149.945 336.287 151.979 C 338.02 153.588 340.718 155.381 342.455 156.188 M 336.937 143.185 C 339.104 140.064 339.265 136.492 338.885 132.962 C 337.065 130.786 334.467 128.456 332.567 125.958 C 332.66 126.414 332.248 126.333 332.405 126.488 C 331.077 132.8 327.433 138.47 324.742 142.58 C 326.712 144.37 329.319 146.364 331.198 147.813 C 333.004 146.557 335.601 145.11 336.937 143.185 M 323.541 134.63 C 326.109 131.31 329.097 125.479 328.944 121.392 C 327.851 118.92 325.317 115.671 324.136 113.582 C 323.28 117.653 321.806 124.066 319.399 127.909 C 318.189 129.841 316.793 130.824 316.011 132.549 C 317.468 134.72 318.804 135.842 319.704 137.236 C 321.606 137.755 322.156 136.422 323.541 134.63 M 317.611 120.812 C 318.105 119.906 318.746 119.193 319.096 118.352 C 320.552 114.855 320.536 110.629 320.708 107.396 C 319.339 106.208 318.845 104.404 317.477 102.929 C 317.182 103.683 317.305 103.27 317.454 103.387 C 316.654 107.469 315.27 111.267 313.363 114.761 C 311.75 117.716 309.829 119.785 308.305 121.934 C 309.777 123.505 310.913 125.459 311.628 127.152 C 312.969 126.99 315.025 125.887 316.364 123.567 C 316.738 122.919 317.086 121.775 317.611 120.812 M 307.241 114.99 C 309.03 114.031 311.546 109.722 312.813 106.504 C 314.124 103.177 313.335 102.401 313.312 99.5701 C 313.307 98.8313 313.712 98.2955 313.651 97.5912 C 313.58 96.78 313.818 96.1549 313.61 95.5 C 313.41 94.3377 312.695 92.374 311.772 92.0225 C 311.909 92.2278 312.082 91.9896 311.751 92.0938 C 311.094 95.919 309.532 99.8365 307.867 103.015 C 305.927 106.722 303.346 108.837 301.92 111.071 C 302.841 112.604 303.777 114.207 304.522 115.626 C 305.279 115.083 306.186 115.556 307.241 114.99 M 306.196 97.3353 C 307.105 95.3668 307.986 92.7262 308.518 90.6748 C 308.583 89.0288 308.978 87.0417 308.82 85.2346 C 307.661 83.6172 307.228 81.4796 305.727 79.8288 C 305.655 80.224 305.219 80.3143 305.615 80.186 C 305.758 82.3881 304.706 83.8881 303.932 86.1048 C 302.07 91.4366 299.621 96.7402 297.655 99.0678 C 296.701 100.198 295.925 100.244 295.495 101.467 C 297.716 106.246 299.3 105.364 301.501 103.671 C 302.101 103.209 302.797 102.889 303.185 102.399 C 303.774 101.655 304.06 100.206 304.779 99.1343 C 305.365 98.2623 305.898 97.9799 306.196 97.3353 M 299.475 87.8551 C 301.407 83.7368 303.784 77.8431 302.602 74.1768 C 301.603 71.3272 299.77 68.9589 298.464 66.57 C 298.042 65.7982 297.735 64.6 297.267 63.844 C 295.711 61.3337 293.754 59.9892 291.968 57.7664 C 291.351 56.9986 291.091 55.5126 290.197 55.132 C 290.576 55.3586 289.72 55.5717 290.086 55.6745 C 289.799 62.0199 285.892 69.056 283.802 71.562 C 283.446 71.9877 282.912 72.2445 282.531 72.7539 C 281.982 73.489 281.688 74.7372 281.027 75.474 C 280.319 76.2621 279.551 76.4338 279.634 77.5478 C 282.128 80.5203 283.718 83.0431 285.579 86.3303 C 287.201 89.1965 289.019 92.8589 291.364 95.1234 C 293.139 94.7036 294.192 95.6557 295.774 94.1165 C 296.953 92.9686 298.448 90.0443 299.475 87.8551 M 285.157 61.3609 C 286.405 58.32 287.524 54.3994 286.735 50.8652 C 285.747 49.6439 283.992 49.1672 282.787 48.5295 C 283.36 48.6133 282.616 48.8168 282.984 48.8887 C 282.931 57.6922 278.825 63.2934 275.973 67.6803 C 275.079 68.5433 274.348 69.1459 273.53 70.8309 C 274.727 71.2803 274.884 72 275.489 72.5345 C 275.94 72.0543 277.263 72.076 277.698 72.0525 C 278.892 70.8445 280.028 69.2913 281.156 67.6741 C 282.586 65.6226 284.066 64.0186 285.157 61.3609 M 277.303 58.1572 C 279.515 54.3939 280.189 47.8057 278.878 44.3541 C 276.387 41.1127 272.29 38.1865 268.884 35.4514 C 266.119 33.2313 262.961 31.7285 259.331 30.6436 C 255.402 29.4691 252.297 27.6931 248.025 26.8771 C 246.045 26.4989 244.288 25.9011 242.43 25.5746 C 240.841 25.2954 239.067 25.3846 237.424 25.1611 C 234.081 24.7061 231.445 24.3871 227.943 24.7836 C 226.329 24.9664 224.658 25.7807 222.831 26.026 C 220.281 26.3684 217.473 26.0988 214.966 26.5542 C 213.158 26.8825 211.076 27.7253 209.367 28.3347 C 207.402 29.0358 205.667 29.9759 204.873 31.6024 C 205.755 33.1208 205.911 35.2148 206.13 37.1087 C 207.532 36.8512 207.834 35.4594 208.657 34.608 C 209.47 33.7677 210.279 32.9688 211.363 32.3442 C 212.331 31.7859 213.69 31.6567 215.265 31.073 C 216.047 30.7833 216.633 30.2644 217.407 30.0551 C 220.185 29.3044 222.43 29.9194 224.277 30.5328 C 230.079 32.4594 232.693 35.8092 234.384 41.3142 C 237.663 40.3252 242.407 37.453 245.491 35.9321 C 246.986 35.1944 248.299 34.4617 249.392 34.695 C 250.16 34.859 251.344 35.9867 251.387 36.8722 C 251.525 39.7041 249.659 39.8171 248.123 40.3675 C 243.227 42.121 239.579 44.7163 234.756 46.3132 C 234.676 52.4038 232.599 57.7859 228.186 59.3313 C 227.059 59.7263 225.162 59.9624 223.575 60.1125 C 218.4 60.6022 216.282 59.3978 212.931 57.6597 C 208.381 55.2996 204.495 52.2914 204.63 46.13 C 203.56 46.5649 202.97 47.9818 202.158 48.8934 C 198.531 52.9679 193.642 55.2482 185.85 54.3899 C 184.191 57.4519 180.122 62.7248 180.638 68.187 C 181.159 73.7101 184.438 76.622 189.16 77.9566 C 195.486 79.7443 202.373 79.6728 208.189 77.701 C 210.918 76.7757 213.82 76.0161 215.963 74.6992 C 217.055 74.0282 218.061 72.9373 219.217 72.1945 C 220.469 71.3906 221.731 70.7946 222.853 69.9228 C 223.967 69.0581 225.017 68.1365 226.152 67.3926 C 227.349 66.6087 228.66 66.132 229.8 65.3583 C 232.902 63.2542 234.917 60.1921 237.866 58.6028 C 242.281 56.2229 248.126 54.3913 253.466 55.5948 C 254.085 55.7341 254.824 56.3907 255.534 56.6722 C 258.933 58.0189 262.174 59.0154 264.273 60.9016 C 264.9 61.4642 265.746 62.0155 266.284 62.6461 C 267.376 63.928 268.94 66.1467 269.849 66.3074 C 270.054 66.3437 271.365 65.5889 271.956 65.0923 C 272.619 64.5365 273.544 63.1487 274.664 61.7592 C 275.626 60.5672 276.654 59.2618 277.303 58.1572 M 231.144 45.8019 C 231.489 39.4768 227.857 34.2545 220.432 33.7855 C 220.418 33.8207 220.244 33.8394 220.202 34.0378 C 219.584 34.1182 219.293 34.6127 218.538 34.7982 C 214.917 34.0886 212.563 36.379 211.116 38.8574 C 210.514 39.8886 210.558 40.2104 210.163 41.3692 C 210.029 41.7641 209.441 41.9302 209.398 42.12 C 209.048 43.6952 208.373 46.1528 208.422 46.8855 C 208.673 50.6393 212.677 53.1542 215.185 54.4011 C 217.216 55.4109 217.997 55.7918 220.012 55.8748 C 226.951 56.1608 230.764 52.7514 231.144 45.8019 M 193.627 49.3855 C 198.942 46.9711 203.078 40.1961 200.635 32.6091 C 199.77 30.9986 197.294 30.3051 195.924 29.105 C 195.259 28.5221 195.097 27.8535 194.432 27.6027 C 193.885 27.3966 191.348 27.2134 189.92 27.1027 C 187.913 26.9472 185.563 27.3687 184.398 27.8537 C 182.363 28.7007 178.218 33.0606 177.636 34.8676 C 177.063 36.6491 177.264 40.3683 177.635 42.1305 C 177.779 42.8157 178.523 43.6045 179.146 44.6362 C 180.425 46.7539 180.674 46.9659 182.65 48.1419 C 183.316 48.5385 183.892 49.1796 184.393 49.3963 C 187.843 50.8903 189.937 49.3009 193.627 49.3855"></path>
	<path fill="#6DF784" d="M 367.731 154.884 C 371.017 157.469 374.114 163.464 372.696 165.568 C 371.739 166.986 366.956 166.992 364.389 166.397 C 362.618 165.987 361.439 165.358 359.935 164.412 C 359.422 164.379 358.636 164.502 357.741 164.419 C 356.953 164.303 357.572 163.626 356.632 163.274 C 354.234 163.214 350.11 160.6 347.946 159.62 C 350.152 156.79 352.864 150.067 354.279 146.557 C 356.931 147.48 361.756 151.061 364.289 152.849 C 365.43 153.654 366.805 154.155 367.731 154.884"></path>
	<path fill="#59C669" d="M 349.646 142.91 C 350.023 147.712 345.563 153.476 342.456 156.185 C 340.719 155.38 338.019 153.587 336.285 151.978 C 339.679 149.947 343.066 142.618 343.269 137.9 C 344.942 139.131 347.522 141.549 349.646 142.91"></path>
	<path fill="#59C669" d="M 338.885 132.962 C 339.263 136.491 339.108 140.066 336.937 143.185 C 335.598 145.109 333.004 146.556 331.201 147.814 C 329.322 146.366 326.712 144.37 324.742 142.579 C 327.433 138.467 331.078 132.804 332.405 126.488 C 332.245 126.332 332.661 126.413 332.567 125.958 C 334.465 128.454 337.066 130.785 338.885 132.962"></path>
	<path fill="#59C669" d="M 328.944 121.392 C 329.096 125.479 326.108 131.313 323.543 134.626 C 322.155 136.418 321.605 137.754 319.703 137.239 C 318.807 135.843 317.463 134.721 316.011 132.55 C 316.792 130.82 318.191 129.843 319.4 127.913 C 321.808 124.067 323.279 117.652 324.137 113.582 C 325.318 115.669 327.851 118.92 328.944 121.392"></path>
	<path fill="#59C669" d="M 319.095 118.352 C 318.745 119.192 318.104 119.905 317.612 120.812 C 317.088 121.775 316.738 122.919 316.364 123.568 C 315.025 125.886 312.968 126.992 311.628 127.152 C 310.913 125.459 309.776 123.508 308.305 121.934 C 309.828 119.784 311.748 117.715 313.363 114.759 C 315.27 111.268 316.649 107.468 317.457 103.387 C 317.305 103.27 317.181 103.685 317.479 102.931 C 318.841 104.403 319.336 106.212 320.708 107.397 C 320.538 110.625 320.553 114.856 319.095 118.352"></path>
	<path fill="#59C669" d="M 312.813 106.504 C 311.548 109.721 309.025 114.034 307.244 114.988 C 306.19 115.554 305.279 115.082 304.519 115.629 C 303.788 114.199 302.826 112.615 301.916 111.077 C 303.344 108.837 305.924 106.726 307.866 103.019 C 309.531 99.8396 311.096 95.9215 311.751 92.0918 C 312.076 91.993 311.91 92.2261 311.771 92.0259 C 312.693 92.3779 313.413 94.3368 313.611 95.4982 C 313.815 96.1538 313.58 96.7745 313.652 97.591 C 313.714 98.2988 313.305 98.8365 313.312 99.5694 C 313.338 102.397 314.124 103.174 312.813 106.504"></path>
	<path fill="#59C669" d="M 308.518 90.6752 C 307.989 92.7203 307.105 95.3714 306.199 97.3369 C 305.903 97.9782 305.365 98.2677 304.782 99.1354 C 304.062 100.207 303.775 101.655 303.185 102.4 C 302.796 102.891 302.102 103.21 301.501 103.671 C 299.299 105.362 297.718 106.25 295.494 101.467 C 295.925 100.247 296.702 100.198 297.655 99.0682 C 299.619 96.7402 302.067 91.4358 303.932 86.1047 C 304.707 83.8893 305.758 82.3892 305.616 80.1833 C 305.22 80.3115 305.655 80.2241 305.727 79.8288 C 307.227 81.4784 307.661 83.616 308.82 85.2345 C 308.977 87.0421 308.581 89.0263 308.518 90.6752"></path>
	<path fill="#6DF784" d="M 302.602 74.1769 C 303.784 77.8427 301.407 83.7373 299.475 87.8549 C 298.448 90.0437 296.952 92.973 295.774 94.1197 C 294.197 95.6544 293.135 94.706 291.369 95.122 C 289.003 92.8728 287.207 89.1915 285.581 86.3283 C 283.716 83.0437 282.131 80.5186 279.635 77.5451 C 279.552 76.4314 280.318 76.2637 281.027 75.4748 C 281.692 74.7359 281.979 73.4902 282.532 72.7545 C 282.914 72.2445 283.447 71.9888 283.802 71.5632 C 285.896 69.0567 289.801 62.0183 290.087 55.6756 C 289.72 55.5729 290.577 55.3597 290.198 55.1331 C 291.092 55.5138 291.352 56.9998 291.969 57.7675 C 293.756 59.9909 295.714 61.3346 297.267 63.8456 C 297.734 64.6002 298.041 65.8007 298.462 66.5699 C 299.77 68.9578 301.602 71.3295 302.602 74.1769"></path>
	<path fill="#59C669" d="M 286.733 50.8677 C 287.524 54.4025 286.404 58.3226 285.156 61.3637 C 284.065 64.0212 282.585 65.6253 281.156 67.6741 C 280.028 69.2911 278.891 70.8465 277.698 72.0524 C 277.264 72.0732 275.939 72.058 275.489 72.5345 C 274.884 71.9971 274.725 71.28 273.53 70.8309 C 274.348 69.1459 275.077 68.547 275.971 67.68 C 278.825 63.2933 282.931 57.6882 282.984 48.8887 C 282.615 48.8167 283.36 48.6133 282.786 48.5324 C 283.991 49.166 285.747 49.6469 286.733 50.8677"></path>
	<path fill="#6DF784" d="M 278.879 44.3545 C 280.19 47.8052 279.517 54.3919 277.302 58.1596 C 276.655 59.2599 275.625 60.5673 274.665 61.7603 C 273.546 63.1502 272.62 64.5371 271.957 65.0937 C 271.367 65.5889 270.057 66.3451 269.85 66.3086 C 268.943 66.1485 267.377 63.9294 266.285 62.6477 C 265.748 62.0177 264.902 61.4671 264.273 60.9022 C 262.173 59.0159 258.934 58.0223 255.535 56.6735 C 254.823 56.3911 254.085 55.7352 253.465 55.5957 C 248.124 54.3926 242.288 56.2224 237.866 58.6039 C 234.914 60.1932 232.902 63.2532 229.799 65.3562 C 228.657 66.1302 227.353 66.6132 226.151 67.3967 C 225.019 68.1348 223.968 69.0605 222.853 69.9239 C 221.729 70.794 220.47 71.3943 219.216 72.1983 C 218.06 72.9386 217.056 74.0298 215.965 74.6996 C 213.818 76.0179 210.916 76.7768 208.189 77.7018 C 202.374 79.674 195.485 79.7453 189.159 77.9574 C 184.439 76.6233 181.159 73.7109 180.637 68.185 C 180.122 62.7268 184.188 57.4529 185.849 54.3949 C 193.641 55.2524 198.532 52.9696 202.159 48.8916 C 202.969 47.9818 203.561 46.5708 204.633 46.1317 C 204.495 52.2946 208.384 55.3 212.933 57.6625 C 216.282 59.4013 218.399 60.6049 223.573 60.1147 C 225.16 59.9644 227.06 59.7299 228.189 59.334 C 232.597 57.7876 234.677 52.4025 234.758 46.3191 C 239.58 44.7193 243.224 42.1242 248.122 40.3702 C 249.659 39.82 251.523 39.7053 251.389 36.8754 C 251.348 35.9943 250.152 34.8604 249.392 34.6968 C 248.303 34.4622 246.986 35.1983 245.491 35.9352 C 242.407 37.4557 237.667 40.3284 234.385 41.3171 C 232.693 35.8122 230.079 32.4655 224.277 30.5357 C 222.431 29.9216 220.186 29.3064 217.408 30.0596 C 216.633 30.2697 216.047 30.7834 215.266 31.0729 C 213.691 31.6569 212.331 31.7859 211.367 32.3441 C 210.283 32.9714 209.469 33.7731 208.656 34.6112 C 207.832 35.461 207.534 36.8545 206.132 37.1116 C 205.911 35.218 205.756 33.1237 204.873 31.6055 C 205.667 29.9826 207.401 29.0396 209.365 28.3401 C 211.075 27.731 213.158 26.882 214.969 26.5553 C 217.473 26.1038 220.281 26.3747 222.835 26.0299 C 224.657 25.784 226.33 24.9691 227.944 24.7855 C 231.444 24.3875 234.085 24.7093 237.424 25.1631 C 239.064 25.3861 240.843 25.301 242.431 25.5815 C 244.288 25.9095 246.046 26.5003 248.026 26.8791 C 252.295 27.6961 255.406 29.4788 259.328 30.6508 C 262.954 31.7341 266.12 33.2359 268.883 35.4556 C 272.289 38.1917 276.388 41.1117 278.879 44.3545"></path>
	<path fill="#FFFFFF" d="M 220.433 33.7826 C 227.861 34.2544 231.487 39.4768 231.143 45.7989 C 230.766 52.7512 226.952 56.1602 220.015 55.8745 C 218 55.7916 217.214 55.4127 215.188 54.404 C 212.675 53.1534 208.673 50.6379 208.423 46.8857 C 208.374 46.1512 209.05 43.6979 209.4 42.12 C 209.442 41.9268 210.03 41.7688 210.164 41.3691 C 210.554 40.2094 210.514 39.8893 211.116 38.8569 C 212.561 36.3799 214.913 34.088 218.539 34.7983 C 219.293 34.6124 219.581 34.1214 220.203 34.0377 C 220.243 33.8424 220.42 33.8177 220.433 33.7826 M 223.629 49.5626 C 226.529 44.3785 224.02 37.7969 218.612 37.3151 C 214.918 36.9861 213.44 38.139 212.124 40.3615 C 210.995 42.2676 210.296 43.8792 211.176 45.881 C 212.7 49.3494 220.719 53.223 223.629 49.5626"></path>
	<path d="M 218.611 37.3151 C 224.018 37.797 226.53 44.3784 223.629 49.5597 C 220.719 53.2229 212.699 49.3495 211.176 45.884 C 210.295 43.8791 210.995 42.268 212.123 40.3613 C 213.439 38.1383 214.917 36.9859 218.611 37.3151 M 221.021 44.8176 C 220.944 43.633 220.581 42.5778 219.802 41.8156 C 217.695 41.9285 215.628 42.2287 215.284 44.3517 C 216.637 45.9394 220.091 47.3808 221.021 44.8176"></path>
	<path fill="#D35133" d="M 219.802 41.8156 C 220.582 42.5778 220.944 43.633 221.021 44.8176 C 220.087 47.3808 216.636 45.9394 215.285 44.3517 C 215.629 42.2287 217.696 41.9285 219.802 41.8156"></path>
	<path fill="#FFFFFF" d="M 200.636 32.6061 C 203.078 40.1961 198.944 46.9741 193.628 49.3856 C 189.938 49.3006 187.845 50.8908 184.395 49.397 C 183.893 49.1793 183.314 48.5424 182.65 48.1459 C 180.676 46.9672 180.425 46.7544 179.148 44.6374 C 178.525 43.6052 177.781 42.8166 177.637 42.1315 C 177.265 40.3694 177.064 36.6499 177.638 34.8686 C 178.221 33.0612 182.364 28.7003 184.4 27.8516 C 185.56 27.3683 187.913 26.9506 189.92 27.1046 C 191.349 27.2143 193.885 27.3988 194.433 27.6026 C 195.098 27.8503 195.259 28.5202 195.926 29.1045 C 197.292 30.3029 199.769 30.9952 200.636 32.6061 M 188.905 46.8907 C 196.682 47.7584 199.075 41.0011 197.114 34.6089 C 194.482 32.9723 189.909 29.5961 186.657 31.6142 C 185.024 32.628 182.32 35.868 182.147 38.1248 C 181.763 43.1544 185.166 46.4735 188.905 46.8907"></path>
	<path d="M 197.113 34.6058 C 199.074 41.0005 196.68 47.7567 188.904 46.8928 C 185.17 46.478 181.76 43.1523 182.146 38.1253 C 182.319 35.8697 185.02 32.6268 186.656 31.6122 C 189.908 29.5954 194.486 32.9745 197.113 34.6058 M 186.115 38.6151 C 185.941 45.4216 194.965 42.3818 193.639 37.3685 C 193.55 37.0315 193.201 36.6022 192.618 36.1094 C 190.722 37.1316 187.184 36.6148 186.115 38.6151"></path>
	<path fill="#D35133" d="M 193.639 37.3695 C 194.967 42.3798 185.941 45.4216 186.115 38.6161 C 187.184 36.6158 190.723 37.1326 192.617 36.1144 C 193.202 36.603 193.549 37.0287 193.639 37.3695"></path>
</g>
</svg>
