<!--?xml version="1.0" encoding="utf-8"?-->
<!-- Generator: Adobe Illustrator 17.1.0, SVG Export Plug-In . SVG Version: 6.00 Build 0)  -->

<svg version="1.1" id="Layer_1" xmlns="http://www.w3.org/2000/svg" xmlns:xlink="http://www.w3.org/1999/xlink" x="0px" y="0px" viewBox="0 0 500 500" width="500px" height="500px" enable-background="new 0 0 500 500" xml:space="preserve">
<path fill="#8DC63F" stroke="#009444" stroke-width="8" stroke-linecap="round" stroke-linejoin="round" stroke-miterlimit="10" d="M 248.647 68.4722 C 284.642 68.6698 291.416 205.811 291.416 205.811 C 291.416 205.811 418.971 173.672 428.113 210.257 C 437.255 246.843 309.699 300.406 309.699 300.406 C 309.699 300.406 371.678 442.299 342.445 462.153 C 313.212 482.008 233.919 336.041 233.919 336.041 C 233.919 336.041 136.967 375.779 107.922 353.889 C 78.8766 331.998 167.823 271.47 167.823 271.47 C 167.823 271.47 38.5191 218.435 51.4639 189.322 C 64.4087 160.21 202.835 203.675 202.835 203.675 C 202.835 203.675 212.651 68.2747 248.647 68.4722"></path>
</svg>
