<svg version="1.1" id="Layer_1" xmlns="http://www.w3.org/2000/svg" xmlns:xlink="http://www.w3.org/1999/xlink" x="0px" y="0px" viewBox="0 0 500 500" width="500px" height="500px" enable-background="new 0 0 500 500" xml:space="preserve"><defs></defs><path d="M248.6468511907343,68.47222571469503L249.73027931168883,68.52047395326291L250.79908543189765,68.65209309891327L251.85335571857286,68.86535286057095L252.89317030729404,69.15851966197091L253.91860362154355,69.52985687891366L254.92972459560045,69.97762501512733L255.9265968113289,70.50008182619366L256.90927855801124,71.09548239972338L257.87782282321444,71.76207919892705L258.8322772217448,72.49812207589136L259.7726838689925,73.30185826021436L260.6990792044224,74.17153232815299L261.6114937705783,75.10538615707527L262.5099519527711,76.10165886977445L263.39447168457633,77.15858677307965L264.2650641244023,78.27440329517711L265.121733308693,79.44733892613141L265.96447578780214,80.67562116625544L266.7932802512351,81.95747448721804L267.6081271497934,83.29112031108728L268.4089883231885,84.67477701288183L269.1958266429086,86.10665995262357L269.9685956815473,87.5849815433513L270.72723942140055,89.10795136203751L271.47169201692606,90.67377631083987L272.2018776276033,92.28066083658142L272.9177103398002,93.9268072167622L273.6190941984039,95.61041592071653L274.3059233711342,97.3296860547L274.9780824705515,99.08281589966055L275.63544706065977,100.86800355015087L276.2778843765758,102.68344766220727L276.9052542867701,104.52734831695828L277.51741052771047,106.3979080051631L278.114202240074,108.29333273570894L278.69547583378454,110.21183326824224L279.2610772056691,112.1516264664906L279.8108543282088,114.11093676439404L280.34466022037907,116.08799773188171L280.8623563016901,118.08105372102622L281.36381611803944,120.08836156645863L281.8489294128214,122.1081923064973L282.31760649897143,124.13883288367445L282.769782867554,126.1785877755873L283.2054239466807,128.22578049971023L283.6245299018006,130.27875492953777L284.0271403458999,132.33587635482218L284.4133388073332,134.39553221642726L284.7832567856078,136.4561324471304L285.1370772133727,138.5161093542213L285.4750371380554,140.57391698846212L285.7974294408977,142.62802995717885L286.10460342602806,144.67694165692302L286.39696413861896,146.71916192287702L286.6749703092257,148.75321411715876L286.93913087028983,150.77763170517412L287.1900000486161,152.79095439655873L287.4281711014801,154.79172395315308L287.65426883007405,156.77847978887522L287.8689410677629,158.7497545033493L288.07284939743397,160.70406950107613L288.26665939755276,162.6399308496158L288.4510307466192,164.55582552316187L288.6266075278634,166.4502181622159L288.7940090690068,168.32154845676567L288.953821626115,170.168229231025L289.1065911779183,171.9886452745263L289.25281754076946,173.78115292956076L289.39294994892475,175.5440804110785L289.52738417489513,177.27572880444785L289.6564611950418,178.97437366076426L289.7804673408218,180.63826709001782L289.89963581974945,182.26564024005913L290.014149444846,183.85470604404327L290.1241443785638,185.40366212041783L290.2297146773051,186.9106937166797L290.3309174151203,188.37397659987315L290.4277781686564,189.79167981182232L290.5202966581084,191.16196822404285L290.6084523587074,192.4830048449104L290.6922099220365,193.75295284890433L290.771524274165,194.96997731372275L290.8463452864855,196.1322466651552L290.9166219437551,197.23793384139557L290.9823059610932,198.28521719778715L291.0433548267706,199.27228117979917L291.09973427010044,200.19731679644826L291.1514201733476,201.05852192864526L291.1983999633049,201.854101507346L291.240673532156,202.58226759527128L291.27825374863255,203.2412394036873L291.31116662955105,203.82924327268674L291.33945124881933,204.34451263991352L291.3631594661584,204.7852880190876L291.38235556129627,205.1498170062982L291.3971158613498,205.4363543291139L291.4075284495714,205.64316195131914L291.41369304253607,205.7685092446922L291.4157211200118,205.81067323879086" class="target-curve-polyline" stroke="#ff00ff" style="stroke-width: 3px; fill-opacity: 0; stroke-dasharray: 20px, 10px, 5px, 5px, 5px, 10px;"></path><line x1="281.72694999751457" x2="283.2054239466807" y1="127.88341573530218" y2="128.22578049971023" class="distance-line" stroke="#0000ff" style="stroke-width: 2px; fill-opacity: 0;"></line><path d="M291.4157211200118,205.81067323879086L291.45412687237496,205.80099056158176L291.568345443914,205.77235350531728L291.7568796756638,205.7253846466204L292.01823331840717,205.6607141702119L292.3509107327889,205.57897913070806L292.7534166035034,205.48082265832764L293.22425566702594,205.36689312482L293.7619324526775,205.23784328495282L294.3649510377814,205.0943294079455L295.03181481908547,204.9370104122482L295.76102630426567,204.76654701600597L296.55108692893805,204.58360091434665L297.4004969059626,204.38883399325337L298.30775511473,204.18290758823807L299.2713590384106,203.96648179430827L300.28980475673706,203.7402148319012L301.36158700075,203.50476247159196L302.4851992740935,203.2607775185829L303.6591340430178,203.00890935633234L304.8818829943686,202.74980354729183L306.15193735771754,202.48410148766433L307.4677882846143,202.21244011242723L308.8279272749529,201.93545164661376L310.2308466378157,201.65376339899817L311.67503997207854,201.36799759484063L313.15900265064226,201.0787712451484L314.6812322914885,200.7866960509036L316.24022919885124,200.49237834178905L317.8344967586429,200.19641905000316L319.4625417737936,199.89941372069129L321.12287472725285,199.60195256124808L322.81400996293996,199.30462053219617L324.53446577775895,199.00799748248406L326.2827644207743,198.71265833185515L328.0574319986318,198.4191733024328L329.8569982891696,198.1281082008792L331.67999646779407,197.84002475147136L333.52496275350245,197.5554809792584L335.3904359833565,197.27503164119818L337.2749571257123,196.99922870188732L339.1770687435697,196.72862184926726L341.0953144200347,196.4637590445776L343.0282381581061,196.20518709988204L344.9743837668319,195.95345227575353L346.9322942454026,195.7091008912025L348.90051117597864,195.4726799376713L350.87757413506466,195.2447376889019L352.8620201320992,195.02582429870318L354.85238308266514,194.81649237907104L356.8471933224169,194.617297551731L358.84497716648025,194.42879896692958L360.8442565177901,194.2515597841876L362.84354852657657,194.08614761067824L364.841365302058,193.9331348938951L366.8362136763442,193.79309926628673L368.8265950196192,193.66662384052046L370.81100510486914,193.55429745498645L372.78793401973746,193.456714870028L374.75586612254733,193.37447691618274L376.71328003910264,193.30819059642008L378.658648696572,193.25846914496373L380.590439390557,193.22593204578263L382.50711388134147,193.2112050142341L384.4071285152942,193.21491994563348L386.2889343674488,193.23771483472953L388.150977401393,193.28023367018187L389.99169864275575,193.34312630817504L391.8095343627778,193.427048329279L393.60291626866996,193.53266088258135L395.3702716977045,193.66063052099037L397.1100238122349,193.81162903144138L398.82059179309084,193.9863332635487L400.50039102904367,194.18542496003684L402.14783330028143,194.40959059206799L403.7613269540607,194.6595212023613L405.3392770709143,194.93591225878498L406.8800856199966,195.23946352089752L408.3821516023176,195.57087892171967L409.84387118078047,195.9308664668524L411.2636377960694,196.3201381528989L412.63984226754843,196.7394099070286L413.9708728784276,197.18940154941905L415.2551154445169,197.67083678024233L416.4909533659477,198.18444319282588L417.67676766126306,198.73095231460834L418.810936983288,199.31109967753557L419.8918376161842,199.92562491960922L420.9178434530583,200.5752719193918L421.887325953445,201.2607889654096L422.7986540799151,201.98292896257178L423.650194212975,202.7424496779399L424.4403100433068,203.5401140284438L425.16736244028,204.3766904134539L425.8297092955093,205.25295309547937L426.4257053400618,206.16968263268484L426.9537019337267,207.1276663673982L427.4120468245368,208.12769897533548L427.7990838764806,209.17058308089412L428.1131527630775,210.2571299445836" class="target-curve-polyline" stroke="#ff00ff" style="stroke-width: 3px; fill-opacity: 0; stroke-dasharray: 20px, 10px, 5px, 5px, 5px, 10px;"></path><line x1="373.29787920982733" x2="372.78793401973746" y1="192.99949673492267" y2="193.456714870028" class="distance-line" stroke="#0000ff" style="stroke-width: 2px; fill-opacity: 0;"></line><path d="M428.1131527630775,210.2571299445836L428.3488307839216,211.3709564867592L428.50283017544706,212.49491932158963L428.5766938741829,213.62869096668464L428.57197008750904,214.77193909204163L428.49021200680244,215.92432666776523L428.3329775418204,217.08551210028853L428.1018290761371,218.25514935491364L427.79833324336266,219.43288806285375L427.42406072380123,220.6183736112498L426.9805860611757,221.81124721487396L426.4694874990195,223.0111459684163L425.8923468363351,224.21770287840573L425.250749302113,225.43054687393018L424.5462834483238,226.64930279541946L423.7805410609953,227.8735913608332L422.9551170890069,229.1030291086623L422.0716095902342,230.3372283172167L421.1316196946864,231.5757968997318L420.136751584272,232.8183382748939L419.0886124888189,234.06445121246003L417.9888126979536,235.31372965373663L416.8389655884109,236.56576250679154L415.64068766629606,237.8201334164031L414.3955986237661,239.0764205089148L413.10532140950784,240.3341961123524L411.77148231230456,241.59302645239833L410.3957110568576,242.85247132508795L408.9796409108971,244.11208374742006L407.52490880245585,245.37140958744735L406.03315544599405,246.62998717584708L404.50602547586334,247.88734690146634L402.94516758536344,249.14301079389577L401.3522346693947,250.39649209674982L399.72888396843126,251.64729483602787L398.07677721124554,252.89491338868916L396.39758075349494,254.13883205740464L394.69296570895006,255.37852465833322L392.9646080698003,256.6134541297154L391.2141888121189,257.84307217005966L389.4433939822207,259.06681891571276L387.6539147593014,260.28412266863L385.84744748942063,261.49439968617406L384.02569368559955,262.6970540457468L382.190359988543,263.89147759795543L380.34315808230485,265.0770500228071L378.4858045590903,266.25313900405826L376.6200207273522,267.41910053727247L374.7475323574249,268.5742793873168L372.87006935914087,269.71800971087606L370.9893653862416,270.849615859055L369.10715736292536,271.96841337417715L367.22518492859984,273.0737101934483L365.34518979784576,274.16480807016507L363.4689150337535,275.24100422056216L361.5981042341896,276.3015932011892L359.734500632182,277.3458690178649L357.8798461134772,278.3731274627703L356.0358801564017,279.3826686711507L354.20433870144564,280.37379988345884L352.38695296041135,281.34583839266656L350.5854481775093,282.29811465004383L348.80154235735125,283.22997549609903L347.03694497731647,284.1407874768082L345.29335570413946,285.0299401989501L343.5724631366963,285.89684967257665L341.8759435987178,286.7409615836624L340.205460006425,287.5617544360617L338.5626608367319,288.3587424993482L336.94917922159846,289.1314784981482L335.36663219324305,289.8795559794286L333.8166201031774,290.6026112969823L332.30072623537524,291.30032515715874L330.820516630342,291.9724236766506L329.3775401324844,292.61867891178036L327.97332866807676,293.23890882895785L326.609397755466,293.83297669749675L325.28724724313986,294.400789898347L324.008362265161,294.942298155042L322.77421439749935,295.4574912057313L321.5862629932706,295.9463959470444L320.44595667009634,296.409073091187L319.35473491897017,296.8456133866373L318.3140298014089,297.25613345974165L317.325267700408,297.640771339109L316.3898710909513,297.99968172687767L315.5092602975354,298.3330310806389L314.68485520935303,298.64099256721414L313.91807692828854,298.92374094482386L313.21034933053824,299.181447423796L312.563100529244,299.41427454828863L311.9777642327174,299.62237113295197L311.4557810003267,299.80586727955153L310.9985994055892,299.964869489744L310.6076771230914,300.0994558818902L310.28448196225077,300.20967151240455L310.03049287627135,300.29552379601057L309.84720097864965,300.35697801473174L309.73611060197607,300.3939529027554L309.69874043425943,300.406316293731" class="target-curve-polyline" stroke="#ff00ff" style="stroke-width: 3px; fill-opacity: 0; stroke-dasharray: 20px, 10px, 5px, 5px, 5px, 10px;"></path><line x1="367.67116858157453" x2="365.34518979784576" y1="271.7369769057057" y2="274.16480807016507" class="distance-line" stroke="#0000ff" style="stroke-width: 2px; fill-opacity: 0;"></line><path d="M309.69874043425943,300.406316293731L309.71212683091665,300.45600439305576L309.7517930431951,300.60387804008144L309.8169909064819,300.84824677119013L309.90696206553645,301.18753959917353L310.0209402671064,301.62029464786497L310.15815421182776,302.14514818632125L310.3178308770193,302.76082306690904L310.49919922833726,303.46611654888255L310.70149424298796,304.2598874748261L310.92396117038595,305.1410427609953L311.16585995792383,306.10852316358483L311.4264697700255,307.16128829088615L311.7050935280601,308.29830084581965L312.0010623972,309.5185101041458L312.31374014412376,310.8208346604325L312.6425272868579,312.2041445062097L312.9868649552818,313.6672425421398L313.34623837822005,315.20884566779955L313.720179910933,316.82756563787126L314.10827151558993,318.52188992102566L314.510146607332,320.2901628460312L314.9254911802399,322.1305673668943L315.354044131313,324.04110782299347L315.79559670682994,326.01959410884666L316.24999100456085,328.06362769875244L316.7171174775114,330.17058999133343L317.196911400387,332.3376334452629L317.68934827882515,334.56167596761344L318.19443820353075,336.83939898811786L318.71221917646403,339.16724960453644L319.2427494636348,341.54144711541903L319.78609905810987,343.95799416697923L320.3423403665526,346.4126926318029L320.9115382618281,348.90116421129954L321.493739671595,351.4188756149724L322.08896289694815,353.96116802284325L322.6971868746725,356.52329038885546L323.3183406101765,359.1004359997106L323.95229301457044,361.68778157264L324.5988433777969,364.28052806432447L325.2577126997478,366.8739422781073L325.928536082897,369.46339830335353L326.6108563636067,372.04441780319144L327.3041191258568,374.61270818697744L328.0076692020793,377.16419776150303L328.7207487227631,379.69506704791036L329.44249673150335,382.2017755750896L330.17195033726676,384.6810836088603L330.9080473328746,387.13006844197173L331.6496301699508,389.54613504463407L332.3954511474067,391.92702105040615L333.14417864417845,394.2707962197325L333.89440420812616,396.57585667600785L334.6446503020837,398.8409143408614L335.3933785048691,401.0649821020883L336.1389979690934,403.2473553267221L336.87987394799893,405.3875903822704L337.6143362192128,407.4854808518629L338.3406872530092,409.5410321260331L339.0572099951296,411.5544350282179L339.7621751581944,413.52603908664133L340.4538479400783,415.456326006294L341.1304941113509,417.3458838255486L341.7903854361545,419.1953821667133L342.43180441111946,421.00554891229257L343.0530483246477,422.7771485621525L343.65243265392587,424.51096245384934L344.22829382923334,426.207770961084L344.7789914045912,427.8683377250349L345.3029096806759,429.4933959210477L345.79845883045334,431.0836365191794L346.26407558044934,432.63969846138264L346.69822350127015,434.16216065028635L347.099392960239,435.6515356240015L347.46610078713024,437.1082647773799L347.7968897012261,438.53271498183744L348.0903275445816,439.92517645233426L348.345006362649,441.28586171050625L348.5595413695062,442.61490549643145L348.73256983097775,443.9123654873207L348.8627498950939,445.17822368885277L348.9487593956665,446.4123883733254L348.98929465136393,447.6146964477231L348.9830692795794,448.7849161437954L348.9288130416543,449.92274993088455L348.8252707336425,451.02783756026406L348.67120113481235,452.09975915685914L348.4653760244699,453.1380382802307L348.206579276453,454.14214488139777L347.8936060397886,455.1114980852998L347.52526201352,456.0454687302928L347.1003628235942,456.94338159584856L346.6177335099587,457.80451724741624L346.0762081326498,458.6281134229887L345.47462950668177,459.41336587903396L344.81184907698383,460.1594286038093L344.0867269464989,460.86541329329384L343.29813207290294,461.53038796860767L342.4449426522557,462.15337459329663" class="target-curve-polyline" stroke="#ff008c" style="stroke-width: 3px; fill-opacity: 0; stroke-dasharray: 20px, 10px, 5px, 5px, 5px, 10px;"></path><line x1="339.4844277719192" x2="330.17195033726676" y1="381.91098124642474" y2="384.6810836088603" class="distance-line" stroke="#0000ff" style="stroke-width: 2px; fill-opacity: 0;"></line><path d="M342.4449426522557,462.15337459329663L341.54003968669304,462.72451382492056L340.5976708620221,463.2355636706299L339.61877866968115,463.68789412743524L338.6043142555295,464.0828198967319L337.5552369120818,464.4216028687377L336.4725137681463,464.7054535236466L335.35711965424406,464.93553132756807L334.2100371256685,465.1129441893406L333.0322566279391,465.238747034087L331.8247767917677,465.3139395409727L330.58860484652394,465.3394630860853L329.3247571426086,465.31619692676816L328.03425977411433,465.2449536612097L326.7181492937199,465.12647399676734L325.37747351189194,464.96142086256265L324.01329237219034,464.750372906534L322.62667889374904,464.49381742463584L321.2187201708342,464.19214278047923L319.7905184177438,463.8456303877433L318.3431920451787,463.4544463454102L316.8778767515783,463.0186328376043L315.395726609752,462.53809943575953L313.8979151254513,462.01261447117076L312.38563624033344,461.44179668073474L310.86010524710287,460.82510736770485L309.3225595795418,460.16184336219123L307.7742594347869,459.45113111220184L306.2164881797061,458.6919222841381L304.65055248782784,457.88299130019675L303.07778214824134,457.022935286898L301.4995294835992,456.1101769510857L299.9171683112634,455.1429709336581L298.33209238025256,454.1194142126785L296.74571321759515,453.0374611313966L295.1594573215944,451.89494360754213L293.5747626470502,450.68959703216814L291.99307433929056,449.41909228347095L290.4158396904986,448.08107415811907L288.844502313646,446.6732063554839L287.2804955565026,445.19322293659286L285.72523521042683,443.63898592008263L284.18011160528795,442.0085483760517L282.6464812217071,440.3002220439139L281.12565799305736,438.5126481454695L279.618904509971,436.6448697077399L278.12742337663013,434.6964033746278L276.6523489976625,432.6673083987536L275.1947400937024,430.5582502933478L273.75557324948716,428.370556516852L272.3357377881393,426.1062615844528L270.93603223735494,423.7681391691178L269.55716260715747,421.3597190782077L268.19974263574784,418.8852874666645L266.86429608248613,416.34986925702725L265.5512610593977,413.75919244957333L264.2609963003134,411.1196347805194L262.9937891761586,408.4381539718758L261.74986518253473,405.72220355882973L260.52939855771825,402.9796369266931L259.3325236405581,400.2186026936683L258.1593465519198,397.4474349039644L257.00995678177503,394.67454162913884L255.88443828619071,391.9082955116604L254.78287974179835,389.15692953742314L253.70538366573177,386.4284409210817L252.6520741812994,383.73050546764625L251.62310328810506,381.0704041794891L250.6186555742938,378.4549632545984L249.63895138301137,375.89050801125666L248.6842485108643,373.3828307115215L247.75484257019738,370.9371717676371L246.8510661876162,368.5582134189375L245.97328723783278,366.2500846698284L245.12190632507404,364.0163760816987L244.2973537252429,361.86016290620665L243.50008599261173,359.78403502273767L242.73058241720915,357.79013218460926L241.98934149552565,355.88018317143514L241.27687754990305,354.0555475739396L240.59371760302577,352.31725908876695L239.94039858504206,350.6660693628452L239.31746492344303,349.1024915902193L238.72546654102194,347.6268432220036L238.16495726580368,346.23928729728857L237.63649363925708,344.93987203650414L237.14063409559276,343.7285684573448L236.67793847550288,342.6053058765891L236.248967832112,341.570005249351L235.85428448483128,340.6226103714131L235.49445227779734,339.76311703142903L235.17003700307487,338.99160024905234L234.88160695425185,338.3082397735078L234.6297335828425,337.7133440455541L234.4149922374583,337.20737284470476L234.23796297344407,336.7909588531866L234.0992314280988,336.46492836823717L233.99938976325868,336.2303213844669L233.93903768255657,336.088411247211L233.91878353481732,336.0407240447482" class="target-curve-polyline" stroke="#ff003b" style="stroke-width: 3px; fill-opacity: 0; stroke-dasharray: 20px, 10px, 5px, 5px, 5px, 10px;"></path><line x1="292.49845260216875" x2="279.618904509971" y1="427.4782564127176" y2="436.6448697077399" class="distance-line" stroke="#0000ff" style="stroke-width: 2px; fill-opacity: 0;"></line><path d="M233.91878353481732,336.0407240447482L233.88706565363248,336.05249664015594L233.79267001535493,336.087189855687L233.6367336186531,336.14366251651376L233.42039276752882,336.2205149939388L233.14478215704008,336.3161060809142L232.81103389227394,336.4285693380525L232.42027644940407,336.55582914127314L231.97363359030447,336.6956166847551L231.4722232466076,336.84548620978046L230.91715639504775,337.00283174231777L230.30953595307366,337.1649046304165L229.65045573164227,337.32883217689124L228.94099949033952,337.49163766323693L228.18224014800114,337.6502620567782L227.37523920926262,337.8015876838602L226.52104647339928,337.94246413626166L225.62070009583215,338.0697366543812L224.67522707423532,338.180277197214L223.6856442297461,338.27101836350596L222.65295974889005,338.33899026830966L221.57817534307983,338.38136040199566L220.46228906962244,338.3954764021802L219.30629884088475,338.3789115510099L218.1112066265651,338.3295126694704L216.8780233280347,338.2454499166285L215.6077742737793,338.12526781630015L214.30150525168742,337.9679366298925L212.96028895818574,337.7729029779012L211.58523170723802,337.5401383924009L210.17748020558454,337.27018427057595L208.73822816625602,336.96419150965426L207.2687225026288,336.62395295400825L205.770268822649,336.25192669506L204.24423593001745,335.851248254081L202.69205903873612,335.42572976611046L201.1152414217975,334.9798444860034L199.51535424571148,334.51869526554185L197.89403439088093,334.04796610618973L196.25298012324322,333.5738564679775L194.59394456339038,333.1029986922997L192.91872699232684,332.64235964427934L191.2291621334224,332.1991284570998L189.52710765198782,331.78059301602184L187.81443021042884,331.39400849876563L186.0929905010149,331.0464618369146L184.36462774324468,330.7447363313685L182.6311441730246,330.4951808065043L180.89429006259823,330.30358760168275L179.15574979179758,330.17508337331947L177.41712944367052,330.11403613439137L175.6799463241996,330.12398122801756L173.94562071214744,330.20756806976846L172.2154700380002,330.3665285612875L170.49070557832164,330.6016671406277L168.7724316413459,330.91287155417285L167.06164711837368,331.29914266412163L165.3592491892043,331.7586409841308L163.66603890242783,332.2887471883897L161.98272830502574,332.886133574714L160.30994877065294,333.5468433742397L158.64826017089803,334.2663748709708L156.9981605461847,335.0397674971781L155.36009595943523,335.86168737389943L153.7344702524086,336.72651013649147L152.1216544679904,337.6283992917225L150.52199574815933,338.5613787672677L148.9358255638888,339.5193987137031L147.36346717747438,340.496393985817L145.80524227796417,341.4863350525941L144.26147676538895,342.4832713570017L142.7325056887639,343.48136736557746L141.21867736624932,344.47493171509177L139.7203567336456,345.45843998304724L138.23792798003225,346.42655168595587L136.771796537476,347.37412215051637L135.32239049602646,348.29620991459933L133.890161516421,349.1880803037484L132.47558531170898,350.04520580059636L131.079161766016,350.86326378441424L129.70141475444728,351.6381321703437L128.3428917231517,352.3658834263904L127.00416308320142,353.04277739380257L125.68582146651298,353.6652532852577L124.38848088675499,354.2299211869068L123.11277584325137,354.7335533458995L121.85936040139758,355.1730754852219L120.62890727916958,355.54555835291717L119.42210696595023,355.8482096831941L118.23966689717008,356.07836672250704L117.08231070617566,356.23348945433634L115.95077757328919,356.31115464186104L114.845821691232,356.30905079780945L113.76821186593558,356.2249741852261L112.71873127226789,356.0568259514852L111.69817738537832,355.8026105004118L110.70736211020909,355.46043521362355L109.7471121342833,355.0285116420495L108.81826953217445,354.5051583018264L107.92169265414131,353.88880522530417" class="target-curve-polyline" stroke="#ff0000" style="stroke-width: 3px; fill-opacity: 0; stroke-dasharray: 20px, 10px, 5px, 5px, 5px, 10px;"></path><line x1="172.41639260975745" x2="167.06164711837368" y1="355.45440223492784" y2="331.29914266412163" class="distance-line" stroke="#0000ff" style="stroke-width: 2px; fill-opacity: 0;"></line><path d="M107.92169265414131,353.88880522530417L107.07148894315654,353.18856048359197L106.2804672582793,352.41553656856854L105.5475651106905,351.57134044857963L104.8717371612038,350.657683762762L104.25195446314737,349.67637683655073L103.68720397900525,348.62932449150344L103.17648834241983,347.5185234065367L102.71882584058989,346.34606081785853L102.31325059488509,345.114114369092L101.95881291965024,343.8249529418802L101.65457984073299,342.4809383112198L101.39963575623953,341.0845274793028L101.19308322243525,339.6382755471798L101.0340438475665,338.1448389854398L100.92165927570184,336.60697916365973L100.85509224148093,335.0275659939166L100.83352767493764,333.40958153652014L100.85617383333965,331.75612340662684L100.92226343428845,330.0704078089682L101.03105476118597,328.35577201499666L101.1818327086494,326.61567608289477L101.37390973161132,324.85370360675455L101.6066266577795,323.0735612676069L101.87935331896986,321.27907694679857L102.19148895272477,319.474196152541L102.54246232178684,317.6629765045558L102.93173149564268,315.84958002094066L103.35878323575862,314.03826295722405L103.82313192460906,312.2333629615689L104.32431797848899,310.43928333386737L104.8619056857624,308.6604742114813L105.4354804160036,306.9014105520249L106.0446451517845,305.1665668448199L106.68901630396554,303.46038855810457L107.36821878351675,301.78726041868896L108.08188031825628,300.1514717237125L108.82962502147646,298.55717899878357L109.61106624104337,297.00836644027487L110.42579874185685,295.5088047080954L111.27339030092818,294.0620087638596L112.15337282195243,292.67119557208844L113.06523310404107,291.3392425920829L114.00840342597667,290.0686480781199L114.98225213151227,288.8614942682175L115.98607442136033,287.71941456991584L117.01908357208664,286.64356583931954L118.08040280975929,285.634606792627L119.16905806575328,284.69268348526464L120.28397183277383,283.8174226428624L121.42395832059717,283.0079334339016L122.5877200834108,282.26281804212476L123.77384625471497,281.5801911367721L124.98081248281959,280.95770806179394L126.20698261183196,280.39260128451974L127.45061210186616,279.8817243737989L128.70985313044852,279.4216025311753L129.982761267253,279.0084884888638L131.26730356878176,278.63842242569007L132.56136790053023,278.3072944443973L133.86277326324876,278.0109081050572L135.16928087829075,277.74504352039645L136.47860577529156,277.505518586738L137.788428623521,277.2882470428991L139.09640755559778,277.0892922101632L140.4001897477833,276.90491545894L141.6974225433567,276.7316186606352L142.98576393296693,276.56618010514353L144.26289223661578,276.4056835845225L145.52651486435283,276.24754055233865L146.77437606528812,276.0895054581702L148.00426360581812,275.92968452203576L149.21401434693965,275.766538350373L150.4015187164198,275.59887890183813L151.56472409390665,275.4258613875938L152.7016371455834,275.24697173832044L153.81032515969346,275.06201029143284L154.8889164453769,274.8710723502129L155.9355998650838,274.6745262455093L156.94862357576852,274.472989494214L157.92629305657647,274.2673036007243L158.86696850126194,274.0585079916299L159.76906165258157,273.84781351313745L160.63103215378376,273.6365758580398L161.45138348944448,273.426269226665L162.22865858458206,273.2184604660583L162.96143512749626,273.01478387506506L163.6483206783284,272.8169168110568L164.28794762212678,272.6265561874801L164.87896802235508,272.44539591066746L165.4200484284466,272.27510526971605L165.9098646892816,272.11730826481806L166.34709682345445,271.9735638372973L166.73042399699534,271.84534694879363L167.0585196599178,271.73403044760727L167.33004689466657,271.6408676573109L167.5436540323523,271.56697562659537L167.69797059667218,271.51331899036313L167.79160364073937,271.4806944108869L167.82313454878474,271.4697155952535" class="target-curve-polyline" stroke="#ff001a" style="stroke-width: 3px; fill-opacity: 0; stroke-dasharray: 20px, 10px, 5px, 5px, 5px, 10px;"></path><line x1="130.9725512694072" x2="118.08040280975929" y1="300.7254806356859" y2="285.634606792627" class="distance-line" stroke="#0000ff" style="stroke-width: 2px; fill-opacity: 0;"></line><path d="M167.82313454878474,271.4697155952535L167.7825032496042,271.4480345228568L167.66178944261654,271.3835388651506L167.46276467935104,271.27707748565564L167.1872025440404,271.12953438598294L166.83687907334445,270.9418271603334L166.4135734013738,270.71490582799214L165.91906855886782,270.4497519171581L165.35515235656896,270.14737767579106L164.72361828559085,269.80882528952344L164.02626637177374,269.43516599311073L163.26490392654134,269.0274989704732L162.4413461435042,268.58694994925384L161.55741649786532,268.1146694090818L160.61494691442732,267.6118303384093L159.61577767948927,267.0796254927426L158.56175708192004,266.51926412704603L157.45474077894767,265.9319681965733L156.29659089239277,265.3189680427469L155.0891748508861,264.6814976031606L153.83436400269716,264.02078920644226L152.53403203185005,263.33806803263315L151.1900532169088,262.634546336991L149.8043005769409,261.91141754887855L148.37864395253666,261.16985036696053L146.91494807127145,260.41098297681424L145.41507064664836,259.63591751704075L143.88086055741996,258.84571491503743L142.31415615043423,258.04139020408127L140.71678370500746,257.22390841976477L139.09055609059132,256.3941811568835L137.4372716425009,255.55306384843666L135.75871327304554,254.70135380746612L134.05664782788935,253.8397890509692L132.33282569018002,252.96904790404875L130.58898062819617,252.08974936264906L128.82682987618688,251.2024541753737L127.0480744328919,250.3076665895725L125.25439955802918,249.4058366944654L123.44747544387106,248.49736328477115L121.6289580368976,247.58259716213954L119.80048998335943,246.6618447885565L117.96370167232955,245.73537220555923L116.12021235034922,244.80340913524242L114.2716312829645,243.8661531832828L112.41955894016672,242.92377407013737L110.56558818485848,241.97641782375769L108.71130544584663,241.02421087520727L106.8582918593927,240.06726400709613L105.0081243659322,239.10567611341034L103.16237675112333,238.1395377378497L101.32262062282344,237.16893436593875L99.49042631788649,236.19394945379207L97.66736373475793,235.21466718333852L95.85500308972328,234.23117493997813L94.05491559630235,233.24356551400479L92.2686740686867,232.2519390316713L90.49785345129227,231.25640462552036L88.7440312774485,230.2570818565868L87.00878806099612,229.25410190336345L85.29370762512144,228.2476085340571L83.60037737315005,227.23775887974008L81.93038850626439,226.22472402657402L80.28533619323098,225.20868944544407L78.66681969723349,224.18985527714594L77.07644246483096,223.16843649078666L75.51581218191671,222.14466293236376L73.98654080135084,221.11877927961413L72.49024454669888,220.0910449182363L71.02854389623872,219.06173375352108L69.60306355111206,218.0311339703187L68.2154323912005,216.99954775314808L66.86728342200831,215.96729097714285L65.56025371554294,214.9346928794519L64.29598434790032,213.90209571967654L63.076120335994425,212.8698544369527L61.902310575613626,211.83833631036643L60.77620778275386,210.8079206285529L59.69946843995796,209.778998373544L58.67375274919659,208.7519719232328L57.70072459264176,207.72725477617232L56.7820515025311,206.70527130186568L55.9194046411717,205.68645651917882L55.11445879201329,204.6712559050576L54.36889236260707,203.66012523531947L53.684387400174685,202.65353045892806L53.06262962042287,201.6519476068268L52.505308450174184,200.65586273611692L52.01411708431345,199.665771910083L51.59075255749285,198.68218121430814L51.23691583098688,197.70560680886823L50.95431189502858,196.7365750163238L50.74464988690696,195.77562244496127L50.609643225041154,194.82329614642592L50.551009759175074,193.88015380655304L50.57047193675347,192.9467639678119L50.669756985431746,192.02370628131587L50.85059711154541,191.11157178581516L51.114729714203506,190.2109632104354L51.46389761446886,189.32249529716233" class="target-curve-polyline" stroke="#ff00fa" style="stroke-width: 3px; fill-opacity: 0; stroke-dasharray: 20px, 10px, 5px, 5px, 5px, 10px;"></path><line x1="122.40836458008334" x2="123.44747544387106" y1="250.57211209231698" y2="248.49736328477115" class="distance-line" stroke="#0000ff" style="stroke-width: 2px; fill-opacity: 0;"></line><path d="M51.46389761446886,189.32249529716233L51.89332003860153,188.4602324122312L52.39605305237499,187.63757324230315L52.970596224362126,186.85413391121034L53.615445691566265,186.10951882400585L54.32909438314406,185.40332145235007L55.11003221573009,184.73512502721363L55.956746262123566,184.10450314538025L56.867720894883725,183.51102029550833L57.84143790619217,182.95423230886234L58.876376605176986,182.43368673927344L59.97101389375253,181.94892317640426L61.12382432190777,181.49947349598517L62.33328012327626,181.08486205034686L63.597851231737764,180.704605802293L64.91600527973937,180.3582144051406L66.28620757897774,180.04519023159352L67.70692108405729,179.76502835401192L69.17660633972902,179.51721647859074L70.69372141232317,179.30123483596486L72.25672180601569,179.1165560308174L73.86406036461236,178.96264485317255L75.51418715959879,178.83895805421642L77.20554936528445,178.7449440896925L78.93659112197004,178.68004283417167L80.70575338818496,178.6436852697921L82.5114737831772,178.6352931533977L84.35218642099053,178.6542786663746L86.22632173763162,178.7000440518833L88.13230631301126,178.77198124460497L90.06856268953806,178.86947149855774L92.03350918944383,178.99188501897535L94.02555973312866,179.13858060467797L96.04312366102111,179.30890530777424L98.08460556165464,179.50219411791593L100.14840510885475,179.71776967865407L102.23291691111137,179.95494204370772L104.33653037636395,180.21300848113137L106.457629595551,180.4912533334405L108.59459324835649,180.78894794169705L110.74579453461877,181.10535064136434L112.90960113483992,181.43970683737896L115.08437520313798,181.79124916535196L117.26847339581072,182.15919774508413L119.46024693841943,182.54276053164756L121.65804173394783,182.941133768151L123.86019851413822,183.35350254295753L126.06505303555215,183.77904145258088L128.27093632124334,184.2169153697503L130.47617494817237,184.66628031424005L132.67909137963827,185.12628442202796L134.8780043410667,185.59606900622538L137.0712292364915,186.07476970105773L139.25707860201447,186.56151767802038L141.43386259146362,187.05544092126667L143.59988948840916,187.5556655473632L145.75346623769263,188.06131715285156L147.8928989887036,188.5715221716627L150.01649364185752,189.0854092234077L152.1225563891217,189.60211043299057L154.20939423905938,190.12076270190738L156.2753155167513,190.64050891205756L158.31863032914796,191.16049904391608L160.33765098693777,191.67989119251513L162.3306923748964,192.19785246681758L164.29607226391616,192.71355976069742L166.23211155948727,193.2262003867869L168.13713448327053,193.73497256779518L170.00946868651044,194.239085783421L171.8474452962984,194.73776097450715L173.6493988980145,195.23023060946494L175.41366745951782,195.71573862104069L177.1385922046961,196.19354022404926L178.8225174456874,196.66290162661835L180.4637903843103,197.1230996486414L182.06076089388205,197.57342126147245L183.61178129257507,198.01316306238044L185.11520611871723,198.44163069595947L186.5693919169914,198.85813823266264L187.9726970423873,199.26200751204442L189.3234814861321,199.65256745536914L190.62010672483493,200.0291533491983L191.86093559094456,200.39110609866825L193.04433215958224,200.73777144664913L194.16866164411738,201.06849915306321L195.23229029075318,201.38264212750371L196.23358526108535,201.67955550805337L197.17091449124504,201.95859567990126L198.04264651694174,202.21911922897792L198.8471502554768,202.46048182828014L199.58279473856385,202.6820370577101L200.24794879341542,202.88313516192284L200.84098067383704,203.06312175466937L201.3602576477586,203.221336482247L201.80414555243172,203.35711166272026L202.17100833312713,203.46977092140634L202.45920758526358,203.55862784657245L202.66710212318932,203.62298469225433L202.79304760104566,203.66213115747843L202.83539621202937,203.67534327286154" class="target-curve-polyline" stroke="#ff00ff" style="stroke-width: 3px; fill-opacity: 0; stroke-dasharray: 20px, 10px, 5px, 5px, 5px, 10px;"></path><line x1="109.04827275969917" x2="108.59459324835649" y1="181.6123325254668" y2="180.78894794169705" class="distance-line" stroke="#0000ff" style="stroke-width: 2px; fill-opacity: 0;"></line><path d="M202.83539621202937,203.67534327286154L202.83776072231763,203.63379140992734L202.84495580233772,203.5102821331582L202.857147474046,203.30654788661803L202.87451952508292,203.02433783688736L202.89727323937652,202.66541745507223L202.92562746532474,202.23156838023547L202.95981891558588,201.72458845931243L203.00010258931138,201.1462918551887L203.04675220623298,200.49850911414273L203.10006054219545,199.7830870860179L203.1603395574718,199.00188859510337L203.22792021262057,198.15679176669312L203.30315187194734,197.24968892364694L203.38640120213267,196.28248497907032L203.4780504836567,195.2570952655558L203.57849526571957,194.17544275844602L203.688141311834,193.03945467036715L203.80740080354195,191.85105841693084L203.93668779402455,190.61217697892644L204.07641293180868,189.32472371429492L204.22697750712095,187.99059670320565L204.38876690913685,186.61167274086384L204.56214362041524,185.18980112411498L204.7474399137249,183.72679740798384L204.94495045425268,182.22443733511034L205.1549250443725,180.6844511624671L205.37756177592388,179.10851862343128L205.61300087326742,177.49826476692616L205.86131951631896,175.85525690688328L206.1225279237429,174.18100289319085L206.3965669507116,172.4769508788795L206.683307412389,170.74449070793122L206.98255128425802,168.9849569853948L207.29403485580573,167.19963381938146L207.61743382872444,165.38976114711187L207.95237025984912,163.5565424795464L208.2984211587128,161.70115382681294L208.6551284664509,159.82475350515745L209.02201007318138,157.92849248039494L209.3985714803499,156.01352487652613L209.78431768674548,154.08101827342495L210.17876487387753,152.13216343452612L210.58145148788992,150.16818314259666L210.99194835882707,148.1903398756391L211.4098675597107,146.19994212114128L211.83486978213114,144.19834919990166L212.26667008588018,142.18697454503712L212.70504196151035,140.16728745238808L213.14981972118673,138.14081338113127L213.6008993003941,136.10913293485714L214.05823760787777,134.07387969182975L214.5218506019397,132.03673707803813L214.99181029746427,129.99943448846847L215.46824092057452,127.96374286217582L215.9513144281586,125.93146990715417L216.44124559982555,123.90445515398386L216.93828689250537,121.88456499509721L217.4427232253376,119.87368784143491L217.95486683691516,117.87372950219196L218.4750523303049,115.88660886781567L219.00363199512006,113.91425395260377L219.54097147143605,111.9585983319438L220.08744579832887,110.02157799090865L220.64343587072617,108.10512858574597L221.20932531230034,106.21118310774783L221.78549775926274,104.34166992985669L222.37233453997092,102.49851120986216L222.97021272794797,100.68362161981291L223.57950354090144,98.89890736893837L224.20057105526143,97.14626548657397L224.83377120426985,95.4275833319743L225.47945102742332,93.74473829916663L226.13794813979342,92.09959768689129L226.80959039115848,90.49401870596427L227.49469568676946,88.92984859890971L228.19357194374186,87.40892484930298L228.90651715938964,85.93307546083489L229.63381957016693,84.50411928857564L230.37575788218848,83.1238664072325L231.1326015564839,81.79411850331708L231.90461113418183,80.5166692800628L232.69203858866888,79.29330486563099L233.49512769342584,78.12580421663964L234.31411439569655,77.01593951032913L235.14922718739206,75.96547651977102L236.00068746567632,74.97617496742333L236.8687098765341,74.04978885308033L237.75350263527824,73.18806675283778L238.65526781843317,72.39275208613569L239.57420162173372,71.66558334825508L240.5104945791061,71.00829430583492L241.46433173745558,70.42261415306741L242.43589278187736,69.9102676262238L243.42535210551907,69.47297507406562L244.43287881776357,69.1124524815264L245.45863668364706,68.830411443798L246.50278398647995,68.62855908764537L247.56547330446816,68.50859793640433L248.6468511907343,68.47222571469503" class="target-curve-polyline" stroke="#ff00ff" style="stroke-width: 3px; fill-opacity: 0; stroke-dasharray: 20px, 10px, 5px, 5px, 5px, 10px;"></path><line x1="214.73011634327403" x2="215.9513144281586" y1="124.77192037766991" y2="125.93146990715417" class="distance-line" stroke="#0000ff" style="stroke-width: 2px; fill-opacity: 0;"></line></svg>