<svg version="1.1" id="Layer_1" xmlns="http://www.w3.org/2000/svg" xmlns:xlink="http://www.w3.org/1999/xlink" x="0px" y="0px" width="400px" height="600px" viewBox="0 0 400 600" enable-background="new 0 0 400 600" xml:space="preserve"><defs></defs><path d="M132.96200561523438 59.63100051879883 C 136.15899658203125 63.680999755859375 148.87100219726562 64.02899932861328 153.61399841308594 65.13200378417969 C 170.19900512695312 68.98799896240234 186.78399658203125 72.84400177001953 203.3699951171875 76.69999694824219 C 225.302001953125 81.79900360107422 237.90199279785156 86.33599853515625 259.1919860839844 80.9729995727539 C 284.9620056152344 74.48200225830078 310.73199462890625 67.99099731445312 336.50201416015625 61.5 C 346.14898681640625 103.49400329589844 357.3370056152344 143.89599609375 359.6180114746094 186.8990020751953 C 361.93701171875 230.59800720214844 364.50201416015625 274.0050048828125 364.50201416015625 317.74700927734375 C 364.50201416015625 351.03399658203125 364.50201416015625 384.3210144042969 364.50201416015625 417.6080017089844 C 364.50201416015625 430.7139892578125 364.50201416015625 443.8210144042969 364.50201416015625 456.927001953125 C 364.50201416015625 460.9150085449219 366.4590148925781 471.0329895019531 364.50201416015625 474.6709899902344 C 361.99798583984375 479.3269958496094 349.7659912109375 484.3710021972656 345.4849853515625 487.19000244140625 C 331.1239929199219 496.6440124511719 316.7619934082031 506.0979919433594 302.4010009765625 515.552001953125 C 288.6400146484375 524.6110229492188 274.1570129394531 538.3060302734375 257.83099365234375 542.0999755859375 C 228.4040069580078 548.93798828125 198.38600158691406 554.3770141601562 168.2270050048828 556.5180053710938 C 143.35299682617188 558.2839965820312 106.28600311279297 561.6240234375 94.55899810791016 534.3800048828125 C 64.84400177001953 465.3479919433594 54.24300003051758 385.875 42.388999938964844 312.1579895019531 C 35.314998626708984 268.1659851074219 36.50199890136719 225.50599670410156 36.50199890136719 180.85400390625 C 36.50199890136719 133.3260040283203 29.367000579833984 82.05799865722656 45.39500045776367 36.856998443603516 C 57 4.125 89.25 4.25 132.96200561523438 59.63100051879883" style="opacity: 0;"></path></svg>