<!--?xml version="1.0" encoding="utf-8"?-->
<!-- Generator: Adobe Illustrator 17.0.2, SVG Export Plug-In . SVG Version: 6.00 Build 0)  -->

<svg version="1.1" id="Layer_1" xmlns="http://www.w3.org/2000/svg" xmlns:xlink="http://www.w3.org/1999/xlink" x="0px" y="0px" width="400px" height="600px" viewBox="0 0 400 600" enable-background="new 0 0 400 600" xml:space="preserve">
<path fill="#FFFFFF" d="M 132.962 59.631 C 136.159 63.681 148.871 64.029 153.614 65.132 C 170.199 68.988 186.784 72.844 203.37 76.7 C 225.302 81.799 237.902 86.336 259.192 80.973 C 284.962 74.482 310.732 67.991 336.502 61.5 C 346.149 103.494 357.337 143.896 359.618 186.899 C 361.937 230.598 364.502 274.005 364.502 317.747 C 364.502 351.034 364.502 384.321 364.502 417.608 C 364.502 430.714 364.502 443.821 364.502 456.927 C 364.502 460.915 366.459 471.033 364.502 474.671 C 361.998 479.327 349.766 484.371 345.485 487.19 C 331.124 496.644 316.762 506.098 302.401 515.552 C 288.64 524.611 274.157 538.306 257.831 542.1 C 228.404 548.938 198.386 554.377 168.227 556.518 C 143.353 558.284 106.286 561.624 94.559 534.38 C 64.844 465.348 54.243 385.875 42.389 312.158 C 35.315 268.166 36.502 225.506 36.502 180.854 C 36.502 133.326 29.367 82.058 45.395 36.857 C 57 4.125 89.25 4.25 132.962 59.631"></path>
<g transform="matrix(1.211 0 0 1.211 -21.752 -15.733)">
	<path fill="#010101" d="M 253.981 284.297 C 270.38 277.92 287.59 270.29 300.431 257.936 C 315.476 243.463 313.363 227.574 305.456 209.711 C 295.436 187.076 298.996 176.248 309.977 154.753 C 315.798 143.356 305.578 146.622 300.62 151.726 C 293.93 158.613 285.721 164.657 281.103 173.278 C 272.059 190.16 287.402 206.173 290.259 222.417 C 293.603 241.429 271.648 249.254 256.832 251.601 C 244.232 253.597 215.028 253.654 212.584 270.376 C 209.309 292.788 240.645 289.361 253.981 284.297"></path>
	
		<linearGradient id="SVGID_1_" gradientUnits="userSpaceOnUse" x1="23.2379" y1="32.0842" x2="23.2379" y2="-115.0493" gradientTransform="matrix(6.095 0 0 6.095 43.9156 256.1548)">
		<stop offset="0" style="stop-color:#1A1A1A"></stop>
		<stop offset="1" style="stop-color:#676767"></stop>
	</linearGradient>
	<path fill="url(#SVGID_1_)" d="M 113.925 409.333 C 114.57 387.352 104.051 369.619 95.176 350.008 C 84.351 326.091 74.129 301.63 69.203 275.72 C 67.009 264.181 66.53 252.693 68.214 241.045 C 69.741 230.483 75.008 220.196 71.414 209.562 C 64.455 188.971 57.813 169.925 57.429 147.764 C 57.025 124.412 62.124 100.093 64.802 76.904 C 66.28 64.108 67.918 51.326 70.042 38.619 C 72.631 23.14 90.791 39.521 94.766 43.615 C 102.465 51.544 109.003 60.5 116.638 68.486 C 126.104 78.387 131.494 75.599 144.162 74.237 C 167.597 71.718 189.899 76.338 208.623 91.207 C 225.401 104.53 250.412 81.181 268.404 76.039 C 296.974 67.874 272.039 121.363 268.151 131.956 C 260.613 152.489 259.975 175.687 248.724 194.303 C 240.495 207.919 274.153 240.78 281.953 252.749 C 295.208 273.088 301.612 292.975 300.695 317.345 C 300.244 329.317 299.064 341.326 300.088 353.303 C 301.152 365.757 310.041 372.797 313.002 384.26 C 316.625 398.288 305.514 411.21 291.414 410.608 C 281.215 410.173 271.604 404.671 264.925 397.147 C 260.871 392.58 265.172 382.169 266.579 377.277 C 266.324 378.165 267.825 373.239 267.178 373.664 C 262.25 376.903 261.06 382.95 254.852 385.869 C 248.536 388.839 245.293 387.085 242.348 394.167 C 239.503 401.009 237.614 408.22 236.332 415.507 C 234.794 424.248 237.413 442.166 231.636 449.041 C 225.296 456.585 213.536 451.28 205.838 453.578 C 202.123 454.687 197.876 455.113 194.358 453.101 C 189.03 450.055 186.35 455.266 180.466 453.564 C 177.96 452.839 161.931 442.85 165.831 438.857 C 167.955 434.348 170.649 430.057 174.086 426.425 C 176.493 423.881 182.338 421.683 183.505 418.289 C 186.258 410.283 183.924 401.323 187.511 392.665 C 173.969 392.096 163.182 380.875 152.62 373.713 C 154.877 389.671 165.246 406.316 165.213 422.173 C 165.198 429.222 161.059 435.608 156.354 440.516 C 148.7 448.501 144.684 443.728 136.133 445.81 C 128.995 447.549 108.25 445.393 103.781 438.505 C 97.48 428.791 105.625 414.588 113.925 409.333"></path>
	<path fill="#010101" d="M 118.408 410.041 C 119.057 387.903 108.303 369.838 99.816 349.877 C 89.32 325.191 79.714 299.868 74.815 273.403 C 72.566 261.254 72.645 249.735 75.486 237.686 C 77.547 228.947 81.524 220.614 79.342 211.515 C 74.647 191.933 65.862 174.955 64.098 154.299 C 62.183 131.885 67.048 108.241 68.53 85.81 C 69.353 73.342 70.339 60.875 72.121 48.502 C 74.461 32.251 84.668 36.494 92.238 47.244 C 101.599 60.539 106.009 87.757 126.551 82.182 C 146.354 76.808 167.91 75.698 187.163 83.963 C 204.838 91.55 216.952 110.372 237.17 100.604 C 241.775 98.379 283.017 63.568 279.319 85.489 C 275.172 110.06 264.045 132.625 257.377 156.493 C 254.268 167.623 256.146 179.003 249.038 188.864 C 239.643 201.899 243.385 206.28 252.023 218.916 C 264.767 237.558 279.108 255.426 288.511 276.107 C 300.267 301.965 292.796 326.571 294.875 353.587 C 296.134 369.953 316.585 383.15 306.295 399.949 C 297.311 414.616 266.279 401.464 268.075 384.994 C 268.669 379.552 270.48 374.266 270.824 368.799 C 270.834 368.683 252.925 381.34 250.958 382.513 C 243.502 386.958 242.025 386.483 238.735 395.61 C 236.201 402.641 234.442 409.938 233.242 417.309 C 231.723 426.634 235.122 444.753 223.836 448.568 C 219.706 449.964 214.969 449.875 210.791 448.74 C 205.441 447.286 201.828 452.024 196.285 450.987 C 194.381 450.521 192.802 449.526 191.549 448.002 C 188.896 449.388 186.094 450.297 183.142 450.729 C 178.692 451.145 176.959 447.533 172.68 446.787 C 171.739 446.623 167.997 440.248 168.663 439.566 C 171.451 433.647 175.249 428.047 180.392 423.922 C 195.825 411.543 192.689 382.332 200.043 364.579 C 186.04 375.56 161.926 377.504 146.073 369.588 C 148.437 386.303 159.609 399.7 163.057 415.884 C 164.78 423.974 162.198 432.115 156.512 438.039 C 148.985 445.881 144.462 440.506 136.133 442.535 C 128.681 444.35 108.104 443.464 105.461 434.042 C 102.221 422.492 109.335 415.236 118.408 410.041"></path>
	
		<linearGradient id="SVGID_2_" gradientUnits="userSpaceOnUse" x1="38.9576" y1="24.2684" x2="38.9576" y2="-23.831" gradientTransform="matrix(6.095 0 0 6.095 43.9156 256.1548)">
		<stop offset="0" style="stop-color:#1A1A1A"></stop>
		<stop offset="1" style="stop-color:#676767"></stop>
	</linearGradient>
	<path fill="url(#SVGID_2_)" d="M 308.379 394.808 C 304.889 408.395 286.759 407.087 276.785 401.234 C 262.961 393.121 270.026 381.472 270.825 368.783 C 270.882 368.308 255.774 379.376 254.342 380.233 C 277.84 348.152 286.554 303.062 269.152 266.353 C 290.344 285.461 292.877 322.963 285.199 348.877 C 281.523 361.285 263.039 379.633 272.568 393.045 C 280.12 403.674 298.908 399.865 308.379 394.808"></path>
	
		<linearGradient id="SVGID_3_" gradientUnits="userSpaceOnUse" x1="20.9003" y1="31.9311" x2="20.9003" y2="-14.1808" gradientTransform="matrix(6.095 0 0 6.095 43.9156 256.1548)">
		<stop offset="0" style="stop-color:#1A1A1A"></stop>
		<stop offset="1" style="stop-color:#676767"></stop>
	</linearGradient>
	<path fill="url(#SVGID_3_)" d="M 118.408 410.041 C 119.335 378.418 98.001 348.02 87.485 318.759 C 100.789 341.068 112.229 365.046 119.916 389.901 C 122.979 399.804 119.818 415.118 131.781 415.768 C 155.058 417.032 142.58 379.954 138.492 367.698 C 135.93 360.018 131.641 352.839 127.635 345.848 C 126.375 343.649 121.584 332.039 119.797 331.234 C 126.411 334.213 132.638 343.996 138.876 348.419 C 147.858 354.787 158.107 359.707 169.017 361.587 C 176.402 362.86 184.186 362.715 191.314 360.225 C 193.748 359.375 203.24 351.631 205.278 354.949 C 210.783 363.91 200.672 386.128 197.705 394.766 C 195.105 402.334 189.668 411.038 191.467 419.254 C 193.157 426.971 201.284 430.868 208.421 427.606 C 226.334 419.417 231.294 387.051 234.541 370.238 C 236.884 358.102 238.889 345.847 242.516 334.007 C 243.39 331.153 253.831 316.057 254.983 326.55 C 256.058 336.343 250.523 349.505 248.119 358.946 C 244.624 372.672 241.103 386.428 236.849 399.929 C 233.296 411.204 232.346 422.47 225.315 432.429 C 221.772 437.449 216.571 442.833 220.882 449.286 C 213.786 450.429 209.825 447.425 203.066 449.905 C 198.624 451.535 194.919 451.61 191.548 448 C 186.836 450.251 169.346 451.052 170.963 443.079 C 160.69 440.845 184.13 421.984 185.707 420.034 C 191.581 412.774 190.011 395.711 193.705 386.796 C 179.521 395.274 157.919 375.502 146.073 369.586 C 148.437 386.301 159.609 399.698 163.057 415.882 C 164.78 423.972 162.198 432.113 156.512 438.037 C 148.985 445.879 144.462 440.504 136.133 442.533 C 128.681 444.348 108.104 443.462 105.461 434.04 C 102.222 422.491 109.334 415.22 118.408 410.041"></path>
	
		<linearGradient id="SVGID_4_" gradientUnits="userSpaceOnUse" x1="33.7792" y1="-14.9846" x2="33.7792" y2="-34.5738" gradientTransform="matrix(6.095 0 0 6.095 43.9156 256.1548)">
		<stop offset="0" style="stop-color:#1A1A1A"></stop>
		<stop offset="1" style="stop-color:#676767"></stop>
	</linearGradient>
	<path fill="url(#SVGID_4_)" d="M 234.5 128.663 C 231.398 125.599 233.282 137.241 233.394 137.839 C 234.873 145.726 237.155 153.613 240.302 160.999 C 246.536 175.63 259.806 139.489 262.175 134.049 C 267.207 122.498 271.701 111.031 255.975 121.662 C 251.193 124.896 240.179 135.37 234.5 128.663"></path>
	
		<linearGradient id="SVGID_5_" gradientUnits="userSpaceOnUse" x1="7.0161" y1="-20.5107" x2="7.0161" y2="-45.4411" gradientTransform="matrix(6.095 0 0 6.095 43.9156 256.1548)">
		<stop offset="0" style="stop-color:#1A1A1A"></stop>
		<stop offset="1" style="stop-color:#676767"></stop>
	</linearGradient>
	<path fill="url(#SVGID_5_)" d="M 72.158 130.245 C 67.335 128.091 72.263 104.599 72.658 100.802 C 73.101 96.549 77.648 70.898 73.377 68.319 C 84.542 75.061 86.414 88.88 103.302 87.126 C 94.254 88.067 76.378 132.13 72.158 130.245 C 67.313 128.081 75.27 131.635 72.158 130.245"></path>
	<path fill="#333333" d="M 151.471 195.976 C 157.47 191.081 139.996 178.033 142.578 177.313 C 150.828 175.01 148.35 187.209 153.953 188.097 C 160.832 189.183 157.413 184.195 161.398 182.037 C 162.187 181.609 167.606 181.465 168.955 181.294 C 167.002 181.541 150.358 191.972 153.539 196.826 C 160.799 207.915 175.236 215.571 187.509 207.304 C 177.367 217.484 161.116 209.702 151.069 203.559 C 139.954 203.926 128.137 207.49 119.052 199.293 C 129.364 205.254 142.412 203.381 151.471 195.976 M 136.396 153.333 C 143.86 149.957 123.767 114.598 106.133 134.324 C 98.655 142.689 101.642 153.555 111.972 157.3 C 120.918 160.544 127.863 155.031 136.396 153.333 M 181.754 162.179 C 177.61 159.936 190.846 148.013 192.337 147.378 C 200.699 143.815 211.465 149.666 213.841 158.312 C 215.949 165.982 211.561 174.012 203.224 174.598 C 194.077 175.241 188.868 166.266 181.754 162.179"></path>
	<path fill="#010101" d="M 119.684 131.675 C 138.857 131.675 136.749 157.025 118.466 157.025 C 99.293 157.025 101.4 131.675 119.684 131.675"></path>
	
		<radialGradient id="SVGID_6_" cx="27.4427" cy="-16.0915" r="5.7296" gradientTransform="matrix(4.7931 0 0 4.7604 -12.4605 220.9367)" gradientUnits="userSpaceOnUse">
		<stop offset="0" style="stop-color:#35C6F4"></stop>
		<stop offset="1" style="stop-color:#34679A"></stop>
	</radialGradient>
	<path fill="url(#SVGID_6_)" d="M 119.616 132.772 C 136.633 132.772 134.778 155.586 118.536 155.586 C 101.519 155.586 103.373 132.772 119.616 132.772"></path>
	<path fill="#010101" d="M 119.198 136.345 C 125.168 136.345 123.851 149.467 118.17 149.467 C 112.199 149.467 113.517 136.345 119.198 136.345"></path>
	<path fill="#FFFFFF" d="M 114.854 135.938 C 118.915 135.938 118.915 142.324 114.854 142.324 C 110.793 142.324 110.793 135.938 114.854 135.938"></path>
	<path fill="#FFFFFF" d="M 126.219 146.306 C 126.773 146.812 127.328 147.318 127.882 147.824 C 126.773 149.848 125.665 149.848 124.556 147.824 C 125.11 147.318 125.665 146.812 126.219 146.306"></path>
	<path fill="#010101" d="M 199.51 147.941 C 181.195 143.809 180.962 167.782 197.169 171.441 C 215.484 175.573 215.718 151.6 199.51 147.941 C 191.922 146.229 207.098 149.654 199.51 147.941"></path>
	
		<radialGradient id="SVGID_7_" cx="43.9815" cy="-12.8679" r="5.2195" gradientTransform="matrix(4.7931 0 0 4.7604 -12.4605 220.9367)" gradientUnits="userSpaceOnUse">
		<stop offset="0" style="stop-color:#35C6F4"></stop>
		<stop offset="1" style="stop-color:#34679A"></stop>
	</radialGradient>
	<path fill="url(#SVGID_7_)" d="M 199.41 148.962 C 183.146 145.291 182.902 166.86 197.288 170.107 C 213.552 173.778 213.796 152.209 199.41 148.962 C 192.685 147.444 206.135 150.48 199.41 148.962"></path>
	<path fill="#010101" stroke="#2C2A29" stroke-width="0.157" d="M 199.862 152.391 C 193.622 151.153 193.255 163.386 198.912 164.509 C 205.152 165.747 205.519 153.514 199.862 152.391 C 197.398 151.902 202.326 152.88 199.862 152.391"></path>
	<path fill="#FFFFFF" d="M 195.62 150.919 C 199.681 150.919 199.681 157.305 195.62 157.305 C 191.559 157.305 191.559 150.919 195.62 150.919"></path>
	<path fill="#FFFFFF" d="M 203.847 164.469 C 204.401 164.975 204.956 165.481 205.51 165.987 C 204.401 168.011 203.293 168.011 202.184 165.987 C 202.738 165.481 203.293 164.975 203.847 164.469"></path>
	<path fill="#818181" d="M 123.301 196.308 C 101.606 197.448 84.009 206.391 67.18 216.796 C 72.759 212.002 102.229 193.054 123.301 196.308 M 119.107 192.344 C 97.63 189.093 78.573 194.306 59.972 201.107 C 66.414 197.537 99.139 184.918 119.107 192.344 M 122.889 186.366 C 107.371 179.43 90.456 178.971 73.788 180.326 C 88.715 176.73 110.011 177.461 122.889 186.366 M 137.078 192.322 C 126.598 187.645 116.146 187.62 105.698 188.469 C 109.49 187.556 127.964 185.729 137.078 192.322 M 138.94 189.843 C 132.749 183.896 125.384 181.236 117.798 179.193 C 120.706 179.507 134.201 182.889 138.94 189.843 M 133.774 196.552 C 125.161 196.584 118.017 199.784 111.148 203.579 C 113.452 201.788 125.494 194.856 133.774 196.552 M 184.982 203.327 C 210.554 206.843 230.487 219.186 249.358 233.187 C 243.237 226.955 210.26 201.58 184.982 203.327 M 190.359 199.031 C 214.706 197.419 237.713 205.193 259.493 215.309 C 241.29 203.108 212.023 193.312 190.359 199.031 M 186.475 191.57 C 206.631 184.541 226.001 186.128 245.224 189.332 C 238.345 187.048 204.408 180.778 186.475 191.57 M 169.073 197.215 C 181.954 192.723 194.333 193.737 206.619 195.785 C 202.223 194.326 180.535 190.319 169.073 197.215 M 167.121 194.093 C 175.054 187.669 184.043 185.255 193.231 183.593 C 189.757 183.676 173.435 186.333 167.121 194.093 M 172.556 202.574 C 182.752 203.471 190.886 207.974 198.635 213.152 C 196.088 210.802 182.531 201.393 172.556 202.574 M 142.743 132.486 C 142.723 123.931 139.511 116.832 135.699 110.006 C 137.499 112.296 144.461 124.265 142.743 132.486 M 143.963 138.588 C 146.819 130.518 146.178 122.76 144.879 115.063 C 145.805 117.819 148.346 131.409 143.963 138.588 M 140.768 137.628 C 139.886 129.119 135.975 122.374 131.496 115.96 C 133.517 118.06 141.65 129.277 140.768 137.628 M 178.071 138.376 C 181.214 130.411 186.8 124.953 192.845 119.964 C 190.331 121.45 179.472 130.095 178.071 138.376 M 174.707 143.623 C 174.992 135.073 178.424 128.075 182.445 121.368 C 180.575 123.603 173.245 135.354 174.707 143.623 M 178.034 143.878 C 181.963 136.265 188.071 131.389 194.587 127.026 C 191.937 128.255 180.261 135.779 178.034 143.878"></path>
</g>
</svg>
