<svg version="1.1" id="Layer_1" xmlns="http://www.w3.org/2000/svg" xmlns:xlink="http://www.w3.org/1999/xlink" x="0px" y="0px" width="792px" height="612px" viewBox="0 0 792 612" enable-background="new 0 0 792 612" xml:space="preserve"><defs></defs><path d="M217.5 171.76800537109375 C 220.5489959716797 60.79600143432617 226.4720001220703 60.768001556396484 255.5 60.768001556396484 C 285.5 60.768001556396484 299.5 60.75400161743164 301.68499755859375 171.87600708007812 C 301.81298828125 426.5220031738281 285.77899169921875 426.5830078125 260.1889953613281 426.5 C 236.54400634765625 426.4219970703125 210.5 426.54901123046875 217.5 171.76800537109375" style="opacity: 0;"></path><rect x="254" y="103" width="10" height="10" rx="2" ry="2" class="handle-original" fill="#da55da" stroke="#000000" style="stroke-width: 2px; opacity: 0.5;"></rect><rect x="256" y="365" width="10" height="10" rx="2" ry="2" class="handle-original" fill="#da55da" stroke="#000000" style="stroke-width: 2px; opacity: 0.5;"></rect><rect x="252" y="165" width="10" height="10" rx="2" ry="2" class="handle-original" fill="#da55da" stroke="#000000" style="stroke-width: 2px; opacity: 0.5;"></rect><rect x="254" y="103" width="10" height="10" rx="2" ry="2" class="handle" fill="#da55da" stroke="#000000" style="stroke-width: 2px;"></rect><rect x="256" y="365" width="10" height="10" rx="2" ry="2" class="handle" fill="#da55da" stroke="#000000" style="stroke-width: 2px;" transform="matrix(0.848,-0.5299,0.5299,0.848,-7.4107,242.5354)"></rect><rect x="252" y="165" width="10" height="10" rx="2" ry="2" class="handle" fill="#da55da" stroke="#000000" style="stroke-width: 2px;"></rect></svg>