<svg version="1.1" id="Layer_1" xmlns="http://www.w3.org/2000/svg" xmlns:xlink="http://www.w3.org/1999/xlink" x="0px" y="0px" width="792px" height="612px" viewBox="0 0 792 612" enable-background="new 0 0 792 612" xml:space="preserve"><defs></defs><path d="M 217.5 171.768 C 220.549 60.796 226.472 60.768 255.5 60.768 C 285.5 60.768 299.5 60.754 301.685 171.876 C 301.813 426.522 285.779 426.583 260.189 426.5 C 236.544 426.422 210.5 426.549 217.5 171.768" class="undeformed-curve" stroke="#bbbbbb" style="fill-opacity: 0; stroke-width: 3px; stroke-dasharray: 10px, 10px;"></path><line x1="217.5" x2="220.5489959716797" y1="171.76800537109375" y2="60.79600143432617" class="control-point-tangents" stroke="#000000" style="stroke-width: 2px;"></line><line x1="255.5" x2="226.4720001220703" y1="60.768001556396484" y2="60.768001556396484" class="control-point-tangents" stroke="#000000" style="stroke-width: 2px;"></line><line x1="255.5" x2="285.5" y1="60.768001556396484" y2="60.768001556396484" class="control-point-tangents" stroke="#000000" style="stroke-width: 2px;"></line><line x1="301.68499755859375" x2="299.5" y1="171.87600708007812" y2="60.75400161743164" class="control-point-tangents" stroke="#000000" style="stroke-width: 2px;"></line><line x1="301.68499755859375" x2="301.81298828125" y1="171.87600708007812" y2="426.5220031738281" class="control-point-tangents" stroke="#000000" style="stroke-width: 2px;"></line><line x1="260.1889953613281" x2="285.77899169921875" y1="426.5" y2="426.5830078125" class="control-point-tangents" stroke="#000000" style="stroke-width: 2px;"></line><line x1="260.1889953613281" x2="236.54400634765625" y1="426.5" y2="426.4219970703125" class="control-point-tangents" stroke="#000000" style="stroke-width: 2px;"></line><line x1="217.5" x2="210.5" y1="171.76800537109375" y2="426.54901123046875" class="control-point-tangents" stroke="#000000" style="stroke-width: 2px;"></line><circle cx="220.5489959716797" cy="60.79600143432617" r="5" class="control-point-inner" fill="#da5555" stroke="#000000" style="stroke-width: 2px;"></circle><circle cx="226.4720001220703" cy="60.768001556396484" r="5" class="control-point-inner" fill="#da5555" stroke="#000000" style="stroke-width: 2px;"></circle><circle cx="285.5" cy="60.768001556396484" r="5" class="control-point-inner" fill="#da5555" stroke="#000000" style="stroke-width: 2px;"></circle><circle cx="299.5" cy="60.75400161743164" r="5" class="control-point-inner" fill="#da5555" stroke="#000000" style="stroke-width: 2px;"></circle><circle cx="301.81298828125" cy="426.5220031738281" r="5" class="control-point-inner" fill="#da5555" stroke="#000000" style="stroke-width: 2px;"></circle><circle cx="285.77899169921875" cy="426.5830078125" r="5" class="control-point-inner" fill="#da5555" stroke="#000000" style="stroke-width: 2px;"></circle><circle cx="236.54400634765625" cy="426.4219970703125" r="5" class="control-point-inner" fill="#da5555" stroke="#000000" style="stroke-width: 2px;"></circle><circle cx="210.5" cy="426.54901123046875" r="5" class="control-point-inner" fill="#da5555" stroke="#000000" style="stroke-width: 2px;"></circle><circle cx="217.5" cy="171.76800537109375" r="10" class="control-point-handle" fill="#5555da" stroke="#000000" style="stroke-width: 2px;"></circle><circle cx="255.5" cy="60.768001556396484" r="10" class="control-point-handle" fill="#5555da" stroke="#000000" style="stroke-width: 2px;"></circle><circle cx="301.68499755859375" cy="171.87600708007812" r="10" class="control-point-handle" fill="#5555da" stroke="#000000" style="stroke-width: 2px;"></circle><circle cx="260.1889953613281" cy="426.5" r="10" class="control-point-handle" fill="#5555da" stroke="#000000" style="stroke-width: 2px;"></circle></svg>