<svg version="1.1" id="Layer_1" xmlns="http://www.w3.org/2000/svg" xmlns:xlink="http://www.w3.org/1999/xlink" x="0px" y="0px" width="792px" height="612px" viewBox="0 0 792 612" enable-background="new 0 0 792 612" xml:space="preserve"><defs></defs><path d="M218.19372596507108,173.15658104692557L218.0994371093978,169.49384475680353L218.04615413044579,165.9537567636368L218.03116913260814,162.53753605893235L218.0455238688166,159.23150699106245L218.08582654547334,156.032957103914L218.14797360566317,152.9366083617125L218.2271707963927,149.93415068856402L218.31850935550239,147.01525396510482L218.42187390288225,144.18161127351064L218.5327593,141.421712732L218.650528436,138.734226426L218.77143310599996,136.10711355299998L218.895598412,133.539688246L219.023149456,131.031264639L219.154211339,128.581156864L219.288909163,126.188679056L219.42736802899998,123.85314534599999L219.569713039,121.573869867L219.716069295,119.350166754L219.866561898,117.181350138L220.02131595,115.066734153L220.180456551,113.005632932L220.34410880499996,110.99736060699999L220.51239781199996,109.04123131299998L220.685448674,107.136559182L220.863386492,105.282658347L221.046336368,103.478842941L221.23442340399998,101.72442709699999L221.427772701,100.018724948L221.62650936099996,98.36105062769998L221.83075848499996,96.75071826839999L222.04064517599997,95.18704200339998L222.256294533,93.6693359658L222.47783166,92.1969142885L222.705381657,90.7690911046L222.939069626,89.3851805471L223.179020669,88.0444967492L223.425359887,86.7463538438L223.678212383,85.4900659639L223.937703256,84.2749472427L224.20395761,83.1003118131L224.477100545,81.9654738082L224.757257163,80.8697473611L225.044552566,79.8124466047L225.339111855,78.7928856721L225.641060133,77.8103786964L225.950522499,76.8642398106L226.267624056,75.9537831477L226.592489906,75.0783228408L226.92524515,74.237173023L227.26601489,73.4296478271L227.614924227,72.6550613864L227.972098263,71.9127278338L228.337662099,71.2019613024L228.711740837,70.5220759252L229.094459578,69.8723858352L229.485943425,69.2522051656L229.886317478,68.6608480493L230.295706839,68.0976286194L230.71423661,67.5618610089L231.142031893,67.0528593508L231.579217788,66.5699377783L232.025919398,66.1124104243L232.025919398,66.1124104243L232.948370167,65.270794904L232.948370167,65.270794904L233.910385013,64.5225258544L234.406541718,64.1816815887L234.912964748,63.8621163398L234.912964748,63.8621163398L235.957110185,63.2840794245L235.957110185,63.2840794245L237.043822136,62.7829281728L237.603453308,62.5594700034L238.174101413,62.353175649L238.755891554,62.1633592427L238.755891554,62.1633592427L239.953398345,61.8304168065L240.5693652,61.6859190426L240.5693652,61.6859190426L241.836351333,61.4374410886L241.836351333,61.4374410886L243.150908043,61.2384141198L243.826338119,61.1557300875L244.514036143,61.0833512005L244.514036143,61.0833512005L245.926736445,60.9667653952L246.651988926,60.9211867428L246.651988926,60.9211867428L248.140924054,60.8520286038L248.904856905,60.8270773834L249.681933416,60.8076302396L249.681933416,60.8076302396L251.276017823,60.7825047143L252.093275923,60.7754545989L252.924178089,60.7711650924L253.768849423,60.7689503277L254.627415026,60.7681244381L255.5,60.7680015564" class="target-curve-polyline" stroke="#ff00c4" style="stroke-width: 3px; fill-opacity: 0; stroke-dasharray: 20px, 10px, 5px, 5px, 5px, 10px;"></path><line x1="205.64092881985442" x2="222.256294533" y1="91.68779569470172" y2="93.6693359658" class="distance-line" stroke="#0000ff" style="stroke-width: 2px; fill-opacity: 0;"></line><path d="M255.5,60.7680015564L255.5,60.7680015564L257.298626485,60.768900834L258.183312046,60.7710559018L259.058280324,60.775264341L259.923557197,60.7822134654L260.779168544,60.7925905891L261.625140245,60.8070830258L261.625140245,60.8070830258L263.288268218,60.8511630946L264.105476248,60.8821253545L264.913148145,60.9199521833L265.711309788,60.9653308949L265.711309788,60.9653308949L267.279205826,61.0814932226L268.048991977,61.1536514665L268.80937139,61.236110849L269.560369941,61.3295586841L269.560369941,61.3295586841L271.034327973,61.5521689679L271.757339212,61.6827060444L271.757339212,61.6827060444L273.175555529,61.9856806364L273.870812363,62.1594927798L274.556869487,62.3491045734L275.233752778,62.5552033311L275.901488116,62.7784763669L276.560101378,63.0196109947L276.560101378,63.0196109947L277.850065192,63.5582142821L277.850065192,63.5582142821L279.103851248,64.1765117048L279.717242314,64.5172640019L279.717242314,64.5172640019L280.917149914,65.2654123368L281.503718205,65.6741830027L281.503718205,65.6741830027L282.650213162,66.5645539009L282.650213162,66.5645539009L283.761358478,67.5566129807L283.761358478,67.5566129807L284.837361181,68.6558587536L284.837361181,68.6558587536L285.8784283,69.8677897311L286.385925712,70.5177304565L286.884766863,71.1979044249L287.374977633,71.9089989502L287.8565839,72.6517013464L287.8565839,72.6517013464L288.794086439,74.2346790072L289.250034469,75.0763288997L289.697481509,75.9523359189L290.13645344,76.8633873786L290.56697614,77.810170593L290.989075487,78.7933728758L291.402777359,79.813681541L291.808107636,80.8717839026L292.205092196,81.9683672745L292.593756918,83.1041189707L292.97412768,84.2797263051L293.346230361,85.4958765916L293.710090839,86.7532571443L294.065734993,88.0525552769L294.413188702,89.3944583036L294.752477844,90.7796535382L295.083628299,92.2088282946L295.40666594300006,93.68266988680001L295.72161665699997,95.20186562879998L296.028506319,96.7671028345L296.327360806,98.3790688179L296.61820599899994,100.03845089299999L296.901067775,101.745936373L297.175972014,103.502212573L297.44294459300005,105.30796680600002L297.70201139100004,107.16388638700003L297.953198287,109.070658629L298.19653116,111.028970846L298.432035888,113.039510353L298.65973835,115.102964462L298.87966442399994,117.22002048899999L299.09183999,119.391365747L299.296290924,121.617687549L299.493043107,123.899673211L299.682122417,126.238010045L299.863554732,128.633385366L300.037365931,131.086486488L300.203581893,133.598000725L300.362228496,136.16861539L300.513331619,138.799017798L300.65919900096003,141.49633649252755L300.8001427971937,144.2606746724725L300.93709393163186,147.09371239344122L301.0735795589158,150.002733965148L301.21054155469,152.98770100038402L301.35170117981374,156.0541598176792L301.50072205747495,159.20619270933975L301.66069156846885,162.4458062236057L301.8378235648619,165.77965527295157L302.0365665738703,169.2099338070827L302.2608815152745,172.73737744683504" class="target-curve-polyline" stroke="#ff00d4" style="stroke-width: 3px; fill-opacity: 0; stroke-dasharray: 20px, 10px, 5px, 5px, 5px, 10px;"></path><line x1="268.7193058326038" x2="255.5" y1="66.78405760408842" y2="60.7680015564" class="distance-line" stroke="#0000ff" style="stroke-width: 2px; fill-opacity: 0;"></line><path d="M302.2608815152745,172.73737744683504L302.7271843742409,180.8954744109271L303.3540534155798,188.98994612004432L304.18002241027517,197.03417681088328L305.20366398263747,204.99750534909626L306.43050716817646,212.86538181976368L307.85890751596935,220.62191234503396L309.5235078979698,228.28363609350606L311.39010183793596,235.81406984920926L313.48950370902435,243.22954895294276L315.83837560766517,250.5339795803889L318.4221372059949,257.7125659475813L321.2304505348336,264.75663231792055L324.29517344578426,271.6816972756281L327.58393993102476,278.46907048772374L331.12870036713855,285.13420846532756L334.89280180949663,291.65976734630647L338.8939523402134,298.0550505739986L343.09609618473684,304.3066012128965L347.50314602420866,310.4191963823149L352.08730049692633,316.38566346796495L356.84316601945284,322.208433346171L361.7246896843712,327.87625854254884L366.72809753137426,333.39390600698516L371.79166941562295,338.74767023322636L376.90088861413415,343.9405739132213L382.04030543203487,348.9753818350545L387.12423251086403,353.83491385040315L392.16892476668073,358.5325820261147L397.07807191886485,363.05039863296105L401.86701527043203,367.40170822694995L406.52381585410944,371.5916881272968L410.9341037058492,375.5999773888361L415.0849877952355,379.4327311249425L418.99690391867887,383.10333162357676L422.6050683370595,386.6044830493791L425.94700993512436,389.95236077781976L429.03318354814974,393.155789385754L431.78428504366565,396.2036322001159L434.2690373933777,399.11659516427136L436.4674105817789,401.89546248734973L438.4338954151712,404.55595133605624L440.18960607703525,407.105994415227L441.71759360834045,409.54550119704163L443.07011057806517,411.8876865515217L444.2545446856726,414.13641893417L445.3109000963898,416.30146387293564L446.2516215748911,418.3869640329272L447.0859268453539,420.3962776721065L447.82228937839824,422.33248871048147L448.47512493201214,424.1996398207865L449.0804035680952,426.0054999131861L449.6389936418186,427.7513815617977L450.1517635069752,429.43859734042053L450.6195815204318,431.06845982211223L451.04331603704117,432.6422815823681L451.4238354117624,434.1613751930796L451.7620080002963,435.62705322921215L452.05870215643574,437.04062826456493L452.3147862365179,438.40341287134765L452.5311285959251,439.7167196259036L452.70859758961666,440.98186110012415L452.8480615722335,442.20014986727875L452.95038889915827,443.37289850371064L453.0164479267279,444.50141958162953L453.04710700735745,445.58702567451655L453.04323449982166,446.6310293565953L453.0056987570655,447.63474320219507L452.93536813457786,448.59947978405535L452.93536813457786,448.59947978405535L452.69979567109164,450.41727145302673L452.5362905409648,451.2729516892208L452.5362905409648,451.2729516892208L452.1221842591623,452.88444382893454L452.1221842591623,452.88444382893454L451.5977389838072,454.3715286869958L451.29631011205765,455.07169981974636L450.9699015569026,455.7447068535879L450.61938167436097,456.3918623621081L450.2456188187556,457.0144789199542L449.84948134642354,457.6138690993355L449.43183761168757,458.1913454748996L448.99355597056655,458.74822062023384L448.99355597056655,458.74822062023384L448.05855238762695,459.8054175168944L447.56356715646825,460.3083644150775L447.56356715646825,460.3083644150775L446.5229715909454,461.2695179803584L445.97909796639317,461.73034979484294L445.97909796639317,461.73034979484294L444.84854081263495,462.61908635734557L444.2635939923929,463.0496162532803L443.6666928175808,463.4726706565553L443.6666928175808,463.4726706565553L442.44050082323383,464.3016032826554L441.8129467135108,464.71010665286724L441.1769116702193,465.11638482551103L441.1769116702193,465.11638482551103L439.8828722019182,465.92751587562367L439.2266044867204,466.3349939004793" class="target-curve-polyline" stroke="#ff0036" style="stroke-width: 3px; fill-opacity: 0; stroke-dasharray: 20px, 10px, 5px, 5px, 5px, 10px;"></path><line x1="456.12031750043946" x2="439.2266044867204" y1="446.5410437095004" y2="466.3349939004793" class="distance-line" stroke="#0000ff" style="stroke-width: 2px; fill-opacity: 0;"></line><path d="M439.2266044867204,466.3349939004793L438.6170515027592,466.71286287106403L438.6170515027592,466.71286287106403L437.39180859491285,467.4654392349214L436.7748185442417,467.8372388719036L436.7748185442417,467.8372388719036L435.5288509318556,468.5645916662029L434.8985732425066,468.91723706775963L434.2625662124544,469.26058996813117L434.2625662124544,469.26058996813117L432.97076387772813,469.91360275443446L432.3136684448902,470.22035488375764L432.3136684448902,470.22035488375764L430.9738387293389,470.78708122465684L430.2898043195215,471.04414768132034L429.595490123819,471.28174449126624L428.89024607772524,471.4984177764551L428.1734221175825,471.69271365831776L427.44436817941465,471.8631782596631L427.44436817941465,471.8631782596631L425.94697011765766,472.1267981080084L425.17732586643456,472.2170455992482L424.3928513819184,472.27764629844944L423.59289660214733,472.3071463259832L422.7768114622972,472.30409180518797L421.9439458978622,472.2670288580246L421.9439458978622,472.2670288580246L420.2252732466471,472.0850621724369L419.3381660308551,471.9372506779339L418.43167813690627,471.7496152444819L417.50515950082456,471.5207019948896L416.55796005948184,471.24905705143567L415.58942974869035,470.9332265347032L414.598918505004,470.57175656834863L413.5857762639167,470.1631932743327L412.5493529634666,469.7060827730264L411.48899853798173,469.1989711882983L410.4040629246522,468.64040464104926L409.29389606034965,468.0289292535581L408.1578478797205,467.3630911483153L406.99526832133256,466.64143644653996L405.8055073189838,465.86251127125263L404.58791481071256,465.0248617428242L403.34184073222445,464.12703398544136L402.06663502070967,463.1675741200048L400.7616476108142,462.14502826900537L399.42622843972816,461.0579425533438L398.0597274440054,459.904863096677L396.661494560306,458.6843360190576L395.2308797229581,457.3949074443542L393.76723287052954,456.0351234937858L392.1963320809354,454.5755834525669L390.50104199662155,453.00716763904217L388.7059504922451,451.33660361277487L386.78009183908597,449.5490035972266L384.7357045149375,447.64606352439705L382.5592903531312,445.6190705278092L380.2117957757465,443.4480751170735L377.667168439521,441.1173259402426L374.9031314058063,438.61162892396374L371.88155698207805,435.9077032110481L368.6219041458215,433.0065073370656L365.1016995352822,429.88984568049017L361.27146690223765,426.5254460459172L357.16440109148334,422.91799673040407L352.7593481633864,419.04605113427147L348.11504686574887,414.9262531557013L343.22323361007955,410.5425600143408L338.06809964115,405.8735752805222L332.7124531731106,400.9379860441463L327.15803219234664,395.7229016499727L321.4945959613756,390.2636416372817L315.7299043880857,384.5520209992861L309.8814486643623,378.58485499215266L304.01245097487896,372.38650195408644L298.1425465602049,365.9569820946339L292.34087011599445,359.32827489853184L286.6224186356386,352.5005428031808L281.01268659909834,345.48132777049864L275.56480142960953,338.2988046787793L270.28320608156855,330.94970228282745L265.2108218477233,323.45950444818556L260.34964543112955,315.8257053173161L255.7258006437879,308.06521411734053L251.3551268172893,300.18921591819367L247.23263356136212,292.1928267452519L243.40664933157458,284.1191807576983L239.83868270511252,275.9368839067788L236.54687902917755,267.6654002798632L233.52283710749137,259.30069228615685L230.78235923753113,250.86476685918936L228.32354602461453,242.3643521583461L226.15004628536252,233.81487286212047L224.21169284433654,225.16655517275686L222.55915042698123,216.4956190497831L221.17044750175813,207.7931611315598L220.04644207871306,199.0840132620496L219.17866691502866,190.38552863855057L218.55782024851902,181.71995106276813L218.19372596507108,173.15658104692557" class="target-curve-polyline" stroke="#ff0000" style="stroke-width: 3px; fill-opacity: 0; stroke-dasharray: 20px, 10px, 5px, 5px, 5px, 10px;"></path><line x1="468.60468982925175" x2="439.2266044867204" y1="469.1543787879786" y2="466.3349939004793" class="distance-line" stroke="#0000ff" style="stroke-width: 2px; fill-opacity: 0;"></line></svg>