<!--?xml version="1.0" encoding="utf-8"?-->
<!-- Generator: Adobe Illustrator 17.0.2, SVG Export Plug-In . SVG Version: 6.00 Build 0)  -->

<svg version="1.1" id="Layer_1" xmlns="http://www.w3.org/2000/svg" xmlns:xlink="http://www.w3.org/1999/xlink" x="0px" y="0px" width="600px" height="400px" viewBox="0 0 600 400" enable-background="new 0 0 600 400" xml:space="preserve">
<path fill="#FFFFFF" d="M 204.233 117.368 C 204.233 117.368 250.621 70.98 250.621 70.98 C 250.621 70.98 300 69 300 69 C 300 69 320.856 97.5 320.856 97.5 C 320.856 97.5 406.104 59.934 406.104 59.934 C 406.104 59.934 441.648 56.5 441.648 56.5 C 441.648 56.5 399.516 117.735 399.516 117.735 C 399.516 117.735 413 144.219 413 144.219 C 413 144.219 402 163.02 402 163.02 C 402 163.02 463 192.012 463 192.012 C 463 192.012 537 147 537 147 C 537 147 593 126.28 593 126.28 C 593 126.28 543.5 205.499 543.5 205.499 C 543.5 205.499 538.5 303.5 538.5 303.5 C 538.5 303.5 478.896 239.758 478.896 239.758 C 478.896 239.758 413.5 282.815 413.5 282.815 C 413.5 282.815 452 330.5 452 330.5 C 452 330.5 398.617 354 398.617 354 C 398.617 354 355.742 316 355.742 316 C 355.742 316 278.173 332.637 252.385 329 C 227.98 325.558 157.787 290.125 157.787 290.125 C 157.787 290.125 155.5 131.999 155.5 131.999 C 155.5 131.999 204.233 117.368 204.233 117.368"></path>
<linearGradient id="path4824_1_" gradientUnits="userSpaceOnUse" x1="1389.3632" y1="1353.5197" x2="1460.4631" y2="1503.1196" gradientTransform="matrix(0.6 0 0 0.6 -475.544 -735.916)">
	<stop offset="0" style="stop-color:#66C3A8"></stop>
	<stop offset="0.2398" style="stop-color:#6EC6AB"></stop>
	<stop offset="1" style="stop-color:#66C3A8;stop-opacity:0"></stop>
</linearGradient>
<linearGradient id="path4824_2_" gradientUnits="userSpaceOnUse" x1="1390.3995" y1="1411.1816" x2="1513.9296" y2="1417.1816" gradientTransform="matrix(0.6 0 0 0.6 -497.144 -730.228)">
	<stop offset="0" style="stop-color:#FFFFFF"></stop>
	<stop offset="1" style="stop-color:#73A8BF"></stop>
</linearGradient>
<path id="path4824" fill="url(#path4824_1_)" stroke="url(#path4824_2_)" stroke-width="1.5" d="M 435.852 59.953 C 407.58 60.418 380.964 72.229 357.288 86.799 C 340.128 95.837 322.368 104.541 303.072 107.783 C 297.708 115.849 301.2 126.017 300.432 135.046 C 301.14 142.654 306.936 149.145 313.932 151.902 C 324.048 162.269 334.032 175.463 349.332 178.043 C 363.252 180.767 379.2 177.299 388.5 166.096 C 394.416 159.566 399.924 152.222 407.856 147.939 C 408.72 147.081 411.696 145.569 409.356 145.003 C 402.744 140.22 403.008 129.726 395.232 125.916 C 389.52 122.706 385.308 114.472 389.532 108.684 C 387.036 104.25 391.74 99.5 395.82 98.26 C 398.952 97.592 396.324 97.272 394.596 96.684 C 392.268 95.844 388.572 94.415 390.396 91.471 C 392.964 85.691 400.092 85.219 405.6 85.397 C 411.072 83.805 414.732 78.953 419.184 75.66 C 423.84 71.596 427.296 66.228 432.204 62.484 C 433.668 61.567 436.56 60.69 437.136 59.934 C 436.704 59.94 436.272 59.946 435.852 59.953 C 435.852 59.953 435.852 59.953 435.852 59.953"></path>
<linearGradient id="path22066_1_" gradientUnits="userSpaceOnUse" x1="1411.1898" y1="1445.0229" x2="1444.1899" y2="1422.3929" gradientTransform="matrix(0.6 0 0 0.6 -497.144 -730.228)">
	<stop offset="0" style="stop-color:#226879"></stop>
	<stop offset="1" style="stop-color:#62CBE6"></stop>
</linearGradient>
<path id="path22066" fill="none" stroke="url(#path22066_1_)" stroke-width="4" d="M324.87,119.886C330.888,117.87599999999999,336.582,114.978,342.216,112.134C347.856,108.474,353.076,104.202,358.536,100.30199999999999C359.616,99.36599999999999,379.296,88.488,380.376,87.49799999999999M329.532,122.43C336.39,120.96000000000001,343.176,118.626,348.816,114.35400000000001C351.816,111.96000000000001,376.53599999999994,98.89800000000001,379.236,96.25200000000001M339.714,126.672C349.776,122.76599999999999,358.836,116.73599999999999,368.616,112.25999999999999C369.756,111.48599999999999,377.436,105.696,378.156,104.478M345.636,130.494C352.776,127.254,359.61600000000004,123.198,365.37600000000003,117.828C365.37600000000003,117.828,365.61600000000004,117.336,365.61600000000004,117.336M352.896,136.008C360.276,133.77,366.396,128.86800000000002,372.81600000000003,124.79400000000001C374.31600000000003,123.67200000000001,377.016,117.132,377.97600000000006,115.45800000000001M320.202,111.822C327.852,108.33,334.962,103.8,342.216,99.60000000000001C343.896,98.718,384.216,79.494,385.656,78.25200000000001M358.836,139.824C364.896,136.692,369.456,131.412,375.096,127.644C375.636,127.2,376.116,126.732,376.656,126.24600000000001M387.876,128.766C382.116,132.834,373.236,137.47199999999998,368.556,141.636C367.416,143.388,366.096,144.996,364.776,146.61599999999999M371.556,150.006C375.39599999999996,146.322,379.236,142.62,383.736,139.698C384.69599999999997,138.81,389.436,133.368,390.816,133.20600000000002M378.756,152.13C382.176,149.172,385.71599999999995,146.328,389.376,143.646M385.536,157.218C390.696,152.46599999999998,395.736,147.456,399.516,141.522"></path>
<linearGradient id="path8912_1_" gradientUnits="userSpaceOnUse" x1="1591.7072" y1="1393.8423" x2="1534.307" y2="1258.3523" gradientTransform="matrix(0.7967 0 0 0.7967 -713.4673 -867.2401)">
	<stop offset="0" style="stop-color:#66C3A8"></stop>
	<stop offset="0.5781" style="stop-color:#6EC6AB"></stop>
	<stop offset="1" style="stop-color:#66C3A8;stop-opacity:0"></stop>
</linearGradient>
<linearGradient id="path8912_2_" gradientUnits="userSpaceOnUse" x1="1691.3252" y1="1478.5629" x2="1712.8252" y2="1522.5629" gradientTransform="matrix(0.6 0 0 0.6 -497.144 -730.228)">
	<stop offset="0" style="stop-color:#FFFFFF"></stop>
	<stop offset="1" style="stop-color:#73A8BF"></stop>
</linearGradient>
<path id="path8912" fill="url(#path8912_1_)" stroke="url(#path8912_2_)" stroke-width="1.5" d="M 511.08 253.92 C 517.812 264.024 523.884 274.668 529.692 285.276 C 530.832 288.024 531.852 293.364 531.888 287.448 C 532.944 274.5 536.448 261.648 536.34 248.676 C 534.852 240.708 528.06 235.068 520.848 232.272 C 513.516 227.556 511.38 214.788 519.612 209.844 C 525.132 205.728 532.38 205.68 539.004 205.728 C 531.96 202.776 524.1 196.86 525.108 188.256 C 526.128 179.508 535.428 175.02 543.48 175.488 C 547.212 175.62 551.352 174.216 552.48 170.338 C 561 155.781 572.436 143.188 585.036 132.164 C 566.76 135.984 548.784 142.704 533.424 153.451 C 511.704 173.917 467.316 192.229 465.336 212.581 C 464.1 225.228 493.98 238.668 511.08 253.92 C 511.08 253.92 511.08 253.92 511.08 253.92"></path>
<linearGradient id="path22901_1_" gradientUnits="userSpaceOnUse" x1="1649.2333" y1="1567.0759" x2="1687.6333" y2="1567.0759" gradientTransform="matrix(0.6 0 0 0.6 -497.144 -730.228)">
	<stop offset="0" style="stop-color:#056780"></stop>
	<stop offset="1" style="stop-color:#62CBE6"></stop>
</linearGradient>
<path id="path22901" fill="none" stroke="url(#path22901_1_)" stroke-width="3" d="M478.896,200.07C483.87600000000003,198.912,486.81600000000003,194.124,491.076,191.56199999999998C496.356,187.164,501.336,182.25599999999997,507.576,179.202C511.716,176.844,515.076,173.346,519.336,171.126C524.076,168.6,527.496,164.16,532.5360000000001,162.114C537.216,159.852,541.836,157.248,545.676,153.726C545.676,153.726,546.336,152.976,546.336,152.976M480.996,204.312C486.216,200.17200000000003,492.57599999999996,197.77800000000002,497.916,193.89000000000001C502.296,190.87800000000001,506.916,188.298,511.296,185.442C513.276,184.65,515.436,184.404,517.476,183.948M480.576,225.102C485.43600000000004,227.202,489.396,230.886,493.896,233.568C497.55600000000004,237.72,502.596,240.12,506.31600000000003,244.15800000000002C510.03600000000006,248.322,513.3960000000001,252.798,518.2560000000001,255.73200000000003C520.8960000000001,258.76800000000003,524.4960000000001,262.56,524.676,266.682M526.416,266.682C526.416,266.682,526.596,266.73,526.596,266.73C526.596,266.73,526.836,266.682,526.836,266.682M482.256,219.162C489.69599999999997,226.24800000000002,499.356,230.286,507.57599999999996,236.244C511.47599999999994,239.934,517.116,241.218,520.836,245.058C522.2760000000001,247.524,523.356,250.158,524.676,252.678M484.416,216.192C490.536,219.042,497.136,220.788,503.256,223.68C504.51599999999996,224.118,505.89599999999996,224.382,507.27599999999995,224.256M485.256,207.282C493.77599999999995,205.674,501.57599999999996,201.288,510.15599999999995,200.09400000000002C514.1759999999999,199.64400000000003,518.136,200.73600000000002,522.156,200.496M485.256,212.376C490.77599999999995,212.184,496.296,212.928,501.69599999999997,214.21800000000002C503.256,214.51200000000003,504.876,214.806,506.436,214.92000000000002"></path>
<path id="path4789" fill="#010101" d="M 276.852 109.325 C 185.4 110.029 161.22 177.108 159.456 237.677 C 156.456 342.833 310.524 327.473 366.612 299.225 C 406.248 279.269 453.372 246.269 470.328 237.017 C 491.892 224.369 493.584 198.665 469.2 196.217 C 449.28 195.857 435.708 185.381 410.124 171.641 C 372.828 151.6 331.716 113.082 296.052 110.08 C 289.344 109.516 282.948 109.283 276.852 109.33 C 276.852 109.33 276.852 109.325 276.852 109.325"></path>
<path id="path4758" fill="#010101" d="M 327.13 154.613 C 322.29 198.937 290.997 234.801 257.235 234.717 C 223.473 234.633 200.026 198.633 204.866 154.308 C 204.917 153.844 204.97 153.381 205.027 152.917 C 209.867 108.593 241.16 72.729 274.922 72.813 C 308.684 72.897 332.131 108.897 327.291 153.222 C 327.24 153.685 327.186 154.149 327.13 154.613"></path>
<path id="path4785" fill="#010101" d="M 222.042 156.829 C 229.913 179.786 222.794 204.695 206.141 212.465 C 189.488 220.235 169.607 207.924 161.736 184.967 C 161.654 184.727 161.573 184.486 161.494 184.244 C 153.623 161.287 160.742 136.378 177.395 128.608 C 194.048 120.838 213.929 133.149 221.8 156.106 C 221.882 156.347 221.963 156.588 222.042 156.829"></path>
<linearGradient id="path10475_1_" gradientUnits="userSpaceOnUse" x1="1384.5983" y1="1644.4913" x2="1303.8882" y2="1344.0714" gradientTransform="matrix(0.6 0 0 0.6 -497.144 -730.228)">
	<stop offset="0" style="stop-color:#09100D"></stop>
	<stop offset="0.5235" style="stop-color:#49847E"></stop>
	<stop offset="0.8486" style="stop-color:#3F8F91"></stop>
	<stop offset="1" style="stop-color:#C7E9F4"></stop>
</linearGradient>
<path id="path10475" fill="url(#path10475_1_)" d="M 273.792 78.331 C 254.268 79.115 237.72 92.606 227.472 108.425 C 222.552 115.857 219.228 124.177 215.736 132.351 C 211.488 133.9 207.204 138.922 202.356 136.082 C 194.64 128.329 179.772 127.07 172.704 136.419 C 161.7 149.777 162.42 169.642 169.968 184.405 C 172.764 188.269 173.952 193.405 171.768 197.833 C 166.896 220.249 163.584 244.369 170.868 266.641 C 177.876 285.073 194.52 298.765 213.168 304.609 C 244.728 315.853 279.276 313.801 311.892 308.809 C 339.084 304.189 365.04 293.665 388.452 279.217 C 416.472 263.317 442.74 244.045 471.156 228.745 C 490.74 214.945 493.644 200.701 467.724 203.317 C 446.892 202.885 429.528 190.021 411.672 180.865 C 385.86 166.83 362.448 148.91 337.392 133.608 C 331.512 130.177 325.404 126.863 319.224 123.989 C 316.188 105.286 304.836 86.141 286.068 80.02 C 282.108 78.768 277.98 78.23 273.792 78.331 C 273.792 78.331 273.792 78.331 273.792 78.331"></path>
<radialGradient id="path18571_1_" cx="354.7978" cy="886.7559" r="37.7441" gradientTransform="matrix(1.0728 0 0 0.6872 -173.5412 -388.6052)" gradientUnits="userSpaceOnUse">
	<stop offset="0" style="stop-color:#408E8E"></stop>
	<stop offset="1" style="stop-color:#408E8E;stop-opacity:0"></stop>
</radialGradient>
<path id="path18571" fill="url(#path18571_1_)" d="M 252.288 210.468 C 254.172 233.472 228.216 245.016 203.268 253.68 C 178.332 262.356 163.8 264.864 161.916 241.86 C 160.044 218.868 178.764 193.164 203.7 184.5 C 228.648 175.836 250.416 187.464 252.288 210.468 C 252.288 210.468 252.288 210.468 252.288 210.468"></path>
<g id="g27390">
	<path id="path27366" fill="#3F6764" d="M 352.164 160.463 C 344.352 159.085 348.012 166.697 347.736 171.564 C 347.412 178.908 349.392 188.388 343.308 193.8 C 346.14 196.8 349.356 201.492 351.864 196.056 C 357.72 185.172 355.428 171.96 354.6 160.126 C 353.784 160.237 352.98 160.35 352.164 160.463"></path>
	<path id="path27368" fill="#3F6764" d="M 360.636 162.6 C 352.8 161.212 356.484 168.89 356.256 173.772 C 355.932 181.092 357.804 190.524 351.792 195.936 C 354.612 199.524 358.32 203.016 360.672 197.628 C 366.024 186.78 363.996 173.916 363.072 162.263 C 362.268 162.374 361.452 162.487 360.636 162.6"></path>
	<path id="path27370" fill="#3F6764" d="M 344.736 157.237 C 336.816 155.84 340.632 163.59 340.308 168.45 C 339.996 175.752 341.928 185.208 335.928 190.608 C 338.7 194.436 342.288 197.856 344.7 192.408 C 350.088 181.536 348.072 168.637 347.172 156.937 C 346.368 157.038 345.552 157.138 344.736 157.237"></path>
</g>
<radialGradient id="path24433_1_" cx="815.3243" cy="1914.8695" r="57.2566" gradientTransform="matrix(0.7851 0.4533 -0.0838 0.1452 -118.747 -487.4206)" gradientUnits="userSpaceOnUse">
	<stop offset="0" style="stop-color:#3F8D8D"></stop>
	<stop offset="1" style="stop-color:#3F8D8D;stop-opacity:0"></stop>
</radialGradient>
<path id="path24433" fill="url(#path24433_1_)" d="M 405.845 186.155 C 403.194 190.747 380.922 182.851 356.098 168.519 C 331.274 154.187 313.3 138.847 315.951 134.255 C 318.602 129.663 340.874 137.559 365.698 151.891 C 390.522 166.223 408.496 181.563 405.845 186.155"></path>
<linearGradient id="path5239_1_" gradientUnits="userSpaceOnUse" x1="1248.4752" y1="1699.9187" x2="1267.0752" y2="1631.1987" gradientTransform="matrix(0.6 0 0 0.6 -509.144 -731.428)">
	<stop offset="0" style="stop-color:#3C8B68"></stop>
	<stop offset="1" style="stop-color:#FFFFFF"></stop>
</linearGradient>
<path id="path5239" fill="url(#path5239_1_)" stroke="#010101" stroke-width="2.5" d="M234.948,272.208C242.62800000000001,263.84400000000005,245.64000000000001,252.67200000000003,249.312,242.24400000000003C255.816,229.58400000000003,254.04000000000002,269.29200000000003,254.05200000000002,271.15200000000004"></path>
<path id="path4787" fill="#FFFFFF" d="M 215.911 157.366 C 222.447 176.429 216.535 197.114 202.707 203.566 C 188.878 210.018 172.37 199.795 165.833 180.732 C 165.765 180.533 165.698 180.333 165.632 180.132 C 159.096 161.069 165.008 140.384 178.836 133.932 C 192.665 127.48 209.173 137.703 215.71 156.766 C 215.778 156.966 215.845 157.166 215.911 157.366"></path>
<path id="path3417" fill="#FFFFFF" d="M 314.06 158.726 C 310.041 195.533 284.056 225.313 256.02 225.244 C 227.984 225.175 208.514 195.28 212.533 158.473 C 212.575 158.088 212.62 157.703 212.667 157.318 C 216.686 120.512 242.671 90.731 270.707 90.8 C 298.743 90.87 318.213 120.764 314.194 157.571 C 314.151 157.956 314.107 158.341 314.06 158.726"></path>
<linearGradient id="path5241_1_" gradientUnits="userSpaceOnUse" x1="1299.7462" y1="1680.1943" x2="1322.6862" y2="1625.0543" gradientTransform="matrix(0.6 0 0 0.6 -510.944 -730.228)">
	<stop offset="0" style="stop-color:#64BA95"></stop>
	<stop offset="1" style="stop-color:#FFFFFF"></stop>
</linearGradient>
<path id="path5241" fill="url(#path5241_1_)" stroke="#010101" stroke-width="2.5" d="M259.692,275.532C270,264.072,274.344,242.15999999999997,277.008,227.21999999999997C287.46,229.13999999999996,284.05199999999996,267.61199999999997,281.976,277.65599999999995"></path>
<linearGradient id="path4812_1_" gradientUnits="userSpaceOnUse" x1="1363.6028" y1="1551.7262" x2="1282.7029" y2="1432.7861" gradientTransform="matrix(0.7772 -0.0106 0.0106 0.7772 -657.516 -851.149)">
	<stop offset="0" style="stop-color:#66C3A8"></stop>
	<stop offset="0.4761" style="stop-color:#6EC6AB"></stop>
	<stop offset="1" style="stop-color:#66C3A8;stop-opacity:0"></stop>
</linearGradient>
<linearGradient id="path4812_2_" gradientUnits="userSpaceOnUse" x1="1362.8655" y1="1606.2518" x2="1461.6655" y2="1666.8818" gradientTransform="matrix(0.6581 0 0 0.6581 -550.8279 -786.4222)">
	<stop offset="0" style="stop-color:#FFFFFF;stop-opacity:0.2346"></stop>
	<stop offset="0.5" style="stop-color:#B7CFDD"></stop>
	<stop offset="1" style="stop-color:#6FA2BD"></stop>
</linearGradient>
<path id="path4812" fill="url(#path4812_1_)" stroke="url(#path4812_2_)" stroke-width="1.9431" d="M340.32,253.056C354.948,273.48,351.56399999999996,302.41200000000003,369.384,321.072C378.696,332.22,391.308,343.884,406.968,342.084C458.28000000000003,332.532,447.264,328.716,408.90000000000003,317.724C404.88000000000005,312.828,406.62000000000006,305.472,410.52000000000004,301.116C412.47600000000006,298.104,414.72,294.096,412.53600000000006,290.568C409.03200000000004,289.84799999999996,403.45200000000006,292.416,401.48400000000004,288.40799999999996C398.97600000000006,280.41599999999994,405.732,271.82399999999996,401.76000000000005,264.14399999999995C390.12000000000006,254.59199999999996,375.90000000000003,249.70799999999994,361.74000000000007,245.37599999999995C356.92800000000005,243.64799999999994,352.21200000000005,241.57199999999995,347.82000000000005,238.85999999999996C347.56800000000004,239.32799999999995,347.31600000000003,239.80799999999996,347.0640000000001,240.27599999999995"></path>
<linearGradient id="path4847_1_" gradientUnits="userSpaceOnUse" x1="1141.6433" y1="1688.4041" x2="1332.0532" y2="1688.4041" gradientTransform="matrix(0.6 0 0 0.6 -497.144 -730.228)">
	<stop offset="0" style="stop-color:#1C4B4B"></stop>
	<stop offset="0.8273" style="stop-color:#2E7C7C"></stop>
	<stop offset="1" style="stop-color:#2E7C7C;stop-opacity:0"></stop>
</linearGradient>
<path id="path4847" fill="url(#path4847_1_)" d="M 253.032 269.412 C 250.74 269.436 248.448 269.52 246.168 269.676 C 246.168 269.676 246.024 269.676 246.024 269.676 C 246.024 269.676 245.868 269.688 245.868 269.688 C 223.044 273.54 198.924 278.736 178.836 292.02 C 180.288 293.496 181.812 294.888 183.396 296.22 C 201.984 284.376 224.616 279.384 246.696 275.652 C 263.748 274.488 281.508 277.476 296.7 285.012 C 297.12 285.408 297.54 285.792 297.96 286.188 C 297.96 286.188 302.088 281.844 302.088 281.844 C 301.548 281.34 301.02 280.836 300.492 280.32 C 300.492 280.32 300.168 280.02 300.168 280.02 C 300.168 280.02 299.772 279.816 299.772 279.816 C 285.408 272.604 269.088 269.292 253.032 269.412"></path>
<path id="path11234" fill="none" stroke="#010101" stroke-width="2.5" d="M350.976,163.02C350.976,163.02,354.156,188.496,347.784,194.868"></path>
<path id="path11236" fill="none" stroke="#010101" stroke-width="2.5" d="M359.46,165.143C359.46,165.143,362.652,190.62,356.28,196.992"></path>
<path id="path11238" fill="none" stroke="#010101" stroke-width="2.5" d="M343.536,159.836C343.536,159.836,346.728,185.316,340.356,191.67600000000002"></path>
<path id="path5414" opacity="0.6756" fill="#DEF2F7" stroke="#B9E4ED" stroke-width="5" enable-background="new    " d="M 285.234 172.44 C 285.436 187.822 273.131 200.456 257.748 200.658 C 242.366 200.86 229.732 188.555 229.53 173.172 C 229.527 172.928 229.527 172.683 229.53 172.439 C 229.328 157.057 241.633 144.423 257.016 144.221 C 272.398 144.019 285.032 156.324 285.234 171.707 C 285.237 171.951 285.237 172.196 285.234 172.44"></path>
<path id="path7335" fill="#010101" d="M 275.502 171.868 C 275.643 181.251 268.152 188.971 258.769 189.112 C 249.386 189.253 241.666 181.762 241.525 172.379 C 241.522 172.208 241.522 172.038 241.525 171.867 C 241.384 162.484 248.875 154.764 258.258 154.623 C 267.641 154.482 275.361 161.973 275.502 171.356 C 275.504 171.527 275.504 171.698 275.502 171.868"></path>
<path id="path6952" fill="#F9F9FA" d="M 271.458 171.933 C 271.567 179.2 265.765 185.179 258.499 185.289 C 251.232 185.398 245.253 179.596 245.143 172.33 C 245.141 172.198 245.141 172.066 245.143 171.934 C 245.034 164.667 250.836 158.688 258.102 158.578 C 265.368 158.468 271.348 164.271 271.458 171.537 C 271.46 171.669 271.46 171.801 271.458 171.933"></path>
<path id="path7337" fill="#010101" d="M 263.238 171.792 C 263.238 174.517 261.029 176.726 258.304 176.726 C 255.579 176.726 253.37 174.517 253.37 171.792 C 253.37 169.067 255.579 166.858 258.304 166.858 C 261.029 166.858 263.238 169.067 263.238 171.792"></path>
<path id="path7347" opacity="0.6756" fill="#E8F6F9" stroke="#CEECF2" stroke-width="5" enable-background="new    " d="M 213.301 175.196 C 213.42 184.242 206.183 191.672 197.137 191.791 C 188.091 191.91 180.661 184.673 180.542 175.627 C 180.54 175.483 180.54 175.34 180.542 175.196 C 180.423 166.15 187.66 158.72 196.706 158.601 C 205.752 158.482 213.182 165.719 213.301 174.765 C 213.303 174.909 213.303 175.053 213.301 175.196"></path>
<path id="path7349" fill="#010101" d="M 208.291 174.862 C 208.38 180.77 203.663 185.631 197.756 185.72 C 191.848 185.809 186.987 181.092 186.898 175.185 C 186.896 175.078 186.896 174.97 186.898 174.863 C 186.809 168.955 191.526 164.094 197.433 164.005 C 203.341 163.916 208.202 168.633 208.291 174.54 C 208.293 174.648 208.293 174.755 208.291 174.862"></path>
<path id="path7351" fill="#FFFFFF" d="M 205.204 174.898 C 205.268 179.171 201.856 182.688 197.583 182.752 C 193.309 182.816 189.793 179.404 189.729 175.131 C 189.728 175.053 189.728 174.976 189.729 174.898 C 189.665 170.624 193.077 167.108 197.35 167.044 C 201.623 166.98 205.14 170.392 205.204 174.665 C 205.205 174.743 205.205 174.821 205.204 174.898"></path>
<path id="path7355" fill="#A5D1DC" d="M 269.856 91.381 C 243.816 91.841 219.612 118.032 213.528 151.55 C 206.004 136.225 191.556 128.518 179.16 134.131 C 165.276 140.415 159.228 161.017 165.636 180.12 C 172.056 199.236 188.508 209.64 202.392 203.352 C 208.092 200.772 212.472 195.78 215.208 189.468 C 221.448 210.192 236.508 224.412 255.66 224.676 C 283.644 225.06 309.804 195.516 314.064 158.731 C 318.324 121.946 299.076 91.77 271.092 91.381 C 270.672 91.375 270.264 91.374 269.856 91.381 C 269.856 91.381 269.856 91.381 269.856 91.381 M 271.26 94.944 C 272.352 94.954 273.444 95.032 274.536 95.15 C 290.664 97.044 303.024 110.806 307.44 125.863 C 316.98 155.508 307.092 190.716 283.308 210.744 C 271.848 220.152 255.18 224.592 241.404 217.74 C 226.572 210.384 218.928 194.148 216.024 178.584 C 214.056 182.94 212.472 187.488 210.036 191.616 C 205.932 199.8 195.408 203.772 186.96 200.28 C 168.804 191.58 162.3 167.184 169.656 149.225 C 173.196 140.736 182.592 133.539 192.192 136.551 C 204.66 140.02 211.128 152.815 215.136 164.151 C 216.852 149.254 220.68 134.344 228.924 121.719 C 237.888 107.638 252.612 95.428 270.156 94.964 C 270.516 94.951 270.888 94.94 271.26 94.944 C 271.26 94.944 271.26 94.944 271.26 94.944"></path>
<linearGradient id="path7369_1_" gradientUnits="userSpaceOnUse" x1="1367.861" y1="1438.6666" x2="1367.861" y2="1482.6666" gradientTransform="matrix(0.6 0 0 0.6 -497.144 -730.228)">
	<stop offset="0" style="stop-color:#010101"></stop>
	<stop offset="1" style="stop-color:#010101;stop-opacity:0"></stop>
</linearGradient>
<path id="path7369" fill="#2E7C7C" stroke="url(#path7369_1_)" stroke-width="5" d="M320.856,117.368C320.856,117.368,325.656,139.56799999999998,326.256,160.56799999999998"></path>
<linearGradient id="path15089_1_" gradientUnits="userSpaceOnUse" x1="1113.4719" y1="1535.2687" x2="1137.272" y2="1555.0687" gradientTransform="matrix(0.6 0 0 0.6 -497.144 -730.228)">
	<stop offset="0" style="stop-color:#010101"></stop>
	<stop offset="1" style="stop-color:#010101;stop-opacity:0"></stop>
</linearGradient>
<path id="path15089" fill="none" stroke="url(#path15089_1_)" stroke-width="4" d="M168.732,192.432C168.732,192.432,183.156,211.944,198.432,208.128"></path>
<linearGradient id="path15861_1_" gradientUnits="userSpaceOnUse" x1="1185.0688" y1="1547.3167" x2="1185.0688" y2="1564.9967" gradientTransform="matrix(0.6 0 0 0.6 -497.144 -730.228)">
	<stop offset="0" style="stop-color:#010101"></stop>
	<stop offset="1" style="stop-color:#010101;stop-opacity:0"></stop>
</linearGradient>
<path id="path15861" fill="none" stroke="url(#path15861_1_)" stroke-width="3" d="M202.248,205.584C209.04,202.18800000000002,214.98,192.012,214.98,192.012C214.98,192.012,218.796,208.128,225.588,211.10399999999998"></path>
<linearGradient id="path23718_1_" gradientUnits="userSpaceOnUse" x1="1424.4163" y1="1647.9843" x2="1484.4163" y2="1751.9843" gradientTransform="matrix(0.6 0 0 0.6 -497.144 -730.228)">
	<stop offset="0" style="stop-color:#226879"></stop>
	<stop offset="1" style="stop-color:#62CBE6"></stop>
</linearGradient>
<path id="path23718" fill="none" stroke="url(#path23718_1_)" stroke-width="3" d="M345.456,248.172C349.716,254.322,353.43600000000004,260.976,358.776,266.298C364.356,274.944,366.096,285.324,370.116,294.684C372.336,303.096,377.556,310.22400000000005,382.416,317.25600000000003C385.896,321.636,390.156,326.076,395.796,327.408C398.856,327.738,401.796,326.466,404.856,326.772M353.256,249.372C359.976,252.102,363.57599999999996,259.086,365.796,265.596C367.176,269.55,369.57599999999996,273.01800000000003,371.556,276.678C376.296,287.328,378.33599999999996,299.1,384.45599999999996,309.144C386.73599999999993,313.548,390.27599999999995,317.736,395.256,318.972M357.456,247.572C361.356,250.536,367.236,250.38,370.11600000000004,254.736C378.636,262.542,381.396,274.23,387.03600000000006,283.94399999999996C389.91600000000005,290.4,392.79600000000005,296.89799999999997,394.9560000000001,303.61799999999994C395.1360000000001,304.33199999999994,395.1960000000001,305.04599999999994,395.2560000000001,305.77199999999993M347.856,259.572C350.076,264.126,354.996,267.03000000000003,356.076,272.16C361.416,280.488,363.156,290.37,365.37600000000003,299.838C367.35600000000005,306.348,372.336,311.196,376.47600000000006,316.356C381.03600000000006,322.602,386.1960000000001,329.628,394.29600000000005,331.224C397.41600000000005,332.02799999999996,400.59600000000006,332.508,403.65600000000006,333.372"></path>
<path id="path5922" fill="#010101" d="M 199.934 174.6 C 199.934 175.999 198.8 177.134 197.4 177.134 C 196.001 177.134 194.866 176 194.866 174.6 C 194.866 173.2 196 172.066 197.4 172.066 C 198.799 172.067 199.934 173.201 199.934 174.6"></path>
</svg>
