<!--?xml version="1.0" encoding="utf-8"?-->
<!-- Generator: Adobe Illustrator 15.0.2, SVG Export Plug-In . SVG Version: 6.00 Build 0)  -->

<svg version="1.1" id="Layer_1" xmlns="http://www.w3.org/2000/svg" xmlns:xlink="http://www.w3.org/1999/xlink" x="0px" y="0px" width="570.833px" height="418.833px" viewBox="0 0 570.833 418.833" enable-background="new 0 0 570.833 418.833" xml:space="preserve">
<path fill="#F2A548" stroke="#010101" stroke-width="2" d="M 434.555 392.117 C 434.758 385.453 445.826 388.089 445.735 388.087 C 445.773 388.09 446.178 388.093 446.195 388.102 C 445.794 388.593 445.28 389.343 444.357 390.411 C 439.87 395.606 443.081 398.074 443.117 398.079 C 443.107 398.077 440.77 398.487 440.759 398.487 C 440.766 398.488 434.353 398.773 434.555 392.117"></path>
<path fill="#DA8327" stroke="#010101" stroke-width="2" d="M 377.603 385.02 C 372.454 390.187 377.384 393.693 377.378 393.691 C 368.568 397.192 368.885 388.428 368.876 388.437 C 368.95 384.43 377.613 385.022 377.603 385.02"></path>
<path fill="#F2A548" stroke="#010101" stroke-width="2" d="M 252.424 382.69 C 250.965 385.352 249.984 393.023 249.98 393.025 C 249.963 393.017 246.298 393.367 244.284 392.691 C 242.324 392.034 242.983 388.695 242.983 388.695 C 243.848 383.025 252.401 382.689 252.424 382.69"></path>
<path fill="#DA8327" stroke="#010101" stroke-width="2" d="M 197.593 381.655 C 197.662 383.995 198.142 389.971 202.01 391.045 C 195.167 394.88 192.02 386.467 192.013 386.454 C 189.174 380.433 196.051 381.372 197.593 381.655"></path>
<path fill="#F2A548" stroke="#010101" stroke-width="2" d="M 105.441 264.344 C 103.867 258.992 105.989 249.439 106.195 249.436 C 106.078 249.446 108.863 245.425 107.058 242.774 C 105.229 240.089 106.4 238.126 106.332 238.101 C 106.564 238.138 107.395 237.396 111.432 230.459 C 114.272 225.577 117.81 223.61 119.447 222.737 C 119.509 222.764 119.483 222.731 119.509 222.729 C 119.801 222.599 120.093 222.478 120.384 222.37 C 120.428 222.354 120.462 222.352 120.514 222.329 C 124.484 220.87 127.883 221.438 127.77 221.438 C 123.253 226.688 121.742 228.239 121.637 228.659 C 120.175 228.659 140.423 222.767 142.042 222.767 C 140.951 228.766 137.19 236.108 137.316 236.108 C 142.447 231.766 155.917 224.433 156.402 224.433 C 156.08 227.761 148.78 239.105 149.429 239.105 C 159.743 236.759 168.647 229.426 168.617 229.426 C 177.369 224.754 188.653 226.416 188.677 226.416 C 191.13 229.08 188.243 234.08 188.575 234.078 C 187.028 248.404 155.79 247.435 156.324 247.432 C 184.222 259.411 186.851 270.726 185.97 270.73 C 175.69 265.584 164.853 261.674 164.441 261.435 C 178.098 273.41 177.552 282.404 177.021 282.407 C 136.626 271.443 149.475 288.748 148.031 288.753 C 145.2 295.088 143.644 295.09 143.731 295.089 C 133.886 296.88 128.091 291.185 126.785 289.974 C 126.928 290.184 127.219 290.45 127.254 290.756 C 127.353 291.639 122.379 283.447 121.213 280.425 C 120.052 277.417 117.31 275.445 117.487 275.43 C 114.725 276.104 105.404 265.432 105.798 265.433 C 105.561 265.223 105.643 265.002 105.504 264.774 C 105.504 264.774 105.441 264.344 105.441 264.344"></path>
<path fill="#F2A548" stroke="#010101" stroke-width="2" d="M 121.155 228.769 C 121.155 228.769 121.152 228.899 121.437 228.668 C 121.437 228.668 121.154 228.769 121.155 228.769"></path>
<path fill="#72CCD3" stroke="#010101" stroke-width="2" d="M 121.926 245.69 C 121.964 245.69 120.049 247.68 116.434 249.298 C 116.44 249.298 116.387 249.189 116.386 249.189 C 115.615 245.378 117.111 243.069 117.581 242.46 C 119.28 243.39 121.058 244.701 122.067 245.44 C 122.059 245.44 121.939 245.69 121.926 245.69"></path>
<path fill="#8D2222" stroke="#010101" stroke-width="2" d="M 187.802 201.785 C 187.552 201.787 168.913 206.099 159.936 209.768 C 161.393 209.267 198.15 196.222 260.199 217.375 C 260.199 217.375 275.9 222.5 296.638 232.645 C 301.905 235.222 307.599 238.347 312.985 241.696 C 312.985 241.696 320.116 246.632 319.895 246.636 C 320.148 246.636 300.071 244.852 281.124 239.202 C 287.072 240.94 308.207 249.551 297.455 262.1 C 298.187 262.096 277.974 250.713 276.047 247.944 C 276.973 249.462 283.566 277.009 255.748 288.279 C 255.601 288.271 251.193 275.278 238.536 273.638 C 236.348 273.642 233.14 302 243.622 311.32 C 243.069 311.321 255.756 318.483 264.718 323.239 C 264.908 323.239 264.673 323.299 264.724 323.302 C 256.866 325.678 249.132 325.751 242.185 324.843 C 229.658 323.205 219.546 318.353 219.511 318.357 C 224.578 327.683 230.428 330.346 230.407 330.35 C 210.267 327.534 192.098 317.945 181.322 311.575 C 175.66 308.229 172.238 305.716 172.226 305.742 C 175.68 313.06 182.565 323.388 182.397 323.386 C 163.553 314.731 148.556 288.75 148.088 288.751 C 149.395 288.747 136.675 271.442 177.013 282.406 C 177.565 282.403 178.092 273.409 164.444 261.435 C 164.853 261.673 175.692 265.583 185.971 270.729 C 186.853 270.725 184.224 259.41 156.326 247.431 C 155.791 247.434 187.031 248.403 188.578 234.077 C 188.246 234.079 191.135 229.079 188.679 226.415 C 188.656 226.415 177.372 224.753 168.619 229.425 C 168.65 229.425 159.745 236.758 149.431 239.104 C 148.782 239.104 156.082 227.76 156.405 224.432 C 155.919 224.432 142.449 231.765 137.318 236.107 C 137.192 236.107 140.953 228.765 142.044 222.766 C 140.424 222.766 120.175 228.659 121.638 228.659 C 121.743 228.239 123.254 226.687 127.772 221.437 C 127.885 221.437 124.486 220.868 120.515 222.329 C 120.463 222.352 120.429 222.353 120.385 222.368 C 120.094 222.476 119.803 222.599 119.51 222.727 C 119.504 222.739 119.47 222.749 119.477 222.749 C 118.46 223.169 117.57 223.728 116.488 224.438 C 116.786 224.438 117.234 219.107 128.477 209.611 C 128.477 209.611 143.046 199.776 155.58 200.448 C 155.406 200.448 145.036 207.08 138.378 212.73 C 139.063 211.855 164.288 195.304 187.802 201.785"></path>
<path fill="#DA8327" stroke="#010101" stroke-width="2" d="M 197.669 380.742 C 197.424 380.65 202.935 381.727 202.686 381.7 C 211.724 373.333 206.366 338.793 204.74 333.937 C 196.964 329.863 182.621 313.845 181.302 311.576 C 192.115 317.93 210.251 327.543 230.405 330.341 C 230.417 330.343 224.578 327.672 219.503 318.352 C 219.557 318.335 229.623 323.217 242.198 324.822 C 241.759 327.314 237.883 337.949 237.883 337.949 C 227.086 364.786 244.619 363.019 238.075 373.036 C 233.629 379.84 225.505 388.104 224.76 388.717 C 212.236 394.905 203.361 391.328 201.307 390.843 C 200.311 390.608 195.973 383.523 197.954 381.732 C 198.149 381.556 196.977 380.276 197.669 380.742"></path>
<path fill="#F2A548" stroke="#010101" stroke-width="2" d="M 305.554 334.268 C 305.554 334.268 302.216 361.333 300.606 365.656 C 300.606 365.656 292.916 388.354 285.247 387.676 C 285.151 387.678 285.171 393.34 277.533 394.343 C 277.543 394.343 269.447 394.015 269.467 394.015 C 262.76 397.018 249.979 393.021 249.973 393.021 C 249.977 393.022 250.962 385.348 252.414 382.687 C 253.872 380.014 259.888 382.685 259.906 382.682 C 281.112 374.457 269.142 329.612 268.514 325.015 C 267.176 324.427 266.149 323.968 264.728 323.224 C 255.721 318.507 243.075 311.307 243.614 311.321 C 233.134 301.997 236.338 273.643 238.527 273.637 C 251.184 275.278 255.594 288.27 255.74 288.278 C 283.562 277.008 276.969 249.461 276.04 247.944 C 277.967 250.712 298.179 262.095 297.447 262.099 C 308.201 249.55 287.056 240.939 281.12 239.201 C 300.07 244.851 320.139 246.635 319.889 246.635 C 320.1 246.632 312.985 241.694 312.985 241.694 C 307.552 238.312 301.961 235.29 296.576 232.622 C 296.612 232.615 296.788 232.506 296.899 232.481 C 296.548 232.538 329.391 236.574 351.496 246.701 C 351.496 246.701 363.118 249.546 384.384 244.869 C 385.954 244.755 410.472 233.517 426.774 251.406 C 426.774 251.406 441.526 271.601 460.969 304.013 C 460.969 304.013 484.033 341.828 503.513 326.604 C 505.387 325.14 507.519 322.796 509.588 320.053 C 509.582 320.02 510.883 326.784 508.118 331.406 C 507.711 332.087 507.15 332.867 506.537 333.389 C 501.466 337.705 492.986 340.709 482.898 335.732 C 472.831 330.766 460.493 318.654 457.944 314.732 C 455.272 310.618 436.428 288.504 432.008 280.534 C 426.521 280.56 440.848 329.793 453.096 339.436 C 451.309 339.446 466.684 343.434 468.384 349.099 C 467.942 349.101 484.153 375.111 464.604 398.088 C 464.604 398.088 460.339 402.086 453.759 398.755 C 448.916 401.423 443.121 398.08 443.118 398.082 C 443.088 398.076 439.871 395.609 444.36 390.413 C 445.291 389.336 445.79 388.622 446.204 388.086 C 447.323 386.636 447.652 387.036 453.112 386.101 C 461.101 384.731 454.871 363.133 454.388 363.108 C 451.535 347.459 441.965 349.109 442.678 349.11 C 414.608 345.779 403.736 324.362 403.736 324.362 C 399.587 313.642 394.095 310.93 393.9 310.932 C 384.303 300.171 372.876 316.572 372.813 316.574 C 368.761 320.329 364.392 323.317 359.932 325.587 C 335.721 337.908 307.52 331.269 307.683 331.275 C 307.641 331.273 306.593 331.005 306.62 331.005 C 306.223 332.074 306.134 333.166 305.554 334.268"></path>
<path fill="#DA8327" stroke="#010101" stroke-width="2" d="M 410.726 364.06 C 410.717 364.063 416.196 377.898 403.407 391.709 C 403.545 391.705 383.035 397.446 377.37 393.687 C 377.4 393.687 372.438 390.185 377.611 385.017 C 377.56 385.014 382.887 384.195 386.613 379.52 C 386.87 379.54 393.065 363.161 384.896 354.361 C 377.27 346.148 361.389 328.268 359.996 325.581 C 364.288 323.297 368.816 320.339 372.804 316.566 C 372.874 316.568 384.308 300.163 393.888 310.925 C 394.176 310.928 399.434 313.628 403.841 324.367 C 404.048 324.324 395.483 330.064 401.505 341.369 C 406.73 351.177 410.063 361.305 410.59 364.062 C 410.672 364.039 410.709 364.067 410.726 364.06"></path>
<path fill="#8D2222" stroke="#010101" stroke-width="2" d="M 508.761 296.843 C 508.792 296.843 518.427 303.519 517.062 315.694 C 517.145 315.695 519.134 314.854 519.116 308.691 C 518.811 308.692 527.195 333.862 508.358 331.536 C 508.203 331.536 508.16 331.406 508.123 331.406 C 510.872 326.771 509.58 320.037 509.585 320.037 C 507.498 322.88 505.45 325.031 503.42 326.623 C 503.414 326.623 503.194 326.363 503.171 326.363 C 503.256 326.365 490.317 312.349 499.244 301.511 C 499.17 301.512 501.285 311.199 501.383 311.2 C 501.271 311.198 501.699 300.64 508.761 296.843"></path>
<path fill="#8D2222" stroke="#010101" d="M 105.531 264.772 C 105.458 264.631 105.452 264.495 105.405 264.341 C 105.477 264.337 105.631 264.403 105.901 264.593 C 108.251 266.252 112.244 263.935 112.254 263.934 C 111.8 269.602 110.119 270.101 110.093 270.101 C 110.06 270.101 106.248 266.114 105.531 264.772"></path>
<path fill="none" stroke="#010101" stroke-width="2" d="M 275.044 327.3 C 273.439 327.08 271.119 326.239 268.46 325.01 C 267.25 324.45 266.118 323.951 264.731 323.223 C 255.723 318.502 243.079 311.308 243.616 311.32 C 233.138 301.996 236.342 273.641 238.531 273.636 C 251.185 275.276 255.603 288.269 255.739 288.276 C 283.586 277.008 276.941 249.458 276.056 247.944 C 276.113 247.921 276.042 247.932 276.095 247.918 C 276.069 247.898 276.056 247.879 276.055 247.867"></path>
<path fill="none" stroke="#010101" stroke-width="2" d="M 457.194 391.434 C 457.349 391.413 447.103 395.441 453.749 398.75 C 460.375 402.049 464.548 398.144 464.608 398.074 C 484.139 375.127 467.944 349.085 468.378 349.099 C 466.682 343.427 451.304 339.445 453.092 339.433 C 440.842 329.791 426.52 280.555 432.004 280.531 C 436.432 288.495 455.258 310.622 457.941 314.728 C 460.502 318.648 472.811 330.763 482.901 335.732 C 492.949 340.68 501.503 337.74 506.518 333.372 C 507.136 332.833 507.704 332.106 508.122 331.403 C 510.867 326.786 509.577 320.001 509.592 320.065 C 507.47 322.715 505.418 325.205 503.556 326.646 C 483.969 341.802 460.904 303.876 461.041 304.103 C 441.228 271.281 427.118 251.783 426.662 251.283 C 410.605 233.661 385.914 244.687 384.349 244.86 C 363.504 249.711 350.929 246.443 351.673 246.785 C 329.119 236.432 296.719 232.631 296.85 232.454"></path>
<path fill="none" stroke="#010101" stroke-width="2" d="M 269.478 384.343 C 264.416 386.016 269.494 394.018 269.47 394.018 C 262.772 397.021 249.982 393.024 249.979 393.024 C 249.983 393.025 250.969 385.351 252.421 382.69 C 253.879 380.017 259.895 382.688 259.912 382.686 C 281.125 374.459 269.145 329.612 268.522 325.014 C 268.485 324.741 268.266 324.657 268.411 324.626"></path>
<path fill="none" stroke="#010101" stroke-width="2" d="M 269.475 394.018 C 269.454 394.018 277.545 394.346 277.543 394.346 C 285.155 393.343 285.195 387.68 285.227 387.68 C 293.021 388.349 300.517 365.661 300.59 365.661 C 302.466 361.225 305.271 334.488 305.656 334.141 C 306.097 333.742 306.424 331.728 306.605 331.011 C 311.53 311.495 309.244 296.497 309.145 296.486"></path>
<path fill="none" stroke="#010101" stroke-width="2" d="M 122.823 246.019 C 122.821 246.025 122.534 245.786 122.067 245.442 C 121.058 244.7 119.277 243.39 117.579 242.462 C 116.039 241.62 114.525 241.08 113.389 241.521"></path>
<path fill="none" stroke="#010101" stroke-width="2" d="M 114.628 250.019 C 115.27 249.8 115.875 249.55 116.432 249.3 C 120.044 247.681 121.961 245.691 121.923 245.691"></path>
<path fill="none" stroke="#010101" stroke-width="2" d="M 135.422 280.179 C 134.402 280.349 132.836 280.099 132.839 280.099 C 126.643 277.681 122.544 277.85 122.514 277.85"></path>
<path fill="none" stroke="#010101" stroke-width="2" d="M 388.733 394.2 C 378.293 388.692 389.408 385.45 389.407 385.451"></path>
<path fill="none" stroke="#010101" stroke-width="2" d="M 210.416 392.201 C 198.346 383.954 209.836 383.95 209.904 383.95"></path>
<g>
	<path fill="#FFFFFF" stroke="#010101" stroke-width="2" d="M 367.065 167.479 C 367.069 167.485 367.115 167.502 367.223 167.57 C 367.793 167.931 370.282 169.567 371.263 173.71 C 371.546 174.909 371.671 176.341 371.528 178 C 371.348 180.107 370.746 182.604 369.462 185.518 C 369.241 186.02 369.07 186.603 368.845 187.058 C 362.367 200.144 361.64 205.826 361.521 205.881 C 361.443 205.833 360.916 207.25 360.181 209.432 C 357.736 216.692 357.95 233.992 372.509 241.182 C 375.778 242.796 378.546 243.876 381.06 244.578 C 385.596 245.845 389.184 245.783 392.192 245.193 C 397.173 244.216 400.307 241.519 401.626 240.741 C 402.454 240.252 402.957 240.248 403.397 240.432 C 404.319 240.818 404.404 242.414 404.413 242.379 C 404.42 242.39 409.22 250.384 414.511 241.432 C 414.676 241.153 414.837 240.8 415.018 240.484"></path>
	<g id="XMLID_1_">
		<g>
			<path fill="#4C4B54" d="M 367.655 156.422 C 367.746 157.616 369.139 158.591 370.358 158.597 C 371.794 158.603 372.547 157.653 372.443 156.451 C 372.341 155.26 370.954 154.287 369.753 154.283 C 368.327 154.277 367.564 155.227 367.655 156.422 M 402.634 218.914 C 402.773 212.205 393.505 215.344 393.265 214.873 C 393.222 214.87 393.278 214.866 393.03 214.852 C 393.521 217.314 392.514 218.256 393.641 218.317 C 379.826 213.373 388.702 191.179 393.796 186.167 C 392.779 186.191 393.64 186.143 393.337 186.182 C 394.052 179.772 392.349 176.27 389.529 174.257 C 383.794 170.163 371.56 173.642 371.299 173.7 C 371.419 173.672 371.22 173.713 371.274 173.709 C 370.272 169.569 367.812 167.929 367.218 167.571 C 360.732 167.592 352.979 168.128 351.124 167.294 C 351.088 167.293 351.232 167.282 351.072 167.28 C 351.467 167.283 369.905 165.963 375.202 165.636 C 375.446 165.642 375.232 165.621 375.308 165.627 C 379.616 165.492 381.043 163.236 380.491 163.478 C 379.865 163.752 378.033 163.635 378.033 163.635 C 363.717 161.954 353.18 165.306 351.159 166.255 C 351.23 166.107 351.539 165.913 351.809 165.743 C 355.368 163.507 361.004 161.875 365.131 160.813 C 365.413 159 365.954 138.87 386.964 143.883 C 386.833 143.873 393.081 146.595 395.558 153.114 C 396.408 155.35 397.165 156.982 397.82 158.447 C 397.825 158.432 397.727 158.541 397.702 158.52 C 397.803 158.559 388.223 161.5 391.282 168.335 C 394.24 174.946 400.769 170.212 401.115 165.204 C 401.294 165.718 401.517 166.287 401.727 166.864 C 402.606 169.281 403.173 173.435 403.768 181.503 C 404.395 189.997 408.382 195.435 408.13 223.537 C 408.131 223.56 408.153 223.56 408.153 223.56 C 408.447 226.463 408.784 241.68 414.478 241.432 C 409.275 250.379 404.388 242.387 404.423 242.378 C 404.405 242.381 404.314 240.856 403.396 240.426 C 403.375 240.434 403.632 239.954 403.55 239.983 C 401.606 233.013 402.634 218.914 402.634 218.914 M 386.856 156.394 C 386.743 155.064 385.473 153.997 384.453 153.999 C 383.192 154 382.622 155.074 382.746 156.403 C 382.869 157.733 384.141 158.801 385.156 158.799 C 386.402 158.797 386.97 157.722 386.856 156.394"></path>
			<path fill="#FDB849" d="M 375.198 165.637 C 369.905 165.964 351.463 167.284 351.067 167.281 C 351.224 167.283 351.091 167.294 351.115 167.295 C 350.656 167.073 350.504 166.74 351.151 166.255 C 353.182 165.321 363.699 161.942 378.038 163.644 C 377.945 163.644 379.921 163.733 380.481 163.486 C 381.049 163.235 379.605 165.496 375.307 165.63 C 375.226 165.624 375.444 165.643 375.198 165.637"></path>
			<path fill="#FDB849" d="M 404.354 242.386 C 404.799 242.361 405.317 264.665 399.082 253.524 C 399.175 253.516 393.684 262.306 394.883 251.865 C 395.047 251.859 387.379 261.931 385.796 255.495 C 385.794 255.486 385.58 251.139 392.227 245.245 C 392.141 245.252 392.213 245.191 392.189 245.186 C 397.178 244.189 400.297 241.529 401.63 240.739 C 402.458 240.249 402.948 240.246 403.398 240.437 C 404.295 240.816 404.471 242.379 404.354 242.386"></path>
			<path fill="#FDB849" d="M 397.824 158.445 C 398.952 160.79 399.986 162.575 401.112 165.205 C 400.772 170.214 394.238 174.948 391.281 168.337 C 388.223 161.501 397.802 158.56 397.702 158.52 C 397.73 158.54 397.82 158.437 397.824 158.445"></path>
			<path fill="#FDB849" d="M 381.075 244.575 C 381.035 244.576 381.037 244.697 380.996 244.698 C 381.07 244.696 380.018 247.748 380.103 247.747 C 373.976 259.803 371.962 250.648 372.033 250.649 C 363.123 258.229 367.323 250.025 367.444 250.025 C 355.544 256.983 357.258 250.574 357.259 250.572 C 358.796 245.598 372.881 241.171 372.473 241.184 C 375.842 242.786 378.5 243.88 381.075 244.575"></path>
			<path fill="#FBF060" d="M 389.488 174.278 C 389.552 174.278 389.562 174.419 389.358 174.406 C 386.14 178.862 372.552 178.059 371.454 177.998 C 371.783 176.344 371.47 174.912 371.282 173.711 C 371.213 173.708 371.41 173.688 371.305 173.684 C 371.521 173.689 383.851 170.114 389.488 174.278"></path>
			<path fill="#9F5925" d="M 384.453 153.999 C 385.473 153.997 386.743 155.064 386.856 156.394 C 386.97 157.722 386.402 158.797 385.156 158.799 C 384.141 158.801 382.869 157.733 382.746 156.403 C 382.622 155.074 383.192 154 384.453 153.999 M 384.718 155.638 C 384.679 155.22 384.262 154.877 383.938 154.878 C 383.539 154.878 383.364 155.223 383.404 155.64 C 383.444 156.065 383.86 156.402 384.177 156.401 C 384.581 156.401 384.759 156.062 384.718 155.638"></path>
			<path fill="#9F5925" d="M 383.938 154.878 C 384.263 154.877 384.679 155.221 384.718 155.638 C 384.759 156.062 384.581 156.401 384.178 156.401 C 383.862 156.402 383.445 156.065 383.405 155.64 C 383.365 155.223 383.541 154.878 383.938 154.878"></path>
			<path fill="#4C4B54" d="M 368.705 187.049 C 368.645 187.069 368.739 187.033 368.866 187.069 C 362.329 200.129 361.671 205.839 361.509 205.878 C 361.545 205.862 360.801 207.225 360.161 209.416 C 360.132 209.418 360.062 209.398 359.982 209.392 C 354.992 213.294 354.173 215.16 354.591 215.172 C 348.209 203.541 368.667 187.091 368.705 187.049"></path>
			<path fill="#9F5925" d="M 369.756 154.283 C 370.957 154.287 372.342 155.26 372.444 156.451 C 372.548 157.653 371.793 158.603 370.36 158.597 C 369.137 158.591 367.75 157.616 367.658 156.423 C 367.565 155.227 368.326 154.277 369.756 154.283 M 369.971 155.683 C 369.934 155.26 369.506 154.919 369.176 154.918 C 368.763 154.916 368.574 155.25 368.61 155.674 C 368.646 156.091 369.07 156.432 369.402 156.433 C 369.816 156.435 370.008 156.1 369.971 155.683"></path>
			<path fill="#9F5925" d="M 369.177 154.918 C 369.507 154.919 369.935 155.26 369.972 155.683 C 370.009 156.101 369.816 156.435 369.403 156.433 C 369.072 156.432 368.646 156.091 368.612 155.674 C 368.577 155.25 368.765 154.916 369.177 154.918"></path>
		</g>
		<g>
			<path fill="none" stroke="#010101" stroke-width="2" d="M 365.119 160.945 C 365.18 160.96 365.105 160.893 365.119 160.814 C 365.442 159.001 365.911 138.87 386.991 143.885"></path>
			<path fill="none" stroke="#000000" stroke-width="0.5" stroke-linecap="round" stroke-linejoin="round" d="M 371.536 178.002 C 371.422 177.995 371.659 178.008 371.437 177.996 C 372.58 178.06 386.125 178.86 389.363 174.406"></path>
			<path fill="none" stroke="#010101" stroke-width="2" d="M 386.897 143.882 C 386.922 143.88 393.033 146.588 395.56 153.119 C 396.419 155.339 397.146 156.996 397.827 158.443 C 398.935 160.797 400.005 162.566 401.088 165.214 C 401.286 165.699 401.607 166.283 401.774 166.842 C 402.52 169.339 403.17 173.4 403.767 181.509 C 404.39 189.986 408.422 195.446 408.099 223.535 C 408.097 223.746 408.077 223.854 408.083 224.043"></path>
			<path fill="none" stroke="#010101" stroke-width="2" d="M 371.528 159.402 C 371.512 159.404 368.863 159.874 365.137 160.82 C 360.998 161.87 355.362 163.501 351.811 165.752 C 351.529 165.931 351.257 166.088 351.11 166.245 C 350.6 166.785 350.596 167.038 351.133 167.287 C 352.959 168.135 360.749 167.595 367.213 167.567 C 371.452 167.548 375.161 167.747 377.316 168.665"></path>
			<path fill="none" stroke="#010101" stroke-width="2" d="M 404.345 242.384 C 404.812 242.362 405.309 264.666 399.083 253.524 C 399.174 253.517 393.683 262.305 394.884 251.866 C 395.042 251.858 387.384 261.935 385.799 255.49 C 385.774 255.503 385.599 251.124 392.222 245.249"></path>
			<path fill="none" stroke="#010101" stroke-width="2" d="M 372.44 241.189 C 372.918 241.172 358.772 245.602 357.258 250.575 C 357.242 250.575 355.55 256.989 367.439 250.026 C 367.322 250.028 363.119 258.23 372.03 250.651 C 371.959 250.65 373.972 259.804 380.1 247.75 C 380.015 247.751 381.068 244.698 380.993 244.7"></path>
			<path fill="none" stroke="#010101" stroke-width="2" d="M 408.197 223.256 C 408.303 223.322 408.148 223.442 408.159 223.562 C 408.415 226.467 408.823 241.679 414.448 241.436 C 414.625 241.436 414.559 241.438 414.676 241.427"></path>
			<path fill="none" stroke="#010101" stroke-width="2" d="M 393.972 185.428 C 393.693 184.617 393.698 186.214 393.765 186.146 C 388.74 191.21 379.8 213.352 393.642 218.322 C 392.663 218.249 393.256 217.317 393.173 214.853 C 393.11 212.998 393.406 210.282 394.047 206.559 C 394.071 206.563 401.134 200.935 402.177 196.765"></path>
			<path fill="none" stroke="#010101" stroke-width="2" d="M 368.705 187.049 C 368.667 187.091 348.21 203.541 354.59 215.171 C 354.171 215.159 354.991 213.293 359.981 209.391"></path>
			<path fill="none" stroke="#010101" stroke-width="2" d="M 382.746 156.403 C 382.869 157.733 384.141 158.801 385.156 158.799 C 386.402 158.797 386.97 157.722 386.856 156.394 C 386.743 155.064 385.473 153.997 384.453 153.999 C 383.192 154 382.622 155.074 382.746 156.403"></path>
			<path fill="none" stroke="#010101" stroke-width="2" d="M 367.655 156.422 C 367.746 157.616 369.139 158.591 370.358 158.597 C 371.794 158.603 372.547 157.653 372.443 156.451 C 372.341 155.26 370.954 154.287 369.753 154.283 C 368.327 154.277 367.564 155.227 367.655 156.422"></path>
			<path fill="none" stroke="#010101" d="M 375.198 165.637 C 369.905 165.964 351.463 167.284 351.067 167.281"></path>
			<path fill="none" stroke="#010101" d="M 371.294 173.692 C 371.569 173.658 383.783 170.155 389.529 174.257 C 392.347 176.269 394.052 179.775 393.337 186.182"></path>
			<path fill="none" stroke="#010101" d="M 393.264 214.872 C 393.502 215.345 402.773 212.204 402.634 218.915 C 402.626 218.911 401.612 233.014 403.545 239.984"></path>
			<path fill="none" stroke="#010101" d="M 397.699 158.52 C 397.81 158.561 388.215 161.497 391.28 168.342 C 394.228 174.927 400.804 170.234 401.094 165.198 C 401.097 165.149 401.106 165.053 401.102 164.989"></path>
			<path fill="none" stroke="#010101" d="M 350.575 166.511 C 350.592 166.428 350.713 166.467 351.159 166.258 C 353.171 165.312 363.714 161.945 378.035 163.641 C 377.969 163.674 379.919 163.724 380.474 163.48 C 381.068 163.219 379.594 165.539 375.31 165.605 C 375.128 165.608 374.989 165.679 374.815 165.624"></path>
		</g>
	</g>
</g>
</svg>
