<svg version="1.1" id="Layer_1" xmlns="http://www.w3.org/2000/svg" xmlns:xlink="http://www.w3.org/1999/xlink" x="0px" y="0px" width="600px" height="400px" viewBox="0 0 600 400" enable-background="new 0 0 600 400" xml:space="preserve"><defs></defs><path d="M204.23300170898438 117.36799621582031 C 204.23300170898438 117.36799621582031 250.62100219726562 70.9800033569336 250.62100219726562 70.9800033569336 C 250.62100219726562 70.9800033569336 300 69 300 69 C 300 69 320.8559875488281 97.5 320.8559875488281 97.5 C 320.8559875488281 97.5 406.10400390625 59.93400192260742 406.10400390625 59.93400192260742 C 406.10400390625 59.93400192260742 441.64801025390625 56.5 441.64801025390625 56.5 C 441.64801025390625 56.5 399.5159912109375 117.73500061035156 399.5159912109375 117.73500061035156 C 399.5159912109375 117.73500061035156 413 144.218994140625 413 144.218994140625 C 413 144.218994140625 402 163.02000427246094 402 163.02000427246094 C 402 163.02000427246094 463 192.01199340820312 463 192.01199340820312 C 463 192.01199340820312 537 147 537 147 C 537 147 593 126.27999877929688 593 126.27999877929688 C 593 126.27999877929688 543.5 205.49899291992188 543.5 205.49899291992188 C 543.5 205.49899291992188 538.5 303.5 538.5 303.5 C 538.5 303.5 478.89599609375 239.75799560546875 478.89599609375 239.75799560546875 C 478.89599609375 239.75799560546875 413.5 282.81500244140625 413.5 282.81500244140625 C 413.5 282.81500244140625 452 330.5 452 330.5 C 452 330.5 398.61700439453125 354 398.61700439453125 354 C 398.61700439453125 354 355.74200439453125 316 355.74200439453125 316 C 355.74200439453125 316 278.1730041503906 332.6369934082031 252.38499450683594 329 C 227.97999572753906 325.5580139160156 157.78700256347656 290.125 157.78700256347656 290.125 C 157.78700256347656 290.125 155.5 131.99899291992188 155.5 131.99899291992188 C 155.5 131.99899291992188 204.23300170898438 117.36799621582031 204.23300170898438 117.36799621582031" style="opacity: 0;"></path><rect x="193" y="172" width="10" height="10" rx="2" ry="2" class="handle-original" fill="#da55da" stroke="#000000" style="stroke-width: 2px; opacity: 0.5;"></rect><rect x="254" y="167" width="10" height="10" rx="2" ry="2" class="handle-original" fill="#da55da" stroke="#000000" style="stroke-width: 2px; opacity: 0.5;"></rect><rect x="193" y="172" width="10" height="10" rx="2" ry="2" class="handle" fill="#da55da" stroke="#000000" transform="matrix(1.859,0,0,1.859,-170.0698,-152.0322)" style="stroke-width: 2px;"></rect><rect x="254" y="167" width="10" height="10" rx="2" ry="2" class="handle" fill="#da55da" stroke="#000000" transform="matrix(0.2369,0,0,0.2369,197.6364,131.249)" style="stroke-width: 2px;"></rect></svg>