<!--?xml version="1.0" encoding="utf-8"?-->
<!-- Generator: Adobe Illustrator 17.0.2, SVG Export Plug-In . SVG Version: 6.00 Build 0)  -->

<svg version="1.1" id="Layer_1" xmlns="http://www.w3.org/2000/svg" xmlns:xlink="http://www.w3.org/1999/xlink" x="0px" y="0px" width="792px" height="612px" viewBox="0 0 792 612" enable-background="new 0 0 792 612" xml:space="preserve">
<path fill="#D6D7EC" stroke="#010101" stroke-width="4.6788" stroke-linecap="round" d="M 98.1813 278.679 C 88.4356 275.059 72.9625 280.526 77.5162 290.998 C 92.4043 325.234 161.83 348.908 195.024 343.192 C 269.038 330.447 360.225 202.915 404.274 263.433 C 431.551 300.909 462.408 327.171 514.403 325.199 C 530.515 324.587 542.844 314.265 552.731 309.304 C 557.813 306.755 580.792 303.106 575.379 333.819 C 571.029 358.505 530.022 381.067 512.739 402.493 C 500.184 418.059 478.133 432.205 467.835 438.171 C 433.679 457.958 403.409 417.059 374.164 409.182 C 338.246 399.507 295.94 442.453 263.155 450.901 C 240.98 456.615 213.277 452.385 189.725 450.874 C 137.078 447.495 158.789 406.315 135.249 423.781 C 124.508 431.75 142.83 466.57 152.11 458.146 C 169.582 530.28 173.287 513.837 219.101 541.171 C 339.024 612.723 489.307 476.735 574.725 448.364 C 628.955 430.352 689.359 400.547 656.653 336.059 C 638.749 300.757 613.675 269.109 584.188 230.471 C 532.348 162.545 445.095 75.0145 349.482 41.9788 C 326.559 34.0584 304.459 28.463 282.742 25.4758 C 244.003 20.1473 208.053 25.8179 179.188 50.82 C 144.459 80.9016 127.661 129.394 113.364 171.51 C 101.883 205.334 101.721 240.71 98.1813 278.679"></path>
<path fill="#FFFFFF" stroke="#010101" stroke-width="4.6788" stroke-linecap="round" d="M 238.963 188.346 C 224.118 199.236 204.59 204.348 185.897 201.722 C 105.602 178.071 173.054 52.0923 231.746 104.004 C 239.045 110.459 252.55 125.068 252.983 134.748 C 253.574 147.935 248.458 180.782 238.963 188.346"></path>
<path fill="#FFFFFF" stroke="#010101" stroke-width="4.6788" stroke-linecap="round" d="M 238.993 188.46 C 255.436 224.604 299.889 215.239 330.978 201.447 C 375.941 181.5 360.417 120.341 306.803 110.391 C 284.492 106.25 266.327 109.048 251.967 125.048 C 237.111 141.601 229.262 167.07 238.993 188.46"></path>
<path fill="#50BFA2" stroke="#010101" stroke-width="4.6788" stroke-linecap="round" d="M 263.014 169.718 C 315.946 205.505 320.707 108.507 263.239 140.002 C 257.729 149.167 251.986 162.129 263.014 169.718"></path>
<path fill="#50BFA2" stroke="#010101" stroke-width="4.6788" stroke-linecap="round" d="M 170.35 162.093 C 184.772 175.191 212.496 162.524 206.739 144.565 C 198.955 120.283 150.775 136.548 170.35 162.093"></path>
<path fill="#7E9ACF" stroke="#010101" stroke-width="4.6788" stroke-linecap="round" d="M 99.0572 279.081 C 91.8927 308.372 170.846 330.572 195.454 318.256 C 254.308 288.801 387.529 188.422 419.657 255.153 C 452.538 323.45 504.027 315.153 528.409 304.823 C 551.558 295.014 556.28 280.148 580.914 297.644 C 621.679 326.596 559.233 378.026 536.276 398.763 C 498.354 433.021 472.972 457.849 430.333 452.945 C 405.837 450.127 398.965 436.907 378.431 430.139 C 347.11 419.815 296.625 461.753 262.278 467.361 C 238.053 471.316 176.174 470.609 152.877 463.759 C 141.947 460.545 124.732 433.196 135.345 424.395 C 158.604 405.107 137.175 448.112 189.733 450.917 C 213.246 452.172 240.996 456.701 263.161 450.929 C 295.933 442.393 338.252 399.536 374.166 409.186 C 403.408 417.042 433.68 457.969 467.837 438.171 C 478.136 432.201 500.185 418.063 512.741 402.493 C 530.022 381.067 571.03 358.506 575.381 333.82 C 580.794 303.107 557.813 306.755 552.733 309.305 C 542.848 314.265 530.514 324.59 514.403 325.201 C 462.414 327.171 431.547 300.907 404.277 263.434 C 360.238 202.919 269.021 330.439 195.036 343.196 C 161.856 348.918 92.3184 325.193 77.5862 291.029 C 73.0799 280.579 87.595 274.675 99.0572 279.081"></path>
</svg>
