<svg version="1.1" id="Layer_1" xmlns="http://www.w3.org/2000/svg" xmlns:xlink="http://www.w3.org/1999/xlink" x="0px" y="0px" width="595px" height="194px" viewBox="0 0 595 194" enable-background="new 0 0 595 194" xml:space="preserve"><defs><rect width="10" height="10" class="svg---mgr"></rect></defs><path d="M83.7040023803711 108.0770034790039 C 83.7040023803711 108.0770034790039 90.2979965209961 108.0770034790039 90.2979965209961 108.0770034790039 C 90.2979965209961 108.0770034790039 90.2979965209961 67.44599914550781 90.2979965209961 67.44599914550781 C 90.2979965209961 67.44599914550781 83.7040023803711 67.44599914550781 83.7040023803711 67.44599914550781 C 83.7040023803711 67.44599914550781 83.7040023803711 66.61399841308594 83.7040023803711 66.61399841308594 C 83.7040023803711 66.61399841308594 102.83100128173828 66.61399841308594 102.83100128173828 66.61399841308594 C 102.83100128173828 66.61399841308594 102.83100128173828 67.44599914550781 102.83100128173828 67.44599914550781 C 102.83100128173828 67.44599914550781 96.23699951171875 67.44599914550781 96.23699951171875 67.44599914550781 C 96.23699951171875 67.44599914550781 96.23699951171875 86.87100219726562 96.23699951171875 86.87100219726562 C 96.23699951171875 86.87100219726562 116.01799774169922 86.87100219726562 116.01799774169922 86.87100219726562 C 116.01799774169922 86.87100219726562 116.01799774169922 67.44599914550781 116.01799774169922 67.44599914550781 C 116.01799774169922 67.44599914550781 109.42400360107422 67.44599914550781 109.42400360107422 67.44599914550781 C 109.42400360107422 67.44599914550781 109.42400360107422 66.61399841308594 109.42400360107422 66.61399841308594 C 109.42400360107422 66.61399841308594 128.55099487304688 66.61399841308594 128.55099487304688 66.61399841308594 C 128.55099487304688 66.61399841308594 128.55099487304688 67.44599914550781 128.55099487304688 67.44599914550781 C 128.55099487304688 67.44599914550781 121.95700073242188 67.44599914550781 121.95700073242188 67.44599914550781 C 121.95700073242188 67.44599914550781 121.95700073242188 108.0770034790039 121.95700073242188 108.0770034790039 C 121.95700073242188 108.0770034790039 128.55099487304688 108.0770034790039 128.55099487304688 108.0770034790039 C 128.55099487304688 108.0770034790039 128.55099487304688 108.90899658203125 128.55099487304688 108.90899658203125 C 128.55099487304688 108.90899658203125 109.42400360107422 108.90899658203125 109.42400360107422 108.90899658203125 C 109.42400360107422 108.90899658203125 109.42400360107422 108.0770034790039 109.42400360107422 108.0770034790039 C 109.42400360107422 108.0770034790039 116.01799774169922 108.0770034790039 116.01799774169922 108.0770034790039 C 116.01799774169922 108.0770034790039 116.01799774169922 87.7020034790039 116.01799774169922 87.7020034790039 C 116.01799774169922 87.7020034790039 96.23799896240234 87.7020034790039 96.23799896240234 87.7020034790039 C 96.23799896240234 87.7020034790039 96.23799896240234 108.0770034790039 96.23799896240234 108.0770034790039 C 96.23799896240234 108.0770034790039 102.83200073242188 108.0770034790039 102.83200073242188 108.0770034790039 C 102.83200073242188 108.0770034790039 102.83200073242188 108.90899658203125 102.83200073242188 108.90899658203125 C 102.83200073242188 108.90899658203125 83.7040023803711 108.90899658203125 83.7040023803711 108.90899658203125 C 83.7040023803711 108.90899658203125 83.7040023803711 108.0770034790039 83.7040023803711 108.0770034790039" style="opacity: 0;"></path><rect x="100" y="88" width="10" height="10" rx="2" ry="2" class="handle-original" fill="#da55da" stroke="#000000" style="stroke-width: 2px; opacity: 0.5;"></rect><rect x="478" y="94" width="10" height="10" rx="2" ry="2" class="handle-original" fill="#da55da" stroke="#000000" style="stroke-width: 2px; opacity: 0.5;"></rect><rect x="288" y="86" width="10" height="10" rx="2" ry="2" class="handle-original" fill="#da55da" stroke="#000000" style="stroke-width: 2px; opacity: 0.5;"></rect><rect x="100" y="88" width="10" height="10" rx="2" ry="2" class="handle" fill="#da55da" stroke="#000000" transform="matrix(1.6487,0,0,1.6487,-68.1157,-60.3311)" style="stroke-width: 2px;"></rect><rect x="478" y="94" width="10" height="10" rx="2" ry="2" class="handle" fill="#da55da" stroke="#000000" transform="matrix(1,0,0,1,0,0)" style="stroke-width: 2px;"></rect><rect x="288" y="86" width="10" height="10" rx="2" ry="2" class="handle" fill="#da55da" stroke="#000000" transform="matrix(1.6487,0,0,1.6487,-199.0755,-94.0337)" style="stroke-width: 2px;"></rect></svg>