<!--?xml version="1.0" encoding="utf-8"?-->
<!-- Generator: Adobe Illustrator 15.0.2, SVG Export Plug-In . SVG Version: 6.00 Build 0)  -->

<svg version="1.1" id="Layer_1" xmlns="http://www.w3.org/2000/svg" xmlns:xlink="http://www.w3.org/1999/xlink" x="0px" y="0px" width="595px" height="194px" viewBox="0 0 595 194" enable-background="new 0 0 595 194" xml:space="preserve">
<g>
	<path d="M 68.0217 117.321 C 67.7214 117.244 79.8349 117.588 79.1248 117.401 C 80.9821 117.905 79.6534 50.5866 77.8803 50.2144 C 78.5694 50.3665 66.5822 50.1138 66.8711 50.1768 C 66.709 50.1409 66.8038 48.7938 66.6538 48.7595 C 66.9419 48.8269 99.3148 49.0235 98.9335 48.9363 C 99.0722 48.9677 99.0922 50.3422 99.1398 50.3517 C 99.1336 50.3535 88.3095 50.3558 88.1484 50.3257 C 88.524 50.3901 90.5744 82.8872 90.0897 82.7799 C 90.5866 82.9028 123.046 82.8636 122.398 82.7069 C 122.995 82.8381 120.435 50.2346 119.971 50.1536 C 120.186 50.1946 109.776 50.304 109.774 50.3003 C 109.69 50.2828 109.77 48.9302 109.502 48.8707 C 110.198 49.0261 138.777 48.3695 137.939 48.1824 C 138.288 48.26 138.072 49.5792 138.319 49.6335 C 137.982 49.5607 129.537 50.0975 128.52 49.8756 C 131.022 50.3991 132.945 117.836 130.281 117.144 C 131.34 117.412 139.836 116.797 140.189 116.885 C 139.932 116.82 140.229 118.264 139.87 118.17 C 140.73 118.394 111.841 119.099 111.133 118.911 C 111.41 118.985 111.259 117.575 111.354 117.6 C 111.336 117.594 121.898 117.515 121.639 117.443 C 122.226 117.611 123.103 84.2539 122.43 84.0817 C 123.092 84.2469 90.6215 84.2826 90.1178 84.154 C 90.6578 84.2952 89.9554 117.697 89.4889 117.559 C 89.6813 117.615 100.586 117.625 100.608 117.632 C 100.554 117.616 100.592 118.999 100.454 118.959 C 100.83 119.067 68.1271 118.727 67.8467 118.642 C 67.9954 118.685 67.8555 117.277 68.0217 117.321"></path>
	<path d="M 174.144 113.125 C 173.659 113.863 173.09 114.541 172.421 115.156 C 171.752 115.77 170.951 116.173 169.991 116.362 C 168.217 116.709 166.9 116.288 166.154 115.129 C 165.408 113.969 164.948 112.234 164.786 109.924 C 164.785 109.924 164.661 109.942 164.661 109.942 C 164.454 110.539 164.174 111.289 163.815 112.188 C 163.455 113.089 162.933 113.979 162.243 114.854 C 161.551 115.731 160.655 116.505 159.531 117.17 C 158.408 117.835 156.995 118.261 155.245 118.434 C 153.257 118.63 151.632 118.467 150.439 117.965 C 149.243 117.463 148.312 116.787 147.665 115.945 C 147.019 115.103 146.615 114.131 146.462 113.027 C 146.31 111.926 146.262 110.893 146.322 109.932 C 146.461 107.689 146.918 105.867 147.706 104.466 C 148.494 103.066 149.474 101.923 150.638 101.032 C 151.803 100.142 153.065 99.3848 154.414 98.7497 C 155.761 98.1155 157.091 97.4512 158.393 96.7252 C 159.932 95.8668 161.149 95.1027 162.096 94.4724 C 163.043 93.8424 163.76 93.1133 164.27 92.2994 C 164.78 91.4864 165.124 90.4975 165.305 89.3326 C 165.485 88.1709 165.566 86.612 165.524 84.6552 C 165.491 83.0887 165.387 81.6924 165.219 80.4668 C 165.051 79.2411 164.778 78.2057 164.402 77.3645 C 164.026 76.5221 163.509 75.9139 162.84 75.5326 C 162.172 75.1522 161.293 75.0258 160.176 75.1484 C 158.701 75.3101 157.459 75.813 156.486 76.6618 C 155.512 77.5123 155.053 78.7899 155.121 80.4977 C 155.166 81.6152 155.274 82.7069 155.447 83.7739 C 155.62 84.8412 155.708 85.6369 155.718 86.1584 C 155.736 87.0744 155.508 87.862 155.033 88.5234 C 154.557 89.1858 153.857 89.554 152.917 89.6278 C 151.285 89.756 150.232 89.4352 149.815 88.6801 C 149.398 87.925 149.177 86.9251 149.149 85.6819 C 149.117 84.242 149.333 82.8491 149.796 81.4991 C 150.258 80.1511 150.955 78.933 151.875 77.8399 C 152.796 76.7467 153.956 75.8447 155.33 75.1274 C 156.702 74.4115 158.258 73.9637 159.961 73.7791 C 162.02 73.5559 163.672 73.7255 164.996 74.3049 C 166.32 74.8841 167.351 75.7463 168.158 76.9068 C 168.965 78.0672 169.491 79.4084 169.88 80.9649 C 170.27 82.5223 170.261 84.122 170.559 85.9491 C 170.559 85.9491 169.873 109.978 169.873 109.978 C 169.466 111.751 169.735 113.008 169.973 113.566 C 170.21 114.124 170.714 114.36 171.307 114.229 C 171.69 114.143 172.121 113.933 172.555 113.585 C 172.989 113.237 173.418 112.771 173.824 112.174 C 173.826 112.175 174.144 113.125 174.144 113.125 M 165.396 92.4869 C 165.389 92.4853 165.278 92.5062 165.264 92.503 C 165.203 93.3639 164.458 94.2906 163.18 95.3163 C 163.18 95.3163 158.092 98.8005 158.092 98.8005 C 156.534 99.7798 155.359 101.073 154.468 102.655 C 153.576 104.24 153.078 106.156 152.941 108.397 C 152.882 109.358 152.894 110.344 152.968 111.354 C 153.041 112.364 153.243 113.248 153.567 114.01 C 153.891 114.772 154.379 115.374 155.025 115.816 C 155.67 116.258 156.531 116.424 157.59 116.309 C 159.107 116.145 160.332 115.558 161.304 114.554 C 162.274 113.551 163.023 112.348 163.564 110.95 C 164.106 109.55 164.49 108.058 164.728 106.47 C 164.967 104.883 165.095 103.443 165.166 102.162 C 165.166 102.162 165.486 92.5099 165.375 92.4811 C 165.424 92.4938 165.378 92.4826 165.396 92.4869"></path>
	<path d="M 172.75 138.79 C 172.428 138.69 176.895 137.917 176.046 137.667 C 178.047 138.283 181.751 73.2645 179.271 72.6326 C 180.248 72.8875 175.96 73.6409 176.308 73.734 C 176.113 73.683 176.294 72.3723 176.113 72.3274 C 176.476 72.4151 183.085 70.2361 182.786 70.1635 C 182.902 70.191 183.111 78.3603 183.118 78.3626 C 183.112 78.3609 183.187 78.332 183.186 78.3318 C 183.471 75.4564 183.968 72.9515 184.643 70.8044 C 185.317 68.6573 186.202 67.287 187.214 66.6705 C 188.005 66.1884 188.71 66.3175 189.347 67.0603 C 189.983 67.8025 190.51 68.9724 190.953 70.5754 C 191.395 72.1777 191.731 74.1849 191.977 76.5999 C 192.223 79.0174 192.348 81.6655 192.356 84.5505 C 192.364 87.5003 192.251 90.4172 191.999 93.2963 C 191.747 96.1768 191.39 98.8274 190.904 101.244 C 190.418 103.662 189.828 105.716 189.113 107.399 C 188.397 109.082 187.608 110.176 186.742 110.679 C 186.072 111.068 185.488 111.022 185.022 110.551 C 184.557 110.081 184.173 109.431 183.885 108.606 C 183.598 107.782 183.382 106.886 183.248 105.919 C 183.114 104.953 183.019 104.167 182.981 103.56 C 182.923 103.543 183.016 103.625 182.826 103.566 C 183.337 103.721 180.39 136.65 180.018 136.521 C 180.197 136.577 183.048 135.356 183.057 135.365 C 182.982 135.344 183.041 136.705 182.823 136.651 C 183.404 136.79 173.027 140.202 172.392 140.048 C 172.642 140.108 172.583 138.746 172.707 138.776 C 172.693 138.776 172.61 138.746 172.75 138.79 M 190.312 85.2989 C 190.311 82.3485 190.255 79.7268 190.151 77.439 C 190.048 75.1526 189.88 73.2462 189.65 71.7201 C 189.42 70.1946 189.11 69.1122 188.71 68.4703 C 188.31 67.8288 187.803 67.7079 187.157 68.1001 C 186.473 68.5151 185.881 69.2688 185.417 70.3674 C 184.953 71.4664 184.573 72.747 184.28 74.1937 C 184.071 75.225 183.897 76.2801 183.776 77.3847 C 183.655 78.4909 183.561 79.7743 183.491 81.2366 C 183.421 82.7024 183.374 84.3599 183.343 86.2138 C 183.312 88.0662 183.286 90.2475 183.245 92.7506 C 183.211 94.8694 183.217 97.0223 183.258 99.2072 C 183.299 101.394 183.436 103.318 183.671 104.983 C 183.907 106.649 184.278 107.915 184.773 108.78 C 185.268 109.645 185.957 109.843 186.78 109.363 C 187.583 108.894 188.191 108.003 188.649 106.7 C 189.105 105.397 189.449 103.713 189.692 101.653 C 189.935 99.5945 190.098 97.1893 190.182 94.4328 C 190.266 91.6793 190.313 88.6349 190.312 85.2989"></path>
	<path d="M 193.741 129.293 C 193.758 129.285 195.752 127.914 195.779 127.899 C 195.721 127.955 194.937 62.3845 195.059 62.4328 C 195.016 62.4219 193.663 63.9406 193.639 63.932 C 193.651 63.9347 193.621 62.5866 193.628 62.5848 C 193.622 62.5929 196.564 59.4382 196.613 59.4415 C 196.592 59.4379 196.614 67.4883 196.617 67.4921 C 196.616 67.4906 196.655 67.4526 196.654 67.452 C 196.833 64.568 197.145 62.0267 197.624 59.8287 C 198.104 57.6307 198.75 56.1827 199.617 55.4948 C 200.295 54.9569 200.973 55.0465 201.638 55.7628 C 202.303 56.4784 202.924 57.6396 203.488 59.2458 C 204.051 60.8513 204.528 62.8727 204.911 65.308 C 205.295 67.7458 205.529 70.4161 205.605 73.3193 C 205.683 76.2877 205.591 79.2171 205.328 82.1014 C 205.065 84.9872 204.679 87.6387 204.177 90.0568 C 203.674 92.476 203.079 94.532 202.407 96.2252 C 201.734 97.9189 201.02 99.0307 200.283 99.5653 C 199.713 99.9787 199.24 99.961 198.85 99.5125 C 198.459 99.0636 198.146 98.4363 197.899 97.6269 C 197.651 96.8189 197.463 95.9361 197.325 94.9759 C 197.188 94.0164 197.094 93.2363 197.039 92.6307 C 197.052 92.6322 196.974 92.6677 197.018 92.6714 C 196.899 92.659 197.993 126.378 198.072 126.371 C 198.027 126.368 200.198 125.02 200.21 125.028 C 200.224 125.03 200.257 126.376 200.315 126.393 C 200.142 126.342 193.699 130.612 193.741 130.632 C 193.719 130.623 193.753 129.295 193.742 129.291 C 193.745 129.294 193.748 129.289 193.741 129.293 M 202.464 73.875 C 202.402 70.9164 202.33 68.2991 202.231 66.0225 C 202.131 63.7472 201.981 61.8579 201.771 60.3519 C 201.56 58.8465 201.266 57.7862 200.894 57.1713 C 200.522 56.5567 200.048 56.4667 199.502 56.9056 C 198.925 57.3698 198.478 58.1737 198.133 59.308 C 197.788 60.4427 197.524 61.7525 197.322 63.2181 C 197.179 64.263 197.064 65.3285 196.984 66.4373 C 196.904 67.5475 196.843 68.831 196.801 70.2901 C 196.76 71.7528 196.738 73.4042 196.738 75.2515 C 196.738 77.0973 196.755 79.2722 196.793 81.7753 C 196.825 83.8942 196.894 86.046 197.005 88.2313 C 197.115 90.4179 197.288 92.3362 197.531 93.9908 C 197.774 95.646 198.1 96.8918 198.523 97.7327 C 198.947 98.5736 199.493 98.7342 200.189 98.2223 C 200.869 97.7224 201.421 96.8182 201.8 95.4959 C 202.179 94.1742 202.434 92.4693 202.559 90.3821 C 202.684 88.2956 202.711 85.8586 202.658 83.0722 C 202.605 80.2887 202.533 77.2203 202.464 73.875"></path>
	<path d="M 207.46 52.232 C 206.679 52.0665 217.872 48.5593 218.65 48.7288 C 218.355 48.6626 218.569 50.0605 218.461 50.0305 C 218.495 50.0532 213.945 51.0665 214.284 51.1734 C 213.512 50.912 220.74 79.7546 221.641 80.0246 C 220.735 79.7996 228.607 47.8577 229.454 48.0812 C 229.097 47.9913 224.083 48.9128 224.037 48.899 C 224.095 48.9138 224.038 47.5507 224.151 47.5778 C 223.861 47.5096 233.955 46.0189 234.242 46.0879 C 234.086 46.0505 234.263 47.4449 234.065 47.398 C 234.461 47.492 229.82 47.76 230.781 47.9887 C 228.575 47.4465 221.108 87.2253 221.108 87.2253 C 221.015 90.2832 220.389 93.2296 220.154 96.2537 C 219.918 99.2798 219.614 102.304 219.419 105.364 C 219.259 107.87 219.044 110.068 218.823 111.974 C 218.601 113.879 218.307 115.457 217.955 116.71 C 217.602 117.964 217.171 118.943 216.67 119.654 C 216.17 120.364 215.539 120.819 214.797 121.023 C 213.899 121.269 213.168 121.175 212.579 120.736 C 211.99 120.297 211.511 119.73 211.131 119.029 C 210.751 118.328 210.472 117.565 210.286 116.738 C 210.1 115.909 209.973 115.197 209.903 114.605 C 209.708 112.957 209.752 111.654 210.034 110.696 C 210.316 109.737 210.731 109.163 211.294 108.977 C 211.49 108.912 211.709 108.892 211.951 108.918 C 212.192 108.943 212.432 109.057 212.671 109.259 C 212.908 109.46 213.132 109.77 213.34 110.19 C 213.548 110.608 213.696 111.15 213.782 111.812 C 213.902 112.738 213.888 113.653 213.741 114.555 C 213.594 115.457 213.589 116.405 213.723 117.398 C 213.84 118.258 214.022 118.791 214.273 118.996 C 214.524 119.201 214.835 119.252 215.21 119.151 C 215.711 119.017 216.147 118.647 216.512 118.039 C 216.877 117.432 217.192 116.511 217.463 115.276 C 217.734 114.042 217.953 112.459 218.146 110.531 C 218.339 108.601 218.505 106.234 218.758 103.466 C 218.758 103.466 219.515 91.7367 219.999 91.8667 C 218.546 91.4381 208.773 52.0616 210.251 52.5309 C 209.654 52.3469 207.448 53.5904 207.253 53.522 C 207.346 53.5541 207.293 52.1923 207.341 52.2088 C 207.404 52.2192 207.17 52.1712 207.46 52.232"></path>
	<path d="M 258.97 85.0597 C 259.354 85.231 268.284 84.5271 269.349 84.957 C 266.668 83.9268 267.876 17.4294 270.413 18.8058 C 269.392 18.2865 260.469 19.1397 260.116 18.9413 C 260.325 19.0496 260.219 17.6367 260.423 17.7258 C 260.044 17.5761 276.037 17.1825 276.037 17.1825 C 277.025 17.1969 277.934 17.141 278.918 17.1093 C 279.899 17.0778 280.889 16.9922 281.908 16.9566 C 282.924 16.9211 283.906 16.9298 284.87 16.8919 C 285.832 16.854 286.759 16.8451 287.663 16.8486 C 292.359 16.8668 296.241 17.4695 299.244 18.607 C 302.247 19.7445 304.603 21.1351 306.289 22.7609 C 307.975 24.3868 309.1 26.1304 309.655 27.9812 C 310.211 29.8334 310.453 31.5143 310.372 33.0142 C 310.26 35.0776 309.678 36.9778 308.617 38.7132 C 307.556 40.4486 306.173 41.9625 304.467 43.2541 C 302.759 44.5471 300.815 45.587 298.637 46.3776 C 296.458 47.1688 294.199 47.6803 291.866 47.9117 C 291.866 47.9113 291.861 48.1059 291.862 48.105 C 294.254 48.3273 296.708 48.864 299.227 49.7259 C 301.746 50.5876 304.041 51.7797 306.114 53.3023 C 308.184 54.8233 309.876 56.6867 311.19 58.8876 C 312.503 61.0886 313.185 63.603 313.244 66.4346 C 313.306 69.3976 312.806 72.1079 311.739 74.5603 C 310.672 77.0134 309.034 79.1121 306.83 80.8597 C 304.625 82.6084 301.812 83.9706 298.417 84.96 C 295.019 85.9505 291.062 86.4347 286.585 86.4301 C 285.676 86.4291 284.789 86.4138 283.916 86.3805 C 283.045 86.3473 282.129 86.3024 281.166 86.24 C 280.199 86.1774 279.22 86.1384 278.198 86.1104 C 277.175 86.0824 276.15 86.0922 274.964 86.0883 C 274.964 86.0883 258.862 86.4069 259.253 86.526 C 259.082 86.4734 259.121 85.1157 259.037 85.0899 C 259.022 85.0783 259.148 85.1389 258.97 85.0597 M 277.25 47.555 C 277.07 47.4531 286.12 47.4847 286.12 47.4847 C 287.953 47.4876 289.647 47.276 291.186 46.8408 C 292.724 46.4064 294.066 45.6367 295.206 44.5328 C 296.344 43.4305 297.252 41.9256 297.938 40.0315 C 298.624 38.1373 299.038 35.7399 299.213 32.8547 C 299.411 29.596 299.155 26.9994 298.416 25.0353 C 297.677 23.0718 296.652 21.5926 295.332 20.5907 C 294.011 19.5887 292.504 18.9251 290.816 18.6048 C 289.127 18.2843 287.445 18.1202 285.785 18.122 C 284.635 18.1232 283.449 18.1277 282.294 18.1789 C 281.137 18.2302 280.028 18.2431 279.351 18.4736 C 278.898 18.161 276.784 47.2785 277.25 47.555 M 278.377 84.6853 C 278.905 84.6639 279.915 84.7977 280.819 84.8822 C 281.723 84.9667 283.08 85.0202 284.822 85.0171 C 287.849 85.0118 290.47 84.7257 292.638 84.1397 C 294.803 83.5544 296.563 82.5201 297.911 81.0339 C 299.258 79.5486 300.206 77.5789 300.77 75.1278 C 301.333 72.6767 301.552 69.5934 301.466 65.8968 C 301.344 60.6168 300.183 56.475 297.911 53.4421 C 295.64 50.4095 292.281 48.8733 287.865 48.846 C 287.865 48.846 276.988 48.7977 277.246 48.9106 C 276.573 48.6194 277.672 84.451 278.377 84.6853"></path>
	<path d="M 323.553 85.3865 C 323.634 85.4193 331.333 85.6747 331.495 85.778 C 331.044 85.5391 330.485 46.2266 330.955 46.5951 C 330.789 46.4559 323.019 46.0844 322.937 46.0448 C 322.959 46.0657 322.995 44.7033 322.965 44.7192 C 323.058 44.6818 339.675 45.7533 339.772 45.9306 C 339.371 45.5497 339.794 85.9883 340.22 86.2423 C 340.075 86.1319 347.96 86.7095 347.865 86.6734 C 347.887 86.7024 347.945 88.0275 347.903 88.0739 C 348.061 87.9609 323.701 86.6963 323.625 86.8094 C 323.647 86.763 323.577 85.4141 323.553 85.3865 M 330.569 23.4158 C 330.649 22.0799 331.246 20.9873 332.35 20.1372 C 333.452 19.2884 334.741 18.9309 336.218 19.0642 C 337.69 19.1971 338.916 19.7801 339.9 20.8124 C 340.882 21.8431 341.34 23.0243 341.274 24.3532 C 341.207 25.6836 340.634 26.7704 339.549 27.6176 C 338.462 28.4656 337.175 28.8253 335.687 28.6992 C 334.198 28.573 332.95 27.9974 331.949 26.967 C 330.949 25.9366 330.488 24.7533 330.569 23.4158"></path>
	<path d="M 353.305 87.0565 C 353.386 87.0821 360.774 87.5949 360.837 87.682 C 360.606 87.4875 360.348 49.0767 360.587 49.399 C 360.524 49.275 353.055 48.4974 352.98 48.4668 C 352.991 48.4914 353.036 47.1338 352.984 47.1727 C 353.144 47.0807 368.722 49.0707 368.569 49.1519 C 368.605 49.1104 368.497 58.5274 368.533 58.5423 C 368.518 58.5373 368.718 58.567 368.713 58.5654 C 368.966 57.6634 369.377 56.66 369.943 55.5602 C 370.508 54.4615 371.292 53.4458 372.283 52.5196 C 373.273 51.5941 374.457 50.8765 375.819 50.3721 C 377.18 49.8677 378.808 49.7879 380.679 50.1363 C 382.022 50.3864 383.17 50.8364 384.137 51.4819 C 385.102 52.1263 385.885 52.8586 386.496 53.6752 C 387.108 54.4935 387.544 55.3814 387.816 56.3413 C 388.087 57.3012 388.22 58.2331 388.215 59.1384 C 388.204 61.1304 387.789 62.3808 386.951 62.8917 C 386.113 63.4025 385.131 63.5557 383.989 63.3545 C 381.477 62.9117 380.171 61.8424 380.182 60.1201 C 380.185 59.5673 380.242 59.1326 380.361 58.8149 C 380.48 58.4985 380.613 58.185 380.761 57.8737 C 380.909 57.5641 381.043 57.2043 381.162 56.7984 C 381.28 56.3928 381.342 55.7916 381.345 55.0008 C 381.355 53.0553 380.355 51.8931 378.279 51.5273 C 377.33 51.36 376.309 51.5528 375.215 52.1093 C 374.12 52.6662 373.091 53.583 372.129 54.8586 C 371.165 56.1374 370.354 57.7483 369.692 59.6827 C 369.03 61.6198 368.713 63.9281 368.702 66.5541 C 368.702 66.5541 368.848 88.3109 368.936 88.3964 C 368.946 88.3508 376.905 89.1987 376.822 89.1965 C 376.799 89.2118 376.94 90.4969 376.774 90.5407 C 377.263 90.4238 353.684 88.3301 353.292 88.4506 C 353.452 88.4029 353.252 87.0808 353.333 87.057 C 353.285 87.0644 353.351 87.0662 353.305 87.0565"></path>
	<path d="M 389.396 52.8985 C 389.476 52.882 395.576 54.3097 395.524 54.331 C 395.53 54.3021 395.619 42.9585 395.63 42.9896 C 396.034 43.2664 396.418 43.5225 396.773 43.7372 C 397.125 43.9506 397.733 44.1789 398.58 44.4223 C 399.326 44.6368 399.961 44.724 400.5 44.6835 C 401.038 44.6432 401.538 44.4623 402.032 44.1601 C 401.999 44.1342 401.937 56.0046 401.883 56.0371 C 402.104 55.9939 411.559 59.0156 411.271 59.0549 C 411.342 59.0421 411.333 60.2386 411.251 60.2393 C 411.559 60.2211 402.069 57.1913 401.889 57.2762 C 401.876 57.1213 401.701 86.0872 401.701 86.0872 C 401.705 87.7654 401.822 89.1244 402.077 90.2097 C 402.332 91.2956 402.664 92.1518 403.076 92.7881 C 403.489 93.4252 403.931 93.8719 404.404 94.1351 C 404.877 94.3984 405.332 94.5702 405.774 94.6532 C 407.317 94.943 408.511 94.4402 409.41 93.1642 C 410.309 91.8888 410.869 90.3472 411.123 88.5233 C 411.125 88.5233 411.96 89.1577 411.957 89.157 C 411.834 89.8674 411.65 90.6492 411.405 91.5047 C 411.16 92.361 410.785 93.1472 410.27 93.8674 C 409.756 94.5877 409.084 95.1386 408.234 95.5195 C 407.384 95.9007 406.312 95.9736 404.97 95.7325 C 401.613 95.1295 399.052 93.871 397.597 91.8884 C 396.142 89.9066 395.385 87.3232 395.385 84.0969 C 395.385 84.0969 395.48 55.4049 395.523 55.5955 C 395.553 55.511 389.472 54.1615 389.386 54.1471 C 389.42 54.1549 389.394 52.8919 389.411 52.8964 C 389.395 52.8961 389.43 52.8928 389.396 52.8985"></path>
	<path d="M 413.068 94.9632 C 413.216 94.9713 417.322 95.9771 417.381 96.0003 C 417.092 95.9623 418.143 38.5082 418.396 38.6619 C 418.348 38.604 414.023 36.6051 413.901 36.5901 C 413.905 36.6015 414.014 35.4213 413.887 35.4382 C 414.259 35.3983 423.112 39.8193 422.918 39.8319 C 422.855 39.837 421.776 71.7544 421.928 71.7346 C 421.869 71.7417 422.013 71.7773 421.996 71.779 C 422.167 71.1483 422.451 70.3885 422.844 69.5118 C 423.237 68.6354 423.755 67.8804 424.384 67.2502 C 425.012 66.6208 425.758 66.2002 426.592 65.9876 C 427.425 65.7753 428.382 65.9851 429.406 66.6052 C 431.054 67.6027 432.236 69.212 433.042 71.4103 C 433.847 73.6085 434.166 76.3947 433.962 79.8723 C 433.962 79.8723 433.442 101.349 433.832 101.235 C 433.697 101.291 436.146 102.129 436.046 102.142 C 436.047 102.126 436.153 103.153 436.035 103.119 C 436.371 103.208 428.628 100.365 428.173 100.295 C 428.321 100.324 428.214 99.219 428.215 99.2355 C 428.34 99.2173 430.929 100.245 431.048 100.189 C 430.667 100.308 431.287 75.8919 431.287 75.8919 C 431.432 73.8874 431.249 72.1532 430.883 70.6043 C 430.518 69.0564 429.854 67.9894 428.866 67.4045 C 428.055 66.9244 427.228 66.831 426.404 67.1363 C 425.579 67.4419 424.814 68.0986 424.13 69.1135 C 423.445 70.1305 422.884 71.4699 422.459 73.1291 C 422.034 74.7899 421.812 76.7065 421.762 78.8694 C 421.762 78.8694 421.536 97.1591 421.613 97.1428 C 421.634 97.1506 425.085 98.1713 425.006 98.1716 C 424.955 98.1702 425.157 99.2774 424.909 99.2733 C 425.598 99.2863 413.716 96.1438 412.974 96.154 C 413.265 96.1509 412.979 94.9664 413.125 94.9648 C 413.039 94.9644 413.15 94.9669 413.068 94.9632"></path>
	<path d="M 449.758 57.6358 C 450.111 57.5231 454.603 60.4316 455.601 59.8529 C 453.125 61.3277 448.175 107.169 451.218 106.242 C 450.047 106.648 453.795 106.644 453.296 106.818 C 453.53 106.737 453.362 107.679 453.487 107.636 C 453.322 107.691 448.04 106.837 448.167 106.79 C 448.098 106.807 447.826 101.289 447.857 101.291 C 447.846 101.289 447.794 101.276 447.791 101.275 C 447.727 101.764 447.629 102.349 447.502 103.031 C 447.375 103.713 447.178 104.357 446.912 104.965 C 446.646 105.574 446.302 106.072 445.882 106.454 C 445.462 106.837 444.93 106.952 444.293 106.784 C 443.468 106.566 442.674 105.932 441.914 104.861 C 441.154 103.789 440.482 102.423 439.905 100.761 C 439.329 99.1001 438.877 97.2319 438.561 95.1672 C 438.246 93.103 438.11 90.9798 438.164 88.8259 C 438.217 86.7194 438.447 84.7821 438.851 83.0325 C 439.254 81.2852 439.777 79.8533 440.406 78.7393 C 441.036 77.6254 441.742 76.8476 442.519 76.3921 C 443.295 75.9369 444.088 75.9332 444.896 76.3564 C 445.927 76.897 446.714 77.9148 447.245 79.4123 C 447.776 80.9097 448.105 82.554 448.232 84.3669 C 448.307 84.3225 448.149 84.4753 448.402 84.3229 C 447.725 84.7129 451.666 60.185 452.185 59.7894 C 451.982 59.9457 449.692 58.5956 449.623 58.6318 C 449.656 58.6131 449.819 57.6175 449.837 57.6071 C 449.779 57.63 449.933 57.571 449.758 57.6358 M 440.851 89.3879 C 440.778 91.7597 440.781 93.9122 440.839 95.8516 C 440.896 97.7933 441.062 99.4752 441.316 100.896 C 441.57 102.317 441.938 103.453 442.409 104.299 C 442.88 105.144 443.495 105.671 444.262 105.879 C 445.047 106.092 445.668 105.863 446.116 105.215 C 446.564 104.567 446.899 103.672 447.125 102.53 C 447.351 101.389 447.5 100.091 447.58 98.6291 C 447.661 97.1684 447.717 95.7349 447.745 94.3221 C 447.777 92.6544 447.821 91.197 447.854 89.9566 C 447.887 88.715 447.904 87.6003 447.894 86.612 C 447.885 85.6248 447.846 84.7496 447.769 83.9952 C 447.692 83.2403 447.591 82.5067 447.451 81.8099 C 447.249 80.798 446.943 79.9024 446.544 79.1066 C 446.146 78.3105 445.594 77.7377 444.902 77.3805 C 444.246 77.0423 443.683 77.0723 443.208 77.489 C 442.734 77.9057 442.332 78.6516 442.01 79.7263 C 441.687 80.8018 441.427 82.1597 441.239 83.7903 C 441.051 85.4215 440.915 87.2902 440.851 89.3879"></path>
	<path d="M 476.221 108.165 C 475.781 108.552 475.253 108.889 474.639 109.175 C 474.026 109.461 473.261 109.596 472.361 109.579 C 470.698 109.547 469.502 109.112 468.716 108.282 C 467.932 107.453 467.359 106.3 467.012 104.824 C 467.013 104.824 466.916 104.821 466.916 104.82 C 466.81 105.172 466.662 105.611 466.48 106.136 C 466.298 106.662 465.998 107.163 465.591 107.639 C 465.182 108.116 464.627 108.507 463.936 108.81 C 463.245 109.113 462.355 109.238 461.296 109.175 C 460.094 109.103 459.159 108.847 458.45 108.413 C 457.741 107.979 457.189 107.459 456.781 106.859 C 456.373 106.259 456.091 105.597 455.932 104.874 C 455.773 104.152 455.681 103.486 455.654 102.876 C 455.591 101.453 455.741 100.333 456.088 99.5202 C 456.434 98.7082 456.904 98.0831 457.502 97.6419 C 458.1 97.201 458.779 96.8584 459.549 96.6066 C 460.317 96.3553 461.116 96.0869 461.943 95.7815 C 462.921 95.4205 463.757 95.088 464.429 94.8097 C 465.101 94.5312 465.642 94.166 466.044 93.7232 C 466.446 93.2803 466.741 92.7087 466.932 92.0057 C 467.122 91.3046 467.265 90.3434 467.378 89.1164 C 467.469 88.1342 467.516 87.2479 467.51 86.4583 C 467.504 85.6688 467.414 84.9829 467.235 84.4037 C 467.056 83.824 466.753 83.3701 466.328 83.0394 C 465.903 82.7085 465.307 82.5093 464.556 82.4369 C 463.562 82.3412 462.733 82.4957 462.051 82.9069 C 461.367 83.319 460.962 84.072 460.831 85.1626 C 460.745 85.8762 460.71 86.5805 460.724 87.2763 C 460.738 87.9723 460.735 88.4853 460.706 88.8156 C 460.654 89.3958 460.472 89.8648 460.163 90.2257 C 459.854 90.587 459.436 90.7369 458.921 90.6735 C 458.024 90.5634 457.508 90.2377 457.336 89.7083 C 457.164 89.1789 457.114 88.5161 457.188 87.7204 C 457.273 86.7987 457.494 85.9358 457.854 85.1318 C 458.213 84.3291 458.696 83.6394 459.31 83.0603 C 459.924 82.4813 460.669 82.0569 461.559 81.7817 C 462.449 81.5067 463.456 81.4297 464.597 81.5429 C 465.977 81.6797 467.153 82.0166 468.072 82.5665 C 468.991 83.1164 469.735 83.806 470.251 84.6478 C 470.766 85.489 471.157 86.4065 471.279 87.4297 C 471.4 88.4535 471.649 89.4631 471.265 90.62 C 471.265 90.62 471.145 105.51 471.145 105.51 C 471.524 106.602 471.525 107.411 471.919 107.803 C 472.313 108.195 472.724 108.41 473.342 108.417 C 473.741 108.422 474.126 108.352 474.545 108.2 C 474.965 108.048 475.351 107.821 475.728 107.51 C 475.725 107.511 476.221 108.165 476.221 108.165 M 466.891 93.9847 C 466.895 93.9839 466.79 93.9804 466.799 93.9789 C 466.692 94.5033 466.177 94.9938 465.156 95.4667 C 465.156 95.4667 461.726 97.0475 461.726 97.0475 C 460.818 97.4929 460.1 98.1735 459.638 99.0785 C 459.176 99.9846 458.96 101.145 459.019 102.554 C 459.044 103.158 459.115 103.785 459.236 104.435 C 459.356 105.085 459.546 105.668 459.807 106.185 C 460.067 106.703 460.416 107.135 460.856 107.482 C 461.297 107.828 461.849 108.02 462.527 108.057 C 463.499 108.11 464.285 107.871 464.869 107.343 C 465.452 106.816 465.886 106.142 466.162 105.324 C 466.438 104.505 466.615 103.613 466.687 102.645 C 466.759 101.677 466.807 100.793 466.779 99.9979 C 466.779 99.9979 466.796 94.0053 466.914 93.98 C 466.863 93.9908 466.907 93.9813 466.891 93.9847"></path>
	<path d="M 476.142 83.0179 C 475.732 83.1232 490.062 83.1991 490.435 83.1124 C 490.285 83.1481 490.318 83.9751 490.242 83.9936 C 490.314 83.9747 484.947 84.0571 485.221 83.9905 C 484.526 84.1734 491.53 102.955 492.283 102.826 C 491.542 102.973 501.471 83.9414 502.081 83.763 C 501.84 83.8279 496.514 83.8856 496.451 83.907 C 496.493 83.8952 496.544 83.0474 496.597 83.0365 C 496.477 83.0582 506.809 82.818 506.926 82.7982 C 506.842 82.8145 506.889 83.6472 506.74 83.6786 C 507.067 83.6078 502.628 83.8577 503.381 83.6972 C 501.659 84.0908 491.361 107.136 491.361 107.136 C 490.999 108.786 490.189 110.525 489.74 112.229 C 489.29 113.935 488.796 115.664 488.412 117.396 C 488.098 118.814 487.755 120.059 487.415 121.126 C 487.075 122.193 486.675 123.066 486.219 123.74 C 485.762 124.414 485.226 124.92 484.613 125.257 C 484 125.594 483.239 125.761 482.337 125.758 C 481.248 125.754 480.348 125.57 479.623 125.208 C 478.898 124.845 478.303 124.424 477.834 123.943 C 477.365 123.462 477.022 122.964 476.802 122.447 C 476.582 121.93 476.436 121.493 476.362 121.137 C 476.155 120.146 476.259 119.407 476.667 118.919 C 477.077 118.429 477.648 118.188 478.384 118.194 C 478.64 118.196 478.922 118.227 479.231 118.288 C 479.538 118.349 479.838 118.459 480.131 118.619 C 480.422 118.778 480.689 118.996 480.93 119.273 C 481.172 119.55 481.332 119.886 481.411 120.281 C 481.521 120.834 481.468 121.358 481.254 121.851 C 481.04 122.345 481 122.889 481.134 123.485 C 481.25 124 481.46 124.34 481.759 124.5 C 482.057 124.66 482.434 124.741 482.89 124.743 C 483.496 124.745 484.026 124.598 484.479 124.301 C 484.932 124.004 485.336 123.519 485.699 122.845 C 486.063 122.17 486.387 121.293 486.696 120.205 C 487.005 119.117 487.326 117.792 487.743 116.21 C 487.743 116.21 489.305 109.627 489.763 109.578 C 488.491 109.724 478.581 84.2901 479.981 83.9278 C 479.44 84.056 476.121 83.8626 475.914 83.9101 C 476.01 83.8881 476.037 83.0441 476.086 83.0323 C 476.107 83.0266 475.994 83.0554 476.142 83.0179"></path>
	<path d="M 512.82 106.059 C 512.767 105.182 513.102 104.428 513.825 103.793 C 514.546 103.161 515.447 102.832 516.522 102.81 C 517.598 102.788 518.529 103.079 519.319 103.685 C 520.109 104.292 520.528 105.037 520.579 105.919 C 520.63 106.801 520.296 107.56 519.579 108.193 C 518.863 108.826 517.969 109.15 516.897 109.167 C 515.824 109.184 514.89 108.888 514.095 108.283 C 513.298 107.677 512.873 106.935 512.82 106.059 M 515.952 72.4551 C 516.242 71.9794 516.098 71.561 516.205 70.9522 C 516.312 70.3445 516.347 69.7621 516.434 69.1599 C 516.52 68.5587 516.577 68.0163 516.64 67.5212 C 516.702 67.027 516.749 66.6941 516.787 66.5206 C 516.979 65.6566 517.45 64.9187 518.2 64.3113 C 518.949 63.7033 519.848 63.3789 520.898 63.3405 C 521.948 63.3022 522.721 63.5653 523.217 64.128 C 523.714 64.6908 523.87 65.405 523.686 66.2689 C 523.649 66.4423 523.555 66.7772 523.401 67.2748 C 523.246 67.7735 523.096 68.3185 522.918 68.9245 C 522.74 69.5305 522.611 70.1167 522.415 70.7282 C 522.219 71.3409 522.256 71.7633 521.888 72.2425 C 521.888 72.2425 515.956 98.1533 517.449 97.7135 C 517.017 97.8525 515.525 97.8819 515.996 97.7515 C 514.437 98.1719 515.952 72.4551 515.952 72.4551"></path>
</g>
</svg>
