<!--?xml version="1.0" encoding="utf-8"?-->
<!-- Generator: Adobe Illustrator 15.0.2, SVG Export Plug-In . SVG Version: 6.00 Build 0)  -->

<svg version="1.1" id="Layer_1" xmlns="http://www.w3.org/2000/svg" xmlns:xlink="http://www.w3.org/1999/xlink" x="0px" y="0px" width="570.833px" height="418.833px" viewBox="0 0 570.833 418.833" enable-background="new 0 0 570.833 418.833" xml:space="preserve">
<path fill="#F2A548" stroke="#010101" stroke-width="2" d="M 411.51 398.661 C 413.028 392.009 423.095 394.317 423.147 394.276 C 423.087 394.299 423.579 394.262 423.501 394.287 C 423.185 394.786 422.453 395.527 421.339 396.613 C 415.87 401.942 418.575 404.311 418.557 404.309 C 418.578 404.317 416.368 404.789 416.225 404.819 C 416.33 404.823 409.978 405.379 411.51 398.661"></path>
<path fill="#DA8327" stroke="#010101" stroke-width="2" d="M 363.795 392.046 C 357.431 397.335 359.548 400.924 359.95 400.922 C 349.621 404.526 354.587 395.517 354.664 395.543 C 357.127 391.411 363.48 392 363.795 392.046"></path>
<path fill="#F2A548" stroke="#010101" stroke-width="2" d="M 267.988 385.72 C 265.73 388.347 262.165 396.028 262.091 395.991 C 262.313 396.094 258.209 395.974 256.5 395.156 C 254.488 394.194 256.427 390.946 256.427 390.938 C 259.216 385.266 267.862 385.664 267.988 385.72"></path>
<path fill="#DA8327" stroke="#010101" stroke-width="2" d="M 213.317 380.333 C 212.388 382.685 209.779 388.007 213.269 389.379 C 204.089 392.016 205.384 384.361 205.371 384.387 C 205.576 378.808 211.761 379.876 213.317 380.333"></path>
<path fill="#F2A548" stroke="#010101" stroke-width="2" d="M 148.545 247.952 C 153.126 243.02 165.743 233.209 165.468 233.011 C 165.48 233.083 173.381 228.847 170.553 225.65 C 167.797 222.535 170.036 220.228 170.19 220.202 C 170.041 220.045 173.292 219.641 178.973 210.844 C 182.824 204.881 186.441 201.973 188.497 201.003 C 188.329 201.051 188.524 200.987 188.446 201.008 C 188.718 200.864 189.416 200.568 189.504 200.532 C 189.617 200.485 189.62 200.499 189.651 200.474 C 194.301 198.681 198.031 200.019 198.14 199.932 C 195.377 206.851 194.071 208.432 193.497 209.169 C 193.388 208.817 212.69 203.938 212.602 204.188 C 215.141 212.086 213.272 220.81 213.221 220.775 C 217.588 216.155 224.593 208.502 224.553 208.501 C 226.325 212.735 224.059 225.903 224.011 225.785 C 231.611 224.164 234.456 216.204 234.409 216.171 C 238.093 211.311 244.599 214.392 244.575 214.303 C 246.899 217.899 246.837 223.343 246.85 223.44 C 250.185 239.96 230.211 236.468 229.926 236.32 C 248.68 252.184 246.578 264.177 246.648 264.33 C 241.151 258.152 234.68 253.116 234.197 252.73 C 241.172 266.707 236.852 276.214 236.891 276.255 C 208.586 261.618 205.106 280.462 205.592 280.579 C 197.079 286.986 195.418 286.868 195.423 286.885 C 181.111 287.838 175.112 281.001 173.509 279.358 C 173.453 279.429 173.491 279.947 173.504 280.162 C 173.58 281.39 170.368 271.551 170.673 268.215 C 170.985 264.801 167.677 262.36 167.539 262.236 C 161.773 262.471 147.032 248.775 148.608 249.226 C 147.871 248.738 148.516 248.737 148.318 248.442 C 148.318 248.442 148.545 247.952 148.545 247.952"></path>
<path fill="#F2A548" stroke="#010101" stroke-width="2" d="M 193.114 209.284 C 193.06 209.289 193.174 209.416 193.484 209.162 C 193.541 209.156 193.041 209.291 193.114 209.284"></path>
<path fill="#72CCD3" stroke="#010101" stroke-width="2" d="M 195.93 230.512 C 196.117 230.524 193.219 232.662 186.346 234.056 C 186.357 234.102 186.405 233.907 186.255 233.986 C 186.093 229.444 188.909 226.872 189.63 226.168 C 192.322 227.085 194.89 229.459 196.005 229.983 C 195.976 230.086 196.057 230.658 195.93 230.512"></path>
<path fill="#8D2222" stroke="#010101" stroke-width="2" d="M 233.328 184.343 C 233.454 184.328 224.447 186.505 219.857 189.83 C 220.824 188.333 239.958 181.701 276.79 209.24 C 276.79 209.24 286.201 216.059 300.168 228.467 C 303.805 231.698 307.893 235.391 312.039 239.369 C 312.039 239.369 317.761 245.181 317.753 245.179 C 317.931 245.37 304.352 242.232 293.423 235.033 C 296.493 237.154 310.851 247.786 308.074 260.97 C 308.223 261.037 294.021 247.573 292.782 244.378 C 293.084 246.128 304.274 276.548 287.077 286.9 C 287.036 286.953 283.87 272.872 276.561 270.449 C 276.172 270.314 272.111 300.416 277.12 310.395 C 277.035 310.392 285.099 318.454 291.866 323.69 C 291.741 323.659 291.376 323.622 291.956 323.807 C 285.631 326.013 279.122 325.729 273.936 324.515 C 263.913 322.169 257.63 316.753 257.224 316.613 C 258.446 326.586 262.62 329.62 262.688 329.648 C 246.835 325.923 233.853 314.661 226.969 307.36 C 223.216 303.379 221.115 300.594 221.129 300.577 C 220.266 308.414 222.275 319.824 222.402 319.821 C 207.309 309.708 205.172 280.622 205.606 280.565 C 205.088 280.481 208.598 261.606 236.89 276.256 C 236.855 276.21 241.172 266.708 234.198 252.729 C 234.68 253.115 241.152 258.151 246.649 264.329 C 246.579 264.176 248.681 252.183 229.927 236.319 C 230.212 236.467 250.186 239.959 246.851 223.439 C 246.838 223.342 246.901 217.898 244.576 214.302 C 244.6 214.39 238.094 211.31 234.41 216.17 C 234.457 216.203 231.612 224.163 224.012 225.784 C 224.06 225.902 226.326 212.734 224.554 208.5 C 224.594 208.501 217.589 216.153 213.222 220.774 C 213.273 220.809 215.142 212.085 212.603 204.187 C 212.691 203.937 193.389 208.817 193.499 209.168 C 194.072 208.433 195.376 206.853 198.147 199.921 C 198.024 200.032 194.307 198.67 189.651 200.476 C 189.624 200.497 189.615 200.484 189.506 200.53 C 189.409 200.57 188.737 200.855 188.443 201.008 C 188.464 201.013 188.457 200.997 188.401 201.045 C 187.606 201.358 185.939 202.5 185.213 203.1 C 184.982 203.247 185.398 196.46 192.558 182.029 C 192.558 182.029 202.156 168.146 211.283 175.053 C 211.427 174.909 207.335 181.694 204.176 189.285 C 204.976 186.769 216.805 171.127 233.328 184.343"></path>
<path fill="#DA8327" stroke="#010101" stroke-width="2" d="M 213.794 379.503 C 213.377 379.185 218.638 380.838 218.278 380.6 C 231.487 373.678 238.514 337.38 239.158 332.138 C 233.447 327.58 226.816 309.788 226.929 307.326 C 233.913 314.706 246.784 325.889 262.693 329.647 C 262.613 329.604 258.444 326.584 257.227 316.605 C 257.599 316.748 263.962 322.161 273.898 324.505 C 272.911 326.916 267.089 337.998 267.089 338.071 C 249.842 364.999 265.402 365.286 257.179 374.253 C 249.749 382.357 239.604 388.137 237.679 389.419 C 223.35 394.393 213.476 389.438 213.093 389.306 C 210.489 388.408 211.565 381.954 213.586 380.647 C 213.882 380.455 213.311 378.76 213.794 379.503"></path>
<path fill="#F2A548" stroke="#010101" stroke-width="2" d="M 326.215 335.959 C 326.215 335.959 318.076 363.375 313.981 368.967 C 313.981 368.967 305.026 394.753 299.798 394.375 C 298.526 393.732 300.064 401.257 291.076 400.889 C 291.206 400.961 282.335 399.332 282.434 399.392 C 274.099 401.413 262.248 396.062 262.062 395.976 C 262.175 396.037 265.756 388.35 267.941 385.698 C 270.101 383.077 274.791 385.983 275.577 386.545 C 297.001 378.595 295.289 329.609 294.811 325.895 C 293.926 324.808 293.406 324.815 291.904 323.677 C 285.034 318.476 277.063 310.38 277.112 310.395 C 272.111 300.414 276.17 270.315 276.556 270.448 C 283.867 272.871 287.032 286.952 287.073 286.899 C 304.272 276.546 293.083 246.128 292.779 244.377 C 294.018 247.573 308.219 261.036 308.07 260.969 C 310.848 247.785 296.486 237.153 293.421 235.031 C 304.352 242.232 317.925 245.367 317.75 245.179 C 317.746 245.171 312.034 239.366 312.034 239.366 C 307.874 235.39 303.828 231.705 300.153 228.452 C 300.133 228.415 300.23 228.286 300.283 228.295 C 300.208 228.306 319.143 234.741 341.052 246.874 C 341.052 246.874 349.937 250.67 372.959 246.099 C 372.928 246.212 405.237 233.488 430.902 253.047 C 430.902 253.047 457.059 275.757 468.785 310.465 C 468.785 310.465 481.162 349.623 503.913 333.865 C 505.698 332.629 508.289 330.216 510.282 327.632 C 510.208 327.647 510.53 334.363 507.117 338.781 C 506.573 339.485 505.846 340.199 505.152 340.729 C 499.595 344.971 489.475 348.059 480.894 343.064 C 472.302 338.064 464.382 325.743 463.027 321.52 C 461.719 317.442 449.213 293.932 440.921 285.135 C 440.747 285.584 444.459 337.512 447.259 346.482 C 447.187 346.726 460.024 350.529 459.775 356.38 C 460.045 356.002 462.969 382.935 441.389 402.41 C 441.389 402.41 436.113 406.599 429.381 404.209 C 423.787 407.282 418.724 404.269 418.557 404.308 C 418.586 404.329 415.861 401.924 421.345 396.627 C 422.508 395.503 423.064 394.81 423.595 394.279 C 425.118 392.754 425.057 393.169 431.09 392.072 C 438.879 390.656 438.872 370.152 438.987 369.928 C 441.914 354.64 432.57 356.158 432.539 356.139 C 407.582 352.735 406.275 330.766 406.275 330.766 C 405.713 319.764 400.275 316.831 400.306 316.846 C 391.686 305.525 379.451 322.137 379.628 321.969 C 375.29 326.053 371.921 328.122 367.306 330.83 C 349.58 341.235 330.511 332.494 326.885 333.409 C 328.487 333.008 326.306 333.036 326.567 332.923 C 326.3 333.971 325.705 335.121 326.215 335.959"></path>
<path fill="#DA8327" stroke="#010101" stroke-width="2" d="M 397.879 370.854 C 397.716 370.918 398.184 384.674 383.601 398.839 C 383.863 398.849 364.232 404.817 359.758 400.908 C 359.801 400.945 357.298 397.32 363.807 392.038 C 363.448 392.022 368.599 391.168 373.061 386.436 C 373.561 386.336 383.627 369.847 380.293 360.649 C 377.259 352.277 369.518 333.348 367.617 330.643 C 371.584 328.558 375.445 325.749 379.609 322.005 C 379.471 322.076 391.671 305.546 400.305 316.832 C 400.275 316.836 405.707 319.753 406.27 330.765 C 406.208 330.823 396.876 336.367 397.978 347.952 C 398.919 357.856 398.059 368.141 397.768 370.852 C 397.791 370.854 397.813 370.866 397.879 370.854"></path>
<path fill="#8D2222" stroke="#010101" stroke-width="2" d="M 513.005 303.394 C 513.505 303.083 518.866 311.544 516.545 323.826 C 517.282 323.321 517.817 323.414 518.97 316.654 C 517.186 317.79 525.174 341.071 507.278 338.897 C 507.444 338.729 506.976 338.913 507.113 338.789 C 510.531 334.325 510.184 327.689 510.299 327.606 C 508.131 330.364 505.977 332.387 503.697 334.015 C 503.693 334.025 503.444 333.82 503.455 333.827 C 503.466 333.779 494.753 319.74 504.328 308.208 C 504.235 308.268 504.432 318.563 504.555 318.455 C 504.456 318.524 506.56 307.496 513.005 303.394"></path>
<path fill="#8D2222" stroke="#010101" d="M 148.206 248.398 C 148.162 248.303 148.752 248.177 148.838 247.989 C 149.397 248.142 148.653 247.897 149.55 248.296 C 154.802 250.627 167.296 249.32 167.304 249.262 C 161.48 255.197 154.317 254.758 155.714 255.091 C 153.447 254.64 149.446 249.961 148.206 248.398"></path>
<path fill="none" stroke="#010101" stroke-width="2" d="M 299.837 328.294 C 298.825 328.061 296.749 327.094 294.86 325.719 C 293.889 325.012 293.384 324.766 291.915 323.664 C 285.021 318.491 277.074 310.368 277.114 310.395 C 272.102 300.408 276.18 270.316 276.557 270.446 C 283.869 272.87 287.036 286.952 287.073 286.898 C 304.285 276.548 293.066 246.122 292.788 244.379 C 292.592 244.312 292.76 244.363 292.703 244.331 C 292.708 244.315 292.68 244.291 292.687 244.281"></path>
<path fill="none" stroke="#010101" stroke-width="2" d="M 434.203 397.052 C 434.592 396.545 422.856 401.779 429.357 404.148 C 436.141 406.621 441.381 402.407 441.383 402.405 C 462.972 382.938 460.038 355.993 459.772 356.379 C 460.019 350.525 447.185 346.724 447.256 346.479 C 444.456 337.509 440.742 285.582 440.918 285.132 C 449.206 293.932 461.721 317.435 463.025 321.519 C 464.37 325.734 472.305 338.071 480.887 343.06 C 489.489 348.059 499.572 344.96 505.155 340.731 C 505.853 340.202 506.554 339.481 507.118 338.77 C 510.554 334.442 510.117 327.481 510.356 327.755 C 507.866 329.567 506.077 333.151 504.119 334.309 C 480.561 348.243 469.164 311.543 468.736 310.276 C 457.116 275.949 430.882 252.998 430.905 253.015 C 405.178 233.573 372.982 246.147 372.935 246.104 C 350.025 250.699 340.933 246.809 341.085 246.893 C 319.086 234.707 300.241 228.323 300.271 228.287"></path>
<path fill="none" stroke="#010101" stroke-width="2" d="M 284.566 389.055 C 279.071 390.328 281.998 399.175 282.526 399.437 C 273.978 401.356 262.328 396.101 262.053 395.973 C 262.198 396.05 265.747 388.345 267.946 385.703 C 270.124 383.086 274.786 385.985 275.582 386.547 C 297.005 378.602 295.299 329.601 294.812 325.899 C 294.715 325.166 294.883 325.501 294.79 325.268"></path>
<path fill="none" stroke="#010101" stroke-width="2" d="M 282.562 399.454 C 282.162 399.254 291.316 401.008 291.062 400.889 C 300.117 401.253 298.479 393.762 299.835 394.358 C 304.909 394.825 314.077 368.908 314.06 368.937 C 317.028 363.688 327.947 335.555 325.425 336.081 C 326.233 335.912 326.571 333.396 326.638 332.93 C 329.318 314.11 324.464 298.206 324.367 298.209"></path>
<path fill="none" stroke="#010101" stroke-width="2" d="M 197.275 231.066 C 196.718 230.799 197.472 231.204 195.981 230.056 C 195.029 229.324 192.088 227.2 189.777 226.142 C 187.609 225.15 184.989 224.147 182.966 224.615"></path>
<path fill="none" stroke="#010101" stroke-width="2" d="M 182.741 234.661 C 183.393 234.278 185.185 234.308 186.381 234.059 C 193.123 232.657 196.178 230.528 195.91 230.514"></path>
<path fill="none" stroke="#010101" stroke-width="2" d="M 195.232 270.109 C 193.886 270.263 191.507 269.71 191.666 269.779 C 183.885 266.274 176.21 265.907 175.667 265.732"></path>
<path fill="none" stroke="#010101" stroke-width="2" d="M 369.981 401.451 C 362.582 395.839 373.491 392.467 373.361 392.494"></path>
<path fill="none" stroke="#010101" stroke-width="2" d="M 221.576 391.343 C 212.86 382.414 224.56 383.379 224.594 383.349"></path>
<g>
	<path fill="#FFFFFF" stroke="#010101" stroke-width="2" d="M 335.423 155.411 C 335.416 155.409 335.485 155.44 335.572 155.493 C 336.205 155.881 338.744 157.736 340.887 162.685 C 341.512 164.127 342.105 165.838 342.599 167.84 C 343.228 170.381 343.719 173.399 343.932 176.937 C 343.972 177.603 344.008 178.161 344.044 178.806 C 344.931 194.697 344.438 201.396 344.456 201.439 C 344.427 201.421 344.058 203.049 343.651 205.573 C 342.263 214.163 341.771 233.347 358.667 241.734 C 362.393 243.583 365.76 244.867 368.878 245.71 C 374.412 247.206 378.96 247.159 382.628 246.529 C 388.772 245.475 392.49 242.462 394.117 241.576 C 395.127 241.026 395.876 240.927 396.509 241.176 C 397.842 241.7 398.398 243.348 398.379 243.353 C 398.403 243.358 407.087 252.198 412.18 242.143 C 412.366 241.775 412.551 241.447 412.689 241.046"></path>
	<g id="XMLID_1_">
		<g>
			<path fill="#4C4B54" d="M 335.161 141.695 C 335.322 143.183 336.542 144.3 337.884 144.204 C 339.24 144.108 340.213 142.835 340.063 141.33 C 339.912 139.816 338.683 138.668 337.329 138.792 C 335.976 138.916 335.002 140.22 335.161 141.695 M 393.007 216.692 C 392.759 208.864 381.163 212.789 380.885 212.229 C 380.911 212.223 380.709 212.23 380.732 212.224 C 380.676 214.987 380.766 216.217 380.799 216.2 C 366.833 211.109 372.005 183.639 373.472 177.149 C 373.471 177.229 373.363 177.201 373.427 177.2 C 371.066 169.312 366.983 164.812 362.458 162.544 C 352.65 157.628 340.963 162.853 340.959 162.625 C 340.964 162.702 340.891 162.697 340.887 162.683 C 338.762 157.748 336.19 155.859 335.587 155.509 C 329.445 156 323.1 156.781 321.507 155.943 C 321.524 155.967 321.505 155.956 321.528 155.924 C 321.35 155.759 337.005 153.612 343.402 152.584 C 343.402 152.669 343.406 152.603 343.397 152.594 C 347.995 152.187 349.662 149.168 349.02 149.567 C 348.289 150.022 346.208 149.948 346.208 149.948 C 330.356 149.086 322.987 153.526 321.301 154.696 C 321.402 154.566 321.599 154.294 321.773 154.081 C 324.238 151.068 328.98 149.237 332.816 147.234 C 333.036 146.036 332.295 119.145 359.861 121.053 C 359.79 121.938 367.372 125.158 370.145 134.507 C 371.006 137.408 372.107 139.685 372.954 141.621 C 372.962 141.714 372.799 141.73 372.772 141.797 C 372.843 141.756 358.007 146.462 363.52 154.891 C 368.911 163.133 378.322 156.887 378.248 150.491 C 378.586 151.133 379.135 151.762 379.53 152.48 C 381.252 155.614 383.033 160.916 386.841 171.1 C 390.745 181.536 399.473 188.873 400.592 221.942 C 400.614 221.899 400.783 221.862 400.783 221.862 C 400.929 225.378 404.076 242.493 412.192 242.125 C 407.076 252.218 398.413 243.339 398.38 243.353 C 398.4 243.327 397.844 241.729 396.51 241.146 C 396.511 241.254 396.639 240.625 396.674 240.697 C 391.996 233.156 393.007 216.692 393.007 216.692 M 357.22 139.744 C 357.093 137.968 355.828 136.572 354.355 136.69 C 352.897 136.807 351.826 138.281 351.959 140.061 C 352.087 141.784 353.39 143.113 354.826 143.034 C 356.281 142.955 357.344 141.485 357.22 139.744"></path>
			<path fill="#FDB849" d="M 343.398 152.585 C 337.007 153.616 321.345 155.758 321.524 155.925 C 321.494 155.946 321.538 155.996 321.49 155.923 C 321.007 155.608 320.917 155.266 321.296 154.692 C 322.983 153.551 330.353 149.067 346.203 149.959 C 346.203 149.956 348.286 150.02 349.015 149.571 C 349.658 149.176 347.99 152.188 343.394 152.599 C 343.403 152.605 343.399 152.672 343.398 152.585"></path>
			<path fill="#FDB849" d="M 398.391 243.343 C 398.361 243.425 406.656 267.987 394.581 255.771 C 394.554 255.729 390.842 265.398 388.421 253.929 C 388.393 253.913 382.914 264.909 378.491 257.776 C 378.505 257.799 376.141 253.025 382.65 246.607 C 382.654 246.594 382.633 246.576 382.63 246.522 C 388.766 245.468 392.491 242.46 394.117 241.573 C 395.122 241.025 395.878 240.92 396.508 241.172 C 397.843 241.705 398.39 243.347 398.391 243.343"></path>
			<path fill="#FDB849" d="M 372.998 141.578 C 374.547 144.763 376.368 146.85 378.25 150.489 C 378.32 156.894 368.911 163.133 363.52 154.892 C 358.006 146.463 372.844 141.758 372.772 141.798 C 372.829 141.702 372.904 141.775 372.998 141.578"></path>
			<path fill="#FDB849" d="M 368.855 245.677 C 368.919 245.825 368.821 245.806 368.865 245.889 C 368.819 245.803 368.787 249.17 368.778 249.186 C 366.607 262.212 361.236 252.133 361.212 252.162 C 355.16 260.044 356.399 251.273 356.333 251.258 C 347.792 258.449 347.211 251.454 347.207 251.417 C 346.417 246.047 358.679 241.741 358.661 241.743 C 362.382 243.561 365.792 244.899 368.855 245.677"></path>
			<path fill="#FBF060" d="M 362.462 162.536 C 362.444 162.54 362.384 162.692 362.396 162.708 C 358.49 168.317 343.27 168.029 342.591 167.824 C 342.118 165.865 341.509 164.111 340.89 162.69 C 340.882 162.692 340.969 162.704 340.952 162.629 C 340.975 162.845 352.635 157.641 362.462 162.536"></path>
			<path fill="#9F5925" d="M 354.355 136.69 C 355.828 136.572 357.093 137.968 357.22 139.744 C 357.344 141.485 356.281 142.955 354.826 143.034 C 353.39 143.113 352.087 141.784 351.959 140.061 C 351.826 138.281 352.897 136.807 354.355 136.69 M 354.525 138.867 C 354.447 138.387 354.067 137.865 353.596 137.981 C 353.152 138.09 352.843 138.313 352.844 138.948 C 352.846 139.497 353.328 139.98 353.749 139.903 C 354.186 139.823 354.611 139.394 354.525 138.867"></path>
			<path fill="#9F5925" d="M 353.597 137.981 C 354.069 137.865 354.447 138.388 354.525 138.867 C 354.611 139.394 354.186 139.823 353.751 139.903 C 353.331 139.98 352.846 139.497 352.846 138.948 C 352.845 138.313 353.155 138.09 353.597 137.981"></path>
			<path fill="#4C4B54" d="M 343.932 178.805 C 343.891 178.807 344.074 178.757 344.044 178.809 C 344.931 194.695 344.44 201.399 344.455 201.439 C 344.453 201.429 344.033 203.043 343.635 205.574 C 343.652 205.611 343.481 205.51 343.515 205.6 C 338.87 209.925 338.657 212.06 338.678 211.998 C 333.13 198.735 343.823 178.997 343.932 178.805"></path>
			<path fill="#9F5925" d="M 337.332 138.792 C 338.686 138.668 339.913 139.818 340.064 141.33 C 340.215 142.835 339.24 144.108 337.886 144.204 C 336.54 144.3 335.325 143.182 335.163 141.695 C 335.002 140.219 335.977 138.917 337.332 138.792 M 337.513 140.57 C 337.441 139.984 337.117 139.723 336.714 139.658 C 336.353 139.6 336.075 140.114 336.133 140.676 C 336.18 141.127 336.544 141.536 336.918 141.538 C 337.346 141.541 337.566 141.002 337.513 140.57"></path>
			<path fill="#9F5925" d="M 336.715 139.658 C 337.118 139.723 337.443 139.983 337.514 140.57 C 337.567 141.003 337.346 141.541 336.919 141.538 C 336.546 141.535 336.181 141.127 336.135 140.676 C 336.078 140.113 336.354 139.6 336.715 139.658"></path>
		</g>
		<g>
			<path fill="none" stroke="#010101" stroke-width="2" d="M 332.792 147.591 C 333.016 147.436 332.698 147.72 332.8 147.231 C 333.072 145.937 332.244 119.358 359.891 120.894"></path>
			<path fill="none" stroke="#000000" stroke-width="0.5" stroke-linecap="round" stroke-linejoin="round" d="M 342.591 167.83 C 342.564 167.853 342.62 167.827 342.59 167.817 C 343.274 168.036 358.489 168.31 362.397 162.708"></path>
			<path fill="none" stroke="#010101" stroke-width="2" d="M 359.79 121.508 C 359.87 121.29 367.345 125.552 370.13 134.439 C 371.082 137.476 372.018 139.68 372.986 141.601 C 374.56 144.723 376.356 146.878 378.249 150.482 C 378.594 151.14 379.128 151.76 379.525 152.482 C 381.248 155.618 383.034 160.914 386.841 171.098 C 390.746 181.545 399.458 188.869 400.597 221.945 C 400.6 222.022 400.672 222.287 400.618 222.478"></path>
			<path fill="none" stroke="#010101" stroke-width="2" d="M 339.072 145.033 C 339.109 145.251 336.329 145.974 332.834 147.4 C 328.948 148.986 324.259 151.238 321.768 154.044 C 321.541 154.299 321.438 154.567 321.31 154.711 C 320.886 155.185 321.011 155.662 321.507 155.932 C 323.096 156.797 329.451 155.985 335.582 155.509 C 339.524 155.203 343.48 155.207 346.008 156.237"></path>
			<path fill="none" stroke="#010101" stroke-width="2" d="M 398.396 243.345 C 398.352 243.421 406.663 267.99 394.579 255.771 C 394.556 255.729 390.841 265.397 388.421 253.929 C 388.393 253.913 382.913 264.909 378.491 257.777 C 378.508 257.795 376.138 253.029 382.651 246.606"></path>
			<path fill="none" stroke="#010101" stroke-width="2" d="M 358.654 241.745 C 358.688 241.753 346.407 246.038 347.201 251.429 C 347.235 251.429 347.769 258.475 356.335 251.256 C 356.39 251.281 355.162 260.042 361.209 252.165 C 361.234 252.135 366.602 262.214 368.775 249.19 C 368.785 249.175 368.817 245.804 368.863 245.892"></path>
			<path fill="none" stroke="#010101" stroke-width="2" d="M 400.761 221.562 C 400.722 221.616 400.774 221.795 400.777 221.867 C 400.933 225.37 404.062 242.511 412.195 242.116 C 412.236 242.155 412.376 242.107 412.427 242.11"></path>
			<path fill="none" stroke="#010101" stroke-width="2" d="M 373.732 176.002 C 373.789 176.021 373.646 176.392 373.473 177.15 C 371.996 183.638 366.832 211.11 380.797 216.2 C 380.757 216.206 380.692 215.008 380.717 212.209 C 380.737 209.998 380.943 206.795 381.364 202.277 C 381.394 202.241 389.402 195.273 389.68 190.124"></path>
			<path fill="none" stroke="#010101" stroke-width="2" d="M 343.932 178.805 C 343.823 178.997 333.13 198.734 338.677 211.997 C 338.654 212.056 338.874 209.932 343.509 205.591"></path>
			<path fill="none" stroke="#010101" stroke-width="2" d="M 351.959 140.061 C 352.087 141.784 353.39 143.113 354.826 143.034 C 356.281 142.955 357.344 141.485 357.22 139.744 C 357.093 137.968 355.828 136.572 354.355 136.69 C 352.897 136.807 351.826 138.281 351.959 140.061"></path>
			<path fill="none" stroke="#010101" stroke-width="2" d="M 335.161 141.695 C 335.322 143.183 336.542 144.3 337.884 144.204 C 339.24 144.108 340.213 142.835 340.063 141.33 C 339.912 139.816 338.683 138.668 337.329 138.792 C 335.976 138.916 335.002 140.22 335.161 141.695"></path>
			<path fill="none" stroke="#010101" d="M 343.398 152.585 C 337.007 153.616 321.345 155.758 321.524 155.925"></path>
			<path fill="none" stroke="#010101" d="M 340.955 162.625 C 340.968 162.855 352.644 157.626 362.457 162.545 C 366.982 164.813 371.066 169.313 373.427 177.2"></path>
			<path fill="none" stroke="#010101" d="M 380.886 212.229 C 381.157 212.79 392.761 208.864 393.01 216.692 C 392.989 216.692 392.01 233.155 396.666 240.698"></path>
			<path fill="none" stroke="#010101" d="M 372.77 141.798 C 372.842 141.757 358.007 146.464 363.519 154.891 C 368.914 163.138 378.312 156.886 378.252 150.492 C 378.25 150.269 378.3 150.319 378.242 150.163"></path>
			<path fill="none" stroke="#010101" d="M 320.975 154.948 C 320.645 155.118 321.264 154.72 321.297 154.697 C 322.977 153.538 330.373 149.074 346.191 149.961 C 346.191 149.961 348.5 149.886 348.904 149.64 C 349.881 149.044 347.826 152.275 343.44 152.581 C 343.118 152.603 343.188 152.754 342.82 152.593"></path>
		</g>
	</g>
</g>
</svg>
