<svg version="1.1" id="Layer_1" xmlns="http://www.w3.org/2000/svg" xmlns:xlink="http://www.w3.org/1999/xlink" x="0px" y="0px" width="547.5px" height="300px" viewBox="0 0 547.5 300" enable-background="new 0 0 547.5 300" xml:space="preserve"><defs></defs><path d="M331.8330078125 144.36500549316406 C 331.8330078125 187.26100158691406 331.8330078125 222.03599548339844 215.83299255371094 222.03599548339844 C 99.83300018310547 222.03599548339844 99.83300018310547 187.26100158691406 99.83300018310547 144.36500549316406 C 99.83300018310547 101.46900177001953 99.83300018310547 66.69499969482422 215.83299255371094 66.69499969482422 C 331.8330078125 66.69499969482422 331.8330078125 101.46900177001953 331.8330078125 144.36500549316406" style="opacity: 0;"></path><rect x="210" y="140" width="10" height="10" rx="2" ry="2" class="handle-original" fill="#da55da" stroke="#000000" style="stroke-width: 2px; opacity: 0.5;"></rect><rect x="303" y="137" width="10" height="10" rx="2" ry="2" class="handle-original" fill="#da55da" stroke="#000000" style="stroke-width: 2px; opacity: 0.5;"></rect><rect x="210" y="140" width="10" height="10" rx="2" ry="2" class="handle" fill="#da55da" stroke="#000000" transform="matrix(1,0,0,1,0,0)" style="stroke-width: 2px;"></rect><rect x="303" y="137" width="10" height="10" rx="2" ry="2" class="handle" fill="#da55da" stroke="#000000" transform="matrix(1,0,0,1,99,0)" style="stroke-width: 2px;"></rect></svg>