<svg version="1.1" id="Layer_1" xmlns="http://www.w3.org/2000/svg" xmlns:xlink="http://www.w3.org/1999/xlink" x="0px" y="0px" width="800px" height="600px" viewBox="0 0 800 600" enable-background="new 0 0 800 600" xml:space="preserve"><defs></defs><path d="M260.5480041503906 477.7250061035156 C 253.33900451660156 457.3349914550781 246.78700256347656 441.55499267578125 249.80299377441406 419.3190002441406 C 251.39199829101562 407.59698486328125 269.9280090332031 383.1650085449219 268.2040100097656 375.4230041503906 C 267.739013671875 373.3290100097656 225.90699768066406 352.1109924316406 229.50900268554688 351.6919860839844 C 219.51100158691406 352.8580017089844 205.58999633789062 384.0719909667969 199.3489990234375 390.47198486328125 C 178.63099670410156 411.7300109863281 160.4409942626953 421.2170104980469 130.64199829101562 422.8900146484375 C 101.04399871826172 424.5459899902344 79.7239990234375 421.3689880371094 63.66600036621094 393.739013671875 C 58.28799819946289 384.4840087890625 46.808998107910156 340.677001953125 48.20899963378906 331.22698974609375 C 54.16699981689453 291.06201171875 127.24299621582031 308.8039855957031 155.572998046875 287.09698486328125 C 102.88600158691406 261.43499755859375 245.86199951171875 127.10700225830078 281.98199462890625 109.18499755859375 C 318.8429870605469 90.89600372314453 356.3160095214844 82.24700164794922 396.9320068359375 80.73600006103516 C 467.2659912109375 78.12100219726562 537.5640258789062 103.1520004272461 596.14501953125 140.11300659179688 C 630.0830078125 161.52499389648438 640.8330078125 178.76699829101562 667.47998046875 205.8419952392578 C 687.7930297851562 226.48599243164062 714.8519897460938 235.75900268554688 733.4509887695312 254.82899475097656 C 773.27099609375 295.6619873046875 743.4000244140625 323.6659851074219 693.8049926757812 306.7250061035156 C 689.5800170898438 333.4679870605469 675.5490112304688 356.17999267578125 650.9299926757812 368.614013671875 C 672.5800170898438 395.60198974609375 704.4630126953125 471.8340148925781 660.4459838867188 493.8030090332031 C 623.1430053710938 512.4199829101562 552.385009765625 434.56298828125 532.947021484375 412.55499267578125 C 513.4879760742188 390.5270080566406 542.6069946289062 399.1520080566406 507.5539855957031 390.114990234375 C 493.4859924316406 386.4880065917969 472.60101318359375 391.4880065917969 458.2590026855469 392.1210021972656 C 442.1319885253906 392.8340148925781 419.0710144042969 390.29901123046875 404.0710144042969 394.9289855957031 C 374.6759948730469 404.0039978027344 395.427001953125 394.22698974609375 378.62298583984375 415.57501220703125 C 359.4620056152344 439.9200134277344 331.2550048828125 519.4559936523438 288.510986328125 519.4559936523438 C 272.4389953613281 519.4539794921875 266.1499938964844 493.5660095214844 260.5480041503906 477.7250061035156" style="opacity: 0;"></path><rect x="111" y="357" width="10" height="10" rx="2" ry="2" class="handle-original" fill="#da55da" stroke="#000000" style="stroke-width: 2px; opacity: 0.5;"></rect><rect x="298" y="436" width="10" height="10" rx="2" ry="2" class="handle-original" fill="#da55da" stroke="#000000" style="stroke-width: 2px; opacity: 0.5;"></rect><rect x="615" y="416" width="10" height="10" rx="2" ry="2" class="handle-original" fill="#da55da" stroke="#000000" style="stroke-width: 2px; opacity: 0.5;"></rect><rect x="714" y="282" width="10" height="10" rx="2" ry="2" class="handle-original" fill="#da55da" stroke="#000000" style="stroke-width: 2px; opacity: 0.5;"></rect><rect x="111" y="357" width="10" height="10" rx="2" ry="2" class="handle" fill="#da55da" stroke="#000000" transform="matrix(1.6565,-0.292,0.292,1.6565,-186.8718,-245.764)" style="stroke-width: 2px;"></rect><rect x="298" y="436" width="10" height="10" rx="2" ry="2" class="handle" fill="#da55da" stroke="#000000" transform="matrix(1,0,0,1,54,9)" style="stroke-width: 2px;"></rect><rect x="615" y="416" width="10" height="10" rx="2" ry="2" class="handle" fill="#da55da" stroke="#000000" transform="matrix(1,0,0,1,-50,24)" style="stroke-width: 2px;"></rect><rect x="714" y="282" width="10" height="10" rx="2" ry="2" class="handle" fill="#da55da" stroke="#000000" transform="matrix(0.9563,0.2924,-0.2924,0.9563,121.3276,-173.6747)" style="stroke-width: 2px;"></rect></svg>