<?xml version="1.0" encoding="utf-8"?>
<!-- Generator: Adobe Illustrator 15.0.2, SVG Export Plug-In . SVG Version: 6.00 Build 0)  -->
<!DOCTYPE svg PUBLIC "-//W3C//DTD SVG 1.1//EN" "http://www.w3.org/Graphics/SVG/1.1/DTD/svg11.dtd">
<svg version="1.1" id="Layer_1" xmlns="http://www.w3.org/2000/svg" xmlns:xlink="http://www.w3.org/1999/xlink" x="0px" y="0px"
	 width="800px" height="600px" viewBox="0 0 800 600" enable-background="new 0 0 800 600" xml:space="preserve">
<g>
	<g id="Layer_3">
		<path fill="none" d="M314.498,486.566c-6.987-20.138-14.093-35.488-9.857-59.353c2.057-11.585,20.752-41.079,25.017-61.769
			c1.795-8.704-39.948-59.66-40.493-62.576c-9.566-15.179-24.363,32.501-32.428,43.876c-26.54,37.434-54.9,58.559-103.691,69.848
			c-48.617,11.249-84.852,12.584-119.432-28.829c-11.779-14.105-43.549-81.342-43.88-100.23
			c-1.034-59.089,120.218-75.539,175.796-81.146C82.62,160.778,294.618,9.187,330.999,1.856
			c50.256-10.126,90.241-13.063,135.778-1.237c75.835,19.696,137.445,71.788,181.508,127.872
			c25.922,32.995,31.16,53.232,48.693,88.299c13.486,26.973,39.916,43.557,51.264,67.647c23.991,50.933-5.596,68.34-57.832,38.497
			c-28.163,29.391-38.276,44.631-80.879,64.016c5.769,37.31,48.27,107.121,0.54,130.854
			c-36.699,18.249-110.313-56.588-116.47-87.429c-5.369-26.907,7.583-13.135-2.093-32.236c-3.668-7.242-12.411-5.238-20.996-5.884
			c-8.479-0.637-20.182-4.386-28.031,1.198c-17.808,12.668-2.844,1.106-13.986,26.099c-14.158,31.75-42.978,108.542-86.148,108.792
			C326.651,528.435,320.138,502.82,314.498,486.566"/>
	</g>
	<g id="Layer_1_2_">
		<g>
			<path fill="#C79C52" stroke="#806434" stroke-width="4.2291" stroke-linejoin="bevel" stroke-miterlimit="10" d="
				M182.325,144.704c11.881-4.614,23.979-5.039,37.73-0.657c21.539,6.864,74.954,45.172,106.68,102.83
				c32.107,58.35,45.379,79.623,58.016,86.946c12.328,7.144,19.822,10.104,45.187-1.293c24.115-10.837,28.088-10.538,40.225-16.804
				c12.286-6.342,19.37-0.755,25.549,0.648c7.016,1.593,17.554,9.638,31.518,14.929c14.6,5.531,42.675,19.388,78.931,2.786
				c35.729-16.359,41.069-28.527,61.601-46.191c17.803-15.317,34.528-27.849,51.24-23.149c0.742,0.441,0.464,0.161,0.129,0.152
				c-11.394-10.318-24.646-29.19-29.152-38.769c-4.309-9.159-12.693-35.297-24.175-56.258
				c-11.127-20.316-45.706-59.506-62.561-77.957c-16.187-17.719-64.368-48.672-92.048-64.04
				c-26.426-14.67-83.034-25.55-116.308-24.596c-31.503,0.904-83.199,15.931-112.329,32.111
				c-28.421,15.787-42.138,36.28-64.31,63.24C195.56,126.221,201.14,133.702,182.325,144.704"/>
			<path fill="#FFE563" stroke="#E8D46D" stroke-width="4.2291" stroke-linejoin="bevel" stroke-miterlimit="10" d="
				M683.989,309.962c-9.378,5.795-41.932,34.192-72.041,49.313c-29.52,14.823-41.434,15.377-62.548,11.223
				c-20.36-4.005-38.259-7.405-48.376-18.236c-9.878-10.576-22.536-5.09-27.908-5.015c-4.923,0.07-20.336,6.543-26.013,10.672
				c-5.44,3.959-12.92,10.082-18.077,11.519c-3.959,1.103-22.568,9.747-33.215,5.546c-9.573-3.78-19.91-3.002-32.189-19.771
				c-12.141-16.579-24.04-35.379-39.184-60.801c-15.014-25.203-24.965-53.41-43.223-70.503
				c-18.262-17.098-32.973-27.224-45.438-32.064c-12.176-4.727-18.851-10.403-30.454-6.752c6.76,12.683,57.444,73.291,81.77,98.925
				c25.186,26.541,37.043,55.122,57.32,76.281c18.947,19.773,67.204,29.593,96.782,22.83c29.319-6.704,46.337,4.806,64.105,6.649
				c24.999,2.593,67.046-0.663,89.709-8.312c25.017-8.442,41.125-19.469,50.578-27.069
				C655.886,346.116,670.521,332.527,683.989,309.962"/>
			<path fill="#7BD968" stroke="#598C4E" stroke-width="4.2291" stroke-linejoin="bevel" stroke-miterlimit="10" d="M35.315,331.904
				c1.527,11.771,4.563,47.412,26.59,63.352c37.262,26.965,78.793,6.093,90.331,4.189c12.321-2.033,68.413-12.224,97.117-70.928
				c25.841-52.848,49.19-48.097,60.479-62.013c-7.995-13.971-16.856-32.035-28.499-42.623
				c-18.646-16.956-32.935-27.233-45.565-32.053c-12.271-4.682-18.654-10.311-30.58-6.827c-1.019,0.298-1.584,0.904-2.933,0.983
				c-9.694,16.884-36.278,33.849-58.852,37.088c-22.201,3.186-56.561,10.297-65.68,12.252c-6.916,1.483-11.998,8.336-14.061,10.327
				C47.219,261.518,31.489,302.414,35.315,331.904"/>
			<path fill="#7BD968" stroke="#598C4E" stroke-width="4.2291" stroke-linejoin="bevel" stroke-miterlimit="10" d="
				M418.047,373.076c-6.688,2.555-16.088,4.247-22.176,1.932c-9.768-3.714-19.858-3.191-32.268-19.705
				c-3.052-4.061-5.654-8.404-9.142-12.983c-9.59,14.474-33.126,63.918-36.131,72.919c-4.678,14.009-9.677,34.03-0.409,53.074
				c9.696,19.922,7.469,26.481,10.591,34.669c3.338,8.752,3.586,15.77,14.468,15.447c11.574-0.343,17.286-8.799,25.231-19.104
				c7.6-9.858,22.7-21.643,33.695-38.235c9.108-13.746,15.041-25.975,17.123-38.459c1.886-11.309-1.165-47.895-0.72-48.354
				c-0.194,0.199,0.121-1.226-0.253-1.106C418.321,373.19,418.341,373.38,418.047,373.076"/>
			<path fill="#7BD968" stroke="#598C4E" stroke-width="4.2291" stroke-linejoin="bevel" stroke-miterlimit="10" d="
				M686.835,307.923c10.565-7.344,24.739-22.776,30.174-21.685c7.129,1.431,11.482,7.806,13.6,6.714
				c11.11,7.275,20.779,18.549,17.803,28.181c-3.089,9.995-6.483,8.522-11.989,10.629c-4.71,1.803-12.655-1.255-18.837-5.807
				C712.59,322.276,693.032,313.348,686.835,307.923"/>
			<path fill="#7BD968" stroke="#598C4E" stroke-width="4.2291" stroke-linejoin="bevel" stroke-miterlimit="10" d="
				M590.856,368.323c-15.217,5.928-26.416,5.164-41.431,2.141c-12.244-2.466-23.943-4.519-33.889-8.526
				c-5.115,23.528-27.075,68.764,0.164,98.198c14.555,15.729,25.075,16.287,35.135,21.32c10.85,5.43,22.719,24.786,40.903,28.376
				c9.757,1.926,13.258,1.089,19.216-5.316c6.049-6.503,7.39-7.607,8.167-14.748c0.698-6.416,3.616-30.103-1.606-43.532
				c-4.864-12.514-12.328-32.613-14.99-42.771c-2.565-9.792-11.509-34.051-12.219-33.843c0.18,0.2,1.156-1.212,0.563-1.248
				c0.375,0.157,0.292,0.184,0.028-0.02C591.159,368.526,591.243,368.588,590.856,368.323"/>
			<path fill="#94AEFF" stroke="#4464C7" stroke-width="4.2291" stroke-linejoin="bevel" stroke-miterlimit="10" d="M63.573,245.604
				c13.348,0.062,23.332,19.893,23.211,19.589c10.496-4.896,16.623-3.961,20.885-2.89c1.354-13.856,13.589-31.425,32.391-32.434
				c18.906-1.014,35.097-2.175,46.171,26.581c23.578-1.837,42.954-13.007,50.903-11.371c8.359,1.72,15.251,7.316,16.327,9.876
				c1.191,2.834,6.518,12.906,6.967,15.958c0.51,3.466-0.02,8.447-3.925,9.024c-3.588,0.53-8.948-3.014-10.724-6.552
				c-1.644-3.273-2.073-8.376-5.146-10.175c-2.962-1.734-7.166-0.581-10.178,0.04c-2.148,0.443-37.58,9.531-42.402,12.007
				c0.094,12.016-8.845,33.892-33.786,38.102c-24.923,4.207-30.833-3.886-34.601-12.896c-3.553-8.495-7.012-15.415-7.012-15.525
				c-11.707,2.74-9.582,2.04-17.527,3.088c-2.207,16.354-9.4,40.555-35.142,45.552c-25.697,4.989-41.468-6.201-44.069-38.81
				c-13.625,0.816-9.284-2.205-9.284-2.348c-0.296-16.633-0.299-16.667-0.299-16.787c-0.005,0.112,17.795-2.075,17.782-2.28
				C24.121,250.989,54.992,245.564,63.573,245.604"/>
			<path fill="#FFFFFF" stroke="#4464C7" stroke-width="4.2291" stroke-linejoin="bevel" stroke-miterlimit="10" d="M39.314,266.898
				c13.545-9.17,34.636-1.582,38.672,5.983c4.192,7.857,5.665,33.09-5.051,41.752c-10.909,8.819-31.09,10.683-36.992,1.044
				C30.261,306.396,23.682,277.48,39.314,266.898"/>
			<path fill="#E0B577" stroke="#A87C3B" stroke-width="4.2291" stroke-linejoin="bevel" stroke-miterlimit="10" d="M45.335,290.467
				c2.672-5.43,16.804-8.134,21.442-3.796c4.939,4.619,3.339,11.751-0.063,14.372c-3.615,2.785-13.685,12.65-18.33,7.048
				C44.012,302.816,41.676,297.902,45.335,290.467"/>
			<path fill="#FFFFFF" stroke="#4464C7" stroke-width="4.2291" stroke-linejoin="bevel" stroke-miterlimit="10" d="
				M130.185,293.697c-9.151-14.602-11.016-28.601-5.662-36.587c5.35-7.979,23.362-14.674,36.993-4.196
				c13.823,10.625,18.219,19.823,15.997,26.077c-2.29,6.446-10.264,19.338-19.867,20.82
				C148.221,301.266,135.323,301.896,130.185,293.697"/>
			<path fill="#E0B577" stroke="#A87C3B" stroke-width="4.2291" stroke-linejoin="bevel" stroke-miterlimit="10" d="
				M137.685,270.778c3.776-3.541,19.934-0.54,21.49,1.668c1.877,2.661,1.001,9.319-1.216,9.636
				c-2.162,0.309-15.402,7.879-20.066,2.024C133.497,278.587,132.103,276.012,137.685,270.778"/>
			<path fill="#C79C52" stroke="#806434" stroke-width="4.2291" stroke-linejoin="bevel" stroke-miterlimit="10" d="M591.284,81.182
				c-20.659-17.789-57.567-40.912-80.093-53.209c-13.807-7.537-35.446-14.44-58.271-18.857c7.18,9.02,19.402,36.158,19.345,66.944
				c23.228-1.3,75.264,23.565,89.519,36.6C572.051,107.606,587.054,91.568,591.284,81.182"/>
			<path fill="#C79C52" stroke="#806434" stroke-width="4.2291" stroke-linejoin="bevel" stroke-miterlimit="10" d="
				M584.489,184.691c1.814-23.83-9.302-46.766-22.645-71.955c10.159-5.246,25.186-21.098,29.489-31.572
				c5.16,3.842,9.004,7.806,11.846,10.813c17.144,18.135,51.377,57.735,62.595,77.886c9.775,17.56,17.158,38.752,21.629,50.519
				c-24.208-13.761-60.721-30.966-75.812-34.546C596.659,182.295,584.849,184.803,584.489,184.691"/>
			<path fill="#C79C52" stroke="#806434" stroke-width="4.2291" stroke-linejoin="bevel" stroke-miterlimit="10" d="
				M687.417,220.357c-24.262-13.649-60.71-31.031-75.834-34.503c-14.951-3.433-26.741-1.182-27.044-1.064
				c-7.664,2.987-44.99,47.658-44.713,48.079c-5.271,18.929,0.003,25.968,0.585,39.761c0.591,14.01-1.676,37.569-7.133,60.7
				c15.421,7.23,41.397,14.813,72.816,0.729c35.924-16.103,41.104-28.63,61.634-46.178c17.89-15.29,34.502-27.857,51.28-23.134
				c0.74,0.416,0.405,0.188,0.156,0.122c-11.576-10.215-24.536-29.26-29.218-38.717
				C689.293,224.833,688.811,222.761,687.417,220.357"/>
			<path fill="#C79C52" stroke="#806434" stroke-width="4.2291" stroke-linejoin="bevel" stroke-miterlimit="10" d="
				M472.396,192.925c-35.961,13.239-47.967,122.011-49.941,140.872c3.307,2.582,5.166-0.554,7.322-1.462
				c24.509-10.328,28.187-10.407,40.363-16.653c12.328-6.323,19.383-0.63,25.573,0.646c7.127,1.47,17.355,10.106,31.562,14.865
				c2.095,0.701,4.074,1.72,6.057,2.203c5.24-23.155,7.845-46.918,7.049-60.619c-0.879-15.118-4.979-18.913-1.245-41.378
				C538.042,226.51,506.786,180.265,472.396,192.925"/>
			<path fill="#C79C52" stroke="#806434" stroke-width="4.2291" stroke-linejoin="bevel" stroke-miterlimit="10" d="M560.845,113.41
				c-11.316-15.483-66.81-37.393-88.255-37.49c-8.207-0.037-20.255,11.758-25.04,21.783c6.579,11.444,17.969,39.128,20.556,51.533
				c2.629,12.607,3.353,35.259,2.947,40.111c38.865-0.649,64.632,30.799,68.612,43.523c0.28-0.596,36.681-44.747,45.195-48.33
				C584.516,161.96,577.593,136.325,560.845,113.41"/>
			<path fill="#C79C52" stroke="#806434" stroke-width="4.2291" stroke-linejoin="bevel" stroke-miterlimit="10" d="M447.523,97.928
				c-29.249-5.916-84.852,13.82-102.657,22.435c-16.819,8.138-41.305,67.255-42.712,90.246c8.487,10.896,17.935,23.542,24.69,36.049
				c31.732,58.756,45.329,79.943,57.95,87.088c11.078,6.27,18.15,10.068,38.191,1.498c-0.609-25.976,16.123-121.642,48.231-145.656
				c-0.011-5.446-0.333-27.514-3.116-40.411C465.487,137.063,454.191,108.803,447.523,97.928"/>
			<path fill="#C79C52" stroke="#806434" stroke-width="4.2291" stroke-linejoin="bevel" stroke-miterlimit="10" d="M447.534,97.901
				c-29.259-5.716-84.867,13.59-102.686,22.585c-14.194-36.922-56.672-75.025-73.828-77.842c3.756-2.58,7.622-5.041,11.525-7.219
				c29.139-16.262,80.79-31.302,112.391-32.084c15.821-0.391,37.421,1.47,57.984,5.761c7.212,9.083,19.35,36.096,19.387,67.008
				C464.75,76.82,452.177,86.744,447.534,97.901"/>
			<path fill="#C79C52" stroke="#806434" stroke-width="4.2291" stroke-linejoin="bevel" stroke-miterlimit="10" d="
				M302.104,210.508c-30.281-37.618-64.948-60.892-82.196-66.458c-13.416-4.33-25.815-4.02-37.563,0.671
				c18.738-11.071,13.268-18.446,35.895-46.093c18.924-23.123,31.728-41.442,52.76-56.007c17.244,2.885,59.537,40.907,73.921,77.882
				C327.898,128.18,303.698,187.897,302.104,210.508"/>
			<path fill="#FFC163" stroke="#B38645" stroke-width="4.2291" stroke-linejoin="bevel" stroke-miterlimit="10" d="
				M159.347,162.167c17.691-20.276,38.051-25.228,60.629-18.113c21.725,6.846,74.976,45.154,106.756,102.833
				c32.137,58.327,45.363,79.615,58.019,86.942c12.328,7.135,19.819,10.099,45.187-1.297c24.116-10.835,28.085-10.541,40.224-16.805
				c12.287-6.34,19.372-0.756,25.551,0.65c7.01,1.596,17.56,9.635,31.513,14.928c14.618,5.547,42.667,19.349,78.935,2.812
				c35.84-16.342,40.878-28.691,61.639-46.197c20.658-17.42,38.82-31.991,59.412-19.371c21.702,13.299,6.138,23.643,3.51,24.469
				c-2.462,0.773-6.386-5.155-13.774-6.787c-5.709-1.262-23.378,18.145-33.008,23.84c-9.284,5.491-41.938,34.128-71.967,49.218
				c-29.56,14.854-41.446,15.312-62.569,11.209c-20.363-3.957-38.266-7.444-48.365-18.229c-9.933-10.604-22.507-5.061-27.929-5.02
				c-4.871,0.036-20.375,6.557-25.985,10.675c-5.469,4.014-12.957,9.98-18.086,11.52c-3.978,1.193-22.569,9.64-33.216,5.548
				c-9.655-3.711-19.847-3.083-32.188-19.778c-12.214-16.523-24.023-35.404-39.183-60.802
				c-15.041-25.198-24.966-53.397-43.235-70.503c-18.247-17.084-32.967-27.251-45.444-32.044
				c-12.166-4.674-18.786-10.535-30.536-6.772c-12.017,3.847-21.519,10.171-35.24,5.535
				C157.076,186.261,152.635,169.86,159.347,162.167"/>
			
				<path fill="#7BD968" stroke="#598C4E" stroke-width="4.2291" stroke-linecap="round" stroke-linejoin="bevel" stroke-miterlimit="10" d="
				M73.884,371.044c3.287,3.363,16.614,14.763,33.146,11.394c16.536-3.369,34.071-9.404,36.301-19.928"/>
		</g>
	</g>
	<g id="Layer_4">
		<g>
			<path fill="#C79C52" stroke="#806434" stroke-width="0.8971" stroke-linejoin="bevel" stroke-miterlimit="10" d="
				M454.756,235.913c1.902-0.758,3.057-0.346,4.126,0.55c2.526,2.118,5.972,10.785,8.564,20.11
				c2.65,9.535,5.055,13.282,6.741,14.526c2.285,1.686,3.235,2.311,8.479,0.622c5.653-1.821,6.701-1.672,9.561-2.878
				c3.123-1.317,4.935-0.034,6.179,0.237c1.895,0.413,4.416,2.322,7.118,3.43c3.362,1.38,8.297,5.073,13.304,1.808
				c5.358-3.494,5.92-6.391,9.057-11.207c2.65-4.069,6.165-7.773,8.523-7.559c0.438,0.285,0.636,0.014-0.101,0.139
				c-1.22-2.04-3.565-6.224-3.894-8.501c-0.306-2.128-1.376-8.076-2.976-12.898c-1.489-4.493-6.953-12.502-9.827-16.355
				c-2.523-3.384-10.365-8.935-14.868-11.702c-3.93-2.415-12.819-3.586-17.899-2.814c-4.549,0.69-12.391,4.598-16.628,8.257
				c-4.14,3.575-6.356,8.661-9.952,14.559C456.734,232.024,457.469,234.055,454.756,235.913"/>
			<path fill="#FFE563" stroke="#E8D46D" stroke-width="0.8971" stroke-linejoin="bevel" stroke-miterlimit="10" d="
				M529.737,268.139c-0.768,1.852-5.966,9.064-10.319,12.047c-4.219,2.89-6.089,2.723-9.882,1.324
				c-3.154-1.164-7.131-1.944-9.963-4.415c-2.477-2.161-5.573-1.108-7.371-1.123c-0.957-0.008-5.273,1.204-6.7,1.886
				c-1.387,0.663-3.219,1.733-4.424,1.841c-0.85,0.075-4.445,1.138-6.242-0.083c-1.361-0.924-3.064-1.109-4.819-4.486
				c-1.551-2.986-3.28-5.66-4.771-9.653c-1.347-3.605-1.468-8.594-3.08-11.907c-1.415-2.911-2.36-5.075-3.725-6.324
				c-0.929-0.848-1.441-2.163-2.728-1.933c0.897,3.131,2.916,16.408,4.968,20.001c2.296,4.02,3.776,7.48,6.513,10.529
				c3.14,3.5,9.449,7.14,16.006,7.6c7.039,0.493,12.966,1.981,18.122,2.06c5.781,0.089,12.294,0.769,15.625-0.551
				c3.676-1.458,5.753-3.317,7.213-5.461C525.575,277.413,528.135,274.433,529.737,268.139"/>
			<path fill="#7BD968" stroke="#598C4E" stroke-width="0.8971" stroke-linejoin="bevel" stroke-miterlimit="10" d="
				M436.255,265.927c-0.17,1.896-0.825,8.274,0.544,11.633c2.652,6.503,6.695,5.121,7.499,5.221
				c1.376,0.17,6.017,1.677,10.302-7.527c4.23-9.085,8.368-12.003,9.346-14.082c-0.046-2.438-0.835-5.405-1.794-7.581
				c-1.309-2.964-2.396-5.115-3.717-6.313c-1.017-0.923-1.256-2.18-2.848-1.916c0.367-0.061-0.092,0.486-0.236,0.116
				c-1.433,3.632-4.395,6.855-6.69,7.034c-1.815,0.142-4.823,0.012-6.054-0.2c-0.161-0.028-1.19,0.696-1.431,0.959
				C439.588,255.011,436.708,260.872,436.255,265.927"/>
			<path fill="#7BD968" stroke="#598C4E" stroke-width="0.8971" stroke-linejoin="bevel" stroke-miterlimit="10" d="
				M478.721,279.962c-0.998,0.393-2.856,0.362-3.869-0.323c-1.444-0.978-2.975-1.146-4.876-4.489
				c-0.344-0.604-0.513-1.347-1.244-2.375c-1.311,2.85-5.169,10.173-5.861,12.945c-0.743,2.976-2.055,8.289-1.394,13.607
				c0.704,5.655,0.15,7.385,0.299,9.511c0.178,2.547,0.327,4.318,1.436,4.503c1.844,0.309,2.497-1.684,3.865-4.294
				c1.272-2.43,3.748-5.18,5.863-9.131c1.752-3.275,3.242-5.823,3.95-8.745c0.624-2.578,2.594-10.64,1.78-10.984
				c0.466,0.197,0.291-0.139,0.135-0.199C478.791,280.023,479.26,280.189,478.721,279.962"/>
			<path fill="#7BD968" stroke="#598C4E" stroke-width="0.8971" stroke-linejoin="bevel" stroke-miterlimit="10" d="
				M530.224,267.655c1.823-1.882,4.369-6.457,5.24-6.491c1.527-0.058,1.995,1.558,2.183,0.997c1.866,1.475,3.339,3.854,2.485,6.299
				c-0.985,2.828-1.519,2.494-2.758,3.398c-0.85,0.62-2.196,0.508-3.265-0.613C533.623,270.735,530.865,269.039,530.224,267.655"/>
			<path fill="#7BD968" stroke="#598C4E" stroke-width="0.8971" stroke-linejoin="bevel" stroke-miterlimit="10" d="
				M516.264,281.818c-2.233,1.123-3.896,0.732-6.745-0.307c-1.827-0.666-4.13-1.217-6.384-2.342
				c-0.874,5.248-3.817,14.969-1.02,22.546c1.618,4.381,2.92,4.943,3.843,6.36c1.175,1.802,1.774,7.246,3.617,8.462
				c1.713,1.129,1.606,0.601,2.976-0.636c1.558-1.407,1.4-1.776,2.072-3.619c0.594-1.63,2.593-7.605,2.821-11.349
				c0.209-3.441,0.487-8.504,0.118-10.982c-0.311-2.088-0.827-7.683-1.392-7.887c0.601,0.079,0.283-0.066,0.188-0.225
				c-0.005,0.002,0.408,0.145-0.052,0.058C516.318,281.843,516.833,282.08,516.264,281.818"/>
			<path fill="#94AEFF" stroke="#4464C7" stroke-width="0.8971" stroke-linejoin="bevel" stroke-miterlimit="10" d="M441.062,253.19
				c1.978,0.833,1.889,4.269,1.691,4.384c1.422-0.155,1.934,0.094,1.91,0.475c0.546-1.839,2.419-4.725,3.789-4.476
				c1.962,0.356,3.292,0.469,3.168,6.105c2.403,0.64,4.54-1.547,5.205-1.338c1.158,0.365,1.239,1.393,1.06,2.053
				c-0.114,0.425,0.683,2.399,0.334,3.081c-0.413,0.81-0.219,1.712-1.056,2.073c-0.555,0.24-0.668-0.496-0.799-1.281
				c-0.085-0.506,0.229-1.499-0.161-2.09c-0.165-0.25-0.63-0.256-1.029-0.133c-0.095,0.029-3.642,1.43-4.255,1.236
				c0.077,2.277-1.673,5.915-4.15,5.548c-1.995-0.296-2.355-1.713-2.421-3.623c-0.048-1.382,0.291-2.939-0.239-2.807
				c-0.883-0.282-0.597-0.164-1.617-0.466c-0.058,2.23-1.797,6.403-4.385,5.587c-1.758-0.553-3.435-2.732-2.532-8.691
				c-1.323-0.458-1.145-0.282-0.938-0.797c0.896-2.598,0.75-2.666,0.569-2.909c0.49,0.097,1.979,0.49,1.797,0.579
				C437.885,251.945,440.9,253.122,441.062,253.19"/>
			<path fill="#FFFFFF" stroke="#4464C7" stroke-width="0.8971" stroke-linejoin="bevel" stroke-miterlimit="10" d="
				M438.303,255.645c1.838-1.171,3.689,1.509,3.603,2.661c-0.139,1.808-0.413,5.645-1.979,6.803
				c-1.403,1.039-2.683,0.432-3.279-1.986C436.36,261.959,437.171,256.367,438.303,255.645"/>
			<path fill="#E0B577" stroke="#A87C3B" stroke-width="0.8971" stroke-linejoin="bevel" stroke-miterlimit="10" d="M438.44,259.782
				c0.325-1.047,2.076-0.309,2.111,0.09c0.143,1.595,0.036,2.145-0.852,2.701c-0.098,0.06-1.423,1.68-1.74,0.159
				C437.851,262.209,438.42,259.844,438.44,259.782"/>
			<path fill="#FFFFFF" stroke="#4464C7" stroke-width="0.8971" stroke-linejoin="bevel" stroke-miterlimit="10" d="
				M445.479,264.412c-0.191-2.359,0.073-5.334,0.755-6.34c0.942-1.392,2.751-1.724,3.411,0.189c0.956,2.764,1.021,4.08,0.44,5.373
				c-0.541,1.203-1.295,3.062-2.633,3.025C446.866,266.643,445.634,266.327,445.479,264.412"/>
			<path fill="#E0B577" stroke="#A87C3B" stroke-width="0.8971" stroke-linejoin="bevel" stroke-miterlimit="10" d="
				M446.882,260.979c0.866-0.984,1.975,0.818,1.923,0.715c0.357,0.722-0.229,1.774-0.629,1.829c-0.031,0.004-1.613,1.036-1.84-0.321
				C446.213,262.467,446.427,261.495,446.882,260.979"/>
			<path fill="#C79C52" stroke="#806434" stroke-width="0.8971" stroke-linejoin="bevel" stroke-miterlimit="10" d="
				M517.657,215.851c-3.261-3.234-9.229-7.362-12.901-9.605c-1.976-1.208-5.385-2.159-9.075-2.777
				c1.407,1.837,2.01,8.104,0.959,14.872c4.184-0.744,12.88,3.152,15.173,5.657C513.636,222.862,517.013,218.528,517.657,215.851"/>
			<path fill="#C79C52" stroke="#806434" stroke-width="0.8971" stroke-linejoin="bevel" stroke-miterlimit="10" d="M514.984,239.9
				c0.525-5.301-1.198-10.41-3.331-15.812c2.209-1.354,5.23-5.49,6.021-8.245c1.135,0.795,1.55,1.697,1.891,2.12
				c3.002,3.739,8.4,11.866,9.829,16.339c1.295,4.049,2.687,8.826,2.635,11.505c-3.476-2.408-9.584-5.653-12.36-6.186
				C517.167,239.142,515.488,239.938,514.984,239.9"/>
			<path fill="#C79C52" stroke="#806434" stroke-width="0.8971" stroke-linejoin="bevel" stroke-miterlimit="10" d="
				M532.089,245.768c-3.636-2.324-9.567-5.627-12.45-6.158c-2.25-0.413-4.495,0.31-4.495,0.264
				c-1.363,0.887-7.798,11.377-8.104,11.088c-0.383,4.31,0.389,5.73,0.589,8.757c0.209,3.181,0.301,8.265-0.911,13.316
				c3.425,1.835,7.752,4.01,12.104,1.284c5.421-3.396,5.9-6.472,9.049-11.207c2.705-4.068,6.14-7.786,8.546-7.56
				c0.469,0.276,0.524,0.016-0.029,0.133c-1.584-2.035-3.341-6.209-4.026-8.527C532.3,246.956,532.19,246.726,532.089,245.768"/>
			<path fill="#C79C52" stroke="#806434" stroke-width="0.8971" stroke-linejoin="bevel" stroke-miterlimit="10" d="
				M494.044,243.185c-7.166,3.321-11.628,24.662-12.995,28.487c1.091,0.883,0.929,0.107,1.605-0.064
				c5.715-1.446,6.714-1.671,9.544-2.784c3.226-1.27,4.911-0.013,6.216,0.254c1.905,0.39,4.351,2.342,7.143,3.432
				c0.559,0.218,1.197,0.478,1.084,0.584c1.374-5.175,1.191-10.177,0.974-13.358c-0.221-3.213-0.751-4.165-0.772-8.987
				C506.772,249.744,500.578,240.156,494.044,243.185"/>
			<path fill="#C79C52" stroke="#806434" stroke-width="0.8971" stroke-linejoin="bevel" stroke-miterlimit="10" d="
				M511.547,224.154c-1.544-3.023-11.042-6.272-14.846-5.825c-1.635,0.193-3.564,3.359-5.04,5.423
				c1.335,2.35,2.168,8.031,2.466,10.41c0.322,2.568,0.076,7.429-0.434,8.377c7.68-0.836,12.485,6.049,13.277,8.465
				c0.382,0.165,6.909-10.168,8.079-11.142C515.199,234.769,514.166,229.278,511.547,224.154"/>
			<path fill="#C79C52" stroke="#806434" stroke-width="0.8971" stroke-linejoin="bevel" stroke-miterlimit="10" d="M491.61,223.825
				c-4.744-0.175-13.938,4.932-16.835,7.142c-2.5,1.907-8.114,15.08-9.304,19.271c1.073,2.127,1.3,4.349,1.904,6.351
				c2.877,9.513,5.023,13.232,6.837,14.523c2.021,1.438,3.02,2.326,6.97,0.896c0.664-5.409,6.446-23.9,12.518-29.522
				c0.466-0.827,0.785-5.788,0.423-8.331C493.793,231.84,493.07,225.999,491.61,223.825"/>
			<path fill="#C79C52" stroke="#806434" stroke-width="0.8971" stroke-linejoin="bevel" stroke-miterlimit="10" d="
				M491.621,223.852c-4.839-0.268-13.817,4.965-16.919,7.11c-0.342-7.147-4.135-16.407-6.341-17.567
				c1.022-0.581,1.168-1.259,1.81-1.782c4.363-3.556,12.085-7.454,16.667-8.211c2.575-0.426,5.773-0.103,8.833,0.055
				c1.431,1.848,2.012,8.143,0.97,14.858C495.166,218.995,493.117,221.251,491.621,223.852"/>
			<path fill="#C79C52" stroke="#806434" stroke-width="0.8971" stroke-linejoin="bevel" stroke-miterlimit="10" d="
				M465.491,250.259c-2.064-6.673-4.71-12.147-6.594-13.774c-1.093-0.942-2.258-1.332-4.121-0.561
				c2.597-1.929,2.067-3.831,5.472-9.698c2.961-5.103,5.407-9.416,8.124-12.875c2.153,1.265,6.051,10.432,6.286,17.611
				C472.476,232.941,466.533,245.983,465.491,250.259"/>
			<path fill="#FFC163" stroke="#B38645" stroke-width="0.8971" stroke-linejoin="bevel" stroke-miterlimit="10" d="
				M451.968,238.889c2.544-3.623,5.02-4.099,6.921-2.429c2.461,2.161,6.017,10.753,8.566,20.112
				c2.597,9.533,5.077,13.295,6.732,14.521c2.286,1.696,3.237,2.317,8.479,0.626c5.652-1.823,6.7-1.67,9.561-2.877
				c3.123-1.316,4.936-0.037,6.181,0.237c1.891,0.416,4.398,2.322,7.116,3.434c3.375,1.38,8.289,5.048,13.304,1.82
				c5.444-3.504,5.787-6.456,9.072-11.224c3.167-4.599,6.938-9.018,9.839-7.01c3.747,2.594,0.552,5.803-0.076,6.181
				c-0.414,0.249-0.478-1.178-2.255-1.093c-0.701,0.034-4.288,5.617-5.482,7.053c-1.311,1.577-5.964,9.002-10.507,11.981
				c-4.261,2.793-6.039,2.713-9.895,1.293c-3.15-1.159-7.108-1.951-9.947-4.417c-2.484-2.158-5.568-1.108-7.373-1.124
				c-0.955-0.009-5.274,1.205-6.7,1.887c-1.385,0.662-3.218,1.732-4.422,1.84c-0.856,0.076-4.438,1.137-6.252-0.081
				c-1.37-0.919-3.052-1.111-4.811-4.488c-1.553-2.982-3.284-5.662-4.77-9.652c-1.345-3.616-1.49-8.567-3.088-11.907
				c-1.393-2.909-2.338-5.092-3.749-6.314c-0.855-0.741-1.414-2.407-2.738-1.806c-1.355,0.615-2.306,2.082-3.74,0.105
				C451.052,244.34,451.037,240.215,451.968,238.889"/>
			
				<path fill="#7BD968" stroke="#598C4E" stroke-width="0.8971" stroke-linecap="round" stroke-linejoin="bevel" stroke-miterlimit="10" d="
				M438.359,274.369c0.593,0.68,1.398,3.178,2.685,3.456c1.621,0.349,3.416,0.307,3.485-1.398"/>
		</g>
	</g>
	<g id="Layer_5">
		<g>
			<path fill="#C79C52" stroke="#806434" stroke-width="0.8971" stroke-linejoin="bevel" stroke-miterlimit="10" d="M595.834,198.88
				c2.339,0.292,3.205,1.552,4.056,2.924c1.95,3.143,2.439,12.229,1.456,21.757c-0.974,9.45,0.488,14.388,1.892,16.63
				c1.759,2.813,3.013,4.192,9.773,6.166c7.586,2.216,8.878,3.001,12.667,3.814c4.497,0.964,5.98,3.138,7.514,4.272
				c2.131,1.576,4.545,4.858,7.613,7.681c3.558,3.272,8.742,9.814,15.803,10.108c7.777,0.323,9.452-2.053,14.312-4.18
				c4.571-2.001,9.295-3.19,11.918-1.355c0.419,0.298,0.606,0.167-0.095,0.068c-0.523-2.718-2.114-7.527-1.961-9.785
				c0.143-2.131,0.499-7.832-0.08-12.925c-0.548-4.824-4.559-14.892-6.61-19.775c-1.862-4.431-8.899-13.692-12.873-18.557
				c-3.603-4.412-12.708-10.508-18.556-12.933c-5.15-2.135-14.762-3.795-20.917-3.418c-5.523,0.337-9.953,2.815-16.226,5.34
				C599.692,197.058,599.569,198.995,595.834,198.88"/>
			<path fill="#FFE563" stroke="#E8D46D" stroke-width="0.8971" stroke-linejoin="bevel" stroke-miterlimit="10" d="
				M671.854,273.719c-1.597,0.867-9.597,4.357-16.152,4.233c-5.867-0.11-8.415-1.452-12.593-5.073
				c-3.601-3.12-8.407-6.474-10.957-10.415c-2.342-3.617-6.615-4.718-8.745-5.854c-1.38-0.736-6.812-2.459-9.121-2.845
				c-1.741-0.29-4.492-0.584-6.096-1.351c-0.899-0.429-5.827-2.039-7.421-4.251c-1.209-1.678-3.17-3.214-3.812-7.129
				c-0.605-3.692-1.413-7.215-1.515-11.412c-0.099-4.055,1.926-8.252,1.501-11.877c-0.401-3.426-0.519-5.674-1.646-7.498
				c-0.749-1.212-0.254-2.837-2.293-3.272c-0.197,2.666-3.54,14.952-2.76,19.359c0.833,4.71,1.041,8.715,2.922,13.236
				c2.057,4.941,7.971,12.648,15.874,17.476c8.501,5.193,15.347,10.438,21.945,13.956c7.207,3.843,15.431,8.616,19.889,9.57
				c5.17,1.106,8.495,0.536,10.674-0.286C664.323,279.239,668.05,278.043,671.854,273.719"/>
			<path fill="#7BD968" stroke="#598C4E" stroke-width="0.8971" stroke-linejoin="bevel" stroke-miterlimit="10" d="
				M564.265,210.961c-0.783,1.125-4.314,5.951-4.397,9.608c-0.151,6.749,4.626,8.622,5.354,9.216
				c1.279,1.043,5.671,5.4,14.103,0.807c8.769-4.777,14.077-4.747,16.438-5.34c1.033-2.424,1.28-5.162,1.146-7.488
				c-0.2-3.455-0.59-5.726-1.601-7.495c-0.768-1.344-0.263-2.734-2.31-3.332c0.236,0.069-0.097,0.189-0.357-0.043
				c-2.792,1.776-7.452,2.665-9.896,1.304c-1.868-1.039-5.092-3.123-6.142-3.945c-0.373-0.293-1.304-0.196-2.017-0.129
				C572.347,204.333,566.975,207.069,564.265,210.961"/>
			<path fill="#7BD968" stroke="#598C4E" stroke-width="0.8971" stroke-linejoin="bevel" stroke-miterlimit="10" d="
				M605.282,251.226c-1.302-0.733-3.531-1.635-4.53-3.042c-1.256-1.769-2.951-3.215-3.896-7.138
				c-0.19-0.785,0.187-1.786-0.536-2.851c-2.701,1.162-10.033,5.07-12.278,7.108c-1.949,1.77-5.97,5.687-7.591,10.838
				c-1.754,5.573-3.068,6.572-4.006,8.884c-0.855,2.107-1.661,4.062-0.543,5.025c1.884,1.622,3.865,0.172,6.457-1.013
				c2.89-1.322,6.971-2.241,11.136-4.156c3.87-1.779,6.543-3.303,8.67-5.089c2.279-1.914,7.374-8.096,6.949-8.418
				c0.423,0.32,0.567-0.241,0.188-0.105C605.632,251.266,605.674,251.354,605.282,251.226"/>
			<path fill="#7BD968" stroke="#598C4E" stroke-width="0.8971" stroke-linejoin="bevel" stroke-miterlimit="10" d="
				M672.531,273.557c2.569-0.778,7.028-3.017,7.756-2.592c1.585,0.927,2.006,2.431,2.158,2.266c2.11,2.504,2.918,5.168,1.23,7.118
				c-1.552,1.793-2.14,1.277-3.844,1.343c-0.972,0.038-2.629-1.018-3.564-2.481C675.674,278.281,673.393,275.16,672.531,273.557"/>
			<path fill="#7BD968" stroke="#598C4E" stroke-width="0.8971" stroke-linejoin="bevel" stroke-miterlimit="10" d="
				M651.312,277.481c-2.913-0.583-5.121-1.902-8.207-4.586c-2.132-1.854-4.777-3.963-7.359-6.216
				c-3.181,3.754-10.384,10.799-9.708,19.778c0.369,4.918,1.899,6.488,2.677,8.421c0.981,2.434-0.333,7.834,1.822,10.416
				c1.466,1.758,2.378,1.779,4.106,1.269c2.669-0.787,2.827-0.791,4.202-2.031c1.512-1.363,6.155-5.667,7.672-8.84
				c1.542-3.226,3.433-7.608,3.831-10.057c0.343-2.099,1.275-7.747,0.752-8.004c0.564,0.161,0.446-0.018,0.229-0.15
				c0.276,0.137,0.329,0.14-0.032-0.004C651.649,277.622,651.618,277.612,651.312,277.481"/>
			<path fill="#94AEFF" stroke="#4464C7" stroke-width="0.8971" stroke-linejoin="bevel" stroke-miterlimit="10" d="
				M574.607,204.059c1.438,1.354,0.051,4.379-0.259,4.344c1.47,0.564,1.907,1.12,1.664,1.62c1.738-1.332,4.479-2.357,5.863-1.233
				c1.805,1.466,3.549,2.337,0.768,7.039c2.436,1.721,5.649,1.629,6.147,2.153c0.969,1.019,0.926,2.048,0.765,2.416
				c-0.3,0.685-0.75,2.072-1.368,2.835c-0.28,0.347-0.887,1.323-1.859,0.983c0.021,0.007-0.697-0.835-0.35-1.478
				c0.409-0.764,0.991-1.113,0.776-1.901c-0.07-0.258-0.156-0.601-1.023-0.725c-0.064-0.009-4.373-1.386-5.142-1.704
				c-0.872,1.552-4.238,3.666-6.636,1.739c-1.936-1.555-1.589-3.149-1.05-4.519c0.581-1.476,1.634-2.261,0.918-2.467
				c-0.314-0.849-0.591-0.556-1.374-1.317c-1.167,1.493-4.503,3.801-6.88,1.638c-1.934-1.758-1.932-4.618,0.885-8.586
				c-0.811-1.173-0.534-0.844-0.509-1.129c2.2-1.929,1.939-1.796,1.716-1.918c0.315,0.097,2.146,1.311,1.46,1.472
				C571.986,200.706,574.073,203.556,574.607,204.059"/>
			<path fill="#FFFFFF" stroke="#4464C7" stroke-width="0.8971" stroke-linejoin="bevel" stroke-miterlimit="10" d="
				M570.791,204.072c2.329,0.346,2.845,3.201,2.322,4.336c-0.663,1.438-2.582,4.253-4.811,4.242c-1.22-0.006-3.111-1.591-2.423-3.57
				C566.354,207.719,569.139,203.827,570.791,204.072"/>
			<path fill="#E0B577" stroke="#A87C3B" stroke-width="0.8971" stroke-linejoin="bevel" stroke-miterlimit="10" d="
				M569.123,207.232c0.903-0.413,1.95,0.906,1.83,1.622c-0.2,1.188-0.66,1.619-1.641,1.665c-0.255,0.011-2.02,0.188-1.959-0.974
				C567.387,208.92,568.436,207.546,569.123,207.232"/>
			<path fill="#FFFFFF" stroke="#4464C7" stroke-width="0.8971" stroke-linejoin="bevel" stroke-miterlimit="10" d="M574.44,215.696
				c0.749-2.21,2.407-4.364,3.235-4.684c1.766-0.68,3.506,0.223,3.493,2.339c-0.017,2.705-0.558,3.922-1.729,4.717
				c-0.73,0.496-2.568,1.617-3.871,0.767C575.073,218.511,573.977,217.065,574.44,215.696"/>
			<path fill="#E0B577" stroke="#A87C3B" stroke-width="0.8971" stroke-linejoin="bevel" stroke-miterlimit="10" d="
				M577.202,213.688c1.291-0.179,1.752,1.76,1.713,1.892c-0.173,0.575-0.67,1.372-1.329,1.107c0.131,0.052-2-0.22-1.725-1.377
				C576.051,214.511,576.839,213.738,577.202,213.688"/>
			<path fill="#C79C52" stroke="#806434" stroke-width="0.8971" stroke-linejoin="bevel" stroke-miterlimit="10" d="M672.43,221.415
				c-2.486-4.85-7.949-11.705-11.236-15.67c-1.782-2.151-5.036-5.138-9.067-7.593c0.64,2.032-0.362,7.557-3.796,12.501
				c4.779,1.732,13.418,10.324,15.097,13.893C666.193,224.653,670.822,222.968,672.43,221.415"/>
			<path fill="#C79C52" stroke="#806434" stroke-width="0.8971" stroke-linejoin="bevel" stroke-miterlimit="10" d="M662.59,239.974
				c2.352-4.342,1.782-9.633,0.793-15.393c2.86,0.025,7.432-1.594,9.032-3.163c1.251,1.079,1.302,2.318,1.583,2.889
				c2.338,4.76,6.103,14.987,6.663,19.744c0.503,4.277,0.637,8.973-0.023,11.583c-3.321-4.476-9.437-10.827-12.479-13.011
				C665.604,240.789,663.041,240.026,662.59,239.974"/>
			<path fill="#C79C52" stroke="#806434" stroke-width="0.8971" stroke-linejoin="bevel" stroke-miterlimit="10" d="
				M680.655,255.646c-3.36-4.528-9.445-10.793-12.511-13.033c-2.432-1.777-5.209-2.679-5.525-2.679
				c-1.339,0.264-12.52,4.519-12.714,4.566c-2.093,3.064-1.528,4.998-2.279,7.792c-0.758,2.823-2.141,7.273-5.551,11.122
				c3.679,3.59,8.33,8.508,14.564,8.806c7.61,0.363,9.568-1.966,14.255-4.179c4.545-2.145,9.383-3.02,11.923-1.392
				c0.519,0.418,0.507,0.167,0.003,0.126c-0.878-2.769-1.881-7.484-2.111-9.82C680.691,256.771,681.203,256.246,680.655,255.646"/>
			<path fill="#C79C52" stroke="#806434" stroke-width="0.8971" stroke-linejoin="bevel" stroke-miterlimit="10" d="
				M636.944,229.509c-8.571-1.613-22.694,13.05-25.723,15.9c0.6,0.983,1.459,0.824,1.811,0.93c7.524,2.286,8.881,2.998,12.643,3.825
				c4.507,0.991,5.977,3.127,7.513,4.293c2.088,1.583,4.659,4.74,7.582,7.708c0.591,0.599,1.343,0.88,1.274,1.266
				c3.444-3.881,4.865-8.319,5.569-11.117c0.764-3.04,0.207-4.347,2.292-8.103C649.632,242.861,646.628,231.332,636.944,229.509"/>
			<path fill="#C79C52" stroke="#806434" stroke-width="0.8971" stroke-linejoin="bevel" stroke-miterlimit="10" d="
				M663.225,224.619c-1.051-3.8-10.422-12.127-14.841-13.959c-1.475-0.611-4.942,0.363-7.349,1.405
				c0.494,2.415-0.261,7.803-0.83,9.988c-0.609,2.338-2.091,5.994-3.139,6.764c9.285,4.113,12.759,12.849,12.806,15.665
				c0.317,0.103,11.304-4.454,12.789-4.526C664.628,235.71,664.778,230.237,663.225,224.619"/>
			<path fill="#C79C52" stroke="#806434" stroke-width="0.8971" stroke-linejoin="bevel" stroke-miterlimit="10" d="M640.995,212.12
				c-5.046-3.263-17.253-4.683-21.347-4.705c-3.483-0.019-14.601,6.853-18.016,9.68c0.548,2.211-0.186,4.324-0.355,6.444
				c-0.765,9.562,0.515,14.309,1.959,16.67c1.573,2.573,2.776,3.846,7.892,5.519c3.403-4.379,16.912-16.273,25.958-16.904
				c0.995-0.797,2.528-4.413,3.122-6.781C640.741,219.917,641.588,214.402,640.995,212.12"/>
			<path fill="#C79C52" stroke="#806434" stroke-width="0.8971" stroke-linejoin="bevel" stroke-miterlimit="10" d="
				M641.011,212.128c-5.106-3.289-17.21-4.674-21.398-4.716c2.275-6.202,1.573-15.641-0.348-17.805
				c1.15,0.082,1.925-0.256,2.48-0.281c6.169-0.277,15.745,1.309,20.922,3.474c2.947,1.233,6.46,3.15,9.475,5.337
				c0.604,2.066-0.365,7.562-3.812,12.515C646.885,210.315,643.5,210.776,641.011,212.128"/>
			<path fill="#C79C52" stroke="#806434" stroke-width="0.8971" stroke-linejoin="bevel" stroke-miterlimit="10" d="
				M601.653,217.104c0.55-6.915-0.384-12.888-1.733-15.269c-0.841-1.483-1.799-2.624-4.07-2.941
				c3.666,0.017,3.896-1.739,9.665-4.184c5.387-2.282,9.438-4.121,13.747-5.11c1.923,2.181,2.63,11.603,0.347,17.813
				C616.231,207.412,604.995,214.251,601.653,217.104"/>
			<path fill="#FFC163" stroke="#B38645" stroke-width="0.8971" stroke-linejoin="bevel" stroke-miterlimit="10" d="
				M591.604,199.455c4.5-1.33,6.851-0.238,8.321,2.342c1.822,3.195,2.463,12.198,1.426,21.775
				c-1.02,9.413,0.514,14.401,1.885,16.615c1.75,2.826,3.024,4.196,9.774,6.17c7.59,2.219,8.878,3.001,12.669,3.814
				c4.496,0.966,5.98,3.138,7.514,4.272c2.132,1.576,4.541,4.86,7.613,7.684c3.558,3.268,8.748,9.806,15.8,10.116
				c7.825,0.344,9.4-2.161,14.31-4.173c5.345-2.191,10.457-3.802,13.347-0.053c3.383,4.389-0.458,5.263-1.759,5.271
				c-0.334,0.002-0.517-1.365-2.237-2.326c-0.765-0.427-6.289,2.266-8.355,2.882c-1.768,0.528-9.573,4.307-16.218,4.127
				c-5.862-0.158-8.384-1.466-12.589-5.093c-3.597-3.104-8.4-6.483-10.949-10.413c-2.35-3.619-6.613-4.717-8.748-5.855
				c-1.379-0.736-6.81-2.459-9.12-2.845c-1.742-0.29-4.49-0.584-6.097-1.351c-0.901-0.43-5.824-2.037-7.42-4.252
				c-1.207-1.676-3.172-3.214-3.811-7.129c-0.603-3.695-1.429-7.207-1.516-11.412c-0.085-4.049,1.902-8.258,1.508-11.872
				c-0.379-3.457-0.592-5.643-1.641-7.503c-0.721-1.278-0.274-2.779-2.345-3.27c-1.137-0.27-3.295,0.072-3.888-2.158
				C588.627,203.126,590.404,199.81,591.604,199.455"/>
			
				<path fill="#7BD968" stroke="#598C4E" stroke-width="0.8971" stroke-linecap="round" stroke-linejoin="bevel" stroke-miterlimit="10" d="
				M562.812,219.08c0.527,0.548-0.091,3.414,1.157,4.432c1.682,1.371,3.462,2.326,4.24,1.314"/>
		</g>
		<g>
			<path fill="#C79C52" stroke="#806434" stroke-width="0.8971" stroke-linejoin="bevel" stroke-miterlimit="10" d="
				M479.377,105.555c2.125-0.552,3.604,0.071,5.037,1.135c3.132,2.324,8.078,10.915,11.609,20.464
				c3.536,9.567,6.859,13.685,9.109,15.244c2.808,1.946,4.319,2.787,10.965,2.016c7.229-0.837,8.599-0.549,12.153-1.243
				c4.024-0.786,6.2,0.744,7.927,1.265c2.321,0.699,5.66,2.986,9.252,4.557c4.203,1.837,10.84,6.266,16.645,3.929
				c6.35-2.557,6.626-5.317,9.866-9.426c2.816-3.573,6.258-6.682,9.091-5.935c0.318,0.265,0.492,0.01-0.088,0.13
				c-1.626-2.254-4.59-6.618-5.336-8.899c-0.707-2.16-2.553-8.039-4.99-12.962c-2.278-4.602-9.6-13.179-13.296-17.25
				c-3.343-3.68-13.184-10.143-18.669-13.349c-4.986-2.914-15.57-5.224-21.637-5.209c-5.467,0.013-14.533,2.401-19.665,5.365
				c-4.699,2.714-7.349,7.03-11.528,12.062C481.782,102.311,482.602,104.252,479.377,105.555"/>
			<path fill="#FFE563" stroke="#E8D46D" stroke-width="0.8971" stroke-linejoin="bevel" stroke-miterlimit="10" d="
				M574.786,148.728c-1.085,1.669-6.084,7.856-11.377,10.142c-4.803,2.074-7.316,1.637-12.044-0.294
				c-4.139-1.69-9.298-3.112-12.951-5.958c-3.325-2.589-7.36-2.017-9.522-2.308c-1.417-0.191-6.734,0.275-8.698,0.76
				c-1.705,0.42-3.993,1.182-5.701,1.081c-0.98-0.058-5.779,0.356-8.082-1.119c-1.795-1.15-4.074-1.722-6.359-5.286
				c-2.118-3.305-4.423-6.182-6.444-10.296c-1.867-3.796-2.128-8.663-4.209-12.029c-1.887-3.049-3.273-5.227-4.946-6.559
				c-1.26-1.003-1.76-2.42-3.678-2.143c1.142,2.671,4.19,15.846,6.857,19.716c2.921,4.237,4.888,7.932,8.555,11.457
				c4.026,3.87,12.406,8.713,21.04,10.248c9.253,1.646,16.938,4.047,23.715,4.977c7.34,1.007,15.711,2.634,19.7,1.916
				c4.515-0.814,6.879-2.424,8.419-4.158C570.705,157.023,573.398,154.403,574.786,148.728"/>
			<path fill="#7BD968" stroke="#598C4E" stroke-width="0.8971" stroke-linejoin="bevel" stroke-miterlimit="10" d="
				M456.732,131.088c-0.183,1.581-1.019,7.638,0.686,11.159c3.182,6.577,8.393,6.066,9.416,6.329
				c1.622,0.417,7.699,2.651,13.15-5.484c5.436-8.113,10.249-10.53,11.889-11.9c-0.274-2.786-1.179-5.505-2.491-7.753
				c-1.803-3.089-3.298-5.257-4.923-6.561c-1.317-1.058-1.717-2.374-3.702-2.167c0.07-0.007,0.174,0.097-0.306,0.03
				c-1.675,3.063-5.401,5.792-8.194,5.555c-2.255-0.192-6.235-0.743-7.535-1.107c-0.462-0.129-1.476,0.509-1.893,0.75
				C460.885,121.057,457.283,126.288,456.732,131.088"/>
			<path fill="#7BD968" stroke="#598C4E" stroke-width="0.8971" stroke-linejoin="bevel" stroke-miterlimit="10" d="
				M511.623,152.074c-1.618,0.016-3.763-0.079-5.217-1.031c-1.828-1.196-3.965-1.753-6.412-5.266
				c-0.461-0.662-0.73-1.665-1.71-2.489c-1.872,2.327-6.476,9.049-7.484,11.756c-0.996,2.671-2.719,7.882-1.957,13.405
				c0.821,5.959,0.101,7.495,0.237,9.901c0.142,2.494,0.109,4.509,1.639,4.899c2.292,0.585,3.396-1.437,5.26-3.747
				c1.893-2.343,5.084-4.818,7.914-8.381c2.482-3.124,4.22-5.546,5.279-8.198c1.002-2.512,2.943-10.612,2.249-10.511
				c0.4-0.058,0.297,0.031,0.098-0.325C511.83,152.259,511.621,152.284,511.623,152.074"/>
			<path fill="#7BD968" stroke="#598C4E" stroke-width="0.8971" stroke-linejoin="bevel" stroke-miterlimit="10" d="
				M575.308,148.272c1.642-1.536,4.433-5.583,5.242-5.459c1.618,0.247,2.468,1.722,2.557,1.399c2.622,1.644,4.184,4.149,3.543,6.563
				c-0.681,2.562-1.35,2.177-2.653,2.876c-0.842,0.452-2.481,0.049-3.675-1.167C579.573,151.723,576.308,149.856,575.308,148.272"/>
			<path fill="#7BD968" stroke="#598C4E" stroke-width="0.8971" stroke-linejoin="bevel" stroke-miterlimit="10" d="
				M559.699,159.988c-2.573,0.583-4.867,0.058-8.332-1.409c-2.408-1.019-5.46-1.961-8.35-3.274
				c-1.091,4.798-4.147,14.099-0.249,22.124c2.196,4.522,3.928,5.347,5.303,6.885c1.725,1.932,2.439,7.406,5.213,8.979
				c1.858,1.055,2.46,0.87,3.783-0.276c1.81-1.567,1.915-1.608,2.604-3.278c0.71-1.72,2.909-7.215,2.961-10.869
				c0.048-3.364-0.042-8.34-0.657-10.759c-0.521-2.052-1.803-7.875-2.334-7.936c0.373,0.103,0.313-0.118,0.071-0.188
				c0.264,0.076,0.283,0.078-0.013-0.007C559.989,160.068,559.99,160.052,559.699,159.988"/>
			<path fill="#94AEFF" stroke="#4464C7" stroke-width="0.8971" stroke-linejoin="bevel" stroke-miterlimit="10" d="
				M462.849,119.789c1.843,0.882,2.139,4.334,1.994,4.223c1.527-0.036,2.118,0.479,2.391,0.723c0.534-1.563,2.812-4.136,4.584-3.616
				c2.325,0.682,4.175,0.957,4.132,6.447c2.924,0.748,5.738-0.858,6.5-0.517c1.229,0.55,1.771,1.683,1.79,1.97
				c0.059,0.899,0.216,2.501,0.118,3.328c-0.057,0.473-0.235,1.768-1.216,1.777c0.009,0-1.116-0.423-1.03-1.257
				c0.101-0.997,0.548-1.682-0.254-2.128c-0.205-0.114-0.393-0.5-1.222-0.255c-0.042,0.012-4.533,0.543-5.35,0.512
				c-0.063,2-2.106,5.322-5.117,4.575c-2.622-0.651-2.981-2.228-3.171-3.982c-0.139-1.288,0.17-2.8-0.259-2.795
				c-1.084-0.23-0.973-0.079-1.968-0.581c-0.481,2.183-2.297,5.662-5.568,4.734c-2.728-0.773-4.101-3.569-3.471-8.68
				c-1.443-0.592-0.7-0.937-0.993-0.919c0.908-2.679,0.785-2.473,0.575-2.571c0.335-0.069,2.524,0.514,2.166,0.67
				C458.602,117.889,462.165,119.461,462.849,119.789"/>
			<path fill="#FFFFFF" stroke="#4464C7" stroke-width="0.8971" stroke-linejoin="bevel" stroke-miterlimit="10" d="M459.37,121.517
				c2.16-0.582,4.174,1.79,4.264,3.197c0.104,1.631-0.329,5.284-2.321,6.203c-1.125,0.518-3.733-0.084-4.054-2.262
				C457.03,127.1,457.615,121.989,459.37,121.517"/>
			<path fill="#E0B577" stroke="#A87C3B" stroke-width="0.8971" stroke-linejoin="bevel" stroke-miterlimit="10" d="
				M459.363,125.349c0.665-0.944,2.254,0.021,2.518,0.691c0.459,1.161,0.167,1.996-0.623,2.282
				c-0.234,0.085-2.008,1.452-2.344-0.021C458.724,127.47,458.604,126.426,459.363,125.349"/>
			<path fill="#FFFFFF" stroke="#4464C7" stroke-width="0.8971" stroke-linejoin="bevel" stroke-miterlimit="10" d="
				M468.496,131.009c-0.619-2.234-0.023-5.202,0.624-5.921c1.119-1.246,3.312-1.362,4.272,0.795
				c1.197,2.685,1.431,3.993,0.742,5.235c-0.584,1.055-1.572,2.64-3.158,2.536C470.162,133.601,468.877,132.383,468.496,131.009"/>
			<path fill="#E0B577" stroke="#A87C3B" stroke-width="0.8971" stroke-linejoin="bevel" stroke-miterlimit="10" d="
				M470.035,127.914c0.839-0.619,2.468,0.851,2.455,1.004c-0.092,1.024-0.06,1.812-0.737,1.751c0.1,0.009-1.954,0.754-2.211-0.608
				C469.36,129.099,469.463,128.337,470.035,127.914"/>
			<path fill="#C79C52" stroke="#806434" stroke-width="0.8971" stroke-linejoin="bevel" stroke-miterlimit="10" d="M554.771,96.338
				c-4.113-3.753-11.622-8.49-16.128-11.083c-2.495-1.437-6.585-2.963-11.087-3.867c1.567,1.657,3.079,7.812,2.465,14
				c4.791-0.148,15.652,4.962,18.644,7.701C550.898,102.216,554.153,98.509,554.771,96.338"/>
			<path fill="#C79C52" stroke="#806434" stroke-width="0.8971" stroke-linejoin="bevel" stroke-miterlimit="10" d="
				M554.231,118.942c0.185-5.259-2.621-10.115-5.59-15.799c2.302-1.018,5.471-4.562,6.15-6.833c1.369,0.798,1.995,1.817,2.478,2.309
				c3.849,3.921,11.057,12.657,13.316,17.217c2.05,4.134,3.936,8.839,4.405,11.637c-4.399-3.075-11.851-7.06-15.195-8.037
				C556.952,118.605,554.561,118.97,554.231,118.942"/>
			<path fill="#C79C52" stroke="#806434" stroke-width="0.8971" stroke-linejoin="bevel" stroke-miterlimit="10" d="
				M574.981,127.489c-4.383-3.117-11.845-7.061-15.191-8.054c-2.789-0.828-5.315-0.485-5.499-0.485
				c-1.277,0.581-8.327,9.594-8.622,9.411c-0.354,3.883,0.847,5.546,1.377,8.482c0.566,3.144,1.015,8.07-0.04,12.874
				c4.284,2.233,10.021,5.148,15.063,3.2c6.382-2.467,6.612-5.386,9.858-9.419c2.869-3.564,6.229-6.703,9.111-5.935
				c0.351,0.234,0.373,0.049-0.011,0.095c-2.026-2.117-4.31-6.715-5.537-8.823C575.368,128.623,575.771,127.904,574.981,127.489"/>
			<path fill="#C79C52" stroke="#806434" stroke-width="0.8971" stroke-linejoin="bevel" stroke-miterlimit="10" d="
				M528.721,118.753c-7.828,1.823-13.249,21.728-14.631,25.491c1.101,0.677,1.563,0.159,1.996,0.119
				c7.26-0.658,8.61-0.55,12.16-1.206c4.052-0.749,6.186,0.753,7.936,1.284c2.312,0.702,5.67,2.927,9.258,4.568
				c0.702,0.321,1.268,0.592,1.586,0.706c1.014-4.78,0.61-9.765,0.024-12.846c-0.601-3.161-1.593-4.275-1.48-8.757
				C544.779,127.005,537.539,116.699,528.721,118.753"/>
			<path fill="#C79C52" stroke="#806434" stroke-width="0.8971" stroke-linejoin="bevel" stroke-miterlimit="10" d="
				M548.447,103.279c-2.327-3.315-13.956-7.781-18.349-7.892c-1.657-0.042-4.15,2.691-5.594,4.399
				c1.471,2.251,3.297,7.878,3.732,10.226c0.496,2.681,0.887,6.755,0.301,7.982c9.418,0.469,15.933,7.687,17.094,10.421
				c0.378-0.018,7.347-8.719,8.681-9.533C554.043,113.945,552.099,108.483,548.447,103.279"/>
			<path fill="#C79C52" stroke="#806434" stroke-width="0.8971" stroke-linejoin="bevel" stroke-miterlimit="10" d="M524.474,99.897
				c-5.81-1.053-16.763,2.443-20.302,4.119c-2.961,1.402-9.427,12.845-10.908,16.788c1.436,1.881,1.865,4.421,2.654,6.373
				c3.854,9.536,6.843,13.614,9.229,15.245c2.505,1.713,4.038,2.596,9.028,2.154c0.992-5.413,7.093-22.268,14.39-26.597
				c0.505-1.2,0.205-5.278-0.331-7.983C527.787,107.747,526.016,101.886,524.474,99.897"/>
			<path fill="#C79C52" stroke="#806434" stroke-width="0.8971" stroke-linejoin="bevel" stroke-miterlimit="10" d="M524.479,99.906
				c-5.835-1.087-16.737,2.462-20.323,4.098c-0.95-7.025-6.181-15.955-8.808-17.406c0.912-0.224,1.418-0.936,1.977-1.248
				c5.213-2.908,14.18-5.288,19.702-5.333c3.013-0.024,6.964,0.523,10.536,1.348c1.551,1.726,3.086,7.788,2.453,14.046
				C528.523,95.809,525.936,97.624,524.479,99.906"/>
			<path fill="#C79C52" stroke="#806434" stroke-width="0.8971" stroke-linejoin="bevel" stroke-miterlimit="10" d="
				M493.304,120.768c-2.871-6.773-6.557-12.285-8.858-14.06c-1.471-1.132-2.969-1.679-5.047-1.146
				c3.11-1.359,2.49-3.199,6.407-8.104c3.565-4.464,6.132-7.908,9.524-10.844c2.665,1.417,7.872,10.367,8.819,17.396
				C501.274,105.412,494.673,116.898,493.304,120.768"/>
			<path fill="#FFC163" stroke="#B38645" stroke-width="0.8971" stroke-linejoin="bevel" stroke-miterlimit="10" d="
				M475.908,107.924c3.186-3.039,5.969-3.196,8.52-1.24c3.079,2.36,8.091,10.895,11.6,20.475c3.5,9.558,6.878,13.689,9.103,15.235
				c2.812,1.954,4.322,2.791,10.968,2.02c7.228-0.839,8.598-0.549,12.153-1.243c4.023-0.786,6.2,0.745,7.928,1.266
				c2.32,0.699,5.659,2.988,9.25,4.557c4.207,1.838,10.843,6.252,16.642,3.941c6.425-2.561,6.527-5.39,9.876-9.426
				c3.362-4.054,6.981-7.757,10.712-5.178c4.383,3.031,1.282,5.652,0.503,5.957c-0.311,0.122-0.844-1.237-2.646-1.454
				c-0.809-0.097-4.292,4.693-5.646,6.028c-1.347,1.328-6.068,7.792-11.461,10.031c-4.828,2.005-7.285,1.632-12.05-0.314
				c-4.125-1.685-9.295-3.12-12.943-5.958c-3.328-2.591-7.359-2.018-9.522-2.31c-1.415-0.191-6.735,0.276-8.699,0.76
				c-1.704,0.42-3.993,1.184-5.702,1.081c-0.979-0.059-5.78,0.359-8.08-1.12c-1.791-1.152-4.084-1.71-6.362-5.282
				c-2.11-3.311-4.426-6.182-6.441-10.299c-1.861-3.798-2.14-8.659-4.207-12.027c-1.885-3.069-3.279-5.205-4.955-6.565
				c-1.188-0.964-1.833-2.489-3.639-2.106c-1.448,0.308-2.861,1.496-4.576-0.484C475.01,112.859,474.883,108.902,475.908,107.924"/>
			
				<path fill="#7BD968" stroke="#598C4E" stroke-width="0.8971" stroke-linecap="round" stroke-linejoin="bevel" stroke-miterlimit="10" d="
				M459.461,139.448c0.548,0.627,1.652,3.163,3.245,3.701c2.07,0.699,4.263,0.639,4.538-0.685"/>
		</g>
		<g>
			<path fill="#C79C52" stroke="#806434" stroke-width="0.8971" stroke-linejoin="bevel" stroke-miterlimit="10" d="
				M340.955,199.314c1.212-1.948,2.532-3.214,4.444-3.427c3.662-0.406,13.218,3.422,21.579,9.108
				c8.753,5.953,13.207,6.397,15.912,5.661c3.176-0.864,4.54-1.341,9.005-8.711c4.44-7.328,5.639-8.33,7.864-12.525
				c2.177-4.103,4.771-4.94,6.4-6.135c1.916-1.404,5.656-2.539,9.263-4.476c4.001-2.149,11.242-4.071,14.088-11.525
				c2.812-7.36,1.419-10.102,1.243-16.613c-0.143-5.332,0.246-10.885,2.902-12.969c0.385,0.037,0.363-0.088,0.011,0.066
				c-2.954,0.071-7.359-1.817-9.547-3.132c-1.786-1.073-6.865-5.01-11.867-7.281c-4.528-2.057-15.56-3.74-20.963-4.277
				c-4.824-0.48-16.519,2.022-22.591,3.728c-5.681,1.596-15.068,8.77-19.203,13.86c-4.059,4.997-8.712,15.465-10.137,22.464
				c-1.451,7.132-0.144,13.644,0.481,22.189C340.465,193.892,342.198,195.343,340.955,199.314"/>
			<path fill="#FFE563" stroke="#E8D46D" stroke-width="0.8971" stroke-linejoin="bevel" stroke-miterlimit="10" d="
				M435.988,152.689c0.298,2.478,0.251,12.2-2.055,18.379c-2.351,6.305-4.387,7.93-8.765,10.486
				c-4.119,2.404-8.406,5.799-12.753,6.71c-3.791,0.795-6.572,5.219-8.039,6.732c-1.271,1.312-4.724,6.799-5.708,8.823
				c-1.098,2.261-2.336,5.084-3.45,6.428c-0.942,1.137-3.979,5.962-6.469,6.879c-2.147,0.791-3.804,2.448-7.709,1.435
				c-3.419-0.886-6.761-1.428-10.751-3.341c-3.599-1.725-6.826-6.24-10.491-7.548c-3.22-1.148-5.816-1.945-7.688-1.845
				c-1.707,0.09-2.918-0.247-4.038,1.096c2.857,2.356,13.326,11.881,17.538,13.095c4.722,1.361,8.26,2.715,12.932,2.517
				c5.246-0.222,13.72-4.025,21.015-11.221c7.347-7.247,14.287-12.454,19.741-18.052c5.661-5.811,12.607-11.765,15.111-16.14
				c2.546-4.449,3.381-7.753,3.48-10.808C437.986,163.43,438.189,159.251,435.988,152.689"/>
			<path fill="#7BD968" stroke="#598C4E" stroke-width="0.8971" stroke-linejoin="bevel" stroke-miterlimit="10" d="
				M341.557,246.271c0.922,2.033,3.991,8.91,7.188,10.846c6.192,3.751,9.255-1.931,10.395-2.92
				c1.291-1.118,6.982-4.863,6.115-18.442c-0.836-13.11,0.955-19.547,1.286-23.192c-2.154-1.671-4.248-4.06-6.745-4.9
				c-3.21-1.08-5.825-1.993-7.676-1.828c-1.766,0.157-2.853-0.363-4.085,1.162c-0.179,0.223,0.284,0.756-0.201,0.4
				c1.074,4.794-0.186,10.935-2.069,13.162c-1.929,2.281-5.032,5.203-6.098,5.97c-0.47,0.338-0.792,2.064-0.844,2.358
				C338.177,232.516,339.032,240.699,341.557,246.271"/>
			<path fill="#7BD968" stroke="#598C4E" stroke-width="0.8971" stroke-linejoin="bevel" stroke-miterlimit="10" d="
				M393.056,212.911c-1.052,1.953-2.907,3.644-4.294,4.186c-2.161,0.844-3.822,2.496-7.723,1.449
				c-0.627-0.169-1.661-0.194-2.597-0.795c0.132,4.51,0.725,14.885,1.49,18.354c0.817,3.707,2.485,10.144,5.956,14.253
				c3.811,4.51,4.135,6.478,5.351,8.465c1.424,2.327,2.38,3.789,3.738,2.594c1.855-1.633,1.569-4.563,1.804-8.705
				c0.212-3.734,1.22-9.1,1.334-15.274c0.093-4.989,0.117-8.727-0.724-12.416c-0.639-2.81-3.754-12.021-4.116-11.991
				c0.112-0.01,0.104,0.23-0.183-0.173C393.057,213.193,393.184,213.072,393.056,212.911"/>
			<path fill="#7BD968" stroke="#598C4E" stroke-width="0.8971" stroke-linejoin="bevel" stroke-miterlimit="10" d="M436.059,151.9
				c0.233-2.509-0.411-8.357,0.484-9.154c1.121-1,2.91-0.372,2.671-1.036c2.748-0.383,5.587,0.264,6.471,2.687
				c1.078,2.953,0.221,3.212-0.216,4.667c-0.428,1.427-1.795,2.236-3.414,2.321C441.068,151.436,437.601,152.624,436.059,151.9"/>
			<path fill="#7BD968" stroke="#598C4E" stroke-width="0.8971" stroke-linejoin="bevel" stroke-miterlimit="10" d="
				M431.855,175.221c-1.406,3.215-3.531,4.489-6.698,6.313c-2.426,1.398-5.062,3.558-7.849,4.634
				c2.092,5.834,5.279,15.876,12.37,18.94c4.14,1.789,5.645,0.758,7.568,0.732c2.334-0.033,5.63,3.683,8.567,2.324
				c1.773-0.821,2.056-1.147,2.468-3.712c0.385-2.398,0.507-2.718,0.047-4.864c-0.348-1.63-1.801-8.169-3.769-11.193
				c-1.771-2.722-4.731-6.511-6.485-8.242c-1.412-1.395-5.863-4.306-6.101-4.745c0.319,0.127,0.092-0.09-0.08-0.161
				c0.196,0.08,0.218,0.09-0.015-0.004C432.087,175.319,432.137,175.365,431.855,175.221"/>
			<path fill="#94AEFF" stroke="#4464C7" stroke-width="0.8971" stroke-linejoin="bevel" stroke-miterlimit="10" d="
				M338.789,228.898c1.917-0.911,4.363,2.65,4.133,2.677c1.085-1.356,1.795-1.383,2.163-1.592c-0.673-1.815-0.861-6.784,1.084-8.123
				c1.661-1.144,3.67-2.784,6.873,2.517c2.632-1.52,3.358-6.073,4.349-6.575c1.113-0.564,2.376-0.019,2.503,0.172
				c0.43,0.649,1.976,2.598,2.032,2.72c0.588,1.293,0.728,2.427,0.337,3.047c-0.443,0.703-1.155,0.629-1.74-0.07
				c-0.411-0.492-0.607-1.774-1.467-1.89c-0.109-0.014-0.609,0.305-0.888,0.805c-0.213,0.381-2.907,5.356-3.519,5.649
				c1.362,2.478,1.645,7.456-0.845,9.608c-2.373,2.052-3.572,0.894-4.682-0.807c-0.982-1.505-1.826-1.898-1.994-2.439
				c-0.988,0.691-0.604,0.648-1.74,1.07c1.306,2.782,1.814,8.037-0.984,10.091c-2.391,1.756-5.199,0.956-7.866-5.607
				c-1.508,0.914-1.147,0.046-1.371,0.142c-0.98-3.186-1.004-3.273-1.154-3.482c0.235,0.041,2.262-1.314,2.033-1.161
				C334.551,231.646,337.983,229.281,338.789,228.898"/>
			<path fill="#FFFFFF" stroke="#4464C7" stroke-width="0.8971" stroke-linejoin="bevel" stroke-miterlimit="10" d="
				M337.418,233.917c0.947-2.326,4.408-1.846,5.111-0.8c1.142,1.699,2.969,6.128,2.223,8.324c-0.897,2.638-2.611,3.433-4.375,1.626
				C339.362,242.025,336.277,236.721,337.418,233.917"/>
			<path fill="#E0B577" stroke="#A87C3B" stroke-width="0.8971" stroke-linejoin="bevel" stroke-miterlimit="10" d="
				M339.914,237.512c-0.036-0.197,1.523-1.767,2.231-1.243c1.139,0.843,1.273,1.922,0.934,2.893
				c-0.306,0.876-0.469,2.904-1.818,2.306C340.479,241.121,340.231,239.233,339.914,237.512"/>
			<path fill="#FFFFFF" stroke="#4464C7" stroke-width="0.8971" stroke-linejoin="bevel" stroke-miterlimit="10" d="
				M349.735,235.123c-1.771-1.666-3.195-4.933-3.169-6.645c0.028-1.863,1.643-4.372,3.642-3.277
				c2.522,1.382,3.565,3.172,3.744,4.318c0.278,1.789,0.352,4.473-0.703,5.509C352.24,236.018,351.273,236.569,349.735,235.123"/>
			<path fill="#E0B577" stroke="#A87C3B" stroke-width="0.8971" stroke-linejoin="bevel" stroke-miterlimit="10" d="
				M349.024,230.534c0.24-1.48,2.407-1.225,2.42-1.201c0.502,0.927,1.139,1.162,0.559,2.142c-0.166,0.282-0.966,2.499-2.121,1.599
				C349.256,232.586,348.87,231.485,349.024,230.534"/>
			<path fill="#C79C52" stroke="#806434" stroke-width="0.8971" stroke-linejoin="bevel" stroke-miterlimit="10" d="
				M387.947,123.057c-5.522,0.476-14.235,2.318-19.252,3.72c-2.888,0.807-6.875,3.37-10.721,5.905
				c2.536,0.571,7.858,4.912,11.855,11.178c3.26-4.247,14.521-8.995,18.545-9.215C389.19,132.14,389.089,126.058,387.947,123.057"/>
			<path fill="#C79C52" stroke="#806434" stroke-width="0.8971" stroke-linejoin="bevel" stroke-miterlimit="10" d="M402.771,144.17
				c-3.339-4.451-8.655-6.701-14.429-9.436c0.876-2.662,0.749-8.722-0.414-11.599c1.505-0.163,2.682-0.114,3.354-0.054
				c5.431,0.491,16.417,2.248,20.97,4.27c4.223,1.876,8.492,4.957,10.63,6.536c-4.968,1.365-13.001,4.031-15.82,5.934
				C404.245,141.723,403.234,144.027,402.771,144.17"/>
			<path fill="#C79C52" stroke="#806434" stroke-width="0.8971" stroke-linejoin="bevel" stroke-miterlimit="10" d="
				M422.889,133.829c-4.975,1.537-13.012,3.99-15.835,6.018c-2.595,1.864-4.142,4.206-4.161,4.271
				c-0.592,1.959,0.291,16.146-0.059,16.132c2.254,4.046,4.203,4.352,6.313,6.4c2.409,2.34,5.665,6.388,7.723,11.387
				c4.544-1.98,10.022-4.216,12.629-10.766c2.903-7.297,1.369-10.135,1.246-16.593c-0.103-5.357,0.213-10.883,2.918-12.981
				c0.373,0.022,0.333-0.044,0.02,0.036c-3.027,0.192-7.305-1.905-9.594-3.058C423.934,134.597,423.74,134.141,422.889,133.829"/>
			<path fill="#C79C52" stroke="#806434" stroke-width="0.8971" stroke-linejoin="bevel" stroke-miterlimit="10" d="
				M384.804,166.509c-4.727,9.679,4.71,32.358,5.376,37.177c1.473-0.083,1.098-1.056,1.604-1.808
				c4.787-7.11,5.667-8.34,7.942-12.466c2.269-4.11,4.791-4.89,6.42-6.147c1.899-1.469,5.735-2.329,9.264-4.527
				c0.423-0.264,1.567-0.595,1.381-0.574c-1.881-5.261-5.265-9.152-7.644-11.482c-2.264-2.215-3.669-2.245-6.647-6.472
				C401.468,159.854,389.174,157.561,384.804,166.509"/>
			<path fill="#C79C52" stroke="#806434" stroke-width="0.8971" stroke-linejoin="bevel" stroke-miterlimit="10" d="
				M388.276,135.042c-3.768-1-15.293,5.157-18.382,8.717c-1.47,1.695-1.085,6.276-0.95,9.046c2.724,1.127,7.734,4.696,9.672,6.301
				c2.189,1.813,5.013,6.298,5.407,7.113c6.951-7.911,16.108-6.937,18.77-5.878c0.374-0.254-0.396-14.091,0.026-16.303
				C399.258,140.343,394.321,136.645,388.276,135.042"/>
			<path fill="#C79C52" stroke="#806434" stroke-width="0.8971" stroke-linejoin="bevel" stroke-miterlimit="10" d="M368.951,152.94
				c-4.845,4.399-10.253,17.635-11.499,22.167c-1.166,4.244,2.045,21.36,3.555,26.183c2.274,1.157,4.175,2.475,5.971,3.699
				c8.742,5.957,13.216,6.407,15.92,5.648c2.767-0.778,4.415-1.116,7.635-6.792c-2.371-5.592-8.704-26.86-6.503-37.674
				c-0.436-0.679-3.183-5.308-5.424-7.068C376.693,157.602,371.657,153.745,368.951,152.94"/>
			<path fill="#C79C52" stroke="#806434" stroke-width="0.8971" stroke-linejoin="bevel" stroke-miterlimit="10" d="
				M368.969,152.941c-4.964,4.412-10.124,17.598-11.592,22.201c-5.498-5.517-15.765-9.501-18.544-9.063
				c0.379-0.67,0.229-1.96,0.454-2.957c1.585-7.029,6.147-17.39,10.188-22.474c1.981-2.491,5.375-5.269,8.479-7.959
				c2.58,0.533,7.859,4.95,11.886,11.112C368.838,145.77,368.497,149.669,368.969,152.941"/>
			<path fill="#C79C52" stroke="#806434" stroke-width="0.8971" stroke-linejoin="bevel" stroke-miterlimit="10" d="
				M361.021,201.306c-6.393-3.488-12.847-5.755-15.6-5.394c-1.947,0.255-3.265,1.389-4.452,3.407
				c1.156-3.968-0.423-5.454-1.143-13.983c-0.624-7.389-1.38-13.037-1.007-19.219c2.807-0.514,13.054,3.518,18.554,9.039
				C356.445,179.313,359.393,196.469,361.021,201.306"/>
			<path fill="#FFC163" stroke="#B38645" stroke-width="0.8971" stroke-linejoin="bevel" stroke-miterlimit="10" d="
				M340.096,204.781c0.193-5.424,2.043-8.479,5.309-8.887c3.626-0.453,13.246,3.43,21.567,9.1c8.749,5.963,13.227,6.396,15.916,5.66
				c3.18-0.871,4.541-1.333,9.008-8.711c4.436-7.327,5.639-8.329,7.864-12.524c2.176-4.102,4.771-4.941,6.4-6.134
				c1.915-1.402,5.656-2.545,9.261-4.475c4.013-2.148,11.227-4.086,14.096-11.516c2.859-7.405,1.309-10.085,1.244-16.633
				c-0.059-6.125,0.158-12.537,4.499-13.589c5.175-1.254,4.113,4.373,4.07,4.57c-0.198,0.898-1.489-0.1-2.812,1.154
				c-0.817,0.775-0.306,7.981-0.39,9.896c-0.11,2.485,0.245,12.163-2.178,18.394c-2.43,6.253-4.356,7.919-8.781,10.475
				c-4.119,2.379-8.401,5.797-12.75,6.705c-3.804,0.794-6.563,5.212-8.039,6.73c-1.271,1.308-4.728,6.802-5.708,8.821
				c-1.097,2.262-2.335,5.082-3.45,6.429c-0.94,1.135-3.983,5.961-6.469,6.878c-2.15,0.793-3.799,2.443-7.713,1.44
				c-3.422-0.876-6.752-1.444-10.747-3.347c-3.606-1.718-6.815-6.25-10.498-7.537c-3.209-1.122-5.802-2.024-7.693-1.835
				c-1.554,0.156-3.115-0.453-3.95,1.186c-0.964,1.892-1.043,4.089-3.629,3.896C342.624,210.785,340.008,207.27,340.096,204.781"/>
			
				<path fill="#7BD968" stroke="#598C4E" stroke-width="0.8971" stroke-linecap="round" stroke-linejoin="bevel" stroke-miterlimit="10" d="
				M348.484,252.191c1.054,0.269,2.963,2,4.644,0.697c1.537-1.192,3.473-3.143,2.648-5.122"/>
		</g>
	</g>
</g>
</svg>
