<svg version="1.1" id="Layer_1" xmlns="http://www.w3.org/2000/svg" xmlns:xlink="http://www.w3.org/1999/xlink" x="0px" y="0px" width="691.389px" height="776.604px" viewBox="0 0 691.389 776.604" enable-background="new 0 0 691.389 776.604" xml:space="preserve"><defs><rect width="10" height="10" class="svg---mgr"></rect></defs><path d="M343.91900634765625 114.90599822998047 C 384.2829895019531 114.90599822998047 636.27099609375 423.8900146484375 636.27099609375 564.8839721679688 C 636.27099609375 705.8779907226562 647.9000244140625 750.875 363.1000061035156 750.875 C 78.30000305175781 750.875 55.79999923706055 731.3759765625 55.79999923706055 575.3839721679688 C 55.79999923706055 419.3919982910156 287.0559997558594 114.90599822998047 343.91900634765625 114.90599822998047" style="opacity: 0;"></path><rect x="383" y="533" width="10" height="10" rx="2" ry="2" class="handle-original" fill="#da55da" stroke="#000000" style="stroke-width: 2px; opacity: 0.5;"></rect><rect x="348" y="338" width="10" height="10" rx="2" ry="2" class="handle-original" fill="#da55da" stroke="#000000" style="stroke-width: 2px; opacity: 0.5;"></rect><rect x="341" y="133" width="10" height="10" rx="2" ry="2" class="handle-original" fill="#da55da" stroke="#000000" style="stroke-width: 2px; opacity: 0.5;"></rect><rect x="383" y="533" width="10" height="10" rx="2" ry="2" class="handle" fill="#da55da" stroke="#000000" style="stroke-width: 2px;"></rect><rect x="348" y="338" width="10" height="10" rx="2" ry="2" class="handle" fill="#da55da" stroke="#000000" transform="matrix(0.9789,0.0513,-0.0513,0.9789,50.0599,-17.8566)" style="stroke-width: 2px;"></rect><rect x="341" y="133" width="10" height="10" rx="2" ry="2" class="handle" fill="#da55da" stroke="#000000" transform="matrix(1.1449,0.3501,-0.3501,1.1449,102.1685,-130.1099)" style="stroke-width: 2px;"></rect></svg>