<svg version="1.1" id="Layer_1" xmlns="http://www.w3.org/2000/svg" xmlns:xlink="http://www.w3.org/1999/xlink" x="0px" y="0px" width="360px" height="360px" viewBox="0 0 360 360" enable-background="new 0 0 360 360" xml:space="preserve"><defs><rect width="10" height="10" class="svg---mgr"></rect></defs><path d="M180 15 C 199.7449951171875 19.465999603271484 245 28.09000015258789 245 63.29499816894531 C 245 98.5 202.5 100.5 199 100.5 C 195.5 100.5 191.82000732421875 113.83000183105469 196.16000366210938 113.83000183105469 C 200.5 113.83000183105469 232 126 243.5 169.5 C 255 213 255 246 240.5 249.5 C 226 253 212.11300659179688 222.74000549316406 214.8070068359375 213.3699951171875 C 217.50100708007812 204 208.23599243164062 162.0019989013672 201.5 157.5 C 194.76400756835938 152.9980010986328 198 160.1199951171875 199 161.55999755859375 C 200 163 203.5 226.5 211 248.5 C 218.5 270.5 222 324.5 218.5 330.5 C 215 336.5 202 347 198.5 345.5 C 195 344 189.82000732421875 329.4630126953125 190.16000366210938 324.4809875488281 C 190.5 319.4989929199219 186.91299438476562 277 174.45700073242188 255 C 162.00100708007812 233 164.5 262 164.5 271.5 C 164.5 281 167.3300018310547 307.5 167.1649932861328 313.5 C 167 319.5 120.5 329.5 119 325.5 C 117.5 321.5 121.45999908447266 309 128.97999572753906 303.5 C 136.5 298 138 270 137.5 259.5 C 137 249 105.5 243.97999572753906 107 230.49000549316406 C 108.5 217 112.5 160.0189971923828 120.5 144.75999450683594 C 128.5 129.50100708007812 147.16000366210938 112.5 151.8300018310547 111.5 C 156.5 110.5 155 98.01799774169922 147.5 96.00900268554688 C 140 94 81.65499877929688 18.5 121.8280029296875 13 C 162.00100708007812 7.5 171.01800537109375 12.968999862670898 180 15" style="opacity: 0;"></path><rect x="231" y="221" width="10" height="10" rx="2" ry="2" class="handle-original" fill="#da55da" stroke="#000000" style="stroke-width: 2px; opacity: 0.5;"></rect><rect x="201" y="313" width="10" height="10" rx="2" ry="2" class="handle-original" fill="#da55da" stroke="#000000" style="stroke-width: 2px; opacity: 0.5;"></rect><rect x="142" y="301" width="10" height="10" rx="2" ry="2" class="handle-original" fill="#da55da" stroke="#000000" style="stroke-width: 2px; opacity: 0.5;"></rect><rect x="165" y="187" width="10" height="10" rx="2" ry="2" class="handle-original" fill="#da55da" stroke="#000000" style="stroke-width: 2px; opacity: 0.5;"></rect><rect x="171" y="56" width="10" height="10" rx="2" ry="2" class="handle-original" fill="#da55da" stroke="#000000" style="stroke-width: 2px; opacity: 0.5;"></rect><rect x="231" y="221" width="10" height="10" rx="2" ry="2" class="handle" fill="#da55da" stroke="#000000" transform="matrix(0.5,-0.866,0.866,0.5,-21.7222,255.3793)" style="stroke-width: 2px;"></rect><rect x="201" y="313" width="10" height="10" rx="2" ry="2" class="handle" fill="#da55da" stroke="#000000" transform="matrix(0.4848,-0.8746,0.8746,0.4848,-135.9998,300.0022)" style="stroke-width: 2px;"></rect><rect x="142" y="301" width="10" height="10" rx="2" ry="2" class="handle" fill="#da55da" stroke="#000000" transform="matrix(0.8192,-0.5736,0.5736,0.8192,-130.9299,120.654)" style="stroke-width: 2px;"></rect><rect x="165" y="187" width="10" height="10" rx="2" ry="2" class="handle" fill="#da55da" stroke="#000000" transform="matrix(1,0,0,1,0,0)" style="stroke-width: 2px;"></rect><rect x="171" y="56" width="10" height="10" rx="2" ry="2" class="handle" fill="#da55da" stroke="#000000" transform="matrix(1.2987,0.2525,-0.2525,1.2987,-36.187,-58.6639)" style="stroke-width: 2px;"></rect></svg>