<svg version="1.1" id="Layer_1" xmlns="http://www.w3.org/2000/svg" xmlns:xlink="http://www.w3.org/1999/xlink" x="0px" y="0px" width="400px" height="300px" viewBox="0 0 400 300" enable-background="new 0 0 400 300" xml:space="preserve"><defs></defs><path d="M46.95399856567383 114.95899963378906 C 35.944000244140625 177.95700073242188 96.1259994506836 266.40399169921875 198.39999389648438 266.40399169921875 C 300.67401123046875 266.40399169921875 342.614990234375 182.7259979248047 342.614990234375 122.19000244140625 C 342.614990234375 61.65399932861328 366.375 19.503999710083008 241.58200073242188 21.156999588012695 C 116.78900146484375 22.809999465942383 61.83000183105469 29.834999084472656 46.95399856567383 114.95899963378906" style="opacity: 0;"></path><rect x="96" y="134" width="10" height="10" rx="2" ry="2" class="handle-original" fill="#da55da" stroke="#000000" style="stroke-width: 2px; opacity: 0.5;"></rect><rect x="280" y="129" width="10" height="10" rx="2" ry="2" class="handle-original" fill="#da55da" stroke="#000000" style="stroke-width: 2px; opacity: 0.5;"></rect><rect x="96" y="134" width="10" height="10" rx="2" ry="2" class="handle" fill="#da55da" stroke="#000000" transform="matrix(1,0,0,1,4,1)" style="stroke-width: 2px;"></rect><rect x="280" y="129" width="10" height="10" rx="2" ry="2" class="handle" fill="#da55da" stroke="#000000" transform="matrix(0.2419,0.9703,-0.9703,0.2419,315.0777,-166.947)" style="stroke-width: 2px;"></rect></svg>