<!--?xml version="1.0" encoding="utf-8"?-->
<!-- Generator: Adobe Illustrator 15.0.2, SVG Export Plug-In . SVG Version: 6.00 Build 0)  -->

<svg version="1.1" id="Layer_1" xmlns="http://www.w3.org/2000/svg" xmlns:xlink="http://www.w3.org/1999/xlink" x="0px" y="0px" width="691.389px" height="776.604px" viewBox="0 0 691.389 776.604" enable-background="new 0 0 691.389 776.604" xml:space="preserve">
<g>
	<path fill="#FFE563" stroke="#E8D46D" stroke-width="3.1718" stroke-linejoin="bevel" stroke-miterlimit="10" d="M 536.299 567.184 C 534.427 572.535 530.112 597.432 518.214 609.814 C 506.318 622.195 498.308 623.964 481.433 623.798 C 464.557 623.631 442.16 622.135 424.736 615.056 C 407.315 607.978 391.964 612.476 384.736 612.808 C 377.51 613.139 358.255 617.927 351.597 620.447 C 344.94 622.967 336.133 627.1 331.223 628.071 C 326.313 629.042 309.272 635.707 300.822 635.339 C 292.373 634.97 284.161 636.838 273.365 630.439 C 262.567 624.039 251.562 617.313 241.403 605.729 C 231.245 594.144 227.101 577.483 218.248 566.385 C 209.394 555.287 203.168 547.232 197.706 542.794 C 192.244 538.356 189.767 533.625 184.372 534.14 C 186.1 546.486 203.923 590.872 217.115 603.902 C 230.31 616.935 240.252 626.768 258.062 634.722 C 275.869 642.676 309.31 639.815 343.701 636.004 C 378.093 632.193 413.461 639.761 444.46 639.723 C 475.458 639.685 503.294 632.623 514.571 625.186 C 525.847 617.75 530.507 609.563 533.105 602.72 C 535.704 595.878 538.264 584.471 536.299 567.184"></path>
	<path fill="#7BD968" stroke="#598C4E" stroke-width="3.1718" stroke-linejoin="bevel" stroke-miterlimit="10" d="M 105.7 571.869 C 105.069 577.085 102.413 592.571 109.334 604.813 C 120.778 625.053 139.784 628.468 144.625 630.406 C 149.465 632.344 174.22 644.137 192.158 625.384 C 210.097 606.628 223.907 597.592 232.606 592.405 C 227.796 583.199 224.052 573.693 218.249 566.408 C 209.379 555.276 203.189 547.221 197.698 542.818 C 192.208 538.416 189.876 533.437 184.275 534.333 C 183.83 534.404 183.397 534.501 182.965 534.527 C 177.013 545.254 164.987 552.538 156.343 550.241 C 147.698 547.944 134.798 543.065 131.315 541.361 C 128.696 540.079 126.175 541.966 125.19 542.306 C 117.542 544.943 107.341 558.312 105.7 571.869"></path>
	<path fill="#7BD968" stroke="#598C4E" stroke-width="3.1718" stroke-linejoin="bevel" stroke-miterlimit="10" d="M 320.41 631.248 C 313.707 633.221 305.813 635.656 300.831 635.375 C 292.358 634.896 284.162 636.847 273.371 630.459 C 270.704 628.88 268.027 627.34 265.322 625.445 C 257.357 635.016 244.752 651.63 241.712 657.839 C 238.672 664.05 234.349 674.995 240.25 686.419 C 246.151 697.843 244.056 701.248 245.803 706.059 C 247.551 710.87 247.197 714.832 255.299 715.302 C 263.402 715.771 268.622 711.123 274.914 705.591 C 281.206 700.06 292.561 693.182 302.112 682.881 C 309.859 674.526 314.982 666.843 317.758 659.839 C 320.536 652.829 320.506 632.113 320.366 631.814 C 320.43 631.951 320.386 631.187 320.418 631.255 C 320.402 631.221 320.416 631.252 320.408 631.234 C 320.412 631.249 320.407 631.223 320.41 631.248"></path>
	<path fill="#7BD968" stroke="#598C4E" stroke-width="3.1718" stroke-linejoin="bevel" stroke-miterlimit="10" d="M 536.885 565.149 C 538.658 558.203 539.937 544.248 542.794 543.823 C 545.975 543.35 549.587 546.795 550.41 545.591 C 556.895 548.222 564.374 553.827 565.454 561.273 C 566.534 568.721 564.714 568.827 562.997 571.408 C 561.28 573.988 556.948 573.595 553.585 572.066 C 550.226 570.539 540.785 568.208 536.885 565.149"></path>
	<path fill="#7BD968" stroke="#598C4E" stroke-width="3.1718" stroke-linejoin="bevel" stroke-miterlimit="10" d="M 509.069 617.781 C 501.113 622.943 493.823 624.048 481.427 623.766 C 470.959 623.528 458.786 623.276 446.626 621.014 C 446.142 637.723 444.314 664.28 464.784 681.083 C 475.626 689.982 482.119 690.039 488.527 692.759 C 494.936 695.479 499.911 706.932 510.715 707.977 C 516.104 708.498 518.471 707.622 522.737 703.139 C 527.005 698.654 527.88 697.344 529.129 692.993 C 530.38 688.636 533.943 672.478 532.108 663.826 C 530.273 655.17 525.957 642.609 522.938 637.12 C 519.92 631.632 509.445 618.705 509.027 618.436 C 509.225 618.563 508.975 617.714 509.074 617.777 C 509.025 617.746 509.07 617.781 509.046 617.765 C 509.07 617.781 509.023 617.749 509.069 617.781"></path>
	<path fill="#94AEFF" stroke="#4464C7" stroke-width="3.1718" stroke-linejoin="bevel" stroke-miterlimit="10" d="M 125.172 542.268 C 129.931 546.144 131.513 557.894 131.555 557.844 C 135.885 558.407 138.07 560.415 139.536 562.093 C 141.399 555.92 147.395 550.254 154.543 553.385 C 161.69 556.516 168.243 558.842 170.659 577.106 C 180.548 580.84 190.3 576.716 194.048 578.499 C 197.796 580.282 200.805 584.25 201.164 585.924 C 201.523 587.601 203.371 594.143 203.353 596.053 C 203.336 597.964 202.524 601.089 200.586 601.055 C 198.649 601.02 196.377 598.338 195.833 596.241 C 195.288 594.142 195.54 590.97 194.217 589.646 C 192.897 588.325 190.84 588.11 189.477 588.325 C 188.114 588.539 171.927 587.365 169.931 587.141 C 169.006 593.427 163.375 601.542 153.047 597.077 C 142.718 592.612 141.276 587.406 140.62 582.628 C 139.964 577.848 139.346 573.818 139.328 573.831 C 134.626 571.825 135.519 572.066 132.412 570.428 C 130.077 576.991 124.812 585.028 114.667 579.654 C 104.521 574.28 100.05 565.074 102.683 550.242 C 97.8175 546.429 99.6884 546.432 99.6833 546.428 C 101.484 538.929 101.5 538.872 101.497 538.889 C 101.488 538.892 107.954 543.193 107.986 543.199 C 110.506 533.03 122.05 539.725 125.172 542.268"></path>
	<path fill="#FFFFFF" stroke="#4464C7" stroke-width="3.1718" stroke-linejoin="bevel" stroke-miterlimit="10" d="M 114.084 544.814 C 119.973 544.692 126.786 554.22 127.528 558.866 C 128.27 563.521 126.362 575.001 121.401 575.515 C 116.438 576.03 108.737 570.889 107.618 565.196 C 106.502 559.513 107.373 544.953 114.084 544.814"></path>
	<path fill="#E0B577" stroke="#A87C3B" stroke-width="3.1718" stroke-linejoin="bevel" stroke-miterlimit="10" d="M 113.696 557.056 C 115.282 555.432 120.669 558.352 121.979 561.713 C 123.289 565.074 122.04 567.766 120.453 567.904 C 118.866 568.041 114.06 569.24 112.972 565.595 C 111.887 561.96 111.617 559.186 113.696 557.056"></path>
	<path fill="#FFFFFF" stroke="#4464C7" stroke-width="3.1718" stroke-linejoin="bevel" stroke-miterlimit="10" d="M 145.272 582.374 C 142.995 573.374 143.59 566.377 146.323 563.853 C 149.053 561.33 156.322 561.755 160.918 570.158 C 165.519 578.572 166.689 584.18 165.248 586.808 C 163.808 589.434 159.446 593.618 155.53 591.943 C 151.612 590.268 146.505 587.246 145.272 582.374"></path>
	<path fill="#E0B577" stroke="#A87C3B" stroke-width="3.1718" stroke-linejoin="bevel" stroke-miterlimit="10" d="M 150.138 573.648 C 151.888 572.893 157.915 577.995 158.406 579.547 C 158.896 581.097 158.019 584.194 157.116 583.829 C 156.214 583.465 150.344 583.717 149.085 579.959 C 147.823 576.195 147.558 574.76 150.138 573.648"></path>
	<path fill="#C79C52" stroke="#806434" stroke-width="3.1718" stroke-linejoin="bevel" stroke-miterlimit="10" d="M 419.874 426.259 C 404.127 418.098 378.961 407.33 364.919 400.834 C 355.998 396.706 343.026 393.998 330.159 392.142 C 333.612 399.425 341.506 421.208 345.47 446.238 C 360.718 442.112 398.444 448.741 410.14 454.237 C 414.988 448.257 419.5 434.076 419.874 426.259"></path>
	<path fill="#C79C52" stroke="#806434" stroke-width="3.1718" stroke-linejoin="bevel" stroke-miterlimit="10" d="M 443.063 497.769 C 436.987 481.653 424.215 468.834 410.208 454.311 C 414.897 448.184 419.539 434.068 419.879 426.298 C 423.398 428.167 426.479 429.885 428.92 431.579 C 442.338 440.898 471.448 461.049 483.49 472.904 C 493.582 482.839 503.788 496.065 509.737 503.389 C 493.851 498.402 468.959 492.901 459.271 493.323 C 449.581 493.746 443.079 497.735 443.063 497.769"></path>
	<path fill="#C79C52" stroke="#806434" stroke-width="3.1718" stroke-linejoin="bevel" stroke-miterlimit="10" d="M 509.732 503.399 C 493.848 498.395 468.971 492.908 459.264 493.326 C 449.553 493.744 443.166 497.745 442.982 497.762 C 440.019 501.84 426.879 537 426.367 536.833 C 427.183 549.007 433.446 552.092 438.518 560.701 C 443.589 569.308 450.257 584.99 454.495 601.144 C 472.274 604.766 495.305 607.209 507.712 594.21 C 521.889 579.356 518.926 569.927 522.488 554.377 C 525.588 540.843 528.157 528.201 537.511 528.283 C 537.454 528.292 537.515 528.299 537.479 528.289 C 529.363 523.498 517.768 512.571 512.716 506.918 C 511.896 506.001 510.927 504.807 509.732 503.399"></path>
	<path fill="#C79C52" stroke="#806434" stroke-width="3.1718" stroke-linejoin="bevel" stroke-miterlimit="10" d="M 361.478 528.981 C 337.499 550.263 322.092 591.426 324.747 609.897 C 326.512 608.289 328.932 607.79 331.459 607.037 C 357.093 599.396 362.955 599.877 376.612 594.927 C 390.269 589.977 398.914 592.057 407.092 592.209 C 415.269 592.361 430.478 597.185 447.677 600.06 C 449.824 600.419 451.966 600.655 454.565 601.22 C 450.192 584.924 443.594 569.304 438.532 560.719 C 433.471 552.135 427.059 548.832 426.487 536.999 C 419.002 528.997 395.087 520.387 361.478 528.981"></path>
	<path fill="#C79C52" stroke="#806434" stroke-width="3.1718" stroke-linejoin="bevel" stroke-miterlimit="10" d="M 410.147 454.222 C 398.464 448.833 360.659 441.96 345.5 446.321 C 340.26 447.828 332.802 458.512 330.541 467.375 C 335.627 475.899 348.221 494.649 352.436 502.956 C 356.65 511.264 360.408 525.859 361.455 528.983 C 395.082 520.36 419.06 529.045 426.432 536.962 C 426.801 536.829 440.021 501.933 443.013 497.76 C 437.01 481.607 424.26 468.948 410.147 454.222"></path>
	<path fill="#C79C52" stroke="#806434" stroke-width="3.1718" stroke-linejoin="bevel" stroke-miterlimit="10" d="M 330.564 467.443 C 308.65 466.955 272.444 482.817 261.77 489.75 C 251.095 496.683 233.423 540.977 230.995 556.574 C 235.583 563.409 240.055 570.641 244.577 577.784 C 264.295 608.934 279.332 614.407 289.902 615.961 C 299.431 617.363 305.094 616 324.683 609.767 C 322.184 591.562 337.441 550.255 361.49 528.923 C 360.369 525.943 356.655 511.218 352.442 502.956 C 348.228 494.692 335.606 475.806 330.564 467.443"></path>
	<path fill="#C79C52" stroke="#806434" stroke-width="3.1718" stroke-linejoin="bevel" stroke-miterlimit="10" d="M 330.54 467.428 C 308.73 467.092 272.336 482.617 261.833 489.828 C 253.786 464.47 236.736 429.115 230.065 424.304 C 231.927 422.33 234.137 420.346 236.443 418.486 C 252.358 405.65 280.385 393.037 297.925 390.906 C 306.348 389.883 318.207 390.525 330.15 392.146 C 333.666 399.483 341.413 421.088 345.534 446.331 C 340.361 448.058 332.716 458.29 330.54 467.428"></path>
	<path fill="#C79C52" stroke="#806434" stroke-width="3.1718" stroke-linejoin="bevel" stroke-miterlimit="10" d="M 231 556.523 C 215.6 533.113 201.838 512.185 194.489 505.796 C 188.852 500.895 183.416 498.962 177.979 500.453 C 187.096 494.702 185.375 489.166 198.503 469.022 C 209.728 451.799 217.806 436.39 230.025 424.326 C 236.796 429.079 253.745 464.482 261.843 489.83 C 250.99 496.438 233.472 541.174 231 556.523"></path>
	<path fill="#FFC163" stroke="#B38645" stroke-width="3.1718" stroke-linejoin="bevel" stroke-miterlimit="10" d="M 166.6 508.119 C 175.969 497.929 185.061 497.429 194.466 505.795 C 203.871 514.162 224.81 546.705 244.58 577.81 C 264.351 608.918 279.269 614.352 289.913 615.99 C 300.556 617.628 306.184 615.543 331.545 607.246 C 356.908 598.949 363.031 600.069 376.63 594.969 C 390.229 589.868 398.903 592.069 407.108 592.24 C 415.313 592.411 430.379 597.042 447.68 600.082 C 464.982 603.122 493.737 609.305 507.745 594.259 C 521.756 579.209 519.022 570.012 522.489 554.397 C 525.957 538.779 529.095 524.511 542.037 529.205 C 554.976 533.899 551.191 544.364 550.415 545.583 C 549.638 546.803 545.928 543.386 542.798 543.815 C 539.668 544.244 538.276 561.68 536.329 567.146 C 534.382 572.609 530.135 597.404 518.221 609.812 C 506.309 622.217 498.316 623.96 481.437 623.8 C 464.557 623.64 442.165 622.137 424.74 615.06 C 407.317 607.984 391.968 612.478 384.741 612.812 C 377.512 613.146 358.258 617.931 351.6 620.451 C 344.946 622.97 336.136 627.103 331.226 628.075 C 326.315 629.046 309.275 635.713 300.825 635.344 C 292.375 634.974 284.164 636.843 273.367 630.445 C 262.569 624.046 251.566 617.318 241.406 605.735 C 231.247 594.154 227.107 577.482 218.249 566.396 C 209.389 555.307 203.187 547.208 197.701 542.814 C 192.215 538.42 189.871 533.448 184.282 534.321 C 178.693 535.193 174.079 538.224 168.706 531.293 C 163.329 524.358 163.141 511.882 166.6 508.119"></path>
	
		<path fill="#7BD968" stroke="#598C4E" stroke-width="3.1718" stroke-linecap="round" stroke-linejoin="bevel" stroke-miterlimit="10" d="M 116.233 598.747 C 117.165 600.889 121.188 609.075 128.035 612.269 C 134.883 615.463 142.496 617.721 144.362 614.354"></path>
</g>
<g>
	<g>
		<path fill="#FFE563" stroke="#E8D46D" stroke-width="2.0004" stroke-linejoin="bevel" stroke-miterlimit="10" d="M 443.636 398.413 C 441.955 400.221 438.493 411.295 431.309 415.948 C 424.144 420.589 419.252 420.345 409.842 417.938 C 400.429 415.53 389.783 414.151 381.354 409.324 C 372.91 404.489 364.981 406.663 361.208 406.569 C 357.446 406.474 347.089 408.676 343.393 410.13 C 339.7 411.584 334.668 413.699 331.835 413.696 C 329.023 413.694 318.801 415.157 313.953 411.999 C 309.134 408.86 304.297 407.714 299.215 399.282 C 294.116 390.821 289.547 383.687 286.262 373.881 C 282.986 364.101 283.933 352.184 281.689 344.3 C 279.448 336.428 277.952 331.01 276.068 328.095 C 274.188 325.186 273.868 321.885 270.965 322.637 C 268.848 329.755 269.567 361.25 274.208 371.593 C 278.864 381.967 282.615 390.758 290.736 400.02 C 298.89 409.321 318.672 421.206 339.199 423.014 C 359.763 424.825 377.225 427.008 391.789 426.405 C 406.351 425.803 422.739 426.457 429.648 424.128 C 436.568 421.795 439.277 418.25 440.928 415.147 C 442.582 412.038 444.032 406.577 443.636 398.413"></path>
		<path fill="#7BD968" stroke="#598C4E" stroke-width="2.0004" stroke-linejoin="bevel" stroke-miterlimit="10" d="M 216.071 361.065 C 214.598 365.518 209.831 379.119 212.02 388.715 C 215.641 404.587 226.633 403.96 229.214 404.881 C 231.826 405.813 244.507 411.816 257.361 392.1 C 270.194 372.418 278.989 366.804 284.043 363.219 C 283.273 356.304 283.159 349.462 281.689 344.312 C 279.435 336.414 277.979 331.035 276.057 328.1 C 274.141 325.175 274.031 321.931 270.823 322.613 C 270.569 322.667 270.321 322.782 270.068 322.806 C 264.572 329.851 256.237 336.202 251.699 335.528 C 247.176 334.856 240.443 333.171 238.651 332.44 C 237.313 331.894 235.319 333.753 234.646 334.144 C 229.306 337.253 219.896 349.499 216.071 361.065"></path>
		<path fill="#7BD968" stroke="#598C4E" stroke-width="2.0004" stroke-linejoin="bevel" stroke-miterlimit="10" d="M 325.498 414.044 C 321.535 414.12 316.783 413.863 313.953 412.015 C 309.148 408.876 304.325 407.724 299.216 399.298 C 297.942 397.196 296.773 395.175 295.566 393.199 C 290.435 399.201 282.146 415.403 280.087 422.056 C 278.03 428.704 274.822 440.701 278.237 454.121 C 281.648 467.524 280.715 471.106 281.927 476.598 C 283.138 482.079 283.189 486.281 288.234 487.494 C 293.277 488.706 296.312 484.444 299.869 479.413 C 303.444 474.357 310.205 468.986 315.623 460.267 C 320.02 453.191 322.885 446.711 324.29 440.374 C 325.69 434.055 325.326 414.53 325.504 414.575 C 325.425 414.558 325.531 414.043 325.498 414.044"></path>
		<path fill="#7BD968" stroke="#598C4E" stroke-width="2.0004" stroke-linejoin="bevel" stroke-miterlimit="10" d="M 444.107 397.603 C 445.567 394.787 447.657 389.308 449.576 389.69 C 451.749 390.124 453.854 392.216 454.535 391.896 C 458.679 394.226 463.502 397.98 463.953 401.54 C 464.406 405.123 463.109 404.829 461.798 405.683 C 460.471 406.546 457.457 405.51 455.131 404.114 C 452.824 402.729 446.445 399.734 444.107 397.603"></path>
		<path fill="#7BD968" stroke="#598C4E" stroke-width="2.0004" stroke-linejoin="bevel" stroke-miterlimit="10" d="M 425.798 418.714 C 421.122 420.347 416.703 419.656 409.839 417.942 C 404.064 416.5 397.833 415.327 391.985 413.665 C 391.98 423.886 393.474 444.676 407.957 459.402 C 415.608 467.181 419.489 467.435 423.919 470.188 C 428.359 472.947 434.116 482.918 441.449 484.713 C 445.105 485.608 446.521 485.147 448.321 481.97 C 450.132 478.773 450.524 478.001 450.324 474.63 C 450.126 471.287 449.18 459.555 446.333 453.04 C 443.477 446.5 438.79 437.211 436.181 433.125 C 433.574 429.042 425.85 419.129 425.9 419.125 C 425.877 419.121 425.806 418.732 425.798 418.714"></path>
		<path fill="#94AEFF" stroke="#4464C7" stroke-width="2.0004" stroke-linejoin="bevel" stroke-miterlimit="10" d="M 234.65 334.12 C 236.755 336.171 235.157 344.827 235.2 344.837 C 237.745 344.509 238.628 345.745 239.185 346.759 C 241.639 341.685 246.478 336.603 249.972 338.079 C 253.493 339.566 256.669 340.342 254.239 354.025 C 259.117 355.663 265.202 351.905 266.843 353.052 C 268.488 354.201 269.332 357.011 269.194 358.24 C 269.051 359.519 268.817 364.454 268.468 365.952 C 268.103 367.52 267.112 370.023 266.083 370.132 C 265.053 370.242 264.33 368.249 264.419 366.618 C 264.51 364.951 265.235 362.486 264.768 361.507 C 264.32 360.57 263.224 360.598 262.46 360.823 C 261.713 361.044 252.968 361.798 251.822 362.033 C 250.055 367.109 245.343 374.85 240.099 372.874 C 234.856 370.898 234.974 366.825 235.556 362.97 C 236.137 359.119 236.582 356.036 236.579 356.032 C 234.136 355.28 234.629 355.306 233.107 354.534 C 230.272 360.214 225.464 368.03 220.187 365.662 C 214.902 363.29 213.819 356.523 218.67 344.305 C 216.339 342.391 217.566 341.985 217.563 341.984 C 220.338 335.841 220.37 335.85 220.361 335.848 C 220.356 335.847 223.589 337.909 223.584 337.905 C 227.445 329.713 233.277 332.782 234.65 334.12"></path>
		<path fill="#FFFFFF" stroke="#4464C7" stroke-width="2.0004" stroke-linejoin="bevel" stroke-miterlimit="10" d="M 227.107 337.944 C 230.895 336.799 233.041 342.846 232.51 346.323 C 231.988 349.749 228.413 359.361 225.196 360.818 C 222.039 362.247 218.208 359.624 218.665 355.216 C 219.122 350.801 222.806 339.243 227.107 337.944"></path>
		<path fill="#E0B577" stroke="#A87C3B" stroke-width="2.0004" stroke-linejoin="bevel" stroke-miterlimit="10" d="M 224.227 347.523 C 225.61 345.905 228.342 347.175 228.447 349.578 C 228.553 352.001 227.226 354.36 226.193 354.797 C 225.186 355.223 221.919 357.168 221.987 354.453 C 222.057 351.715 222.458 349.593 224.227 347.523"></path>
		<path fill="#FFFFFF" stroke="#4464C7" stroke-width="2.0004" stroke-linejoin="bevel" stroke-miterlimit="10" d="M 238.379 361.921 C 238.834 354.953 240.694 349.396 242.873 347.049 C 245.049 344.705 249.214 343.968 250.11 349.84 C 251 355.673 250.558 360.066 249.202 362.366 C 247.84 364.678 244.526 368.829 242.547 368.106 C 240.577 367.386 238.132 365.697 238.379 361.921"></path>
		<path fill="#E0B577" stroke="#A87C3B" stroke-width="2.0004" stroke-linejoin="bevel" stroke-miterlimit="10" d="M 243.096 354.102 C 244.268 353.264 246.761 356.341 246.723 357.525 C 246.687 358.682 245.577 361.338 245.093 361.165 C 244.633 361 241.145 362.159 241.16 359.31 C 241.174 356.472 241.337 355.36 243.096 354.102"></path>
		<path fill="#C79C52" stroke="#806434" stroke-width="2.0004" stroke-linejoin="bevel" stroke-miterlimit="10" d="M 407.463 330.743 C 401.939 325.682 391.851 315.591 386.232 308.366 C 382.673 303.79 376.689 297.332 371.124 290.3 C 371.267 294.052 369.763 301.861 365.426 308.754 C 372.874 313.687 388.719 328.432 393.186 332.551 C 397.192 332.992 404.294 331.895 407.463 330.743"></path>
		<path fill="#C79C52" stroke="#806434" stroke-width="2.0004" stroke-linejoin="bevel" stroke-miterlimit="10" d="M 399.086 352.708 C 399.075 346.177 395.878 339.695 393.176 332.634 C 397.232 332.915 404.257 331.866 407.484 330.803 C 408.604 332.003 409.81 333.086 410.462 333.958 C 414.1 338.823 423.195 349.132 426.809 354.628 C 429.826 359.215 432.538 365.075 434.847 368.639 C 426.224 364.087 413.853 357.406 408.56 355.254 C 403.311 353.121 399.089 352.737 399.086 352.708"></path>
		<path fill="#C79C52" stroke="#806434" stroke-width="2.0004" stroke-linejoin="bevel" stroke-miterlimit="10" d="M 434.816 368.614 C 426.247 364.118 413.832 357.374 408.553 355.257 C 403.329 353.161 399.035 352.611 399.113 352.809 C 396.103 352.357 384.406 363.022 384.636 363.731 C 383.842 369.722 387.084 372.94 389.173 378.217 C 391.264 383.5 393.805 392.522 395.693 401.984 C 404.244 405.4 416.921 409.919 424.701 405.683 C 433.601 400.836 432.228 395.981 435.636 390.054 C 438.597 384.904 441.932 380.835 447.882 382.559 C 447.881 382.582 447.877 382.567 447.905 382.584 C 443.169 379.185 437.804 373.141 435.931 370.359 C 435.624 369.903 435.194 369.327 434.816 368.614"></path>
		<path fill="#C79C52" stroke="#806434" stroke-width="2.0004" stroke-linejoin="bevel" stroke-miterlimit="10" d="M 354.349 341.047 C 339.626 343.961 327.804 382.052 328.605 396.139 C 329.558 395.61 331.001 395.59 332.372 395.337 C 346.349 392.758 349.24 393.115 356.424 391.121 C 363.636 389.119 368.17 392.042 372.383 393.016 C 376.629 393.997 384.092 398.189 392.341 400.833 C 393.359 401.159 394.479 401.582 395.708 402.028 C 393.801 392.467 391.274 383.56 389.183 378.218 C 387.094 372.882 383.858 369.912 384.641 363.593 C 381.485 358.997 369.93 345.367 354.349 341.047"></path>
		<path fill="#C79C52" stroke="#806434" stroke-width="2.0004" stroke-linejoin="bevel" stroke-miterlimit="10" d="M 393.193 332.527 C 388.7 328.512 372.907 313.535 365.411 308.82 C 362.811 307.186 356.981 307.414 354.057 309.645 C 354.228 313.684 355.387 323.481 355.422 327.601 C 355.456 331.729 354.202 339.185 354.302 340.849 C 370.013 345.697 381.424 358.724 384.668 363.68 C 384.376 363.078 396.158 352.345 399.106 352.795 C 399.06 345.984 395.871 339.901 393.193 332.527"></path>
		<path fill="#C79C52" stroke="#806434" stroke-width="2.0004" stroke-linejoin="bevel" stroke-miterlimit="10" d="M 354.018 309.891 C 344.957 301.633 325.021 302.002 318.466 303.763 C 311.889 305.53 293.818 327.886 289.855 338.944 C 290.672 343.442 291.462 348.846 292.41 354.24 C 296.523 377.654 303.871 387.222 309.265 391.528 C 314.084 395.376 317.449 397.303 328.567 396.088 C 327.859 382.232 339.573 343.773 354.37 341.176 C 354.112 338.876 355.489 331.795 355.423 327.656 C 355.356 323.519 354.294 313.46 354.018 309.891"></path>
		<path fill="#C79C52" stroke="#806434" stroke-width="2.0004" stroke-linejoin="bevel" stroke-miterlimit="10" d="M 354.008 309.813 C 344.967 302.064 325.018 301.403 318.469 304.013 C 320.858 289.179 321.64 269.642 319.56 265.743 C 320.979 265.098 322.378 264.967 323.933 264.545 C 334.59 261.653 349.311 266.833 357.159 274.47 C 360.935 278.144 365.983 283.857 371.111 290.335 C 371.265 294.004 369.779 301.793 365.404 308.801 C 362.731 307.48 357.081 307.077 354.008 309.813"></path>
		<path fill="#C79C52" stroke="#806434" stroke-width="2.0004" stroke-linejoin="bevel" stroke-miterlimit="10" d="M 289.853 338.804 C 287.042 322.057 284.999 309.026 282.617 304.834 C 280.803 301.642 278.403 300.461 275.089 301.265 C 281.323 298.116 281.76 294.072 293.299 284.028 C 303.172 275.434 310.873 269.061 319.552 265.726 C 321.699 269.642 320.796 289.162 318.513 304.001 C 311.843 304.854 293.841 328.428 289.853 338.804"></path>
		<path fill="#FFC163" stroke="#B38645" stroke-width="2.0004" stroke-linejoin="bevel" stroke-miterlimit="10" d="M 267.001 306.302 C 274.705 299.541 279.584 299.513 282.618 304.833 C 285.661 310.169 288.368 330.799 292.429 354.214 C 296.487 377.614 303.903 387.231 309.259 391.5 C 314.582 395.742 318.316 397.901 332.344 395.32 C 346.389 392.735 349.219 393.088 356.418 391.106 C 363.643 389.117 368.167 391.992 372.376 393.009 C 376.621 394.035 384.106 398.06 392.326 400.855 C 400.58 403.662 415.822 410.622 424.719 405.702 C 433.63 400.774 432.241 396.01 435.651 390.064 C 439.059 384.121 442.918 379.633 450.748 383.775 C 458.604 387.932 455.242 391.557 454.547 391.877 C 453.85 392.197 451.799 390.188 449.586 389.67 C 447.39 389.156 445.197 396.328 443.619 398.337 C 442.036 400.352 438.483 411.231 431.32 415.93 C 424.174 420.617 419.265 420.324 409.857 417.929 C 400.449 415.532 389.795 414.137 381.376 409.314 C 372.937 404.48 364.999 406.655 361.234 406.562 C 357.464 406.469 347.11 408.664 343.411 410.124 C 339.724 411.58 334.686 413.689 331.856 413.69 C 329.039 413.692 318.821 415.146 313.972 411.99 C 309.15 408.852 304.315 407.707 299.237 399.279 C 294.137 390.816 289.568 383.685 286.28 373.868 C 283.003 364.087 283.956 352.175 281.704 344.291 C 279.454 336.416 278.001 331.008 276.078 328.084 C 274.158 325.165 274.051 321.915 270.842 322.597 C 267.659 323.273 264.436 325.551 262.958 321.218 C 261.478 316.879 264.141 308.811 267.001 306.302"></path>
		
			<path fill="#7BD968" stroke="#598C4E" stroke-width="2.0004" stroke-linecap="round" stroke-linejoin="bevel" stroke-miterlimit="10" d="M 217.438 381.822 C 217.584 383.441 218.633 389.9 222.259 391.354 C 225.868 392.801 230.049 393.331 231.737 389.842"></path>
	</g>
</g>
<g>
	<g>
		<path fill="#FFE563" stroke="#E8D46D" stroke-width="1.2222" stroke-linejoin="bevel" stroke-miterlimit="10" d="M 435.707 326.494 C 433.681 326.902 426.322 328.861 420.295 328.07 C 414.284 327.282 411.776 326.035 407.453 323.094 C 403.129 320.152 397.923 316.378 394.897 312.557 C 391.865 308.729 387.178 305.495 385.346 303.82 C 383.52 302.15 378.065 297.759 376.095 296.32 C 374.126 294.881 371.421 293.059 370.2 291.761 C 368.988 290.474 364.339 286.346 363.012 283.396 C 361.694 280.465 359.939 278.1 359.648 273.252 C 359.356 268.388 359.002 263.855 359.776 258.691 C 360.546 253.541 363.428 249.061 364.332 244.425 C 365.235 239.795 365.96 236.457 365.966 234.124 C 365.972 231.796 366.627 230.128 365.424 228.999 C 362.736 232.218 355.937 246.43 355.55 252.428 C 355.163 258.445 354.737 263.282 356.066 269.836 C 357.401 276.418 362.844 287.827 371.305 296.915 C 379.78 306.018 387.476 313.37 395.026 318.361 C 402.574 323.35 411.262 327.849 415.992 328.972 C 420.73 330.096 423.799 330.041 426.133 329.719 C 428.47 329.397 431.8 328.632 435.707 326.494"></path>
		<path fill="#7BD968" stroke="#598C4E" stroke-width="1.2222" stroke-linejoin="bevel" stroke-miterlimit="10" d="M 333.224 228.632 C 331.495 230.341 326.066 235.58 324.889 240.384 C 322.94 248.332 328.17 250.258 329.092 251.378 C 330.025 252.511 334.424 257.656 344.213 254.083 C 353.986 250.516 358.414 252.65 361.163 253.519 C 362.31 250.447 363.742 247.446 364.33 244.428 C 365.231 239.799 365.97 236.458 365.959 234.129 C 365.948 231.807 366.704 230.117 365.354 229.016 C 365.246 228.928 365.132 228.865 365.019 228.793 C 361.304 229.784 356.528 229.451 354.852 227.457 C 353.182 225.47 350.742 222.42 350.132 221.523 C 349.677 220.854 348.367 221.123 347.98 221.099 C 344.921 220.905 337.716 224.193 333.224 228.632"></path>
		<path fill="#7BD968" stroke="#598C4E" stroke-width="1.2222" stroke-linejoin="bevel" stroke-miterlimit="10" d="M 367.422 289.016 C 365.719 287.25 363.796 285.146 363.014 283.411 C 361.688 280.467 359.955 278.097 359.647 273.273 C 359.57 272.07 359.53 270.841 359.436 269.737 C 356.186 269.13 349.254 271.54 346.906 273.188 C 344.56 274.835 340.479 278.245 338.779 284.372 C 337.082 290.492 335.844 291.729 335.065 294.312 C 334.288 296.892 333.326 298.763 335.2 300.308 C 337.073 301.853 339.356 300.617 342.024 299.505 C 344.705 298.388 348.764 298.151 352.984 297.199 C 356.41 296.427 359.052 295.782 361.072 294.719 C 363.085 293.659 367.277 289.037 367.3 289.139 C 367.289 289.095 367.429 289.024 367.422 289.016"></path>
		<path fill="#7BD968" stroke="#598C4E" stroke-width="1.2222" stroke-linejoin="bevel" stroke-miterlimit="10" d="M 436.387 326.342 C 438.673 325.839 442.852 324.237 443.818 324.445 C 444.912 324.68 445.035 325.517 445.611 325.433 C 446.831 326.409 447.568 327.954 445.973 329.085 C 444.367 330.223 443.792 330.013 442.612 330.15 C 441.418 330.288 440.218 329.722 439.583 329.135 C 438.952 328.551 436.729 327.155 436.387 326.342"></path>
		<path fill="#7BD968" stroke="#598C4E" stroke-width="1.2222" stroke-linejoin="bevel" stroke-miterlimit="10" d="M 416.035 327.302 C 412.76 326.448 410.602 325.251 407.456 323.098 C 404.809 321.285 401.809 319.156 399.226 316.964 C 395.799 318.009 390.23 321.113 392.868 328.061 C 394.262 331.733 396.108 332.921 397.474 334.672 C 398.845 336.429 399.004 340.082 402.239 342.387 C 403.853 343.536 404.66 343.724 406.396 343.446 C 408.145 343.167 408.608 343.105 409.413 342.327 C 410.212 341.554 413.333 339.051 414.096 337.284 C 414.861 335.511 415.802 332.968 415.999 331.772 C 416.195 330.577 415.886 327.361 415.931 327.384 C 415.91 327.374 416.039 327.3 416.035 327.302"></path>
		<path fill="#94AEFF" stroke="#4464C7" stroke-width="1.2222" stroke-linejoin="bevel" stroke-miterlimit="10" d="M 347.99 221.086 C 348.421 222.711 345.692 226.258 345.71 226.265 C 346.895 226.896 346.984 227.745 346.984 228.396 C 349.234 226.818 352.466 226.08 353.543 228.031 C 354.629 229.997 355.692 231.668 351.561 236.9 C 353.173 239.404 356.397 240.282 356.772 241.49 C 357.147 242.702 356.852 244.268 356.524 244.736 C 356.184 245.223 355.002 247.196 354.537 247.666 C 354.048 248.16 353.104 248.781 352.671 248.411 C 352.236 248.04 352.39 246.933 352.79 246.284 C 353.198 245.619 354.03 244.887 354.067 244.269 C 354.103 243.678 353.654 243.278 353.309 243.044 C 352.971 242.814 349.291 239.779 348.742 239.545 C 346.867 241.098 343.136 242.823 341.325 240.376 C 339.515 237.93 340.493 236.186 341.644 234.627 C 342.793 233.069 343.697 231.821 343.701 231.81 C 342.81 230.736 343.017 230.894 342.529 230.097 C 339.957 231.846 336.002 234.045 334.091 231.714 C 332.176 229.378 333.191 226.06 338.327 221.505 C 337.661 220.062 338.339 220.157 338.337 220.16 C 341.075 217.954 341.085 217.971 341.082 217.966 C 341.081 217.964 342.118 219.747 342.104 219.763 C 345.828 216.876 347.709 220.026 347.99 221.086"></path>
		<path fill="#FFFFFF" stroke="#4464C7" stroke-width="1.2222" stroke-linejoin="bevel" stroke-miterlimit="10" d="M 343.715 220.718 C 345.709 221.218 345.224 224.708 344.178 226.156 C 343.149 227.58 339.326 230.942 337.522 230.763 C 335.752 230.588 334.568 228.477 335.798 226.563 C 337.03 224.646 341.452 220.15 343.715 220.718"></path>
		<path fill="#E0B577" stroke="#A87C3B" stroke-width="1.2222" stroke-linejoin="bevel" stroke-miterlimit="10" d="M 340.166 224.406 C 341.18 224.017 342.121 225.356 341.607 226.494 C 341.089 227.641 339.944 228.355 339.374 228.276 C 338.819 228.199 336.866 228.254 337.525 227.027 C 338.189 225.79 338.869 224.905 340.166 224.406"></path>
		<path fill="#FFFFFF" stroke="#4464C7" stroke-width="1.2222" stroke-linejoin="bevel" stroke-miterlimit="10" d="M 343.113 235.007 C 344.924 232.033 347.016 230.084 348.489 229.72 C 349.961 229.356 351.847 230.503 350.849 233.495 C 349.858 236.466 348.677 238.217 347.589 238.751 C 346.496 239.288 344.152 239.991 343.474 239.048 C 342.798 238.109 342.132 236.619 343.113 235.007"></path>
		<path fill="#E0B577" stroke="#A87C3B" stroke-width="1.2222" stroke-linejoin="bevel" stroke-miterlimit="10" d="M 346.94 233.005 C 347.631 233.013 347.96 235.246 347.671 235.759 C 347.389 236.261 346.311 237.067 346.15 236.823 C 345.996 236.592 344.25 235.976 344.912 234.713 C 345.573 233.455 345.904 232.992 346.94 233.005"></path>
		<path fill="#C79C52" stroke="#806434" stroke-width="1.2222" stroke-linejoin="bevel" stroke-miterlimit="10" d="M 432.546 290.447 C 427.168 286.068 419.553 275.537 417.528 268.063 C 416.246 263.332 414.127 257.156 413.673 250.578 C 412.015 254.385 408.372 263.768 405.486 269.073 C 407.748 275.42 418.02 290.337 422.095 293.387 C 424.887 294.138 430.233 292.479 432.546 290.447"></path>
		<path fill="#C79C52" stroke="#806434" stroke-width="1.2222" stroke-linejoin="bevel" stroke-miterlimit="10" d="M 424.487 306.629 C 426.125 303.645 424.233 299.432 422.003 293.521 C 424.98 293.994 430.261 292.492 432.479 290.501 C 433.692 291.767 434.386 292.483 435.098 293.341 C 439.076 298.135 445.065 305.23 445.652 308.394 C 446.142 311.035 445.777 314.245 445.337 315.745 C 441.995 313.83 434.866 310.335 431.264 308.88 C 427.689 307.436 424.526 306.673 424.487 306.629"></path>
		<path fill="#C79C52" stroke="#806434" stroke-width="1.2222" stroke-linejoin="bevel" stroke-miterlimit="10" d="M 445.33 315.743 C 441.996 313.821 434.859 310.343 431.26 308.872 C 427.695 307.415 424.501 306.731 424.501 306.573 C 422.191 306.756 410.731 306.814 410.823 306.547 C 408.596 307.889 409.841 309.569 409.476 311.258 C 409.111 312.95 407.555 315.099 405.253 316.856 C 409.108 320.093 414.451 324.23 420.925 325.049 C 428.332 325.986 429.913 324.619 435.009 323.479 C 439.434 322.49 443.861 320.977 446.616 321.821 C 446.606 321.807 446.617 321.827 446.612 321.819 C 445.554 320.414 445.205 317.855 445.275 316.563 C 445.286 316.35 445.355 316.12 445.33 315.743"></path>
		<path fill="#C79C52" stroke="#806434" stroke-width="1.2222" stroke-linejoin="bevel" stroke-miterlimit="10" d="M 395.495 285.133 C 387.313 279.084 375.441 282.986 372.534 286.344 C 373.176 286.795 373.711 287.446 374.39 288.082 C 381.304 294.566 382.668 296.095 386.809 299.255 C 390.966 302.427 392.794 304.923 394.833 306.873 C 396.889 308.839 399.911 312.464 403.725 315.584 C 404.195 315.969 404.72 316.416 405.259 316.862 C 407.547 315.098 409.122 312.954 409.477 311.262 C 409.832 309.572 408.641 307.897 410.791 306.55 C 410.315 304.448 403.979 296.102 395.495 285.133"></path>
		<path fill="#C79C52" stroke="#806434" stroke-width="1.2222" stroke-linejoin="bevel" stroke-miterlimit="10" d="M 422.114 293.392 C 417.895 290.408 407.96 275.246 405.366 269.168 C 404.466 267.06 401.051 266.014 399.583 266.25 C 398.805 269.803 398.316 276.824 397.852 279.189 C 397.388 281.558 395.825 284.558 395.518 285.086 C 403.954 296.162 410.326 304.433 410.802 306.537 C 410.765 306.867 422.207 306.691 424.489 306.619 C 426.199 303.57 424.082 299.6 422.114 293.392"></path>
		<path fill="#C79C52" stroke="#806434" stroke-width="1.2222" stroke-linejoin="bevel" stroke-miterlimit="10" d="M 399.504 266.363 C 396.339 257.095 389.26 246.156 386.538 243.688 C 383.806 241.212 372.281 243.617 368.506 246.092 C 367.809 248.673 366.954 251.469 366.205 254.119 C 362.954 265.624 364.017 271.678 365.347 275.62 C 366.535 279.141 367.55 281.149 372.535 286.327 C 375.43 283.039 387.315 279.02 395.493 285.179 C 395.834 284.476 397.397 281.563 397.842 279.208 C 398.287 276.853 398.897 269.695 399.504 266.363"></path>
		<path fill="#C79C52" stroke="#806434" stroke-width="1.2222" stroke-linejoin="bevel" stroke-miterlimit="10" d="M 399.5 266.354 C 396.311 257.191 389.306 246.006 386.527 243.758 C 390.75 235.878 398.275 221.063 399.196 217.471 C 399.878 217.617 400.563 217.957 401.305 218.29 C 406.388 220.57 411.101 228.412 412.195 235.635 C 412.721 239.11 412.975 244.625 413.645 250.59 C 411.998 254.396 408.491 263.635 405.385 269.165 C 404.1 267.374 401.384 265.698 399.5 266.354"></path>
		<path fill="#C79C52" stroke="#806434" stroke-width="1.2222" stroke-linejoin="bevel" stroke-miterlimit="10" d="M 368.526 246.064 C 371.117 236.984 373.82 228.557 374.097 225.146 C 374.308 222.55 373.785 220.717 372.358 219.738 C 375.483 220.726 376.658 218.833 383.709 217.998 C 389.741 217.283 394.638 216.289 399.185 217.459 C 398.316 221.061 390.722 235.885 386.547 243.738 C 383.853 241.063 372.226 243.733 368.526 246.064"></path>
		<path fill="#FFC163" stroke="#B38645" stroke-width="1.2222" stroke-linejoin="bevel" stroke-miterlimit="10" d="M 368.032 218.976 C 372.693 218.553 374.486 220.778 374.092 225.14 C 373.698 229.516 369.429 242.547 366.21 254.099 C 362.993 265.645 363.981 271.664 365.36 275.611 C 366.73 279.532 367.626 281.613 374.429 288.082 C 381.24 294.557 382.701 296.09 386.819 299.253 C 390.951 302.427 392.802 304.908 394.839 306.873 C 396.895 308.856 399.898 312.419 403.735 315.598 C 407.587 318.789 413.558 324.144 420.941 325.057 C 428.334 325.972 429.935 324.632 435.017 323.482 C 440.095 322.332 445.207 320.53 447.715 322.355 C 450.231 324.186 446.194 325.36 445.622 325.437 C 445.05 325.515 444.925 324.661 443.829 324.45 C 442.741 324.24 437.698 326.157 435.71 326.513 C 433.715 326.871 426.328 328.876 420.305 328.075 C 414.299 327.276 411.786 326.043 407.464 323.098 C 403.141 320.154 397.934 316.383 394.912 312.565 C 391.882 308.738 387.189 305.503 385.361 303.831 C 383.531 302.156 378.077 297.768 376.105 296.327 C 374.139 294.89 371.432 293.065 370.212 291.77 C 368.997 290.481 364.351 286.353 363.024 283.404 C 361.704 280.472 359.949 278.106 359.658 273.261 C 359.366 268.396 359.013 263.864 359.786 258.697 C 360.556 253.547 363.44 249.066 364.34 244.43 C 365.239 239.8 365.984 236.46 365.97 234.132 C 365.956 231.808 366.717 230.116 365.364 229.019 C 364.022 227.93 362.246 227.699 362.731 224.948 C 363.216 222.194 366.303 219.134 368.032 218.976"></path>
		
			<path fill="#7BD968" stroke="#598C4E" stroke-width="1.2222" stroke-linecap="round" stroke-linejoin="bevel" stroke-miterlimit="10" d="M 329.058 238.397 C 328.749 239.171 327.746 242.297 329.081 243.768 C 330.411 245.231 332.172 246.492 333.731 245.415"></path>
	</g>
</g>
<g>
	<g>
		<path fill="#FFE563" stroke="#E8D46D" stroke-width="0.7789" stroke-linejoin="bevel" stroke-miterlimit="10" d="M 453.641 281.018 C 452.095 281.984 446.589 286.607 441.677 287.266 C 436.778 287.924 434.561 287.026 430.847 284.38 C 427.133 281.734 423.185 278.271 421.363 274.117 C 419.537 269.956 417.098 267.375 416.225 265.828 C 415.355 264.288 412.98 260.436 412.181 259.156 C 411.382 257.875 410.264 256.189 409.955 254.909 C 409.648 253.639 408.305 249.467 408.732 246.49 C 409.157 243.531 409.049 241.136 411.134 236.536 C 413.226 231.92 415.313 227.787 418.56 223.333 C 421.798 218.891 426.531 215.209 429.777 211.634 C 433.019 208.063 435.305 205.686 436.466 204.033 C 437.625 202.382 438.95 201.194 438.468 200.453 C 434.557 202.262 422.178 212.783 418.874 217.802 C 415.558 222.838 412.818 227.039 410.536 233.109 C 408.246 239.204 406.442 250.923 409.009 260.372 C 411.581 269.839 415.997 277.216 421.486 281.688 C 426.973 286.16 434.535 289.47 438.502 289.639 C 442.477 289.808 444.893 288.917 446.695 287.88 C 448.501 286.841 450.98 284.946 453.641 281.018"></path>
		<path fill="#7BD968" stroke="#598C4E" stroke-width="0.7789" stroke-linejoin="bevel" stroke-miterlimit="10" d="M 417.032 194.816 C 415.354 195.62 410.251 197.986 407.712 201.168 C 403.511 206.433 404.97 209.865 405.006 210.935 C 405.042 212.018 404.384 218.122 411.281 217.414 C 418.166 216.708 420.942 218.034 422.307 218.98 C 424.91 216.344 427.665 213.968 429.773 211.637 C 433.005 208.062 435.317 205.696 436.457 204.031 C 437.593 202.371 439.037 201.242 438.385 200.415 C 438.333 200.349 438.254 200.308 438.216 200.232 C 434.482 200.799 431.131 200.031 430.883 198.348 C 430.635 196.669 430.375 194.068 430.371 193.314 C 430.367 192.752 429.404 192.697 429.155 192.612 C 427.177 191.94 421.388 192.728 417.032 194.816"></path>
		<path fill="#7BD968" stroke="#598C4E" stroke-width="0.7789" stroke-linejoin="bevel" stroke-miterlimit="10" d="M 409.231 252.167 C 408.843 250.402 408.49 248.24 408.73 246.498 C 409.139 243.541 409.072 241.144 411.122 236.547 C 411.633 235.4 412.175 234.307 412.71 233.192 C 410.703 232.825 405.913 233.731 404.12 234.561 C 402.328 235.391 399.054 237.118 396.41 241.439 C 393.77 245.754 392.998 246.072 391.985 247.675 C 390.973 249.275 390.138 250.113 390.549 252.245 C 390.961 254.377 392.225 254.694 393.64 255.113 C 395.062 255.533 396.943 257.17 399.189 257.77 C 401.011 258.257 402.549 258.194 403.859 257.556 C 405.166 256.92 408.98 252.385 409.146 252.263 C 409.075 252.315 409.258 252.149 409.231 252.167"></path>
		<path fill="#7BD968" stroke="#598C4E" stroke-width="0.7789" stroke-linejoin="bevel" stroke-miterlimit="10" d="M 454.157 280.659 C 455.89 279.41 458.961 276.497 459.794 276.724 C 460.737 276.98 461.004 278.15 461.454 277.974 C 462.65 279.274 463.515 281.267 462.455 282.965 C 461.388 284.675 460.9 284.493 459.993 284.862 C 459.075 285.234 458.01 284.701 457.381 284.015 C 456.757 283.334 454.637 281.786 454.157 280.659"></path>
		<path fill="#7BD968" stroke="#598C4E" stroke-width="0.7789" stroke-linejoin="bevel" stroke-miterlimit="10" d="M 438.168 287.465 C 435.458 287.264 433.534 286.335 430.849 284.382 C 428.589 282.738 426.188 280.842 424.302 278.632 C 421.962 281.497 418.441 286.158 420.863 292.424 C 422.143 295.736 423.574 296.679 424.703 298.127 C 425.835 299.581 425.838 302.252 428.191 303.856 C 429.363 304.655 430.012 304.819 431.477 304.64 C 432.952 304.46 433.328 304.334 434.092 303.785 C 434.849 303.24 437.553 300.917 438.113 299.138 C 438.674 297.353 439.122 294.474 439.06 293.035 C 438.998 291.595 438.099 287.701 438.098 287.574 C 438.098 287.634 438.172 287.438 438.168 287.465"></path>
		<path fill="#94AEFF" stroke="#4464C7" stroke-width="0.7789" stroke-linejoin="bevel" stroke-miterlimit="10" d="M 429.161 192.607 C 428.699 193.858 425.327 195.933 425.342 195.946 C 425.795 196.639 425.455 197.289 425.156 197.766 C 427.299 197.034 429.84 197.006 429.689 198.585 C 429.536 200.176 429.43 201.528 424.042 204.959 C 423.863 207.148 425.697 208.148 425.366 209.109 C 425.034 210.072 424.002 211.295 423.526 211.64 C 423.034 211.997 421.193 213.481 420.64 213.818 C 420.059 214.171 419.115 214.577 419.023 214.221 C 418.93 213.865 419.586 212.983 420.175 212.51 C 420.779 212.024 421.713 211.527 422.052 211.04 C 422.375 210.577 422.278 210.199 422.157 209.982 C 422.038 209.77 421.128 206.878 420.929 206.567 C 418.943 207.508 415.977 208.092 416.126 205.748 C 416.276 203.406 417.611 202.311 419.008 201.373 C 420.403 200.436 421.527 199.684 421.535 199.676 C 421.506 198.676 421.55 198.845 421.638 198.134 C 419.271 198.915 416.113 199.586 416.144 197.326 C 416.174 195.062 418.089 192.934 423.032 190.866 C 423.287 189.661 423.629 189.896 423.63 189.895 C 426.202 188.943 426.222 188.948 426.216 188.947 C 426.217 188.944 426.07 190.449 426.047 190.459 C 429.603 189.192 429.462 191.791 429.161 192.607"></path>
		<path fill="#FFFFFF" stroke="#4464C7" stroke-width="0.7789" stroke-linejoin="bevel" stroke-miterlimit="10" d="M 426.612 191.492 C 427.639 192.262 425.76 194.694 424.44 195.555 C 423.14 196.404 419.353 198.069 418.442 197.487 C 417.548 196.916 417.842 195.04 419.362 193.943 C 420.885 192.844 425.446 190.617 426.612 191.492"></path>
		<path fill="#E0B577" stroke="#A87C3B" stroke-width="0.7789" stroke-linejoin="bevel" stroke-miterlimit="10" d="M 422.829 193.399 C 423.599 193.345 423.564 194.527 422.739 195.257 C 421.907 195.992 420.917 196.263 420.623 196.072 C 420.338 195.887 419.207 195.456 420.131 194.707 C 421.061 193.953 421.844 193.469 422.829 193.399"></path>
		<path fill="#FFFFFF" stroke="#4464C7" stroke-width="0.7789" stroke-linejoin="bevel" stroke-miterlimit="10" d="M 419.685 201.986 C 422.145 200.098 424.371 199.039 425.493 199.031 C 426.614 199.023 427.347 200.15 425.232 202.26 C 423.133 204.355 421.526 205.534 420.588 205.759 C 419.646 205.985 417.919 206.071 417.98 205.186 C 418.041 204.306 418.351 203.01 419.685 201.986"></path>
		<path fill="#E0B577" stroke="#A87C3B" stroke-width="0.7789" stroke-linejoin="bevel" stroke-miterlimit="10" d="M 422.953 201.221 C 423.381 201.354 422.521 203.11 422.09 203.456 C 421.668 203.794 420.618 204.213 420.637 203.996 C 420.654 203.789 419.893 202.968 420.895 202.132 C 421.892 201.3 422.311 201.021 422.953 201.221"></path>
		<path fill="#C79C52" stroke="#806434" stroke-width="0.7789" stroke-linejoin="bevel" stroke-miterlimit="10" d="M 474.406 232.171 C 478.235 227.738 486.61 221.571 491.258 218.304 C 494.2 216.237 496.629 213.387 497.906 210.689 C 494.266 211.746 482.767 214.35 471.343 218.245 C 472.035 220.705 464.721 230.12 462.62 233.936 C 464.732 234.032 470.746 232.917 474.406 232.171"></path>
		<path fill="#C79C52" stroke="#806434" stroke-width="0.7789" stroke-linejoin="bevel" stroke-miterlimit="10" d="M 448.609 250.577 C 452.596 245.476 456.096 239.654 462.552 233.935 C 464.844 234.028 470.702 232.917 474.408 232.169 C 473.151 233.114 472.945 234.013 472.047 234.736 C 467.027 238.776 463.58 248.169 462.662 252.685 C 461.895 256.456 460.315 261.001 460.291 263.443 C 457.372 260.214 453.865 254.735 452.231 252.89 C 450.612 251.062 448.563 250.618 448.609 250.577"></path>
		<path fill="#C79C52" stroke="#806434" stroke-width="0.7789" stroke-linejoin="bevel" stroke-miterlimit="10" d="M 460.266 263.431 C 457.4 260.221 453.848 254.73 452.231 252.887 C 450.63 251.063 448.519 250.616 448.635 250.572 C 446.689 250.784 435.811 256.542 436.069 256.438 C 433.115 259.863 433.427 262.097 432.554 265.14 C 431.679 268.187 430.169 272.629 428.587 276.208 C 431.37 279.542 436.169 283.599 441.454 282.806 C 447.496 281.9 448.478 279.465 452.39 276.573 C 455.787 274.061 459.217 271.462 461.587 272.658 C 461.588 272.623 461.58 272.669 461.594 272.646 C 460.453 270.626 459.943 266.656 460.113 264.668 C 460.14 264.342 460.117 263.969 460.266 263.431"></path>
		<path fill="#C79C52" stroke="#806434" stroke-width="0.7789" stroke-linejoin="bevel" stroke-miterlimit="10" d="M 438.2 236.092 C 430.801 235.401 416.199 245.191 413.884 248.553 C 413.774 249.146 414.021 249.646 414.231 250.182 C 416.373 255.655 416.849 257.01 418.75 259.326 C 420.657 261.65 421.266 264.245 422.252 266.086 C 423.247 267.943 424.722 271.847 427.473 274.946 C 427.812 275.327 428.167 275.772 428.586 276.22 C 430.178 272.623 431.673 268.191 432.558 265.147 C 433.442 262.102 433.082 259.863 436.099 256.45 C 436.558 252.978 438.617 242.73 438.2 236.092"></path>
		<path fill="#C79C52" stroke="#806434" stroke-width="0.7789" stroke-linejoin="bevel" stroke-miterlimit="10" d="M 462.631 233.929 C 464.71 230.111 472.107 220.699 471.331 218.235 C 471.061 217.381 466.838 217.052 463.167 218.021 C 459.206 220.066 450.997 225.989 447.731 228.523 C 444.462 231.06 438.865 235.143 438.142 236.122 C 438.709 242.679 436.492 253.012 436.128 256.431 C 435.723 256.551 446.771 250.778 448.61 250.573 C 452.648 245.471 455.986 239.666 462.631 233.929"></path>
		<path fill="#C79C52" stroke="#806434" stroke-width="0.7789" stroke-linejoin="bevel" stroke-miterlimit="10" d="M 463.158 218.019 C 464.362 213.576 457.666 209.377 454.905 208.356 C 452.134 207.332 436.573 210.718 432.775 212.668 C 430.434 214.751 428.241 216.944 426.127 219.203 C 416.947 229.016 414.778 234.993 413.767 238.674 C 412.864 241.962 412.399 244.161 413.837 248.573 C 416.259 245.167 430.759 235.423 438.2 236.093 C 438.788 235.188 444.479 231.056 447.727 228.528 C 450.977 225.999 459.213 220.074 463.158 218.019"></path>
		<path fill="#C79C52" stroke="#806434" stroke-width="0.7789" stroke-linejoin="bevel" stroke-miterlimit="10" d="M 463.12 218.003 C 464.491 213.613 457.516 209.335 454.951 208.379 C 465.286 202.694 479.097 195.956 479.958 194.435 C 480.984 194.505 481.899 194.76 482.827 194.982 C 489.177 196.503 496.884 200.84 498.445 204.189 C 499.196 205.801 499.168 208.154 497.912 210.687 C 494.263 211.742 482.847 214.336 471.308 218.244 C 470.974 217.36 466.93 217.089 463.12 218.003"></path>
		<path fill="#C79C52" stroke="#806434" stroke-width="0.7789" stroke-linejoin="bevel" stroke-miterlimit="10" d="M 432.718 212.668 C 439.969 205.609 446.632 200.233 448.26 198.077 C 449.5 196.436 449.818 195.267 448.772 194.577 C 451.512 195.338 453.08 194.21 461.088 193.965 C 467.941 193.756 474.408 193.44 479.974 194.418 C 479.131 195.983 465.244 202.663 455.005 208.385 C 451.899 207.287 436.767 210.74 432.718 212.668"></path>
		<path fill="#FFC163" stroke="#B38645" stroke-width="0.7789" stroke-linejoin="bevel" stroke-miterlimit="10" d="M 445.189 193.793 C 449.537 193.866 450.354 195.357 448.281 198.066 C 446.202 200.784 435.477 209.301 426.171 219.181 C 416.868 229.056 414.809 234.968 413.784 238.665 C 412.765 242.337 412.303 244.614 414.283 250.154 C 416.265 255.7 416.909 256.974 418.761 259.317 C 420.618 261.667 421.303 264.214 422.253 266.083 C 423.212 267.97 424.788 271.78 427.451 274.961 C 430.127 278.157 435.388 283.77 441.456 282.816 C 447.533 281.861 448.474 279.504 452.393 276.571 C 456.309 273.641 460.234 270.793 462.574 273.382 C 464.922 275.981 461.914 277.765 461.464 277.97 C 461.013 278.175 460.745 276.959 459.802 276.72 C 458.865 276.483 455.166 280.088 453.642 281.026 C 452.113 281.968 446.591 286.612 441.683 287.268 C 436.784 287.922 434.566 287.03 430.852 284.382 C 427.138 281.734 423.19 278.272 421.369 274.122 C 419.543 269.961 417.1 267.379 416.23 265.837 C 415.358 264.293 412.984 260.442 412.183 259.161 C 411.385 257.884 410.267 256.194 409.957 254.917 C 409.649 253.646 408.308 249.474 408.734 246.498 C 409.158 243.538 409.051 241.143 411.134 236.545 C 413.225 231.93 415.313 227.797 418.561 223.338 C 421.798 218.895 426.535 215.216 429.777 211.638 C 433.014 208.064 435.322 205.698 436.461 204.034 C 437.599 202.372 439.045 201.241 438.389 200.417 C 437.738 199.599 436.4 199.295 438.076 197.406 C 439.752 195.517 443.575 193.766 445.189 193.793"></path>
		
			<path fill="#7BD968" stroke="#598C4E" stroke-width="0.7789" stroke-linecap="round" stroke-linejoin="bevel" stroke-miterlimit="10" d="M 410.597 200.95 C 410.1 201.443 408.264 203.505 408.268 205.048 C 408.271 206.584 408.557 208.115 409.811 207.723"></path>
	</g>
</g>
<g>
	<g>
		<path fill="#FFE563" stroke="#E8D46D" stroke-width="0.4563" stroke-linejoin="bevel" stroke-miterlimit="10" d="M 494.631 232.67 C 493.706 232.193 488.319 231.599 486.46 230.408 C 484.606 229.219 484.974 228.221 486.883 226.248 C 488.794 224.272 490.571 222.091 493.741 220.311 C 496.919 218.527 496.546 217.057 496.905 216.323 C 497.264 215.592 496.931 213.697 496.453 213.067 C 495.974 212.436 495.233 211.604 495.337 211.09 C 495.441 210.579 495.012 208.815 496.355 207.807 C 497.69 206.807 498.15 205.878 501.538 204.604 C 504.94 203.325 507.607 202.232 511.236 201.282 C 514.856 200.334 519.523 200.201 522.093 199.531 C 524.663 198.861 526.262 198.372 526.915 197.877 C 527.566 197.383 528.643 197.194 527.767 196.593 C 525.495 196.395 514.475 197.651 510.943 198.926 C 507.4 200.204 504.217 201.24 500.832 203.124 C 497.433 205.016 492.794 209.076 490.837 212.884 C 488.877 216.7 485.869 220.211 484.612 223.082 C 483.356 225.953 481.894 229.285 482.735 230.494 C 483.577 231.705 485.091 232.042 486.526 232.261 C 487.96 232.48 490.435 232.56 494.631 232.67"></path>
		<path fill="#7BD968" stroke="#598C4E" stroke-width="0.4563" stroke-linejoin="bevel" stroke-miterlimit="10" d="M 506.017 187.819 C 504.385 187.838 499.35 187.883 496.545 188.936 C 491.906 190.679 493.33 192.391 493.366 192.922 C 493.402 193.458 492.436 195.771 501.265 196.872 C 510.078 197.971 513.333 199.728 515.229 200.51 C 517.852 200.189 520.415 199.968 522.094 199.529 C 524.67 198.855 526.253 198.377 526.919 197.872 C 527.582 197.37 528.594 197.228 527.808 196.559 C 527.746 196.506 527.664 196.453 527.614 196.407 C 524.376 195.455 520.893 194.047 520.308 193.115 C 519.726 192.186 518.981 190.78 518.851 190.391 C 518.754 190.102 517.829 189.818 517.583 189.706 C 515.631 188.818 510.254 187.769 506.017 187.819"></path>
		<path fill="#7BD968" stroke="#598C4E" stroke-width="0.4563" stroke-linejoin="bevel" stroke-miterlimit="10" d="M 495.347 209.963 C 495.399 209.258 495.548 208.397 496.345 207.808 C 497.697 206.807 498.133 205.885 501.534 204.604 C 502.383 204.284 503.174 203.979 503.953 203.707 C 501.118 202.921 493.926 202.436 491.044 202.574 C 488.162 202.713 483.074 203.071 477.557 205.016 C 472.052 206.957 470.496 207.299 468.225 208.179 C 465.959 209.058 464.202 209.67 463.733 210.667 C 463.265 211.664 465.068 211.544 467.225 211.462 C 469.392 211.38 471.691 211.804 475.349 211.777 C 478.319 211.756 481.046 211.694 483.759 211.403 C 486.465 211.113 495.098 209.856 495.115 210.014 C 495.106 209.945 495.353 209.985 495.347 209.963"></path>
		<path fill="#7BD968" stroke="#598C4E" stroke-width="0.4563" stroke-linejoin="bevel" stroke-miterlimit="10" d="M 495.035 232.773 C 496.408 233.101 499.289 233.82 499.02 234.19 C 498.715 234.61 497.543 234.905 497.713 235.063 C 496.367 235.767 494.486 236.539 492.803 236.564 C 491.109 236.589 491.247 236.36 490.832 236.104 C 490.413 235.845 490.89 235.27 491.567 234.828 C 492.239 234.39 493.821 233.177 495.035 232.773"></path>
		<path fill="#7BD968" stroke="#598C4E" stroke-width="0.4563" stroke-linejoin="bevel" stroke-miterlimit="10" d="M 485.421 229.445 C 484.912 228.608 485.504 227.683 486.879 226.248 C 488.037 225.038 489.201 223.734 490.582 222.545 C 485.654 222.787 475.955 224.42 468.856 229.456 C 465.107 232.117 464.962 233.076 463.745 234.435 C 462.525 235.797 458.854 238.793 458.599 240.69 C 458.472 241.635 458.72 241.807 459.913 241.576 C 461.113 241.344 461.44 241.31 462.577 240.655 C 463.706 240.004 467.932 237.964 470.384 236.554 C 472.845 235.139 476.712 233.255 478.534 232.413 C 480.359 231.571 485.109 229.4 485.256 229.504 C 485.191 229.455 485.435 229.464 485.421 229.445"></path>
		<path fill="#94AEFF" stroke="#4464C7" stroke-width="0.4563" stroke-linejoin="bevel" stroke-miterlimit="10" d="M 517.588 189.705 C 517.386 190.218 514.457 190.365 514.444 190.375 C 515.011 190.839 514.77 191.069 514.557 191.228 C 516.574 191.427 519.047 192.129 519.192 192.89 C 519.337 193.657 519.664 194.305 514.652 194.43 C 514.824 195.424 517.027 196.456 516.858 196.824 C 516.688 197.192 515.778 197.454 515.314 197.473 C 514.83 197.493 512.983 197.633 512.382 197.628 C 511.749 197.621 510.695 197.537 510.53 197.351 C 510.366 197.165 511.014 196.945 511.623 196.893 C 512.247 196.839 513.238 196.878 513.534 196.749 C 513.817 196.627 513.648 196.421 513.467 196.283 C 513.291 196.148 511.786 194.533 511.528 194.342 C 509.492 194.235 506.135 193.798 506.06 192.761 C 505.986 191.725 507.341 191.51 508.711 191.407 C 510.082 191.303 511.144 191.222 511.15 191.222 C 510.985 190.733 511.052 190.823 511.046 190.505 C 508.735 190.282 505.445 189.892 505.304 188.828 C 505.162 187.762 507.025 187.125 511.534 187.272 C 511.64 186.735 511.991 186.932 511.992 186.933 C 514.302 187.078 514.299 187.09 514.3 187.087 C 514.302 187.086 514.351 187.813 514.344 187.81 C 517.463 188.064 517.72 189.371 517.588 189.705"></path>
		<path fill="#FFFFFF" stroke="#4464C7" stroke-width="0.4563" stroke-linejoin="bevel" stroke-miterlimit="10" d="M 515.017 188.474 C 516.084 189.13 514.681 189.865 513.509 189.948 C 512.354 190.03 508.7 189.908 507.69 189.423 C 506.698 188.948 506.848 188.112 508.277 187.924 C 509.708 187.736 513.805 187.729 515.017 188.474"></path>
		<path fill="#E0B577" stroke="#A87C3B" stroke-width="0.4563" stroke-linejoin="bevel" stroke-miterlimit="10" d="M 511.623 188.481 C 512.367 188.643 512.491 189.221 511.768 189.374 C 511.039 189.528 510.069 189.419 509.749 189.257 C 509.437 189.098 508.259 188.624 509.107 188.476 C 509.958 188.329 510.672 188.275 511.623 188.481"></path>
		<path fill="#FFFFFF" stroke="#4464C7" stroke-width="0.4563" stroke-linejoin="bevel" stroke-miterlimit="10" d="M 509.507 191.862 C 511.889 191.574 513.978 191.641 515.101 191.939 C 516.223 192.237 517.204 193.013 515.402 193.453 C 513.612 193.889 512.014 194.009 511.021 193.869 C 510.024 193.727 508.102 193.336 508.059 192.943 C 508.016 192.552 508.216 192.019 509.507 191.862"></path>
		<path fill="#E0B577" stroke="#A87C3B" stroke-width="0.4563" stroke-linejoin="bevel" stroke-miterlimit="10" d="M 512.851 192.331 C 513.322 192.508 512.702 193.126 512.294 193.175 C 511.895 193.224 510.827 193.15 510.81 193.052 C 510.794 192.959 509.868 192.378 510.815 192.235 C 511.761 192.092 512.145 192.065 512.851 192.331"></path>
		<path fill="#C79C52" stroke="#806434" stroke-width="0.4563" stroke-linejoin="bevel" stroke-miterlimit="10" d="M 543.651 231.863 C 547.963 231.077 553.305 229.146 555.809 227.849 C 557.392 227.028 559.074 225.457 560.071 223.661 C 558.706 223.656 554.873 222.9 550.023 221.129 C 549.957 223.406 543.673 226.939 540.288 227.54 C 540.678 228.694 542.374 230.834 543.651 231.863"></path>
		<path fill="#C79C52" stroke="#806434" stroke-width="0.4563" stroke-linejoin="bevel" stroke-miterlimit="10" d="M 525.321 226.638 C 530.107 227.443 535.213 227.489 540.317 227.548 C 540.651 228.685 542.381 230.831 543.662 231.868 C 542.758 232.046 541.868 232.188 541.153 232.258 C 537.163 232.652 527.767 233.314 523.211 233.283 C 519.41 233.257 514.945 233.035 512.454 233.082 C 516.078 231.784 521.696 229.742 523.377 228.697 C 525.041 227.661 525.32 226.645 525.321 226.638"></path>
		<path fill="#C79C52" stroke="#806434" stroke-width="0.4563" stroke-linejoin="bevel" stroke-miterlimit="10" d="M 512.462 233.078 C 516.071 231.793 521.708 229.739 523.377 228.699 C 525.028 227.67 525.364 226.626 525.289 226.653 C 525.293 225.807 518.369 221.947 518.154 222.06 C 514.481 221.427 512.493 221.989 509.314 222.176 C 506.128 222.363 500.95 222.589 495.989 223.033 C 493.425 224.781 490.115 227.37 491.8 228.869 C 493.727 230.583 496.326 230.378 499.412 231.344 C 502.091 232.182 504.35 233.29 503.048 234.361 C 503.058 234.365 503.033 234.355 503.049 234.368 C 505.152 233.663 509.245 233.165 511.241 233.109 C 511.564 233.1 511.965 233.081 512.462 233.078"></path>
		<path fill="#C79C52" stroke="#806434" stroke-width="0.4563" stroke-linejoin="bevel" stroke-miterlimit="10" d="M 530.83 216.193 C 527.599 211.905 509.526 209.016 503.424 209.947 C 503.535 210 503.601 210.32 503.682 210.576 C 504.513 213.186 504.127 213.765 504.701 215.176 C 505.277 216.591 503.466 217.515 502.639 218.352 C 501.805 219.196 499.013 220.691 496.884 222.357 C 496.622 222.562 496.305 222.788 495.965 223.04 C 500.975 222.582 506.107 222.37 509.309 222.177 C 512.508 221.985 514.425 221.45 518.188 222.045 C 521.265 221.746 529.787 219.923 530.83 216.193"></path>
		<path fill="#C79C52" stroke="#806434" stroke-width="0.4563" stroke-linejoin="bevel" stroke-miterlimit="10" d="M 540.296 227.539 C 543.7 226.945 549.926 223.392 550.055 221.137 C 550.099 220.355 548.899 218.594 547.058 217.591 C 545.319 217.536 540.412 217.386 538.177 217.162 C 535.936 216.938 531.819 216.223 530.869 216.143 C 529.722 220 521.333 221.689 518.172 222.062 C 518.366 221.944 525.286 225.813 525.309 226.65 C 530.122 227.422 535.228 227.51 540.296 227.539"></path>
		<path fill="#C79C52" stroke="#806434" stroke-width="0.4563" stroke-linejoin="bevel" stroke-miterlimit="10" d="M 547.009 217.611 C 548.689 214.949 544.432 209.248 542.603 207.506 C 540.768 205.758 529.728 201.547 525.224 201.161 C 523.6 201.367 521.702 201.67 519.669 201.978 C 510.834 203.315 506.942 205.01 505.245 206.153 C 503.73 207.174 502.889 207.785 503.433 209.92 C 509.484 209.069 527.635 211.852 530.8 216.218 C 531.875 216.141 535.918 216.961 538.159 217.17 C 540.401 217.379 545.356 217.526 547.009 217.611"></path>
		<path fill="#C79C52" stroke="#806434" stroke-width="0.4563" stroke-linejoin="bevel" stroke-miterlimit="10" d="M 547.035 217.6 C 548.565 215.005 544.6 209.174 542.528 207.534 C 548.49 208.111 554.065 207.596 554.3 206.655 C 554.841 207.052 555.204 207.468 555.668 207.897 C 558.849 210.834 561.466 215.953 561.449 218.837 C 561.441 220.224 561.091 222.023 560.07 223.661 C 558.74 223.658 554.84 222.893 550.058 221.135 C 550.146 220.382 548.871 218.569 547.035 217.6"></path>
		<path fill="#C79C52" stroke="#806434" stroke-width="0.4563" stroke-linejoin="bevel" stroke-miterlimit="10" d="M 525.257 201.138 C 531.087 200.167 534.739 199.311 535.539 198.588 C 536.148 198.037 536 197.444 535.098 196.69 C 537.265 198.047 538.514 197.908 543.7 200.395 C 548.139 202.523 551.511 204.362 554.314 206.654 C 554.054 207.609 548.501 208.092 542.532 207.548 C 540.95 205.653 529.586 201.632 525.257 201.138"></path>
		<path fill="#FFC163" stroke="#B38645" stroke-width="0.4563" stroke-linejoin="bevel" stroke-miterlimit="10" d="M 532.028 195.076 C 535.513 196.519 536.523 197.662 535.542 198.593 C 534.558 199.528 528.526 200.691 519.676 201.988 C 510.829 203.285 506.966 205.029 505.247 206.151 C 503.539 207.266 502.752 207.985 503.664 210.578 C 504.577 213.175 504.119 213.771 504.705 215.176 C 505.294 216.586 503.487 217.518 502.64 218.352 C 501.785 219.193 499.083 220.693 496.871 222.354 C 494.651 224.022 489.804 227.162 491.788 228.875 C 493.774 230.589 496.288 230.381 499.411 231.349 C 502.53 232.316 504.938 233.614 502.255 234.851 C 499.564 236.093 497.916 235.228 497.719 235.063 C 497.522 234.896 498.709 234.644 499.029 234.188 C 499.347 233.735 495.651 233.025 494.658 232.641 C 493.663 232.255 488.342 231.576 486.467 230.405 C 484.595 229.236 484.98 228.216 486.885 226.248 C 488.791 224.278 490.573 222.091 493.74 220.314 C 496.917 218.532 496.547 217.058 496.905 216.326 C 497.263 215.595 496.934 213.699 496.453 213.069 C 495.973 212.439 495.232 211.606 495.336 211.093 C 495.44 210.582 495.016 208.818 496.357 207.81 C 497.691 206.808 498.151 205.881 501.538 204.607 C 504.94 203.328 507.605 202.235 511.24 201.283 C 514.862 200.335 519.523 200.205 522.099 199.532 C 524.671 198.86 526.261 198.38 526.923 197.877 C 527.585 197.374 528.602 197.233 527.812 196.563 C 527.028 195.898 525.738 195.308 526.808 194.822 C 527.881 194.335 530.734 194.54 532.028 195.076"></path>
		
			<path fill="#7BD968" stroke="#598C4E" stroke-width="0.4563" stroke-linecap="round" stroke-linejoin="bevel" stroke-miterlimit="10" d="M 499.64 189.378 C 499.144 189.507 497.159 190.118 497.172 190.823 C 497.185 191.525 497.551 192.257 498.993 192.319"></path>
	</g>
</g>
<g>
	<g>
		<path fill="#FFE563" stroke="#E8D46D" stroke-width="0.2788" stroke-linejoin="bevel" stroke-miterlimit="10" d="M 547.105 239.1 C 546.997 238.581 545.603 236.537 545.995 235.047 C 546.386 233.56 547.23 233.027 549.05 232.159 C 550.871 231.291 552.526 230.136 554.294 229.556 C 556.063 228.976 556.493 227.686 556.875 227.199 C 557.257 226.712 557.769 225.122 557.797 224.505 C 557.826 223.887 557.81 223.039 557.973 222.655 C 558.134 222.273 558.374 220.771 558.989 220.301 C 559.6 219.834 559.907 219.232 561.218 218.983 C 562.534 218.733 563.563 218.396 564.886 218.307 C 566.206 218.219 567.759 218.798 568.697 218.611 C 569.635 218.424 570.233 218.24 570.513 217.931 C 570.793 217.623 571.181 217.632 570.957 217.035 C 570.213 216.778 566.371 216.11 565.047 216.437 C 563.719 216.764 562.533 216.945 561.165 217.667 C 559.791 218.393 557.704 220.403 556.085 222.889 C 554.462 225.38 552.114 227.242 550.26 229.027 C 548.407 230.811 545.641 232.672 544.88 233.786 C 544.118 234.901 544.27 235.708 544.535 236.339 C 544.801 236.973 545.499 237.92 547.105 239.1"></path>
		<path fill="#7BD968" stroke="#598C4E" stroke-width="0.2788" stroke-linejoin="bevel" stroke-miterlimit="10" d="M 563.36 206.993 C 562.697 206.68 560.604 205.672 559.457 205.775 C 557.559 205.947 558.4 207.603 558.413 207.984 C 558.427 208.369 558.403 210.024 561.709 212.873 C 565.01 215.718 565.731 217.402 566.317 218.391 C 567.204 218.532 568.088 218.733 568.7 218.611 C 569.638 218.423 570.232 218.239 570.517 217.932 C 570.802 217.625 571.162 217.63 570.978 217.038 C 570.963 216.99 570.943 216.944 570.926 216.9 C 569.963 215.834 568.866 214.269 568.714 213.475 C 568.562 212.682 568.341 211.503 568.301 211.191 C 568.271 210.957 567.932 210.595 567.846 210.474 C 567.161 209.514 565.08 207.807 563.36 206.993"></path>
		<path fill="#7BD968" stroke="#598C4E" stroke-width="0.2788" stroke-linejoin="bevel" stroke-miterlimit="10" d="M 558.234 221.764 C 558.407 221.212 558.619 220.575 558.986 220.302 C 559.61 219.837 559.902 219.231 561.219 218.985 C 561.548 218.924 561.863 218.858 562.143 218.792 C 561.363 217.649 558.813 215.493 557.693 214.796 C 556.574 214.1 554.555 212.955 552.081 212.558 C 549.611 212.161 548.817 211.785 547.7 211.583 C 546.586 211.381 545.653 211.108 545.447 211.645 C 545.241 212.181 546.205 212.836 547.261 213.632 C 548.322 214.431 549.366 215.652 550.847 216.981 C 552.05 218.059 553.046 218.916 554.065 219.587 C 555.082 220.256 558.203 221.713 558.143 221.721 C 558.169 221.717 558.228 221.767 558.234 221.764"></path>
		<path fill="#7BD968" stroke="#598C4E" stroke-width="0.2788" stroke-linejoin="bevel" stroke-miterlimit="10" d="M 547.179 239.28 C 547.463 239.893 548.24 241.033 547.86 241.235 C 547.429 241.463 546.651 241.41 546.611 241.55 C 545.465 241.736 543.901 241.749 543.136 241.242 C 542.366 240.731 542.647 240.618 542.71 240.321 C 542.773 240.022 543.477 239.803 544.13 239.721 C 544.778 239.64 546.396 239.273 547.179 239.28"></path>
		<path fill="#7BD968" stroke="#598C4E" stroke-width="0.2788" stroke-linejoin="bevel" stroke-miterlimit="10" d="M 546.43 234.012 C 546.907 233.236 547.736 232.794 549.053 232.158 C 550.159 231.624 551.225 230.983 552.276 230.442 C 550.6 229.275 547.255 227.327 542.359 227.35 C 539.771 227.362 539.002 227.73 537.747 227.905 C 536.487 228.08 533.491 227.668 531.825 228.243 C 530.994 228.53 530.849 228.713 531.174 229.215 C 531.5 229.718 531.572 229.849 532.273 230.172 C 532.972 230.494 535.341 231.683 537.012 232.14 C 538.689 232.599 541.12 233.203 542.261 233.417 C 543.402 233.631 546.37 233.968 546.337 233.972 C 546.354 233.97 546.421 234.011 546.43 234.012"></path>
		<path fill="#94AEFF" stroke="#4464C7" stroke-width="0.2788" stroke-linejoin="bevel" stroke-miterlimit="10" d="M 567.851 210.476 C 567.771 210.838 566.693 210.475 566.686 210.474 C 566.893 210.923 566.801 211.057 566.719 211.143 C 567.461 211.633 568.322 212.544 568.331 213.139 C 568.34 213.738 568.42 214.314 566.653 213.606 C 566.671 214.397 567.345 215.542 567.253 215.795 C 567.159 216.049 566.829 216.111 566.669 216.051 C 566.501 215.988 565.86 215.79 565.654 215.68 C 565.436 215.563 565.079 215.311 565.034 215.136 C 564.989 214.962 565.23 214.911 565.446 214.979 C 565.668 215.049 566.006 215.249 566.118 215.199 C 566.226 215.152 566.177 214.965 566.129 214.829 C 566.081 214.696 565.643 213.195 565.542 212.997 C 564.826 212.563 563.588 211.556 563.546 210.748 C 563.504 209.939 564.02 210.053 564.54 210.233 C 565.059 210.413 565.455 210.544 565.458 210.544 C 565.392 210.142 565.421 210.224 565.413 209.979 C 564.546 209.398 563.243 208.44 563.122 207.606 C 563.001 206.77 563.74 206.695 565.527 207.624 C 565.542 207.236 565.692 207.449 565.691 207.449 C 566.597 207.962 566.589 207.964 566.592 207.963 C 566.593 207.963 566.63 208.518 566.627 208.517 C 567.824 209.225 567.903 210.24 567.851 210.476"></path>
		<path fill="#FFFFFF" stroke="#4464C7" stroke-width="0.2788" stroke-linejoin="bevel" stroke-miterlimit="10" d="M 566.894 209.132 C 567.301 209.8 566.774 210.129 566.34 209.995 C 565.912 209.863 564.52 209.101 564.103 208.533 C 563.693 207.976 563.709 207.377 564.271 207.514 C 564.834 207.652 566.432 208.374 566.894 209.132"></path>
		<path fill="#E0B577" stroke="#A87C3B" stroke-width="0.2788" stroke-linejoin="bevel" stroke-miterlimit="10" d="M 565.6 208.551 C 565.892 208.806 565.948 209.265 565.674 209.252 C 565.4 209.239 565.025 208.978 564.898 208.796 C 564.773 208.617 564.296 208.037 564.62 208.085 C 564.949 208.134 565.227 208.226 565.6 208.551"></path>
		<path fill="#FFFFFF" stroke="#4464C7" stroke-width="0.2788" stroke-linejoin="bevel" stroke-miterlimit="10" d="M 564.845 210.73 C 565.739 210.957 566.505 211.363 566.906 211.775 C 567.307 212.186 567.623 212.935 566.964 212.98 C 566.309 213.024 565.732 212.831 565.378 212.545 C 565.023 212.257 564.318 211.59 564.301 211.28 C 564.285 210.971 564.36 210.607 564.845 210.73"></path>
		<path fill="#E0B577" stroke="#A87C3B" stroke-width="0.2788" stroke-linejoin="bevel" stroke-miterlimit="10" d="M 566.079 211.692 C 566.248 211.91 566.007 212.275 565.858 212.241 C 565.713 212.208 565.323 211.959 565.32 211.881 C 565.317 211.806 564.98 211.193 565.332 211.257 C 565.683 211.32 565.826 211.366 566.079 211.692"></path>
		<path fill="#C79C52" stroke="#806434" stroke-width="0.2788" stroke-linejoin="bevel" stroke-miterlimit="10" d="M 568.761 241.998 C 570.698 241.384 573.205 240.013 574.455 239.135 C 575.245 238.58 576.211 237.579 576.955 236.463 C 576.405 236.516 574.991 236.258 573.53 235.25 C 573.017 236.676 569.843 238.998 568.354 239.42 C 568.235 240.145 568.439 241.428 568.761 241.998"></path>
		<path fill="#C79C52" stroke="#806434" stroke-width="0.2788" stroke-linejoin="bevel" stroke-miterlimit="10" d="M 562.74 238.684 C 564.362 239.41 566.378 239.459 568.363 239.428 C 568.223 240.14 568.442 241.43 568.762 242.001 C 568.367 242.153 567.943 242.242 567.641 242.313 C 565.952 242.71 561.741 243.23 559.679 243.091 C 557.958 242.976 556.023 242.61 554.815 242.39 C 557.177 241.816 560.276 240.658 561.294 240.01 C 562.304 239.368 562.747 238.689 562.74 238.684"></path>
		<path fill="#C79C52" stroke="#806434" stroke-width="0.2788" stroke-linejoin="bevel" stroke-miterlimit="10" d="M 554.82 242.388 C 557.177 241.815 560.28 240.657 561.296 240.008 C 562.303 239.366 562.76 238.691 562.734 238.681 C 562.936 238.198 561.689 235.033 561.628 235.018 C 560.544 234.235 559.66 234.398 558.478 234.103 C 557.293 233.807 555.453 233.112 553.654 232.243 C 552.007 233.01 549.321 234.014 548.824 235.589 C 548.256 237.392 549.349 237.927 549.976 239.274 C 550.52 240.443 550.943 241.579 549.648 242.134 C 549.643 242.132 549.646 242.135 549.641 242.133 C 551.11 242.022 553.295 242.174 554.248 242.303 C 554.397 242.323 554.608 242.359 554.82 242.388"></path>
		<path fill="#C79C52" stroke="#806434" stroke-width="0.2788" stroke-linejoin="bevel" stroke-miterlimit="10" d="M 567.845 231.693 C 567.837 228.833 562.917 224.486 560.799 223.542 C 560.806 223.723 560.767 223.931 560.723 224.15 C 560.277 226.377 559.955 226.751 559.664 227.963 C 559.373 229.18 558.449 229.556 557.863 230.047 C 557.271 230.542 555.777 231.146 554.284 231.934 C 554.101 232.03 553.886 232.136 553.652 232.243 C 555.457 233.11 557.29 233.807 558.477 234.104 C 559.661 234.401 560.531 234.234 561.635 235.02 C 562.866 235.083 566.471 234.345 567.845 231.693"></path>
		<path fill="#C79C52" stroke="#806434" stroke-width="0.2788" stroke-linejoin="bevel" stroke-miterlimit="10" d="M 568.354 239.423 C 569.853 239.003 573.006 236.673 573.54 235.257 C 573.725 234.766 573.663 233.681 573.223 233.027 C 572.585 233.021 570.862 232.873 570.129 232.671 C 569.394 232.469 568.162 231.821 567.86 231.693 C 566.441 234.344 562.888 235.085 561.626 235.019 C 561.69 235.037 562.928 238.198 562.736 238.685 C 564.362 239.409 566.387 239.463 568.354 239.423"></path>
		<path fill="#C79C52" stroke="#806434" stroke-width="0.2788" stroke-linejoin="bevel" stroke-miterlimit="10" d="M 573.204 233.026 C 574.416 231.401 574.232 227.411 573.983 226.145 C 573.732 224.875 570.903 221.212 569.477 220.2 C 568.919 220.218 568.25 220.21 567.542 220.159 C 564.469 219.94 562.941 220.421 562.18 220.98 C 561.499 221.48 561.135 221.829 560.807 223.541 C 562.894 224.485 567.855 228.831 567.834 231.692 C 568.188 231.818 569.388 232.467 570.124 232.669 C 570.859 232.872 572.603 233.024 573.204 233.026"></path>
		<path fill="#C79C52" stroke="#806434" stroke-width="0.2788" stroke-linejoin="bevel" stroke-miterlimit="10" d="M 573.214 233.028 C 574.365 231.393 574.301 227.421 573.953 226.14 C 575.865 226.76 578.043 226.346 578.333 225.714 C 578.445 225.988 578.497 226.255 578.578 226.546 C 579.132 228.539 579.057 231.716 578.466 233.479 C 578.182 234.327 577.676 235.445 576.955 236.462 C 576.416 236.52 574.978 236.253 573.542 235.256 C 573.741 234.776 573.657 233.672 573.214 233.028"></path>
		<path fill="#C79C52" stroke="#806434" stroke-width="0.2788" stroke-linejoin="bevel" stroke-miterlimit="10" d="M 569.493 220.202 C 571.555 220.151 572.918 219.737 573.299 219.276 C 573.589 218.924 573.624 218.452 573.424 217.836 C 573.964 218.984 574.423 219.048 575.783 221.084 C 576.946 222.827 577.78 224.136 578.338 225.717 C 578.036 226.347 575.873 226.759 573.952 226.142 C 573.811 224.884 570.841 221.205 569.493 220.202"></path>
		<path fill="#FFC163" stroke="#B38645" stroke-width="0.2788" stroke-linejoin="bevel" stroke-miterlimit="10" d="M 572.577 216.356 C 573.601 217.748 573.777 218.677 573.3 219.277 C 572.823 219.88 570.617 220.381 567.543 220.161 C 564.472 219.941 562.953 220.426 562.181 220.982 C 561.413 221.535 561.087 221.913 560.705 224.149 C 560.323 226.387 559.939 226.751 559.664 227.966 C 559.388 229.185 558.444 229.556 557.865 230.049 C 557.282 230.545 555.77 231.142 554.288 231.936 C 552.798 232.734 549.394 233.795 548.82 235.594 C 548.246 237.394 549.349 237.933 549.972 239.276 C 550.594 240.618 551.076 241.925 548.931 242.338 C 546.781 242.752 546.564 241.696 546.61 241.557 C 546.657 241.415 547.42 241.467 547.858 241.241 C 548.297 241.016 547.243 239.622 547.11 239.106 C 546.977 238.589 545.607 236.544 545.994 235.053 C 546.38 233.566 547.23 233.033 549.047 232.166 C 550.869 231.297 552.527 230.143 554.293 229.564 C 556.061 228.983 556.494 227.692 556.876 227.207 C 557.259 226.72 557.772 225.13 557.8 224.512 C 557.827 223.895 557.815 223.047 557.975 222.662 C 558.135 222.28 558.379 220.78 558.994 220.31 C 559.604 219.843 559.914 219.241 561.223 218.992 C 562.539 218.742 563.567 218.405 564.893 218.317 C 566.214 218.229 567.765 218.806 568.704 218.62 C 569.642 218.434 570.237 218.25 570.522 217.942 C 570.806 217.634 571.169 217.64 570.982 217.047 C 570.797 216.46 570.419 215.863 570.827 215.618 C 571.237 215.372 572.197 215.838 572.577 216.356"></path>
		
			<path fill="#7BD968" stroke="#598C4E" stroke-width="0.2788" stroke-linecap="round" stroke-linejoin="bevel" stroke-miterlimit="10" d="M 560.826 206.814 C 560.628 206.805 559.83 206.803 559.891 207.335 C 559.951 207.864 560.154 208.507 560.749 208.887"></path>
	</g>
</g>
<g>
	<g>
		<path fill="#FFE563" stroke="#E8D46D" stroke-width="0.1233" stroke-linejoin="bevel" stroke-miterlimit="10" d="M 571.551 244.015 C 571.561 243.796 571.36 242.957 571.644 242.28 C 571.927 241.606 572.229 241.339 572.845 240.889 C 573.46 240.44 574.06 239.88 574.632 239.564 C 575.203 239.248 575.486 238.679 575.656 238.458 C 575.826 238.237 576.181 237.536 576.276 237.269 C 576.371 237.001 576.489 236.633 576.592 236.461 C 576.695 236.29 576.994 235.626 577.248 235.402 C 577.5 235.179 577.685 234.907 578.115 234.761 C 578.546 234.614 578.914 234.436 579.338 234.358 C 579.761 234.28 580.161 234.48 580.501 234.368 C 580.842 234.256 581.074 234.158 581.225 234.016 C 581.375 233.874 581.5 233.866 581.539 233.615 C 581.31 233.531 580.184 233.352 579.717 233.533 C 579.249 233.713 578.853 233.826 578.323 234.182 C 577.791 234.539 576.845 235.486 576.022 236.619 C 575.197 237.756 574.303 238.638 573.562 239.48 C 572.821 240.321 571.825 241.24 571.473 241.765 C 571.12 242.292 571.07 242.647 571.076 242.916 C 571.082 243.186 571.179 243.578 571.551 244.015"></path>
		<path fill="#7BD968" stroke="#598C4E" stroke-width="0.1233" stroke-linejoin="bevel" stroke-miterlimit="10" d="M 581.102 229.273 C 580.966 229.135 580.547 228.679 580.191 228.734 C 579.602 228.824 579.484 229.616 579.413 229.791 C 579.341 229.966 578.954 230.78 579.376 232.014 C 579.799 233.247 579.768 233.929 579.769 234.354 C 580.03 234.383 580.279 234.443 580.501 234.37 C 580.842 234.258 581.073 234.16 581.224 234.018 C 581.375 233.876 581.496 233.866 581.541 233.617 C 581.545 233.597 581.546 233.578 581.55 233.558 C 581.411 233.131 581.351 232.47 581.458 232.121 C 581.565 231.773 581.735 231.251 581.787 231.111 C 581.826 231.006 581.792 230.85 581.788 230.797 C 581.759 230.38 581.456 229.632 581.102 229.273"></path>
		<path fill="#7BD968" stroke="#598C4E" stroke-width="0.1233" stroke-linejoin="bevel" stroke-miterlimit="10" d="M 576.8 236.066 C 576.934 235.82 577.095 235.534 577.245 235.404 C 577.5 235.182 577.683 234.909 578.113 234.763 C 578.22 234.727 578.323 234.691 578.421 234.651 C 578.368 234.182 578.02 233.269 577.835 232.97 C 577.651 232.671 577.304 232.174 576.729 231.999 C 576.154 231.824 576.029 231.639 575.786 231.539 C 575.543 231.439 575.368 231.296 575.208 231.556 C 575.048 231.816 575.155 232.14 575.268 232.522 C 575.381 232.903 575.416 233.478 575.566 234.074 C 575.688 234.558 575.814 234.927 575.979 235.209 C 576.143 235.491 576.789 236.053 576.782 236.05 C 576.785 236.051 576.8 236.066 576.8 236.066"></path>
		<path fill="#7BD968" stroke="#598C4E" stroke-width="0.1233" stroke-linejoin="bevel" stroke-miterlimit="10" d="M 571.554 244.091 C 571.58 244.347 571.715 244.808 571.582 244.917 C 571.429 245.042 571.194 245.062 571.168 245.127 C 570.798 245.276 570.304 245.371 570.12 245.182 C 569.935 244.993 570.036 244.926 570.087 244.788 C 570.139 244.649 570.378 244.514 570.587 244.444 C 570.795 244.374 571.321 244.128 571.554 244.091"></path>
		<path fill="#7BD968" stroke="#598C4E" stroke-width="0.1233" stroke-linejoin="bevel" stroke-miterlimit="10" d="M 571.885 241.806 C 572.111 241.445 572.398 241.218 572.844 240.89 C 573.218 240.616 573.592 240.297 573.955 240.023 C 573.605 239.586 572.942 238.843 571.64 238.948 C 570.953 239.003 570.692 239.181 570.328 239.284 C 569.965 239.388 569.244 239.22 568.7 239.5 C 568.428 239.639 568.354 239.73 568.349 239.972 C 568.345 240.215 568.344 240.274 568.476 240.425 C 568.607 240.574 569.066 241.1 569.468 241.27 C 569.871 241.44 570.472 241.643 570.768 241.698 C 571.066 241.754 571.87 241.793 571.864 241.79 C 571.867 241.791 571.884 241.805 571.885 241.806"></path>
		<path fill="#94AEFF" stroke="#4464C7" stroke-width="0.1233" stroke-linejoin="bevel" stroke-miterlimit="10" d="M 581.788 230.797 C 581.685 230.964 581.409 230.822 581.409 230.822 C 581.381 231.022 581.324 231.084 581.279 231.124 C 581.417 231.331 581.513 231.718 581.398 231.983 C 581.283 232.249 581.192 232.504 580.759 232.234 C 580.609 232.588 580.61 233.075 580.533 233.189 C 580.456 233.303 580.338 233.34 580.298 233.318 C 580.256 233.295 580.089 233.225 580.045 233.181 C 579.998 233.136 579.933 233.034 579.952 232.957 C 579.971 232.88 580.056 232.851 580.111 232.876 C 580.167 232.901 580.237 232.981 580.282 232.956 C 580.325 232.932 580.346 232.85 580.355 232.791 C 580.364 232.735 580.516 232.076 580.526 231.987 C 580.384 231.811 580.205 231.379 580.359 231.008 C 580.514 230.638 580.65 230.681 580.775 230.754 C 580.9 230.827 580.998 230.878 580.999 230.878 C 581.062 230.695 581.054 230.733 581.103 230.621 C 580.949 230.374 580.75 229.95 580.894 229.561 C 581.039 229.171 581.28 229.129 581.645 229.534 C 581.736 229.353 581.737 229.45 581.737 229.45 C 581.916 229.673 581.915 229.673 581.915 229.673 C 581.915 229.673 581.807 229.928 581.806 229.928 C 582.042 230.232 581.855 230.689 581.788 230.797"></path>
		<path fill="#FFFFFF" stroke="#4464C7" stroke-width="0.1233" stroke-linejoin="bevel" stroke-miterlimit="10" d="M 581.76 230.205 C 581.75 230.502 581.509 230.662 581.396 230.61 C 581.286 230.56 581.006 230.236 580.999 229.979 C 580.992 229.727 581.127 229.446 581.272 229.503 C 581.418 229.559 581.772 229.868 581.76 230.205"></path>
		<path fill="#E0B577" stroke="#A87C3B" stroke-width="0.1233" stroke-linejoin="bevel" stroke-miterlimit="10" d="M 581.468 229.962 C 581.506 230.074 581.426 230.283 581.342 230.283 C 581.257 230.283 581.194 230.169 581.193 230.087 C 581.192 230.007 581.166 229.745 581.258 229.762 C 581.351 229.78 581.419 229.818 581.468 229.962"></path>
		<path fill="#FFFFFF" stroke="#4464C7" stroke-width="0.1233" stroke-linejoin="bevel" stroke-miterlimit="10" d="M 580.767 230.976 C 581 231.061 581.163 231.229 581.209 231.405 C 581.255 231.581 581.205 231.908 580.984 231.945 C 580.764 231.982 580.62 231.909 580.565 231.788 C 580.51 231.666 580.426 231.379 580.485 231.238 C 580.543 231.098 580.641 230.929 580.767 230.976"></path>
		<path fill="#E0B577" stroke="#A87C3B" stroke-width="0.1233" stroke-linejoin="bevel" stroke-miterlimit="10" d="M 580.96 231.386 C 580.969 231.481 580.819 231.652 580.778 231.64 C 580.738 231.628 580.666 231.524 580.681 231.489 C 580.695 231.455 580.714 231.184 580.813 231.206 C 580.91 231.227 580.946 231.244 580.96 231.386"></path>
		<path fill="#C79C52" stroke="#806434" stroke-width="0.1233" stroke-linejoin="bevel" stroke-miterlimit="10" d="M 578.134 244.063 C 578.805 243.703 579.737 243.02 580.228 242.607 C 580.538 242.345 580.937 241.895 581.284 241.412 C 581.076 241.455 580.565 241.409 580.124 241.067 C 579.833 241.665 578.619 242.764 578.113 243.018 C 578.033 243.321 578.046 243.842 578.134 244.063"></path>
		<path fill="#C79C52" stroke="#806434" stroke-width="0.1233" stroke-linejoin="bevel" stroke-miterlimit="10" d="M 576.342 243.006 C 576.809 243.221 577.454 243.134 578.115 243.02 C 578.031 243.32 578.046 243.842 578.135 244.063 C 577.994 244.144 577.852 244.208 577.747 244.252 C 577.161 244.504 575.776 244.965 575.131 245.028 C 574.592 245.082 574.004 245.038 573.645 245.016 C 574.415 244.626 575.45 243.962 575.808 243.636 C 576.162 243.314 576.344 243.007 576.342 243.006"></path>
		<path fill="#C79C52" stroke="#806434" stroke-width="0.1233" stroke-linejoin="bevel" stroke-miterlimit="10" d="M 573.644 245.017 C 574.414 244.627 575.45 243.962 575.807 243.637 C 576.162 243.314 576.345 243.008 576.341 243.005 C 576.423 242.795 576.267 241.546 576.26 241.541 C 575.988 241.27 575.71 241.38 575.383 241.312 C 575.054 241.243 574.576 241.035 574.147 240.741 C 573.594 241.138 572.713 241.685 572.407 242.393 C 572.056 243.206 572.329 243.387 572.399 243.94 C 572.46 244.42 572.505 244.89 572.059 245.21 C 572.058 245.209 572.057 245.21 572.056 245.21 C 572.519 245.076 573.185 245.012 573.472 245.013 C 573.518 245.013 573.581 245.016 573.644 245.017"></path>
		<path fill="#C79C52" stroke="#806434" stroke-width="0.1233" stroke-linejoin="bevel" stroke-miterlimit="10" d="M 578.502 239.877 C 578.729 238.72 577.739 237.107 577.29 236.752 C 577.256 236.834 577.218 236.923 577.175 237.018 C 576.741 237.986 576.603 238.155 576.372 238.679 C 576.139 239.206 575.831 239.401 575.604 239.633 C 575.376 239.867 574.877 240.183 574.362 240.583 C 574.3 240.631 574.226 240.686 574.148 240.742 C 574.575 241.037 575.053 241.246 575.382 241.313 C 575.711 241.38 575.988 241.27 576.259 241.543 C 576.636 241.507 577.802 241.028 578.502 239.877"></path>
		<path fill="#C79C52" stroke="#806434" stroke-width="0.1233" stroke-linejoin="bevel" stroke-miterlimit="10" d="M 578.113 243.019 C 578.621 242.764 579.833 241.663 580.127 241.068 C 580.228 240.862 580.28 240.422 580.186 240.177 C 579.959 240.203 579.387 240.22 579.16 240.172 C 578.933 240.124 578.588 239.915 578.503 239.878 C 577.799 241.026 576.639 241.509 576.258 241.544 C 576.266 241.549 576.421 242.795 576.342 243.007 C 576.807 243.222 577.456 243.135 578.113 243.019"></path>
		<path fill="#C79C52" stroke="#806434" stroke-width="0.1233" stroke-linejoin="bevel" stroke-miterlimit="10" d="M 580.183 240.178 C 580.708 239.471 581.096 237.851 581.167 237.341 C 581.238 236.83 580.767 235.417 580.496 235.022 C 580.301 235.053 580.084 235.071 579.867 235.074 C 578.919 235.083 578.392 235.338 578.076 235.604 C 577.795 235.842 577.625 236.009 577.289 236.752 C 577.736 237.105 578.729 238.72 578.499 239.876 C 578.588 239.916 578.931 240.123 579.158 240.172 C 579.386 240.222 579.961 240.205 580.183 240.178"></path>
		<path fill="#C79C52" stroke="#806434" stroke-width="0.1233" stroke-linejoin="bevel" stroke-miterlimit="10" d="M 580.184 240.179 C 580.701 239.468 581.106 237.856 581.163 237.339 C 581.752 237.517 582.632 237.265 582.83 236.999 C 582.833 237.107 582.825 237.213 582.817 237.33 C 582.766 238.125 582.419 239.409 582.06 240.144 C 581.887 240.499 581.609 240.969 581.283 241.413 C 581.077 241.458 580.562 241.408 580.126 241.069 C 580.231 240.864 580.278 240.422 580.184 240.179"></path>
		<path fill="#C79C52" stroke="#806434" stroke-width="0.1233" stroke-linejoin="bevel" stroke-miterlimit="10" d="M 580.499 235.023 C 581.185 234.931 581.742 234.706 581.954 234.498 C 582.115 234.34 582.214 234.136 582.249 233.881 C 582.245 234.351 582.382 234.368 582.552 235.174 C 582.699 235.864 582.83 236.371 582.832 237 C 582.632 237.266 581.753 237.518 581.164 237.34 C 581.25 236.835 580.76 235.415 580.499 235.023"></path>
		<path fill="#FFC163" stroke="#B38645" stroke-width="0.1233" stroke-linejoin="bevel" stroke-miterlimit="10" d="M 582.222 233.271 C 582.325 233.839 582.225 234.227 581.954 234.498 C 581.682 234.769 580.817 235.063 579.867 235.073 C 578.919 235.084 578.394 235.338 578.076 235.605 C 577.761 235.869 577.594 236.047 577.171 237.017 C 576.747 237.989 576.6 238.155 576.371 238.68 C 576.141 239.208 575.828 239.4 575.603 239.634 C 575.378 239.868 574.872 240.183 574.362 240.583 C 573.848 240.986 572.756 241.585 572.403 242.396 C 572.049 243.208 572.328 243.39 572.396 243.941 C 572.465 244.492 572.521 245.032 571.817 245.342 C 571.114 245.652 571.139 245.194 571.167 245.129 C 571.195 245.065 571.427 245.042 571.581 244.917 C 571.734 244.794 571.541 244.236 571.55 244.016 C 571.559 243.795 571.359 242.957 571.643 242.28 C 571.925 241.606 572.227 241.34 572.844 240.889 C 573.46 240.439 574.059 239.88 574.631 239.564 C 575.202 239.248 575.485 238.68 575.654 238.458 C 575.823 238.236 576.18 237.535 576.275 237.268 C 576.37 237.001 576.489 236.632 576.591 236.46 C 576.694 236.289 576.994 235.625 577.247 235.402 C 577.5 235.179 577.686 234.906 578.114 234.76 C 578.545 234.613 578.913 234.435 579.338 234.357 C 579.762 234.279 580.16 234.479 580.501 234.367 C 580.842 234.255 581.074 234.157 581.225 234.015 C 581.375 233.872 581.497 233.863 581.541 233.614 C 581.585 233.367 581.567 233.116 581.754 232.999 C 581.939 232.883 582.183 233.06 582.222 233.271"></path>
		
			<path fill="#7BD968" stroke="#598C4E" stroke-width="0.1233" stroke-linecap="round" stroke-linejoin="bevel" stroke-miterlimit="10" d="M 580.371 229.216 C 580.313 229.214 580.078 229.22 579.981 229.472 C 579.885 229.721 579.807 230.022 579.904 230.192"></path>
	</g>
</g>
<polygon fill="#7BD968" points="400.823,211.973 400.821,211.973 400.83,211.979 "></polygon>
<path fill="none" d="M 558.382 212.597 C 481.115 301.678 488.482 374.952 564.88 540.052 C 641.278 705.151 611.909 741.908 341.213 720.729 C 70.5162 699.55 93.0913 696.716 62.3714 476.1 C 31.6515 255.485 667.232 87.1032 558.382 212.597"></path>
</svg>
