<svg version="1.1" id="Layer_1" xmlns="http://www.w3.org/2000/svg" xmlns:xlink="http://www.w3.org/1999/xlink" x="0px" y="0px" viewBox="0 0 792 612" enable-background="new 0 0 792 612" xml:space="preserve"><defs></defs><path d="M664.3,297.4C655.5999999999999,265.5,650.0999999999999,235.79999999999998,635.4,208.79999999999998C617,175.09999999999997,595.4,136.7,561.6,116.29999999999998C533.6,99.29999999999998,501.20000000000005,100.39999999999998,470.8,109.89999999999998C453.8,115.19999999999997,436.5,122.19999999999997,420.7,130.39999999999998C354.4,164.39999999999998,303.79999999999995,226.79999999999998,244,255.29999999999998C210,271.5,166.1,286.7,135.4,315.7C79.30000000000001,368.59999999999997,113.10000000000001,452.2,194.4,468.1C322.5,493.1,473.5,482.8,587.4,472.20000000000005C630.9,468.20000000000005,642,438.40000000000003,657.6999999999999,396.50000000000006C668.6999999999999,393.80000000000007,687.0999999999999,367.80000000000007,677.0999999999999,358.50000000000006C655.0999999999999,338.20000000000005,674.0999999999999,381.80000000000007,621.8999999999999,381.90000000000003C598.5999999999999,381.90000000000003,570.8999999999999,384.90000000000003,549.2999999999998,378.1C517.2999999999998,368.1,477.79999999999984,322.90000000000003,441.6999999999998,331.5C412.29999999999984,338.5,383.0999999999998,381.6,346.8999999999998,395.9C335.99999999999983,400.2,310.3999999999998,402.5,295.8999999999998,398.4C275.99999999999983,392.79999999999995,226.69999999999982,368.7,229.7999999999998,349.7C233.59999999999982,326,258.79999999999984,348.09999999999997,263.99999999999983,353.4C274.1999999999998,363.7,289.09999999999985,378.09999999999997,305.79999999999984,381.5C359.6999999999998,392.5,399.6999999999998,360.2,413.6999999999998,326.5C436.29999999999984,272.1,522.9999999999998,367.8,591.5999999999998,366.6C622.3999999999997,366.1,674.4999999999998,336.3,683.5999999999998,304.8C686.7,295,671.4,292.8,664.3,297.4" class="undeformed-curve" stroke="#bbbbbb" style="fill-opacity: 0; stroke-width: 3px; stroke-dasharray: 10px, 10px;"></path><path d="M531.4,241.9C522.4,236.70000000000002,513,209.8,511.59999999999997,198.5C510.59999999999997,190.2,519.6999999999999,175.8,525,169.3C567.1,116.60000000000001,643,213.10000000000002,578.5,245.3C563,250.2,545.8,248.8,531.4,241.9" class="undeformed-curve" stroke="#bbbbbb" style="fill-opacity: 0; stroke-width: 3px; stroke-dasharray: 10px, 10px;"></path><path d="M531.4,241.9C536.6999999999999,222.5,525.9,202,511,190.10000000000002C496.6,178.60000000000002,481.2,179.3,464.8,184.70000000000002C425.3,197.70000000000002,424.3,251.60000000000002,460.2,265.20000000000005C484.9,274.6,522.4,274.7,531.4,241.9" class="undeformed-curve" stroke="#bbbbbb" style="fill-opacity: 0; stroke-width: 3px; stroke-dasharray: 10px, 10px;"></path><path d="M508.2,229.7C516.6,221.5,510,211.2,503.4,204.6C453.5,184.9,471.8,267.2,508.2,229.7" class="undeformed-curve" stroke="#bbbbbb" style="fill-opacity: 0; stroke-width: 3px; stroke-dasharray: 10px, 10px;"></path><path d="M585.7,209.4C598.6,184.70000000000002,555.2,178.20000000000002,552.3000000000001,199.9C550,216,575.5,222.5,585.7,209.4" class="undeformed-curve" stroke="#bbbbbb" style="fill-opacity: 0; stroke-width: 3px; stroke-dasharray: 10px, 10px;"></path><path d="M664.3,297.4C671.4,292.7,686.5999999999999,295,683.8,304.7C674.6999999999999,336.2,622.5,366,591.8,366.5C523.1999999999999,367.7,436.49999999999994,272,413.9,326.4C399.9,360.09999999999997,359.9,392.4,306,381.4C289.3,378,274.4,363.59999999999997,264.2,353.29999999999995C258.9,347.99999999999994,233.79999999999998,325.99999999999994,230,349.59999999999997C226.9,368.59999999999997,276.2,392.7,296.1,398.29999999999995C310.6,402.4,336.1,400.09999999999997,347.1,395.79999999999995C383.40000000000003,381.49999999999994,412.6,338.4,441.90000000000003,331.4C478.00000000000006,322.79999999999995,517.5,368,549.5,378C571.1,384.8,598.8,381.8,622.1,381.8C674.2,381.7,655.3000000000001,338.1,677.3000000000001,358.40000000000003C687.3000000000001,367.70000000000005,668.9000000000001,393.70000000000005,657.9000000000001,396.40000000000003C634.5000000000001,402.1,573.3000000000001,399.1,549.5000000000001,394.40000000000003C515.8000000000001,387.8,468.10000000000014,340.8,436.7000000000001,353.20000000000005C416.2000000000001,361.30000000000007,409.9000000000001,372.6,384.9000000000001,389.70000000000005C341.30000000000007,419.50000000000006,310.30000000000007,426.70000000000005,262.7000000000001,408.20000000000005C233.9000000000001,397.00000000000006,179.2000000000001,322.20000000000005,233.8000000000001,318.80000000000007C266.80000000000007,316.70000000000005,268.2000000000001,337.20000000000005,291.5000000000001,356.4000000000001C316.0000000000001,376.6000000000001,380.10000000000014,381.4000000000001,399.2000000000001,319.7000000000001C417.9000000000001,259.4000000000001,527.0000000000001,333.0000000000001,587.8000000000001,345.3000000000001C613.3,350.4,671.4,323.2,664.3,297.4" class="undeformed-curve" stroke="#bbbbbb" style="fill-opacity: 0; stroke-width: 3px; stroke-dasharray: 10px, 10px;"></path><line x1="664.2999877929688" x2="655.5999755859375" y1="297.3999938964844" y2="265.5" class="control-point-tangents" stroke="#000000" style="stroke-width: 2px;"></line><line x1="635.4000244140625" x2="650.0999755859375" y1="208.8000030517578" y2="235.8000030517578" class="control-point-tangents" stroke="#000000" style="stroke-width: 2px;"></line><line x1="635.4000244140625" x2="617" y1="208.8000030517578" y2="175.10000610351562" class="control-point-tangents" stroke="#000000" style="stroke-width: 2px;"></line><line x1="561.5999755859375" x2="595.4000244140625" y1="116.30000305175781" y2="136.6999969482422" class="control-point-tangents" stroke="#000000" style="stroke-width: 2px;"></line><line x1="561.5999755859375" x2="533.5999755859375" y1="116.30000305175781" y2="99.30000305175781" class="control-point-tangents" stroke="#000000" style="stroke-width: 2px;"></line><line x1="470.79998779296875" x2="501.20001220703125" y1="109.9000015258789" y2="100.4000015258789" class="control-point-tangents" stroke="#000000" style="stroke-width: 2px;"></line><line x1="470.79998779296875" x2="453.79998779296875" y1="109.9000015258789" y2="115.19999694824219" class="control-point-tangents" stroke="#000000" style="stroke-width: 2px;"></line><line x1="420.70001220703125" x2="436.5" y1="130.39999389648438" y2="122.19999694824219" class="control-point-tangents" stroke="#000000" style="stroke-width: 2px;"></line><line x1="420.70001220703125" x2="354.3999938964844" y1="130.39999389648438" y2="164.39999389648438" class="control-point-tangents" stroke="#000000" style="stroke-width: 2px;"></line><line x1="244" x2="303.79998779296875" y1="255.3000030517578" y2="226.8000030517578" class="control-point-tangents" stroke="#000000" style="stroke-width: 2px;"></line><line x1="244" x2="210" y1="255.3000030517578" y2="271.5" class="control-point-tangents" stroke="#000000" style="stroke-width: 2px;"></line><line x1="135.39999389648438" x2="166.10000610351562" y1="315.70001220703125" y2="286.70001220703125" class="control-point-tangents" stroke="#000000" style="stroke-width: 2px;"></line><line x1="135.39999389648438" x2="79.30000305175781" y1="315.70001220703125" y2="368.6000061035156" class="control-point-tangents" stroke="#000000" style="stroke-width: 2px;"></line><line x1="194.39999389648438" x2="113.0999984741211" y1="468.1000061035156" y2="452.20001220703125" class="control-point-tangents" stroke="#000000" style="stroke-width: 2px;"></line><line x1="194.39999389648438" x2="322.5" y1="468.1000061035156" y2="493.1000061035156" class="control-point-tangents" stroke="#000000" style="stroke-width: 2px;"></line><line x1="587.4000244140625" x2="473.5" y1="472.20001220703125" y2="482.79998779296875" class="control-point-tangents" stroke="#000000" style="stroke-width: 2px;"></line><line x1="587.4000244140625" x2="630.9000244140625" y1="472.20001220703125" y2="468.20001220703125" class="control-point-tangents" stroke="#000000" style="stroke-width: 2px;"></line><line x1="657.7000122070312" x2="642" y1="396.5" y2="438.3999938964844" class="control-point-tangents" stroke="#000000" style="stroke-width: 2px;"></line><line x1="657.7000122070312" x2="668.7000122070312" y1="396.5" y2="393.79998779296875" class="control-point-tangents" stroke="#000000" style="stroke-width: 2px;"></line><line x1="677.0999755859375" x2="687.0999755859375" y1="358.5" y2="367.79998779296875" class="control-point-tangents" stroke="#000000" style="stroke-width: 2px;"></line><line x1="677.0999755859375" x2="655.0999755859375" y1="358.5" y2="338.20001220703125" class="control-point-tangents" stroke="#000000" style="stroke-width: 2px;"></line><line x1="621.9000244140625" x2="674.0999755859375" y1="381.8999938964844" y2="381.79998779296875" class="control-point-tangents" stroke="#000000" style="stroke-width: 2px;"></line><line x1="621.9000244140625" x2="598.5999755859375" y1="381.8999938964844" y2="381.8999938964844" class="control-point-tangents" stroke="#000000" style="stroke-width: 2px;"></line><line x1="549.2999877929688" x2="570.9000244140625" y1="378.1000061035156" y2="384.8999938964844" class="control-point-tangents" stroke="#000000" style="stroke-width: 2px;"></line><line x1="549.2999877929688" x2="517.2999877929688" y1="378.1000061035156" y2="368.1000061035156" class="control-point-tangents" stroke="#000000" style="stroke-width: 2px;"></line><line x1="441.70001220703125" x2="477.79998779296875" y1="331.5" y2="322.8999938964844" class="control-point-tangents" stroke="#000000" style="stroke-width: 2px;"></line><line x1="441.70001220703125" x2="412.29998779296875" y1="331.5" y2="338.5" class="control-point-tangents" stroke="#000000" style="stroke-width: 2px;"></line><line x1="346.8999938964844" x2="383.1000061035156" y1="395.8999938964844" y2="381.6000061035156" class="control-point-tangents" stroke="#000000" style="stroke-width: 2px;"></line><line x1="346.8999938964844" x2="336" y1="395.8999938964844" y2="400.20001220703125" class="control-point-tangents" stroke="#000000" style="stroke-width: 2px;"></line><line x1="295.8999938964844" x2="310.3999938964844" y1="398.3999938964844" y2="402.5" class="control-point-tangents" stroke="#000000" style="stroke-width: 2px;"></line><line x1="295.8999938964844" x2="276" y1="398.3999938964844" y2="392.79998779296875" class="control-point-tangents" stroke="#000000" style="stroke-width: 2px;"></line><line x1="229.8000030517578" x2="226.6999969482422" y1="349.70001220703125" y2="368.70001220703125" class="control-point-tangents" stroke="#000000" style="stroke-width: 2px;"></line><line x1="229.8000030517578" x2="233.60000610351562" y1="349.70001220703125" y2="326" class="control-point-tangents" stroke="#000000" style="stroke-width: 2px;"></line><line x1="264" x2="258.79998779296875" y1="353.3999938964844" y2="348.1000061035156" class="control-point-tangents" stroke="#000000" style="stroke-width: 2px;"></line><line x1="264" x2="274.20001220703125" y1="353.3999938964844" y2="363.70001220703125" class="control-point-tangents" stroke="#000000" style="stroke-width: 2px;"></line><line x1="305.79998779296875" x2="289.1000061035156" y1="381.5" y2="378.1000061035156" class="control-point-tangents" stroke="#000000" style="stroke-width: 2px;"></line><line x1="305.79998779296875" x2="359.70001220703125" y1="381.5" y2="392.5" class="control-point-tangents" stroke="#000000" style="stroke-width: 2px;"></line><line x1="413.70001220703125" x2="399.70001220703125" y1="326.5" y2="360.20001220703125" class="control-point-tangents" stroke="#000000" style="stroke-width: 2px;"></line><line x1="413.70001220703125" x2="436.29998779296875" y1="326.5" y2="272.1000061035156" class="control-point-tangents" stroke="#000000" style="stroke-width: 2px;"></line><line x1="591.5999755859375" x2="523" y1="366.6000061035156" y2="367.79998779296875" class="control-point-tangents" stroke="#000000" style="stroke-width: 2px;"></line><line x1="591.5999755859375" x2="622.4000244140625" y1="366.6000061035156" y2="366.1000061035156" class="control-point-tangents" stroke="#000000" style="stroke-width: 2px;"></line><line x1="683.5999755859375" x2="674.5" y1="304.79998779296875" y2="336.29998779296875" class="control-point-tangents" stroke="#000000" style="stroke-width: 2px;"></line><line x1="683.5999755859375" x2="686.7000122070312" y1="304.79998779296875" y2="295" class="control-point-tangents" stroke="#000000" style="stroke-width: 2px;"></line><line x1="664.2999877929688" x2="671.4000244140625" y1="297.3999938964844" y2="292.79998779296875" class="control-point-tangents" stroke="#000000" style="stroke-width: 2px;"></line><line x1="531.4000244140625" x2="522.4000244140625" y1="241.89999389648438" y2="236.6999969482422" class="control-point-tangents" stroke="#000000" style="stroke-width: 2px;"></line><line x1="511.6000061035156" x2="513" y1="198.5" y2="209.8000030517578" class="control-point-tangents" stroke="#000000" style="stroke-width: 2px;"></line><line x1="511.6000061035156" x2="510.6000061035156" y1="198.5" y2="190.1999969482422" class="control-point-tangents" stroke="#000000" style="stroke-width: 2px;"></line><line x1="525" x2="519.7000122070312" y1="169.3000030517578" y2="175.8000030517578" class="control-point-tangents" stroke="#000000" style="stroke-width: 2px;"></line><line x1="525" x2="567.0999755859375" y1="169.3000030517578" y2="116.5999984741211" class="control-point-tangents" stroke="#000000" style="stroke-width: 2px;"></line><line x1="578.5" x2="643" y1="245.3000030517578" y2="213.10000610351562" class="control-point-tangents" stroke="#000000" style="stroke-width: 2px;"></line><line x1="578.5" x2="563" y1="245.3000030517578" y2="250.1999969482422" class="control-point-tangents" stroke="#000000" style="stroke-width: 2px;"></line><line x1="531.4000244140625" x2="545.7999877929688" y1="241.89999389648438" y2="248.8000030517578" class="control-point-tangents" stroke="#000000" style="stroke-width: 2px;"></line><line x1="531.4000244140625" x2="536.7000122070312" y1="241.89999389648438" y2="222.5" class="control-point-tangents" stroke="#000000" style="stroke-width: 2px;"></line><line x1="511" x2="525.9000244140625" y1="190.10000610351562" y2="202" class="control-point-tangents" stroke="#000000" style="stroke-width: 2px;"></line><line x1="511" x2="496.6000061035156" y1="190.10000610351562" y2="178.60000610351562" class="control-point-tangents" stroke="#000000" style="stroke-width: 2px;"></line><line x1="464.79998779296875" x2="481.20001220703125" y1="184.6999969482422" y2="179.3000030517578" class="control-point-tangents" stroke="#000000" style="stroke-width: 2px;"></line><line x1="464.79998779296875" x2="425.29998779296875" y1="184.6999969482422" y2="197.6999969482422" class="control-point-tangents" stroke="#000000" style="stroke-width: 2px;"></line><line x1="460.20001220703125" x2="424.29998779296875" y1="265.20001220703125" y2="251.60000610351562" class="control-point-tangents" stroke="#000000" style="stroke-width: 2px;"></line><line x1="460.20001220703125" x2="484.8999938964844" y1="265.20001220703125" y2="274.6000061035156" class="control-point-tangents" stroke="#000000" style="stroke-width: 2px;"></line><line x1="531.4000244140625" x2="522.4000244140625" y1="241.89999389648438" y2="274.70001220703125" class="control-point-tangents" stroke="#000000" style="stroke-width: 2px;"></line><line x1="508.20001220703125" x2="516.5999755859375" y1="229.6999969482422" y2="221.5" class="control-point-tangents" stroke="#000000" style="stroke-width: 2px;"></line><line x1="503.3999938964844" x2="510" y1="204.60000610351562" y2="211.1999969482422" class="control-point-tangents" stroke="#000000" style="stroke-width: 2px;"></line><line x1="503.3999938964844" x2="453.5" y1="204.60000610351562" y2="184.89999389648438" class="control-point-tangents" stroke="#000000" style="stroke-width: 2px;"></line><line x1="508.20001220703125" x2="471.79998779296875" y1="229.6999969482422" y2="267.20001220703125" class="control-point-tangents" stroke="#000000" style="stroke-width: 2px;"></line><line x1="585.7000122070312" x2="598.5999755859375" y1="209.39999389648438" y2="184.6999969482422" class="control-point-tangents" stroke="#000000" style="stroke-width: 2px;"></line><line x1="552.2999877929688" x2="555.2000122070312" y1="199.89999389648438" y2="178.1999969482422" class="control-point-tangents" stroke="#000000" style="stroke-width: 2px;"></line><line x1="552.2999877929688" x2="550" y1="199.89999389648438" y2="216" class="control-point-tangents" stroke="#000000" style="stroke-width: 2px;"></line><line x1="585.7000122070312" x2="575.5" y1="209.39999389648438" y2="222.5" class="control-point-tangents" stroke="#000000" style="stroke-width: 2px;"></line><line x1="664.2999877929688" x2="671.4000244140625" y1="297.3999938964844" y2="292.70001220703125" class="control-point-tangents" stroke="#000000" style="stroke-width: 2px;"></line><line x1="683.7999877929688" x2="686.5999755859375" y1="304.70001220703125" y2="295" class="control-point-tangents" stroke="#000000" style="stroke-width: 2px;"></line><line x1="683.7999877929688" x2="674.7000122070312" y1="304.70001220703125" y2="336.20001220703125" class="control-point-tangents" stroke="#000000" style="stroke-width: 2px;"></line><line x1="591.7999877929688" x2="622.5" y1="366.5" y2="366" class="control-point-tangents" stroke="#000000" style="stroke-width: 2px;"></line><line x1="591.7999877929688" x2="523.2000122070312" y1="366.5" y2="367.70001220703125" class="control-point-tangents" stroke="#000000" style="stroke-width: 2px;"></line><line x1="413.8999938964844" x2="436.5" y1="326.3999938964844" y2="272" class="control-point-tangents" stroke="#000000" style="stroke-width: 2px;"></line><line x1="413.8999938964844" x2="399.8999938964844" y1="326.3999938964844" y2="360.1000061035156" class="control-point-tangents" stroke="#000000" style="stroke-width: 2px;"></line><line x1="306" x2="359.8999938964844" y1="381.3999938964844" y2="392.3999938964844" class="control-point-tangents" stroke="#000000" style="stroke-width: 2px;"></line><line x1="306" x2="289.29998779296875" y1="381.3999938964844" y2="378" class="control-point-tangents" stroke="#000000" style="stroke-width: 2px;"></line><line x1="264.20001220703125" x2="274.3999938964844" y1="353.29998779296875" y2="363.6000061035156" class="control-point-tangents" stroke="#000000" style="stroke-width: 2px;"></line><line x1="264.20001220703125" x2="258.8999938964844" y1="353.29998779296875" y2="348" class="control-point-tangents" stroke="#000000" style="stroke-width: 2px;"></line><line x1="230" x2="233.8000030517578" y1="349.6000061035156" y2="326" class="control-point-tangents" stroke="#000000" style="stroke-width: 2px;"></line><line x1="230" x2="226.89999389648438" y1="349.6000061035156" y2="368.6000061035156" class="control-point-tangents" stroke="#000000" style="stroke-width: 2px;"></line><line x1="296.1000061035156" x2="276.20001220703125" y1="398.29998779296875" y2="392.70001220703125" class="control-point-tangents" stroke="#000000" style="stroke-width: 2px;"></line><line x1="296.1000061035156" x2="310.6000061035156" y1="398.29998779296875" y2="402.3999938964844" class="control-point-tangents" stroke="#000000" style="stroke-width: 2px;"></line><line x1="347.1000061035156" x2="336.1000061035156" y1="395.79998779296875" y2="400.1000061035156" class="control-point-tangents" stroke="#000000" style="stroke-width: 2px;"></line><line x1="347.1000061035156" x2="383.3999938964844" y1="395.79998779296875" y2="381.5" class="control-point-tangents" stroke="#000000" style="stroke-width: 2px;"></line><line x1="441.8999938964844" x2="412.6000061035156" y1="331.3999938964844" y2="338.3999938964844" class="control-point-tangents" stroke="#000000" style="stroke-width: 2px;"></line><line x1="441.8999938964844" x2="478" y1="331.3999938964844" y2="322.79998779296875" class="control-point-tangents" stroke="#000000" style="stroke-width: 2px;"></line><line x1="549.5" x2="517.5" y1="378" y2="368" class="control-point-tangents" stroke="#000000" style="stroke-width: 2px;"></line><line x1="549.5" x2="571.0999755859375" y1="378" y2="384.79998779296875" class="control-point-tangents" stroke="#000000" style="stroke-width: 2px;"></line><line x1="622.0999755859375" x2="598.7999877929688" y1="381.79998779296875" y2="381.79998779296875" class="control-point-tangents" stroke="#000000" style="stroke-width: 2px;"></line><line x1="622.0999755859375" x2="674.2000122070312" y1="381.79998779296875" y2="381.70001220703125" class="control-point-tangents" stroke="#000000" style="stroke-width: 2px;"></line><line x1="677.2999877929688" x2="655.2999877929688" y1="358.3999938964844" y2="338.1000061035156" class="control-point-tangents" stroke="#000000" style="stroke-width: 2px;"></line><line x1="677.2999877929688" x2="687.2999877929688" y1="358.3999938964844" y2="367.70001220703125" class="control-point-tangents" stroke="#000000" style="stroke-width: 2px;"></line><line x1="657.9000244140625" x2="668.9000244140625" y1="396.3999938964844" y2="393.70001220703125" class="control-point-tangents" stroke="#000000" style="stroke-width: 2px;"></line><line x1="657.9000244140625" x2="634.5" y1="396.3999938964844" y2="402.1000061035156" class="control-point-tangents" stroke="#000000" style="stroke-width: 2px;"></line><line x1="549.5" x2="573.2999877929688" y1="394.3999938964844" y2="399.1000061035156" class="control-point-tangents" stroke="#000000" style="stroke-width: 2px;"></line><line x1="549.5" x2="515.7999877929688" y1="394.3999938964844" y2="387.79998779296875" class="control-point-tangents" stroke="#000000" style="stroke-width: 2px;"></line><line x1="436.70001220703125" x2="468.1000061035156" y1="353.20001220703125" y2="340.79998779296875" class="control-point-tangents" stroke="#000000" style="stroke-width: 2px;"></line><line x1="436.70001220703125" x2="416.20001220703125" y1="353.20001220703125" y2="361.29998779296875" class="control-point-tangents" stroke="#000000" style="stroke-width: 2px;"></line><line x1="384.8999938964844" x2="409.8999938964844" y1="389.70001220703125" y2="372.6000061035156" class="control-point-tangents" stroke="#000000" style="stroke-width: 2px;"></line><line x1="384.8999938964844" x2="341.29998779296875" y1="389.70001220703125" y2="419.5" class="control-point-tangents" stroke="#000000" style="stroke-width: 2px;"></line><line x1="262.70001220703125" x2="310.29998779296875" y1="408.20001220703125" y2="426.70001220703125" class="control-point-tangents" stroke="#000000" style="stroke-width: 2px;"></line><line x1="262.70001220703125" x2="233.89999389648438" y1="408.20001220703125" y2="397" class="control-point-tangents" stroke="#000000" style="stroke-width: 2px;"></line><line x1="233.8000030517578" x2="179.1999969482422" y1="318.79998779296875" y2="322.20001220703125" class="control-point-tangents" stroke="#000000" style="stroke-width: 2px;"></line><line x1="233.8000030517578" x2="266.79998779296875" y1="318.79998779296875" y2="316.70001220703125" class="control-point-tangents" stroke="#000000" style="stroke-width: 2px;"></line><line x1="291.5" x2="268.20001220703125" y1="356.3999938964844" y2="337.20001220703125" class="control-point-tangents" stroke="#000000" style="stroke-width: 2px;"></line><line x1="291.5" x2="316" y1="356.3999938964844" y2="376.6000061035156" class="control-point-tangents" stroke="#000000" style="stroke-width: 2px;"></line><line x1="399.20001220703125" x2="380.1000061035156" y1="319.70001220703125" y2="381.3999938964844" class="control-point-tangents" stroke="#000000" style="stroke-width: 2px;"></line><line x1="399.20001220703125" x2="417.8999938964844" y1="319.70001220703125" y2="259.3999938964844" class="control-point-tangents" stroke="#000000" style="stroke-width: 2px;"></line><line x1="587.7999877929688" x2="527" y1="345.29998779296875" y2="333" class="control-point-tangents" stroke="#000000" style="stroke-width: 2px;"></line><line x1="587.7999877929688" x2="613.2999877929688" y1="345.29998779296875" y2="350.3999938964844" class="control-point-tangents" stroke="#000000" style="stroke-width: 2px;"></line><line x1="664.2999877929688" x2="671.4000244140625" y1="297.3999938964844" y2="323.20001220703125" class="control-point-tangents" stroke="#000000" style="stroke-width: 2px;"></line><circle cx="655.5999755859375" cy="265.5" r="5" class="control-point-inner" fill="#da5555" stroke="#000000" style="stroke-width: 2px;"></circle><circle cx="650.0999755859375" cy="235.8000030517578" r="5" class="control-point-inner" fill="#da5555" stroke="#000000" style="stroke-width: 2px;"></circle><circle cx="617" cy="175.10000610351562" r="5" class="control-point-inner" fill="#da5555" stroke="#000000" style="stroke-width: 2px;"></circle><circle cx="595.4000244140625" cy="136.6999969482422" r="5" class="control-point-inner" fill="#da5555" stroke="#000000" style="stroke-width: 2px;"></circle><circle cx="533.5999755859375" cy="99.30000305175781" r="5" class="control-point-inner" fill="#da5555" stroke="#000000" style="stroke-width: 2px;"></circle><circle cx="501.20001220703125" cy="100.4000015258789" r="5" class="control-point-inner" fill="#da5555" stroke="#000000" style="stroke-width: 2px;"></circle><circle cx="453.79998779296875" cy="115.19999694824219" r="5" class="control-point-inner" fill="#da5555" stroke="#000000" style="stroke-width: 2px;"></circle><circle cx="436.5" cy="122.19999694824219" r="5" class="control-point-inner" fill="#da5555" stroke="#000000" style="stroke-width: 2px;"></circle><circle cx="354.3999938964844" cy="164.39999389648438" r="5" class="control-point-inner" fill="#da5555" stroke="#000000" style="stroke-width: 2px;"></circle><circle cx="303.79998779296875" cy="226.8000030517578" r="5" class="control-point-inner" fill="#da5555" stroke="#000000" style="stroke-width: 2px;"></circle><circle cx="210" cy="271.5" r="5" class="control-point-inner" fill="#da5555" stroke="#000000" style="stroke-width: 2px;"></circle><circle cx="166.10000610351562" cy="286.70001220703125" r="5" class="control-point-inner" fill="#da5555" stroke="#000000" style="stroke-width: 2px;"></circle><circle cx="79.30000305175781" cy="368.6000061035156" r="5" class="control-point-inner" fill="#da5555" stroke="#000000" style="stroke-width: 2px;"></circle><circle cx="113.0999984741211" cy="452.20001220703125" r="5" class="control-point-inner" fill="#da5555" stroke="#000000" style="stroke-width: 2px;"></circle><circle cx="322.5" cy="493.1000061035156" r="5" class="control-point-inner" fill="#da5555" stroke="#000000" style="stroke-width: 2px;"></circle><circle cx="473.5" cy="482.79998779296875" r="5" class="control-point-inner" fill="#da5555" stroke="#000000" style="stroke-width: 2px;"></circle><circle cx="630.9000244140625" cy="468.20001220703125" r="5" class="control-point-inner" fill="#da5555" stroke="#000000" style="stroke-width: 2px;"></circle><circle cx="642" cy="438.3999938964844" r="5" class="control-point-inner" fill="#da5555" stroke="#000000" style="stroke-width: 2px;"></circle><circle cx="668.7000122070312" cy="393.79998779296875" r="5" class="control-point-inner" fill="#da5555" stroke="#000000" style="stroke-width: 2px;"></circle><circle cx="687.0999755859375" cy="367.79998779296875" r="5" class="control-point-inner" fill="#da5555" stroke="#000000" style="stroke-width: 2px;"></circle><circle cx="655.0999755859375" cy="338.20001220703125" r="5" class="control-point-inner" fill="#da5555" stroke="#000000" style="stroke-width: 2px;"></circle><circle cx="674.0999755859375" cy="381.79998779296875" r="5" class="control-point-inner" fill="#da5555" stroke="#000000" style="stroke-width: 2px;"></circle><circle cx="598.5999755859375" cy="381.8999938964844" r="5" class="control-point-inner" fill="#da5555" stroke="#000000" style="stroke-width: 2px;"></circle><circle cx="570.9000244140625" cy="384.8999938964844" r="5" class="control-point-inner" fill="#da5555" stroke="#000000" style="stroke-width: 2px;"></circle><circle cx="517.2999877929688" cy="368.1000061035156" r="5" class="control-point-inner" fill="#da5555" stroke="#000000" style="stroke-width: 2px;"></circle><circle cx="477.79998779296875" cy="322.8999938964844" r="5" class="control-point-inner" fill="#da5555" stroke="#000000" style="stroke-width: 2px;"></circle><circle cx="412.29998779296875" cy="338.5" r="5" class="control-point-inner" fill="#da5555" stroke="#000000" style="stroke-width: 2px;"></circle><circle cx="383.1000061035156" cy="381.6000061035156" r="5" class="control-point-inner" fill="#da5555" stroke="#000000" style="stroke-width: 2px;"></circle><circle cx="336" cy="400.20001220703125" r="5" class="control-point-inner" fill="#da5555" stroke="#000000" style="stroke-width: 2px;"></circle><circle cx="310.3999938964844" cy="402.5" r="5" class="control-point-inner" fill="#da5555" stroke="#000000" style="stroke-width: 2px;"></circle><circle cx="276" cy="392.79998779296875" r="5" class="control-point-inner" fill="#da5555" stroke="#000000" style="stroke-width: 2px;"></circle><circle cx="226.6999969482422" cy="368.70001220703125" r="5" class="control-point-inner" fill="#da5555" stroke="#000000" style="stroke-width: 2px;"></circle><circle cx="233.60000610351562" cy="326" r="5" class="control-point-inner" fill="#da5555" stroke="#000000" style="stroke-width: 2px;"></circle><circle cx="258.79998779296875" cy="348.1000061035156" r="5" class="control-point-inner" fill="#da5555" stroke="#000000" style="stroke-width: 2px;"></circle><circle cx="274.20001220703125" cy="363.70001220703125" r="5" class="control-point-inner" fill="#da5555" stroke="#000000" style="stroke-width: 2px;"></circle><circle cx="289.1000061035156" cy="378.1000061035156" r="5" class="control-point-inner" fill="#da5555" stroke="#000000" style="stroke-width: 2px;"></circle><circle cx="359.70001220703125" cy="392.5" r="5" class="control-point-inner" fill="#da5555" stroke="#000000" style="stroke-width: 2px;"></circle><circle cx="399.70001220703125" cy="360.20001220703125" r="5" class="control-point-inner" fill="#da5555" stroke="#000000" style="stroke-width: 2px;"></circle><circle cx="436.29998779296875" cy="272.1000061035156" r="5" class="control-point-inner" fill="#da5555" stroke="#000000" style="stroke-width: 2px;"></circle><circle cx="523" cy="367.79998779296875" r="5" class="control-point-inner" fill="#da5555" stroke="#000000" style="stroke-width: 2px;"></circle><circle cx="622.4000244140625" cy="366.1000061035156" r="5" class="control-point-inner" fill="#da5555" stroke="#000000" style="stroke-width: 2px;"></circle><circle cx="674.5" cy="336.29998779296875" r="5" class="control-point-inner" fill="#da5555" stroke="#000000" style="stroke-width: 2px;"></circle><circle cx="686.7000122070312" cy="295" r="5" class="control-point-inner" fill="#da5555" stroke="#000000" style="stroke-width: 2px;"></circle><circle cx="671.4000244140625" cy="292.79998779296875" r="5" class="control-point-inner" fill="#da5555" stroke="#000000" style="stroke-width: 2px;"></circle><circle cx="522.4000244140625" cy="236.6999969482422" r="5" class="control-point-inner" fill="#da5555" stroke="#000000" style="stroke-width: 2px;"></circle><circle cx="513" cy="209.8000030517578" r="5" class="control-point-inner" fill="#da5555" stroke="#000000" style="stroke-width: 2px;"></circle><circle cx="510.6000061035156" cy="190.1999969482422" r="5" class="control-point-inner" fill="#da5555" stroke="#000000" style="stroke-width: 2px;"></circle><circle cx="519.7000122070312" cy="175.8000030517578" r="5" class="control-point-inner" fill="#da5555" stroke="#000000" style="stroke-width: 2px;"></circle><circle cx="567.0999755859375" cy="116.5999984741211" r="5" class="control-point-inner" fill="#da5555" stroke="#000000" style="stroke-width: 2px;"></circle><circle cx="643" cy="213.10000610351562" r="5" class="control-point-inner" fill="#da5555" stroke="#000000" style="stroke-width: 2px;"></circle><circle cx="563" cy="250.1999969482422" r="5" class="control-point-inner" fill="#da5555" stroke="#000000" style="stroke-width: 2px;"></circle><circle cx="545.7999877929688" cy="248.8000030517578" r="5" class="control-point-inner" fill="#da5555" stroke="#000000" style="stroke-width: 2px;"></circle><circle cx="536.7000122070312" cy="222.5" r="5" class="control-point-inner" fill="#da5555" stroke="#000000" style="stroke-width: 2px;"></circle><circle cx="525.9000244140625" cy="202" r="5" class="control-point-inner" fill="#da5555" stroke="#000000" style="stroke-width: 2px;"></circle><circle cx="496.6000061035156" cy="178.60000610351562" r="5" class="control-point-inner" fill="#da5555" stroke="#000000" style="stroke-width: 2px;"></circle><circle cx="481.20001220703125" cy="179.3000030517578" r="5" class="control-point-inner" fill="#da5555" stroke="#000000" style="stroke-width: 2px;"></circle><circle cx="425.29998779296875" cy="197.6999969482422" r="5" class="control-point-inner" fill="#da5555" stroke="#000000" style="stroke-width: 2px;"></circle><circle cx="424.29998779296875" cy="251.60000610351562" r="5" class="control-point-inner" fill="#da5555" stroke="#000000" style="stroke-width: 2px;"></circle><circle cx="484.8999938964844" cy="274.6000061035156" r="5" class="control-point-inner" fill="#da5555" stroke="#000000" style="stroke-width: 2px;"></circle><circle cx="522.4000244140625" cy="274.70001220703125" r="5" class="control-point-inner" fill="#da5555" stroke="#000000" style="stroke-width: 2px;"></circle><circle cx="516.5999755859375" cy="221.5" r="5" class="control-point-inner" fill="#da5555" stroke="#000000" style="stroke-width: 2px;"></circle><circle cx="510" cy="211.1999969482422" r="5" class="control-point-inner" fill="#da5555" stroke="#000000" style="stroke-width: 2px;"></circle><circle cx="453.5" cy="184.89999389648438" r="5" class="control-point-inner" fill="#da5555" stroke="#000000" style="stroke-width: 2px;"></circle><circle cx="471.79998779296875" cy="267.20001220703125" r="5" class="control-point-inner" fill="#da5555" stroke="#000000" style="stroke-width: 2px;"></circle><circle cx="598.5999755859375" cy="184.6999969482422" r="5" class="control-point-inner" fill="#da5555" stroke="#000000" style="stroke-width: 2px;"></circle><circle cx="555.2000122070312" cy="178.1999969482422" r="5" class="control-point-inner" fill="#da5555" stroke="#000000" style="stroke-width: 2px;"></circle><circle cx="550" cy="216" r="5" class="control-point-inner" fill="#da5555" stroke="#000000" style="stroke-width: 2px;"></circle><circle cx="575.5" cy="222.5" r="5" class="control-point-inner" fill="#da5555" stroke="#000000" style="stroke-width: 2px;"></circle><circle cx="671.4000244140625" cy="292.70001220703125" r="5" class="control-point-inner" fill="#da5555" stroke="#000000" style="stroke-width: 2px;"></circle><circle cx="686.5999755859375" cy="295" r="5" class="control-point-inner" fill="#da5555" stroke="#000000" style="stroke-width: 2px;"></circle><circle cx="674.7000122070312" cy="336.20001220703125" r="5" class="control-point-inner" fill="#da5555" stroke="#000000" style="stroke-width: 2px;"></circle><circle cx="622.5" cy="366" r="5" class="control-point-inner" fill="#da5555" stroke="#000000" style="stroke-width: 2px;"></circle><circle cx="523.2000122070312" cy="367.70001220703125" r="5" class="control-point-inner" fill="#da5555" stroke="#000000" style="stroke-width: 2px;"></circle><circle cx="436.5" cy="272" r="5" class="control-point-inner" fill="#da5555" stroke="#000000" style="stroke-width: 2px;"></circle><circle cx="399.8999938964844" cy="360.1000061035156" r="5" class="control-point-inner" fill="#da5555" stroke="#000000" style="stroke-width: 2px;"></circle><circle cx="359.8999938964844" cy="392.3999938964844" r="5" class="control-point-inner" fill="#da5555" stroke="#000000" style="stroke-width: 2px;"></circle><circle cx="289.29998779296875" cy="378" r="5" class="control-point-inner" fill="#da5555" stroke="#000000" style="stroke-width: 2px;"></circle><circle cx="274.3999938964844" cy="363.6000061035156" r="5" class="control-point-inner" fill="#da5555" stroke="#000000" style="stroke-width: 2px;"></circle><circle cx="258.8999938964844" cy="348" r="5" class="control-point-inner" fill="#da5555" stroke="#000000" style="stroke-width: 2px;"></circle><circle cx="233.8000030517578" cy="326" r="5" class="control-point-inner" fill="#da5555" stroke="#000000" style="stroke-width: 2px;"></circle><circle cx="226.89999389648438" cy="368.6000061035156" r="5" class="control-point-inner" fill="#da5555" stroke="#000000" style="stroke-width: 2px;"></circle><circle cx="276.20001220703125" cy="392.70001220703125" r="5" class="control-point-inner" fill="#da5555" stroke="#000000" style="stroke-width: 2px;"></circle><circle cx="310.6000061035156" cy="402.3999938964844" r="5" class="control-point-inner" fill="#da5555" stroke="#000000" style="stroke-width: 2px;"></circle><circle cx="336.1000061035156" cy="400.1000061035156" r="5" class="control-point-inner" fill="#da5555" stroke="#000000" style="stroke-width: 2px;"></circle><circle cx="383.3999938964844" cy="381.5" r="5" class="control-point-inner" fill="#da5555" stroke="#000000" style="stroke-width: 2px;"></circle><circle cx="412.6000061035156" cy="338.3999938964844" r="5" class="control-point-inner" fill="#da5555" stroke="#000000" style="stroke-width: 2px;"></circle><circle cx="478" cy="322.79998779296875" r="5" class="control-point-inner" fill="#da5555" stroke="#000000" style="stroke-width: 2px;"></circle><circle cx="517.5" cy="368" r="5" class="control-point-inner" fill="#da5555" stroke="#000000" style="stroke-width: 2px;"></circle><circle cx="571.0999755859375" cy="384.79998779296875" r="5" class="control-point-inner" fill="#da5555" stroke="#000000" style="stroke-width: 2px;"></circle><circle cx="598.7999877929688" cy="381.79998779296875" r="5" class="control-point-inner" fill="#da5555" stroke="#000000" style="stroke-width: 2px;"></circle><circle cx="674.2000122070312" cy="381.70001220703125" r="5" class="control-point-inner" fill="#da5555" stroke="#000000" style="stroke-width: 2px;"></circle><circle cx="655.2999877929688" cy="338.1000061035156" r="5" class="control-point-inner" fill="#da5555" stroke="#000000" style="stroke-width: 2px;"></circle><circle cx="687.2999877929688" cy="367.70001220703125" r="5" class="control-point-inner" fill="#da5555" stroke="#000000" style="stroke-width: 2px;"></circle><circle cx="668.9000244140625" cy="393.70001220703125" r="5" class="control-point-inner" fill="#da5555" stroke="#000000" style="stroke-width: 2px;"></circle><circle cx="634.5" cy="402.1000061035156" r="5" class="control-point-inner" fill="#da5555" stroke="#000000" style="stroke-width: 2px;"></circle><circle cx="573.2999877929688" cy="399.1000061035156" r="5" class="control-point-inner" fill="#da5555" stroke="#000000" style="stroke-width: 2px;"></circle><circle cx="515.7999877929688" cy="387.79998779296875" r="5" class="control-point-inner" fill="#da5555" stroke="#000000" style="stroke-width: 2px;"></circle><circle cx="468.1000061035156" cy="340.79998779296875" r="5" class="control-point-inner" fill="#da5555" stroke="#000000" style="stroke-width: 2px;"></circle><circle cx="416.20001220703125" cy="361.29998779296875" r="5" class="control-point-inner" fill="#da5555" stroke="#000000" style="stroke-width: 2px;"></circle><circle cx="409.8999938964844" cy="372.6000061035156" r="5" class="control-point-inner" fill="#da5555" stroke="#000000" style="stroke-width: 2px;"></circle><circle cx="341.29998779296875" cy="419.5" r="5" class="control-point-inner" fill="#da5555" stroke="#000000" style="stroke-width: 2px;"></circle><circle cx="310.29998779296875" cy="426.70001220703125" r="5" class="control-point-inner" fill="#da5555" stroke="#000000" style="stroke-width: 2px;"></circle><circle cx="233.89999389648438" cy="397" r="5" class="control-point-inner" fill="#da5555" stroke="#000000" style="stroke-width: 2px;"></circle><circle cx="179.1999969482422" cy="322.20001220703125" r="5" class="control-point-inner" fill="#da5555" stroke="#000000" style="stroke-width: 2px;"></circle><circle cx="266.79998779296875" cy="316.70001220703125" r="5" class="control-point-inner" fill="#da5555" stroke="#000000" style="stroke-width: 2px;"></circle><circle cx="268.20001220703125" cy="337.20001220703125" r="5" class="control-point-inner" fill="#da5555" stroke="#000000" style="stroke-width: 2px;"></circle><circle cx="316" cy="376.6000061035156" r="5" class="control-point-inner" fill="#da5555" stroke="#000000" style="stroke-width: 2px;"></circle><circle cx="380.1000061035156" cy="381.3999938964844" r="5" class="control-point-inner" fill="#da5555" stroke="#000000" style="stroke-width: 2px;"></circle><circle cx="417.8999938964844" cy="259.3999938964844" r="5" class="control-point-inner" fill="#da5555" stroke="#000000" style="stroke-width: 2px;"></circle><circle cx="527" cy="333" r="5" class="control-point-inner" fill="#da5555" stroke="#000000" style="stroke-width: 2px;"></circle><circle cx="613.2999877929688" cy="350.3999938964844" r="5" class="control-point-inner" fill="#da5555" stroke="#000000" style="stroke-width: 2px;"></circle><circle cx="671.4000244140625" cy="323.20001220703125" r="5" class="control-point-inner" fill="#da5555" stroke="#000000" style="stroke-width: 2px;"></circle><circle cx="664.2999877929688" cy="297.3999938964844" r="10" class="control-point-handle" fill="#5555da" stroke="#000000" style="stroke-width: 2px;"></circle><circle cx="635.4000244140625" cy="208.8000030517578" r="10" class="control-point-handle" fill="#5555da" stroke="#000000" style="stroke-width: 2px;"></circle><circle cx="561.5999755859375" cy="116.30000305175781" r="10" class="control-point-handle" fill="#5555da" stroke="#000000" style="stroke-width: 2px;"></circle><circle cx="470.79998779296875" cy="109.9000015258789" r="10" class="control-point-handle" fill="#5555da" stroke="#000000" style="stroke-width: 2px;"></circle><circle cx="420.70001220703125" cy="130.39999389648438" r="10" class="control-point-handle" fill="#5555da" stroke="#000000" style="stroke-width: 2px;"></circle><circle cx="244" cy="255.3000030517578" r="10" class="control-point-handle" fill="#5555da" stroke="#000000" style="stroke-width: 2px;"></circle><circle cx="135.39999389648438" cy="315.70001220703125" r="10" class="control-point-handle" fill="#5555da" stroke="#000000" style="stroke-width: 2px;"></circle><circle cx="194.39999389648438" cy="468.1000061035156" r="10" class="control-point-handle" fill="#5555da" stroke="#000000" style="stroke-width: 2px;"></circle><circle cx="587.4000244140625" cy="472.20001220703125" r="10" class="control-point-handle" fill="#5555da" stroke="#000000" style="stroke-width: 2px;"></circle><circle cx="657.7000122070312" cy="396.5" r="10" class="control-point-handle" fill="#5555da" stroke="#000000" style="stroke-width: 2px;"></circle><circle cx="677.0999755859375" cy="358.5" r="10" class="control-point-handle" fill="#5555da" stroke="#000000" style="stroke-width: 2px;"></circle><circle cx="621.9000244140625" cy="381.8999938964844" r="10" class="control-point-handle" fill="#5555da" stroke="#000000" style="stroke-width: 2px;"></circle><circle cx="549.2999877929688" cy="378.1000061035156" r="10" class="control-point-handle" fill="#5555da" stroke="#000000" style="stroke-width: 2px;"></circle><circle cx="441.70001220703125" cy="331.5" r="10" class="control-point-handle" fill="#5555da" stroke="#000000" style="stroke-width: 2px;"></circle><circle cx="346.8999938964844" cy="395.8999938964844" r="10" class="control-point-handle" fill="#5555da" stroke="#000000" style="stroke-width: 2px;"></circle><circle cx="295.8999938964844" cy="398.3999938964844" r="10" class="control-point-handle" fill="#5555da" stroke="#000000" style="stroke-width: 2px;"></circle><circle cx="229.8000030517578" cy="349.70001220703125" r="10" class="control-point-handle" fill="#5555da" stroke="#000000" style="stroke-width: 2px;"></circle><circle cx="264" cy="353.3999938964844" r="10" class="control-point-handle" fill="#5555da" stroke="#000000" style="stroke-width: 2px;"></circle><circle cx="305.79998779296875" cy="381.5" r="10" class="control-point-handle" fill="#5555da" stroke="#000000" style="stroke-width: 2px;"></circle><circle cx="413.70001220703125" cy="326.5" r="10" class="control-point-handle" fill="#5555da" stroke="#000000" style="stroke-width: 2px;"></circle><circle cx="591.5999755859375" cy="366.6000061035156" r="10" class="control-point-handle" fill="#5555da" stroke="#000000" style="stroke-width: 2px;"></circle><circle cx="683.5999755859375" cy="304.79998779296875" r="10" class="control-point-handle" fill="#5555da" stroke="#000000" style="stroke-width: 2px;"></circle><circle cx="531.4000244140625" cy="241.89999389648438" r="10" class="control-point-handle" fill="#5555da" stroke="#000000" style="stroke-width: 2px;"></circle><circle cx="511.6000061035156" cy="198.5" r="10" class="control-point-handle" fill="#5555da" stroke="#000000" style="stroke-width: 2px;"></circle><circle cx="525" cy="169.3000030517578" r="10" class="control-point-handle" fill="#5555da" stroke="#000000" style="stroke-width: 2px;"></circle><circle cx="578.5" cy="245.3000030517578" r="10" class="control-point-handle" fill="#5555da" stroke="#000000" style="stroke-width: 2px;"></circle><circle cx="531.4000244140625" cy="241.89999389648438" r="10" class="control-point-handle" fill="#5555da" stroke="#000000" style="stroke-width: 2px;"></circle><circle cx="511" cy="190.10000610351562" r="10" class="control-point-handle" fill="#5555da" stroke="#000000" style="stroke-width: 2px;"></circle><circle cx="464.79998779296875" cy="184.6999969482422" r="10" class="control-point-handle" fill="#5555da" stroke="#000000" style="stroke-width: 2px;"></circle><circle cx="460.20001220703125" cy="265.20001220703125" r="10" class="control-point-handle" fill="#5555da" stroke="#000000" style="stroke-width: 2px;"></circle><circle cx="508.20001220703125" cy="229.6999969482422" r="10" class="control-point-handle" fill="#5555da" stroke="#000000" style="stroke-width: 2px;"></circle><circle cx="503.3999938964844" cy="204.60000610351562" r="10" class="control-point-handle" fill="#5555da" stroke="#000000" style="stroke-width: 2px;"></circle><circle cx="585.7000122070312" cy="209.39999389648438" r="10" class="control-point-handle" fill="#5555da" stroke="#000000" style="stroke-width: 2px;"></circle><circle cx="552.2999877929688" cy="199.89999389648438" r="10" class="control-point-handle" fill="#5555da" stroke="#000000" style="stroke-width: 2px;"></circle><circle cx="664.2999877929688" cy="297.3999938964844" r="10" class="control-point-handle" fill="#5555da" stroke="#000000" style="stroke-width: 2px;"></circle><circle cx="683.7999877929688" cy="304.70001220703125" r="10" class="control-point-handle" fill="#5555da" stroke="#000000" style="stroke-width: 2px;"></circle><circle cx="591.7999877929688" cy="366.5" r="10" class="control-point-handle" fill="#5555da" stroke="#000000" style="stroke-width: 2px;"></circle><circle cx="413.8999938964844" cy="326.3999938964844" r="10" class="control-point-handle" fill="#5555da" stroke="#000000" style="stroke-width: 2px;"></circle><circle cx="306" cy="381.3999938964844" r="10" class="control-point-handle" fill="#5555da" stroke="#000000" style="stroke-width: 2px;"></circle><circle cx="264.20001220703125" cy="353.29998779296875" r="10" class="control-point-handle" fill="#5555da" stroke="#000000" style="stroke-width: 2px;"></circle><circle cx="230" cy="349.6000061035156" r="10" class="control-point-handle" fill="#5555da" stroke="#000000" style="stroke-width: 2px;"></circle><circle cx="296.1000061035156" cy="398.29998779296875" r="10" class="control-point-handle" fill="#5555da" stroke="#000000" style="stroke-width: 2px;"></circle><circle cx="347.1000061035156" cy="395.79998779296875" r="10" class="control-point-handle" fill="#5555da" stroke="#000000" style="stroke-width: 2px;"></circle><circle cx="441.8999938964844" cy="331.3999938964844" r="10" class="control-point-handle" fill="#5555da" stroke="#000000" style="stroke-width: 2px;"></circle><circle cx="549.5" cy="378" r="10" class="control-point-handle" fill="#5555da" stroke="#000000" style="stroke-width: 2px;"></circle><circle cx="622.0999755859375" cy="381.79998779296875" r="10" class="control-point-handle" fill="#5555da" stroke="#000000" style="stroke-width: 2px;"></circle><circle cx="677.2999877929688" cy="358.3999938964844" r="10" class="control-point-handle" fill="#5555da" stroke="#000000" style="stroke-width: 2px;"></circle><circle cx="657.9000244140625" cy="396.3999938964844" r="10" class="control-point-handle" fill="#5555da" stroke="#000000" style="stroke-width: 2px;"></circle><circle cx="549.5" cy="394.3999938964844" r="10" class="control-point-handle" fill="#5555da" stroke="#000000" style="stroke-width: 2px;"></circle><circle cx="436.70001220703125" cy="353.20001220703125" r="10" class="control-point-handle" fill="#5555da" stroke="#000000" style="stroke-width: 2px;"></circle><circle cx="384.8999938964844" cy="389.70001220703125" r="10" class="control-point-handle" fill="#5555da" stroke="#000000" style="stroke-width: 2px;"></circle><circle cx="262.70001220703125" cy="408.20001220703125" r="10" class="control-point-handle" fill="#5555da" stroke="#000000" style="stroke-width: 2px;"></circle><circle cx="233.8000030517578" cy="318.79998779296875" r="10" class="control-point-handle" fill="#5555da" stroke="#000000" style="stroke-width: 2px;"></circle><circle cx="291.5" cy="356.3999938964844" r="10" class="control-point-handle" fill="#5555da" stroke="#000000" style="stroke-width: 2px;"></circle><circle cx="399.20001220703125" cy="319.70001220703125" r="10" class="control-point-handle" fill="#5555da" stroke="#000000" style="stroke-width: 2px;"></circle><circle cx="587.7999877929688" cy="345.29998779296875" r="10" class="control-point-handle" fill="#5555da" stroke="#000000" style="stroke-width: 2px;"></circle></svg>