<svg version="1.1" id="Layer_1" xmlns="http://www.w3.org/2000/svg" xmlns:xlink="http://www.w3.org/1999/xlink" x="0px" y="0px" viewBox="0 0 792 612" enable-background="new 0 0 792 612" xml:space="preserve"><defs><rect width="10" height="10" class="svg---mgr"></rect></defs><path d="M664.2999877929688 297.3999938964844 C 655.5999755859375 265.5 650.0999755859375 235.8000030517578 635.4000244140625 208.8000030517578 C 617 175.10000610351562 595.4000244140625 136.6999969482422 561.5999755859375 116.30000305175781 C 533.5999755859375 99.30000305175781 501.20001220703125 100.4000015258789 470.79998779296875 109.9000015258789 C 453.79998779296875 115.19999694824219 436.5 122.19999694824219 420.70001220703125 130.39999389648438 C 354.3999938964844 164.39999389648438 303.79998779296875 226.8000030517578 244 255.3000030517578 C 210 271.5 166.10000610351562 286.70001220703125 135.39999389648438 315.70001220703125 C 79.30000305175781 368.6000061035156 113.0999984741211 452.20001220703125 194.39999389648438 468.1000061035156 C 322.5 493.1000061035156 473.5 482.79998779296875 587.4000244140625 472.20001220703125 C 630.9000244140625 468.20001220703125 642 438.3999938964844 657.7000122070312 396.5 C 668.7000122070312 393.79998779296875 687.0999755859375 367.79998779296875 677.0999755859375 358.5 C 655.0999755859375 338.20001220703125 674.0999755859375 381.79998779296875 621.9000244140625 381.8999938964844 C 598.5999755859375 381.8999938964844 570.9000244140625 384.8999938964844 549.2999877929688 378.1000061035156 C 517.2999877929688 368.1000061035156 477.79998779296875 322.8999938964844 441.70001220703125 331.5 C 412.29998779296875 338.5 383.1000061035156 381.6000061035156 346.8999938964844 395.8999938964844 C 336 400.20001220703125 310.3999938964844 402.5 295.8999938964844 398.3999938964844 C 276 392.79998779296875 226.6999969482422 368.70001220703125 229.8000030517578 349.70001220703125 C 233.60000610351562 326 258.79998779296875 348.1000061035156 264 353.3999938964844 C 274.20001220703125 363.70001220703125 289.1000061035156 378.1000061035156 305.79998779296875 381.5 C 359.70001220703125 392.5 399.70001220703125 360.20001220703125 413.70001220703125 326.5 C 436.29998779296875 272.1000061035156 523 367.79998779296875 591.5999755859375 366.6000061035156 C 622.4000244140625 366.1000061035156 674.5 336.29998779296875 683.5999755859375 304.79998779296875 C 686.7000122070312 295 671.4000244140625 292.79998779296875 664.2999877929688 297.3999938964844" style="opacity: 0;"></path><rect x="530" y="199" width="10" height="10" rx="2" ry="2" class="handle-original" fill="#da55da" stroke="#000000" style="stroke-width: 2px; opacity: 0.5;"></rect><rect x="177" y="398" width="10" height="10" rx="2" ry="2" class="handle-original" fill="#da55da" stroke="#000000" style="stroke-width: 2px; opacity: 0.5;"></rect><rect x="512" y="424" width="10" height="10" rx="2" ry="2" class="handle-original" fill="#da55da" stroke="#000000" style="stroke-width: 2px; opacity: 0.5;"></rect><rect x="639" y="393" width="10" height="10" rx="2" ry="2" class="handle-original" fill="#da55da" stroke="#000000" style="stroke-width: 2px; opacity: 0.5;"></rect><rect x="530" y="199" width="10" height="10" rx="2" ry="2" class="handle" fill="#da55da" stroke="#000000" transform="matrix(1.147,1.2302,-1.2302,1.147,301.2587,-592.1462)" style="stroke-width: 2px;"></rect><rect x="177" y="398" width="10" height="10" rx="2" ry="2" class="handle" fill="#da55da" stroke="#000000" transform="matrix(0.9613,0.2756,-0.2756,0.9613,86.1322,-65.5545)" style="stroke-width: 2px;"></rect></svg>