<!--?xml version="1.0" encoding="utf-8"?-->
<!-- Generator: Adobe Illustrator 17.0.2, SVG Export Plug-In . SVG Version: 6.00 Build 0)  -->

<svg version="1.1" id="Layer_1" xmlns="http://www.w3.org/2000/svg" xmlns:xlink="http://www.w3.org/1999/xlink" x="0px" y="0px" width="792px" height="612px" viewBox="0 0 792 612" enable-background="new 0 0 792 612" xml:space="preserve">
<path fill="#D6D7EC" stroke="#010101" stroke-width="4.6788" stroke-linecap="round" d="M 176.575 260.469 C 169.781 254.758 153.889 259.554 157.109 268.309 C 167.634 296.933 218.653 330.967 250.272 328.292 C 320.775 322.328 402.312 230.359 421.786 332.382 C 433.845 395.56 486.93 409.15 528.269 400.01 C 541.08 397.178 548.913 377.608 552.208 372.383 C 553.901 369.698 555.187 351.39 565.376 380.292 C 573.565 403.521 548.913 447.022 525.537 453.026 C 508.554 457.388 478.727 451.377 464.203 441.001 C 416.03 406.591 396.877 349.563 369.219 336.897 C 335.25 321.341 287.964 358.193 254.666 361.957 C 232.144 364.502 205.374 356.229 182.681 351.816 C 131.953 341.953 157.5 302.206 133.445 318.48 C 122.469 325.905 129.715 352.889 149.259 360.928 C 133.064 396.517 176.887 442.414 201.518 446.794 C 265.995 458.258 541.384 595.431 656.2 464.645 C 729.095 381.611 683.525 314.858 615.186 300.915 C 577.776 293.283 543.306 304.251 525.163 285.233 C 493.266 251.801 470.403 142.335 413.195 96.1476 C 399.48 85.0741 383.26 75.3745 366.483 69.8795 C 336.554 60.0775 303.729 60.1662 276.081 77.5206 C 242.815 98.4009 221.691 137.3 203.956 171.259 C 189.713 198.531 184.765 228.206 176.575 260.469"></path>
<path fill="#FFFFFF" stroke="#010101" stroke-width="4.6788" stroke-linecap="round" d="M 308.453 202.376 C 294.445 209.936 276.991 211.178 261.603 206.762 C 196.446 175.61 270.759 77.8256 313.712 129.791 C 319.053 136.253 328.531 150.534 327.592 158.771 C 326.313 169.992 317.58 197.451 308.453 202.376"></path>
<path fill="#FFFFFF" stroke="#010101" stroke-width="4.6788" stroke-linecap="round" d="M 308.482 202.515 C 317.824 234.92 356.667 232.838 378.231 232.886 C 409.419 232.956 408.562 166.976 372.914 147.265 C 358.08 139.063 342.123 138.528 327.992 150.291 C 313.372 162.46 302.953 183.338 308.482 202.515"></path>
<path fill="#50BFA2" stroke="#010101" stroke-width="4.6788" stroke-linecap="round" d="M 331.569 189.719 C 368.327 228.312 383.718 149.301 336.145 164.022 C 328.969 172.866 323.29 181.028 331.569 189.719"></path>
<path fill="#50BFA2" stroke="#010101" stroke-width="4.6788" stroke-linecap="round" d="M 253.719 170.953 C 264.102 183.882 289.463 176.959 286.982 160.915 C 283.627 139.223 240.417 146.463 253.719 170.953"></path>
<path fill="#7E9ACF" stroke="#010101" stroke-width="4.6788" stroke-linecap="round" d="M 175.956 262.082 C 172.463 279.837 226.139 318.969 253.756 307.262 C 319.807 279.263 414.969 236.399 434.79 326.514 C 455.077 418.743 522.717 392.233 532.008 376.555 C 540.828 361.67 533.696 350.186 552.531 344.972 C 583.699 336.343 588.799 427.794 563.588 450.438 C 521.94 487.844 468.381 470.14 420.201 418.168 C 392.522 388.309 389.693 374.122 370.452 360.415 C 341.1 339.504 286.048 378.483 251.521 378.087 C 227.169 377.808 166.649 369.574 144.739 359.322 C 134.458 354.512 121.351 325.535 132.971 318.322 C 158.434 302.515 131.479 341.797 182.649 351.806 C 205.54 356.283 232.079 364.48 254.647 361.95 C 288.013 358.209 335.229 321.334 369.218 336.896 C 396.892 349.567 416.02 406.587 464.205 441.001 C 478.734 451.378 508.553 457.387 525.538 453.025 C 548.913 447.023 573.566 403.521 565.378 380.29 C 555.191 351.388 553.902 369.7 552.21 372.382 C 548.917 377.603 541.081 397.183 528.271 400.015 C 486.93 409.151 433.851 395.552 421.788 332.384 C 402.307 230.375 320.79 322.293 250.267 328.311 C 218.638 331.009 167.699 296.77 157.062 268.434 C 153.809 259.767 170.374 253.212 175.956 262.082"></path>
</svg>
