<!--?xml version="1.0" encoding="utf-8"?-->
<!-- Generator: Adobe Illustrator 17.0.2, SVG Export Plug-In . SVG Version: 6.00 Build 0)  -->

<svg version="1.1" id="Layer_1" xmlns="http://www.w3.org/2000/svg" xmlns:xlink="http://www.w3.org/1999/xlink" x="0px" y="0px" width="400px" height="600px" viewBox="0 0 400 600" enable-background="new 0 0 400 600" xml:space="preserve">
<path fill="#FFFFFF" d="M 126.453 129.094 C 129.814 134.09 142.542 135.131 147.298 136.555 C 164.062 141.575 180.805 145.723 197.372 148.522 C 219.601 152.279 232.352 154.645 254.094 144.643 C 280.577 132.458 307.483 120.186 333.904 108.938 C 344.756 148.68 357.727 182.197 364.562 213.333 C 371.599 245.389 383.977 270.924 394.832 302.955 C 403.123 327.415 409.244 356.531 406.996 390.882 C 406.11 404.416 404.868 418.68 402.536 432.723 C 401.755 437.425 401.974 448.352 399.507 452.338 C 396.303 457.516 383.76 462.153 378.662 465.459 C 362.689 475.816 344.352 486.761 325.561 498.259 C 307.149 509.525 286.919 525.395 265.62 531.206 C 227.637 541.57 186.914 549.887 151.505 554.324 C 118.688 558.436 82.1193 561.699 63.5429 536.31 C 14.8699 469.787 -0.112514 384.508 9.0793 326.682 C 14.2787 293.972 20.612 267.027 24.3683 231.386 C 28.3936 193.193 20.4177 140.052 37.402 94.3422 C 49.632 61.4275 82.0219 63.0412 126.453 129.094"></path>
<g transform="matrix(1.211 0 0 1.211 -21.752 -15.733)">
	<path fill="#010101" d="M 259.836 294.091 C 279.947 286.475 298.713 279.373 310.753 270.114 C 324.823 259.293 319.23 250.685 308.146 241.6 C 294.586 230.485 298.122 221.631 308.587 201.091 C 314.209 190.056 303.662 195.543 298.441 201.458 C 291.727 209.066 282.953 216.72 278.458 224.657 C 269.537 240.411 287.395 245.199 292.762 253.349 C 299.52 263.611 275.758 272.11 258.235 277.595 C 243.712 282.141 209.558 288.959 206.503 295.782 C 201.16 307.719 243.789 300.168 259.836 294.091"></path>
	
		<linearGradient id="SVGID_1_" gradientUnits="userSpaceOnUse" x1="23.2379" y1="32.0842" x2="23.2379" y2="-115.0493" gradientTransform="matrix(6.095 0 0 6.095 43.9156 256.1548)">
		<stop offset="0" style="stop-color:#1A1A1A"></stop>
		<stop offset="1" style="stop-color:#676767"></stop>
	</linearGradient>
	<path fill="url(#SVGID_1_)" d="M 57.5086 411.244 C 57.1258 389.494 51.1345 371.816 48.1597 354.871 C 44.5787 334.471 42.7626 317.338 44.089 300.775 C 44.6664 293.565 46.7592 286.406 50.652 279.39 C 54.1462 273.093 61.397 267.805 58.7681 259.827 C 53.7667 244.65 47.8857 227.801 48.2887 207.776 C 48.7092 186.888 54.2052 163.427 57.073 139.424 C 58.6379 126.327 60.3712 112.78 62.5593 99.3013 C 65.2327 82.8317 83.6885 102.65 87.7032 107.581 C 95.5406 117.208 102.231 127.953 109.932 137.608 C 119.634 149.773 125.063 147.282 137.799 146.507 C 161.458 145.065 183.931 149.951 202.643 164.353 C 219.647 177.441 245.079 146.29 263.545 137.52 C 293.129 123.47 267.518 183.321 263.64 193.885 C 255.723 215.454 256.095 235.209 244.662 250.154 C 235.431 262.221 275.747 267.252 288.136 271.581 C 307.677 278.408 320.932 288.77 328.229 303.639 C 332.067 311.459 334.863 319.771 339.768 328.562 C 345.085 338.093 356.521 343.62 360.786 353.883 C 366.25 367.03 355.07 380.037 338.175 380.778 C 326.159 381.306 313.043 377.937 301.761 372.313 C 295.449 369.167 300.958 358.478 301.794 353.797 C 301.927 354.931 302.869 350.002 301.993 350.567 C 295.282 354.897 294.409 360.218 284.153 364.958 C 273.689 369.794 267.188 369.37 262.206 376.939 C 257.244 384.479 253.106 392.252 250.454 399.875 C 247.182 409.279 249.987 426.96 238.602 435.975 C 226.53 445.534 205.406 443.343 191.401 447.348 C 184.83 449.228 177.781 450.604 171.127 449.256 C 161.679 447.343 157.984 452.83 148.335 451.952 C 143.891 451.548 117.528 444.048 122.429 439.211 C 124.458 435.191 127.479 430.411 132.334 426.585 C 135.662 423.963 145.029 421.165 146.842 417.459 C 150.745 409.482 146.581 401.103 153.505 391.929 C 129.218 393.717 114.575 382.872 102.856 375.896 C 101.42 391.603 115.486 408.079 118.103 423.132 C 119.346 430.279 114.549 436.68 109.711 441.568 C 101.533 449.832 95.5612 445.267 86.2915 447.462 C 78.0565 449.412 56.8994 447.62 51.6347 440.635 C 44.378 431.008 49.8696 416.906 57.5086 411.244"></path>
	<path fill="#010101" d="M 61.7617 411.941 C 61.243 390.027 54.9129 371.871 52.4846 354.553 C 49.5102 333.34 48.8416 315.869 50.4 299.487 C 51.1023 292.103 53.7778 285.15 58.9435 278.291 C 62.6577 273.359 68.2535 269.219 66.979 262.716 C 64.3146 249.123 56.0649 233.759 55.034 215.134 C 53.9284 195.158 59.204 172.645 60.8477 149.367 C 61.7491 136.601 62.8178 123.36 64.6575 110.233 C 67.0746 92.9877 77.4517 98.673 85.1352 111.312 C 94.6538 126.969 99.269 157.906 120.03 153.996 C 140.085 150.219 161.841 149.553 181.059 157.999 C 198.918 165.849 211.087 184.914 231.541 170.101 C 236.276 166.672 278.612 121.463 274.86 145.07 C 270.732 171.042 259.288 196.768 252.714 219.169 C 249.608 229.754 252.021 237.63 244.736 246.625 C 235.322 258.248 239.223 259.453 249.532 263.27 C 264.929 268.97 284.693 272.968 300.97 282.011 C 321.891 293.635 322.197 309.823 333.785 329.206 C 341.257 341.705 365.648 351.782 355.115 369.211 C 346.929 382.758 307.527 375.193 305.387 360.183 C 304.702 355.375 307.709 350.428 306.47 345.475 C 306.549 345.793 281.832 360.766 276.698 363.37 C 264.35 369.635 261.119 370.22 255.312 379.59 C 250.572 387.238 246.893 395.149 244.271 402.797 C 240.892 412.655 245.526 430.579 224.242 437.661 C 216.571 440.213 208.001 441.499 200.039 441.36 C 190.175 441.187 184.007 446.972 174.188 446.76 C 170.847 446.688 167.985 446.393 165.452 444.703 C 161.242 446.918 156.696 447.988 151.94 448.793 C 144.934 449.978 141.357 446.709 134.533 446.344 C 133.124 446.268 125.937 440.844 126.715 439.697 C 129.551 434.116 134.142 428.105 142.217 423.385 C 166.331 409.291 163.517 380.745 180.043 363.006 C 151.741 376.588 111.451 380.161 95.733 371.908 C 93.6932 388.333 107.432 401.759 114.134 417.124 C 117.666 425.224 115.345 433.193 109.3 439.168 C 101.119 447.255 94.4886 442.12 85.4357 444.245 C 76.9919 446.228 56.313 445.756 52.4386 436.106 C 47.8727 424.734 53.3898 417.443 61.7617 411.941"></path>
	
		<linearGradient id="SVGID_2_" gradientUnits="userSpaceOnUse" x1="38.9576" y1="24.2684" x2="38.9576" y2="-23.831" gradientTransform="matrix(6.095 0 0 6.095 43.9156 256.1548)">
		<stop offset="0" style="stop-color:#1A1A1A"></stop>
		<stop offset="1" style="stop-color:#676767"></stop>
	</linearGradient>
	<path fill="url(#SVGID_2_)" d="M 356.927 363.946 C 354.543 377.238 334.017 377.137 319.544 373.512 C 299.825 368.574 308.149 356.51 306.444 345.532 C 306.398 345.235 285.713 358.647 282.685 360.041 C 316.138 324.173 301.7 295.412 275.645 281.381 C 304.129 285.612 320.741 306.84 320.244 327.282 C 320.019 336.515 298.84 356.255 313.068 366.375 C 325.486 375.207 348.505 368.499 356.927 363.946"></path>
	
		<linearGradient id="SVGID_3_" gradientUnits="userSpaceOnUse" x1="20.9003" y1="31.9311" x2="20.9003" y2="-14.1808" gradientTransform="matrix(6.095 0 0 6.095 43.9156 256.1548)">
		<stop offset="0" style="stop-color:#1A1A1A"></stop>
		<stop offset="1" style="stop-color:#676767"></stop>
	</linearGradient>
	<path fill="url(#SVGID_3_)" d="M 61.8156 412 C 60.4806 380.175 51.4398 350.706 49.9682 329.85 C 56.1337 345.621 58.4686 367.337 63.4903 391.862 C 65.5578 401.96 62.9227 417.091 75.8268 417.739 C 100.053 418.956 87.2023 381.982 86.963 370.177 C 86.8196 363.102 83.1651 356.416 81.6565 350.321 C 81.1716 348.362 79.7919 338.949 78.36 338.23 C 84.2611 340.591 87.7783 348.606 93.432 352.459 C 101.83 358.182 113.261 362.751 128.927 363.968 C 139.634 364.8 152.385 364.019 165.178 360.634 C 169.641 359.453 187.382 351.292 190.4 353.366 C 199.969 359.942 178.752 382.955 172.469 392.083 C 167.073 399.923 157.057 409.794 161.101 416.999 C 165.25 424.392 180.515 426.349 194.195 421.198 C 229.93 407.742 241.658 373.32 245.123 358.33 C 247.738 347.013 249.734 336.731 253.129 327.227 C 254.084 324.555 266.592 312.413 270.49 318.531 C 274.77 325.247 269.8 335.823 267.61 344.378 C 264.522 356.443 260.006 369.99 251.731 384.446 C 244.808 396.541 242.182 408.546 227.772 420.752 C 220.451 426.953 210.983 434.2 218.727 439.087 C 205.848 442.556 198.118 440.325 186.063 444.322 C 178.347 446.88 171.947 447.999 165.498 444.697 C 157.382 448.267 130.058 451.029 131.233 442.908 C 114.055 441.855 146.917 421.779 150.9 418.658 C 160.395 411.217 157.291 394.529 165.602 385.142 C 136.629 396.715 106.997 377.933 95.739 371.941 C 93.6861 388.282 107.437 401.787 114.132 417.117 C 117.671 425.223 115.342 433.194 109.301 439.165 C 101.113 447.258 94.4918 442.109 85.4336 444.243 C 76.9974 446.23 56.3079 445.757 52.4376 436.097 C 47.905 424.784 53.3191 417.342 61.8156 412"></path>
	
		<linearGradient id="SVGID_4_" gradientUnits="userSpaceOnUse" x1="33.7792" y1="-14.9846" x2="33.7792" y2="-34.5738" gradientTransform="matrix(6.095 0 0 6.095 43.9156 256.1548)">
		<stop offset="0" style="stop-color:#1A1A1A"></stop>
		<stop offset="1" style="stop-color:#676767"></stop>
	</linearGradient>
	<path fill="url(#SVGID_4_)" d="M 228.717 199.909 C 225.919 197.506 227.602 208.916 227.657 209.159 C 229.341 216.536 231.803 223.157 234.92 228.179 C 241.769 239.214 254.868 203.984 257.456 197.595 C 262.392 185.408 267.272 172.772 250.852 187.437 C 245.846 191.908 234.928 205.241 228.717 199.909"></path>
	
		<linearGradient id="SVGID_5_" gradientUnits="userSpaceOnUse" x1="7.0161" y1="-20.5107" x2="7.0161" y2="-45.4411" gradientTransform="matrix(6.095 0 0 6.095 43.9156 256.1548)">
		<stop offset="0" style="stop-color:#1A1A1A"></stop>
		<stop offset="1" style="stop-color:#676767"></stop>
	</linearGradient>
	<path fill="url(#SVGID_5_)" d="M 64.0611 194.872 C 59.2792 191.976 64.5562 169.835 65.0111 165.583 C 65.424 161.723 70.3506 135.194 65.8609 131.694 C 77.2967 140.463 79.2228 156.048 96.4221 156.305 C 87.2322 157.332 68.9255 198.478 63.9517 194.804 C 59.5932 191.585 67.2814 196.822 64.0611 194.872"></path>
	<path fill="#333333" d="M 144.433 266.26 C 150.701 263.959 133.456 252.171 135.973 251.916 C 144.475 251.055 141.715 260.222 147.208 261.129 C 154.328 262.304 150.932 258.848 154.991 257.187 C 155.785 256.862 161.395 257.312 162.613 256.737 C 160.747 257.592 143.653 263.8 146.419 266.871 C 153.402 274.625 167.856 278.428 180.778 272.602 C 170.023 279.275 153.514 275.558 143.537 270.742 C 132.112 270.07 119.407 270.409 110.424 263.242 C 120.941 269.442 134.654 269.849 144.433 266.26 M 130.069 230.12 C 137.793 228.787 117.474 190.201 99.2371 206.249 C 91.4961 213.062 94.3698 223.599 104.938 229.168 C 114.198 234.047 121.454 230.694 130.069 230.12 M 175.559 240.867 C 171.93 239.325 184.587 227.113 186.336 226.194 C 194.667 221.821 205.536 225.953 207.878 232.815 C 210.139 239.439 205.614 246.647 197.183 248.676 C 187.834 250.924 183.071 244.058 175.559 240.867"></path>
	<path fill="#010101" d="M 113.124 206.338 C 132.746 209.689 130.641 234.308 111.618 230.412 C 91.9643 226.386 94.5351 203.163 113.124 206.338"></path>
	
		<radialGradient id="SVGID_6_" cx="27.4427" cy="-16.0915" r="5.7296" gradientTransform="matrix(4.7931 0 0 4.7604 -12.4605 220.9367)" gradientUnits="userSpaceOnUse">
		<stop offset="0" style="stop-color:#35C6F4"></stop>
		<stop offset="1" style="stop-color:#34679A"></stop>
	</radialGradient>
	<path fill="url(#SVGID_6_)" d="M 113.052 207.422 C 130.489 210.434 128.613 232.55 111.72 229.114 C 94.2931 225.568 96.5406 204.571 113.052 207.422"></path>
	<path fill="#010101" d="M 112.608 210.899 C 118.807 212.016 117.409 224.554 111.439 223.372 C 105.412 222.18 106.892 209.869 112.608 210.899"></path>
	<path fill="#FFFFFF" d="M 108.168 209.64 C 112.405 210.438 112.375 216.719 108.118 215.88 C 104.023 215.073 104.075 208.869 108.168 209.64"></path>
	<path fill="#FFFFFF" d="M 119.748 221.829 C 120.371 222.526 120.938 223.109 121.436 223.576 C 120.351 225.418 119.208 225.21 118.035 222.976 C 118.664 222.709 119.24 222.328 119.748 221.829"></path>
	<path fill="#010101" d="M 193.435 225.829 C 175.258 224.287 174.941 246.668 191.044 247.128 C 209.633 247.66 209.83 227.273 193.437 225.83 C 185.961 225.171 201.159 226.484 193.435 225.829"></path>
	
		<radialGradient id="SVGID_7_" cx="43.9815" cy="-12.8679" r="5.2195" gradientTransform="matrix(4.7931 0 0 4.7604 -12.4605 220.9367)" gradientUnits="userSpaceOnUse">
		<stop offset="0" style="stop-color:#35C6F4"></stop>
		<stop offset="1" style="stop-color:#34679A"></stop>
	</radialGradient>
	<path fill="url(#SVGID_7_)" d="M 193.335 226.824 C 177.202 225.522 176.885 245.569 191.171 246.024 C 207.673 246.55 207.897 228.087 193.338 226.825 C 186.724 226.252 200.194 227.377 193.335 226.824"></path>
	<path fill="#010101" stroke="#2C2A29" stroke-width="0.157" d="M 193.796 230.008 C 187.652 229.904 187.259 240.994 192.826 241.089 C 199.194 241.197 199.583 230.418 193.79 230.01 C 191.462 229.846 196.348 230.051 193.796 230.008"></path>
	<path fill="#FFFFFF" d="M 189.558 229.223 C 193.708 228.71 193.698 234.625 189.552 235.163 C 185.563 235.681 185.579 229.715 189.558 229.223"></path>
	<path fill="#FFFFFF" d="M 197.787 240.18 C 198.443 240.641 199.005 240.97 199.459 241.177 C 198.445 243.206 197.321 243.408 196.113 241.763 C 196.768 241.361 197.331 240.835 197.787 240.18"></path>
	<path fill="#818181" d="M 115.077 262.179 C 92.4448 258.692 72.5926 260.073 53.3676 263.875 C 59.9867 261.491 93.5619 255.8 115.077 262.179 M 110.954 258.662 C 88.8039 251.916 67.9207 250.514 47.5565 251.65 C 54.7325 250.124 90.7367 249.205 110.954 258.662 M 115.267 255.178 C 99.5774 247.069 81.6348 242.12 63.9368 239.161 C 79.9435 239.938 102.438 246.202 115.267 255.178 M 129.702 261.915 C 119.216 257.227 108.226 254.828 97.1377 252.934 C 101.243 253.284 120.766 256.23 129.702 261.915 M 131.758 260.496 C 125.744 255.571 118.171 252.047 110.323 248.73 C 113.381 249.754 127.301 255.178 131.758 260.496 M 126.03 264.195 C 117.17 262.927 109.379 263.536 101.715 264.364 C 104.393 263.882 117.668 261.907 126.03 264.195 M 178.399 270.582 C 204.217 270.48 225.137 270.075 247.699 271.067 C 239.531 270.148 203.406 268.297 178.399 270.582 M 183.936 267.522 C 208.639 263.865 232.66 260.664 257.526 258.968 C 236.302 258.545 205.877 262.022 183.936 267.522 M 180.14 263.222 C 200.562 256.807 220.287 252.346 240.686 248.1 C 233.167 249.278 198.16 255.177 180.14 263.222 M 162.312 267.712 C 175.588 265.095 188.059 264.287 200.526 262.886 C 196.075 263.363 174.189 263.984 162.312 267.712 M 160.429 265.735 C 168.746 261.82 177.847 259.518 187.009 256.969 C 183.617 257.809 167.158 261.15 160.429 265.735 M 165.646 270.906 C 176.055 271.366 184.262 272.956 192.097 274.104 C 189.559 273.714 175.864 270.408 165.646 270.906 M 136.567 210.495 C 136.614 201.798 133.328 193.723 129.39 185.802 C 131.278 188.586 138.373 202.394 136.567 210.495 M 137.805 216.857 C 140.759 209.187 140.086 200.791 138.677 192.252 C 139.693 195.441 142.305 210.345 137.805 216.857 M 134.572 215.506 C 133.763 206.934 129.765 199.228 125.156 191.712 C 127.264 194.318 135.551 207.371 134.572 215.506 M 172.027 218.138 C 175.229 210.046 180.835 203.841 186.774 197.833 C 184.365 199.816 173.485 209.879 172.027 218.138 M 168.665 223.516 C 169.026 215.135 172.457 207.586 176.371 200.069 C 174.6 202.725 167.281 215.55 168.665 223.516 M 171.992 223.684 C 175.982 216.116 182.113 210.568 188.519 205.211 C 185.978 206.948 174.279 215.799 171.992 223.684"></path>
</g>
</svg>
