<!--?xml version="1.0" encoding="utf-8"?-->
<!-- Generator: Adobe Illustrator 17.1.0, SVG Export Plug-In . SVG Version: 6.00 Build 0)  -->

<svg version="1.1" id="Layer_1" xmlns="http://www.w3.org/2000/svg" xmlns:xlink="http://www.w3.org/1999/xlink" x="0px" y="0px" viewBox="0 0 500 500" width="500px" height="500px" enable-background="new 0 0 500 500" xml:space="preserve">
<path fill="#8DC63F" stroke="#009444" stroke-width="8" stroke-linecap="round" stroke-linejoin="round" stroke-miterlimit="10" d="M 248.647 68.4722 C 284.647 68.4722 291.416 205.811 291.416 205.811 C 291.416 205.811 417.013 176.157 428.113 210.257 C 439.213 244.357 309.699 300.406 309.699 300.406 C 309.699 300.406 371.545 441.053 342.445 462.153 C 313.345 483.253 233.919 336.041 233.919 336.041 C 233.919 336.041 137.022 374.889 107.922 353.889 C 78.8217 332.889 167.823 271.47 167.823 271.47 C 167.823 271.47 40.4639 223.522 51.4639 189.322 C 62.4639 155.122 202.835 203.675 202.835 203.675 C 202.835 203.675 212.647 68.4722 248.647 68.4722"></path>
</svg>
