<!--?xml version="1.0" encoding="utf-8"?-->
<!-- Generator: Adobe Illustrator 17.0.2, SVG Export Plug-In . SVG Version: 6.00 Build 0)  -->

<svg version="1.1" id="Layer_1" xmlns="http://www.w3.org/2000/svg" xmlns:xlink="http://www.w3.org/1999/xlink" x="0px" y="0px" width="792px" height="612px" viewBox="0 0 792 612" enable-background="new 0 0 792 612" xml:space="preserve">
<path fill="#D6D7EC" stroke="#010101" stroke-width="4.6788" stroke-linecap="round" d="M 253.819 333.27 C 247.046 333.015 235.739 338.49 240.201 342.474 C 251.987 355.118 289.825 354.885 310.74 347.513 C 350.631 342.532 407.859 210.214 441.194 306.396 C 442.289 369.293 466.578 421.685 518.439 417.717 C 531.572 415.699 537.929 401.988 540.801 391.63 C 541.992 386.028 548.222 359.295 562.89 380.401 C 575.777 395.398 547.355 428.858 530.378 434.98 C 516.457 438.505 489.84 433.816 479.085 427.556 C 447.183 403.967 440.402 328.728 422.355 306.298 C 400.287 285.837 353.423 343.676 329.983 349.491 C 314.98 355.349 300.872 357.858 286.322 363.208 C 250.902 377.484 267.297 350.358 250.493 366.574 C 242.628 374.099 252.829 382.331 259.554 380.725 C 257.224 402.448 253.218 421.945 267.163 421.553 C 306.684 465.241 496.116 518.057 649.62 456.404 C 709.457 398.086 692.023 309.922 617.356 298.807 C 578.951 290.382 541.446 293.769 515.447 279.955 C 473.373 228.826 411.006 147.023 341.067 122.197 C 324.691 121.683 308.224 123.568 293.153 127.466 C 267.74 136.479 245.792 152.068 235.023 176.691 C 224.231 207.299 230.431 243.075 236.859 272.986 C 240.72 295.215 249.903 313.943 253.819 333.27"></path>
<path fill="#FFFFFF" stroke="#010101" stroke-width="4.6788" stroke-linecap="round" d="M 320.025 231.72 C 315.957 247.854 306.066 261.241 293.22 267.829 C 234.235 278.713 231.926 179.716 280.499 184.295 C 287.007 184.188 300.356 185.149 304.307 190.141 C 310.092 197.232 321.956 220.898 320.025 231.72"></path>
<path fill="#FFFFFF" stroke="#010101" stroke-width="4.6788" stroke-linecap="round" d="M 320.025 231.72 C 349.197 249.412 374.783 222.829 385.722 203.178 C 403.989 190.506 369.813 152.773 330.176 155.87 C 314.937 161.622 303.603 170.282 299.985 185.386 C 297.396 202.65 303.634 223.272 320.025 231.72"></path>
<path fill="#50BFA2" stroke="#010101" stroke-width="4.6788" stroke-linecap="round" d="M 326.096 204.975 C 378.612 208.914 339.299 151.756 313.214 187.404 C 312.904 195.733 315.24 206.696 326.096 204.975"></path>
<path fill="#50BFA2" stroke="#010101" stroke-width="4.6788" stroke-linecap="round" d="M 267.162 248.621 C 280.917 250.958 291.729 229.239 280.763 220.77 C 267.073 209.593 246.018 239.851 267.162 248.621"></path>
<path fill="#7E9ACF" stroke="#010101" stroke-width="4.6788" stroke-linecap="round" d="M 253.819 333.27 C 253.317 347.898 299.09 344.315 318.718 334.429 C 365.522 308.606 413.944 200.71 450.417 300.67 C 450.342 404.462 509.269 411.097 523.378 393.603 C 531.326 375.506 524.091 353.066 544.863 352.07 C 585.782 330.707 585.64 420.93 565.004 439.493 C 517.334 461.564 480.23 453.678 441.396 414.49 C 426.646 386.267 428.084 367.261 416.733 347.7 C 402.096 317.039 337.325 363.021 318.831 361.828 C 305.96 365.156 272.636 377.809 259.556 380.725 C 252.83 382.331 242.629 374.1 250.495 366.573 C 267.298 350.357 250.903 377.483 286.323 363.208 C 300.873 357.858 314.981 355.349 329.984 349.491 C 353.424 343.676 400.288 285.837 422.356 306.298 C 440.404 328.729 447.182 403.965 479.087 427.556 C 489.844 433.816 516.458 438.505 530.38 434.98 C 547.354 428.858 575.779 395.398 562.891 380.401 C 548.225 359.295 541.992 386.028 540.802 391.63 C 537.932 401.989 531.574 415.699 518.44 417.717 C 466.58 421.685 442.29 369.293 441.195 306.397 C 407.86 210.214 350.632 342.532 310.742 347.513 C 289.826 354.884 251.989 355.118 240.202 342.473 C 235.739 338.49 247.046 333.015 253.819 333.27"></path>
</svg>
