<svg version="1.1" id="Layer_1" xmlns="http://www.w3.org/2000/svg" xmlns:xlink="http://www.w3.org/1999/xlink" x="0px" y="0px" width="792px" height="612px" viewBox="0 0 792 612" enable-background="new 0 0 792 612" xml:space="preserve"><defs><rect width="10" height="10" class="svg---mgr"></rect></defs><path d="M0 0 C 0 0 280 0 280 0 C 280 0 280 165 280 165 C 280 165 0 165 0 165 C 0 165 0 0 0 0" style="opacity: 0;"></path><rect x="15" y="51" width="10" height="10" rx="2" ry="2" class="handle-original" fill="#da55da" stroke="#000000" style="stroke-width: 2px; opacity: 0.5;"></rect><rect x="233" y="48" width="10" height="10" rx="2" ry="2" class="handle-original" fill="#da55da" stroke="#000000" style="stroke-width: 2px; opacity: 0.5;"></rect><rect x="126" y="130" width="10" height="10" rx="2" ry="2" class="handle-original" fill="#da55da" stroke="#000000" style="stroke-width: 2px; opacity: 0.5;"></rect><rect x="15" y="51" width="10" height="10" rx="2" ry="2" class="handle" fill="#da55da" stroke="#000000" transform="matrix(0.9659,-0.2588,0.2588,0.9659,-13.8123,7.0846)" style="stroke-width: 2px;"></rect><rect x="233" y="48" width="10" height="10" rx="2" ry="2" class="handle" fill="#da55da" stroke="#000000" transform="matrix(1.4191,0,0,1.4191,-99.7373,-22.2104)" style="stroke-width: 2px;"></rect><rect x="126" y="130" width="10" height="10" rx="2" ry="2" class="handle" fill="#da55da" stroke="#000000" transform="matrix(0.7947,0.1116,-0.1116,0.7947,41.9704,13.0863)" style="stroke-width: 2px;"></rect></svg>