<svg version="1.1" id="Layer_1" xmlns="http://www.w3.org/2000/svg" xmlns:xlink="http://www.w3.org/1999/xlink" x="0px" y="0px" width="300px" height="512px" viewBox="0 0 300 512" enable-background="new 0 0 300 512" xml:space="preserve"><defs></defs><path d="M135.050003052,434.925994873L134.547730034,434.362312115L134.06585336,433.697868353L133.604059239,432.934753528L133.16203388,432.075057582L132.739463495,431.120870457L132.336034293,430.074282094L131.951432485,428.937382434L131.58534428,427.712261419L131.237455888,426.40100899L130.907453521,425.005715089L130.595023387,423.528469656L130.299851697,421.971362634L130.021624661,420.336483964L129.7623608981517,418.62706446489614L129.52338915428797,416.8460377158285L129.30412825490325,414.9954189046432L129.10530998891792,413.07788307707756L128.92933049638975,411.0969773980129L128.77508448072712,409.0545118448249L128.64960465201204,406.9565153682751L128.55145903088547,404.804745389466L128.48396637054356,402.6034723272438L128.44622287423658,400.35480178394795L128.4395520398951,398.0620552615107L128.46632873296264,395.72919505981184L128.5224307412635,393.3566625913652L128.61415167629949,390.9506905650219L128.7377532373385,388.51199997815473L128.8963913154537,386.04522890340814L129.0837981228327,383.54963513274873L129.30056656019994,381.028397377011L129.55068298906906,378.48679306410486L129.82814443447785,375.9241881310163L130.13722479377282,373.34614478383395L130.47167557688897,370.75182748621523L130.83587323279744,368.1469818820019L131.22421071295994,365.5311255438633L131.6393222365285,362.90901090742045L132.074533389153,360.27936086112504L132.52968427651288,357.6450775110212L133.00831528955945,355.0116381924279L133.5049381874296,352.37844180733634L134.02113643934044,349.74970062173884L134.55364774803454,347.12627001951205L135.10189848562464,344.51087098356754L135.66229458021328,341.90400731656445L136.23134564173006,339.306134679959L136.80820551655412,336.7196061397597L137.394315605752,334.14855757101384L137.98483231977647,331.59225132164744L138.57901911996004,329.05304391441973L139.17766272800432,326.53453819454603L139.77632728460466,324.03604197608524L140.3750084226802,321.5604090713693L140.97120746787522,319.1083508853887L141.56409358916085,316.6819184705204L142.15201121069185,314.28238152781904L142.73286853322944,311.9105098907703L143.30505194315407,309.5673824197173L143.87012886772308,307.25699964671975L144.42275869902028,304.97674695145906L144.96238869835418,302.7283498310907L145.4885562960439,300.5135581460196L145.9990808306516,298.3322813200573L146.49506371882455,296.18767097185315L146.9746094237989,294.07970591992796L147.4366151093244,292.0090218533469L147.8808817734675,289.9771087438537L148.30717192518466,287.985326922688L148.71489933176719,286.0345343955876L149.1032971635099,284.12523796688185L149.4724080003426,282.2587628797743L149.82184668143532,280.4358122474606L150.15204462314864,278.6579784871714L150.4630377075942,276.92627895874864L150.75361225923072,275.23997862004705L151.0248223218957,273.6011355126058L151.27697799669383,272.01077745948453L151.5095576325558,270.46867959381757L151.72291378641125,268.97567452578943L151.9183261834596,267.5338465042636L152.09627869907465,266.1441170388762L152.25647100500916,264.8061567951503L152.40098135633392,263.5231222436813L152.53003540972347,262.2953956166852L152.64475377217266,261.12469269383416L152.74545425782205,260.01145654982594L152.833287843105,258.9574381048343L152.90851686326022,257.9629540990145L152.97296170400287,257.03091270529427L153.02680318775649,256.1615491612929L153.07166331945052,255.3575811989653L153.10742730487658,254.6188128828708L153.1352711242098,253.9473348928537L153.15693231616814,253.34636654171857L153.17144862676483,252.8144146163898L153.17988807094613,252.3536956060203L153.17988807094613,252.3536956060203L153.17524669039827,251.64165907790675" class="target-curve-polyline" stroke="#ff0000" style="stroke-width: 3px; fill-opacity: 0; stroke-dasharray: 20px, 10px, 5px, 5px, 5px, 10px;"></path><line x1="135.47593741376545" x2="134.55364774803454" y1="345.9686942411322" y2="347.12627001951205" class="distance-line" stroke="#0000ff" style="stroke-width: 2px; fill-opacity: 0;"></line><path d="M153.17524669039827,251.64165907790675L153.17524669039827,251.64165907790675L153.12372824431466,251.11005038231866L153.12372824431466,251.11005038231866L152.98674893146628,250.6136571600527L152.98674893146628,250.6136571600527L152.98674893146628,250.6136571600527L152.63007354958611,249.93074414011852L152.4787340857295,249.7298621981247L152.31029219465978,249.53877885334867L152.31029219465978,249.53877885334867L152.31029219465978,249.53877885334867L151.67861629522116,248.96555015564354L151.43765538589233,248.79335981777157L151.1771416173456,248.61996819445676L151.1771416173456,248.61996819445676L151.1771416173456,248.61996819445676L150.28554579674136,248.09399053679198L150.28554579674136,248.09399053679198L149.6184499368112,247.76454465217L149.26234180203102,247.6009905936909L149.26234180203102,247.6009905936909L148.50182060813867,247.26318544251708L148.10080378685603,247.093481054738L148.10080378685603,247.093481054738L147.2560370793146,246.74350250024034L147.2560370793146,246.74350250024034L146.3601766503194,246.38349545625618L146.3601766503194,246.38349545625618L146.3601766503194,246.38349545625618L144.92502295549485,245.81198711230172L144.92502295549485,245.81198711230172L143.91477069162775,245.41155678029392L143.91477069162775,245.41155678029392L142.8636516530693,244.988055931158L142.8636516530693,244.988055931158L141.77393077759027,244.53636099466513L141.77393077759027,244.53636099466513L140.64752149873212,244.05048305037724L140.64752149873212,244.05048305037724L139.48685653531686,243.5256045171189L139.48685653531686,243.5256045171189L138.29612856181316,242.9612628756928L138.29612856181316,242.9612628756928L137.07588744193097,242.34811352189195L137.07588744193097,242.34811352189195L135.8292724371268,241.68311883490946L135.1966462350304,241.32919757072847L134.55849557313306,240.9609300775985L133.91518201072458,240.57788601266537L133.91518201072458,240.57788601266537L132.61505139867046,239.76725851185654L131.95813539676277,239.33661318149052L131.29711053424597,238.88843067551133L130.63264884400013,238.42316256959174L129.9646675985304,237.93914227835043L129.9646675985304,237.93914227835043L128.6207611413431,236.91659863525825L127.9449356649067,236.37547251820126L127.2668644619809,235.81345942434018L126.58721368688022,235.23109208395755L126.58721368688022,235.23109208395755L125.22476921793182,234.00437133713496L124.54193013678977,233.3568769170159L123.8584953866732,232.6861160410278L123.17510952077922,231.99267725276746L122.49160150531344,231.27443779017548L121.80853786223098,230.53173872522711L121.12608878433107,229.76358037105837L120.44448351377689,228.96914489772325L119.76432623749925,228.14899123331583L119.08552592377731,227.30113385707475L118.40864163150724,226.42599233378155L117.73361895292382,225.52163417056198L117.06110803748763,224.58887649360503L116.39112189745606,223.62600563144537L115.72428308390634,222.63381805848405L115.06050496885248,221.61011702397207L114.40039402907233,220.5556876607149L113.74397511294069,219.46873901759034L113.09184065988353,218.35009356374042L112.44392338590816,217.19743485441455L111.80079965257238,216.01156813394357L111.16245271463043,214.79028165873325L110.52944535445098,213.53438543207866L109.901793098342,212.24168785857913L109.28004416456048,210.91300268149274L108.66435848862464,209.54688797331022L108.0549784855803,208.1422846833176L107.45223243668127,206.6986436384289L106.8565227320546,205.21598912973104L106.26798946085339,203.69234048462152L105.6871626874084,202.12875162299213L105.11419783572283,200.52320629742215L104.54943760115125,198.87512195625592L103.99325095458428,197.18420021489106L103.44589245420333,195.44878260777284L102.90771123352525,193.66799240477485L102.37912990205503,191.84196278974625L101.8604516591258,189.96891619232997" class="target-curve-polyline" stroke="#ff00db" style="stroke-width: 3px; fill-opacity: 0; stroke-dasharray: 20px, 10px, 5px, 5px, 5px, 10px;"></path><line x1="145.2931780323783" x2="146.3601766503194" y1="247.06230853451174" y2="246.38349545625618" class="distance-line" stroke="#0000ff" style="stroke-width: 2px; fill-opacity: 0;"></line><path d="M101.8604516591258,189.96891619232997L101.52102066292188,188.6801306811622L101.20297613103511,187.40073038313503L100.90611706675186,186.13094319864237L100.63021187055773,184.87000482849837L100.37507047265866,183.6184341608817L100.1404828509936,182.37622348773107L99.92623144705158,181.14218455231344L99.73212643853932,179.91696331818173L99.55797220777808,178.6994182761261L99.40354356347041,177.49312793187465L99.26859399843181,176.29810088608488L99.15287700779601,175.11434573879296L99.0561460851203,173.94187109149289L98.97815472389271,172.78068554155607L98.9186564179293,171.6307976914424L98.8774046614945,170.49221614142098L98.85415294762802,169.364949491054L98.84865477130131,168.24900633938586L98.8606636263305,167.14439528887647L98.88993300549652,166.05112493812197L98.9362164030637,164.9692038873916L98.9992673135553,163.89864073792037L99.0788392302698,162.83944409023638L99.174685646954,161.79162254267698L99.2865600578723,160.7551846955114L99.41421595684079,159.7301391511994L99.5574068376063,158.71649450807837L99.7158861934673,157.7142593666764L99.889407518947,156.7234423282285L100.07772430779221,155.74405199107207L100.28059005478488,154.77609695740819L100.28059005478488,154.77609695740819L100.72898239393984,152.87452719732647L100.9740159747603,151.94092967193L101.23261248838824,151.0188018498818L101.50452542807037,150.1081523315167L101.78950828901108,149.20898971674853L101.78950828901108,149.20898971674853L102.39769774564596,147.44515959957002L102.72041133075714,146.5805092971495L103.05520881013979,145.72738029976176L103.05520881013979,145.72738029976176L103.76006943436542,144.05572061883595L104.12963956476185,143.23720713632287L104.51030756628029,142.43024935914661L104.90182693412521,141.63485588722108L105.30395115963736,140.8510353214952L105.71643373799532,140.07879626178624L106.13902816338583,139.3181473080736L106.5714879291333,138.5690970609819L107.01356652939859,137.83165412039392L107.46501745842019,137.10582708648232L107.925594208479,136.39162455984072L108.39505027480527,135.68905514047952L108.39505027480527,135.68905514047952L109.3596143310755,134.3188500240336L109.85422930850473,133.65123152745628L110.35673757714608,132.99528053907767L110.86689263118632,132.35100565887714L110.86689263118632,132.35100565887714L111.90915707045977,131.09751862412176L112.44077344315244,130.48832366997777L112.44077344315244,130.48832366997777L113.52374196388442,129.3050738894413L114.07460110032318,128.73103626310422L114.63138147885513,128.16873494664014L114.63138147885513,128.16873494664014L115.76171993797968,127.07937564350749L116.33478500605756,126.5523348573463L116.33478500605756,126.5523348573463L117.49547428944535,125.5335740168596L118.08260549218875,125.0418711628483L118.08260549218875,125.0418711628483L119.26920849000126,124.09386358841166L119.86818727156384,123.63757606865596L119.86818727156384,123.63757606865596L121.07626687203083,122.7604765641911L121.68487467844636,122.33968178008595L122.29619914696752,121.93073510842584L122.29619914696752,121.93073510842584L123.52601204623733,121.14842050310014L124.14400746543708,120.77506976968317L124.14400746543708,120.77506976968317L125.38494371019192,120.06402444285294L126.00739152419808,119.72634704968829L126.00739152419808,119.72634704968829L127.25501400365945,119.08672580511302L127.87969565659989,118.78479915420982L127.87969565659989,118.78479915420982L129.12956726095516,118.21675679539022L129.75426419888944,117.95065828824005L129.75426419888944,117.95065828824005L131.00194781639428,117.45434961919442L131.62444148345014,117.22415665780639L131.62444148345014,117.22415665780639L132.86550000426604,116.79973648193885L133.4835718445713,116.60552646832214L133.4835718445713,116.60552646832214L134.7135681579715,116.25314958958533" class="target-curve-polyline" stroke="#ff00f7" style="stroke-width: 3px; fill-opacity: 0; stroke-dasharray: 20px, 10px, 5px, 5px, 5px, 10px;"></path><line x1="116.91250056473133" x2="117.49547428944535" y1="126.02380870257348" y2="125.5335740168596" class="distance-line" stroke="#0000ff" style="stroke-width: 2px; fill-opacity: 0;"></line><path d="M134.7135681579715,116.25314958958533L135.33030665381716,116.09359712496035L135.33030665381716,116.09359712496035L136.58734611013742,115.80251754395405L137.22721150263098,115.67122202790628L137.22721150263098,115.67122202790628L138.52854470296407,115.43769854326082L139.18957694282253,115.3357021749967L139.18957694282253,115.3357021749967L140.5312837867743,115.16181918602902L141.2115228238265,115.09016416530363L141.2115228238265,115.09016416530363L142.58968321196855,114.9780060710718L143.28716899698327,114.93773459728477L143.28716899698327,114.93773459728477L144.6978628308533,114.88938579658814L145.4106353136334,114.8815400693979L145.4106353136334,114.8815400693979L146.84994249283722,114.89908496155334L147.57604162318563,114.92470718061836L147.57604162318563,114.92470718061836L149.04004204926073,115.01023016442517L149.77750777794634,115.0703625291451L150.51832680636443,115.14222987562005L150.51832680636443,115.14222987562005L152.00915362831597,115.32163271379126L152.75872585480838,115.4293998054657L152.75872585480838,115.4293998054657L154.26509902367732,115.6816443334356L155.02146439997875,115.82635336945042L155.02146439997875,115.82635336945042L156.5394638173028,116.15352398601829L157.3006622912843,116.33621716654949L157.3006622912843,116.33621716654949L158.8263678576351,116.74039827077341L159.5904393810573,116.9621177950585L160.35503302186464,117.19707770019575L160.35503302186464,117.19707770019575L161.88491551964648,117.70718185359738L162.64976881057171,117.98255770167768L162.64976881057171,117.98255770167768L164.17821055745227,118.57453594097927L164.94136344829832,118.8913699316611L165.70351397146752,119.22225490348958L166.4644443458152,119.56730665566195L166.4644443458152,119.56730665566195L167.9817735101781,120.30037370231952L168.737736734144,120.68862059662074L169.4916086752322,121.09149747131872L170.243171550418,121.50912012632149L170.99220757471915,121.94160436195799L171.73849896709453,122.38906597781184L172.48182794251008,122.85162077401881L173.221976717967,123.32938455058348L173.9587275104407,123.82247310741383L174.69186253688065,124.33100224432127L175.4211640142363,124.85508776111715L176.1464141575771,125.39484545832364L176.1464141575771,125.39484545832364L177.58388931390164,126.52184059227551L178.29567875987016,127.10930962909562L179.00254573868173,127.7129140459273L179.00254573868173,127.7129140459273L180.40064116571085,128.96899221877072L181.09143404688734,129.62169757476062L181.77643332880834,130.29100151039398L182.45542122844918,130.97701982557885L183.12817996184518,131.67986832057858L183.12817996184518,131.67986832057858L184.4541387963467,133.13651904807807L185.10690333273112,133.89055288148728L185.7525675685039,134.6618800936052L186.3909137230381,135.45061648556077L187.0217240110667,136.25687785662058L187.6447806495133,137.08078000649937L188.259865856785,137.92243873658498L188.8667618483219,138.7819698449192L189.4652508400817,139.65948913147557L190.0551150495056,140.55511239790079L190.63613669351722,141.46895544390958L191.2080979887813,142.40113406825088L191.7707811512556,143.3517640708983L192.3239683993472,144.3209612532396L192.86744194753032,145.30884141357538L193.4009840139532,146.31552035232758L193.9243768157983,147.34111387017688L194.4374025680574,148.38573776735566L194.93984348810238,149.4495078413882L195.4314817926674,150.5325398951457L195.9120996993831,151.63494972711828L196.3814794232413,152.75685313753837L196.8394031821315,153.89836592586198L197.2858645854542,155.05768397914406L197.72055973280592,156.2351480851027L198.14314794224939,157.43160341062003L198.553369011402,158.64724964467848L198.95099532956334,159.88182098198504L199.33573984014436,161.13581448632783L199.70735154255698,162.40925219059503L200.0655771981707,163.7020279484998" class="target-curve-polyline" stroke="#ff00f5" style="stroke-width: 3px; fill-opacity: 0; stroke-dasharray: 20px, 10px, 5px, 5px, 5px, 10px;"></path><line x1="183.64733594244154" x2="184.4541387963467" y1="132.70050645291246" y2="133.13651904807807" class="distance-line" stroke="#0000ff" style="stroke-width: 2px; fill-opacity: 0;"></line><path d="M200.0655771981707,163.7020279484998L200.56514193062006,165.59570837152745L201.03328464156084,167.45567461526213L201.4704749270643,169.28213374027038L201.87721288651994,171.0761308306753L202.25395821255532,172.83720913887782L202.6012603297317,174.56671953530656L202.91962227702322,176.26477854448956L203.20953279156925,177.93148926491017L203.471598803667,179.56798363657833L203.70624493034586,181.17375340125227L203.91415683563656,182.7502583119095L204.09583648312713,184.29749513376316L204.2517597511881,185.8154261612733L204.38249764119496,187.30458386935896L204.48854322634494,188.76508211160117L204.5704852457383,190.19749684211143L204.62897689886336,191.60260863082667L204.66448191657815,192.98036535378083L204.67759717382495,194.33128097800565L204.66887051076517,195.65566068937554L204.63885643888474,196.95383536558433L204.5882569786048,198.22661787574947L204.5173837028252,199.47351784476575L204.4272001643088,200.69614771571656L204.318096854079,201.89426125792113L204.190623446347,203.06814202228747L204.04547321666195,204.21848120144443L203.8829000324505,205.3447388682846L203.7037740771538,206.44809847412705L203.5084350348666,207.52828880421683L203.29749480171677,208.585784146413L203.07162669634846,209.62119954240083L202.83141544251268,210.63491317070637L202.5771581541175,211.62661505804803L202.30957646824174,212.5970384560705L202.02946882164974,213.54706700525438L201.73716111689325,214.47647790610242L201.43320958510128,215.3856000630216L201.43320958510128,215.3856000630216L200.79215394308062,217.14333080389324L200.4567797753014,217.99395635965485L200.11197712753335,218.82559402811617L199.7579920577822,219.63793058845408L199.7579920577822,219.63793058845408L199.0253393554319,221.20745452164635L198.6481215286799,221.9660195144407L198.26425284365263,222.70729962098994L197.87397005285334,223.43099984275648L197.47818052933684,224.13817714402148L197.47818052933684,224.13817714402148L196.67168411905214,225.5031266308739L196.2628517120453,226.1630860622089L195.8504526159155,226.80735664057673L195.43504256949353,227.43629946471282L195.43504256949353,227.43629946471282L194.59670619731318,228.64831531220435L194.59670619731318,228.64831531220435L193.75378080505908,229.80487080663954L193.75378080505908,229.80487080663954L192.9100966418941,230.90770211807964L192.9100966418941,230.90770211807964L192.0694120322341,231.9584870688448L192.0694120322341,231.9584870688448L191.23586495908847,232.95966446214115L191.23586495908847,232.95966446214115L190.41390199657354,233.91427369801173L190.41390199657354,233.91427369801173L189.6089537538069,234.82714347858268L189.6089537538069,234.82714347858268L188.82438735247663,235.6994218831187L188.82438735247663,235.6994218831187L188.82438735247663,235.6994218831187L187.69769121401728,236.942509469568L187.69769121401728,236.942509469568L186.982740748654,237.72575756692154L186.982740748654,237.72575756692154L186.30263196725642,238.47772228079444L185.97567534155715,238.84067101226844L185.97567534155715,238.84067101226844L185.35370763837759,239.54779499862093L185.056953426522,239.88794159016084L185.056953426522,239.88794159016084L184.49964337476408,240.5521620907597L184.49964337476408,240.5521620907597L184.49964337476408,240.5521620907597L183.76999111849085,241.5275577763435L183.55094096113478,241.83812441331253L183.3443072168083,242.14125903124523L183.3443072168083,242.14125903124523L183.3443072168083,242.14125903124523L182.8340088960002,243.05997085249544L182.69150926010707,243.35308252715387L182.56837426263047,243.64812152102516L182.56837426263047,243.64812152102516L182.56837426263047,243.64812152102516L182.32841091830238,244.56178688459585L182.32841091830238,244.56178688459585L182.2664088893468,245.17447577529117L182.2664088893468,245.17447577529117" class="target-curve-polyline" stroke="#ff00d1" style="stroke-width: 3px; fill-opacity: 0; stroke-dasharray: 20px, 10px, 5px, 5px, 5px, 10px;"></path><line x1="183.17250517910517" x2="182.2664088893468" y1="244.68895791190664" y2="245.17447577529117" class="distance-line" stroke="#0000ff" style="stroke-width: 2px; fill-opacity: 0;"></line><path d="M182.2664088893468,245.17447577529117L182.28255221177523,245.82756635153382L182.28255221177523,245.82756635153382L182.36503204249243,246.74881553393504L182.4243741278249,247.31579101378068L182.49530859213718,247.95373295616383L182.5759744711157,248.6605196223917L182.66618050742883,249.43662498767281L182.76398018790246,250.2799673698982L182.86880640183128,251.19054839634984L182.97817204468848,252.16565292751082L183.09118022096018,253.2048999856636L183.20594153038937,254.30654236425693L183.32153189681597,255.4701788616901L183.4358812302586,256.6938684773685L183.54795115703357,257.977050382463L183.65607387098834,259.31832210368407L183.75921791668011,260.71706583683397L183.85588773354382,262.1720381199848L183.9450642597876,263.6825300492179L184.02536826041757,265.2473403153087L184.0957798949978,266.8656276102267L184.1548900075333,268.5360407651222L184.20164325266683,270.2575652068044L184.23600197938765,272.03017584696784L184.25707070952384,273.8527927147094L184.2642722072109,275.72456687964655L184.25666347199126,277.64417765915294L184.23306534150862,279.6100034008346L184.19286259927839,281.6208984437318L184.13630425304262,283.6764081876155L184.06282281656166,285.7751863834185L183.97345631201895,287.9171960487822L183.86696056270284,290.10025091220797L183.74400813936447,292.3237379525744L183.6049953288092,294.58665812980144L183.44914350684692,296.88695236819973L183.27633696798827,299.2230397946191L183.0890236506445,301.5951995394744L182.887316428701,304.0017383676875L182.6696363648194,306.4396683636657L182.43588747932588,308.90709158795187L182.1919321327788,311.40617171507387L181.9355027007404,313.9331742742399L181.66498472710197,316.4848981942325L181.384946095327,319.0621961792217L181.09562818814973,321.6628984124939L180.79680433124992,324.28451407083503L180.48921732830686,326.9251369285718L180.1729859057726,329.5824403359761L179.85565318058084,332.2584011826291L179.533363031361,334.94814095498623L179.20605537773386,337.64908905476517L178.8744394994348,340.3591040507793L178.53872213046336,343.0757507512305L178.20462928715838,345.79950245905326L177.8700529184802,348.5265658825697L177.53488079107993,351.2542629093825L177.20504456977446,353.9829502277021L176.87622642571355,356.70777391664217L176.55388390473777,359.4287597175228L176.23417952262855,362.1413784470244L175.9166605892963,364.84282642680546L175.6084769171911,367.53381528281005L175.30442113173984,370.2093054072587L175.00986698616262,372.86912722980213L174.72258163811944,375.50966971490755L174.44172253150694,378.12800975154846L174.16893640494192,380.7223285458439L173.902939456609,383.2895692704948L173.64272660442978,385.82684728012896L173.39501295591924,388.3344678717857L173.1530319050317,390.8072035188168L172.92128481817457,393.24446609445147L172.69479039025885,395.64188621986585L172.4718780096872,397.99649622206636L172.2570451738989,400.3077449360402L172.04439276306474,402.5710816837807L171.83492617242229,404.78466559923106L171.62370475240024,406.9444450053835L171.40885827141344,409.0475861126981L171.19111785603062,411.0922432250991L170.96829054321324,413.0755113083912L170.73692608881893,414.9940677671229L170.4955470388381,416.84533992933956L170.2435036486435,418.62706875499316L169.978672449,420.336483964L169.700428974,421.971362634L169.405239843,423.528469656L169.092791249,425.005715089L168.762769382,426.40100899L168.414860435,427.712261419L168.0487506,428.937382434L167.664126066,430.074282094L167.260673027,431.120870457L166.838077674,432.075057582L166.396026197,432.934753528L165.93420479,433.697868353L165.452299643,434.362312115L164.949996948,434.925994873" class="target-curve-polyline" stroke="#ff0021" style="stroke-width: 3px; fill-opacity: 0; stroke-dasharray: 20px, 10px, 5px, 5px, 5px, 10px;"></path><line x1="182.07786071757175" x2="182.887316428701" y1="302.7137747036994" y2="304.0017383676875" class="distance-line" stroke="#0000ff" style="stroke-width: 2px; fill-opacity: 0;"></line><path d="M164.949996948,434.925994873L164.949996948,434.925994873L164.949996948,434.925994873L164.43171839,435.391890513L164.242570902,435.540718286L164.242570902,435.540718286L164.242570902,435.540718286L164.242570902,435.540718286L163.40867358,436.103675518L163.40867358,436.103675518L163.40867358,436.103675518L163.40867358,436.103675518L162.459422901,436.614866567L162.459422901,436.614866567L162.459422901,436.614866567L162.459422901,436.614866567L161.405936787,437.074291434L161.405936787,437.074291434L161.405936787,437.074291434L161.405936787,437.074291434L160.259333157,437.481950118L159.95943552,437.575776323L159.95943552,437.575776323L159.34496019,437.753722575L159.34496019,437.753722575L159.34496019,437.753722575L158.389152823,437.996376554L158.389152823,437.996376554L158.389152823,437.996376554L157.396601429,438.209912055L157.396601429,438.209912055L157.396601429,438.209912055L156.37199638,438.394329079L156.37199638,438.394329079L155.673434996,438.50109683L155.320028051,438.549627626L155.320028051,438.549627626L155.320028051,438.549627626L154.245386812,438.675807695L154.245386812,438.675807695L154.245386812,438.675807695L153.152763037,438.772869286L153.152763037,438.772869286L152.416673123,438.821400082L152.416673123,438.821400082L152.416673123,438.821400082L151.304501505,438.869930878L151.304501505,438.869930878L151.304501505,438.869930878L150.186855011,438.889343196L150.186855011,438.889343196L149.441031984,438.88610781L149.441031984,438.88610781L149.441031984,438.88610781L148.324683748,438.856989332L148.324683748,438.856989332L148.324683748,438.856989332L147.215368296,438.798752378L147.215368296,438.798752378L146.482047997,438.743750809L146.482047997,438.743750809L146.482047997,438.743750809L145.394876904,438.636983058L145.394876904,438.636983058L145.394876904,438.636983058L144.327246255,438.50109683L143.976522375,438.449330648L143.976522375,438.449330648L143.283846424,438.336092124L143.283846424,438.336092124L143.283846424,438.336092124L142.269367784,438.141968941L142.269367784,438.141968941L142.269367784,438.141968941L141.288500707,437.91872728L141.288500707,437.91872728L141.288500707,437.91872728L140.345935565,437.666367142L140.345935565,437.666367142L139.741153891,437.481950118L139.446362732,437.384888527L139.446362732,437.384888527L139.446362732,437.384888527L139.446362732,437.384888527L138.321916029,436.964288296L138.321916029,436.964288296L138.321916029,436.964288296L138.321916029,436.964288296L137.293356457,436.491921884L137.293356457,436.491921884L137.293356457,436.491921884L137.293356457,436.491921884L136.371801937,435.967789289L136.371801937,435.967789289L136.371801937,435.967789289L136.371801937,435.967789289L135.568370389,435.391890513L135.050003052,434.925994873L135.050003052,434.925994873L135.050003052,434.925994873" class="target-curve-polyline" stroke="#ff00b3" style="stroke-width: 3px; fill-opacity: 0; stroke-dasharray: 20px, 10px, 5px, 5px, 5px, 10px;"></path><line x1="150.71605297424637" x2="150.186855011" y1="441.4635068338209" y2="438.889343196" class="distance-line" stroke="#0000ff" style="stroke-width: 2px; fill-opacity: 0;"></line></svg>