<svg version="1.1" id="Layer_1" xmlns="http://www.w3.org/2000/svg" xmlns:xlink="http://www.w3.org/1999/xlink" x="0px" y="0px" width="691.389px" height="445.444px" viewBox="0 0 691.389 445.444" enable-background="new 0 0 691.389 445.444" xml:space="preserve"><defs></defs><path d="M262.3389892578125 392.08099365234375 C 239.05299377441406 392.0840148925781 227.45799255371094 341.2090148925781 227.52000427246094 323.7799987792969 C 227.94200134277344 308.41900634765625 232.26800537109375 294.26800537109375 240.4980010986328 281.3269958496094 C 217.9340057373047 269.5820007324219 222.66200256347656 258.8089904785156 203.50599670410156 288.09600830078125 C 190.22000122070312 308.39801025390625 169.322998046875 318.6369934082031 145.4290008544922 319.531005859375 C 127.43399810791016 320.7330017089844 110.75900268554688 321.3009948730469 96.87000274658203 307.0929870605469 C 90.27400207519531 300.34698486328125 73.72599792480469 254.427001953125 77.52400207519531 244.87899780273438 C 87.25900268554688 212.68499755859375 124.88700103759766 226.63499450683594 154.1929931640625 212.77699279785156 C 130.23500061035156 188.5970001220703 214.48699951171875 99.03700256347656 236.41400146484375 85.79000091552734 C 296.08099365234375 49.74300003051758 365.58599853515625 45.927001953125 429.85400390625 66.76499938964844 C 474.8689880371094 81.36100006103516 516.85498046875 107.50700378417969 546.5230102539062 144.4499969482422 C 566.114013671875 163.81500244140625 617.1320190429688 183.64999389648438 616.5130004882812 215.4029998779297 C 616.125 234.98599243164062 596.0189819335938 243.05799865722656 579.3410034179688 236.8000030517578 C 565.06201171875 231.44700622558594 557.468994140625 265.8900146484375 541.2960205078125 275.68701171875 C 571.5590209960938 317.17999267578125 558.77197265625 415.4469909667969 497.67401123046875 357.3940124511719 C 478.7049865722656 339.37701416015625 453.5820007324219 337.2799987792969 441.3190002441406 309.8389892578125 C 428.4670104980469 281.0799865722656 367.14599609375 298.6820068359375 335.7850036621094 299.32000732421875 C 334.57000732421875 328.83599853515625 294.78900146484375 388.4490051269531 262.3389892578125 392.08099365234375" style="opacity: 0;"></path></svg>