<!--?xml version="1.0" encoding="utf-8"?-->
<!-- Generator: Adobe Illustrator 17.0.2, SVG Export Plug-In . SVG Version: 6.00 Build 0)  -->

<svg version="1.1" id="Layer_1" xmlns="http://www.w3.org/2000/svg" xmlns:xlink="http://www.w3.org/1999/xlink" x="0px" y="0px" width="691.389px" height="445.444px" viewBox="0 0 691.389 445.444" enable-background="new 0 0 691.389 445.444" xml:space="preserve">
<path fill="none" d="M 262.339 392.081 C 239.053 392.084 227.458 341.209 227.52 323.78 C 227.942 308.419 232.268 294.268 240.498 281.327 C 217.934 269.582 222.662 258.809 203.506 288.096 C 190.22 308.398 169.323 318.637 145.429 319.531 C 127.434 320.733 110.759 321.301 96.87 307.093 C 90.274 300.347 73.726 254.427 77.524 244.879 C 87.259 212.685 124.887 226.635 154.193 212.777 C 130.235 188.597 214.487 99.037 236.414 85.79 C 296.081 49.743 365.586 45.927 429.854 66.765 C 474.869 81.361 516.855 107.507 546.523 144.45 C 566.114 163.815 617.132 183.65 616.513 215.403 C 616.125 234.986 596.019 243.058 579.341 236.8 C 565.062 231.447 557.469 265.89 541.296 275.687 C 571.559 317.18 558.772 415.447 497.674 357.394 C 478.705 339.377 453.582 337.28 441.319 309.839 C 428.467 281.08 367.146 298.682 335.785 299.32 C 334.57 328.836 294.789 388.449 262.339 392.081"></path>
<g>
	<g id="levels_0_x2C_1_x2C_2">
		<g>
			<path fill="#FFE563" stroke="#E8D46D" stroke-width="3.1718" stroke-miterlimit="10" d="M 559.748 219.142 C 555.783 224.209 544.682 247.205 528.03 257.117 C 511.378 267.029 501.467 267.426 482.832 265.84 C 464.197 264.254 443.58 264.254 427.721 259.496 C 411.862 254.738 396.399 259.893 389.263 260.685 C 382.126 261.479 362.699 267.029 355.959 269.804 C 349.219 272.579 340.1 276.544 334.945 277.337 C 329.79 278.131 311.553 282.887 302.433 280.906 C 293.314 278.923 284.591 279.32 273.49 271.787 C 262.388 264.254 251.684 258.307 241.772 249.188 C 231.86 240.069 227.895 226.985 218.777 219.849 C 209.658 212.712 202.918 207.955 196.971 205.973 C 191.024 203.99 188.248 200.818 182.301 203.197 C 185.533 211.229 204.894 243.229 217.784 252.155 C 230.674 261.085 240.744 268.99 258.111 275.938 C 275.476 282.889 311.953 289.233 348.429 286.457 C 384.905 283.682 417.019 284.246 445.169 281.383 C 473.319 278.524 506.715 276.681 521.934 271.26 C 537.151 265.84 544.263 258.79 548.835 252.601 C 553.404 246.412 558.558 235.881 559.748 219.142"></path>
			<path fill="#7BD968" stroke="#598C4E" stroke-width="3.1718" stroke-miterlimit="10" d="M 98.819 268.658 C 98.61 273.819 97.061 289.767 105.629 298.53 C 119.793 313.02 139.703 307.485 144.962 307.29 C 150.22 307.098 175.921 307.879 193.254 281.389 C 210.584 254.896 224.603 244.981 233.168 238.721 C 228.505 231.736 224.746 224.518 218.777 219.851 C 209.658 212.714 202.918 207.957 196.971 205.975 C 191.024 203.992 188.248 200.821 182.301 203.2 C 181.829 203.391 181.365 203.587 180.905 203.792 C 175.142 213.833 162.679 224.342 153.139 225.903 C 143.597 227.461 128.849 229.127 124.709 229.288 C 121.595 229.406 119.064 232.33 117.896 232.915 C 109.546 238.681 99.362 255.246 98.819 268.658"></path>
			<path fill="#7BD968" stroke="#598C4E" stroke-width="3.1718" stroke-miterlimit="10" d="M 323.459 279.586 C 316.307 280.906 307.797 282.07 302.434 280.906 C 293.315 278.923 284.592 279.32 273.491 271.787 C 270.747 269.926 268.029 268.157 265.344 266.423 C 257.236 275.157 245.542 296.369 242.963 304.695 C 240.384 313.022 236.817 327.691 243.953 342.361 C 251.089 357.031 249.503 361.987 251.882 368.33 C 254.261 374.673 254.458 380.029 262.786 379.827 C 271.115 379.629 275.845 373.087 281.609 365.555 C 287.372 358.021 298.337 349.104 307.393 337.008 C 314.738 327.192 319.635 318.74 322.081 310.899 C 324.527 303.058 323.461 280.252 323.461 280.252 C 323.461 280.252 323.461 279.586 323.461 279.586 C 323.461 279.586 323.459 279.586 323.459 279.586"></path>
			<path fill="#7BD968" stroke="#598C4E" stroke-width="3.1718" stroke-miterlimit="10" d="M 561.034 217.252 C 564.992 210.815 570.543 197.21 574.815 196.852 C 579.573 196.456 583.934 200.024 585.519 198.835 C 594.397 201.616 604.414 207.509 604.265 215.164 C 604.113 222.822 601.319 222.827 598.08 225.33 C 594.84 227.834 588.359 227.099 583.646 225.33 C 578.93 223.558 565.667 220.514 561.034 217.252"></path>
			<path fill="#7BD968" stroke="#598C4E" stroke-width="3.1718" stroke-miterlimit="10" d="M 515.543 263.275 C 505.293 267.098 496.357 266.992 482.831 265.84 C 471.41 264.867 459.25 264.489 447.895 263.25 C 446.278 278.555 444.475 305.636 468.5 325.639 C 481.141 336.332 488.785 337.032 496.699 340.916 C 504.613 344.801 513.475 359.377 527.392 362.165 C 534.334 363.553 537.255 362.862 541.7 358.138 C 546.148 353.411 547.256 352.166 547.814 347.167 C 548.368 342.161 550.31 324.381 546.699 314.525 C 543.088 304.666 536.558 290.637 532.531 284.523 C 528.505 278.412 515.55 263.968 515.55 263.968 C 515.55 263.968 515.55 263.274 515.55 263.274 C 515.55 263.274 515.543 263.275 515.543 263.275 C 515.543 263.275 515.543 263.275 515.543 263.275"></path>
			<path fill="#94AEFF" stroke="#4464C7" stroke-width="3.1718" stroke-miterlimit="10" d="M 117.893 232.91 C 123.65 233.911 126.46 243.228 126.46 243.228 C 131.33 241.67 133.86 242.447 135.61 243.228 C 137.168 236.999 143.4 229.55 151.384 229.283 C 159.368 229.017 166.575 228.236 169.882 243.228 C 180.397 242.646 190.324 235.829 194.219 236.219 C 198.114 236.609 201.229 239.14 201.619 240.502 C 202.009 241.865 203.958 247.124 203.958 248.878 C 203.958 250.632 203.18 253.747 201.232 254.332 C 199.285 254.918 196.948 253.164 196.365 251.411 C 195.781 249.658 195.974 246.734 194.613 245.954 C 193.254 245.179 191.108 245.758 189.745 246.345 C 188.381 246.933 171.637 251.79 169.492 252.571 C 168.712 258.618 163.26 268.74 152.162 269.13 C 141.064 269.521 139.115 265.348 138.143 261.204 C 137.169 257.056 136.194 253.748 136.194 253.748 C 130.936 254.139 131.908 253.944 128.404 253.944 C 126.264 260.954 121.198 271.051 109.517 271.258 C 97.835 271.466 91.798 265.24 93.159 250.83 C 87.124 250.05 89.264 249.073 89.264 249.073 C 90.432 241.674 90.432 241.674 90.432 241.674 C 90.432 241.674 98.416 242.065 98.416 242.065 C 100.173 232.129 114.116 232.253 117.893 232.91"></path>
			<path fill="#FFFFFF" stroke="#4464C7" stroke-width="3.1718" stroke-miterlimit="10" d="M 105.584 240.391 C 112.296 237.408 120.881 242.303 122.087 246 C 123.292 249.702 122.087 260.97 116.654 263.959 C 111.219 266.949 102.161 266.174 100.35 261.565 C 98.539 256.962 97.937 243.792 105.584 240.391"></path>
			<path fill="#E0B577" stroke="#A87C3B" stroke-width="3.1718" stroke-miterlimit="10" d="M 106.405 251.213 C 108.042 248.983 114.389 248.877 116.14 251.213 C 117.89 253.548 116.727 256.59 114.972 257.504 C 113.219 258.418 107.963 261.925 106.405 259.192 C 104.849 256.466 104.264 254.137 106.405 251.213"></path>
			<path fill="#FFFFFF" stroke="#4464C7" stroke-width="3.1718" stroke-miterlimit="10" d="M 143.141 258.805 C 140.175 251.544 140.338 245.13 143.141 241.723 C 145.946 238.322 153.912 235.562 159.241 241.019 C 164.573 246.486 165.975 251.154 164.573 254.149 C 163.17 257.141 158.765 262.943 154.558 263.106 C 150.35 263.268 144.75 262.736 143.141 258.805"></path>
			<path fill="#E0B577" stroke="#A87C3B" stroke-width="3.1718" stroke-miterlimit="10" d="M 147.881 248.683 C 149.73 247.227 156.448 249.203 157.033 250.402 C 157.616 251.601 156.84 254.8 155.865 254.855 C 154.891 254.91 148.662 257.717 147.101 254.855 C 145.54 251.99 145.156 250.829 147.881 248.683"></path>
			<path fill="#C79C52" stroke="#806434" stroke-width="3.1718" stroke-miterlimit="10" d="M 442.102 84.18 C 423.329 77.41 393.445 70.449 376.575 67.205 C 365.86 65.147 350.113 65.117 334.56 66.348 C 339.505 71.17 349.021 86.435 351.596 105.266 C 368.051 100.112 410.671 104.87 424.549 110.221 C 431.289 105.07 440.011 91.983 442.102 84.18"></path>
			<path fill="#C79C52" stroke="#806434" stroke-width="3.1718" stroke-miterlimit="10" d="M 457.379 150.464 C 452.548 135.398 439.023 123.107 424.549 110.221 C 431.289 105.066 440.011 91.983 442.102 84.177 C 446.265 85.681 449.889 87.171 452.699 88.611 C 468.161 96.541 501.466 115.175 514.153 126.673 C 524.787 136.307 534.575 149.279 540.51 156.497 C 520.276 151.829 490.169 146.694 478.074 146.893 C 465.977 147.093 457.379 150.464 457.379 150.464"></path>
			<path fill="#C79C52" stroke="#806434" stroke-width="3.1718" stroke-miterlimit="10" d="M 540.509 156.5 C 520.275 151.831 490.168 146.696 478.073 146.895 C 465.977 147.095 457.378 150.464 457.378 150.464 C 452.348 154.032 433.472 185.355 433.472 185.355 C 433.667 197.053 440.609 200.421 445.366 208.549 C 450.123 216.674 455.076 230.554 457.378 244.851 C 474.235 247.192 499.228 251.666 516.926 241.255 C 537.147 229.361 535.561 220.241 543.886 205.968 C 551.135 193.547 558.379 181.124 571.64 181.247 C 571.64 181.247 571.637 181.253 571.637 181.253 C 561.325 176.362 548.644 165.527 543.49 159.977 C 542.653 159.079 541.652 157.898 540.509 156.5"></path>
			<path fill="#C79C52" stroke="#806434" stroke-width="3.1718" stroke-miterlimit="10" d="M 361.906 170.685 C 336.927 189.716 325.827 241.852 327.352 257.222 C 329.58 256.609 331.97 255.915 334.549 255.135 C 360.717 247.205 366.267 246.809 380.144 241.655 C 394.021 236.5 403.14 238.879 411.466 238.879 C 419.792 238.879 434.462 242.447 450.717 244.034 C 452.746 244.232 454.979 244.517 457.38 244.854 C 455.079 230.554 450.125 216.676 445.368 208.549 C 440.61 200.424 433.668 197.053 433.474 185.358 C 425.933 178.218 396.002 163.748 361.906 170.685"></path>
			<path fill="#C79C52" stroke="#806434" stroke-width="3.1718" stroke-miterlimit="10" d="M 424.549 110.221 C 410.672 104.867 368.052 100.109 351.596 105.266 C 345.906 107.049 337.148 115.575 334.56 122.908 C 339.526 128.459 351.003 142.335 354.572 148.879 C 358.14 155.423 361.018 168.001 361.905 170.685 C 396.002 163.745 425.939 178.218 433.466 185.355 C 433.466 185.355 452.342 154.033 457.379 150.464 C 452.543 135.398 439.023 123.108 424.549 110.221"></path>
			<path fill="#C79C52" stroke="#806434" stroke-width="3.1718" stroke-miterlimit="10" d="M 334.561 122.908 C 311.775 125.09 273.888 145.511 262.786 152.844 C 251.684 160.177 234.239 197.249 231.712 209.683 C 236.364 214.484 240.977 219.638 245.341 225.003 C 264.372 248.395 279.438 256.325 290.54 259.1 C 300.547 261.603 307.008 262.814 327.352 257.223 C 325.826 241.853 336.928 189.716 361.906 170.686 C 361.014 168.002 358.138 155.423 354.573 148.88 C 351.008 142.335 339.527 128.458 334.561 122.908"></path>
			<path fill="#C79C52" stroke="#806434" stroke-width="3.1718" stroke-miterlimit="10" d="M 334.561 122.908 C 311.775 125.09 273.888 145.511 262.786 152.844 C 254.261 134.01 231.068 113 221.734 111.677 C 223.763 109.767 225.936 107.897 228.293 106.06 C 244.549 93.372 275.474 77.91 296.091 72.359 C 305.993 69.695 320.194 67.484 334.562 66.349 C 339.507 71.171 349.023 86.436 351.598 105.267 C 345.907 107.049 337.149 115.575 334.561 122.908"></path>
			<path fill="#C79C52" stroke="#806434" stroke-width="3.1718" stroke-miterlimit="10" d="M 231.712 209.682 C 216.068 193.535 199.978 181.365 191.42 178.614 C 184.855 176.502 178.685 176.686 172.779 179.441 C 182.295 172.546 179.922 168.703 192.213 150.861 C 202.721 135.604 209.753 122.96 221.733 111.676 C 231.068 112.996 254.26 134.009 262.785 152.844 C 251.684 160.176 234.239 197.248 231.712 209.682"></path>
			<path fill="#FFC163" stroke="#B38645" stroke-width="3.1718" stroke-miterlimit="10" d="M 160.891 188.923 C 170.355 178.028 180.318 175.046 191.42 178.614 C 202.522 182.182 226.311 201.61 245.341 225.002 C 264.372 248.394 279.438 256.324 290.54 259.099 C 301.642 261.874 308.382 263.064 334.549 255.134 C 360.717 247.204 366.267 246.808 380.144 241.654 C 394.021 236.499 403.14 238.878 411.466 238.878 C 419.792 238.878 434.462 242.446 450.717 244.033 C 466.973 245.619 496.709 253.151 516.929 241.257 C 537.15 229.363 535.564 220.243 543.889 205.971 C 552.215 191.698 560.541 177.425 577.986 182.182 C 595.432 186.94 587.105 197.645 585.519 198.834 C 583.933 200.023 579.572 196.455 574.815 196.851 C 570.058 197.247 563.713 214.073 559.748 219.141 C 555.784 224.205 544.682 247.204 528.03 257.116 C 511.379 267.028 501.467 267.425 482.832 265.839 C 464.197 264.253 443.58 264.253 427.721 259.495 C 411.862 254.737 396.399 259.892 389.263 260.684 C 382.126 261.478 362.699 267.028 355.959 269.803 C 349.219 272.578 340.1 276.543 334.945 277.336 C 329.79 278.13 311.553 282.886 302.433 280.905 C 293.314 278.922 284.591 279.319 273.49 271.786 C 262.388 264.253 251.684 258.306 241.772 249.187 C 231.86 240.068 227.895 226.984 218.777 219.848 C 209.658 212.711 202.918 207.954 196.971 205.972 C 191.024 203.989 188.248 200.817 182.301 203.196 C 176.354 205.575 171.596 209.539 165.253 205.972 C 158.909 202.403 157.396 192.945 160.891 188.923"></path>
			
				<path fill="#7BD968" stroke="#598C4E" stroke-width="3.1718" stroke-linecap="round" stroke-linejoin="round" stroke-miterlimit="10" d="M112.718,288.835C113.90700000000001,290.421,118.86500000000001,296.567,126.39500000000001,296.368C133.925,296.17,142.05700000000002,294.782,143.84,290.421"></path>
		</g>
		<g>
			<g>
				<path fill="#FFE563" stroke="#E8D46D" stroke-width="0.609" stroke-miterlimit="10" d="M 438.113 134.215 C 437.326 135.171 435.109 139.548 431.856 141.371 C 428.625 143.214 426.72 143.249 423.152 142.862 C 419.584 142.484 415.626 142.402 412.603 141.425 C 409.574 140.439 406.585 141.367 405.212 141.491 C 403.843 141.615 400.085 142.602 398.778 143.109 C 397.471 143.606 395.705 144.333 394.711 144.463 C 393.723 144.596 390.204 145.431 388.457 145.023 C 386.723 144.6 385.037 144.638 382.941 143.15 C 380.832 141.66 378.812 140.474 376.942 138.682 C 375.082 136.89 374.369 134.361 372.647 132.953 C 370.928 131.545 369.652 130.605 368.513 130.202 C 367.378 129.796 366.867 129.172 365.71 129.606 C 366.298 131.165 369.878 137.387 372.317 139.151 C 374.769 140.914 376.664 142.475 379.96 143.88 C 383.271 145.289 390.253 146.659 397.259 146.273 C 404.276 145.889 410.431 146.132 415.849 145.695 C 421.267 145.267 427.688 145.045 430.631 144.062 C 433.58 143.084 434.967 141.766 435.871 140.596 C 436.775 139.424 437.81 137.428 438.113 134.215"></path>
				<path fill="#7BD968" stroke="#598C4E" stroke-width="0.609" stroke-miterlimit="10" d="M 349.421 141.833 C 349.354 142.822 348.999 145.875 350.611 147.59 C 353.262 150.439 357.117 149.456 358.12 149.439 C 359.135 149.421 364.064 149.681 367.499 144.66 C 370.931 139.648 373.665 137.802 375.329 136.636 C 374.464 135.272 373.773 133.87 372.647 132.954 C 370.926 131.546 369.651 130.607 368.513 130.203 C 367.378 129.797 366.867 129.173 365.71 129.607 C 365.62 129.646 365.535 129.685 365.444 129.716 C 364.295 131.62 361.865 133.59 360.023 133.849 C 358.186 134.109 355.351 134.376 354.552 134.38 C 353.956 134.39 353.45 134.944 353.229 135.052 C 351.6 136.121 349.59 139.264 349.421 141.833"></path>
				<path fill="#7BD968" stroke="#598C4E" stroke-width="0.609" stroke-miterlimit="10" d="M 392.507 144.853 C 391.12 145.075 389.484 145.266 388.46 145.025 C 386.725 144.603 385.04 144.64 382.944 143.152 C 382.424 142.779 381.914 142.429 381.399 142.087 C 379.81 143.733 377.479 147.758 376.946 149.344 C 376.42 150.93 375.679 153.735 376.986 156.583 C 378.296 159.425 377.97 160.363 378.402 161.593 C 378.826 162.822 378.848 163.853 380.445 163.853 C 382.04 163.846 382.979 162.61 384.114 161.188 C 385.249 159.755 387.394 158.092 389.183 155.809 C 390.633 153.954 391.605 152.358 392.113 150.857 C 392.615 149.359 392.5 144.973 392.5 144.973 C 392.5 144.973 392.507 144.853 392.507 144.853"></path>
				<path fill="#7BD968" stroke="#598C4E" stroke-width="0.609" stroke-miterlimit="10" d="M 438.36 133.858 C 439.154 132.639 440.275 130.055 441.086 130 C 442.003 129.939 442.833 130.644 443.137 130.425 C 444.834 130.989 446.727 132.163 446.674 133.63 C 446.609 135.106 446.07 135.095 445.432 135.552 C 444.797 136.03 443.568 135.857 442.669 135.497 C 441.774 135.142 439.24 134.5 438.36 133.858"></path>
				<path fill="#7BD968" stroke="#598C4E" stroke-width="0.609" stroke-miterlimit="10" d="M 429.44 142.51 C 427.455 143.204 425.747 143.144 423.151 142.862 C 420.968 142.634 418.632 142.51 416.464 142.224 C 416.089 145.155 415.625 150.346 420.166 154.29 C 422.545 156.397 424.01 156.548 425.512 157.332 C 427.017 158.119 428.656 160.952 431.32 161.541 C 432.648 161.836 433.206 161.712 434.08 160.828 C 434.953 159.933 435.17 159.702 435.3 158.743 C 435.431 157.792 435.87 154.376 435.222 152.469 C 434.572 150.554 433.373 147.841 432.626 146.649 C 431.874 145.46 429.451 142.634 429.451 142.634 C 429.451 142.634 429.44 142.51 429.44 142.51"></path>
				<path fill="#94AEFF" stroke="#4464C7" stroke-width="0.609" stroke-miterlimit="10" d="M 353.231 135.052 C 354.337 135.264 354.829 137.068 354.829 137.068 C 355.774 136.787 356.256 136.953 356.596 137.101 C 356.923 135.912 358.149 134.51 359.678 134.496 C 361.218 134.48 362.606 134.354 363.173 137.253 C 365.188 137.174 367.128 135.912 367.871 136.003 C 368.617 136.091 369.206 136.59 369.274 136.847 C 369.338 137.116 369.698 138.134 369.689 138.464 C 369.683 138.81 369.52 139.404 369.141 139.501 C 368.766 139.613 368.334 139.26 368.224 138.927 C 368.115 138.585 368.17 138.027 367.9 137.871 C 367.646 137.716 367.234 137.819 366.965 137.922 C 366.705 138.031 363.469 138.896 363.059 139.038 C 362.886 140.188 361.8 142.113 359.663 142.141 C 357.529 142.179 357.179 141.366 357.005 140.564 C 356.833 139.762 356.66 139.123 356.66 139.123 C 355.647 139.181 355.837 139.146 355.172 139.123 C 354.73 140.466 353.716 142.391 351.473 142.376 C 349.228 142.362 348.098 141.145 348.409 138.382 C 347.26 138.217 347.679 138.033 347.679 138.033 C 347.933 136.617 347.933 136.617 347.933 136.617 C 347.933 136.617 349.462 136.732 349.462 136.732 C 349.833 134.83 352.511 134.914 353.231 135.052"></path>
				<path fill="#FFFFFF" stroke="#4464C7" stroke-width="0.609" stroke-miterlimit="10" d="M 350.832 136.432 C 352.139 135.893 353.76 136.866 353.988 137.582 C 354.2 138.29 353.928 140.457 352.858 141.008 C 351.811 141.556 350.07 141.372 349.747 140.479 C 349.415 139.588 349.352 137.057 350.832 136.432"></path>
				<path fill="#E0B577" stroke="#A87C3B" stroke-width="0.609" stroke-miterlimit="10" d="M 350.949 138.522 C 351.276 138.091 352.489 138.103 352.816 138.557 C 353.146 139.014 352.909 139.59 352.564 139.756 C 352.231 139.928 351.203 140.58 350.923 140.048 C 350.626 139.518 350.525 139.069 350.949 138.522"></path>
				<path fill="#FFFFFF" stroke="#4464C7" stroke-width="0.609" stroke-miterlimit="10" d="M 357.962 140.125 C 357.429 138.719 357.486 137.486 358.042 136.845 C 358.596 136.204 360.131 135.703 361.134 136.778 C 362.132 137.844 362.389 138.754 362.099 139.318 C 361.817 139.89 360.954 140.976 360.142 141 C 359.333 141.016 358.264 140.882 357.962 140.125"></path>
				<path fill="#E0B577" stroke="#A87C3B" stroke-width="0.609" stroke-miterlimit="10" d="M 358.931 138.202 C 359.283 137.936 360.571 138.332 360.674 138.57 C 360.783 138.798 360.63 139.414 360.428 139.421 C 360.237 139.425 359.039 139.941 358.749 139.382 C 358.461 138.824 358.394 138.592 358.931 138.202"></path>
				<path fill="#C79C52" stroke="#806434" stroke-width="0.609" stroke-miterlimit="10" d="M 416.077 107.83 C 412.5 106.45 406.797 104.991 403.569 104.295 C 401.522 103.865 398.498 103.789 395.507 103.966 C 396.441 104.909 398.197 107.882 398.616 111.506 C 401.8 110.59 409.968 111.669 412.6 112.755 C 413.921 111.794 415.643 109.313 416.077 107.83"></path>
				<path fill="#C79C52" stroke="#806434" stroke-width="0.609" stroke-miterlimit="10" d="M 418.744 120.613 C 417.874 117.705 415.328 115.289 412.602 112.751 C 413.922 111.791 415.644 109.313 416.077 107.827 C 416.867 108.13 417.561 108.432 418.085 108.717 C 421.021 110.303 427.35 114.011 429.738 116.283 C 431.739 118.173 433.566 120.707 434.675 122.119 C 430.81 121.129 425.054 120.025 422.722 120.015 C 420.408 120.002 418.744 120.613 418.744 120.613"></path>
				<path fill="#C79C52" stroke="#806434" stroke-width="0.609" stroke-miterlimit="10" d="M 434.668 122.118 C 430.809 121.128 425.051 120.024 422.717 120.014 C 420.407 120.001 418.74 120.613 418.74 120.613 C 417.749 121.273 413.998 127.217 413.998 127.217 C 413.991 129.463 415.311 130.135 416.197 131.708 C 417.068 133.293 417.963 135.978 418.347 138.729 C 421.578 139.247 426.354 140.209 429.793 138.286 C 433.727 136.083 433.461 134.321 435.117 131.615 C 436.555 129.264 438.002 126.909 440.541 126.981 C 440.541 126.981 440.547 126.985 440.547 126.985 C 438.583 126.004 436.189 123.879 435.235 122.794 C 435.071 122.623 434.885 122.384 434.668 122.118"></path>
				<path fill="#C79C52" stroke="#806434" stroke-width="0.609" stroke-miterlimit="10" d="M 400.328 124.103 C 395.458 127.65 393.11 137.614 393.342 140.571 C 393.773 140.467 394.235 140.347 394.731 140.207 C 399.79 138.789 400.863 138.739 403.542 137.803 C 406.234 136.874 407.968 137.36 409.56 137.393 C 411.165 137.429 413.965 138.174 417.075 138.552 C 417.459 138.592 417.893 138.661 418.348 138.731 C 417.964 135.979 417.069 133.295 416.199 131.71 C 415.313 130.136 413.994 129.465 414 127.219 C 412.583 125.816 406.903 122.911 400.328 124.103"></path>
				<path fill="#C79C52" stroke="#806434" stroke-width="0.609" stroke-miterlimit="10" d="M 412.601 112.751 C 409.962 111.664 401.797 110.584 398.614 111.501 C 397.512 111.819 395.799 113.417 395.273 114.82 C 396.205 115.904 398.359 118.61 399.006 119.884 C 399.662 121.155 400.164 123.586 400.328 124.103 C 406.903 122.911 412.584 125.813 414.002 127.215 C 414.002 127.215 417.756 121.271 418.743 120.611 C 417.874 117.705 415.328 115.29 412.601 112.751"></path>
				<path fill="#C79C52" stroke="#806434" stroke-width="0.609" stroke-miterlimit="10" d="M 395.276 114.823 C 390.889 115.15 383.53 118.907 381.378 120.269 C 379.217 121.633 375.719 128.674 375.176 131.059 C 376.042 132.003 376.92 133.002 377.733 134.058 C 381.287 138.628 384.143 140.207 386.272 140.788 C 388.175 141.307 389.411 141.564 393.342 140.575 C 393.109 137.617 395.457 127.653 400.33 124.107 C 400.163 123.589 399.662 121.159 399.007 119.888 C 398.363 118.612 396.209 115.904 395.276 114.823"></path>
				<path fill="#C79C52" stroke="#806434" stroke-width="0.609" stroke-miterlimit="10" d="M 395.276 114.823 C 390.889 115.15 383.53 118.907 381.378 120.269 C 379.817 116.625 375.449 112.491 373.661 112.203 C 374.057 111.845 374.482 111.496 374.942 111.147 C 378.117 108.778 384.121 105.936 388.098 104.955 C 390.013 104.486 392.742 104.111 395.504 103.963 C 396.438 104.904 398.194 107.878 398.613 111.502 C 397.515 111.819 395.799 113.42 395.276 114.823"></path>
				<path fill="#C79C52" stroke="#806434" stroke-width="0.609" stroke-miterlimit="10" d="M 375.176 131.059 C 372.244 127.893 369.202 125.493 367.564 124.928 C 366.318 124.493 365.128 124.503 363.987 125.014 C 365.845 123.719 365.395 122.971 367.834 119.603 C 369.917 116.718 371.313 114.315 373.661 112.2 C 375.45 112.488 379.814 116.622 381.378 120.266 C 379.217 121.633 375.719 128.674 375.176 131.059"></path>
				<path fill="#FFC163" stroke="#B38645" stroke-width="0.609" stroke-miterlimit="10" d="M 361.667 126.787 C 363.53 124.732 365.452 124.194 367.564 124.928 C 369.686 125.65 374.174 129.484 377.733 134.053 C 381.287 138.623 384.143 140.203 386.272 140.784 C 388.387 141.361 389.678 141.62 394.731 140.203 C 399.79 138.784 400.863 138.734 403.542 137.798 C 406.234 136.87 407.968 137.355 409.56 137.389 C 411.165 137.425 413.965 138.17 417.075 138.548 C 420.2 138.912 425.869 140.482 429.8 138.284 C 433.734 136.081 433.468 134.32 435.122 131.614 C 436.776 128.911 438.429 126.206 441.76 127.187 C 445.102 128.172 443.451 130.199 443.144 130.422 C 442.834 130.637 442.01 129.936 441.093 129.996 C 440.183 130.057 438.894 133.258 438.119 134.212 C 437.336 135.166 435.115 139.544 431.862 141.367 C 428.631 143.211 426.726 143.246 423.158 142.859 C 419.59 142.481 415.631 142.399 412.609 141.421 C 409.583 140.435 406.591 141.364 405.221 141.488 C 403.849 141.612 400.092 142.598 398.784 143.106 C 397.478 143.603 395.711 144.329 394.718 144.46 C 393.729 144.593 390.21 145.428 388.463 145.019 C 386.729 144.597 385.043 144.635 382.947 143.147 C 380.839 141.657 378.817 140.471 376.947 138.678 C 375.088 136.885 374.374 134.357 372.652 132.949 C 370.933 131.541 369.657 130.601 368.519 130.198 C 367.384 129.792 366.873 129.168 365.716 129.602 C 364.567 130.034 363.632 130.776 362.433 130.062 C 361.226 129.36 360.97 127.545 361.667 126.787"></path>
				
					<path fill="#7BD968" stroke="#598C4E" stroke-width="0.609" stroke-linecap="round" stroke-linejoin="round" stroke-miterlimit="10" d="M352.012,145.773C352.226,146.081,353.161,147.268,354.608,147.268C356.049,147.258,357.621,147.036,357.975,146.198"></path>
			</g>
			<g>
				<path fill="#FFE563" stroke="#E8D46D" stroke-width="0.1192" stroke-miterlimit="10" d="M 415.018 116.973 C 414.878 117.163 414.454 118.026 413.822 118.404 C 413.203 118.778 412.838 118.788 412.128 118.731 C 411.425 118.664 410.66 118.658 410.056 118.484 C 409.467 118.299 408.884 118.493 408.619 118.529 C 408.353 118.551 407.622 118.766 407.361 118.871 C 407.11 118.977 406.772 119.122 406.58 119.15 C 406.381 119.175 405.7 119.355 405.353 119.283 C 405.012 119.204 404.678 119.219 404.269 118.941 C 403.847 118.659 403.445 118.43 403.08 118.087 C 402.702 117.745 402.553 117.26 402.2 116.989 C 401.872 116.711 401.618 116.532 401.398 116.46 C 401.169 116.39 401.068 116.274 400.851 116.356 C 400.969 116.657 401.696 117.864 402.175 118.2 C 402.659 118.539 403.039 118.83 403.687 119.099 C 404.347 119.356 405.706 119.592 407.082 119.496 C 408.448 119.395 409.66 119.422 410.724 119.308 C 411.777 119.204 413.029 119.144 413.599 118.934 C 414.169 118.734 414.441 118.462 414.624 118.235 C 414.782 118.001 414.975 117.605 415.018 116.973"></path>
				<path fill="#7BD968" stroke="#598C4E" stroke-width="0.1192" stroke-miterlimit="10" d="M 397.7 118.81 C 397.687 119.007 397.633 119.6 397.957 119.936 C 398.493 120.482 399.238 120.266 399.432 120.266 C 399.635 120.262 400.597 120.284 401.248 119.288 C 401.897 118.299 402.423 117.925 402.756 117.693 C 402.573 117.43 402.443 117.16 402.199 116.989 C 401.868 116.711 401.62 116.532 401.397 116.459 C 401.168 116.389 401.068 116.273 400.85 116.355 C 400.828 116.362 400.806 116.371 400.786 116.38 C 400.578 116.755 400.108 117.148 399.747 117.206 C 399.388 117.27 398.831 117.325 398.677 117.33 C 398.552 117.334 398.462 117.452 398.421 117.47 C 398.1 117.684 397.722 118.311 397.7 118.81"></path>
				<path fill="#7BD968" stroke="#598C4E" stroke-width="0.1192" stroke-miterlimit="10" d="M 406.147 119.231 C 405.868 119.288 405.552 119.327 405.348 119.282 C 405.01 119.203 404.678 119.218 404.263 118.94 C 404.158 118.873 404.062 118.803 403.957 118.737 C 403.647 119.065 403.204 119.861 403.111 120.178 C 403.009 120.482 402.879 121.034 403.146 121.586 C 403.418 122.143 403.353 122.334 403.441 122.575 C 403.524 122.806 403.537 123.009 403.85 123 C 404.176 122.99 404.339 122.754 404.562 122.464 C 404.773 122.179 405.182 121.85 405.532 121.398 C 405.804 121.031 405.993 120.71 406.086 120.409 C 406.176 120.124 406.148 119.268 406.148 119.268 C 406.148 119.268 406.147 119.231 406.147 119.231 C 406.147 119.231 406.147 119.231 406.147 119.231"></path>
				<path fill="#7BD968" stroke="#598C4E" stroke-width="0.1192" stroke-miterlimit="10" d="M 415.068 116.903 C 415.228 116.659 415.424 116.155 415.588 116.139 C 415.774 116.132 415.938 116.255 415.988 116.213 C 416.322 116.32 416.697 116.542 416.704 116.827 C 416.697 117.112 416.586 117.116 416.466 117.212 C 416.342 117.303 416.098 117.282 415.927 117.208 C 415.742 117.145 415.241 117.024 415.068 116.903"></path>
				<path fill="#7BD968" stroke="#598C4E" stroke-width="0.1192" stroke-miterlimit="10" d="M 413.351 118.632 C 412.973 118.774 412.635 118.766 412.127 118.731 C 411.697 118.686 411.244 118.674 410.817 118.625 C 410.749 119.203 410.683 120.22 411.588 120.97 C 412.069 121.372 412.347 121.397 412.648 121.543 C 412.939 121.69 413.27 122.245 413.797 122.339 C 414.057 122.403 414.168 122.378 414.335 122.196 C 414.503 122.017 414.546 121.972 414.559 121.784 C 414.584 121.596 414.658 120.928 414.525 120.564 C 414.392 120.186 414.138 119.666 413.992 119.44 C 413.841 119.206 413.357 118.664 413.357 118.664 C 413.357 118.664 413.351 118.632 413.351 118.632"></path>
				<path fill="#94AEFF" stroke="#4464C7" stroke-width="0.1192" stroke-miterlimit="10" d="M 398.423 117.469 C 398.638 117.506 398.742 117.854 398.742 117.854 C 398.924 117.799 399.016 117.826 399.089 117.859 C 399.143 117.621 399.384 117.341 399.676 117.338 C 399.983 117.328 400.25 117.299 400.377 117.861 C 400.768 117.847 401.143 117.581 401.281 117.601 C 401.432 117.617 401.547 117.707 401.569 117.765 C 401.582 117.804 401.656 118.003 401.659 118.073 C 401.659 118.139 401.631 118.26 401.553 118.281 C 401.477 118.303 401.392 118.236 401.369 118.166 C 401.348 118.1 401.353 117.999 401.306 117.966 C 401.257 117.938 401.175 117.953 401.118 117.982 C 401.069 118.002 400.44 118.179 400.363 118.214 C 400.321 118.439 400.122 118.81 399.706 118.829 C 399.288 118.846 399.216 118.696 399.18 118.534 C 399.14 118.377 399.107 118.252 399.107 118.252 C 398.904 118.27 398.941 118.27 398.808 118.258 C 398.732 118.522 398.545 118.899 398.105 118.907 C 397.657 118.918 397.439 118.683 397.494 118.141 C 397.258 118.111 397.347 118.083 397.347 118.083 C 397.389 117.798 397.389 117.798 397.389 117.798 C 397.389 117.798 397.687 117.814 397.687 117.814 C 397.75 117.436 398.27 117.445 398.423 117.469"></path>
				<path fill="#FFFFFF" stroke="#4464C7" stroke-width="0.1192" stroke-miterlimit="10" d="M 397.943 117.754 C 398.206 117.63 398.529 117.824 398.575 117.959 C 398.622 118.099 398.575 118.528 398.381 118.631 C 398.163 118.745 397.827 118.711 397.76 118.546 C 397.691 118.371 397.67 117.877 397.943 117.754"></path>
				<path fill="#E0B577" stroke="#A87C3B" stroke-width="0.1192" stroke-miterlimit="10" d="M 397.985 118.153 C 398.052 118.075 398.293 118.068 398.357 118.153 C 398.423 118.239 398.373 118.356 398.318 118.392 C 398.245 118.423 398.042 118.559 397.985 118.459 C 397.921 118.353 397.9 118.267 397.985 118.153"></path>
				<path fill="#FFFFFF" stroke="#4464C7" stroke-width="0.1192" stroke-miterlimit="10" d="M 399.365 118.441 C 399.259 118.172 399.259 117.937 399.368 117.8 C 399.477 117.673 399.768 117.574 399.968 117.774 C 400.168 117.98 400.231 118.156 400.171 118.27 C 400.11 118.379 399.956 118.599 399.79 118.606 C 399.641 118.604 399.434 118.591 399.365 118.441"></path>
				<path fill="#E0B577" stroke="#A87C3B" stroke-width="0.1192" stroke-miterlimit="10" d="M 399.549 118.062 C 399.616 118.008 399.873 118.086 399.891 118.129 C 399.916 118.172 399.885 118.293 399.849 118.293 C 399.809 118.299 399.58 118.407 399.516 118.293 C 399.456 118.192 399.446 118.141 399.549 118.062"></path>
				<path fill="#C79C52" stroke="#806434" stroke-width="0.1192" stroke-miterlimit="10" d="M 410.607 111.901 C 409.906 111.644 408.779 111.383 408.154 111.258 C 407.748 111.18 407.157 111.18 406.572 111.216 C 406.761 111.406 407.117 111.975 407.216 112.681 C 407.826 112.493 409.431 112.665 409.945 112.875 C 410.204 112.687 410.52 112.19 410.607 111.901"></path>
				<path fill="#C79C52" stroke="#806434" stroke-width="0.1192" stroke-miterlimit="10" d="M 411.18 114.388 C 410.991 113.824 410.495 113.36 409.938 112.875 C 410.204 112.687 410.52 112.187 410.601 111.901 C 410.769 111.952 410.905 112.015 411.004 112.064 C 411.589 112.361 412.838 113.066 413.315 113.501 C 413.711 113.862 414.071 114.355 414.306 114.624 C 413.547 114.44 412.408 114.256 411.952 114.259 C 411.506 114.265 411.18 114.388 411.18 114.388"></path>
				<path fill="#C79C52" stroke="#806434" stroke-width="0.1192" stroke-miterlimit="10" d="M 414.305 114.623 C 413.549 114.439 412.41 114.255 411.957 114.258 C 411.504 114.265 411.182 114.392 411.182 114.392 C 410.997 114.531 410.274 115.699 410.274 115.699 C 410.29 116.144 410.546 116.274 410.729 116.58 C 410.905 116.881 411.091 117.406 411.172 117.941 C 411.807 118.029 412.742 118.198 413.421 117.804 C 414.174 117.362 414.13 117.017 414.434 116.481 C 414.7 116.012 414.979 115.552 415.475 115.555 C 415.475 115.555 415.475 115.555 415.475 115.555 C 415.09 115.367 414.614 114.956 414.422 114.75 C 414.38 114.718 414.346 114.679 414.305 114.623"></path>
				<path fill="#C79C52" stroke="#806434" stroke-width="0.1192" stroke-miterlimit="10" d="M 407.597 115.144 C 406.643 115.856 406.228 117.82 406.294 118.401 C 406.383 118.375 406.467 118.343 406.56 118.325 C 407.543 118.024 407.762 118.008 408.276 117.817 C 408.799 117.623 409.135 117.706 409.453 117.715 C 409.766 117.715 410.305 117.849 410.927 117.903 C 411.01 117.92 411.085 117.929 411.165 117.942 C 411.09 117.409 410.899 116.882 410.725 116.581 C 410.543 116.27 410.285 116.144 410.271 115.7 C 409.997 115.432 408.872 114.89 407.597 115.144"></path>
				<path fill="#C79C52" stroke="#806434" stroke-width="0.1192" stroke-miterlimit="10" d="M 409.945 112.875 C 409.431 112.669 407.826 112.497 407.216 112.681 C 406.996 112.751 406.668 113.068 406.572 113.344 C 406.755 113.557 407.182 114.079 407.325 114.314 C 407.449 114.565 407.554 115.041 407.597 115.138 C 408.873 114.886 410.001 115.428 410.276 115.691 C 410.276 115.691 410.998 114.523 411.183 114.385 C 410.991 113.824 410.495 113.364 409.945 112.875"></path>
				<path fill="#C79C52" stroke="#806434" stroke-width="0.1192" stroke-miterlimit="10" d="M 406.568 113.347 C 405.707 113.43 404.282 114.191 403.861 114.47 C 403.439 114.742 402.788 116.132 402.689 116.599 C 402.868 116.779 403.042 116.975 403.209 117.173 C 403.918 118.063 404.482 118.353 404.906 118.462 C 405.281 118.559 405.525 118.598 406.294 118.395 C 406.232 117.815 406.647 115.85 407.598 115.136 C 407.551 115.039 407.446 114.563 407.323 114.312 C 407.181 114.082 406.754 113.561 406.568 113.347"></path>
				<path fill="#C79C52" stroke="#806434" stroke-width="0.1192" stroke-miterlimit="10" d="M 406.568 113.347 C 405.707 113.43 404.282 114.191 403.861 114.47 C 403.545 113.756 402.671 112.968 402.327 112.917 C 402.399 112.844 402.482 112.78 402.572 112.708 C 403.185 112.239 404.347 111.648 405.121 111.445 C 405.499 111.343 406.031 111.257 406.568 111.216 C 406.76 111.406 407.113 111.975 407.212 112.682 C 406.992 112.754 406.667 113.068 406.568 113.347"></path>
				<path fill="#C79C52" stroke="#806434" stroke-width="0.1192" stroke-miterlimit="10" d="M 402.69 116.603 C 402.108 115.993 401.505 115.533 401.188 115.429 C 400.932 115.353 400.701 115.359 400.472 115.466 C 400.836 115.202 400.751 115.06 401.217 114.388 C 401.606 113.81 401.873 113.338 402.325 112.92 C 402.672 112.971 403.545 113.761 403.855 114.473 C 403.445 114.747 402.789 116.135 402.69 116.603"></path>
				<path fill="#FFC163" stroke="#B38645" stroke-width="0.1192" stroke-miterlimit="10" d="M 400.04 115.813 C 400.389 115.41 400.767 115.296 401.192 115.429 C 401.599 115.562 402.491 116.297 403.21 117.176 C 403.919 118.065 404.483 118.356 404.907 118.464 C 405.322 118.571 405.577 118.607 406.561 118.322 C 407.541 118.02 407.763 118.004 408.277 117.813 C 408.8 117.62 409.138 117.702 409.454 117.711 C 409.768 117.711 410.306 117.844 410.928 117.899 C 411.536 117.965 412.654 118.247 413.419 117.798 C 414.175 117.356 414.128 117.011 414.428 116.475 C 414.747 115.943 415.05 115.413 415.711 115.58 C 416.368 115.761 416.052 116.166 415.987 116.209 C 415.938 116.253 415.773 116.129 415.587 116.134 C 415.408 116.148 415.165 116.781 415.017 116.969 C 414.878 117.159 414.453 118.022 413.821 118.4 C 413.202 118.773 412.837 118.784 412.127 118.727 C 411.424 118.66 410.659 118.654 410.055 118.48 C 409.466 118.295 408.883 118.489 408.618 118.525 C 408.352 118.546 407.621 118.761 407.36 118.867 C 407.109 118.971 406.771 119.118 406.579 119.146 C 406.38 119.171 405.699 119.351 405.352 119.279 C 405.012 119.2 404.677 119.215 404.268 118.936 C 403.846 118.654 403.444 118.425 403.078 118.082 C 402.7 117.74 402.552 117.254 402.198 116.984 C 401.87 116.705 401.616 116.527 401.396 116.455 C 401.167 116.385 401.066 116.267 400.849 116.351 C 400.618 116.44 400.437 116.588 400.209 116.452 C 399.968 116.326 399.904 115.968 400.04 115.813"></path>
				
					<path fill="#7BD968" stroke="#598C4E" stroke-width="0.1192" stroke-linecap="round" stroke-linejoin="round" stroke-miterlimit="10" d="M398.221,119.564C398.264,119.63099999999999,398.448,119.86,398.739,119.85C399.013,119.847,399.32599999999996,119.78899999999999,399.395,119.63"></path>
			</g>
		</g>
	</g>
</g>
</svg>
