<svg xmlns="http://www.w3.org/2000/svg" width="757.838" height="911.787"><defs><rect width="10" height="10" class="svg---mgr"></rect></defs><path d="M0 0 C 0 0 6062.7099609375 0 6062.7099609375 0 C 6062.7099609375 0 6062.7099609375 7294 6062.7099609375 7294 C 6062.7099609375 7294 0 7294 0 7294 C 0 7294 0 0 0 0" style="opacity: 0;"></path><rect x="368" y="268" width="10" height="10" rx="2" ry="2" class="handle-original" fill="#da55da" stroke="#000000" data-handle_index="0" style="stroke-width: 2px; opacity: 0.5;"></rect><rect x="374" y="770" width="10" height="10" rx="2" ry="2" class="handle-original" fill="#da55da" stroke="#000000" data-handle_index="1" style="stroke-width: 2px; opacity: 0.5;"></rect><rect x="599" y="381" width="10" height="10" rx="2" ry="2" class="handle-original" fill="#da55da" stroke="#000000" data-handle_index="2" style="stroke-width: 2px; opacity: 0.5;"></rect><rect x="121" y="419" width="10" height="10" rx="2" ry="2" class="handle-original" fill="#da55da" stroke="#000000" data-handle_index="3" style="stroke-width: 2px; opacity: 0.5;"></rect><rect x="368" y="268" width="10" height="10" rx="2" ry="2" class="handle" fill="#da55da" stroke="#000000" data-handle_index="0" transform="matrix(1,0,0,1,0,0)" style="stroke-width: 2px;"></rect><rect x="374" y="770" width="10" height="10" rx="2" ry="2" class="handle" fill="#da55da" stroke="#000000" data-handle_index="1" transform="matrix(0.6771,0,0,0.6771,122.3954,250.2809)" style="stroke-width: 2px;"></rect><rect x="599" y="381" width="10" height="10" rx="2" ry="2" class="handle" fill="#da55da" stroke="#000000" data-handle_index="2" transform="matrix(1.6,0,0,1.6,-362.3889,-231.5928)" style="stroke-width: 2px;"></rect><rect x="121" y="419" width="10" height="10" rx="2" ry="2" class="handle" fill="#da55da" stroke="#000000" data-handle_index="3" transform="matrix(1.4477,0,0,1.4477,-56.4146,-189.8395)" style="stroke-width: 2px;"></rect></svg>