<!--?xml version="1.0" encoding="utf-8"?-->
<!-- Generator: Adobe Illustrator 15.0.2, SVG Export Plug-In . SVG Version: 6.00 Build 0)  -->

<svg version="1.1" id="Layer_1" xmlns="http://www.w3.org/2000/svg" xmlns:xlink="http://www.w3.org/1999/xlink" x="0px" y="0px" width="792px" height="612px" viewBox="0 0 792 612" enable-background="new 0 0 792 612" xml:space="preserve">
<path fill-rule="evenodd" clip-rule="evenodd" fill="#E7979D" d="M -11.5925 6.36112 C -22.4581 -3.59486 259.803 -22.4355 295.868 -18.7218 C 299.322 -14.6425 282.364 202.641 283.539 187.693 C 243.017 188.93 19.6647 131.306 14.1194 166.58 C 26.7955 159.713 -13.0613 10.8262 -11.5925 6.36112"></path>
<path fill-rule="evenodd" clip-rule="evenodd" fill="#FFFFFF" d="M -4.3904 3.62935 C -2.81522 4.27144 7.24937 1.46559 5.5714 1.70004 C 9.47346 1.74386 47.6449 162.216 31.2033 159.153 C 35.463 159.906 25.7687 161.484 21.9016 160.554 C 37.5705 163.612 -0.550869 5.43561 -4.3904 3.62935"></path>
<path fill-rule="evenodd" clip-rule="evenodd" fill="#FFFFFF" d="M 15.548 -0.165111 C 17.2283 -0.531709 27.3821 -3.1421 25.5293 -1.89779 C 29.859 -5.55108 66.8626 160.694 49.3337 156.819 C 53.8862 157.614 44.6269 158.6 40.349 157.905 C 57.4006 161.165 19.6022 -2.00864 15.548 -0.165111"></path>
<path fill-rule="evenodd" clip-rule="evenodd" fill="#FFFFFF" d="M 35.5074 -3.51855 C 37.3805 -4.874 47.6198 -6.35951 45.4593 -5.01069 C 50.6897 -10.2427 85.2478 162.163 66.8918 155.134 C 71.729 156.884 62.7276 156.698 58.1803 155.908 C 76.0956 160.966 40.2408 -8.41676 35.5074 -3.51855"></path>
<path fill-rule="evenodd" clip-rule="evenodd" fill="#FFFFFF" d="M 55.3736 -6.38574 C 57.5791 -7.6587 67.6954 -7.53472 65.2338 -7.65277 C 71.2171 -9.88721 103.881 166.835 83.9678 154.087 C 89.3606 157.829 80.3394 156.444 75.4878 154.534 C 94.4677 164.187 61.0716 -10.7308 55.3736 -6.38574"></path>
<path fill-rule="evenodd" clip-rule="evenodd" fill="#FFFFFF" d="M 75.0414 -8.76271 C 77.5317 -8.40203 87.217 -7.33515 84.8081 -9.77153 C 90.2074 -5.38878 123.076 172.264 100.686 153.963 C 106.826 159.638 97.8324 157.878 92.3683 153.899 C 113.455 169.645 80.9699 -7.97758 75.0414 -8.76271"></path>
<path fill-rule="evenodd" clip-rule="evenodd" fill="#FFFFFF" d="M 94.5522 -10.6481 C 96.9285 -7.97632 106.115 -7.02636 104.345 -11.5152 C 107.221 -0.0883982 141.323 176.188 117.243 155.042 C 123.727 161.721 115.191 160.153 108.973 154.353 C 132.45 174.444 98.9444 -2.63866 94.5522 -10.6481"></path>
<path fill-rule="evenodd" clip-rule="evenodd" fill="#FFFFFF" d="M 114.238 -12.3711 C 115.898 -7.72812 124.918 -7.60996 124.363 -13.3107 C 123.225 2.90116 156.495 179.312 134.006 157.368 C 139.736 164.378 132.039 162.738 125.561 156.051 C 149.389 177.707 115.244 1.83341 114.238 -12.3711"></path>
<path fill-rule="evenodd" clip-rule="evenodd" fill="#FFFFFF" d="M 134.804 -14.3084 C 135.17 -8.55607 144.835 -9.54524 145.66 -15.3597 C 140.646 1.66825 168.123 184.212 151.651 160.906 C 155.354 168.288 148.219 165.992 142.664 158.996 C 162.663 181.384 131.556 2.86641 134.804 -14.3084"></path>
<path fill-rule="evenodd" clip-rule="evenodd" fill="#FFFFFF" d="M 156.959 -16.4205 C 155.959 -10.6773 167.448 -12.4847 168.707 -17.4167 C 162.975 -3.65656 179.423 192.278 170.742 165.444 C 172.292 173.593 164.383 170.525 160.98 163.08 C 173.496 187.883 150.977 -0.589115 156.959 -16.4205"></path>
<path fill-rule="evenodd" clip-rule="evenodd" fill="#FFFFFF" d="M 180.877 -18.3316 C 179.668 -13.5384 193.454 -15.3698 193.403 -19.079 C 192.112 -10.2686 195.445 201.285 191.437 170.546 C 192.291 179.32 182.273 176.238 180.873 167.967 C 186.655 196.904 176.733 -7.01799 180.877 -18.3316"></path>
<path fill-rule="evenodd" clip-rule="evenodd" fill="#FFFFFF" d="M 206.308 -19.6707 C 206.606 -16.064 221.581 -17.2674 219.486 -20.0469 C 225.282 -14.9354 217.435 207.441 213.864 175.58 C 215.271 184.13 203.367 181.936 202.424 173.119 C 205.832 204.873 208.486 -12.9516 206.308 -19.6707"></path>
<path fill-rule="evenodd" clip-rule="evenodd" fill="#FFFFFF" d="M 232.928 -20.234 C 235.215 -17.4988 249.96 -17.9888 246.476 -20.223 C 257.814 -16.7793 242.789 209.451 237.941 179.832 C 240.005 187.401 227.255 186.315 225.727 177.835 C 229.887 208.929 241.83 -16.1695 232.928 -20.234"></path>
<path fill-rule="evenodd" clip-rule="evenodd" fill="#FFFFFF" d="M 260.063 -20.0546 C 263.611 -17.8396 277.521 -17.8534 273.565 -19.7569 C 287.417 -16.7432 268.999 208.457 263.069 182.873 C 265.439 189.202 252.546 188.958 250.423 181.503 C 255.887 209.239 273.005 -16.9239 260.063 -20.0546"></path>
<path fill-rule="evenodd" clip-rule="evenodd" fill="#FFFFFF" d="M 1.81932 26.9549 C 4.50877 11.8783 216.159 17.0069 255.713 8.90052 C 253.064 16.6799 246.619 173.316 245.641 163.983 C 215.812 159.919 34.7706 117.199 22.5391 143.278 C 32.255 138.61 2.78657 27.4586 1.81932 26.9549"></path>
<g>
	<defs>
		<path id="SVGID_1_" d="M 2.85872 26.6531 C 5.14026 11.9727 217.374 16.8909 257.155 8.91419 C 254.484 16.6371 247.838 173.365 246.992 164.039 C 216.609 160.426 35.4868 117.093 23.5279 143.102 C 33.2319 138.411 3.6912 27.228 2.85872 26.6531"></path>
	</defs>
	<clipPath id="SVGID_2_">
		<use xlink:href="#SVGID_1_" overflow="visible"></use>
	</clipPath>
	
		<path clip-path="url(#SVGID_2_)" fill="none" stroke="#000000" stroke-width="4.5" stroke-linecap="round" stroke-miterlimit="10" d="M 2.85872 26.6531 C 5.14026 11.9727 217.374 16.8909 257.155 8.91419 C 254.484 16.6371 247.838 173.365 246.992 164.039 C 216.609 160.426 35.4868 117.093 23.5279 143.102 C 33.2319 138.411 3.6912 27.228 2.85872 26.6531"></path>
</g>
</svg>
