<!--?xml version="1.0" encoding="utf-8"?-->
<!-- Generator: Adobe Illustrator 17.0.2, SVG Export Plug-In . SVG Version: 6.00 Build 0)  -->

<svg version="1.1" id="Layer_1" xmlns="http://www.w3.org/2000/svg" xmlns:xlink="http://www.w3.org/1999/xlink" x="0px" y="0px" width="792px" height="612px" viewBox="0 0 792 612" enable-background="new 0 0 792 612" xml:space="preserve">
<path fill="#D6D7EC" stroke="#010101" stroke-width="4.6788" stroke-linecap="round" d="M 253.699 333.015 C 248.956 335.99 233.682 335.303 239.619 341.571 C 259.03 362.066 288.105 345.082 311.169 348.468 C 362.595 356.02 433.616 197.867 439.904 306.803 C 443.797 374.261 465.143 424.997 518.708 417.507 C 535.307 415.186 536.509 402.659 540.931 391.937 C 543.204 386.427 546.462 360.011 563.153 380.811 C 576.567 397.529 550.734 430.799 530.791 435.735 C 516.302 439.32 489.523 431.724 479.088 427.586 C 444.479 413.864 438.751 327.216 423.23 308.04 C 404.168 284.489 354.513 351.679 330.38 350.481 C 314.058 349.671 301.755 358.872 286.768 363.786 C 253.265 374.771 266.304 351.926 251.421 366.254 C 244.63 372.792 246.087 385.511 267.233 377.714 C 227.01 412.331 288.061 407.285 269.147 419.406 C 219.638 451.135 530.387 576.105 649.713 458.721 C 725.471 384.195 684.763 317.447 617.228 298.961 C 580.258 288.842 535.797 304.489 515.379 280.389 C 479.484 238.021 415.25 116.281 340.716 122.679 C 322.847 124.214 308.645 121.53 293.409 126.923 C 266.232 136.542 245.303 151.19 235.035 176.585 C 222.68 207.139 230.804 244.046 236.786 272.939 C 241.591 296.143 252.27 314.977 253.699 333.015"></path>
<path fill="#FFFFFF" stroke="#010101" stroke-width="4.6788" stroke-linecap="round" d="M 319.826 231.602 C 316.533 248.889 305.825 261.121 293.195 268.32 C 232.742 280.925 229.53 182.254 280.441 184.45 C 286.772 184.723 300.437 185.116 304.205 190 C 309.338 196.654 321.972 220.339 319.826 231.602"></path>
<path fill="#FFFFFF" stroke="#010101" stroke-width="4.6788" stroke-linecap="round" d="M 320.053 231.827 C 348.871 247.634 374.164 217.419 385.742 203.245 C 402.488 182.746 367.969 145.154 330.203 155.943 C 314.488 160.433 303.153 169.675 300.01 185.477 C 296.758 201.825 302.998 222.473 320.053 231.827"></path>
<path fill="#50BFA2" stroke="#010101" stroke-width="4.6788" stroke-linecap="round" d="M 326.149 204.991 C 375.584 198.978 335.213 145.135 313.24 187.077 C 312.715 195.865 315.015 206.346 326.149 204.991"></path>
<path fill="#50BFA2" stroke="#010101" stroke-width="4.6788" stroke-linecap="round" d="M 267.027 248.416 C 281.222 252.15 291.329 228.86 280.818 220.86 C 266.606 210.043 246.074 240.844 267.027 248.416"></path>
<path fill="#7E9ACF" stroke="#010101" stroke-width="4.6788" stroke-linecap="round" d="M 252.941 333.469 C 258.412 346.829 297.761 344.853 319.33 335.408 C 370.915 312.818 433.534 174.451 447.117 297.561 C 461.018 423.559 509.024 405.07 522.841 391.972 C 535.959 379.536 521.306 357.006 544.562 350.514 C 583.047 339.772 589.784 423.041 565.538 439.182 C 525.487 465.845 471.548 456.315 441.718 414.672 C 424.58 390.747 427.153 364.335 417.185 348.185 C 401.979 323.55 334.398 365.758 318.833 362.131 C 307.856 359.573 274.348 377.735 259.835 380.702 C 253.025 382.094 243.123 373.643 250.777 366.614 C 267.55 351.211 252.635 375.136 286.724 363.811 C 301.974 358.745 313.97 349.722 330.353 350.497 C 354.576 351.643 404.14 284.507 423.227 308.043 C 438.769 327.207 444.467 413.87 479.091 427.586 C 489.531 431.722 516.301 439.322 530.792 435.735 C 550.735 430.798 576.568 397.529 563.154 380.81 C 546.465 360.011 543.205 386.427 540.932 391.937 C 536.511 402.66 535.31 415.185 518.71 417.507 C 465.142 425 443.803 374.259 439.905 306.804 C 433.609 197.873 362.613 356.009 311.161 348.473 C 288.086 345.093 259.108 362.019 239.561 341.606 C 233.582 335.362 249.681 335.554 252.941 333.469"></path>
</svg>
