<!--?xml version="1.0" encoding="utf-8"?-->
<!-- Generator: Adobe Illustrator 15.0.2, SVG Export Plug-In . SVG Version: 6.00 Build 0)  -->

<svg version="1.1" id="Layer_1" xmlns="http://www.w3.org/2000/svg" xmlns:xlink="http://www.w3.org/1999/xlink" x="0px" y="0px" width="691.389px" height="776.604px" viewBox="0 0 691.389 776.604" enable-background="new 0 0 691.389 776.604" xml:space="preserve">
<g>
	<path fill="#FFE563" stroke="#E8D46D" stroke-width="3.1718" stroke-linejoin="bevel" stroke-miterlimit="10" d="M 552.322 581.991 C 548.349 586.602 537.08 608.033 521.009 616.994 C 504.938 625.952 495.574 626.066 478.021 624.177 C 460.469 622.289 440.939 622.243 425.849 617.669 C 410.763 613.095 395.355 618.206 388.236 618.94 C 381.119 619.674 361.353 624.617 354.399 626.996 C 347.446 629.374 337.996 632.637 332.704 633.049 C 327.412 633.462 308.619 636.502 299.393 633.653 C 290.168 630.805 281.295 630.208 270.318 621.346 C 259.34 612.483 248.817 604.937 239.367 594.081 C 229.916 583.224 226.57 568.951 218.246 559.89 C 209.922 550.828 203.951 544.636 198.558 541.58 C 193.165 538.521 190.848 534.713 185.186 536.364 C 187.548 545.404 203.863 582.008 215.953 593.198 C 228.044 604.392 237.666 613.951 254.796 623.259 C 271.923 632.566 308.921 643.283 346.055 642.465 C 383.19 641.649 414.66 641.682 441.707 638.991 C 468.755 636.305 500.246 635.245 514.835 630.49 C 529.424 625.738 536.41 619.255 540.948 613.499 C 545.482 607.741 550.708 597.849 552.322 581.991"></path>
	<path fill="#7BD968" stroke="#598C4E" stroke-width="3.1718" stroke-linejoin="bevel" stroke-miterlimit="10" d="M 103.671 593.615 C 103.124 598.846 100.634 614.836 108.068 624.658 C 120.357 640.9 139.37 637.81 144.329 638.295 C 149.286 638.781 173.622 643.065 191.267 619 C 208.91 594.927 222.785 586.979 231.305 581.977 C 227.02 574.012 223.695 565.825 218.246 559.897 C 209.921 550.835 203.951 544.642 198.558 541.585 C 193.165 538.528 190.847 534.72 185.185 536.373 C 184.736 536.505 184.293 536.646 183.854 536.797 C 177.775 546.636 165.53 555.84 156.639 556.189 C 147.746 556.535 134.113 556.453 130.316 556.135 C 127.46 555.89 124.914 558.628 123.8 559.1 C 115.709 564.106 105.095 580.018 103.671 593.615"></path>
	<path fill="#7BD968" stroke="#598C4E" stroke-width="3.1718" stroke-linejoin="bevel" stroke-miterlimit="10" d="M 320.892 634.345 C 313.54 635.024 304.819 635.327 299.394 633.653 C 290.169 630.806 281.296 630.208 270.319 621.347 C 267.606 619.157 264.922 617.042 262.277 614.946 C 253.935 622.379 241.705 641.478 238.888 649.218 C 236.071 656.96 232.062 670.747 238.601 685.636 C 245.14 700.525 243.378 704.999 245.489 711.273 C 247.6 717.548 247.574 722.645 255.837 723.286 C 264.102 723.929 269.077 718.208 275.146 711.664 C 281.213 705.12 292.573 697.753 302.231 687.163 C 310.065 678.574 315.407 671.012 318.231 663.829 C 321.055 656.639 320.87 634.982 320.87 634.982 C 320.87 634.982 320.894 634.349 320.894 634.349 C 320.894 634.349 320.892 634.345 320.892 634.345 C 320.892 634.345 320.892 634.345 320.892 634.345"></path>
	<path fill="#7BD968" stroke="#598C4E" stroke-width="3.1718" stroke-linejoin="bevel" stroke-miterlimit="10" d="M 553.618 580.262 C 557.63 574.354 563.49 561.823 567.681 561.714 C 572.349 561.595 576.478 565.176 578.078 564.136 C 586.664 567.207 596.225 573.232 595.763 580.467 C 595.302 587.703 592.578 587.583 589.325 589.802 C 586.073 592.022 579.8 591.012 575.28 589.095 C 570.766 587.179 558.009 583.606 553.618 580.262"></path>
	<path fill="#7BD968" stroke="#598C4E" stroke-width="3.1718" stroke-linejoin="bevel" stroke-miterlimit="10" d="M 509.006 622.522 C 499.197 625.899 490.76 625.549 478.02 624.174 C 467.263 623.016 455.782 622.532 445.014 621.3 C 442.955 636.285 439.917 662.403 461.869 682.076 C 473.41 692.59 480.676 693.434 488.041 697.357 C 495.406 701.283 503.148 715.545 516.329 718.627 C 522.903 720.16 525.736 719.585 530.211 715.17 C 534.685 710.752 535.801 709.587 536.556 704.785 C 537.309 699.976 539.916 682.88 536.863 673.233 C 533.807 663.582 528.092 649.776 524.472 643.714 C 520.85 637.654 508.992 623.192 508.992 623.192 C 508.992 623.192 509.011 622.519 509.011 622.519 C 509.011 622.519 509.006 622.522 509.006 622.522 C 509.006 622.522 509.006 622.522 509.006 622.522"></path>
	<path fill="#94AEFF" stroke="#4464C7" stroke-width="3.1718" stroke-linejoin="bevel" stroke-miterlimit="10" d="M 123.798 559.091 C 128.978 560.786 130.857 570.758 130.857 570.758 C 135.442 569.74 137.712 570.865 139.269 571.893 C 141.139 565.656 147.409 558.687 154.778 559.48 C 162.148 560.271 168.798 560.561 171.007 576.566 C 180.847 577.496 190.551 571.971 194.201 572.988 C 197.851 574.01 200.679 577.139 200.985 578.609 C 201.292 580.081 202.909 585.819 202.833 587.621 C 202.758 589.422 201.883 592.488 200.001 592.779 C 198.119 593.072 195.972 590.912 195.498 589.022 C 195.022 587.13 195.341 584.148 194.09 583.132 C 192.841 582.121 190.786 582.381 189.47 582.778 C 188.154 583.173 172.165 585.661 170.114 586.153 C 169.053 592.267 163.394 601.796 153.008 600.683 C 142.621 599.571 141.073 595.087 140.428 590.714 C 139.781 586.339 139.097 582.81 139.097 582.81 C 134.214 582.541 135.126 582.462 131.896 582.027 C 129.452 588.966 124.119 598.612 113.34 597.47 C 102.561 596.33 97.4299 589.403 99.7866 574.808 C 94.3304 573.38 96.365 572.61 96.365 572.61 C 98.0144 565.163 98.0247 565.155 98.0247 565.155 C 98.0247 565.155 105.278 566.381 105.278 566.381 C 107.676 556.369 120.399 557.98 123.798 559.091"></path>
	<path fill="#FFFFFF" stroke="#4464C7" stroke-width="3.1718" stroke-linejoin="bevel" stroke-miterlimit="10" d="M 111.956 565.432 C 118.324 563.097 125.802 569.14 126.641 573.089 C 127.479 577.046 125.603 588.457 120.399 590.863 C 115.192 593.273 106.907 591.456 105.575 586.55 C 104.241 581.655 104.701 568.096 111.956 565.432"></path>
	<path fill="#E0B577" stroke="#A87C3B" stroke-width="3.1718" stroke-linejoin="bevel" stroke-miterlimit="10" d="M 111.878 576.633 C 113.543 574.531 119.366 575.143 120.806 577.746 C 122.245 580.349 120.966 583.33 119.289 584.061 C 117.614 584.791 112.537 587.774 111.3 584.802 C 110.065 581.841 109.7 579.394 111.878 576.633"></path>
	<path fill="#FFFFFF" stroke="#4464C7" stroke-width="3.1718" stroke-linejoin="bevel" stroke-miterlimit="10" d="M 145.208 588.908 C 142.9 581.067 143.493 574.466 146.311 571.309 C 149.13 568.158 156.648 566.358 161.245 572.76 C 165.844 579.173 166.905 584.193 165.428 587.071 C 163.95 589.948 159.511 595.269 155.577 594.856 C 151.642 594.443 146.461 593.152 145.208 588.908"></path>
	<path fill="#E0B577" stroke="#A87C3B" stroke-width="3.1718" stroke-linejoin="bevel" stroke-miterlimit="10" d="M 150.232 579.129 C 152.036 577.874 158.145 580.834 158.617 582.151 C 159.087 583.468 158.178 586.65 157.267 586.574 C 156.357 586.495 150.396 588.528 149.123 585.38 C 147.851 582.224 147.572 580.976 150.232 579.129"></path>
	<path fill="#C79C52" stroke="#806434" stroke-width="3.1718" stroke-linejoin="bevel" stroke-miterlimit="10" d="M 443.465 450.795 C 426.001 442.923 398.816 431.205 383.888 423.62 C 374.402 418.803 359.784 413.828 345.061 410.786 C 348.151 417.058 352.243 434.887 352.183 455.675 C 368.517 453.206 409.451 465.012 422.808 471.375 C 429.874 467.468 440.058 457.145 443.465 450.795"></path>
	<path fill="#C79C52" stroke="#806434" stroke-width="3.1718" stroke-linejoin="bevel" stroke-miterlimit="10" d="M 454.162 511.112 C 449.404 496.661 436.19 484.604 422.805 471.374 C 429.874 467.465 440.058 457.145 443.465 450.792 C 447.338 452.54 450.709 454.173 453.296 455.671 C 467.515 463.922 499.112 482.394 511.003 493.483 C 520.97 502.776 530.028 515.189 535.568 522.184 C 515.789 516.663 486.276 509.85 474.411 509.182 C 462.545 508.514 454.162 511.112 454.162 511.112"></path>
	<path fill="#C79C52" stroke="#806434" stroke-width="3.1718" stroke-linejoin="bevel" stroke-miterlimit="10" d="M 535.567 522.186 C 515.787 516.665 486.275 509.852 474.41 509.184 C 462.542 508.516 454.161 511.112 454.161 511.112 C 449.272 514.151 431.814 544.138 431.814 544.138 C 432.279 555.795 438.931 559.205 443.483 567.303 C 448.035 575.399 452.658 589.18 454.527 603.269 C 470.418 605.681 493.84 610.584 510.837 601.19 C 530.26 590.454 528.952 581.706 537.333 568.623 C 544.63 557.238 552.154 546.084 565.183 546.914 C 565.183 546.914 565.18 546.919 565.18 546.919 C 555.249 541.794 543.211 530.99 538.361 525.565 C 537.571 524.688 536.634 523.54 535.567 522.186"></path>
	<path fill="#C79C52" stroke="#806434" stroke-width="3.1718" stroke-linejoin="bevel" stroke-miterlimit="10" d="M 360.88 528.172 C 336.233 547.165 324.428 598.346 325.581 613.272 C 327.885 612.861 330.357 612.373 333.024 611.801 C 360.089 605.996 365.73 605.372 379.765 600.438 C 393.801 595.503 402.654 597.668 410.747 597.581 C 418.841 597.494 432.868 600.826 448.238 602.434 C 450.156 602.633 452.264 602.923 454.527 603.269 C 452.659 589.179 448.035 575.4 443.483 567.302 C 438.929 559.207 432.28 555.793 431.814 544.141 C 424.426 536.945 395.125 522.514 360.88 528.172"></path>
	<path fill="#C79C52" stroke="#806434" stroke-width="3.1718" stroke-linejoin="bevel" stroke-miterlimit="10" d="M 422.805 471.374 C 409.449 465.009 368.514 453.201 352.178 455.674 C 346.531 456.528 337.143 464.412 334.089 472.33 C 338.407 479.456 349.313 496.524 352.953 504.049 C 356.594 511.573 359.897 525.272 360.879 528.174 C 395.125 522.513 424.431 536.946 431.808 544.139 C 431.808 544.139 449.266 514.154 454.162 511.113 C 449.399 496.661 436.188 484.606 422.805 471.374"></path>
	<path fill="#C79C52" stroke="#806434" stroke-width="3.1718" stroke-linejoin="bevel" stroke-miterlimit="10" d="M 334.09 472.329 C 312.1 471.085 274.773 487.979 263.793 494.359 C 252.814 500.738 234.013 538.595 231.035 551.37 C 235.254 557.288 239.508 563.53 243.587 569.863 C 261.375 597.475 276.659 607.082 287.878 611.211 C 297.99 614.936 304.552 617.023 325.581 613.272 C 324.427 598.348 336.234 547.165 360.88 528.175 C 359.893 525.272 356.592 511.572 352.955 504.049 C 349.318 496.524 338.408 479.454 334.09 472.329"></path>
	<path fill="#C79C52" stroke="#806434" stroke-width="3.1718" stroke-linejoin="bevel" stroke-miterlimit="10" d="M 334.09 472.329 C 312.1 471.085 274.773 487.979 263.793 494.359 C 257.376 471.352 240.048 443.817 231.885 441.214 C 234.053 439.32 236.353 437.487 238.823 435.71 C 255.86 423.444 287.58 410.028 307.975 408.027 C 317.769 407.069 331.457 407.972 345.06 410.786 C 348.15 417.058 352.244 434.889 352.18 455.674 C 346.529 456.527 337.144 464.411 334.09 472.329"></path>
	<path fill="#C79C52" stroke="#806434" stroke-width="3.1718" stroke-linejoin="bevel" stroke-miterlimit="10" d="M 231.035 551.37 C 216.847 531.466 203.2 515.511 195.64 511.274 C 189.841 508.021 184.222 507.389 178.577 509.571 C 187.92 503.411 186.051 499.056 199.399 481.049 C 210.81 465.654 219.082 452.406 231.884 441.213 C 240.049 443.812 257.375 471.351 263.792 494.358 C 252.814 500.737 234.013 538.593 231.035 551.37"></path>
	<path fill="#FFC163" stroke="#B38645" stroke-width="3.1718" stroke-linejoin="bevel" stroke-miterlimit="10" d="M 166.836 518.177 C 176.493 507.775 185.834 505.776 195.64 511.273 C 205.447 516.769 225.8 542.251 243.587 569.862 C 261.375 597.475 276.659 607.081 287.878 611.211 C 299.096 615.34 305.96 617.608 333.024 611.802 C 360.089 605.997 365.73 605.372 379.765 600.438 C 393.801 595.506 402.654 597.67 410.747 597.583 C 418.841 597.496 432.868 600.827 448.238 602.434 C 463.608 604.039 491.418 611.928 510.838 601.196 C 530.262 590.461 528.956 581.712 537.334 568.631 C 545.715 555.549 554.429 542.77 571.384 548.129 C 588.334 553.489 579.684 563.101 578.083 564.14 C 576.481 565.178 572.351 561.596 567.684 561.717 C 563.016 561.836 556.296 577.382 552.325 581.994 C 548.353 586.602 537.084 608.037 521.012 616.998 C 504.942 625.957 495.576 626.07 478.024 624.181 C 460.472 622.293 440.941 622.247 425.852 617.673 C 410.766 613.099 395.358 618.21 388.241 618.943 C 381.122 619.68 361.357 624.623 354.402 627 C 347.453 629.378 337.998 632.641 332.707 633.053 C 327.415 633.467 308.622 636.509 299.396 633.659 C 290.171 630.809 281.298 630.214 270.321 621.352 C 259.343 612.489 248.82 604.944 239.37 594.086 C 229.919 583.231 226.573 568.956 218.249 559.897 C 209.924 550.834 203.954 544.642 198.561 541.584 C 193.168 538.527 190.85 534.72 185.188 536.371 C 179.527 538.023 174.827 541.531 169.305 536.88 C 163.779 532.225 163.27 522.017 166.836 518.177"></path>
	
		<path fill="#7BD968" stroke="#598C4E" stroke-width="3.1718" stroke-linecap="round" stroke-linejoin="bevel" stroke-miterlimit="10" d="M 115.205 615.693 C 116.213 617.438 120.46 624.227 127.49 624.959 C 134.52 625.69 142.209 625.349 144.101 621.178"></path>
</g>
<g>
	<g>
		<path fill="#FFE563" stroke="#E8D46D" stroke-width="2.0004" stroke-linejoin="bevel" stroke-miterlimit="10" d="M 488.124 423.642 C 484.878 426.293 474.562 438.326 462.793 442.44 C 451.084 446.614 444.845 446.052 433.593 443.363 C 422.327 440.699 409.725 438.147 401.023 433.101 C 392.319 428.029 382.277 428.116 377.924 427.295 C 373.583 426.479 361.161 426.281 356.734 426.84 C 352.307 427.364 346.333 428.402 343.203 428.057 C 340.096 427.732 328.756 428.017 323.816 425.294 C 318.933 422.527 313.804 421.487 308.8 414.735 C 303.769 407.97 298.8 402.475 294.872 395.098 C 290.976 387.724 291.327 378.595 287.444 373.007 C 283.575 367.42 280.535 363.793 277.39 362.041 C 274.26 360.279 273.252 358.047 269.246 359.139 C 269.623 364.477 274.764 387.061 280.504 394.445 C 286.28 401.833 290.565 408.461 299.251 415.551 C 307.975 422.664 327.843 432.298 349.605 436.318 C 371.403 440.355 390.654 445.762 408.281 447.592 C 425.903 449.449 446.969 451.305 457.141 449.509 C 467.334 447.728 472.655 444.364 476.352 441.296 C 480.056 438.221 484.698 432.846 488.124 423.642"></path>
		<path fill="#7BD968" stroke="#598C4E" stroke-width="2.0004" stroke-linejoin="bevel" stroke-miterlimit="10" d="M 209.566 397.054 C 208.666 400.444 205.515 410.929 209.177 417.39 C 215.188 428.118 227.248 425.948 230.228 426.227 C 233.244 426.507 247.349 429.197 261.464 412.269 C 275.558 395.374 285.796 390.248 291.98 387.035 C 290.691 381.818 289.988 376.651 287.451 373.012 C 283.568 367.423 280.541 363.801 277.394 362.045 C 274.265 360.284 273.255 358.051 269.25 359.144 C 268.934 359.247 268.634 359.352 268.32 359.426 C 262.981 365.398 253.772 371.419 247.909 371.877 C 242.064 372.339 233.17 372.718 230.722 372.599 C 228.89 372.535 226.907 374.312 226.149 374.638 C 220.343 377.968 211.891 388.246 209.566 397.054"></path>
		<path fill="#7BD968" stroke="#598C4E" stroke-width="2.0004" stroke-linejoin="bevel" stroke-miterlimit="10" d="M 336.2 427.698 C 331.817 427.416 326.718 426.908 323.827 425.305 C 318.937 422.541 313.813 421.498 308.815 414.747 C 307.575 413.058 306.357 411.469 305.12 409.911 C 298.882 414.852 288.801 428.486 286.148 434.169 C 283.513 439.858 279.549 450.094 282.214 461.729 C 284.889 473.344 283.692 476.759 284.656 481.698 C 285.594 486.633 285.417 490.557 290.396 491.492 C 295.374 492.402 298.576 488.256 302.46 483.485 C 306.348 478.67 313.44 473.506 319.79 465.889 C 324.936 459.697 328.639 454.321 330.995 449.114 C 333.332 443.913 336.082 428.118 336.082 428.118 C 336.082 428.118 336.2 427.698 336.2 427.698"></path>
		<path fill="#7BD968" stroke="#598C4E" stroke-width="2.0004" stroke-linejoin="bevel" stroke-miterlimit="10" d="M 489.186 422.645 C 492.656 419.226 498.238 411.675 500.833 411.545 C 503.771 411.404 505.855 413.538 506.979 412.889 C 511.92 414.628 517.115 418.198 515.953 422.567 C 514.751 426.962 513.036 426.89 510.673 428.192 C 508.309 429.556 504.459 428.954 501.807 427.829 C 499.174 426.721 491.503 424.603 489.186 422.645"></path>
		<path fill="#7BD968" stroke="#598C4E" stroke-width="2.0004" stroke-linejoin="bevel" stroke-miterlimit="10" d="M 454.204 444.841 C 447.307 446.1 441.78 445.322 433.592 443.363 C 426.691 441.741 419.285 440.16 412.605 438.004 C 409.197 446.08 404.935 461.506 418.945 474.972 C 426.276 482.148 431.095 482.995 435.893 485.772 C 440.702 488.555 445.845 497.512 454.423 499.93 C 458.698 501.138 460.492 500.883 463.395 498.462 C 466.294 496.006 467.027 495.377 467.576 492.586 C 468.128 489.818 470.203 480.013 468.631 474.404 C 467.062 468.771 464.207 460.826 462.323 457.288 C 460.423 453.758 454.16 445.186 454.16 445.186 C 454.16 445.186 454.204 444.841 454.204 444.841"></path>
		<path fill="#94AEFF" stroke="#4464C7" stroke-width="2.0004" stroke-linejoin="bevel" stroke-miterlimit="10" d="M 226.16 374.638 C 229.368 375.524 229.447 381.732 229.447 381.732 C 232.537 380.954 233.87 381.619 234.785 382.196 C 236.725 378.196 241.626 373.688 246.31 373.987 C 251.031 374.282 255.362 374.122 254.59 384.363 C 260.762 384.679 267.773 380.971 269.949 381.556 C 272.134 382.133 273.46 384.102 273.432 385.027 C 273.373 385.994 273.539 389.714 273.211 390.878 C 272.883 392.099 271.869 394.139 270.643 394.333 C 269.417 394.582 268.422 393.159 268.385 391.938 C 268.36 390.687 269.019 388.739 268.344 388.091 C 267.716 387.451 266.378 387.663 265.473 387.929 C 264.591 388.219 254.084 390.189 252.735 390.564 C 251.245 394.548 246.453 401.024 240.042 400.51 C 233.624 400.033 233.193 397.103 233.291 394.26 C 233.394 391.419 233.374 389.171 233.374 389.171 C 230.274 389.143 230.873 389.063 228.884 388.845 C 226.511 393.382 222.051 399.846 215.338 399.33 C 208.614 398.817 206.045 394.405 208.987 385.123 C 205.623 384.401 207.026 383.846 207.026 383.846 C 208.815 379.119 208.822 379.134 208.822 379.134 C 208.822 379.134 213.392 379.718 213.392 379.718 C 215.925 373.391 224.065 374.063 226.16 374.638"></path>
		<path fill="#FFFFFF" stroke="#4464C7" stroke-width="2.0004" stroke-linejoin="bevel" stroke-miterlimit="10" d="M 217.784 378.909 C 222.171 377.289 226.357 380.844 226.493 383.326 C 226.59 385.78 224.117 393.19 220.492 394.877 C 216.941 396.557 211.841 395.578 211.514 392.466 C 211.155 389.359 212.809 380.792 217.784 378.909"></path>
		<path fill="#E0B577" stroke="#A87C3B" stroke-width="2.0004" stroke-linejoin="bevel" stroke-miterlimit="10" d="M 216.576 385.993 C 217.887 384.582 221.555 384.829 222.197 386.44 C 222.849 388.062 221.702 389.997 220.535 390.501 C 219.406 391.029 215.827 393.071 215.369 391.197 C 214.865 389.328 214.884 387.783 216.576 385.993"></path>
		<path fill="#FFFFFF" stroke="#4464C7" stroke-width="2.0004" stroke-linejoin="bevel" stroke-miterlimit="10" d="M 236.51 392.967 C 236.01 387.923 237.167 383.706 239.378 381.635 C 241.583 379.561 246.679 378.181 248.815 382.153 C 250.944 386.093 250.951 389.367 249.609 391.261 C 248.289 393.188 244.824 396.762 242.369 396.616 C 239.929 396.444 236.827 395.685 236.51 392.967"></path>
		<path fill="#E0B577" stroke="#A87C3B" stroke-width="2.0004" stroke-linejoin="bevel" stroke-miterlimit="10" d="M 240.966 386.518 C 242.25 385.683 245.816 387.389 245.931 388.244 C 246.073 389.068 245.108 391.179 244.496 391.148 C 243.917 391.11 239.896 392.592 239.468 390.571 C 239.045 388.556 239.027 387.736 240.966 386.518"></path>
		<path fill="#C79C52" stroke="#806434" stroke-width="2.0004" stroke-linejoin="bevel" stroke-miterlimit="10" d="M 448.136 334.431 C 439.408 327.474 424.385 317.254 415.148 311.397 C 409.284 307.725 399.995 304.039 390.199 301.261 C 392.753 305.411 396.433 317.372 393.844 329.301 C 404.72 330.508 427.473 343.152 433.758 348.871 C 438.542 346.813 445.754 339.5 448.136 334.431"></path>
		<path fill="#C79C52" stroke="#806434" stroke-width="2.0004" stroke-linejoin="bevel" stroke-miterlimit="10" d="M 442.375 377.968 C 443.226 368.625 438.759 359.411 433.767 348.859 C 438.544 346.803 445.753 339.498 448.137 334.418 C 450.066 335.948 451.718 337.376 452.926 338.64 C 459.672 345.691 473.927 360.077 478.698 367.9 C 482.707 374.406 485.772 382.644 487.817 387.148 C 477.109 383.808 461.393 379.073 454.619 378.103 C 447.905 377.131 442.375 377.968 442.375 377.968"></path>
		<path fill="#C79C52" stroke="#806434" stroke-width="2.0004" stroke-linejoin="bevel" stroke-miterlimit="10" d="M 487.799 387.144 C 477.107 383.804 461.386 379.07 454.608 378.099 C 447.904 377.127 442.363 377.966 442.363 377.966 C 438.71 379.385 420.414 393.914 420.414 393.914 C 417.664 400.335 420.859 403.298 421.821 408.363 C 422.72 413.448 422.651 421.488 421.442 429.37 C 431.19 432.783 445.779 437.56 458.31 433.306 C 472.642 428.43 473.197 423.312 480.705 415.736 C 487.225 409.15 493.716 402.14 501.543 402.405 C 501.543 402.405 501.558 402.418 501.558 402.418 C 496.258 399.384 490.796 392.739 488.894 389.295 C 488.553 388.752 488.208 387.992 487.799 387.144"></path>
		<path fill="#C79C52" stroke="#806434" stroke-width="2.0004" stroke-linejoin="bevel" stroke-miterlimit="10" d="M 383.366 369.814 C 363.879 374.189 344.677 403.377 342.518 413.583 C 343.922 413.609 345.442 413.618 347.084 413.598 C 363.821 413.441 367.198 414.629 376.371 414.441 C 385.581 414.292 390.404 417.439 395.287 418.959 C 400.204 420.498 408.146 424.992 417.597 428.076 C 418.771 428.438 420.072 428.905 421.449 429.379 C 422.654 421.495 422.726 413.459 421.83 408.373 C 420.873 403.308 417.674 400.346 420.421 393.926 C 417.874 388.717 404.929 374.614 383.366 369.814"></path>
		<path fill="#C79C52" stroke="#806434" stroke-width="2.0004" stroke-linejoin="bevel" stroke-miterlimit="10" d="M 433.769 348.859 C 427.462 343.13 404.718 330.484 393.846 329.283 C 390.076 328.866 382.931 331.627 379.612 335.247 C 381.282 339.767 384.562 350.816 384.881 355.49 C 385.239 360.171 383.551 368.068 383.367 369.814 C 404.932 374.613 417.882 388.708 420.428 393.912 C 420.428 393.912 438.733 379.384 442.374 377.961 C 443.226 368.625 438.76 359.416 433.769 348.859"></path>
		<path fill="#C79C52" stroke="#806434" stroke-width="2.0004" stroke-linejoin="bevel" stroke-miterlimit="10" d="M 379.62 335.262 C 365.387 330.63 337.066 334.577 328.593 337.109 C 320.089 339.64 301.343 360.125 297.173 367.846 C 298.863 371.471 300.511 375.349 301.898 379.443 C 308.003 397.174 315.101 404.976 320.962 408.597 C 326.198 411.833 329.653 413.499 342.514 413.597 C 344.668 403.386 363.873 374.197 383.368 369.829 C 383.544 368.075 385.234 360.184 384.879 355.506 C 384.569 350.826 381.291 339.771 379.62 335.262"></path>
		<path fill="#C79C52" stroke="#806434" stroke-width="2.0004" stroke-linejoin="bevel" stroke-miterlimit="10" d="M 379.62 335.262 C 365.387 330.63 337.066 334.577 328.593 337.109 C 327.595 324.571 316.591 309.521 310.775 307.859 C 312.389 306.988 314.087 306.165 315.91 305.37 C 328.443 300.006 350.929 295.807 364.988 296.584 C 371.752 296.965 381.154 298.631 390.187 301.245 C 392.735 305.383 396.422 317.352 393.835 329.281 C 390.085 328.87 382.923 331.635 379.62 335.262"></path>
		<path fill="#C79C52" stroke="#806434" stroke-width="2.0004" stroke-linejoin="bevel" stroke-miterlimit="10" d="M 297.173 367.846 C 291.419 355.67 284.146 346.815 279.477 344.476 C 275.932 342.68 272.125 342.388 268.049 343.739 C 275.101 340.059 274.327 337.442 285.246 327.85 C 294.576 319.63 301.228 312.992 310.782 307.85 C 316.601 309.51 327.587 324.559 328.6 337.101 C 320.088 339.641 301.343 360.125 297.173 367.846"></path>
		<path fill="#FFC163" stroke="#B38645" stroke-width="2.0004" stroke-linejoin="bevel" stroke-miterlimit="10" d="M 259.15 348.901 C 266.81 342.668 273.466 341.443 279.476 344.476 C 285.535 347.473 295.778 361.693 301.902 379.425 C 308.004 397.156 315.104 404.962 320.965 408.583 C 326.788 412.181 330.371 413.743 347.087 413.584 C 363.823 413.425 367.198 414.611 376.374 414.426 C 385.582 414.28 390.406 417.424 395.286 418.946 C 400.206 420.484 408.145 424.979 417.596 428.064 C 427.107 431.118 444.016 438.169 458.335 433.304 C 472.676 428.429 473.221 423.312 480.722 415.735 C 488.224 408.165 495.578 400.026 505.171 403.051 C 514.796 406.089 508.145 412.222 507.011 412.881 C 505.865 413.519 503.796 411.395 500.86 411.535 C 497.945 411.677 491.356 420.99 488.146 423.637 C 484.913 426.282 474.585 438.319 462.817 442.433 C 451.106 446.611 444.872 446.048 433.616 443.36 C 422.35 440.695 409.745 438.143 401.054 433.098 C 392.353 428.027 382.301 428.113 377.956 427.296 C 373.605 426.476 361.187 426.276 356.755 426.838 C 352.335 427.364 346.354 428.396 343.228 428.056 C 340.114 427.729 328.778 428.015 323.839 425.285 C 318.951 422.523 313.825 421.481 308.825 414.732 C 303.793 407.967 298.825 402.471 294.894 395.087 C 291 387.712 291.347 378.585 287.465 372.998 C 283.595 367.411 280.562 363.783 277.417 362.031 C 274.285 360.269 273.276 358.038 269.271 359.13 C 265.298 360.22 261.735 362.421 258.649 359.773 C 255.527 357.157 256.294 351.197 259.15 348.901"></path>
		
			<path fill="#7BD968" stroke="#598C4E" stroke-width="2.0004" stroke-linecap="round" stroke-linejoin="bevel" stroke-miterlimit="10" d="M 214.568 411.331 C 214.99 412.47 216.97 416.908 221.267 417.319 C 225.551 417.691 230.366 417.382 232.009 414.482"></path>
	</g>
</g>
<g>
	<g>
		<path fill="#FFE563" stroke="#E8D46D" stroke-width="1.2222" stroke-linejoin="bevel" stroke-miterlimit="10" d="M 468.741 299.839 C 467.421 302.222 463.272 313.026 457.435 316.654 C 451.63 320.336 448.407 319.771 442.524 317.485 C 436.634 315.221 429.861 313.054 424.769 309.177 C 419.674 305.28 413.936 305.469 411.353 304.852 C 408.779 304.238 401.372 303.794 398.687 303.933 C 395.998 304.05 392.288 304.275 390.276 303.837 C 388.28 303.414 380.937 302.606 377.524 300.667 C 374.148 298.708 370.71 297.691 366.74 293.678 C 362.752 289.656 358.721 286.42 354.905 282.312 C 351.111 278.21 349.461 273.386 345.578 270.339 C 341.705 267.291 338.741 265.347 336.22 264.384 C 333.706 263.417 332.457 262.253 330.117 262.757 C 331.772 265.515 339.978 277.192 345.015 281.262 C 350.076 285.336 353.797 289.001 360.311 293.384 C 366.853 297.783 380.784 304.974 394.562 309.273 C 408.364 313.586 419.371 318.414 428.987 320.42 C 438.597 322.448 449.394 324.224 454.601 322.715 C 459.818 321.22 462.473 318.276 464.23 315.574 C 465.989 312.869 468.164 308.132 468.741 299.839"></path>
		<path fill="#7BD968" stroke="#598C4E" stroke-width="1.2222" stroke-linejoin="bevel" stroke-miterlimit="10" d="M 296.008 280.296 C 295.727 281.921 294.4 286.944 297.312 290.111 C 302.098 295.372 310.395 294.577 312.506 294.795 C 314.641 295.015 325.166 296.879 333.758 289.245 C 342.339 281.626 348.021 279.365 351.57 277.909 C 349.73 275.094 348.119 272.325 345.584 270.341 C 341.701 267.292 338.746 265.35 336.224 264.386 C 333.711 263.419 332.461 262.255 330.121 262.759 C 329.94 262.808 329.77 262.856 329.584 262.891 C 327.636 265.884 322.654 268.675 318.76 268.77 C 314.88 268.867 308.884 268.877 307.195 268.774 C 305.935 268.71 304.893 269.544 304.43 269.691 C 301.03 271.217 296.728 276.074 296.008 280.296"></path>
		<path fill="#7BD968" stroke="#598C4E" stroke-width="1.2222" stroke-linejoin="bevel" stroke-miterlimit="10" d="M 385.76 303.078 C 382.908 302.556 379.531 301.814 377.534 300.673 C 374.154 298.715 370.718 297.696 366.753 293.684 C 365.768 292.681 364.791 291.739 363.789 290.818 C 360.086 293.042 353.843 299.216 352.057 301.84 C 350.283 304.469 347.442 309.18 348.477 315.17 C 349.52 321.151 348.193 322.726 348.26 325.269 C 348.311 327.808 347.652 329.727 350.827 330.731 C 354.005 331.722 356.727 330.049 359.95 328.174 C 363.181 326.277 368.573 324.704 373.551 321.719 C 377.589 319.292 380.442 316.983 382.251 314.473 C 384.046 311.965 385.7 303.309 385.7 303.309 C 385.7 303.309 385.76 303.078 385.76 303.078"></path>
		<path fill="#7BD968" stroke="#598C4E" stroke-width="1.2222" stroke-linejoin="bevel" stroke-miterlimit="10" d="M 469.154 298.942 C 470.479 295.866 472.132 289.1 473.476 289.026 C 475 288.947 476.452 290.9 476.937 290.338 C 479.816 291.978 483.037 295.201 482.911 299.025 C 482.765 302.871 481.841 302.799 480.747 303.936 C 479.658 305.127 477.648 304.605 476.189 303.608 C 474.739 302.625 470.599 300.717 469.154 298.942"></path>
		<path fill="#7BD968" stroke="#598C4E" stroke-width="1.2222" stroke-linejoin="bevel" stroke-miterlimit="10" d="M 453.127 318.755 C 449.633 319.846 446.806 319.15 442.524 317.485 C 438.916 316.106 434.977 314.771 431.305 313.031 C 429.778 319.477 426.522 330.445 431.959 340.914 C 434.783 346.482 437.181 347.445 439.259 349.693 C 441.342 351.947 442.299 358.304 446.514 360.397 C 448.616 361.442 449.671 361.372 451.743 359.861 C 453.821 358.323 454.336 357.905 455.144 355.976 C 455.95 354.065 458.675 347.034 458.573 342.751 C 458.474 338.451 457.704 332.094 456.946 329.19 C 456.179 326.294 453.108 319.049 453.108 319.049 C 453.108 319.049 453.127 318.755 453.127 318.755"></path>
		<path fill="#94AEFF" stroke="#4464C7" stroke-width="1.2222" stroke-linejoin="bevel" stroke-miterlimit="10" d="M 304.44 269.692 C 306.781 270.179 307.838 273.21 307.838 273.21 C 309.847 272.894 310.867 273.247 311.588 273.55 C 312.304 271.639 314.832 269.523 318.082 269.78 C 321.357 270.036 324.449 270.088 325.591 275.147 C 329.897 275.499 334.042 273.874 335.634 274.246 C 337.231 274.613 338.496 275.667 338.64 276.138 C 338.771 276.628 339.506 278.531 339.463 279.108 C 339.428 279.714 339.025 280.702 338.206 280.745 C 337.393 280.816 336.504 280.055 336.297 279.439 C 336.094 278.807 336.242 277.851 335.672 277.498 C 335.136 277.15 334.252 277.206 333.67 277.306 C 333.11 277.419 326.141 278.018 325.258 278.157 C 324.793 280.074 322.18 283.061 317.635 282.616 C 313.093 282.186 312.488 280.769 312.214 279.39 C 311.944 278.013 311.624 276.917 311.624 276.917 C 309.469 276.831 309.874 276.807 308.466 276.658 C 307.423 278.811 304.982 281.832 300.254 281.478 C 295.52 281.125 293.412 278.98 294.228 274.527 C 291.818 274.135 292.712 273.885 292.712 273.885 C 293.317 271.618 293.292 271.624 293.292 271.624 C 293.292 271.624 296.506 271.966 296.506 271.966 C 297.312 268.93 302.911 269.374 304.44 269.692"></path>
		<path fill="#FFFFFF" stroke="#4464C7" stroke-width="1.2222" stroke-linejoin="bevel" stroke-miterlimit="10" d="M 299.393 271.634 C 302.155 270.914 305.583 272.718 306.04 273.928 C 306.466 275.123 305.704 278.663 303.371 279.413 C 301.089 280.162 297.447 279.614 296.866 278.107 C 296.263 276.601 296.268 272.474 299.393 271.634"></path>
		<path fill="#E0B577" stroke="#A87C3B" stroke-width="1.2222" stroke-linejoin="bevel" stroke-miterlimit="10" d="M 299.569 275.05 C 300.287 274.386 302.849 274.566 303.511 275.359 C 304.181 276.157 303.632 277.073 302.885 277.296 C 302.167 277.532 299.929 278.461 299.389 277.549 C 298.816 276.638 298.638 275.891 299.569 275.05"></path>
		<path fill="#FFFFFF" stroke="#4464C7" stroke-width="1.2222" stroke-linejoin="bevel" stroke-miterlimit="10" d="M 314.294 278.842 C 313.313 276.373 313.472 274.343 314.663 273.38 C 315.85 272.417 319.117 271.859 321.248 273.881 C 323.368 275.886 323.854 277.507 323.183 278.394 C 322.533 279.299 320.557 280.934 318.824 280.787 C 317.101 280.629 314.856 280.174 314.294 278.842"></path>
		<path fill="#E0B577" stroke="#A87C3B" stroke-width="1.2222" stroke-linejoin="bevel" stroke-miterlimit="10" d="M 316.511 275.812 C 317.276 275.437 319.999 276.373 320.203 276.797 C 320.422 277.206 320.044 278.213 319.615 278.179 C 319.207 278.142 316.61 278.751 316.042 277.753 C 315.477 276.758 315.347 276.357 316.511 275.812"></path>
		<path fill="#C79C52" stroke="#806434" stroke-width="1.2222" stroke-linejoin="bevel" stroke-miterlimit="10" d="M 412.231 223.263 C 403.112 219.202 389.178 215.492 381.585 214.084 C 376.792 213.221 370.669 213.505 365.183 214.424 C 368.511 216.457 376.839 223.342 382.644 232.128 C 387.654 230.044 405.309 233.268 411.772 236.562 C 413.173 234.097 413.39 227.364 412.231 223.263"></path>
		<path fill="#C79C52" stroke="#806434" stroke-width="1.2222" stroke-linejoin="bevel" stroke-miterlimit="10" d="M 431.164 259.351 C 427.409 251.14 420.212 243.83 411.775 236.551 C 413.17 234.09 413.391 227.364 412.227 223.252 C 414.237 224.143 416.033 225.043 417.458 225.89 C 425.419 230.603 441.638 242.206 447.83 249.125 C 453.005 254.879 457.736 262.396 460.335 266.54 C 453.142 263.208 442.152 259.044 437.934 258.548 C 433.746 258.043 431.164 259.351 431.164 259.351"></path>
		<path fill="#C79C52" stroke="#806434" stroke-width="1.2222" stroke-linejoin="bevel" stroke-miterlimit="10" d="M 460.321 266.535 C 453.14 263.204 442.145 259.041 437.925 258.544 C 433.743 258.04 431.159 259.351 431.159 259.351 C 429.848 260.942 426.479 275.601 426.479 275.601 C 427.414 281.379 429.874 283.548 431.69 287.838 C 433.481 292.15 435.164 299.162 435.368 305.833 C 440.83 308.472 448.683 312.552 454.668 308.657 C 461.514 304.194 461.186 299.534 463.712 292.625 C 465.901 286.621 467.752 280.335 472.052 280.781 C 472.052 280.781 472.062 280.793 472.062 280.793 C 468.53 277.91 463.747 271.701 461.616 268.519 C 461.255 268.014 460.824 267.316 460.321 266.535"></path>
		<path fill="#C79C52" stroke="#806434" stroke-width="1.2222" stroke-linejoin="bevel" stroke-miterlimit="10" d="M 399.118 262.784 C 391.985 269.407 388.79 288.962 388.651 295.091 C 389.534 295.161 390.482 295.218 391.496 295.255 C 401.825 295.648 403.781 296.201 408.925 295.768 C 414.094 295.361 417.199 297.396 420.077 298.347 C 422.978 299.311 427.894 302.535 433.21 304.846 C 433.868 305.115 434.602 305.474 435.373 305.838 C 435.167 299.165 433.485 292.155 431.696 287.843 C 429.882 283.551 427.421 281.384 426.486 275.606 C 423.346 271.492 411.158 262.35 399.118 262.784"></path>
		<path fill="#C79C52" stroke="#806434" stroke-width="1.2222" stroke-linejoin="bevel" stroke-miterlimit="10" d="M 411.776 236.552 C 405.292 233.253 387.641 230.029 382.64 232.116 C 380.904 232.839 379.693 236.527 380.344 239.72 C 383.498 242.345 390.699 249.146 393.152 252.349 C 395.624 255.548 398.454 261.503 399.12 262.785 C 411.161 262.352 423.349 271.487 426.487 275.598 C 426.487 275.598 429.859 260.939 431.163 259.347 C 427.409 251.14 420.212 243.832 411.776 236.552"></path>
		<path fill="#C79C52" stroke="#806434" stroke-width="1.2222" stroke-linejoin="bevel" stroke-miterlimit="10" d="M 380.352 239.726 C 372.075 239.973 361.283 246.889 357.993 249.146 C 354.687 251.405 351.194 263.592 350.606 267.743 C 352.67 269.731 354.717 271.874 356.558 274.145 C 364.595 283.982 369.92 288.733 374.211 291.113 C 378.044 293.241 380.582 294.55 388.652 295.099 C 388.787 288.966 391.985 269.413 399.126 262.793 C 398.452 261.506 395.625 255.556 393.156 252.358 C 390.703 249.15 383.5 242.343 380.352 239.726"></path>
		<path fill="#C79C52" stroke="#806434" stroke-width="1.2222" stroke-linejoin="bevel" stroke-miterlimit="10" d="M 380.352 239.726 C 372.075 239.973 361.283 246.889 357.993 249.146 C 351.833 241.76 338.643 233.874 334.882 233.369 C 335.264 232.717 335.696 232.074 336.184 231.419 C 339.588 226.979 346.727 220.65 352.675 217.891 C 355.542 216.569 360.084 215.23 365.171 214.417 C 368.49 216.442 376.826 223.331 382.634 232.117 C 380.908 232.838 379.691 236.532 380.352 239.726"></path>
		<path fill="#C79C52" stroke="#806434" stroke-width="1.2222" stroke-linejoin="bevel" stroke-miterlimit="10" d="M 350.606 267.743 C 343.624 261.063 336.027 256.374 332.336 255.144 C 329.529 254.2 327.063 254.061 324.902 254.757 C 328.221 252.852 327.176 251.614 329.822 246.09 C 332.072 241.357 332.608 237.215 334.881 233.364 C 338.642 233.868 351.823 241.753 357.992 249.14 C 354.687 251.405 351.194 263.592 350.606 267.743"></path>
		<path fill="#FFC163" stroke="#B38645" stroke-width="1.2222" stroke-linejoin="bevel" stroke-miterlimit="10" d="M 320.735 257.374 C 323.932 254.246 327.58 253.549 332.337 255.145 C 337.112 256.72 348.507 264.297 356.558 274.135 C 364.594 283.974 369.921 288.725 374.212 291.106 C 378.474 293.47 381.181 294.856 391.498 295.246 C 401.825 295.637 403.78 296.188 408.925 295.757 C 414.093 295.352 417.199 297.385 420.075 298.337 C 422.978 299.302 427.892 302.526 433.21 304.837 C 438.554 307.122 447.844 313.107 454.683 308.655 C 461.53 304.191 461.201 299.533 463.721 292.622 C 466.243 285.719 468.334 278.475 474.154 281.46 C 479.994 284.457 477.445 289.758 476.954 290.331 C 476.453 290.882 475.011 288.94 473.489 289.017 C 471.978 289.098 470.055 297.454 468.753 299.833 C 467.439 302.211 463.284 313.019 457.447 316.648 C 451.643 320.332 448.421 319.767 442.536 317.482 C 436.646 315.217 429.873 313.05 424.786 309.175 C 419.693 305.278 413.949 305.468 411.372 304.853 C 408.792 304.236 401.389 303.793 398.7 303.933 C 396.016 304.05 392.303 304.272 390.293 303.838 C 388.293 303.413 380.953 302.607 377.542 300.665 C 374.163 298.707 370.725 297.688 366.759 293.677 C 362.769 289.655 358.74 286.419 354.92 282.308 C 351.127 278.204 349.474 273.382 345.592 270.333 C 341.716 267.286 338.757 265.341 336.236 264.379 C 333.721 263.412 332.472 262.248 330.131 262.752 C 327.811 263.255 325.989 264.308 323.289 262.912 C 320.574 261.535 319.534 258.525 320.735 257.374"></path>
		
			<path fill="#7BD968" stroke="#598C4E" stroke-width="1.2222" stroke-linecap="round" stroke-linejoin="bevel" stroke-miterlimit="10" d="M 300.716 287.259 C 301.091 287.814 302.748 289.986 305.791 290.271 C 308.824 290.537 312.209 290.515 313.178 289.158"></path>
	</g>
</g>
<g>
	<g>
		<path fill="#FFE563" stroke="#E8D46D" stroke-width="0.7789" stroke-linejoin="bevel" stroke-miterlimit="10" d="M 415.886 201.108 C 415.661 202.784 416.563 210.53 413.896 213.702 C 411.273 216.908 408.84 216.896 403.805 216.215 C 398.778 215.549 393.546 215.482 388.646 214.009 C 383.732 212.523 380.852 214.27 379.234 214.567 C 377.623 214.865 373.904 216.696 372.787 217.568 C 371.657 218.426 370.192 219.643 369.089 219.904 C 368.001 220.17 364.481 221.619 361.953 221.168 C 359.429 220.693 357.417 220.858 353.47 219.033 C 349.51 217.206 345.983 215.87 342.091 213.797 C 338.212 211.722 334.95 208.608 331.691 207.148 C 328.435 205.685 326.17 204.779 324.573 204.507 C 322.976 204.229 321.858 203.575 321.038 204.325 C 323.102 206.101 332.796 213.124 337.231 215.027 C 341.68 216.928 345.352 218.724 350.605 220.297 C 355.878 221.875 365.674 223.379 374.033 222.476 C 382.411 221.576 390.482 221.83 397.026 221.083 C 403.58 220.353 411.711 220.127 414.684 218.471 C 417.671 216.824 418.362 214.506 418.54 212.435 C 418.719 210.361 418.372 206.788 415.886 201.108"></path>
		<path fill="#7BD968" stroke="#598C4E" stroke-width="0.7789" stroke-linejoin="bevel" stroke-miterlimit="10" d="M 313.536 220.551 C 314.188 221.639 315.934 224.974 319.016 226.781 C 324.108 229.784 328.062 228.598 329.251 228.541 C 330.453 228.483 336.837 228.76 336.591 222.368 C 336.346 215.988 337.507 213.149 338.264 211.386 C 335.958 209.766 333.819 208.099 331.694 207.149 C 328.434 205.688 326.174 204.781 324.575 204.508 C 322.978 204.23 321.861 203.577 321.04 204.327 C 320.981 204.392 320.927 204.456 320.859 204.51 C 321.405 207.035 320.553 209.774 318.797 210.35 C 317.046 210.927 314.219 211.616 313.364 211.724 C 312.732 211.813 312.641 212.501 312.49 212.65 C 311.602 214.053 311.84 217.727 313.536 220.551"></path>
		<path fill="#7BD968" stroke="#598C4E" stroke-width="0.7789" stroke-linejoin="bevel" stroke-miterlimit="10" d="M 366.756 220.633 C 365.266 221.054 363.443 221.437 361.961 221.17 C 359.435 220.697 357.424 220.86 353.48 219.034 C 352.496 218.576 351.552 218.155 350.61 217.75 C 350.314 220.14 351.187 225.61 351.895 227.695 C 352.61 229.782 353.979 233.37 357.718 237.109 C 361.456 240.84 361.63 242.071 362.974 243.712 C 364.308 245.353 364.952 246.704 367.006 246.885 C 369.056 247.057 369.517 245.522 370.007 243.688 C 370.489 241.84 372.032 239.714 372.457 236.536 C 372.797 233.955 372.632 231.636 371.92 229.439 C 371.203 227.245 366.867 220.811 366.867 220.811 C 366.867 220.811 366.756 220.633 366.756 220.633"></path>
		<path fill="#7BD968" stroke="#598C4E" stroke-width="0.7789" stroke-linejoin="bevel" stroke-miterlimit="10" d="M 415.906 200.484 C 415.906 198.345 415.156 193.834 416.256 193.754 C 417.504 193.667 419.303 194.93 419.54 194.554 C 422.442 195.601 426.101 197.774 427.253 200.396 C 428.4 203.035 427.642 202.991 427.146 203.778 C 426.674 204.603 424.852 204.229 423.304 203.544 C 421.77 202.867 417.708 201.636 415.906 200.484"></path>
		<path fill="#7BD968" stroke="#598C4E" stroke-width="0.7789" stroke-linejoin="bevel" stroke-miterlimit="10" d="M 411.735 215.673 C 409.752 216.862 407.467 216.712 403.804 216.215 C 400.728 215.812 397.557 215.626 394.454 215.201 C 396.863 220.163 401.247 228.827 410.031 236.009 C 414.667 239.842 416.523 240.272 418.913 241.808 C 421.311 243.349 425.132 248.556 428.644 249.929 C 430.393 250.614 430.982 250.463 431.5 248.975 C 432.01 247.464 432.135 247.067 431.696 245.343 C 431.264 243.635 429.554 237.461 427.354 233.936 C 425.147 230.398 421.46 225.396 419.5 223.207 C 417.538 221.022 411.861 215.894 411.861 215.894 C 411.861 215.894 411.735 215.673 411.735 215.673"></path>
		<path fill="#94AEFF" stroke="#4464C7" stroke-width="0.7789" stroke-linejoin="bevel" stroke-miterlimit="10" d="M 312.495 212.65 C 313.859 212.754 315.873 214.738 315.873 214.738 C 316.682 214.312 317.345 214.442 317.841 214.569 C 317.214 213.171 317.35 211.392 318.99 211.157 C 320.64 210.917 322.046 210.549 325.225 213.921 C 327.389 213.56 328.396 211.747 329.304 211.746 C 330.212 211.74 331.332 212.267 331.647 212.576 C 331.967 212.899 333.316 214.109 333.608 214.52 C 333.921 214.95 334.281 215.706 333.938 215.873 C 333.614 216.059 332.8 215.677 332.375 215.283 C 331.941 214.876 331.495 214.185 331.048 214.031 C 330.621 213.875 330.254 214.057 330.046 214.219 C 329.853 214.388 326.992 215.838 326.657 216.056 C 327.457 217.441 327.841 219.824 325.423 220.049 C 323.015 220.286 321.971 219.383 321.128 218.483 C 320.286 217.583 319.572 216.872 319.572 216.872 C 318.49 217.046 318.672 216.985 317.913 217.027 C 318.498 218.592 318.835 220.842 316.271 220.995 C 313.703 221.148 311.571 219.91 309.836 216.86 C 308.442 216.785 308.769 216.546 308.769 216.546 C 307.988 214.978 307.979 214.975 307.979 214.975 C 307.979 214.975 309.734 214.946 309.734 214.946 C 308.67 212.811 311.604 212.583 312.495 212.65"></path>
		<path fill="#FFFFFF" stroke="#4464C7" stroke-width="0.7789" stroke-linejoin="bevel" stroke-miterlimit="10" d="M 310.995 214.47 C 311.997 213.731 314.538 214.631 315.364 215.413 C 316.168 216.188 317.587 218.658 316.804 219.365 C 316.045 220.067 313.931 219.996 312.9 219.042 C 311.859 218.09 309.873 215.324 310.995 214.47"></path>
		<path fill="#E0B577" stroke="#A87C3B" stroke-width="0.7789" stroke-linejoin="bevel" stroke-miterlimit="10" d="M 312.751 216.775 C 312.78 216.265 314.126 216.155 314.845 216.63 C 315.571 217.108 315.761 217.775 315.503 217.993 C 315.266 218.216 314.611 219.03 313.891 218.466 C 313.156 217.906 312.703 217.421 312.751 216.775"></path>
		<path fill="#FFFFFF" stroke="#4464C7" stroke-width="0.7789" stroke-linejoin="bevel" stroke-miterlimit="10" d="M 321.849 217.886 C 320.098 216.323 319.142 214.908 319.214 214.1 C 319.283 213.292 320.521 212.497 322.557 213.628 C 324.58 214.749 325.664 215.8 325.82 216.498 C 325.995 217.206 325.932 218.57 325.03 218.678 C 324.128 218.778 322.809 218.725 321.849 217.886"></path>
		<path fill="#E0B577" stroke="#A87C3B" stroke-width="0.7789" stroke-linejoin="bevel" stroke-miterlimit="10" d="M 321.335 215.561 C 321.504 215.212 323.269 215.52 323.585 215.785 C 323.902 216.039 324.253 216.777 324.032 216.808 C 323.82 216.833 322.907 217.561 322.118 216.947 C 321.334 216.333 321.068 216.076 321.335 215.561"></path>
		<path fill="#C79C52" stroke="#806434" stroke-width="0.7789" stroke-linejoin="bevel" stroke-miterlimit="10" d="M 359.361 160.984 C 353.097 159.891 344.171 159.616 339.46 159.772 C 336.485 159.886 332.662 160.869 329.276 162.216 C 331.18 163.12 335.833 166.458 339.768 171.326 C 342.79 169.016 354.45 168.073 359.078 169.004 C 359.968 167.267 360.07 163.227 359.361 160.984"></path>
		<path fill="#C79C52" stroke="#806434" stroke-width="0.7789" stroke-linejoin="bevel" stroke-miterlimit="10" d="M 375.326 179.611 C 371.179 175.208 365.223 172.027 359.077 168.996 C 359.967 167.261 360.071 163.226 359.358 160.979 C 360.739 161.217 361.993 161.491 362.996 161.784 C 368.603 163.415 381.305 167.965 386.961 171.303 C 391.689 174.077 396.771 178.092 399.721 180.382 C 393.121 178.915 383.685 177.757 380.347 178.068 C 377.037 178.37 375.326 179.611 375.326 179.611"></path>
		<path fill="#C79C52" stroke="#806434" stroke-width="0.7789" stroke-linejoin="bevel" stroke-miterlimit="10" d="M 399.712 180.381 C 393.12 178.913 383.681 177.757 380.343 178.068 C 377.035 178.369 375.32 179.613 375.32 179.613 C 374.598 180.808 375.632 190.778 375.632 190.778 C 377.988 194.342 380.474 195.248 383.314 197.722 C 386.147 200.216 390.145 204.597 393.428 209.227 C 398.221 209.952 405.465 211.585 408.284 208.208 C 411.503 204.341 409.525 201.231 409.312 196.518 C 409.123 192.422 409.026 188.357 412.757 188.503 C 412.757 188.503 412.768 188.51 412.768 188.51 C 409.049 186.803 403.593 183.252 401.178 181.48 C 400.777 181.201 400.279 180.811 399.712 180.381"></path>
		<path fill="#C79C52" stroke="#806434" stroke-width="0.7789" stroke-linejoin="bevel" stroke-miterlimit="10" d="M 354.572 188.756 C 352.255 195.131 360.154 209.969 363.473 214.279 C 363.894 214.078 364.338 213.85 364.802 213.586 C 369.556 210.913 370.869 210.683 373.273 208.918 C 375.701 207.163 378.452 207.737 380.548 207.64 C 382.664 207.546 387.089 208.521 391.573 208.991 C 392.119 209.037 392.762 209.133 393.434 209.229 C 390.148 204.597 386.15 200.217 383.322 197.724 C 380.48 195.249 377.995 194.343 375.639 190.78 C 372.25 188.771 361.504 185.419 354.572 188.756"></path>
		<path fill="#C79C52" stroke="#806434" stroke-width="0.7789" stroke-linejoin="bevel" stroke-miterlimit="10" d="M 359.078 168.997 C 354.434 168.067 342.783 169.007 339.762 171.319 C 338.713 172.12 338.18 174.882 338.924 176.987 C 341.095 178.186 346.425 181.343 348.53 182.99 C 350.646 184.627 353.82 188.04 354.572 188.757 C 361.501 185.42 372.25 188.768 375.632 190.774 C 375.632 190.774 374.605 180.805 375.319 179.61 C 371.18 175.209 365.225 172.029 359.078 168.997"></path>
		<path fill="#C79C52" stroke="#806434" stroke-width="0.7789" stroke-linejoin="bevel" stroke-miterlimit="10" d="M 338.932 176.99 C 334.034 178.844 329.589 186.241 328.611 188.662 C 327.626 191.086 330.865 201.073 332.624 204.244 C 334.507 205.278 336.478 206.401 338.448 207.632 C 347.011 212.959 352.007 214.856 355.138 215.413 C 357.935 215.91 359.683 216.177 363.477 214.284 C 360.153 209.971 352.257 195.134 354.579 188.759 C 353.824 188.041 350.651 184.631 348.538 182.993 C 346.432 181.346 341.097 178.184 338.932 176.99"></path>
		<path fill="#C79C52" stroke="#806434" stroke-width="0.7789" stroke-linejoin="bevel" stroke-miterlimit="10" d="M 338.932 176.99 C 334.034 178.844 329.589 186.241 328.611 188.662 C 323.323 184.335 315.039 180.507 313.003 180.726 C 313.077 180.149 313.188 179.571 313.339 178.977 C 314.404 174.936 318.129 169.085 321.67 166.303 C 323.377 164.968 326.133 163.435 329.27 162.213 C 331.168 163.113 335.826 166.454 339.759 171.321 C 338.716 172.119 338.181 174.886 338.932 176.99"></path>
		<path fill="#C79C52" stroke="#806434" stroke-width="0.7789" stroke-linejoin="bevel" stroke-miterlimit="10" d="M 332.624 204.244 C 326.275 200.78 320.831 198.545 318.613 198.231 C 316.923 197.986 315.725 198.276 315.027 199.139 C 315.739 197.176 314.6 196.412 313.943 191.634 C 313.372 187.543 312.556 184.136 313.001 180.721 C 315.037 180.501 323.315 184.331 328.608 188.656 C 327.626 191.086 330.865 201.073 332.624 204.244"></path>
		<path fill="#FFC163" stroke="#B38645" stroke-width="0.7789" stroke-linejoin="bevel" stroke-miterlimit="10" d="M 314.26 201.742 C 314.328 198.932 315.751 197.819 318.614 198.232 C 321.477 198.626 329.875 202.304 338.443 207.627 C 347.005 212.954 352.003 214.852 355.134 215.408 C 358.244 215.961 360.052 216.252 364.798 213.581 C 369.55 210.906 370.861 210.675 373.266 208.911 C 375.697 207.159 378.446 207.729 380.542 207.634 C 382.658 207.538 387.084 208.516 391.568 208.985 C 396.06 209.432 405.074 212.064 408.294 208.207 C 411.516 204.34 409.534 201.231 409.32 196.518 C 409.103 191.809 409.02 187.126 414.701 188.876 C 420.401 190.632 419.79 194.169 419.552 194.55 C 419.299 194.918 417.511 193.663 416.262 193.749 C 415.025 193.836 416.101 199.433 415.891 201.107 C 415.669 202.779 416.567 210.528 413.9 213.699 C 411.278 216.907 408.845 216.895 403.809 216.213 C 398.78 215.546 393.549 215.479 388.652 214.006 C 383.74 212.521 380.855 214.268 379.243 214.566 C 377.627 214.862 373.908 216.692 372.792 217.567 C 371.664 218.423 370.196 219.639 369.097 219.902 C 368.005 220.167 364.488 221.618 361.959 221.164 C 359.435 220.692 357.422 220.855 353.477 219.031 C 349.518 217.205 345.99 215.868 342.096 213.794 C 338.216 211.718 334.954 208.607 331.695 207.145 C 328.439 205.682 326.176 204.775 324.578 204.503 C 322.979 204.225 321.862 203.573 321.041 204.322 C 320.229 205.069 319.906 206.121 318.002 205.489 C 316.1 204.87 314.225 202.78 314.26 201.742"></path>
		
			<path fill="#7BD968" stroke="#598C4E" stroke-width="0.7789" stroke-linecap="round" stroke-linejoin="bevel" stroke-miterlimit="10" d="M 319.384 224.713 C 319.853 225.042 321.799 226.311 323.505 226.24 C 325.196 226.157 326.894 225.825 326.671 224.847"></path>
	</g>
</g>
<g>
	<g>
		<path fill="#FFE563" stroke="#E8D46D" stroke-width="0.4563" stroke-linejoin="bevel" stroke-miterlimit="10" d="M 359.061 146.82 C 358.815 147.709 358.938 151.6 357.099 153.594 C 355.289 155.603 353.745 155.93 350.683 156.226 C 347.623 156.53 344.48 157.195 341.691 157.006 C 338.893 156.812 337.128 158.166 336.178 158.549 C 335.233 158.93 333.002 160.5 332.327 161.175 C 331.644 161.843 330.771 162.79 330.146 163.106 C 329.529 163.422 327.539 164.834 326.164 164.902 C 324.793 164.955 323.689 165.353 321.6 164.689 C 319.502 164.024 317.648 163.586 315.642 162.672 C 313.642 161.755 312.062 160.041 310.398 159.403 C 308.734 158.764 307.573 158.375 306.726 158.346 C 305.881 158.314 305.317 157.979 304.825 158.565 C 305.826 159.567 310.699 163.32 313.009 164.078 C 315.326 164.834 317.248 165.578 320.042 165.909 C 322.848 166.24 328.105 165.761 332.841 163.98 C 337.589 162.198 342.33 161.175 346.321 159.826 C 350.318 158.486 355.44 157.261 357.396 156.001 C 359.361 154.743 359.9 153.457 360.108 152.362 C 360.316 151.266 360.244 149.468 359.061 146.82"></path>
		<path fill="#7BD968" stroke="#598C4E" stroke-width="0.4563" stroke-linejoin="bevel" stroke-miterlimit="10" d="M 301.061 171.019 C 301.481 171.744 302.714 174.007 304.442 174.927 C 307.3 176.459 309.035 174.98 309.604 174.764 C 310.179 174.544 313.14 173.736 312.739 169.253 C 312.34 164.779 313.197 162.767 313.691 161.513 C 312.532 160.696 311.482 159.818 310.396 159.404 C 308.73 158.765 307.571 158.376 306.724 158.347 C 305.879 158.315 305.315 157.98 304.823 158.567 C 304.787 158.616 304.754 158.664 304.713 158.708 C 304.849 160.367 304.307 162.363 303.373 162.965 C 302.443 163.566 300.975 164.385 300.533 164.562 C 300.207 164.699 300.169 165.208 300.095 165.334 C 299.669 166.457 299.966 169.137 301.061 171.019"></path>
		<path fill="#7BD968" stroke="#598C4E" stroke-width="0.4563" stroke-linejoin="bevel" stroke-miterlimit="10" d="M 328.822 163.887 C 327.984 164.361 326.972 164.865 326.167 164.904 C 324.795 164.958 323.692 165.354 321.604 164.69 C 321.082 164.522 320.584 164.37 320.088 164.226 C 319.866 165.833 320.405 169.403 320.886 170.724 C 321.37 172.045 322.362 174.33 324.741 176.255 C 327.116 178.174 327.447 178.975 328.417 179.847 C 329.381 180.721 329.981 181.523 331.024 181.221 C 332.062 180.914 331.975 179.764 331.924 178.422 C 331.865 177.072 332.362 175.337 332.321 173.172 C 332.286 171.414 332.095 169.954 331.65 168.667 C 331.201 167.383 328.88 163.983 328.88 163.983 C 328.88 163.983 328.822 163.887 328.822 163.887"></path>
		<path fill="#7BD968" stroke="#598C4E" stroke-width="0.4563" stroke-linejoin="bevel" stroke-miterlimit="10" d="M 359.112 146.495 C 359.248 145.393 359.096 143.153 359.774 142.994 C 360.546 142.816 361.575 143.27 361.743 143.052 C 363.471 143.277 365.651 143.993 366.257 145.201 C 366.855 146.418 366.378 146.477 366.021 146.932 C 365.679 147.403 364.525 147.415 363.579 147.237 C 362.64 147.063 360.155 146.888 359.112 146.495"></path>
		<path fill="#7BD968" stroke="#598C4E" stroke-width="0.4563" stroke-linejoin="bevel" stroke-miterlimit="10" d="M 355.644 154.904 C 354.344 155.787 352.911 156.011 350.683 156.226 C 348.81 156.415 346.897 156.734 345.064 156.909 C 346.214 159.336 348.494 163.599 354.233 166.184 C 357.261 167.573 358.531 167.495 360.178 167.953 C 361.831 168.413 364.745 170.645 367.271 170.84 C 368.53 170.937 368.92 170.763 369.152 169.882 C 369.373 168.989 369.428 168.759 369.007 167.901 C 368.593 167.05 367.104 164.013 365.547 162.456 C 363.989 160.891 361.583 158.757 360.357 157.863 C 359.125 156.973 355.712 155.004 355.712 155.004 C 355.712 155.004 355.644 154.904 355.644 154.904"></path>
		<path fill="#94AEFF" stroke="#4464C7" stroke-width="0.4563" stroke-linejoin="bevel" stroke-miterlimit="10" d="M 300.1 165.334 C 300.802 165.249 301.881 166.447 301.881 166.447 C 302.281 166.04 302.626 166.054 302.884 166.087 C 302.532 165.152 302.602 163.865 303.464 163.513 C 304.332 163.156 305.057 162.746 306.703 164.743 C 307.835 164.234 308.409 162.864 308.89 162.76 C 309.372 162.654 309.95 162.888 310.108 163.062 C 310.268 163.247 310.952 163.918 311.099 164.164 C 311.256 164.422 311.436 164.9 311.253 165.057 C 311.081 165.224 310.657 165.06 310.437 164.839 C 310.214 164.611 309.989 164.186 309.757 164.132 C 309.534 164.074 309.337 164.243 309.225 164.381 C 309.122 164.521 307.625 165.882 307.453 166.077 C 307.882 166.959 308.154 168.613 306.944 169.093 C 305.739 169.58 305.164 169.06 304.693 168.513 C 304.224 167.966 303.835 167.539 303.835 167.539 C 303.291 167.799 303.382 167.733 303 167.858 C 303.365 168.927 303.691 170.537 302.443 170.987 C 301.193 171.439 300.006 170.791 298.936 168.746 C 298.237 168.864 298.384 168.646 298.384 168.646 C 297.89 167.58 297.893 167.579 297.893 167.579 C 297.893 167.579 298.774 167.343 298.774 167.343 C 298.134 165.903 299.641 165.39 300.1 165.334"></path>
		<path fill="#FFFFFF" stroke="#4464C7" stroke-width="0.4563" stroke-linejoin="bevel" stroke-miterlimit="10" d="M 299.389 166.842 C 299.867 166.177 301.194 166.53 301.642 166.999 C 302.079 167.466 302.917 169.093 302.577 169.715 C 302.249 170.33 301.203 170.555 300.617 169.979 C 300.027 169.406 298.857 167.604 299.389 166.842"></path>
		<path fill="#E0B577" stroke="#A87C3B" stroke-width="0.4563" stroke-linejoin="bevel" stroke-miterlimit="10" d="M 300.388 168.322 C 300.373 167.943 301.047 167.695 301.433 167.955 C 301.823 168.214 301.955 168.68 301.839 168.873 C 301.734 169.067 301.465 169.752 301.066 169.426 C 300.661 169.107 300.401 168.804 300.388 168.322"></path>
		<path fill="#FFFFFF" stroke="#4464C7" stroke-width="0.4563" stroke-linejoin="bevel" stroke-miterlimit="10" d="M 305.033 167.989 C 304.08 167.079 303.556 166.173 303.582 165.585 C 303.608 164.997 304.252 164.289 305.312 164.851 C 306.366 165.408 306.935 166.019 307.027 166.496 C 307.13 166.978 307.139 167.963 306.683 168.156 C 306.227 168.344 305.555 168.475 305.033 167.989"></path>
		<path fill="#E0B577" stroke="#A87C3B" stroke-width="0.4563" stroke-linejoin="bevel" stroke-miterlimit="10" d="M 304.701 166.378 C 304.78 166.106 305.695 166.112 305.863 166.263 C 306.031 166.406 306.226 166.889 306.114 166.939 C 306.005 166.984 305.559 167.622 305.138 167.278 C 304.717 166.934 304.573 166.78 304.701 166.378"></path>
		<path fill="#C79C52" stroke="#806434" stroke-width="0.4563" stroke-linejoin="bevel" stroke-miterlimit="10" d="M 330.714 130.595 C 327.481 130.359 322.745 130.607 320.186 130.868 C 318.569 131.042 316.384 131.716 314.366 132.578 C 315.304 133.031 317.451 134.754 318.985 137.308 C 320.918 135.871 327.305 134.768 329.694 134.992 C 330.369 133.988 330.859 131.78 330.714 130.595"></path>
		<path fill="#C79C52" stroke="#806434" stroke-width="0.4563" stroke-linejoin="bevel" stroke-miterlimit="10" d="M 337.359 139.578 C 335.546 137.547 332.661 136.269 329.693 134.991 C 330.366 133.988 330.858 131.781 330.711 130.595 C 331.424 130.646 332.065 130.719 332.573 130.818 C 335.405 131.361 341.821 132.868 344.643 134.155 C 346.999 135.222 349.515 136.856 351.013 137.768 C 347.34 137.643 342.181 137.875 340.299 138.327 C 338.432 138.77 337.359 139.578 337.359 139.578"></path>
		<path fill="#C79C52" stroke="#806434" stroke-width="0.4563" stroke-linejoin="bevel" stroke-miterlimit="10" d="M 351.012 137.766 C 347.341 137.64 342.18 137.873 340.298 138.325 C 338.434 138.768 337.356 139.577 337.356 139.577 C 336.83 140.281 336.315 145.602 336.315 145.602 C 337.251 147.33 338.566 147.581 339.951 148.631 C 341.33 149.694 343.242 151.631 344.851 153.757 C 347.643 153.565 351.956 153.514 353.905 151.398 C 356.131 148.976 355.124 147.6 355.344 145.177 C 355.533 143.072 355.789 140.978 358.021 140.664 C 358.021 140.664 358.027 140.667 358.027 140.667 C 355.915 140.175 353 138.885 351.756 138.198 C 351.552 138.091 351.297 137.935 351.012 137.766"></path>
		<path fill="#C79C52" stroke="#806434" stroke-width="0.4563" stroke-linejoin="bevel" stroke-miterlimit="10" d="M 324.886 146.251 C 322.838 150.044 325.701 158.157 327.286 160.387 C 327.533 160.211 327.794 160.017 328.07 159.799 C 330.896 157.584 331.676 157.315 333.188 156.012 C 334.711 154.711 336.236 154.729 337.452 154.427 C 338.678 154.125 341.156 154.144 343.772 153.854 C 344.091 153.813 344.463 153.786 344.855 153.757 C 343.246 151.631 341.333 149.695 339.957 148.631 C 338.572 147.581 337.257 147.33 336.32 145.602 C 334.638 144.82 329.1 143.835 324.886 146.251"></path>
		<path fill="#C79C52" stroke="#806434" stroke-width="0.4563" stroke-linejoin="bevel" stroke-miterlimit="10" d="M 329.692 134.99 C 327.296 134.768 320.914 135.869 318.981 137.306 C 318.31 137.804 317.669 139.39 317.805 140.548 C 318.839 141.119 321.345 142.608 322.288 143.404 C 323.239 144.196 324.558 145.901 324.884 146.251 C 329.097 143.834 334.636 144.817 336.314 145.6 C 336.314 145.6 336.829 140.279 337.354 139.575 C 335.546 137.546 332.661 136.269 329.692 134.99"></path>
		<path fill="#C79C52" stroke="#806434" stroke-width="0.4563" stroke-linejoin="bevel" stroke-miterlimit="10" d="M 317.81 140.55 C 314.891 141.851 311.449 146.423 310.6 147.951 C 309.746 149.481 310.419 155.512 311.116 157.406 C 312.057 157.899 313.041 158.435 314.021 159.031 C 318.286 161.606 320.947 162.175 322.631 162.138 C 324.135 162.105 325.064 162.025 327.288 160.39 C 325.701 158.16 322.839 150.046 324.889 146.253 C 324.561 145.902 323.242 144.198 322.294 143.406 C 321.35 142.608 318.842 141.119 317.81 140.55"></path>
		<path fill="#C79C52" stroke="#806434" stroke-width="0.4563" stroke-linejoin="bevel" stroke-miterlimit="10" d="M 317.81 140.55 C 314.891 141.851 311.449 146.423 310.6 147.951 C 308.213 145.657 304.057 143.744 302.872 143.98 C 302.989 143.622 303.129 143.264 303.291 142.897 C 304.429 140.393 307.323 136.83 309.652 135.129 C 310.774 134.312 312.495 133.361 314.363 132.577 C 315.298 133.028 317.447 134.752 318.981 137.306 C 318.314 137.803 317.671 139.391 317.81 140.55"></path>
		<path fill="#C79C52" stroke="#806434" stroke-width="0.4563" stroke-linejoin="bevel" stroke-miterlimit="10" d="M 311.116 157.406 C 307.944 155.756 305.172 154.735 303.982 154.713 C 303.074 154.692 302.387 154.983 301.934 155.624 C 302.486 154.244 301.904 153.809 302.066 150.774 C 302.2 148.175 302.174 146.091 302.871 143.978 C 304.057 143.742 308.21 145.656 310.6 147.948 C 309.746 149.482 310.421 155.513 311.116 157.406"></path>
		<path fill="#FFC163" stroke="#B38645" stroke-width="0.4563" stroke-linejoin="bevel" stroke-miterlimit="10" d="M 301.322 157.455 C 301.545 155.53 302.446 154.681 303.983 154.714 C 305.521 154.734 309.751 156.456 314.019 159.029 C 318.285 161.603 320.945 162.172 322.629 162.136 C 324.302 162.098 325.249 162.009 328.069 159.796 C 330.893 157.58 331.673 157.31 333.184 156.008 C 334.709 154.708 336.234 154.724 337.449 154.424 C 338.675 154.122 341.154 154.142 343.769 153.851 C 346.389 153.546 351.685 153.813 353.913 151.395 C 356.14 148.972 355.133 147.598 355.351 145.174 C 355.57 142.754 355.859 140.345 359.171 140.651 C 362.494 140.958 361.925 142.828 361.754 143.049 C 361.573 143.265 360.551 142.813 359.78 142.991 C 359.015 143.169 359.303 145.931 359.064 146.817 C 358.821 147.704 358.939 151.596 357.101 153.591 C 355.292 155.601 353.748 155.928 350.686 156.224 C 347.626 156.528 344.483 157.193 341.696 157.004 C 338.898 156.809 337.13 158.164 336.183 158.546 C 335.235 158.928 333.005 160.497 332.329 161.173 C 331.648 161.841 330.774 162.788 330.15 163.104 C 329.531 163.421 327.542 164.832 326.166 164.899 C 324.794 164.955 323.692 165.35 321.603 164.686 C 319.506 164.023 317.651 163.585 315.643 162.669 C 313.644 161.752 312.064 160.039 310.398 159.401 C 308.735 158.762 307.574 158.371 306.727 158.343 C 305.881 158.312 305.319 157.976 304.826 158.563 C 304.339 159.147 304.111 159.903 303.122 159.661 C 302.131 159.425 301.233 158.167 301.322 157.455"></path>
		
			<path fill="#7BD968" stroke="#598C4E" stroke-width="0.4563" stroke-linecap="round" stroke-linejoin="bevel" stroke-miterlimit="10" d="M 304.35 173.334 C 304.617 173.514 305.712 174.187 306.53 173.893 C 307.34 173.593 308.13 173.106 307.925 172.421"></path>
	</g>
</g>
<g>
	<g>
		<path fill="#FFE563" stroke="#E8D46D" stroke-width="0.2788" stroke-linejoin="bevel" stroke-miterlimit="10" d="M 332.996 123.297 C 332.781 123.821 332.492 126.049 331.273 127.289 C 330.069 128.535 329.172 128.805 327.432 129.121 C 325.691 129.441 323.862 129.96 322.313 129.958 C 320.763 129.953 319.614 130.8 319.034 131.056 C 318.454 131.312 317.007 132.303 316.542 132.721 C 316.073 133.136 315.462 133.721 315.066 133.927 C 314.673 134.134 313.357 135.032 312.555 135.117 C 311.756 135.191 311.069 135.464 309.934 135.127 C 308.795 134.79 307.761 134.579 306.69 134.079 C 305.624 133.578 304.893 132.578 303.973 132.229 C 303.055 131.878 302.401 131.665 301.894 131.665 C 301.388 131.663 301.086 131.469 300.718 131.838 C 301.206 132.427 303.679 134.597 304.956 134.996 C 306.238 135.393 307.279 135.789 308.871 135.905 C 310.471 136.022 313.583 135.564 316.503 134.352 C 319.428 133.138 322.218 132.357 324.605 131.4 C 326.992 130.448 329.983 129.483 331.203 128.656 C 332.425 127.829 332.849 127.064 333.069 126.425 C 333.288 125.782 333.419 124.759 332.996 123.297"></path>
		<path fill="#7BD968" stroke="#598C4E" stroke-width="0.2788" stroke-linejoin="bevel" stroke-miterlimit="10" d="M 296.881 139.679 C 297.044 140.123 297.505 141.515 298.427 142.024 C 299.951 142.874 301.175 141.857 301.543 141.697 C 301.915 141.535 303.788 140.895 304.132 138.157 C 304.478 135.423 305.232 134.193 305.678 133.427 C 305.091 132.961 304.572 132.455 303.972 132.228 C 303.052 131.877 302.4 131.664 301.892 131.664 C 301.385 131.662 301.084 131.468 300.716 131.836 C 300.688 131.868 300.663 131.897 300.633 131.925 C 300.518 132.933 299.944 134.168 299.302 134.565 C 298.662 134.961 297.664 135.513 297.372 135.637 C 297.156 135.733 297.069 136.052 297.009 136.133 C 296.607 136.848 296.454 138.529 296.881 139.679"></path>
		<path fill="#7BD968" stroke="#598C4E" stroke-width="0.2788" stroke-linejoin="bevel" stroke-miterlimit="10" d="M 314.211 134.429 C 313.671 134.736 313.025 135.067 312.556 135.115 C 311.756 135.191 311.069 135.463 309.935 135.126 C 309.652 135.041 309.38 134.964 309.108 134.891 C 308.777 135.86 308.634 137.994 308.741 138.778 C 308.851 139.562 309.131 140.917 310.259 141.987 C 311.386 143.055 311.468 143.525 311.914 144.01 C 312.358 144.497 312.599 144.956 313.241 144.717 C 313.88 144.475 313.981 143.779 314.129 142.971 C 314.273 142.158 314.787 141.091 315.045 139.803 C 315.253 138.757 315.33 137.899 315.237 137.155 C 315.143 136.412 314.231 134.484 314.231 134.484 C 314.231 134.484 314.211 134.429 314.211 134.429"></path>
		<path fill="#7BD968" stroke="#598C4E" stroke-width="0.2788" stroke-linejoin="bevel" stroke-miterlimit="10" d="M 333.052 123.108 C 333.225 122.467 333.33 121.184 333.72 121.057 C 334.162 120.915 334.695 121.122 334.806 120.988 C 335.745 121.025 336.897 121.313 337.13 121.971 C 337.36 122.634 337.09 122.695 336.851 122.975 C 336.621 123.265 335.979 123.34 335.468 123.291 C 334.961 123.245 333.599 123.279 333.052 123.108"></path>
		<path fill="#7BD968" stroke="#598C4E" stroke-width="0.2788" stroke-linejoin="bevel" stroke-miterlimit="10" d="M 330.331 128.117 C 329.519 128.69 328.697 128.892 327.429 129.122 C 326.364 129.319 325.262 129.588 324.215 129.766 C 324.6 131.121 325.397 133.496 328.33 134.657 C 329.877 135.282 330.601 135.157 331.478 135.315 C 332.358 135.473 333.758 136.55 335.17 136.48 C 335.874 136.446 336.116 136.319 336.344 135.803 C 336.567 135.283 336.622 135.149 336.477 134.694 C 336.333 134.24 335.813 132.628 335.1 131.846 C 334.386 131.06 333.259 129.991 332.663 129.552 C 332.066 129.116 330.361 128.171 330.361 128.171 C 330.361 128.171 330.331 128.117 330.331 128.117"></path>
		<path fill="#94AEFF" stroke="#4464C7" stroke-width="0.2788" stroke-linejoin="bevel" stroke-miterlimit="10" d="M 297.011 136.133 C 297.452 136.056 297.958 136.77 297.958 136.77 C 298.254 136.503 298.462 136.501 298.615 136.513 C 298.519 135.943 298.722 135.142 299.29 134.901 C 299.862 134.658 300.357 134.387 301.097 135.57 C 301.844 135.225 302.36 134.373 302.661 134.299 C 302.964 134.222 303.281 134.35 303.354 134.452 C 303.427 134.561 303.752 134.951 303.808 135.097 C 303.87 135.25 303.916 135.535 303.788 135.636 C 303.665 135.743 303.432 135.654 303.329 135.525 C 303.224 135.392 303.143 135.139 303.01 135.113 C 302.885 135.084 302.745 135.192 302.661 135.279 C 302.581 135.367 301.51 136.244 301.382 136.369 C 301.528 136.9 301.479 137.912 300.689 138.251 C 299.9 138.595 299.62 138.292 299.405 137.967 C 299.191 137.642 299.009 137.388 299.009 137.388 C 298.647 137.569 298.71 137.524 298.461 137.616 C 298.548 138.272 298.538 139.271 297.724 139.605 C 296.908 139.941 296.269 139.577 295.872 138.321 C 295.429 138.423 295.546 138.279 295.546 138.279 C 295.376 137.622 295.378 137.622 295.378 137.622 C 295.378 137.622 295.948 137.439 295.948 137.439 C 295.736 136.554 296.723 136.182 297.011 136.133"></path>
		<path fill="#FFFFFF" stroke="#4464C7" stroke-width="0.2788" stroke-linejoin="bevel" stroke-miterlimit="10" d="M 296.388 137.101 C 296.763 136.666 297.53 136.844 297.744 137.122 C 297.951 137.399 298.253 138.39 297.967 138.794 C 297.69 139.194 297.026 139.378 296.742 139.036 C 296.456 138.697 295.966 137.601 296.388 137.101"></path>
		<path fill="#E0B577" stroke="#A87C3B" stroke-width="0.2788" stroke-linejoin="bevel" stroke-miterlimit="10" d="M 296.812 137.998 C 296.85 137.759 297.293 137.579 297.496 137.729 C 297.7 137.879 297.721 138.166 297.626 138.292 C 297.537 138.418 297.286 138.86 297.086 138.67 C 296.879 138.483 296.759 138.301 296.812 137.998"></path>
		<path fill="#FFFFFF" stroke="#4464C7" stroke-width="0.2788" stroke-linejoin="bevel" stroke-miterlimit="10" d="M 299.676 137.628 C 299.216 137.093 299.012 136.545 299.103 136.18 C 299.192 135.813 299.673 135.359 300.244 135.675 C 300.811 135.988 301.077 136.348 301.071 136.64 C 301.071 136.934 300.95 137.543 300.651 137.679 C 300.352 137.809 299.93 137.914 299.676 137.628"></path>
		<path fill="#E0B577" stroke="#A87C3B" stroke-width="0.2788" stroke-linejoin="bevel" stroke-miterlimit="10" d="M 299.68 136.637 C 299.763 136.466 300.316 136.442 300.398 136.53 C 300.481 136.613 300.538 136.907 300.464 136.941 C 300.393 136.972 300.042 137.382 299.831 137.182 C 299.62 136.981 299.552 136.89 299.68 136.637"></path>
		<path fill="#C79C52" stroke="#806434" stroke-width="0.2788" stroke-linejoin="bevel" stroke-miterlimit="10" d="M 318.469 114.807 C 316.653 114.724 313.921 114.93 312.418 115.11 C 311.467 115.228 310.149 115.645 308.9 116.171 C 309.421 116.435 310.561 117.448 311.252 118.947 C 312.491 118.076 316.24 117.339 317.581 117.427 C 318.04 116.82 318.473 115.505 318.469 114.807"></path>
		<path fill="#C79C52" stroke="#806434" stroke-width="0.2788" stroke-linejoin="bevel" stroke-miterlimit="10" d="M 321.548 119.95 C 320.699 118.809 319.174 118.125 317.583 117.424 C 318.04 116.82 318.475 115.506 318.47 114.805 C 318.871 114.823 319.229 114.854 319.509 114.902 C 321.073 115.167 324.557 115.89 326.032 116.551 C 327.266 117.099 328.536 117.959 329.295 118.428 C 327.271 118.504 324.384 118.811 323.297 119.132 C 322.218 119.448 321.548 119.95 321.548 119.95"></path>
		<path fill="#C79C52" stroke="#806434" stroke-width="0.2788" stroke-linejoin="bevel" stroke-miterlimit="10" d="M 329.291 118.429 C 327.269 118.505 324.382 118.813 323.294 119.133 C 322.215 119.449 321.546 119.95 321.546 119.95 C 321.193 120.377 320.437 123.503 320.437 123.503 C 320.805 124.485 321.52 124.591 322.194 125.157 C 322.865 125.73 323.748 126.785 324.427 127.95 C 326.008 127.727 328.421 127.5 329.709 126.188 C 331.182 124.686 330.747 123.944 331.081 122.534 C 331.37 121.31 331.681 120.088 332.941 119.796 C 332.941 119.796 332.944 119.797 332.944 119.797 C 331.817 119.615 330.305 118.996 329.669 118.648 C 329.568 118.596 329.439 118.516 329.291 118.429"></path>
		<path fill="#C79C52" stroke="#806434" stroke-width="0.2788" stroke-linejoin="bevel" stroke-miterlimit="10" d="M 313.884 124.146 C 312.346 126.417 313.1 131.14 313.749 132.411 C 313.911 132.301 314.084 132.177 314.268 132.041 C 316.148 130.656 316.619 130.477 317.618 129.67 C 318.625 128.865 319.486 128.826 320.203 128.61 C 320.926 128.394 322.32 128.319 323.813 128.049 C 323.995 128.013 324.206 127.982 324.427 127.951 C 323.747 126.785 322.865 125.73 322.196 125.156 C 321.522 124.591 320.807 124.485 320.439 123.502 C 319.567 123.093 316.536 122.647 313.884 124.146"></path>
		<path fill="#C79C52" stroke="#806434" stroke-width="0.2788" stroke-linejoin="bevel" stroke-miterlimit="10" d="M 317.582 117.425 C 316.239 117.336 312.491 118.072 311.253 118.944 C 310.824 119.247 310.321 120.193 310.301 120.879 C 310.857 121.207 312.182 122.054 312.654 122.51 C 313.132 122.964 313.731 123.946 313.885 124.147 C 316.537 122.648 319.567 123.093 320.44 123.502 C 320.44 123.502 321.196 120.375 321.549 119.949 C 320.699 118.808 319.174 118.125 317.582 117.425"></path>
		<path fill="#C79C52" stroke="#806434" stroke-width="0.2788" stroke-linejoin="bevel" stroke-miterlimit="10" d="M 310.303 120.879 C 308.487 121.681 306.02 124.434 305.36 125.355 C 304.697 126.28 304.444 129.883 304.639 131.009 C 305.142 131.288 305.664 131.589 306.174 131.927 C 308.394 133.381 309.866 133.644 310.848 133.576 C 311.727 133.516 312.278 133.44 313.749 132.413 C 313.101 131.142 312.346 126.418 313.884 124.148 C 313.731 123.947 313.131 122.966 312.655 122.512 C 312.182 122.055 310.857 121.206 310.303 120.879"></path>
		<path fill="#C79C52" stroke="#806434" stroke-width="0.2788" stroke-linejoin="bevel" stroke-miterlimit="10" d="M 310.303 120.879 C 308.487 121.681 306.02 124.434 305.36 125.355 C 304.167 124.014 301.827 122.9 301.082 123.052 C 301.187 122.836 301.305 122.62 301.438 122.398 C 302.358 120.887 304.401 118.742 305.92 117.716 C 306.651 117.223 307.745 116.649 308.899 116.17 C 309.42 116.434 310.56 117.446 311.251 118.945 C 310.824 119.246 310.32 120.195 310.303 120.879"></path>
		<path fill="#C79C52" stroke="#806434" stroke-width="0.2788" stroke-linejoin="bevel" stroke-miterlimit="10" d="M 304.639 131.009 C 302.939 130.077 301.373 129.504 300.652 129.511 C 300.102 129.514 299.65 129.702 299.299 130.101 C 299.794 129.25 299.493 128.993 299.913 127.155 C 300.271 125.581 300.46 124.326 301.082 123.05 C 301.828 122.899 304.164 124.013 305.36 125.354 C 304.697 126.28 304.444 129.883 304.639 131.009"></path>
		<path fill="#FFC163" stroke="#B38645" stroke-width="0.2788" stroke-linejoin="bevel" stroke-miterlimit="10" d="M 298.713 131.23 C 299.074 130.048 299.72 129.517 300.651 129.51 C 301.585 129.496 303.951 130.471 306.173 131.924 C 308.393 133.379 309.864 133.641 310.847 133.574 C 311.823 133.506 312.39 133.423 314.268 132.039 C 316.147 130.653 316.618 130.474 317.618 129.667 C 318.626 128.862 319.485 128.823 320.202 128.608 C 320.924 128.393 322.319 128.317 323.812 128.048 C 325.311 127.769 328.241 127.685 329.715 126.186 C 331.188 124.683 330.752 123.942 331.085 122.532 C 331.419 121.125 331.771 119.72 333.579 119.731 C 335.392 119.743 334.924 120.846 334.813 120.982 C 334.693 121.117 334.166 120.909 333.726 121.052 C 333.286 121.194 333.211 122.771 333.001 123.292 C 332.789 123.815 332.497 126.043 331.278 127.284 C 330.074 128.531 329.177 128.801 327.438 129.116 C 325.696 129.436 323.866 129.954 322.319 129.953 C 320.768 129.948 319.618 130.795 319.039 131.05 C 318.457 131.305 317.01 132.296 316.546 132.715 C 316.078 133.13 315.465 133.714 315.07 133.921 C 314.677 134.128 313.361 135.026 312.558 135.109 C 311.759 135.185 311.071 135.456 309.938 135.12 C 308.798 134.784 307.766 134.572 306.693 134.071 C 305.626 133.569 304.895 132.571 303.976 132.221 C 303.058 131.87 302.404 131.656 301.897 131.656 C 301.39 131.654 301.089 131.462 300.72 131.829 C 300.356 132.195 300.127 132.663 299.554 132.536 C 298.976 132.42 298.575 131.668 298.713 131.23"></path>
		
			<path fill="#7BD968" stroke="#598C4E" stroke-width="0.2788" stroke-linecap="round" stroke-linejoin="bevel" stroke-miterlimit="10" d="M 298.576 141.013 C 298.714 141.116 299.286 141.497 299.816 141.276 C 300.341 141.054 300.878 140.716 300.844 140.293"></path>
	</g>
</g>
<g>
	<g>
		<path fill="#FFE563" stroke="#E8D46D" stroke-width="0.1233" stroke-linejoin="bevel" stroke-miterlimit="10" d="M 317.089 111.616 C 316.985 111.846 316.787 112.814 316.242 113.367 C 315.705 113.922 315.331 114.051 314.606 114.209 C 313.883 114.367 313.109 114.609 312.467 114.622 C 311.825 114.632 311.303 115.006 311.048 115.118 C 310.794 115.232 310.134 115.667 309.917 115.85 C 309.696 116.032 309.405 116.286 309.226 116.377 C 309.048 116.468 308.435 116.861 308.086 116.9 C 307.738 116.935 307.426 117.055 306.952 116.913 C 306.475 116.771 306.035 116.681 305.591 116.468 C 305.149 116.253 304.877 115.821 304.485 115.67 C 304.094 115.519 303.811 115.427 303.582 115.427 C 303.354 115.426 303.228 115.343 303.043 115.503 C 303.234 115.759 304.228 116.697 304.772 116.868 C 305.319 117.037 305.755 117.206 306.444 117.251 C 307.135 117.296 308.51 117.088 309.813 116.552 C 311.118 116.013 312.315 115.656 313.344 115.22 C 314.372 114.787 315.625 114.331 316.152 113.956 C 316.682 113.582 316.884 113.244 316.998 112.965 C 317.114 112.685 317.208 112.242 317.089 111.616"></path>
		<path fill="#7BD968" stroke="#598C4E" stroke-width="0.1233" stroke-linejoin="bevel" stroke-miterlimit="10" d="M 300.828 118.925 C 300.874 119.117 300.989 119.722 301.375 119.94 C 302.012 120.302 302.638 119.853 302.816 119.783 C 302.995 119.71 303.889 119.425 304.216 118.238 C 304.545 117.053 304.943 116.519 305.181 116.187 C 304.947 115.986 304.742 115.767 304.487 115.67 C 304.094 115.518 303.813 115.426 303.584 115.427 C 303.356 115.426 303.23 115.343 303.044 115.502 C 303.03 115.516 303.017 115.529 303.002 115.541 C 302.899 115.979 302.57 116.518 302.255 116.691 C 301.941 116.865 301.452 117.105 301.31 117.16 C 301.204 117.203 301.146 117.342 301.113 117.378 C 300.887 117.693 300.709 118.425 300.828 118.925"></path>
		<path fill="#7BD968" stroke="#598C4E" stroke-width="0.1233" stroke-linejoin="bevel" stroke-miterlimit="10" d="M 308.836 116.597 C 308.588 116.731 308.293 116.876 308.089 116.899 C 307.741 116.935 307.429 117.054 306.955 116.913 C 306.837 116.876 306.723 116.844 306.608 116.813 C 306.409 117.232 306.216 118.154 306.214 118.492 C 306.212 118.829 306.244 119.413 306.659 119.867 C 307.074 120.32 307.074 120.522 307.231 120.727 C 307.386 120.933 307.455 121.129 307.75 121.021 C 308.044 120.913 308.139 120.614 308.26 120.265 C 308.38 119.916 308.675 119.455 308.869 118.901 C 309.027 118.451 309.112 118.082 309.118 117.762 C 309.123 117.443 308.843 116.619 308.843 116.619 C 308.843 116.619 308.836 116.597 308.836 116.597"></path>
		<path fill="#7BD968" stroke="#598C4E" stroke-width="0.1233" stroke-linejoin="bevel" stroke-miterlimit="10" d="M 317.12 111.534 C 317.211 111.253 317.297 110.694 317.456 110.634 C 317.638 110.565 317.844 110.646 317.892 110.585 C 318.267 110.584 318.716 110.688 318.787 110.968 C 318.855 111.251 318.745 111.282 318.641 111.409 C 318.539 111.539 318.281 111.583 318.079 111.572 C 317.876 111.561 317.332 111.598 317.12 111.534"></path>
		<path fill="#7BD968" stroke="#598C4E" stroke-width="0.1233" stroke-linejoin="bevel" stroke-miterlimit="10" d="M 315.829 113.738 C 315.476 113.996 315.134 114.094 314.608 114.208 C 314.167 114.306 313.702 114.434 313.264 114.521 C 313.359 115.101 313.571 116.116 314.7 116.571 C 315.292 116.819 315.59 116.753 315.936 116.805 C 316.281 116.858 316.783 117.292 317.349 117.234 C 317.632 117.206 317.736 117.146 317.855 116.922 C 317.973 116.696 318.003 116.637 317.969 116.447 C 317.936 116.258 317.814 115.579 317.567 115.259 C 317.322 114.936 316.922 114.497 316.705 114.319 C 316.485 114.141 315.838 113.761 315.838 113.761 C 315.838 113.761 315.829 113.738 315.829 113.738"></path>
		<path fill="#94AEFF" stroke="#4464C7" stroke-width="0.1233" stroke-linejoin="bevel" stroke-miterlimit="10" d="M 301.114 117.378 C 301.322 117.344 301.511 117.652 301.511 117.652 C 301.663 117.535 301.758 117.534 301.827 117.539 C 301.818 117.291 301.958 116.943 302.231 116.836 C 302.506 116.729 302.747 116.611 303.013 117.124 C 303.37 116.973 303.65 116.602 303.79 116.569 C 303.93 116.536 304.065 116.591 304.092 116.635 C 304.118 116.682 304.241 116.851 304.258 116.915 C 304.277 116.981 304.281 117.104 304.217 117.148 C 304.155 117.194 304.057 117.157 304.018 117.102 C 303.979 117.044 303.957 116.934 303.899 116.923 C 303.845 116.91 303.776 116.958 303.733 116.995 C 303.693 117.033 303.158 117.416 303.094 117.471 C 303.127 117.701 303.042 118.14 302.662 118.29 C 302.283 118.442 302.175 118.311 302.098 118.171 C 302.021 118.03 301.954 117.92 301.954 117.92 C 301.777 118 301.808 117.98 301.69 118.021 C 301.688 118.306 301.619 118.741 301.222 118.891 C 300.825 119.041 300.555 118.885 300.452 118.34 C 300.241 118.385 300.305 118.322 300.305 118.322 C 300.268 118.036 300.269 118.036 300.269 118.036 C 300.269 118.036 300.544 117.953 300.544 117.953 C 300.502 117.567 300.98 117.402 301.114 117.378"></path>
		<path fill="#FFFFFF" stroke="#4464C7" stroke-width="0.1233" stroke-linejoin="bevel" stroke-miterlimit="10" d="M 300.768 117.803 C 300.969 117.612 301.31 117.688 301.392 117.808 C 301.469 117.928 301.545 118.358 301.387 118.535 C 301.234 118.71 300.916 118.794 300.807 118.646 C 300.698 118.499 300.542 118.023 300.768 117.803"></path>
		<path fill="#E0B577" stroke="#A87C3B" stroke-width="0.1233" stroke-linejoin="bevel" stroke-miterlimit="10" d="M 300.908 118.192 C 300.94 118.089 301.155 118.009 301.239 118.072 C 301.323 118.137 301.314 118.262 301.263 118.318 C 301.214 118.373 301.07 118.567 300.99 118.485 C 300.907 118.404 300.863 118.326 300.908 118.192"></path>
		<path fill="#FFFFFF" stroke="#4464C7" stroke-width="0.1233" stroke-linejoin="bevel" stroke-miterlimit="10" d="M 302.242 118.022 C 302.067 117.792 302.007 117.553 302.07 117.394 C 302.132 117.234 302.379 117.037 302.619 117.171 C 302.857 117.306 302.955 117.461 302.935 117.588 C 302.917 117.716 302.825 117.981 302.681 118.039 C 302.538 118.098 302.339 118.145 302.242 118.022"></path>
		<path fill="#E0B577" stroke="#A87C3B" stroke-width="0.1233" stroke-linejoin="bevel" stroke-miterlimit="10" d="M 302.305 117.591 C 302.353 117.517 302.605 117.504 302.638 117.543 C 302.67 117.578 302.678 117.706 302.642 117.721 C 302.608 117.735 302.423 117.913 302.34 117.827 C 302.257 117.74 302.231 117.702 302.305 117.591"></path>
		<path fill="#C79C52" stroke="#806434" stroke-width="0.1233" stroke-linejoin="bevel" stroke-miterlimit="10" d="M 311.366 108.061 C 310.602 108.034 309.435 108.131 308.784 108.211 C 308.373 108.265 307.794 108.448 307.238 108.678 C 307.459 108.794 307.934 109.237 308.194 109.891 C 308.752 109.509 310.371 109.178 310.933 109.212 C 311.142 108.944 311.353 108.366 311.366 108.061"></path>
		<path fill="#C79C52" stroke="#806434" stroke-width="0.1233" stroke-linejoin="bevel" stroke-miterlimit="10" d="M 312.527 110.292 C 312.206 109.8 311.589 109.51 310.934 109.211 C 311.142 108.944 311.353 108.367 311.365 108.06 C 311.532 108.067 311.683 108.078 311.799 108.098 C 312.449 108.206 313.877 108.496 314.466 108.771 C 314.958 108.998 315.452 109.359 315.748 109.555 C 314.925 109.613 313.732 109.774 313.274 109.923 C 312.82 110.068 312.527 110.292 312.527 110.292"></path>
		<path fill="#C79C52" stroke="#806434" stroke-width="0.1233" stroke-linejoin="bevel" stroke-miterlimit="10" d="M 315.749 109.554 C 314.927 109.612 313.733 109.774 313.275 109.922 C 312.82 110.068 312.527 110.292 312.527 110.292 C 312.368 110.48 311.952 111.844 311.952 111.844 C 312.072 112.268 312.364 112.31 312.621 112.549 C 312.877 112.792 313.2 113.242 313.431 113.737 C 314.09 113.625 315.084 113.499 315.656 112.916 C 316.313 112.247 316.162 111.932 316.345 111.316 C 316.503 110.781 316.666 110.245 317.181 110.099 C 317.181 110.099 317.184 110.099 317.184 110.099 C 316.737 110.037 316.143 109.789 315.896 109.645 C 315.856 109.623 315.805 109.59 315.749 109.554"></path>
		<path fill="#C79C52" stroke="#806434" stroke-width="0.1233" stroke-linejoin="bevel" stroke-miterlimit="10" d="M 309.163 112.152 C 308.424 113.142 308.534 115.183 308.745 115.729 C 308.82 115.681 308.901 115.627 308.987 115.567 C 309.859 114.963 310.063 114.883 310.522 114.53 C 310.984 114.176 311.344 114.154 311.654 114.057 C 311.965 113.958 312.547 113.916 313.174 113.785 C 313.25 113.768 313.338 113.753 313.431 113.736 C 313.201 113.24 312.879 112.791 312.623 112.548 C 312.363 112.309 312.072 112.268 311.953 111.844 C 311.603 111.67 310.35 111.493 309.163 112.152"></path>
		<path fill="#C79C52" stroke="#806434" stroke-width="0.1233" stroke-linejoin="bevel" stroke-miterlimit="10" d="M 310.934 109.211 C 310.369 109.178 308.75 109.509 308.193 109.891 C 308 110.023 307.755 110.437 307.726 110.736 C 307.957 110.878 308.503 111.247 308.691 111.443 C 308.881 111.639 309.103 112.065 309.163 112.152 C 310.35 111.493 311.603 111.67 311.954 111.843 C 311.954 111.843 312.369 110.479 312.527 110.29 C 312.207 109.8 311.589 109.51 310.934 109.211"></path>
		<path fill="#C79C52" stroke="#806434" stroke-width="0.1233" stroke-linejoin="bevel" stroke-miterlimit="10" d="M 307.728 110.735 C 306.917 111.086 305.738 112.284 305.411 112.686 C 305.082 113.088 304.814 114.654 304.845 115.142 C 305.054 115.262 305.272 115.392 305.479 115.537 C 306.386 116.165 307.007 116.274 307.437 116.242 C 307.82 116.213 308.065 116.179 308.747 115.73 C 308.534 115.185 308.426 113.143 309.164 112.153 C 309.105 112.067 308.883 111.641 308.693 111.445 C 308.504 111.245 307.958 110.878 307.728 110.735"></path>
		<path fill="#C79C52" stroke="#806434" stroke-width="0.1233" stroke-linejoin="bevel" stroke-miterlimit="10" d="M 307.728 110.735 C 306.917 111.086 305.738 112.284 305.411 112.686 C 304.933 112.102 303.923 111.615 303.582 111.68 C 303.637 111.585 303.697 111.492 303.764 111.395 C 304.228 110.736 305.2 109.802 305.895 109.354 C 306.23 109.139 306.724 108.889 307.239 108.678 C 307.46 108.793 307.934 109.237 308.194 109.89 C 308 110.022 307.756 110.436 307.728 110.735"></path>
		<path fill="#C79C52" stroke="#806434" stroke-width="0.1233" stroke-linejoin="bevel" stroke-miterlimit="10" d="M 304.845 115.141 C 304.135 114.738 303.455 114.489 303.128 114.492 C 302.88 114.493 302.665 114.575 302.487 114.75 C 302.752 114.379 302.63 114.267 302.898 113.467 C 303.126 112.782 303.258 112.235 303.582 111.678 C 303.923 111.613 304.933 112.1 305.411 112.684 C 305.082 113.087 304.813 114.652 304.845 115.141"></path>
		<path fill="#FFC163" stroke="#B38645" stroke-width="0.1233" stroke-linejoin="bevel" stroke-miterlimit="10" d="M 302.165 115.242 C 302.388 114.726 302.706 114.496 303.128 114.493 C 303.551 114.486 304.571 114.91 305.479 115.537 C 306.386 116.164 307.007 116.274 307.437 116.241 C 307.863 116.209 308.116 116.171 308.988 115.568 C 309.86 114.962 310.064 114.882 310.523 114.529 C 310.985 114.176 311.345 114.155 311.654 114.056 C 311.965 113.958 312.549 113.915 313.175 113.786 C 313.804 113.652 315.004 113.582 315.66 112.916 C 316.316 112.246 316.166 111.932 316.347 111.316 C 316.531 110.701 316.716 110.086 317.441 110.061 C 318.167 110.036 317.945 110.523 317.894 110.584 C 317.844 110.644 317.639 110.564 317.457 110.634 C 317.276 110.702 317.195 111.387 317.091 111.616 C 316.986 111.846 316.787 112.815 316.243 113.368 C 315.706 113.923 315.332 114.052 314.607 114.21 C 313.883 114.368 313.111 114.61 312.468 114.622 C 311.826 114.633 311.304 115.006 311.05 115.12 C 310.795 115.233 310.135 115.669 309.917 115.851 C 309.698 116.032 309.406 116.287 309.226 116.378 C 309.048 116.469 308.435 116.861 308.086 116.9 C 307.738 116.936 307.426 117.055 306.952 116.914 C 306.476 116.773 306.035 116.682 305.59 116.469 C 305.148 116.253 304.876 115.822 304.484 115.671 C 304.093 115.52 303.81 115.427 303.582 115.429 C 303.354 115.428 303.228 115.345 303.043 115.504 C 302.858 115.663 302.731 115.867 302.476 115.813 C 302.225 115.759 302.08 115.432 302.165 115.242"></path>
		
			<path fill="#7BD968" stroke="#598C4E" stroke-width="0.1233" stroke-linecap="round" stroke-linejoin="bevel" stroke-miterlimit="10" d="M 301.515 119.499 C 301.57 119.543 301.805 119.706 302.063 119.607 C 302.317 119.508 302.584 119.358 302.597 119.175"></path>
	</g>
</g>
<polygon fill="#7BD968" points="400.823,211.973 400.821,211.973 400.83,211.979 "></polygon>
<path fill="none" d="M 303.596 96.8273 C 341.042 83.9609 634.789 439.574 627.615 572.944 C 620.441 706.315 637.284 755.882 355.049 741.888 C 72.8135 727.894 53.5669 694.753 68.8369 536.109 C 84.1069 377.465 250.843 114.953 303.596 96.8273"></path>
</svg>
