<!--?xml version="1.0" encoding="utf-8"?-->
<!-- Generator: Adobe Illustrator 17.0.2, SVG Export Plug-In . SVG Version: 6.00 Build 0)  -->

<svg version="1.1" id="Layer_1" xmlns="http://www.w3.org/2000/svg" xmlns:xlink="http://www.w3.org/1999/xlink" x="0px" y="0px" width="792px" height="612px" viewBox="0 0 792 612" enable-background="new 0 0 792 612" xml:space="preserve">
<path fill="#D6D7EC" stroke="#010101" stroke-width="4.6788" stroke-linecap="round" d="M 176.602 260.372 C 169.448 255.845 154.257 258.366 157.216 267.964 C 166.885 299.344 185.185 336.166 250.3 328.148 C 283.016 356.436 397.041 256.288 411.776 336.812 C 420.022 385.395 460.86 439.082 514.629 435.516 C 528.801 430.004 536.023 412.697 539.882 399.962 C 541.606 393.26 549.449 363.283 563.786 382.86 C 576.074 397.865 546.187 440.646 529.297 450.814 C 515.829 456.42 487.956 453.03 475.38 446.421 C 435.093 417.683 411.143 352.689 385.417 327.695 C 359.144 294.038 288.859 357.758 254.688 361.918 C 232.111 364.465 205.528 356.293 182.641 351.807 C 131.483 341.775 186.392 300.813 132.962 318.308 C 121.338 325.501 134.494 354.589 144.735 359.321 C 152.176 403.478 157.396 434.797 199.349 447.067 C 347.697 523.017 531.782 541.907 657.198 460.956 C 714.102 400.18 691.866 309.413 614.972 300.624 C 580.77 293.977 545.616 300.537 516.872 297.629 C 483.741 260.235 445.76 178.459 411.215 99.4488 C 396.731 89.1914 381.068 79.6885 365.545 71.8012 C 335.373 62.249 303.483 60.8722 276.113 77.4789 C 242.737 98.4878 221.727 137.272 203.963 171.244 C 189.697 198.528 184.753 228.293 176.602 260.372"></path>
<path fill="#FFFFFF" stroke="#010101" stroke-width="4.6788" stroke-linecap="round" d="M 308.526 202.51 C 294.292 209.671 277.086 211.353 261.594 206.745 C 196.462 175.639 270.745 77.8005 313.71 129.822 C 319.028 136.367 328.409 150.759 327.541 158.994 C 326.34 170.267 317.434 197.189 308.526 202.51"></path>
<path fill="#FFFFFF" stroke="#010101" stroke-width="4.6788" stroke-linecap="round" d="M 308.526 202.51 C 317.932 235.616 354.249 239.544 377.013 237.035 C 407.223 238.245 406.182 174.776 372.075 149.572 C 356.646 141.731 341.882 139.66 327.967 150.592 C 313.333 162.521 302.84 183.203 308.526 202.51"></path>
<path fill="#50BFA2" stroke="#010101" stroke-width="4.6788" stroke-linecap="round" d="M 331.521 189.999 C 366.518 234.882 382.193 152.281 335.755 165.264 C 329.365 171.725 322.983 181.874 331.521 189.999"></path>
<path fill="#50BFA2" stroke="#010101" stroke-width="4.6788" stroke-linecap="round" d="M 253.719 170.952 C 264.102 183.882 289.463 176.959 286.982 160.915 C 283.627 139.222 240.417 146.463 253.719 170.952"></path>
<path fill="#7E9ACF" stroke="#010101" stroke-width="4.6788" stroke-linecap="round" d="M 176.602 260.372 C 170.025 286.257 228.596 312.471 253.925 306.902 C 313.744 294.71 412.253 251.145 425.36 336.74 C 438.62 419.073 503.906 430.832 519.506 409.024 C 530.28 385.483 523.387 364.741 546.06 356.778 C 585.666 332.102 585.241 425.951 565.124 449.693 C 522.69 479.396 484.556 471.477 432.488 425.898 C 406.973 394.781 402.658 378.61 382.806 359.758 C 355.5 337.397 286.376 377.579 251.516 378.012 C 227.299 378.075 166.566 369.406 144.738 359.322 C 134.496 354.592 121.339 325.503 132.964 318.309 C 186.394 300.813 131.485 341.776 182.643 351.807 C 205.53 356.293 232.113 364.465 254.69 361.918 C 288.861 357.758 359.145 294.039 385.418 327.696 C 411.145 352.69 435.092 417.682 475.382 446.422 C 487.961 453.031 515.83 456.42 529.298 450.814 C 546.186 440.646 576.076 397.863 563.787 382.859 C 549.452 363.282 541.607 393.26 539.883 399.961 C 536.026 412.697 528.803 430.003 514.631 435.515 C 460.862 439.082 420.024 385.396 411.778 336.813 C 397.043 256.29 283.018 356.436 250.302 328.149 C 185.187 336.166 166.887 299.344 157.218 267.964 C 154.257 258.366 169.448 255.845 176.602 260.372"></path>
</svg>
