<?xml version="1.0" encoding="utf-8"?>
<!-- Generator: Adobe Illustrator 15.0.2, SVG Export Plug-In . SVG Version: 6.00 Build 0)  -->
<!DOCTYPE svg PUBLIC "-//W3C//DTD SVG 1.1//EN" "http://www.w3.org/Graphics/SVG/1.1/DTD/svg11.dtd">
<svg version="1.1" id="Layer_1" xmlns="http://www.w3.org/2000/svg" xmlns:xlink="http://www.w3.org/1999/xlink" x="0px" y="0px"
	 width="800px" height="400px" viewBox="0 0 800 400" enable-background="new 0 0 800 400" xml:space="preserve">
<g>
	<path d="M152.902,191.916h-0.277c-0.414-0.414-0.737-0.805-0.967-1.174c-0.23-0.368-0.46-0.737-0.691-1.106l-0.139-0.276
		c0,0.094-0.092-0.022-0.275-0.345c-0.186-0.322-0.369-0.598-0.553-0.83c0.091-1.105,0.138-2.256,0.138-3.455
		c0-1.198,0-2.349,0-3.456c0-1.565,0.023-3.109,0.069-4.63c0.045-1.521,0.161-2.971,0.346-4.354
		c6.818,0.093,12.531,0.174,17.139,0.242c4.606,0.07,8.464,0.127,11.575,0.174c3.109,0.046,5.655,0.08,7.636,0.103
		c1.981,0.024,3.801,0.035,5.459,0.035h2.281c0.091,0,0.161-0.01,0.207-0.035c0.046-0.023,0.115-0.035,0.207-0.035
		c0.46,0,1.037,0.266,1.728,0.795c0.692,0.53,1.29,1.209,1.797,2.039l2.144,2.142c0.505,0.508,0.954,1.118,1.347,1.832
		c0.391,0.714,0.588,1.463,0.588,2.246c0,0.46-0.012,0.898-0.035,1.313c-0.023,0.414-0.058,0.829-0.104,1.244v0.414
		c-0.046,0.369-0.081,0.703-0.103,1.002c-0.025,0.3-0.035,0.587-0.035,0.863v3.456c0,0.922-0.012,1.822-0.035,2.696
		c-0.023,0.875-0.127,1.842-0.311,2.902h-1.521c-1.475-0.045-2.949-0.08-4.423-0.104c-1.474-0.021-2.995-0.035-4.561-0.035
		l-3.248-3.247h-0.275l-0.483-0.692c-0.186-0.23-0.346-0.459-0.484-0.691c-0.139-0.23-0.301-0.46-0.483-0.691
		c-0.046,1.06-0.07,2.154-0.07,3.283s0,2.246,0,3.351v1.174l0.691,0.899l2.211,2.211c0.598,0.554,1.082,1.199,1.451,1.935
		c0.369,0.738,0.553,1.451,0.553,2.144c0,0.875-0.312,1.692-0.933,2.455c-0.623,0.76-1.602,1.141-2.937,1.141
		c-0.462,0-0.807-0.023-1.037-0.07c-0.185,0.23-0.276,0.531-0.276,0.898c0.875,0.553,1.612,1.312,2.211,2.281l2.211,2.211
		c0.46,0.461,0.864,0.992,1.209,1.59c0.346,0.6,0.623,1.174,0.83,1.729c0.207,0.553,0.356,1.049,0.449,1.486
		c0.093,0.438,0.139,0.75,0.139,0.934c0,1.197-0.208,2.232-0.623,3.109c-0.414,0.875-0.967,1.623-1.658,2.244
		c-0.69,0.621-1.485,1.082-2.385,1.381c-0.898,0.301-1.831,0.451-2.798,0.451c-1.153,0-2.385-0.219-3.697-0.656
		c-1.313-0.438-2.432-1.119-3.353-2.039l-0.967-0.968l-0.484,0.622c-0.691,0.783-1.416,1.451-2.177,2.006
		c-0.76,0.553-1.924,0.828-3.49,0.828c-2.488,0-4.539-0.805-6.152-2.418l-2.072-2.074c-1.43-0.828-2.523-2.016-3.283-3.559
		c-0.76-1.543-1.14-3.328-1.14-5.355c0-0.922,0.264-1.715,0.793-2.385c0.53-0.668,1.302-1.094,2.316-1.279
		c0.276,0,0.495,0.014,0.656,0.035c0.162,0.023,0.312,0.059,0.451,0.104c0.137,0.047,0.298,0.067,0.483,0.067
		c0.322,0,0.586-0.172,0.794-0.519c0.208-0.344,0.381-0.735,0.518-1.174c0.139-0.438,0.242-0.887,0.312-1.348
		c0.07-0.461,0.104-0.809,0.104-1.037v-0.275l-2.557-2.559c-0.6-0.32-1.072-0.76-1.417-1.312c-0.346-0.553-0.519-1.149-0.519-1.795
		v-0.484c0.091-0.969,0.507-1.694,1.244-2.178c0.736-0.483,1.589-0.726,2.558-0.726c0.229,0,0.471,0.012,0.726,0.035
		c0.252,0.024,0.494,0.058,0.726,0.104c0.045-0.23,0.091-0.472,0.137-0.726c0.045-0.253,0.07-0.542,0.07-0.864h-3.248
		c-0.6,0.046-1.209,0.069-1.832,0.069c-0.622,0-1.232,0-1.831,0c-0.646,0-1.234,0-1.763,0c-0.53,0-1.048-0.023-1.555-0.069
		L152.902,191.916z M198.169,191.777c0.138-0.875,0.217-1.728,0.242-2.558c0.023-0.83,0.035-1.682,0.035-2.558v-3.455
		c0-0.782,0.045-1.589,0.138-2.418c0.093-0.83,0.139-1.635,0.139-2.418c0-0.645-0.139-1.267-0.416-1.867
		c-0.277-0.598-0.6-1.117-0.968-1.556c-0.369-0.438-0.771-0.793-1.209-1.07c-0.439-0.277-0.795-0.416-1.072-0.416
		c-0.23,0-0.495,0.013-0.793,0.035c-0.301,0.024-0.565,0.035-0.795,0.035h-1.106c-6.957,0-13.523-0.091-19.695-0.277
		c-6.175-0.182-12.211-0.276-18.108-0.276h-3.386c-0.231,2.029-0.334,4.378-0.311,7.05c0.023,2.673-0.035,5.322-0.172,7.947
		c0.368,0.553,0.714,1.118,1.037,1.693c0.322,0.577,0.714,1.095,1.175,1.556c0.967,0.046,2.039,0.069,3.213,0.069
		c1.174,0,2.36,0,3.56,0h2.833c0.139-0.598,0.219-1.255,0.242-1.97c0.023-0.714,0.035-1.439,0.035-2.178
		c0-0.736,0.012-1.427,0.035-2.072c0.023-0.645,0.104-1.198,0.242-1.66c0.276-0.045,0.553-0.08,0.83-0.103s0.575-0.035,0.898-0.035
		c0.369,0,0.737,0.012,1.106,0.035c0.368,0.023,0.736,0.058,1.105,0.103c0.093,1.706,0.139,3.273,0.139,4.699
		c0,1.429,0,2.903,0,4.424c0,1.06-0.035,2.038-0.104,2.937c-0.069,0.898-0.219,1.624-0.449,2.177
		c-0.691-0.23-1.313-0.346-1.865-0.346c-0.785,0-1.476,0.186-2.074,0.553c-0.6,0.369-0.946,0.946-1.037,1.728v0.416
		c0,0.829,0.333,1.543,1.002,2.142c0.667,0.601,1.485,0.897,2.453,0.897h0.414c0.23,0.324,0.391,0.75,0.485,1.279
		c0.091,0.529,0.138,1.07,0.138,1.625c0,0.277-0.046,0.68-0.138,1.209c-0.094,0.529-0.231,1.061-0.416,1.588
		c-0.184,0.531-0.438,0.992-0.76,1.383c-0.323,0.394-0.691,0.588-1.105,0.588c-0.231,0-0.474-0.035-0.726-0.104
		c-0.255-0.068-0.518-0.104-0.795-0.104c-0.785,0.14-1.395,0.474-1.832,1.002c-0.438,0.529-0.656,1.188-0.656,1.97
		c0,2.767,0.76,5.035,2.281,6.81c1.521,1.773,3.593,2.66,6.22,2.66c0.875,0,1.612-0.105,2.211-0.312
		c0.598-0.207,1.128-0.495,1.589-0.864c0.461-0.367,0.875-0.771,1.244-1.209c0.37-0.438,0.807-0.91,1.313-1.416
		c0.322,0.646,0.784,1.209,1.382,1.692c0.6,0.484,1.267,0.896,2.004,1.244c0.737,0.344,1.486,0.607,2.247,0.795
		c0.76,0.183,1.486,0.273,2.178,0.273c0.875,0,1.738-0.148,2.591-0.447c0.852-0.301,1.6-0.727,2.246-1.279
		c0.645-0.553,1.163-1.243,1.555-2.071c0.391-0.83,0.587-1.797,0.587-2.903c0-0.275-0.093-0.781-0.275-1.521
		c-0.186-0.736-0.497-1.496-0.934-2.281c-0.438-0.782-1.014-1.474-1.728-2.073c-0.714-0.599-1.602-0.898-2.66-0.898
		c-0.093,0-0.197,0.014-0.312,0.035c-0.116,0.022-0.219,0.033-0.31,0.033c-0.276-0.275-0.485-0.69-0.623-1.244
		c-0.138-0.551-0.207-1.104-0.207-1.658c0-0.413,0.035-0.816,0.103-1.209c0.07-0.391,0.219-0.701,0.451-0.932
		c0.414,0.137,0.828,0.207,1.244,0.207c1.15,0,2.004-0.322,2.556-0.968c0.553-0.646,0.83-1.358,0.83-2.146
		c0-0.92-0.3-1.841-0.898-2.762c-0.6-0.922-1.338-1.567-2.213-1.936c-0.322-0.183-0.633-0.287-0.933-0.31s-0.586-0.149-0.863-0.381
		v-2.972c0-1.704,0.022-3.386,0.068-5.045c0.046-1.658,0.139-3.248,0.276-4.767c0.23-0.046,0.46-0.07,0.692-0.07
		c0.229,0,0.459,0,0.691,0c0.598,0,1.047,0.058,1.347,0.172c0.3,0.116,0.45,0.519,0.45,1.209c0,0.462-0.035,1.072-0.104,1.832
		c-0.07,0.76-0.104,1.278-0.104,1.555c0.598,0.737,1.06,1.325,1.383,1.762c0.322,0.438,0.691,0.956,1.105,1.554
		c1.751,0,3.397,0.013,4.941,0.035C194.839,191.698,196.463,191.731,198.169,191.777z"/>
	<path d="M205.769,172.427c1.197,0,2.42,0,3.664,0c1.244,0,2.533,0.023,3.87,0.068c1.335,0.046,2.788,0.081,4.354,0.104
		c1.565,0.023,2.994,0.035,4.284,0.035h3.318c0.277,0,0.588,0,0.933,0c0.346,0,0.633,0.023,0.865,0.069
		c0.091,0,0.217,0.012,0.379,0.034c0.161,0.024,0.287,0.035,0.381,0.035h0.828c0.184,0,0.381,0,0.588,0s0.563-0.045,1.072-0.138
		l0.621,0.967l2.695,2.695c0.139,0.276,0.3,0.53,0.483,0.76c0.184,0.231,0.391,0.46,0.623,0.69c0-0.23-0.012-0.414-0.035-0.553
		c-0.023-0.137-0.035-0.252-0.035-0.344v-1.867c0-0.277,0-0.541,0-0.794s0.045-0.588,0.139-1.002
		c0.782-0.184,1.658-0.277,2.625-0.277h1.728c0.091,0,0.208,0.012,0.346,0.035c0.138,0.023,0.275,0.033,0.414,0.033h5.529
		c0.505,0,1.012,0.013,1.521,0.035c0.505,0.024,1.012,0.035,1.519,0.035h2.904c0.459,0,0.943,0,1.451,0c0.507,0,1.128,0,1.865,0
		c0.737,0,1.613-0.01,2.627-0.035c1.012-0.021,2.256-0.035,3.732-0.035c0.23,0,0.483,0.013,0.76,0.035
		c0.276,0.024,0.528,0.081,0.76,0.174c0.505,0.323,0.967,0.828,1.381,1.519l2.558,2.627c0.23,0.277,0.459,0.577,0.691,0.898
		l0.483,1.037l0.277,0.207c0.184,0.323,0.368,0.623,0.553,0.899c0.182,0.277,0.321,0.552,0.414,0.829
		c0.139,0.553,0.207,1.176,0.207,1.867c0,0.783-0.023,1.29-0.068,1.521c-0.048,0.23-0.094,0.53-0.139,0.898
		c-0.046,0.369-0.081,0.715-0.104,1.037c-0.023,0.323-0.033,0.622-0.033,0.898c0,0.093,0.01,0.186,0.033,0.277
		c0.023,0.092,0.082,0.3,0.174,0.623c-0.922,0.369-1.706,0.552-2.35,0.552c-0.23,0-0.472,0-0.726,0
		c-0.254,0-0.495-0.022-0.726-0.068c-0.184,0-0.404-0.012-0.656-0.035c-0.253-0.023-0.473-0.035-0.657-0.035
		c-0.414,0-0.714,0.021-0.898,0.07c-0.046,1.151-0.069,2.257-0.069,3.316c0,1.062,0,2.144,0,3.249c0,0.6-0.012,1.153-0.035,1.66
		c-0.023,0.507-0.034,1.014-0.034,1.519l0.552,0.899l2.211,2.141c0.369,0.369,0.703,0.785,1.002,1.244
		c0.3,0.463,0.495,0.945,0.588,1.451c0.045,0.094,0.069,0.221,0.069,0.381c0,0.162,0,0.312,0,0.449c0,1.061-0.369,1.98-1.106,2.766
		c-0.737,0.783-1.774,1.175-3.109,1.175h-0.416c-0.046,0.187-0.068,0.368-0.068,0.553s0,0.369,0,0.554
		c0.229,0.274,0.438,0.553,0.621,0.828c0.184,0.276,0.368,0.53,0.553,0.76l2.349,2.281c0.23,0.229,0.437,0.493,0.623,0.795
		c0.184,0.299,0.368,0.588,0.553,0.862c0,0.274,0.161,0.646,0.484,1.104c0.184,0.324,0.356,0.646,0.518,0.97
		c0.161,0.321,0.264,0.601,0.31,0.829c0.046,0.185,0.069,0.404,0.069,0.656s0,0.474,0,0.656c0,1.105-0.197,2.131-0.586,3.074
		c-0.392,0.943-0.922,1.764-1.59,2.453c-0.669,0.691-1.451,1.242-2.351,1.66c-0.898,0.414-1.876,0.619-2.937,0.619h-0.345
		c-1.244-0.092-2.327-0.438-3.249-1.035c-0.922-0.598-1.774-1.221-2.557-1.865l-0.691-0.623c-0.785,1.061-1.867,1.914-3.248,2.557
		c-1.383,0.646-2.834,0.967-4.355,0.967c-0.646,0-1.302-0.067-1.969-0.205c-0.668-0.139-1.325-0.368-1.97-0.692
		c-0.691-0.319-1.381-0.828-2.072-1.519l-2.074-2.073c-0.784-0.509-1.521-1.175-2.211-2.005c-0.369,1.611-1.199,2.994-2.488,4.146
		c-1.291,1.148-2.95,1.729-4.976,1.729c-0.186,0-0.381,0-0.588,0s-0.379-0.022-0.519-0.07c-1.105-0.14-2.072-0.483-2.902-1.036
		c-0.83-0.554-1.59-1.177-2.281-1.865l-0.76-0.76c-0.184,0.182-0.323,0.366-0.414,0.551l-0.483,0.623
		c-0.691,0.646-1.602,1.244-2.73,1.799c-1.129,0.551-2.362,0.828-3.697,0.828c-1.106,0-2.074-0.162-2.903-0.486
		c-1.105-0.504-2.003-1.104-2.695-1.795l-2.349-2.35c-1.29-0.92-2.35-2.142-3.179-3.662c-0.83-1.521-1.359-3.11-1.59-4.769
		c-0.046-0.092-0.069-0.242-0.069-0.448c0-0.207,0-0.404,0-0.589c0-1.198,0.288-2.178,0.864-2.938
		c0.575-0.76,1.486-1.141,2.73-1.141h0.553c0.183,0,0.368,0.049,0.552,0.139c0.323,0.185,0.576,0.277,0.76,0.277
		c0.369-0.047,0.691-0.449,0.967-1.209s0.484-1.395,0.623-1.9v-0.483c0-0.045,0.01-0.08,0.035-0.103
		c0.022-0.022,0.035-0.059,0.035-0.104c0-0.09,0-0.22,0-0.379c0-0.162-0.025-0.289-0.07-0.382l-1.59-1.657
		c-0.184-0.095-0.323-0.185-0.414-0.276c-0.508-0.277-0.958-0.806-1.349-1.591c-0.391-0.782-0.586-1.565-0.586-2.349
		c0-0.83,0.252-1.565,0.76-2.211c0.368-0.369,0.886-0.737,1.554-1.106c0.667-0.368,1.393-0.553,2.178-0.553
		c0.138-0.137,0.207-0.321,0.207-0.552v-2.557c0-0.184,0.01-0.381,0.035-0.588c0.021-0.207,0.035-0.472,0.035-0.795l0.137-2.902
		c-0.46-0.138-0.83-0.391-1.106-0.76l-2.625-2.556c-0.461-0.23-0.876-0.577-1.244-1.037c-0.369-0.46-0.715-0.944-1.037-1.451
		l-0.897-1.313c0.044-0.461,0.068-0.956,0.068-1.486s0-1.047,0-1.556c0-0.875,0.023-1.693,0.069-2.453
		c0.046-0.76,0.139-1.438,0.277-2.039l0.69-0.621h1.73V172.427z M204.318,173.119l-0.277,0.207c-0.23,1.014-0.334,2.155-0.31,3.42
		c0.021,1.269-0.013,2.478-0.104,3.629c0.23,0.37,0.472,0.749,0.726,1.14c0.253,0.392,0.529,0.771,0.83,1.14
		c0.298,0.369,0.633,0.669,1.002,0.899c0.368,0.23,0.805,0.345,1.312,0.345c0.323,0,0.646-0.021,0.969-0.068
		c0.322-0.046,0.645-0.069,0.967-0.069c0.505,0,0.829,0.185,0.968,0.553c0.137,0.369,0.207,0.783,0.207,1.244
		c0,0.23-0.012,0.472-0.035,0.726c-0.023,0.253-0.035,0.495-0.035,0.726v0.621c0,0.876-0.035,1.763-0.103,2.662
		c-0.07,0.897-0.104,1.83-0.104,2.798v1.452c0,0.552-0.093,0.991-0.276,1.312c-0.138-0.045-0.345-0.068-0.622-0.068
		c-1.244,0-2.189,0.345-2.834,1.036c-0.646,0.692-0.967,1.406-0.967,2.143c0,1.198,0.207,2.004,0.621,2.418
		c0.416,0.414,0.875,0.75,1.383,1.002c0.507,0.253,0.967,0.576,1.381,0.968c0.416,0.394,0.623,1.142,0.623,2.246
		c0,0.047-0.046,0.299-0.139,0.76c-0.093,0.461-0.23,0.968-0.415,1.521c-0.185,0.554-0.427,1.062-0.725,1.521
		c-0.3,0.459-0.656,0.689-1.072,0.689c-0.23,0-0.449-0.057-0.656-0.172c-0.207-0.113-0.427-0.195-0.656-0.24h-0.553
		c-1.014,0-1.752,0.311-2.211,0.932c-0.462,0.623-0.692,1.441-0.692,2.455c0,1.336,0.23,2.625,0.692,3.869
		c0.459,1.244,1.082,2.326,1.865,3.248c0.783,0.922,1.693,1.66,2.73,2.211c1.037,0.555,2.153,0.83,3.353,0.83
		c1.289,0,2.463-0.252,3.523-0.76s1.912-1.082,2.558-1.729c0.23-0.229,0.416-0.471,0.553-0.726c0.138-0.252,0.414-0.493,0.83-0.727
		l0.415,0.482c0.875,0.924,1.772,1.719,2.695,2.385c0.921,0.666,2.188,1.002,3.802,1.002c1.151,0,2.176-0.208,3.074-0.621
		c0.899-0.414,1.66-0.969,2.281-1.658c0.623-0.692,1.095-1.463,1.418-2.315c0.321-0.853,0.483-1.716,0.483-2.593
		c0-0.78-0.116-1.541-0.346-2.278c-0.232-0.735-0.565-1.405-1.002-2.004c-0.438-0.599-0.967-1.071-1.59-1.416
		c-0.622-0.347-1.302-0.521-2.038-0.521c-0.277,0-0.508,0.023-0.692,0.068c-0.691-0.829-1.036-1.957-1.036-3.385
		c0-1.799,0.449-3.02,1.347-3.664c0.899-0.646,2.108-0.969,3.629-0.969c0.691,0,1.405,0.025,2.142,0.07
		c0.735,0.045,1.451,0.067,2.142,0.067c0.369,0,0.703,0,1.002,0c0.3,0,0.588-0.045,0.865-0.14c0.368,0.785,0.933,1.361,1.693,1.729
		c0.76,0.369,1.67,0.601,2.73,0.69c0.23,0.785,0.346,1.613,0.346,2.488c0,0.139-0.035,0.449-0.104,0.935
		c-0.069,0.483-0.207,0.979-0.414,1.485c-0.208,0.506-0.484,0.957-0.83,1.346c-0.346,0.394-0.795,0.613-1.348,0.658
		c-0.323,0-0.598-0.069-0.828-0.207c-0.232-0.139-0.508-0.207-0.83-0.207c-1.06,0-1.786,0.369-2.176,1.104
		c-0.393,0.737-0.588,1.521-0.588,2.351c0,1.521,0.218,2.867,0.657,4.041c0.438,1.176,1.036,2.179,1.796,3.006
		c0.76,0.83,1.659,1.464,2.695,1.902c1.037,0.438,2.132,0.654,3.283,0.654c1.565,0,3.041-0.368,4.422-1.105
		c1.383-0.735,2.396-1.635,3.042-2.694c0.507,0.416,0.99,0.829,1.451,1.243c0.461,0.416,0.956,0.806,1.486,1.177
		c0.53,0.368,1.095,0.681,1.694,0.935c0.598,0.252,1.266,0.401,2.004,0.448h0.345c0.967,0,1.877-0.196,2.73-0.588
		c0.852-0.392,1.59-0.91,2.211-1.556c0.623-0.646,1.116-1.416,1.485-2.313c0.37-0.899,0.553-1.854,0.553-2.868
		c0-0.23,0-0.439,0-0.623s-0.023-0.392-0.069-0.623c-0.093-0.459-0.334-0.988-0.726-1.588c-0.391-0.599-0.586-1.037-0.586-1.312
		c-0.323-0.555-0.715-1.072-1.176-1.557c-0.46-0.482-1.151-0.726-2.072-0.726h-0.277c-0.369-0.368-0.657-0.853-0.865-1.451
		c-0.207-0.598-0.31-1.219-0.31-1.864c0-0.275,0.021-0.564,0.068-0.865c0.046-0.297,0.115-0.562,0.207-0.795
		c0.139,0,0.265,0.014,0.381,0.035c0.115,0.024,0.217,0.035,0.312,0.035c1.198,0,2.119-0.347,2.763-1.037
		c0.646-0.689,0.969-1.496,0.969-2.418c0-0.644-0.15-1.244-0.45-1.796c-0.3-0.553-0.668-1.047-1.105-1.486
		c-0.439-0.438-0.923-0.817-1.451-1.14c-0.53-0.322-1.002-0.553-1.418-0.691c0.046-1.936,0.058-3.846,0.035-5.736
		s0.012-3.824,0.104-5.806c0.414-0.138,0.875-0.207,1.382-0.207c0.46,0,0.921,0.023,1.383,0.069
		c0.459,0.046,0.921,0.068,1.381,0.068c0.737,0,1.313-0.091,1.728-0.277c-0.046-0.137-0.07-0.368-0.07-0.69
		c0-0.645,0.058-1.347,0.174-2.107c0.114-0.76,0.172-1.509,0.172-2.246c0-0.553-0.116-1.141-0.346-1.762
		c-0.23-0.623-0.495-1.221-0.793-1.797c-0.301-0.575-0.623-1.071-0.967-1.486c-0.346-0.414-0.611-0.667-0.795-0.76
		c-0.139-0.091-0.323-0.137-0.553-0.137c-0.232,0-0.461,0-0.691,0c-1.476,0-2.72,0.011-3.732,0.035
		c-1.014,0.023-1.89,0.033-2.627,0.033c-0.737,0-1.358,0-1.865,0c-0.508,0-0.992,0-1.451,0c-2.396,0-4.827-0.022-7.292-0.068
		c-2.465-0.046-4.689-0.07-6.669-0.07h-0.76c-0.369,0-0.681,0.07-0.933,0.207c-0.253,0.139-0.381,0.53-0.381,1.175
		c0,0.416,0.012,0.83,0.035,1.244c0.023,0.416,0.035,0.853,0.035,1.313c0,0.37-0.011,0.76-0.035,1.175
		c-0.023,0.416-0.035,0.807-0.035,1.176c0,0.783,0.114,1.358,0.346,1.728c0.23,0.369,0.529,0.737,0.898,1.105l1.728,1.451h2.627
		c0.645,0,1.047,0.116,1.209,0.346c0.161,0.231,0.242,0.53,0.242,0.897c0,0.232-0.012,0.451-0.035,0.658
		c-0.023,0.207-0.035,0.426-0.035,0.656c0,1.06-0.023,2.074-0.07,3.042c-0.047,0.968-0.114,1.89-0.207,2.765h-1.658
		c-1.06,0-2.142-0.012-3.248-0.035s-2.188-0.035-3.249-0.035h-3.109c-0.83,0-1.648-0.023-2.454-0.069
		c-0.806-0.045-1.58-0.138-2.315-0.277c-0.046-0.552-0.081-1.116-0.104-1.693c-0.023-0.575-0.035-1.163-0.035-1.762
		c0-0.782,0.035-1.521,0.104-2.211c0.069-0.69,0.149-1.358,0.242-2.004c0.553-0.184,1.244-0.276,2.074-0.276
		c0.415,0,0.84,0.013,1.279,0.035c0.438,0.024,0.84,0.035,1.209,0.035c0.782,0,1.266-0.104,1.451-0.311
		c0.184-0.208,0.277-0.519,0.277-0.933v-2.558c0-0.414,0.035-0.852,0.103-1.312c0.069-0.46,0.104-0.899,0.104-1.312
		c0-0.46-0.104-0.886-0.312-1.279c-0.207-0.391-0.46-0.76-0.76-1.105c-0.3-0.346-0.611-0.679-0.933-1.002
		c-0.323-0.323-0.576-0.668-0.76-1.037c-0.231,0.046-0.449,0.068-0.656,0.068c-0.208,0-0.427,0-0.658,0
		c-0.553,0-1.105-0.021-1.658-0.068c-0.553-0.047-1.129-0.069-1.728-0.069h-3.318c-2.765,0-5.541-0.035-8.327-0.104
		c-2.788-0.068-5.403-0.103-7.845-0.103h-1.451V173.119L204.318,173.119z M230.095,188.323c-0.093,0.507-0.161,1.07-0.207,1.693
		c-0.046,0.621-0.068,1.209-0.068,1.763h5.667c0.276,0,0.552,0.011,0.828,0.035c0.277,0.023,0.553,0.033,0.83,0.033h4.285
		l0.207-3.732l-1.728-1.382l-1.866-1.865l-1.589-1.313v2.142c0,0.369-0.012,0.715-0.035,1.037c-0.023,0.323-0.081,0.691-0.172,1.106
		c-0.416,0.184-0.76,0.289-1.037,0.31c-0.276,0.025-0.6,0.035-0.967,0.035h-1.176c-0.23,0-0.449-0.01-0.656-0.035
		c-0.207-0.021-0.426-0.035-0.656-0.035C231.202,188.113,230.648,188.184,230.095,188.323z M230.925,206.773
		c-0.599,0.6-0.897,1.545-0.897,2.834c0.505,0.23,0.942,0.541,1.312,0.934c0.369,0.394,0.714,0.84,1.037,1.349l1.797,1.797
		c0-0.554,0.069-1.015,0.207-1.384c0.23-0.553,0.645-1.071,1.244-1.555c0.598-0.483,1.289-0.727,2.074-0.727l0.828,0.207
		c0.277,0.139,0.53,0.207,0.76,0.207c0.416-0.045,0.795-0.369,1.141-0.967c0.345-0.6,0.587-1.129,0.726-1.59
		c0.045-0.185,0.08-0.346,0.103-0.484s0.035-0.301,0.035-0.482l-1.105-1.037h-1.383c-0.323,0-0.691,0-1.105,0
		c-0.416,0-0.785-0.022-1.106-0.067c-0.277,0-0.622-0.011-1.037-0.035c-0.414-0.021-0.759-0.032-1.035-0.032
		c-0.739,0-1.43,0.067-2.074,0.206C231.8,206.082,231.293,206.359,230.925,206.773z"/>
	<path d="M266.586,212.855c0-0.555,0.045-1.115,0.138-1.693c0.093-0.576,0.277-1.096,0.553-1.555
		c0.277-0.461,0.633-0.84,1.072-1.141c0.438-0.301,1.002-0.451,1.693-0.451c0,0.047,0.021,0.07,0.069,0.07h0.138h0.484
		c0.137,0.045,0.391,0.186,0.76,0.414c0.368,0.231,0.598,0.393,0.69,0.483c0.277,0,0.577-0.147,0.899-0.448
		c0.322-0.3,0.61-0.681,0.863-1.142c0.253-0.461,0.472-0.933,0.656-1.416s0.277-0.91,0.277-1.278c0-0.783-0.23-1.486-0.691-2.109
		c-0.46-0.619-0.691-1.322-0.691-2.106c0-0.783,0.346-1.59,1.037-2.42c0.691-0.828,1.703-1.244,3.04-1.244
		c0.323,0,0.668,0.047,1.037,0.139c0.507-1.014,1.025-2.095,1.555-3.248c0.529-1.151,1.025-2.256,1.486-3.318l0.346-0.828
		c0.091-0.323,0.217-0.633,0.379-0.934c0.161-0.298,0.312-0.633,0.449-1.002l0.83-2.002c0.83-2.074,1.772-4.136,2.834-6.187
		c1.059-2.049,2.049-4.042,2.972-5.978c0.921-0.091,1.865-0.147,2.833-0.172c0.967-0.022,1.889-0.035,2.765-0.035
		c1.751,0,3.5,0.035,5.252,0.104c1.751,0.069,3.546,0.103,5.39,0.103l0.76,1.106l2.558,2.558c0,0.046,0.161,0.219,0.483,0.519
		c0.322,0.3,0.598,0.633,0.83,1.002l0.207,0.414l2.488,2.418l0.553,0.691c0.183,0.232,0.333,0.532,0.449,0.899
		c0.115,0.369,0.217,0.691,0.31,0.967l0.208,0.83c0.645,2.073,1.347,4.354,2.107,6.841c0.76,2.488,1.53,4.838,2.315,7.05
		c0.598,0.276,1.128,0.646,1.589,1.105c0.46,0.462,0.83,0.945,1.106,1.451l2.211,2.211c1.012,1.018,1.521,2.168,1.521,3.457
		c0,0.969-0.253,1.787-0.76,2.453c-0.507,0.668-1.174,1.141-2.004,1.418c0.044,0.092,0.091,0.148,0.139,0.172
		c0.045,0.023,0.091,0.059,0.138,0.104l0.898,1.174l2.42,2.418c0.735,0.74,1.3,1.648,1.693,2.73
		c0.391,1.084,0.586,2.154,0.586,3.213c0,0.83-0.161,1.648-0.483,2.455c-0.323,0.805-0.784,1.521-1.382,2.143
		c-0.6,0.621-1.336,1.117-2.211,1.484c-0.876,0.371-1.867,0.555-2.972,0.555c-1.843,0-3.525-0.774-5.045-2.321l-1.658-1.688
		c-0.092-0.045-0.185-0.067-0.276-0.067c-0.093,0-0.186,0.079-0.277,0.245c-0.092,0.164-0.184,0.361-0.276,0.599l-0.277,0.492
		c-0.646,0.938-1.485,1.596-2.522,1.974c-1.036,0.372-2.016,0.561-2.937,0.561c-1.151,0-2.2-0.207-3.144-0.623
		c-0.945-0.412-1.785-0.988-2.522-1.727l-2.211-2.211c-1.014-0.646-1.878-1.486-2.592-2.523c-0.714-1.035-1.07-2.152-1.07-3.35
		c0-0.416,0.035-0.818,0.103-1.211c0.069-0.392,0.104-0.794,0.104-1.21c0-0.276-0.058-0.528-0.172-0.76
		c-0.116-0.229-0.174-0.646-0.174-1.244v-0.346c0.046-0.367,0.321-0.83,0.83-1.384c0.507-0.551,0.967-0.875,1.381-0.967
		c0.184,0,0.53,0.06,1.037,0.174c0.507,0.115,0.784,0.172,0.83,0.172c0.553,0,0.828-0.735,0.828-2.211v-0.276
		c-0.093-0.045-0.184-0.067-0.275-0.067c-0.508,0-1.037,0.034-1.59,0.104c-0.553,0.068-1.037,0.104-1.451,0.104H297.2
		c-0.137,0-0.3,0.014-0.483,0.035c-0.184,0.023-0.391,0.08-0.622,0.172l-0.483,0.416c-0.277,0.277-0.623,0.496-1.037,0.656
		c-0.414,0.162-0.737,0.266-0.967,0.311l-0.623,0.139c-0.184,0.416-0.345,0.91-0.484,1.486c-0.138,0.578-0.207,1.117-0.207,1.625
		l2.074,2.07c0.691,0.691,1.219,1.521,1.589,2.488c0.369,0.969,0.553,1.959,0.553,2.975c0,0.783-0.149,1.578-0.449,2.383
		c-0.3,0.806-0.726,1.531-1.279,2.178c-0.553,0.644-1.232,1.185-2.039,1.625c-0.807,0.438-1.716,0.654-2.73,0.654
		c-0.967,0-1.877-0.186-2.73-0.551c-0.853-0.369-1.6-0.877-2.246-1.521l-1.105-1.104c-0.553,0.783-1.199,1.451-1.935,2.005
		c-0.739,0.553-1.867,0.829-3.387,0.829c-1.474,0-2.937-0.438-4.388-1.312c-1.451-0.877-2.741-1.959-3.869-3.248
		c-1.13-1.291-2.039-2.695-2.73-4.217c-0.692-1.521-1.037-2.924-1.037-4.215V212.855L266.586,212.855z M308.052,177.194
		c-0.462-0.414-0.946-0.886-1.451-1.416c-0.508-0.529-0.946-1.072-1.313-1.624c-1.752,0-3.467-0.035-5.148-0.104
		c-1.683-0.07-3.375-0.103-5.08-0.103c-1.658,0-3.386,0.068-5.183,0.207c-0.922,1.935-1.855,3.87-2.799,5.804
		c-0.944,1.937-1.877,3.917-2.799,5.943c-0.921,2.029-1.786,4.043-2.591,6.047c-0.807,2.004-1.739,3.974-2.799,5.909
		c-0.369-0.23-0.807-0.345-1.313-0.345c-1.105,0-1.946,0.334-2.521,1.002c-0.578,0.667-0.865,1.325-0.865,1.969
		c0,0.921,0.23,1.681,0.691,2.281c0.46,0.598,0.692,1.243,0.692,1.937c0,0.321-0.081,0.76-0.242,1.311
		c-0.162,0.555-0.404,1.107-0.727,1.66c-0.323,0.555-0.69,1.024-1.105,1.416c-0.414,0.395-0.853,0.588-1.313,0.588
		c-0.369,0-0.714-0.16-1.037-0.482c-0.323-0.322-0.714-0.482-1.174-0.482c-1.06,0-1.774,0.438-2.142,1.312
		c-0.369,0.877-0.553,1.819-0.553,2.834c0,1.153,0.149,2.306,0.449,3.457s0.772,2.177,1.417,3.075
		c0.646,0.898,1.463,1.636,2.455,2.212c0.989,0.573,2.177,0.862,3.558,0.862c0.83,0,1.521-0.082,2.074-0.242
		c0.553-0.163,1.013-0.391,1.382-0.69c0.369-0.301,0.714-0.655,1.037-1.071c0.322-0.414,0.668-0.853,1.037-1.312
		c0.46,1.016,1.232,1.877,2.315,2.592c1.082,0.715,2.268,1.072,3.558,1.072c1.751,0,3.19-0.623,4.32-1.867
		c1.128-1.244,1.693-2.74,1.693-4.492c0-1.104-0.219-2.164-0.656-3.18c-0.439-1.014-1.095-1.842-1.969-2.486
		c-0.416-0.322-0.785-0.541-1.106-0.656c-0.323-0.115-0.484-0.496-0.484-1.143c0-0.645,0.091-1.301,0.277-1.969
		c0.184-0.666,0.391-1.23,0.621-1.693c0.369-0.092,0.692-0.148,0.969-0.172c0.275-0.023,0.575-0.104,0.898-0.242
		c0.276-0.139,0.507-0.334,0.691-0.588c0.184-0.252,0.414-0.426,0.69-0.52c0.646-0.229,1.463-0.355,2.455-0.379
		c0.989-0.023,1.9-0.035,2.73-0.035c0.552,0,0.908,0.104,1.07,0.311c0.161,0.207,0.472,0.428,0.933,0.656
		c0.323,0.188,0.633,0.289,0.934,0.312c0.298,0.022,0.54,0.127,0.726,0.311c0.23,0.23,0.414,0.6,0.553,1.105
		c0.137,0.508,0.207,1.037,0.207,1.59c0,0.875-0.126,1.578-0.375,2.107c-0.251,0.528-0.626,0.795-1.124,0.795
		c-0.274,0-0.547-0.058-0.818-0.173c-0.272-0.114-0.546-0.174-0.818-0.174c-0.317,0.095-0.669,0.347-1.056,0.761
		c-0.386,0.416-0.601,0.737-0.647,0.969v0.274c0,0.369,0.058,0.726,0.172,1.071c0.116,0.347,0.174,0.656,0.174,0.933
		c0,0.509-0.035,0.947-0.104,1.313c-0.069,0.369-0.103,0.736-0.103,1.105c0,0.783,0.206,1.566,0.62,2.35
		c0.413,0.783,0.953,1.486,1.619,2.107s1.448,1.117,2.344,1.486c0.896,0.367,1.828,0.553,2.792,0.553
		c0.781,0,1.654-0.172,2.619-0.518c0.966-0.346,1.771-0.934,2.414-1.764c0.229-0.322,0.401-0.656,0.516-1.002
		c0.114-0.347,0.356-0.519,0.726-0.519c0.321,0,0.676,0.161,1.067,0.483c0.391,0.322,0.781,0.689,1.172,1.104
		c0.391,0.416,0.792,0.818,1.206,1.209c0.415,0.393,0.827,0.658,1.243,0.795c0.734,0.277,1.492,0.416,2.273,0.416
		c2.022,0,3.619-0.609,4.791-1.832c1.172-1.221,1.758-2.658,1.758-4.318c0-0.69-0.114-1.428-0.345-2.211
		c-0.232-0.783-0.543-1.51-0.934-2.178s-0.84-1.254-1.347-1.762c-0.508-0.508-1.06-0.854-1.658-1.037
		c-0.094,0-0.208,0.014-0.346,0.035c-0.139,0.023-0.276,0.033-0.414,0.033c-0.508,0-0.865-0.275-1.072-0.83
		c-0.207-0.551-0.312-1.15-0.312-1.795v-0.346c0.968-0.093,1.763-0.461,2.385-1.107c0.622-0.645,0.933-1.473,0.933-2.486
		c0-0.459-0.104-0.967-0.311-1.52s-0.507-1.062-0.898-1.521c-0.393-0.46-0.876-0.84-1.451-1.141
		c-0.578-0.298-1.234-0.449-1.971-0.449c-0.092,0-0.184,0.011-0.275,0.035c-0.094,0.023-0.186,0.035-0.277,0.035
		c-0.922-2.627-1.878-5.494-2.869-8.605c-0.99-3.109-1.924-6.046-2.799-8.811c-0.138-0.46-0.253-0.91-0.345-1.348
		c-0.093-0.438-0.253-0.817-0.483-1.14c-0.186-0.321-0.439-0.623-0.76-0.897C308.696,177.886,308.373,177.563,308.052,177.194z
		 M294.091,193.021c0.23-0.921,0.563-1.728,1.002-2.42c0.438-0.69,0.84-1.426,1.209-2.211c0.46,0.646,0.805,1.372,1.037,2.178
		c0.23,0.807,0.46,1.624,0.691,2.453c-0.23,0.093-0.714,0.138-1.451,0.138c-0.414,0-0.841-0.01-1.279-0.035
		C294.862,193.103,294.459,193.067,294.091,193.021z"/>
	<path d="M330.65,183.624c-0.646-0.369-1.209-0.899-1.693-1.59c-0.485-0.69-0.773-1.267-0.864-1.728
		c-0.046-0.091-0.069-0.23-0.069-0.414s0-0.369,0-0.553c0-0.139,0-0.368,0-0.691c0-0.323,0.023-0.598,0.069-0.83
		c0.045-0.277,0.08-0.588,0.104-0.933c0.022-0.346,0.034-0.611,0.034-0.795c0-0.091-0.012-0.149-0.034-0.172
		c-0.024-0.023-0.035-0.082-0.035-0.174V174.5c0-0.691,0.183-1.335,0.552-1.935h7.603c0.645,0,1.3,0.011,1.969,0.035
		c0.668,0.023,1.349,0.035,2.039,0.035h12.647c0.459,0.414,0.967,0.876,1.521,1.381c0.552,0.508,1.105,1.027,1.658,1.556
		c0.553,0.53,1.072,1.037,1.555,1.521c0.484,0.483,0.863,0.888,1.14,1.209l0.139,0.277l1.451,1.451c0-1.151,0-2.361,0-3.628
		s0.045-2.407,0.138-3.422h20.042c0.275,0.231,0.505,0.462,0.691,0.692c0.184,0.23,0.391,0.507,0.621,0.828l2.488,2.42
		c0.23,0.184,0.426,0.414,0.588,0.691c0.161,0.276,0.356,0.576,0.586,0.897c0.46,0.785,0.944,1.451,1.452,2.004l0.484,0.414v0.623
		c0,1.474-0.024,2.707-0.069,3.697c-0.046,0.992-0.116,1.832-0.207,2.522c-0.277,0.093-0.53,0.138-0.76,0.138
		c-0.232,0-0.462,0-0.691,0c-0.232,0-0.474-0.01-0.726-0.035c-0.255-0.022-0.497-0.034-0.726-0.034h-2.281
		c-0.046,0.646-0.069,1.291-0.069,1.935c0,0.646,0,1.29,0,1.935v3.87c0,0.508-0.012,0.992-0.035,1.453
		c-0.023,0.46-0.035,0.921-0.035,1.381l2.144,2.142c0.505,0.509,0.921,1.13,1.244,1.867c0.322,0.736,0.484,1.496,0.484,2.281
		c0,0.967-0.22,1.668-0.658,2.105c-0.437,0.439-0.979,0.818-1.623,1.143c-0.232,0.092-0.427,0.172-0.588,0.24
		c-0.163,0.068-0.358,0.195-0.587,0.379c-0.323,0.785-0.553,1.625-0.692,2.523c-0.138,0.898-0.207,1.809-0.207,2.73
		c0,2.073,0.288,4.237,0.864,6.495c0.575,2.257,1.14,4.285,1.693,6.08c-1.658,0-2.972-0.252-3.939-0.763
		c-0.967-0.504-1.843-1.059-2.627-1.655l-1.036-0.761c-0.416,0.921-0.969,1.693-1.659,2.314c-0.691,0.623-1.567,0.934-2.625,0.934
		c-0.923,0-1.718-0.172-2.385-0.518s-1.277-0.796-1.831-1.348l-2.143-2.145c-1.105-0.601-2.028-1.484-2.765-2.66
		c-0.737-1.174-1.428-2.43-2.072-3.766c-0.093-0.185-0.197-0.38-0.312-0.589c-0.116-0.207-0.242-0.424-0.379-0.655
		c-0.876-0.045-1.613-0.414-2.211-1.105l-2.627-2.559c-0.691-0.367-1.232-0.898-1.624-1.59s-0.588-1.382-0.588-2.072
		c0-0.598,0.08-1.115,0.242-1.555c0.161-0.439,0.472-0.841,0.933-1.209c-0.783-1.521-1.578-3.031-2.383-4.528
		c-0.807-1.497-1.625-2.983-2.454-4.457v2.488l2.281,2.281c0.459,0.459,0.828,0.956,1.105,1.487
		c0.276,0.529,0.414,1.115,0.414,1.762c0,1.15-0.334,1.924-1.002,2.314c-0.668,0.393-1.463,0.727-2.384,1.002
		c-0.277,0.416-0.46,0.865-0.553,1.348c-0.093,0.484-0.138,0.979-0.138,1.486l0.207,0.414l2.625,2.559l0.277,0.346
		c0.598,0.783,1.082,1.82,1.451,3.109c0.369,1.291,0.576,2.535,0.623,3.732v0.553c-0.093,1.381-0.553,2.625-1.382,3.732
		c-0.83,1.104-1.959,1.705-3.387,1.797h-0.345c-1.152,0-2.085-0.267-2.799-0.795c-0.716-0.531-1.395-1.119-2.039-1.763l-0.898-0.899
		l-0.967,0.83c-0.553,0.6-1.153,1.106-1.797,1.521c-0.646,0.414-1.544,0.621-2.695,0.621c-0.876,0-1.683-0.184-2.42-0.551
		c-0.737-0.369-1.405-0.854-2.004-1.453l-2.211-2.143c-0.828-0.507-1.544-1.162-2.142-1.97c-0.6-0.806-1.106-1.657-1.521-2.56
		c-0.414-0.896-0.725-1.782-0.933-2.659c-0.207-0.875-0.311-1.636-0.311-2.281c0-0.459,0.126-0.862,0.381-1.209
		c0.252-0.347,0.575-0.633,0.967-0.862c0.391-0.229,0.793-0.404,1.209-0.519c0.415-0.114,0.782-0.194,1.105-0.242
		c0.461-0.416,0.84-1.024,1.141-1.832c0.298-0.805,0.449-1.646,0.449-2.522v-0.344c0-0.095-0.012-0.185-0.035-0.277
		c-0.023-0.094-0.035-0.184-0.035-0.275l-1.658-1.66c-0.508-0.275-0.957-0.631-1.348-1.07c-0.391-0.438-0.586-1.117-0.586-2.039
		c0-0.967,0.322-1.819,0.967-2.558c0.645-0.735,1.542-1.105,2.695-1.105c0.46,0,0.83,0.068,1.106,0.208
		c0.182-1.244,0.287-2.488,0.31-3.732c0.023-1.244,0.058-2.488,0.104-3.732v-1.867c-0.093-0.091-0.139-0.183-0.139-0.275
		L330.65,183.624z M365.826,192.586c-0.784-1.065-1.451-2.178-2.004-3.335c-0.553-1.159-1.151-2.34-1.797-3.545
		c-0.507-0.879-1.002-1.747-1.486-2.601c-0.484-0.853-0.933-1.717-1.347-2.594l-0.899-1.865c-0.275-0.323-0.646-0.702-1.105-1.141
		c-0.462-0.438-0.946-0.909-1.451-1.417c-0.508-0.507-1.027-1.002-1.555-1.485c-0.53-0.484-1.025-0.933-1.486-1.349h-4.562
		c-2.581,0-5.194-0.01-7.843-0.035c-2.65-0.021-5.287-0.033-7.913-0.033h-3.249c-0.185,0.323-0.276,0.737-0.276,1.244
		c0,0.275,0.01,0.542,0.035,0.793c0.021,0.255,0.035,0.519,0.035,0.795c0,0.553-0.035,1.118-0.104,1.693
		c-0.07,0.578-0.104,1.095-0.104,1.556c0,0.369,0.023,0.623,0.069,0.76c0,0.231,0.104,0.518,0.312,0.864
		c0.207,0.345,0.46,0.691,0.76,1.036c0.298,0.346,0.633,0.646,1.002,0.899c0.368,0.253,0.735,0.379,1.105,0.379H333
		c0.321,0,0.714,0.092,1.176,0.276c-0.094,2.177-0.15,4.378-0.174,6.601c-0.023,2.225-0.149,4.424-0.379,6.6
		c-0.462-0.091-0.771-0.196-0.934-0.312c-0.161-0.114-0.449-0.172-0.863-0.172c-0.922,0-1.648,0.3-2.177,0.898
		c-0.53,0.6-0.795,1.291-0.795,2.074c0,0.784,0.195,1.348,0.588,1.693c0.39,0.346,0.805,0.658,1.244,0.934
		c0.437,0.277,0.852,0.588,1.244,0.935c0.39,0.345,0.587,0.933,0.587,1.763v0.344c0,1.061-0.172,2.039-0.519,2.938
		c-0.345,0.898-0.841,1.604-1.486,2.107c-0.23,0.047-0.53,0.104-0.898,0.174c-0.369,0.068-0.726,0.195-1.072,0.381
		c-0.345,0.184-0.646,0.402-0.898,0.654c-0.253,0.254-0.381,0.566-0.381,0.934c0,0.785,0.161,1.719,0.484,2.801
		c0.323,1.082,0.795,2.141,1.417,3.178s1.394,1.914,2.314,2.627c0.92,0.715,1.981,1.07,3.18,1.07c0.691,0,1.289-0.092,1.796-0.277
		c0.507-0.182,0.956-0.438,1.348-0.76c0.391-0.32,0.771-0.656,1.14-1.002c0.369-0.346,0.783-0.701,1.244-1.07
		c0.416,0.369,0.818,0.761,1.209,1.175c0.391,0.416,0.795,0.795,1.211,1.142c0.414,0.346,0.886,0.645,1.416,0.897
		c0.529,0.252,1.14,0.379,1.831,0.379h0.277c1.29-0.093,2.315-0.644,3.076-1.658c0.76-1.012,1.186-2.142,1.279-3.385v-0.554
		c-0.046-1.151-0.242-2.352-0.588-3.594c-0.345-1.244-0.818-2.234-1.417-2.973c-0.369-0.459-0.818-0.771-1.348-0.934
		c-0.53-0.162-1.07-0.334-1.624-0.521c-0.139-0.688-0.207-1.381-0.207-2.073c0-0.644,0.057-1.244,0.172-1.795
		c0.114-0.554,0.356-1.06,0.726-1.521c0.83-0.229,1.565-0.518,2.211-0.863c0.644-0.346,0.967-1.023,0.967-2.039
		c0-0.553-0.127-1.072-0.379-1.555c-0.253-0.484-0.577-0.921-0.967-1.312c-0.393-0.391-0.807-0.736-1.244-1.037
		c-0.439-0.298-0.841-0.54-1.209-0.726v-0.76c0-0.598-0.013-1.244-0.035-1.935c-0.024-0.691-0.035-1.382-0.035-2.074
		c0-0.552,0.01-1.082,0.035-1.589c0.022-0.507,0.08-0.921,0.172-1.244c0.277,0.23,0.563,0.542,0.865,0.933
		c0.298,0.392,0.449,0.702,0.449,0.933c1.382,2.534,2.775,5.034,4.181,7.499c1.404,2.465,2.753,4.986,4.043,7.568
		c-0.922,0.646-1.383,1.475-1.383,2.486c0,0.83,0.312,1.602,0.933,2.313c0.623,0.716,1.462,1.072,2.522,1.072
		c0.139,0,0.289,0,0.449,0c0.162,0,0.312-0.022,0.45-0.07c0.875,0.69,1.646,1.693,2.314,3.007c0.667,1.313,1.358,2.616,2.074,3.903
		c0.714,1.291,1.531,2.42,2.453,3.388c0.921,0.969,2.119,1.45,3.594,1.45c1.059,0,1.91-0.356,2.556-1.069
		c0.646-0.715,1.151-1.531,1.521-2.455c0.553,0.371,1.072,0.75,1.555,1.143c0.484,0.391,1.002,0.758,1.556,1.104
		c0.553,0.346,1.151,0.633,1.795,0.864c0.646,0.229,1.383,0.347,2.213,0.347c-0.508-1.658-1.027-3.547-1.555-5.668
		c-0.53-2.119-0.795-4.26-0.795-6.426c0-2.027,0.346-3.871,1.037-5.529c0.414-0.275,0.817-0.508,1.209-0.689
		c0.391-0.186,0.737-0.393,1.037-0.623c0.298-0.229,0.553-0.518,0.76-0.863c0.207-0.345,0.312-0.818,0.312-1.416
		c0-0.831-0.22-1.661-0.658-2.489c-0.438-0.83-0.979-1.428-1.623-1.797c-0.277-0.139-0.565-0.23-0.865-0.276
		c-0.3-0.045-0.542-0.207-0.726-0.484c0.045-2.074,0.069-4.113,0.069-6.116c0-2.004,0.045-4.043,0.138-6.117
		c0.23-0.091,0.449-0.138,0.658-0.138c0.207,0,0.424,0,0.656,0c0.46,0,0.921,0.012,1.382,0.035c0.46,0.023,0.944,0.033,1.452,0.033
		c0.552,0,0.898-0.229,1.036-0.69c0.139-0.459,0.208-1.151,0.208-2.073v-3.52c-0.276-0.322-0.578-0.691-0.899-1.106
		c-0.323-0.415-0.634-0.829-0.933-1.244c-0.3-0.414-0.564-0.771-0.795-1.07c-0.231-0.299-0.414-0.495-0.553-0.588h-19.143
		c-0.093,1.105-0.138,2.234-0.138,3.386c0,1.153,0,2.327,0,3.525c0.368,0.508,0.69,1.025,0.967,1.556
		c0.276,0.53,0.598,1.025,0.967,1.485c0.645,0,1.186,0,1.625,0c0.438,0,0.933,0.046,1.486,0.138L365.826,192.586z M364.652,186.71
		l0.621,1.335l0.069-1.335l-1.728-1.897L364.652,186.71z"/>
	<path d="M412.751,172.771c0.091,0,0.207-0.01,0.345-0.035c0.141-0.022,0.277-0.034,0.416-0.034c0.275,0,0.575,0,0.898,0
		c0.321,0,0.598,0.046,0.83,0.138c0.229,0.093,0.459,0.265,0.688,0.519c0.23,0.253,0.459,0.495,0.691,0.726l0.83,1.037l1.521,1.521
		v-0.83c0-0.414,0.013-0.84,0.033-1.279c0.023-0.438,0.128-0.978,0.312-1.624c1.475,0.046,3.052,0.082,4.732,0.103
		c1.684,0.024,3.354,0.046,5.011,0.069c1.658,0.023,3.294,0.035,4.906,0.035c1.611,0,3.086,0,4.423,0h1.866c0.414,0,0.782,0,1.105,0
		c0.32,0,0.6,0.046,0.829,0.137c0.229,0.093,0.542,0.37,0.934,0.83c0.391,0.46,0.771,0.944,1.141,1.451l2.072,2.004
		c0.369,0.37,0.761,0.83,1.176,1.382c0.414,0.553,0.666,0.992,0.763,1.313c0.091,0.276,0.146,0.6,0.172,0.967
		c0.021,0.369,0.034,0.738,0.034,1.106c0,0.369,0,0.737,0,1.105c0,0.369-0.023,0.715-0.068,1.037
		c-0.047,0.462-0.081,1.014-0.104,1.66c-0.021,0.645-0.031,1.221-0.031,1.728c-0.369,0.093-0.683,0.138-0.937,0.138
		c-0.253,0-0.495,0-0.726,0c-0.507,0-0.99-0.01-1.451-0.035c-0.46-0.022-0.897-0.057-1.313-0.103
		c-0.367-0.046-0.748-0.081-1.14-0.104s-0.771-0.035-1.14-0.035c-0.276,0-0.602,0.046-0.971,0.139
		c-0.229,0.093-0.481,0.242-0.759,0.449c-0.274,0.207-0.553,0.449-0.83,0.726l-3.729,3.386c-0.141,0.093-0.395,0.323-0.762,0.691
		c-0.138,0.094-0.321,0.242-0.554,0.45c-0.229,0.207-0.461,0.426-0.688,0.656c-0.232,0.232-0.439,0.449-0.623,0.656
		c-0.186,0.208-0.275,0.336-0.275,0.381c0,0.138,0.092,0.276,0.275,0.414c0.046,0.139,0.139,0.232,0.274,0.277
		c0.095,0.185,0.23,0.369,0.416,0.553c0.185,0.184,0.321,0.392,0.414,0.621l1.037-0.552c0.414-0.276,0.805-0.416,1.174-0.416h0.414
		c0.971,0,1.867,0.276,2.697,0.83c0.828,0.553,1.45,1.221,1.865,2.004l2.418,2.35c0.968,0.968,1.452,2.028,1.452,3.181
		c0,0.782-0.231,1.473-0.691,2.071c-0.093,0.185-0.23,0.347-0.414,0.481c-0.186,0.14-0.37,0.254-0.554,0.347l-0.69,0.414
		l0.207,0.207h0.414c1.151,0,2.258,0.416,3.317,1.243c0.367,0.324,0.761,0.716,1.175,1.177c0.416,0.461,0.783,0.944,1.104,1.45
		l1.037,0.968c0.092,0.047,0.148,0.095,0.172,0.14s0.08,0.114,0.175,0.207c0.414,0.416,0.862,0.909,1.348,1.485
		c0.484,0.578,0.84,1.069,1.072,1.485c0.274,0.599,0.471,1.187,0.586,1.763c0.112,0.577,0.174,1.142,0.174,1.692
		c0,1.244-0.269,2.418-0.795,3.523c-0.53,1.105-1.325,1.91-2.385,2.418c-0.646,0.229-1.305,0.449-1.972,0.658
		c-0.668,0.207-1.394,0.311-2.177,0.311c-0.737,0-1.406-0.07-2.004-0.205c-0.877-0.231-1.693-0.604-2.453-1.108
		c-0.761-0.507-1.51-1.06-2.246-1.658c-0.276-0.187-0.496-0.347-0.656-0.483c-0.161-0.14-0.381-0.322-0.656-0.554
		c-0.139,0.229-0.276,0.483-0.414,0.761l-0.483,0.76c-0.508,0.646-1.14,1.188-1.898,1.623c-0.762,0.438-1.512,0.703-2.245,0.795
		c-0.095,0-0.176,0.014-0.242,0.035c-0.069,0.022-0.15,0.035-0.242,0.035h-0.415c-1.151,0-2.258-0.252-3.316-0.763
		c-1.062-0.506-2.005-1.172-2.834-2.002l-1.936-1.937c-0.829-0.506-1.521-1.082-2.073-1.729c-0.047,0.83-0.219,1.625-0.519,2.385
		c-0.302,0.76-0.728,1.393-1.278,1.9c-0.37,0.367-0.863,0.713-1.486,1.037c-0.621,0.32-1.209,0.529-1.762,0.621
		c-0.184,0.047-0.391,0.07-0.622,0.07c-0.229,0-0.414,0-0.553,0c-1.613,0-3.02-0.396-4.216-1.177
		c-1.199-0.782-2.281-1.588-3.248-2.418l-0.484,0.483c-0.876,0.736-1.729,1.349-2.559,1.832c-0.827,0.482-2.004,0.726-3.522,0.726
		h-0.967c-1.244-0.092-2.42-0.403-3.525-0.935c-1.106-0.53-2.097-1.231-2.972-2.106l-1.935-1.866
		c-1.338-0.922-2.443-2.097-3.318-3.523c-0.876-1.428-1.429-3.018-1.658-4.77c0-0.045-0.013-0.08-0.035-0.104
		c-0.024-0.021-0.035-0.057-0.035-0.104v-0.347c0-1.06,0.287-1.912,0.863-2.558c0.576-0.646,1.462-0.967,2.662-0.967
		c0.459,0,0.782,0.045,0.967,0.139l0.138,0.345h0.967c0.23-0.138,0.449-0.366,0.657-0.69c0.208-0.322,0.403-0.679,0.587-1.072
		c0.184-0.391,0.346-0.793,0.483-1.209c0.139-0.414,0.23-0.76,0.277-1.035v-0.275l-2.488-2.559
		c-0.369-0.184-0.667-0.414-0.897-0.689c-0.646-0.784-0.968-1.614-0.968-2.489c0-0.784,0.23-1.486,0.691-2.108
		c0.46-0.622,1.082-1.002,1.865-1.14h0.416c0.091,0,0.149-0.011,0.172-0.035c0.023-0.021,0.08-0.035,0.172-0.035h1.521
		c0.093-1.059,0.149-2.188,0.174-3.386c0.022-1.198,0.033-2.374,0.033-3.525v-1.313h-0.414l-3.248-3.248h-0.345
		c-0.232-0.368-0.45-0.668-0.658-0.898c-0.207-0.23-0.426-0.438-0.656-0.623c-0.369-0.368-0.726-0.701-1.072-1.002
		c-0.345-0.298-0.565-0.701-0.656-1.209c-0.093-0.277-0.139-0.529-0.139-0.76v-0.484c0-0.091,0.012-0.195,0.035-0.312
		c0.023-0.114,0.035-0.217,0.035-0.31c0.045-0.23,0.07-0.426,0.07-0.588c0-0.161,0-0.356,0-0.588v-1.167
		c0-0.553,0.01-1.117,0.035-1.693c0.021-0.575,0.149-1.209,0.379-1.9L412.751,172.771z M389.323,173.119
		c-0.139,0.507-0.219,0.99-0.242,1.451c-0.025,0.46-0.035,0.944-0.035,1.451v1.174c0,0.37-0.023,0.76-0.069,1.176
		c-0.046,0.414-0.068,0.783-0.068,1.105c0,0.231,0.022,0.392,0.068,0.483c0.184,0.692,0.623,1.279,1.313,1.763
		c0.691,0.483,1.198,1.002,1.521,1.555h1.728c0.461,0,0.91,0.023,1.349,0.069c0.437,0.046,0.84,0.138,1.209,0.277v4.906
		c0,1.337-0.024,2.66-0.069,3.974c-0.046,1.313-0.139,2.569-0.277,3.767c-0.231-0.046-0.474-0.082-0.726-0.104
		c-0.253-0.023-0.518-0.035-0.795-0.035c-0.184,0-0.369,0.012-0.553,0.035c-0.184,0.023-0.391,0.035-0.621,0.035
		c-0.646,0.093-1.141,0.379-1.486,0.863c-0.346,0.485-0.519,1.048-0.519,1.694c0,0.369,0.057,0.726,0.172,1.07
		c0.114,0.346,0.312,0.657,0.588,0.934c0.368,0.369,0.817,0.621,1.347,0.761c0.53,0.138,1.072,0.229,1.625,0.274
		c0.46,0.461,0.691,1.152,0.691,2.074c0,0.414-0.023,0.736-0.07,0.967c-0.046,0.369-0.149,0.818-0.31,1.349
		c-0.162,0.53-0.358,1.024-0.588,1.485c-0.232,0.461-0.496,0.863-0.795,1.209c-0.3,0.347-0.611,0.543-0.933,0.588
		c-0.231,0-0.449-0.057-0.656-0.174c-0.208-0.112-0.427-0.194-0.658-0.242c-0.184-0.045-0.46-0.067-0.828-0.067
		c-0.922,0-1.625,0.267-2.109,0.796c-0.483,0.528-0.725,1.209-0.725,2.038c0,0.093,0.011,0.197,0.035,0.312
		c0.023,0.117,0.035,0.219,0.035,0.312c0.138,1.197,0.484,2.338,1.037,3.42c0.552,1.082,1.244,2.039,2.073,2.867
		c0.83,0.83,1.774,1.498,2.834,2.004c1.059,0.51,2.188,0.809,3.386,0.898h0.899c0.875,0,1.612-0.08,2.211-0.24
		c0.598-0.162,1.139-0.393,1.624-0.691c0.483-0.299,0.943-0.645,1.383-1.037c0.438-0.391,0.908-0.793,1.416-1.209l0.207,0.207
		c0.92,0.783,1.971,1.566,3.145,2.35c1.176,0.783,2.521,1.175,4.043,1.175c0.184,0,0.368,0,0.553,0c0.186,0,0.368-0.022,0.553-0.067
		c0.507-0.095,1.035-0.277,1.59-0.554c0.553-0.276,1.014-0.599,1.383-0.968c0.552-0.508,0.967-1.141,1.244-1.901
		c0.275-0.76,0.415-1.53,0.415-2.313c0-0.83-0.14-1.635-0.415-2.42c-0.231-0.644-0.51-1.299-0.83-1.969
		c-0.323-0.666-0.691-1.185-1.106-1.554c-0.138-0.14-0.369-0.312-0.689-0.519c-0.323-0.207-0.576-0.356-0.762-0.449
		c-0.184-0.047-0.414-0.069-0.688-0.069c-0.186,0-0.323-0.022-0.415-0.067c-0.416-0.23-0.715-0.668-0.899-1.314
		c-0.184-0.645-0.275-1.334-0.275-2.072c0-0.506,0.046-1.014,0.139-1.521c0.091-0.506,0.184-0.943,0.276-1.312
		c0.366-0.184,0.654-0.264,0.861-0.24c0.208,0.021,0.474-0.059,0.795-0.242c0.277-0.186,0.542-0.483,0.796-0.897
		c0.253-0.416,0.562-0.623,0.934-0.623c0.275,0,0.644,0.104,1.105,0.312c0.459,0.207,0.806,0.379,1.036,0.52
		c1.06,0.646,2.05,1.498,2.973,2.559c0.922,1.062,1.382,2.305,1.382,3.732c0,0.184-0.013,0.369-0.033,0.551
		c-0.023,0.186-0.057,0.393-0.1,0.623c-0.493,0.23-0.94,0.473-1.345,0.727c-0.399,0.254-0.646,0.656-0.733,1.209v0.277
		c0,0.185,0.01,0.379,0.034,0.588c0.021,0.207,0.057,0.426,0.104,0.656v1.797c0.139,1.014,0.46,1.992,0.966,2.938
		c0.505,0.943,1.148,1.785,1.931,2.521c0.781,0.736,1.654,1.338,2.619,1.797c0.968,0.459,1.979,0.691,3.034,0.691
		c0.14,0,0.274-0.014,0.412-0.035c0.141-0.023,0.277-0.035,0.416-0.035c0.688-0.094,1.389-0.334,2.103-0.727
		c0.715-0.391,1.274-0.887,1.688-1.486c0.229-0.32,0.39-0.633,0.482-0.933c0.091-0.3,0.345-0.61,0.759-0.935
		c1.011,0.692,1.976,1.44,2.895,2.246c0.92,0.807,2.023,1.373,3.312,1.692c0.597,0.14,1.219,0.209,1.859,0.209
		c0.78,0,1.481-0.095,2.104-0.276c0.62-0.188,1.229-0.394,1.828-0.623c0.918-0.459,1.63-1.199,2.136-2.211
		c0.506-1.013,0.759-2.119,0.759-3.316s-0.229-2.281-0.688-3.248c-0.277-0.508-0.683-1.072-1.21-1.693
		c-0.529-0.623-1.002-1.117-1.416-1.486c-0.83-0.69-1.797-1.035-2.903-1.035h-0.414c-0.369,0.045-0.668,0.172-0.897,0.379
		c-0.23,0.207-0.575,0.312-1.035,0.312c-0.277-0.046-0.542-0.207-0.796-0.484c-0.254-0.275-0.448-0.529-0.589-0.76
		c-0.229-0.459-0.427-0.979-0.587-1.556c-0.161-0.573-0.24-1.187-0.24-1.832v-0.621c0.366-0.366,0.689-0.598,0.968-0.69
		c0.276-0.092,0.527-0.299,0.76-0.623c0.414-0.553,0.621-1.15,0.621-1.797c0-0.504-0.114-1.011-0.345-1.519
		c-0.231-0.507-0.554-0.956-0.968-1.348c-0.416-0.391-0.898-0.714-1.451-0.967s-1.13-0.381-1.729-0.381h-0.414
		c-0.369,0.047-0.76,0.22-1.174,0.518c-0.414,0.301-0.807,0.451-1.175,0.451c-0.276,0-0.564-0.115-0.864-0.346
		c-0.3-0.23-0.588-0.391-0.863-0.484c-0.368-0.184-0.703-0.321-1.002-0.414c-0.302-0.093-0.543-0.253-0.728-0.484
		c-0.093-0.416-0.126-0.771-0.104-1.071c0.023-0.3-0.034-0.679-0.173-1.141c-0.185-0.459-0.473-0.829-0.863-1.105
		c-0.394-0.277-0.589-0.598-0.589-0.967c0-0.093,0.081-0.242,0.242-0.449c0.162-0.208,0.347-0.426,0.554-0.657
		c0.206-0.229,0.427-0.438,0.656-0.622s0.394-0.321,0.484-0.416c0.781-0.736,1.496-1.405,2.142-2.004
		c0.646-0.598,1.358-1.219,2.144-1.865c0.368-0.368,0.761-0.749,1.176-1.14c0.415-0.391,0.806-0.633,1.175-0.727
		c0.185-0.045,0.355-0.08,0.52-0.103c0.161-0.023,0.355-0.035,0.587-0.035c0.783,0,1.591,0.046,2.42,0.137
		c0.828,0.094,1.702,0.139,2.626,0.139c0.229,0,0.438,0,0.623,0c0.183,0,0.366-0.023,0.552-0.069c0-1.059,0.034-1.993,0.104-2.799
		c0.069-0.805,0.104-1.577,0.104-2.314c0-0.368-0.014-0.714-0.034-1.037c-0.024-0.322-0.081-0.623-0.173-0.898
		c-0.046-0.184-0.172-0.438-0.379-0.76c-0.207-0.323-0.427-0.633-0.655-0.934c-0.229-0.298-0.471-0.575-0.724-0.829
		c-0.252-0.253-0.447-0.402-0.585-0.449c-0.23-0.093-0.484-0.139-0.76-0.139c-0.274,0-0.598,0-0.966,0h-1.858
		c-2.711,0-5.723-0.01-9.028-0.035c-3.309-0.021-6.456-0.08-9.441-0.172c-0.092,0.369-0.147,0.737-0.173,1.105
		c-0.021,0.369-0.032,0.739-0.032,1.106v1.106c0,0.414-0.023,0.84-0.068,1.277c-0.047,0.438-0.07,0.864-0.07,1.279
		c0,0.369,0.023,0.646,0.07,0.83c0.091,0.414,0.354,0.807,0.795,1.174c0.438,0.37,0.655,0.76,0.655,1.175
		c-0.046,0.231-0.196,0.427-0.448,0.588c-0.254,0.162-0.497,0.334-0.727,0.519c-1.188,0.967-2.277,1.9-3.273,2.799
		c-0.996,0.897-2.024,1.785-3.084,2.66c-0.415,0.369-0.854,0.726-1.312,1.072c-0.463,0.344-0.97,0.633-1.521,0.863v-0.691
		c0-0.46-0.013-0.909-0.035-1.348c-0.023-0.438-0.035-0.886-0.035-1.347c0-0.737,0.023-1.462,0.07-2.177
		c0.045-0.714,0.137-1.371,0.275-1.969c0.32-0.046,0.621-0.07,0.897-0.07s0.575,0,0.898,0c0.598,0,1.195,0.012,1.797,0.035
		c0.598,0.023,1.175,0.035,1.728,0.035c0.23,0,0.449,0,0.656,0c0.208,0,0.426-0.023,0.657-0.07v-0.76
		c0-0.783,0.045-1.543,0.138-2.281c0.093-0.735,0.14-1.474,0.14-2.211c0-0.23,0-0.472,0-0.726s-0.047-0.495-0.14-0.725
		c-0.093-0.368-0.265-0.691-0.519-0.968c-0.254-0.276-0.495-0.553-0.727-0.83c-0.229-0.277-0.46-0.575-0.689-0.898
		c-0.231-0.323-0.508-0.53-0.83-0.623c-0.23-0.091-0.474-0.138-0.727-0.138s-0.519,0-0.794,0c-0.462,0-0.922,0.012-1.383,0.035
		c-0.46,0.023-0.876,0.033-1.244,0.033L389.323,173.119z M415.791,209.4c0,0.229,0.069,0.414,0.208,0.553
		c0.321,0.369,0.666,0.783,1.035,1.244l2.281,2.279v-0.484c-0.095-0.459-0.14-0.922-0.14-1.381v-0.346
		c0.092-0.691,0.347-1.199,0.761-1.521s0.897-0.598,1.451-0.828c0.045-0.094,0.069-0.207,0.069-0.348c0-0.137,0-0.252,0-0.344
		c0-0.924-0.255-1.773-0.761-2.559c-0.231-0.14-0.509-0.275-0.829-0.416c-0.323-0.138-0.577-0.207-0.761-0.207
		c-0.14,0-0.276,0.069-0.414,0.207c-0.141,0.141-0.257,0.276-0.348,0.416c-0.229,0.369-0.46,0.646-0.689,0.828
		c-0.231,0.188-0.414,0.276-0.555,0.276c-0.138,0-0.275,0.024-0.415,0.069h-0.274c-0.093,0-0.188,0.025-0.277,0.07
		C415.905,207.695,415.791,208.525,415.791,209.4z"/>
	<path d="M500.659,173.326c0.273,0.323,0.525,0.623,0.759,0.898c0.231,0.276,0.461,0.578,0.692,0.899l1.935,1.865l1.106,1.313
		c0-0.184,0-0.356,0-0.518c0-0.161,0.021-0.356,0.064-0.588c0-0.137,0.012-0.275,0.035-0.414c0.023-0.138,0.034-0.276,0.034-0.414
		c0.047-0.46,0.081-0.979,0.104-1.555c0.023-0.575,0.035-1.047,0.035-1.417c3.688,0.046,6.727,0.081,9.123,0.103
		c2.396,0.024,4.342,0.046,5.839,0.069c1.498,0.023,2.685,0.035,3.562,0.035c0.875,0,1.634,0,2.277,0
		c0.51,0,1.003,0.127,1.486,0.379c0.483,0.255,0.933,0.578,1.347,0.967c0.417,0.393,0.811,0.795,1.178,1.211
		c0.366,0.414,0.669,0.783,0.896,1.105l1.798,1.797c0.368,0.415,0.701,0.818,1.003,1.209c0.3,0.393,0.538,0.702,0.726,0.933
		c0,1.567-0.014,2.927-0.035,4.078c-0.022,1.153-0.081,2.349-0.17,3.593c-0.418,0.139-0.878,0.208-1.385,0.208
		c-0.275,0-0.542-0.012-0.796-0.035c-0.255-0.023-0.519-0.058-0.793-0.104c-0.276-0.045-0.575-0.08-0.899-0.103
		c-0.321-0.023-0.598-0.035-0.828-0.035c-0.646,0-1.188,0.23-1.625,0.69c-0.438,0.46-0.863,1.014-1.277,1.658
		c-0.093,0.186-0.186,0.301-0.276,0.346c-0.094,0.046-0.184,0.162-0.274,0.345c-0.646,0.83-1.289,1.683-1.936,2.558
		c-0.646,0.876-1.245,1.706-1.796,2.488c-0.555,0.785-1.117,1.555-1.693,2.315c-0.577,0.76-1.188,1.532-1.831,2.315l-0.417,0.482
		c-0.229,0.229-0.426,0.473-0.585,0.727c-0.162,0.254-0.243,0.428-0.243,0.52c0,0.275,0.116,0.599,0.345,0.967
		c0,0.324,0.104,0.668,0.312,1.037c0.206,0.371,0.311,0.738,0.311,1.105c0,0.875-0.186,1.496-0.554,1.867
		c-0.368,0.367-0.805,0.689-1.312,0.967c-0.048,0-0.094,0.021-0.141,0.066c-0.046,0.047-0.093,0.07-0.136,0.07
		c-0.371,0.231-0.682,0.483-0.938,0.76c-0.252,0.277-0.38,0.83-0.38,1.658v0.483l2.005,1.937c0.646,0.646,1.221,1.521,1.729,2.625
		c0.507,1.106,0.759,2.328,0.759,3.664c0,0.967-0.185,1.889-0.553,2.766c-0.368,0.875-0.875,1.625-1.521,2.244
		c-0.646,0.623-1.394,1.115-2.245,1.486c-0.854,0.368-1.764,0.553-2.729,0.553c-0.781,0-1.691-0.217-2.729-0.656
		c-1.035-0.438-1.898-1.002-2.593-1.693l-0.967-0.967l-0.415,0.553c-0.092,0.092-0.173,0.195-0.243,0.312
		c-0.067,0.113-0.171,0.242-0.31,0.38c-0.646,0.646-1.463,1.149-2.453,1.521c-0.99,0.368-2.016,0.553-3.076,0.553
		c-1.06,0-2.097-0.23-3.11-0.691c-1.013-0.459-1.91-1.082-2.691-1.863l-2.005-2.006c-1.338-0.826-2.432-2.004-3.284-3.523
		c-0.854-1.52-1.277-3.246-1.277-5.184c0-1.287,0.368-2.312,1.106-3.074c0.733-0.76,1.703-1.141,2.9-1.141
		c0.367,0,0.782,0.045,1.242,0.139c0.231-0.369,0.426-0.865,0.588-1.486c0.162-0.622,0.269-1.231,0.313-1.832l-2.146-2.073
		c-0.646-0.414-1.223-0.933-1.729-1.554c-0.507-0.623-0.759-1.393-0.759-2.315c0-0.645,0.157-1.29,0.481-1.936
		c0.322-0.645,0.759-1.151,1.312-1.521l-6.496-9.261h-0.76c-0.277,0-0.541-0.01-0.798-0.035c-0.252-0.021-0.562-0.103-0.933-0.242
		l-3.178-3.109l-0.414-0.207c-0.093-0.23-0.243-0.484-0.449-0.76c-0.208-0.277-0.405-0.507-0.588-0.691
		c-0.37-0.369-0.727-0.818-1.071-1.348c-0.345-0.529-0.519-1.14-0.519-1.832c0-0.276,0.012-0.609,0.035-1.002
		c0.021-0.391,0.058-0.726,0.104-1.002v-0.415c0-0.091,0.009-0.172,0.034-0.242c0.021-0.069,0.032-0.149,0.032-0.242v-1.244
		c0-0.091-0.014-0.172-0.032-0.242c-0.025-0.07-0.034-0.149-0.034-0.242c0-0.368,0.034-0.795,0.103-1.278
		c0.068-0.484,0.312-0.933,0.728-1.347c1.149,0,2.786,0.012,4.906,0.034c2.12,0.024,4.342,0.059,6.67,0.104
		c2.326,0.046,4.582,0.104,6.771,0.172c2.188,0.069,3.951,0.127,5.286,0.174L500.659,173.326z M500.245,173.878
		c-4.055-0.093-7.982-0.172-11.785-0.242c-3.8-0.069-7.635-0.149-11.507-0.242c-0.229,0.23-0.356,0.519-0.38,0.863
		c-0.023,0.346-0.035,0.704-0.035,1.071c0,0.323,0.012,0.622,0.035,0.898c0.021,0.277,0.035,0.553,0.035,0.83
		c-0.049,0.507-0.095,1.002-0.142,1.486c-0.046,0.483-0.067,0.957-0.067,1.416c0,0.508,0.104,0.934,0.312,1.279
		c0.206,0.346,0.449,0.681,0.725,1.002c0.278,0.323,0.555,0.623,0.831,0.899c0.275,0.275,0.483,0.598,0.62,0.967
		c0.188,0.093,0.393,0.138,0.622,0.138c0.232,0,0.461,0,0.692,0h2.144c2.395,3.179,4.698,6.405,6.911,9.675
		c0.504,0.691,0.978,1.406,1.416,2.143s0.979,1.291,1.625,1.658c-0.785,0.093-1.396,0.46-1.834,1.105
		c-0.438,0.646-0.654,1.337-0.654,2.074c0,0.646,0.159,1.199,0.483,1.658c0.321,0.461,0.701,0.854,1.139,1.176
		c0.438,0.322,0.921,0.586,1.451,0.793c0.529,0.207,1.002,0.381,1.416,0.52c0.046,0.23,0.081,0.474,0.104,0.726
		c0.021,0.254,0.032,0.496,0.032,0.726c0,0.877-0.127,1.729-0.379,2.559c-0.255,0.83-0.635,1.451-1.142,1.867
		c-0.507-0.139-0.944-0.207-1.312-0.207c-0.968,0-1.764,0.32-2.384,0.967c-0.623,0.646-0.933,1.498-0.933,2.557
		c0,1.336,0.229,2.58,0.688,3.73c0.46,1.154,1.083,2.145,1.865,2.973c0.784,0.83,1.659,1.475,2.627,1.938
		c0.967,0.459,1.98,0.689,3.041,0.689c0.968,0,1.911-0.16,2.833-0.482c0.921-0.323,1.705-0.809,2.354-1.451
		c0.229-0.229,0.447-0.518,0.652-0.864c0.209-0.347,0.426-0.519,0.657-0.519c0.183,0,0.392,0.14,0.623,0.414
		c0.229,0.275,0.461,0.508,0.689,0.691c0.646,0.781,1.438,1.348,2.384,1.691c0.942,0.346,1.81,0.52,2.592,0.52
		c0.875,0,1.718-0.174,2.521-0.52c0.808-0.346,1.512-0.807,2.109-1.383c0.599-0.574,1.071-1.267,1.416-2.072
		c0.345-0.805,0.52-1.67,0.52-2.592c0-1.383-0.286-2.648-0.862-3.803c-0.576-1.15-1.211-2.003-1.9-2.556
		c-0.186-0.14-0.382-0.254-0.588-0.347c-0.208-0.092-0.394-0.207-0.553-0.346c-0.162-0.139-0.302-0.334-0.414-0.588
		c-0.116-0.254-0.174-0.609-0.174-1.072c0-0.967,0.183-1.635,0.553-2.004c0.368-0.367,0.759-0.68,1.176-0.934
		c0.414-0.252,0.808-0.527,1.174-0.83c0.367-0.297,0.555-0.84,0.555-1.623c0-0.646-0.162-1.221-0.483-1.729
		c-0.322-0.508-0.484-0.967-0.484-1.383c0-0.229,0.162-0.54,0.484-0.933c0.321-0.391,0.6-0.749,0.828-1.07
		c1.292-1.613,2.465-3.167,3.523-4.666c1.062-1.496,2.235-3.051,3.524-4.665c0.321-0.415,0.622-0.83,0.897-1.244
		c0.276-0.414,0.563-0.795,0.864-1.14c0.3-0.346,0.634-0.633,1.002-0.865c0.368-0.23,0.808-0.345,1.312-0.345
		c0.553,0,1.117,0.046,1.694,0.138c0.571,0.093,1.113,0.138,1.621,0.138c0.23,0,0.528-0.045,0.899-0.138
		c0.09-1.244,0.147-2.384,0.171-3.42c0.023-1.037,0.035-2.246,0.035-3.629c-0.186-0.275-0.426-0.621-0.725-1.035
		c-0.303-0.416-0.657-0.818-1.071-1.211c-0.414-0.389-0.854-0.725-1.315-1.002c-0.46-0.275-0.921-0.414-1.382-0.414
		c-2.854,0-5.665-0.045-8.431-0.138c-2.764-0.093-5.506-0.139-8.224-0.139c-0.555,0-1.117,0.012-1.693,0.035
		c-0.576,0.024-1.164,0.035-1.761,0.035c-0.048,1.153-0.116,2.269-0.209,3.351c-0.095,1.083-0.141,2.085-0.141,3.006
		c0,0.323,0.069,0.715,0.208,1.176c0.142,0.46,0.333,0.91,0.588,1.347c0.252,0.439,0.574,0.83,0.97,1.175
		c0.391,0.346,0.84,0.588,1.347,0.729c-0.689,1.06-1.404,2.097-2.146,3.109c-0.733,1.014-1.544,1.981-2.418,2.902
		c-0.688-0.967-1.382-1.991-2.072-3.075c-0.689-1.082-1.242-2.153-1.656-3.213c0.09-0.046,0.298-0.069,0.622-0.069
		c0.922,0,1.472-0.219,1.657-0.656c0.185-0.437,0.276-1.325,0.276-2.662c0-1.426-0.186-2.705-0.554-3.835
		C502.224,176.241,501.441,175.076,500.245,173.878z M505.565,188.391c-0.188,0.046-0.46,0.07-0.831,0.07l0.276,0.623
		L505.565,188.391z M507.086,184.659c0,0.37-0.012,0.692-0.034,0.969c-0.021,0.275-0.035,0.53-0.035,0.759
		c0.095-0.229,0.206-0.438,0.347-0.622c0.139-0.184,0.276-0.391,0.414-0.623C507.5,185.004,507.269,184.843,507.086,184.659z"/>
	<path d="M561.265,172.564c3.73,0,6.989,0.737,9.778,2.211c2.786,1.476,5.146,3.411,7.085,5.806l1.865,1.797
		c2.073,1.935,3.66,4.239,4.767,6.911c1.107,2.672,1.799,5.437,2.074,8.292l3.524,3.594c1.104,1.105,1.658,2.466,1.658,4.076
		c0,0.877-0.357,1.763-1.07,2.662c-0.715,0.898-1.647,1.348-2.803,1.348H587.8c-0.092,0-0.162-0.01-0.205-0.034
		c-0.047-0.022-0.114-0.033-0.209-0.033c0-0.047-0.058,0.033-0.174,0.242c-0.115,0.207-0.252,0.472-0.414,0.793
		s-0.321,0.646-0.481,0.97c-0.162,0.321-0.269,0.528-0.312,0.62c-0.785,2.074-1.787,4.009-3.007,5.806
		c-1.223,1.797-2.673,3.352-4.354,4.666c-1.683,1.312-3.604,2.336-5.771,3.076c-2.166,0.735-4.631,1.104-7.396,1.104
		c-3.314,0-6.21-0.563-8.672-1.693c-2.468-1.129-4.597-2.592-6.396-4.389l-1.173-1.104c-1.706-1.289-3.203-2.767-4.492-4.425
		c-1.292-1.659-2.465-3.454-3.524-5.389c-0.23-0.14-0.461-0.277-0.69-0.416c-0.231-0.14-0.438-0.322-0.62-0.554l-2.354-2.35
		c-0.921-0.508-1.655-1.232-2.21-2.176c-0.553-0.943-0.831-1.877-0.831-2.801c0-1.197,0.384-2.083,1.143-2.659
		c0.762-0.577,1.765-0.888,3.007-0.934c0.183-3.456,0.747-6.691,1.694-9.71c0.939-3.017,2.337-5.667,4.18-7.948
		c1.842-2.279,4.146-4.077,6.91-5.39C554.216,173.22,557.485,172.564,561.265,172.564z M583.034,196.615
		c0-2.902-0.478-5.746-1.417-8.534c-0.946-2.788-2.34-5.288-4.184-7.499c-1.843-2.211-4.125-3.985-6.842-5.322
		c-2.72-1.335-5.83-2.004-9.329-2.004c-3.731,0-6.96,0.658-9.677,1.97c-2.72,1.313-4.964,3.11-6.736,5.392
		c-1.773,2.281-3.1,4.941-3.974,7.982c-0.878,3.04-1.385,6.267-1.521,9.675h-0.484c-1.106,0-1.995,0.23-2.661,0.691
		c-0.669,0.46-1.002,1.198-1.002,2.21c0,0.554,0.115,1.13,0.345,1.73c0.231,0.6,0.564,1.129,1.002,1.59
		c0.438,0.459,0.944,0.84,1.521,1.139c0.577,0.301,1.211,0.449,1.897,0.449h0.417c0.97,2.121,2.083,4.172,3.354,6.149
		c1.266,1.981,2.763,3.731,4.492,5.252c1.727,1.521,3.707,2.742,5.941,3.664c2.233,0.922,4.851,1.382,7.843,1.382
		c2.673,0,5.081-0.369,7.223-1.105c2.144-0.734,4.032-1.738,5.668-3.006c1.637-1.267,3.053-2.773,4.252-4.525
		c1.196-1.75,2.187-3.639,2.972-5.666c0.229-0.555,0.449-1.188,0.654-1.902c0.209-0.715,0.589-1.07,1.142-1.07
		c0.141,0,0.275,0.013,0.414,0.035c0.142,0.023,0.252,0.035,0.347,0.035c1.014,0,1.834-0.393,2.451-1.176
		c0.623-0.783,0.938-1.564,0.938-2.352c0-1.38-0.483-2.59-1.454-3.626C585.658,197.132,584.462,196.615,583.034,196.615z
		 M563.18,184.521c0.604,0.276,1.112,0.702,1.529,1.278c0.417,0.577,0.741,1.268,0.973,2.073c0.232,0.807,0.405,1.671,0.521,2.592
		c0.116,0.923,0.174,1.821,0.174,2.695c0,1.383-0.069,2.581-0.206,3.594c-0.802,0.323-1.509,0.667-2.122,1.037
		c-0.614,0.369-0.919,1.082-0.919,2.142c0,0.921,0.299,1.763,0.898,2.522c0.599,0.76,1.381,1.142,2.349,1.142
		c0.139,0,0.252,0.149,0.348,0.448c0.092,0.302,0.171,0.633,0.24,1.002s0.116,0.726,0.141,1.07c0.021,0.346,0.033,0.588,0.033,0.727
		c0,2.074-0.576,3.789-1.729,5.148s-2.627,2.039-4.422,2.039c-0.785,0-1.544-0.15-2.279-0.449c-0.739-0.301-1.396-0.727-1.97-1.279
		c-0.576-0.553-1.037-1.196-1.387-1.936c-0.345-0.736-0.519-1.521-0.519-2.352c0-0.781,0.093-1.461,0.278-2.037
		c0.183-0.576,0.438-1.117,0.759-1.625c0.875-0.09,1.659-0.447,2.352-1.07c0.689-0.621,1.037-1.324,1.037-2.107
		c0-0.921-0.324-1.693-0.968-2.316c-0.646-0.621-1.291-1.185-1.938-1.693l-0.204-0.137l-0.414-0.277v-1.313
		c0-1.381,0.067-2.74,0.208-4.078c0.139-1.335,0.403-2.533,0.8-3.593c0.394-1.06,0.973-1.923,1.737-2.592
		c0.765-0.666,1.773-1.002,3.025-1.002C562.019,184.174,562.574,184.291,563.18,184.521z M565.618,193.16
		c0-0.875-0.046-1.738-0.141-2.591c-0.093-0.853-0.255-1.67-0.482-2.455c-1.152,0-2.073,0.312-2.763,0.934
		c-0.692,0.621-1.233,1.451-1.625,2.488c-0.393,1.037-0.646,2.2-0.764,3.49c-0.111,1.29-0.171,2.581-0.171,3.87v0.553l2.074,2.073
		c0.414,0.414,0.759,0.875,1.033,1.381c0.276,0.508,0.418,1.084,0.418,1.729c0,0.877-0.371,1.648-1.106,2.316
		c-0.739,0.668-1.565,1.115-2.486,1.348c-0.231,0.461-0.428,0.945-0.59,1.451c-0.16,0.508-0.238,1.082-0.238,1.728
		c0,0.508,0.064,0.991,0.208,1.452c0.603,0.275,1.275,0.414,2.021,0.414c1.628,0,2.952-0.623,3.977-1.866
		c1.021-1.244,1.532-2.785,1.532-4.63v-1.174l-1.758-1.729c-0.704-0.367-1.266-0.91-1.686-1.625
		c-0.423-0.715-0.634-1.508-0.634-2.384c0-1.244,0.298-2.084,0.896-2.522c0.6-0.438,1.314-0.84,2.145-1.209
		c0.047-0.46,0.08-0.956,0.104-1.486C565.606,194.187,565.618,193.667,565.618,193.16z M582.55,208.293
		c0.09-0.09,0.137-0.229,0.137-0.414L582.55,208.293z"/>
	<path d="M594.089,184.106c-0.367-0.092-0.634-0.242-0.793-0.45c-0.162-0.207-0.311-0.449-0.449-0.726
		c0-0.138-0.081-0.321-0.243-0.552c-0.16-0.23-0.285-0.391-0.38-0.483l-0.272-0.277c-0.371-0.323-0.683-0.714-0.935-1.176
		c-0.255-0.459-0.383-1.128-0.383-2.004c0-0.368,0.012-0.771,0.035-1.209c0.022-0.438,0.058-0.84,0.104-1.209
		c0-0.138,0.012-0.321,0.033-0.553c0.023-0.229,0.035-0.459,0.035-0.691c0-0.368,0.069-0.735,0.205-1.104l-0.064-1.037h6.286
		c2.765,0,5.622,0.012,8.57,0.035s5.804,0.058,8.567,0.103c0.093,0,0.194-0.01,0.312-0.035c0.113-0.022,0.217-0.034,0.312-0.034
		h1.521c0.461,0,1.106,0.242,1.938,0.726c0.831,0.484,1.497,1.186,2.004,2.107l2.349,2.35l0.209-1.313
		c0-0.091,0.012-0.23,0.034-0.414c0.022-0.184,0.035-0.323,0.035-0.416c0.046-0.277,0.081-0.563,0.104-0.863
		c0.022-0.3,0.034-0.563,0.034-0.795v-1.037c0.922-0.045,1.924-0.069,3.007-0.069c1.08,0,2.015,0,2.798,0c1.149,0,2.258,0,3.316,0
		s2.12,0.024,3.18,0.069c0.368,0,0.84,0.012,1.417,0.035c0.576,0.023,1.097,0.035,1.557,0.035h5.182
		c0.371,0.369,0.704,0.725,1.002,1.071c0.302,0.345,0.588,0.726,0.866,1.14l1.521,1.451c0.736,0.737,1.405,1.532,2.005,2.385
		c0.599,0.853,0.897,1.923,0.897,3.213c0,0.507-0.012,1.036-0.035,1.589c-0.021,0.553-0.058,1.106-0.104,1.66
		c0,0.321-0.014,0.725-0.035,1.209c-0.023,0.484-0.035,0.841-0.035,1.07c-0.274,0.093-0.518,0.139-0.724,0.139
		c-0.209,0-0.405,0-0.588,0h-1.178c-0.23,0-0.426-0.011-0.588-0.035c-0.162-0.023-0.333-0.035-0.519-0.035h-0.689
		c-0.229,1.89-0.358,3.79-0.38,5.702c-0.025,1.913-0.034,3.627-0.034,5.148l2.487,2.626c0.368,0.371,0.667,0.795,0.896,1.279
		c0.229,0.482,0.347,1.117,0.347,1.898c0,1.106-0.321,2.029-0.97,2.766c-0.646,0.736-1.428,1.359-2.349,1.865
		c-0.461,2.857-1.151,5.426-2.074,7.705c-0.921,2.281-2.199,4.217-3.834,5.807c-1.637,1.59-3.688,2.811-6.15,3.662
		c-2.465,0.854-5.473,1.277-9.021,1.277c-4.236,0-7.89-0.562-10.954-1.691c-3.062-1.129-5.631-2.729-7.704-4.805l-1.449-1.449
		c-2.074-1.564-3.805-3.479-5.187-5.736c-1.382-2.256-2.465-4.838-3.247-7.74l-0.276-1.037c0-0.045-0.013-0.08-0.034-0.104
		c-0.023-0.023-0.035-0.08-0.035-0.172c-0.046-0.047-0.066-0.094-0.066-0.141c0-0.043-0.024-0.113-0.067-0.207l-1.937-1.935
		c-0.51-0.276-0.936-0.622-1.278-1.036c-0.347-0.414-0.542-1.013-0.59-1.798v-0.277c0-1.059,0.393-1.888,1.178-2.488
		c0.78-0.598,1.702-0.898,2.763-0.898c0.417,0,0.854,0.046,1.314,0.138v-2.556c0-0.553,0.013-1.116,0.033-1.694
		c0.023-0.575,0.058-1.209,0.104-1.9c0-0.459,0.009-0.956,0.032-1.486c0.021-0.528,0.032-1.047,0.032-1.555
		c-0.093-0.091-0.136-0.183-0.136-0.275L594.089,184.106z M619.938,183.553c0.093-0.921,0.174-1.888,0.242-2.902
		c0.069-1.014,0.104-2.119,0.104-3.318c0-0.598-0.15-1.151-0.448-1.658c-0.302-0.507-0.646-0.921-1.037-1.244
		c-0.394-0.323-0.797-0.577-1.211-0.76c-0.414-0.184-0.759-0.277-1.037-0.277c-0.319,0-0.669,0.012-1.036,0.035
		c-0.366,0.023-0.734,0.033-1.104,0.033c-2.766-0.045-5.619-0.08-8.567-0.103c-2.947-0.023-5.808-0.035-8.568-0.035h-5.601v0.346
		c0,0.737-0.059,1.532-0.171,2.383c-0.116,0.854-0.174,1.648-0.174,2.384c0,0.922,0.159,1.58,0.481,1.971
		c0.321,0.391,0.666,0.793,1.037,1.209c0.185,0.23,0.333,0.46,0.449,0.691c0.112,0.23,0.252,0.438,0.414,0.621
		c0.162,0.186,0.356,0.323,0.588,0.416c0.229,0.093,0.576,0.138,1.037,0.138h1.173c0.555,0,0.909,0.127,1.071,0.381
		c0.162,0.254,0.243,0.565,0.243,0.933v0.76c0,1.337-0.046,2.707-0.141,4.111c-0.093,1.406-0.139,2.776-0.139,4.113v1.451
		c0,0.369-0.012,0.726-0.035,1.072c-0.021,0.345-0.102,0.656-0.239,0.933c-0.601-0.23-1.177-0.346-1.729-0.346
		c-0.875,0-1.634,0.231-2.279,0.691c-0.646,0.462-0.968,1.129-0.968,2.004v0.277c0.047,0.553,0.209,0.993,0.484,1.312
		c0.272,0.324,0.609,0.601,1.002,0.83c0.391,0.23,0.771,0.449,1.142,0.656c0.367,0.207,0.666,0.475,0.897,0.795
		c0.183,0.277,0.319,0.668,0.414,1.174c0.093,0.509,0.209,0.992,0.345,1.451c0.738,2.767,1.764,5.242,3.076,7.43
		c1.312,2.189,2.96,4.044,4.938,5.564c1.981,1.521,4.321,2.684,7.018,3.488c2.694,0.807,5.813,1.209,9.361,1.209
		c3.502,0,6.462-0.414,8.881-1.242c2.42-0.83,4.436-2.039,6.049-3.629c1.611-1.59,2.865-3.502,3.769-5.734
		c0.897-2.233,1.553-4.78,1.97-7.639c0.921-0.459,1.691-1.035,2.313-1.729c0.623-0.691,0.933-1.564,0.933-2.625
		c0-0.967-0.195-1.716-0.588-2.246c-0.391-0.529-0.814-0.967-1.277-1.313c-0.46-0.345-0.889-0.667-1.278-0.967
		c-0.393-0.298-0.585-0.726-0.585-1.279c0-1.612,0.021-3.397,0.065-5.355s0.187-3.927,0.417-5.909
		c0.184-0.046,0.367-0.069,0.555-0.069c0.183,0,0.366,0,0.551,0c0.37,0,0.75,0.012,1.141,0.035c0.394,0.022,0.771,0.035,1.144,0.035
		c0.365,0,0.643-0.023,0.827-0.069c0.047-0.921,0.094-1.797,0.14-2.627c0.047-0.828,0.067-1.658,0.067-2.488
		c0-1.196-0.275-2.187-0.83-2.972c-0.551-0.782-1.148-1.496-1.797-2.142h-2.004c-2.025,0-4.043-0.023-6.048-0.069
		c-2.004-0.045-4.108-0.068-6.322-0.068c-0.783,0-1.602,0-2.452,0c-0.854,0-1.74,0.023-2.661,0.068v0.346
		c0,0.783-0.069,1.623-0.205,2.522c-0.142,0.898-0.209,1.739-0.209,2.523c0,0.369,0.047,0.783,0.139,1.244
		c0.044,0.23,0.171,0.53,0.38,0.898c0.209,0.37,0.449,0.737,0.729,1.106c0.273,0.369,0.551,0.691,0.828,0.967
		c0.273,0.277,0.528,0.415,0.76,0.415c0.139,0,0.301-0.01,0.481-0.035c0.188-0.021,0.371-0.035,0.554-0.035
		c0.367,0,0.61,0.242,0.729,0.726c0.113,0.484,0.171,1.027,0.171,1.625c0,3.916-0.137,7.671-0.414,11.264
		c-0.414-0.183-0.875-0.275-1.382-0.275c-0.968,0-1.771,0.344-2.418,1.035c-0.646,0.692-0.968,1.499-0.968,2.42
		c0,0.967,0.158,1.648,0.481,2.039c0.321,0.393,0.666,0.727,1.037,1.002c0.368,0.277,0.713,0.588,1.037,0.934
		c0.321,0.347,0.482,0.957,0.482,1.832c0,1.244-0.221,2.361-0.656,3.353c-0.438,0.991-1.002,1.832-1.691,2.522
		c-0.691,0.689-1.453,1.232-2.281,1.623c-0.828,0.394-1.612,0.588-2.351,0.588c-0.828,0-1.624-0.174-2.383-0.52
		c-0.762-0.346-1.442-0.828-2.039-1.449c-0.6-0.623-1.072-1.359-1.417-2.211c-0.349-0.854-0.52-1.764-0.52-2.73
		c0-0.969,0.156-1.911,0.477-2.834c1.179-0.092,2.12-0.588,2.823-1.485c0.7-0.897,1.055-1.899,1.055-3.006
		c0-0.735-0.124-1.347-0.373-1.832c-0.25-0.483-0.58-0.897-0.987-1.244c-0.404-0.345-0.85-0.631-1.322-0.863
		c-0.478-0.23-0.941-0.46-1.396-0.691v-2.211c0-0.737-0.012-1.463-0.034-2.178c-0.021-0.712-0.033-1.461-0.033-2.246
		c0-0.875,0.021-1.738,0.067-2.591c0.047-0.852,0.142-1.693,0.278-2.522c0.688-0.138,1.451-0.208,2.278-0.208
		c0.508,0,0.979,0.012,1.416,0.035c0.438,0.023,0.909,0.035,1.418,0.035c0.229,0,0.472,0,0.727,0
		C619.464,183.624,619.707,183.6,619.938,183.553z M616.689,210.92c0,0.414,0.021,0.808,0.067,1.174
		c0.046,0.371,0.14,0.738,0.281,1.105c0.604,0.322,1.303,0.484,2.097,0.484c0.701,0,1.422-0.174,2.169-0.52
		c0.745-0.347,1.434-0.84,2.053-1.484c0.622-0.646,1.13-1.43,1.521-2.352c0.393-0.92,0.588-1.935,0.588-3.041
		c0-0.554-0.115-0.968-0.345-1.244c-0.231-0.277-0.46-0.529-0.691-0.76c-0.508-0.369-0.968-0.808-1.382-1.312
		c-0.414-0.506-0.623-1.336-0.623-2.488c0-1.152,0.383-2.13,1.144-2.937c0.759-0.807,1.735-1.21,2.937-1.21
		c0.321,0,0.576,0.024,0.764,0.069c0.09-1.612,0.171-3.305,0.238-5.079c0.069-1.774,0.104-3.537,0.104-5.287l-1.729-1.658
		c-0.272-0.139-0.553-0.346-0.828-0.623c-0.273-0.277-0.553-0.598-0.826-0.968c-0.051,0.784-0.098,1.532-0.144,2.246
		c-0.047,0.714-0.116,1.395-0.209,2.039l-0.417,0.415c-0.234,0.046-0.489,0.069-0.768,0.069c-0.281,0-0.536,0-0.771,0h-1.463
		c-0.234,0-0.466-0.012-0.7-0.035c-0.23-0.023-0.464-0.035-0.698-0.035c-0.276,0-0.594,0.011-0.939,0.035
		c-0.348,0.023-0.663,0.058-0.941,0.103c-0.139,0.785-0.22,1.567-0.242,2.351c-0.022,0.783-0.034,1.567-0.034,2.35
		c0,0.37,0.012,0.749,0.034,1.14c0.022,0.392,0.034,0.771,0.034,1.14v2.695c0.231,0.277,0.393,0.553,0.483,0.83l2.488,2.418
		c0.365,0.369,0.655,0.795,0.863,1.277c0.206,0.483,0.312,1.071,0.312,1.764c0,1.199-0.371,2.271-1.106,3.213
		c-0.734,0.945-1.727,1.531-2.972,1.762c-0.141,0.463-0.232,0.877-0.275,1.244C616.712,210.185,616.689,210.551,616.689,210.92z"/>
</g>
<g>
	<path fill="none" d="M666,242.834H134c-1.381,0-2.5-1.119-2.5-2.5v-80.667c0-1.381,1.119-2.5,2.5-2.5h532
		c1.381,0,2.5,1.119,2.5,2.5v80.667C668.5,241.715,667.381,242.834,666,242.834z"/>
</g>
</svg>
