<!--?xml version="1.0" encoding="utf-8"?-->
<!-- Generator: Adobe Illustrator 17.0.2, SVG Export Plug-In . SVG Version: 6.00 Build 0)  -->

<svg version="1.1" id="Layer_1" xmlns="http://www.w3.org/2000/svg" xmlns:xlink="http://www.w3.org/1999/xlink" x="0px" y="0px" width="691.389px" height="445.444px" viewBox="0 0 691.389 445.444" enable-background="new 0 0 691.389 445.444" xml:space="preserve">
<path fill="none" d="M 260.219 380.978 C 238.34 373.447 245.213 320.503 252.358 305.422 C 258.437 292.592 267.899 280.915 279.555 279.742 C 255.787 276.97 264.588 252.938 237.703 304.594 C 217.849 342.74 178.298 360.232 137.62 362.094 C 105.907 363.545 76.7887 365.65 52.4888 340.015 C 41.2946 328.206 11.0956 248.964 19.3353 230.38 C 30.9376 180.567 110.288 188.802 145.025 184.812 C 112.111 139.952 196.523 68.7372 215.808 60.2851 C 276.258 33.791 372.382 22.9918 464.958 55.7063 C 526.007 77.2797 574.139 113.95 592.309 146.544 C 604.038 162.376 646.483 181.23 644.859 208.749 C 643.826 226.264 626.391 230.612 611.713 225.89 C 593.573 220.054 579.915 251.462 544.39 270.054 C 559.201 312.813 578.542 408.835 502.648 360.543 C 483.859 348.587 454.295 350.741 447.073 327.907 C 441.942 311.684 382.391 347.8 356.163 326.568 C 354.858 345.353 289.469 390.356 260.219 380.978"></path>
<g>
	<g id="levels_0_x2C_1_x2C_2">
		<g>
			<path fill="#FFE563" stroke="#E8D46D" stroke-width="3.1718" stroke-miterlimit="10" d="M 592.823 209.836 C 589.608 214.345 566.65 235.561 542.096 251.201 C 519.269 265.74 509.975 269.16 492.383 273.669 C 475.307 278.047 456.904 285.778 443.148 285.623 C 429.887 285.472 413.967 293.668 407.439 295.54 C 400.484 297.536 382.329 303.52 376.631 305.001 C 370.374 306.628 363.244 308.495 358.623 307.434 C 354.937 306.588 340.074 304.067 332.906 298.544 C 326.372 293.51 319.483 290.615 311.416 280.531 C 303.42 270.537 294.414 262.444 282.464 249.668 C 270.677 237.066 260.956 219.794 246.225 208.175 C 231.529 196.585 220.027 188.525 210.61 184.246 C 201.393 180.059 196.113 175.292 187.846 176.776 C 195.869 186.732 236.63 235.271 254.35 248.328 C 273.657 262.555 282.984 270.155 297.799 279.4 C 311.581 288.001 339.537 311.252 368.165 319.364 C 400.21 328.444 431.624 313.551 453.788 302.359 C 479.443 289.405 510.723 277.61 528.737 268.116 C 547.066 258.455 560.378 249.275 568.163 242.43 C 576.293 235.28 588.414 224.742 592.823 209.836"></path>
			<path fill="#7BD968" stroke="#598C4E" stroke-width="3.1718" stroke-miterlimit="10" d="M 55.8788 272.81 C 55.5006 282.106 52.9563 309.84 67.7546 325.113 C 92.7138 350.873 127.375 340.667 136.746 340.492 C 145.273 340.332 191.962 342.006 220.643 293.513 C 248.563 246.308 262.316 240.507 270.638 235.236 C 263.3 225.874 255.982 215.803 246.219 208.158 C 231.507 196.639 220.038 188.517 210.612 184.238 C 201.411 180.062 196.061 175.342 187.893 176.738 C 186.984 176.893 187.037 176.952 185.837 177.269 C 181.27 187.732 163.775 200.603 148.426 201.199 C 133.633 201.774 108.6 203.542 101.17 203.961 C 95.8266 204.263 91.3512 209.318 89.2587 210.296 C 74.7368 220.411 56.8243 249.568 55.8788 272.81"></path>
			<path fill="#7BD968" stroke="#598C4E" stroke-width="3.1718" stroke-miterlimit="10" d="M 349.558 305.382 C 344.043 304.146 337.149 301.644 332.951 298.544 C 326.261 293.604 319.544 290.53 311.422 280.554 C 309.344 278.003 307.856 276.007 304.889 273.166 C 298.972 280.241 280.129 290.546 274.398 295.409 C 268.757 300.196 259.26 312.251 260.622 328.018 C 262.057 344.642 258.785 348.506 258.749 355.194 C 258.712 362.1 257.099 367.211 264.679 369.86 C 272.995 372.768 279.197 368.267 287.503 363.308 C 295.569 358.493 309.054 353.841 321.752 346.008 C 332.123 339.611 338.773 335.079 343.088 329.769 C 347.079 324.857 350.237 306.596 349.399 305.841 C 349.78 306.483 349.744 305.314 349.668 305.401 C 349.74 305.464 349.954 305.5 349.558 305.382"></path>
			<path fill="#7BD968" stroke="#598C4E" stroke-width="3.1718" stroke-miterlimit="10" d="M 594.652 208.162 C 600.924 202.546 606.726 191.064 609.738 190.962 C 614.238 190.809 617.817 194.195 618.843 193.098 C 626.938 195.985 634.753 201.524 634.382 207.961 C 633.989 214.784 631.686 214.329 628.539 216.501 C 625.757 218.422 620.56 217.654 615.958 215.76 C 612.155 214.195 599.314 210.942 594.652 208.162"></path>
			<path fill="#7BD968" stroke="#598C4E" stroke-width="3.1718" stroke-miterlimit="10" d="M 525.74 260.837 C 513.797 267.927 505.071 270.35 492.367 273.62 C 482.114 276.259 470.915 280.666 460.741 282.697 C 455.631 300.715 447.331 324 470.981 336.843 C 484.072 343.953 491.837 342.966 499.821 345.199 C 508.519 347.631 519.553 360.893 533.445 361.296 C 540.921 361.513 543.388 360.626 547.072 355.101 C 550.769 349.558 551.61 348.64 551.399 343.225 C 551.209 338.332 550.339 320.635 545.238 311.086 C 540.389 302.011 535.284 287.35 533.807 280.946 C 532.3 274.416 525.679 261.509 525.222 261.685 C 524.803 261.856 526.262 260.874 526.09 260.612 C 526.087 260.885 526.352 260.746 525.948 260.683 C 526.122 260.896 526.539 260.587 525.74 260.837"></path>
			<path fill="#94AEFF" stroke="#4464C7" stroke-width="3.1718" stroke-miterlimit="10" d="M 89.2564 210.295 C 99.3969 212.062 104.308 228.495 104.26 228.318 C 112.828 225.727 117.288 227.064 120.221 228.382 C 122.984 217.634 133.215 205.294 146.104 206.157 C 159.115 207.028 170.849 206.896 178.556 230.32 C 196.48 230.084 210.874 221.528 216.608 222.861 C 222.796 224.299 228.055 228.283 228.859 230.157 C 229.788 232.323 233.883 239.807 234.174 242.21 C 234.496 244.864 233.975 249.117 230.954 249.846 C 228.331 250.479 224.349 247.915 223.145 245.012 C 222.062 242.402 221.858 238.252 219.393 236.846 C 217.243 235.621 213.868 236.365 211.618 237.031 C 210.121 237.474 182.833 244.156 178.818 245.465 C 178.287 255.337 168.892 272.925 149.234 273.696 C 129.892 274.454 126.483 267.187 124.707 259.787 C 123.004 252.686 121.412 246.841 121.284 246.746 C 112.17 247.532 113.843 247.233 107.657 247.068 C 103.99 259.55 95.0733 277.065 74.6053 277.433 C 54.2038 277.8 43.5994 267.042 45.9777 241.621 C 35.4312 240.406 39.1757 238.673 39.1577 238.556 C 41.2204 225.736 41.2234 225.711 41.2016 225.611 C 41.2207 225.708 55.2003 226.429 55.182 226.278 C 58.2484 209.068 82.7299 209.159 89.2564 210.295"></path>
			<path fill="#FFFFFF" stroke="#4464C7" stroke-width="3.1718" stroke-miterlimit="10" d="M 67.7341 223.392 C 79.4701 218.168 94.5652 226.9 96.6042 233.158 C 98.7836 239.846 96.6116 259.428 87.1162 264.651 C 77.5798 269.896 61.8006 268.684 58.5451 260.407 C 55.4565 252.554 54.3335 229.358 67.7341 223.392"></path>
			<path fill="#E0B577" stroke="#A87C3B" stroke-width="3.1718" stroke-miterlimit="10" d="M 69.182 242.32 C 71.9915 238.479 83.2338 238.373 86.1766 242.294 C 89.3743 246.555 87.1924 251.775 84.1779 253.347 C 81.0651 254.971 71.9753 261.232 69.1401 256.259 C 66.518 251.66 65.3896 247.505 69.182 242.32"></path>
			<path fill="#FFFFFF" stroke="#4464C7" stroke-width="3.1718" stroke-miterlimit="10" d="M 133.451 255.572 C 128.365 243.082 128.498 231.744 133.151 226.065 C 137.849 220.333 151.013 216.74 160.368 225.916 C 170.04 235.405 172.775 242.983 170.573 247.923 C 168.319 252.978 160.999 262.837 153.419 263.163 C 146.171 263.475 136.332 262.647 133.451 255.572"></path>
			<path fill="#E0B577" stroke="#A87C3B" stroke-width="3.1718" stroke-miterlimit="10" d="M 141.53 238.153 C 144.66 235.704 156.384 239.504 157.324 241.328 C 158.496 243.597 157.27 248.849 155.521 248.923 C 153.915 248.991 143.185 253.887 140.315 248.721 C 137.657 243.936 136.935 241.749 141.53 238.153"></path>
			<path fill="#C79C52" stroke="#806434" stroke-width="3.1718" stroke-miterlimit="10" d="M 481.201 78.4235 C 456.837 68.8999 413.912 58.2519 389.797 53.4024 C 374.921 50.4109 352.355 50.0225 331.739 51.5841 C 338.346 58.0198 351.421 78.613 354.796 103.645 C 377.85 96.7976 439.794 103.653 457.799 110.299 C 467.435 103.959 478.976 87.955 481.201 78.4235"></path>
			<path fill="#C79C52" stroke="#806434" stroke-width="3.1718" stroke-miterlimit="10" d="M 498.81 156.845 C 494.72 140.48 478.05 126.53 457.908 110.304 C 467.298 103.957 479.031 87.938 481.214 78.4352 C 486.912 80.2717 491.873 82.883 494.906 84.4095 C 516.588 95.3235 554.101 118.39 564.609 129.29 C 574.712 139.769 581.998 151.19 585.43 157.251 C 569.77 153.847 538.633 150.22 523.779 151.253 C 510.203 152.197 499.106 156.988 498.81 156.845"></path>
			<path fill="#C79C52" stroke="#806434" stroke-width="3.1718" stroke-miterlimit="10" d="M 585.361 157.214 C 569.867 153.915 538.571 150.175 523.789 151.262 C 510.214 152.259 499.063 156.88 498.845 156.917 C 492.713 160.899 465.438 200.555 465.149 200.847 C 463.945 214.564 470.935 217.034 474.135 224.574 C 477.502 232.508 478.468 246.127 475.367 260.295 C 491.472 257.593 513.562 252.427 537.621 237.501 C 565.33 220.31 567.751 212.932 580.115 199.266 C 590.487 187.8 598.064 177.717 608.124 177.624 C 608.573 177.795 608.493 177.737 608.159 177.661 C 600.524 173.469 591.481 164.902 587.577 160.153 C 587.089 159.559 586.768 158.413 585.361 157.214"></path>
			<path fill="#C79C52" stroke="#806434" stroke-width="3.1718" stroke-miterlimit="10" d="M 376.233 191.123 C 351.261 217.266 356.728 273.251 353.795 285.934 C 357.203 286.477 358.018 286.497 360.089 286.244 C 381.525 283.62 387.367 281.932 400.298 275.851 C 414.693 269.081 423.713 269.483 431.759 267.733 C 440.33 265.87 454.115 265.814 469.113 261.804 C 471.306 261.218 473.363 261.346 475.411 260.283 C 478.429 246.154 477.516 232.481 474.131 224.595 C 470.837 216.919 464.243 214.696 464.882 200.787 C 458.877 194.1 419.592 181.737 376.233 191.123"></path>
			<path fill="#C79C52" stroke="#806434" stroke-width="3.1718" stroke-miterlimit="10" d="M 457.827 110.293 C 439.78 103.664 377.827 96.7755 354.829 103.656 C 346.699 106.088 335.272 117.522 333.698 126.798 C 340.4 134.703 357.833 153.982 363.393 162.546 C 369.21 171.504 375.643 187.843 376.273 191.286 C 419.567 181.507 458.854 194.225 464.916 200.771 C 465.73 200.655 492.562 160.852 498.842 156.916 C 494.618 140.378 478.178 126.594 457.827 110.293"></path>
			<path fill="#C79C52" stroke="#806434" stroke-width="3.1718" stroke-miterlimit="10" d="M 333.7 126.587 C 306.343 129.567 273.286 143.898 265.232 148.054 C 255.916 152.861 255.82 187.944 257.637 200.951 C 265.755 208.521 272.968 216.027 279.629 223.894 C 308.099 257.526 316.786 268.621 326.242 275.619 C 333.555 281.031 339.543 285.94 353.894 286.033 C 356.639 273.042 351.24 217.489 376.3 191.006 C 375.663 188.217 369.124 171.306 363.44 162.575 C 357.745 153.828 340.456 134.984 333.7 126.587"></path>
			<path fill="#C79C52" stroke="#806434" stroke-width="3.1718" stroke-miterlimit="10" d="M 333.761 126.633 C 306.162 129.293 273.494 144.294 265.153 147.874 C 248.437 122.788 215.817 90.2252 204.574 86.0617 C 206.823 84.2171 208.677 82.6674 210.853 81.3644 C 226.272 72.1349 259.133 60.2647 283.86 55.8783 C 295.655 53.7859 313.256 52.7692 331.75 51.5144 C 338.367 58.1218 351.368 78.5552 354.844 103.655 C 346.73 105.996 335.196 117.73 333.761 126.633"></path>
			<path fill="#C79C52" stroke="#806434" stroke-width="3.1718" stroke-miterlimit="10" d="M 257.787 201.003 C 232.25 176.079 204.283 156.02 191.692 150.109 C 181.787 145.46 173.117 144.033 165.518 145.451 C 177.132 139.656 172.55 134.635 182.162 118.89 C 190.025 106.011 194.088 94.6576 204.615 85.9924 C 215.722 90.3816 248.54 122.598 265.095 147.981 C 256.234 153.139 255.499 187.714 257.787 201.003"></path>
			<path fill="#FFC163" stroke="#B38645" stroke-width="3.1718" stroke-miterlimit="10" d="M 150.701 154.22 C 162.247 142.358 174.771 142.608 191.69 150.165 C 207.961 157.432 250.317 189.792 279.613 223.912 C 308.256 257.271 316.583 268.97 326.26 275.549 C 334.785 281.346 339.864 287.375 360.048 285.904 C 381.474 284.342 387.537 281.659 400.23 275.819 C 414.748 269.139 423.677 269.34 431.766 267.788 C 440.398 266.131 453.991 265.261 469.127 261.887 C 485.007 258.348 510.238 254.731 537.635 237.542 C 565.332 220.166 567.617 212.864 580.119 199.32 C 592.354 186.066 599.735 174.7 613.276 178.552 C 628.519 182.888 620.246 192.473 618.995 193.13 C 617.701 193.81 614.415 191.44 609.527 191.033 C 607.326 190.85 598.307 205.064 593.133 210.065 C 589.093 213.971 566.901 235.685 542.113 251.255 C 519.177 265.662 510.023 269.096 492.375 273.685 C 475.353 278.111 456.864 285.737 443.159 285.613 C 429.857 285.492 413.997 293.678 407.431 295.531 C 400.479 297.493 382.349 303.591 376.627 304.995 C 370.35 306.535 363.277 308.565 358.61 307.433 C 354.981 306.552 340.032 304.111 332.907 298.541 C 326.414 293.465 319.445 290.656 311.41 280.532 C 303.457 270.512 294.398 262.451 282.461 249.671 C 270.683 237.06 260.953 219.793 246.226 208.175 C 231.524 196.577 220.031 188.536 210.605 184.241 C 201.435 180.062 196.051 175.282 187.882 176.766 C 179.769 178.239 173.811 182.156 162.461 176.467 C 151.362 170.903 146.312 158.729 150.701 154.22"></path>
			
				<path fill="#7BD968" stroke="#598C4E" stroke-width="3.1718" stroke-linecap="round" stroke-linejoin="round" stroke-miterlimit="10" d="M 80.2107 308.125 C 82.317 311.175 91.0229 321.728 104.148 321.385 C 117.357 321.04 131.651 318.803 134.67 310.904"></path>
		</g>
		<g>
			<g>
				<path fill="#FFE563" stroke="#E8D46D" stroke-width="0.609" stroke-miterlimit="10" d="M 475.517 139.264 C 474.937 140.655 471.508 145.756 467.148 148.331 C 462.993 150.786 460.548 150.989 455.562 150.77 C 451.049 150.572 445.762 150.817 441.423 149.708 C 437.582 148.727 433.515 150.038 431.39 150.325 C 429.832 150.536 424.557 152.097 422.723 152.853 C 421.01 153.561 418.775 154.597 417.195 154.891 C 416.008 155.112 411.308 156.48 408.672 156.01 C 406.483 155.621 404.169 155.806 401.016 153.845 C 398.21 152.1 395.282 150.615 392.396 148.179 C 389.821 146.004 388.635 142.607 385.942 140.655 C 383.552 138.922 381.793 137.686 379.907 137.071 C 378.563 136.632 377.684 135.812 375.894 136.341 C 376.966 138.469 382.585 146.894 385.92 149.01 C 389.675 151.393 392.429 153.403 396.855 155.026 C 401.763 156.826 411.334 158.131 420.636 157.144 C 430.34 156.114 438.67 155.938 445.677 154.978 C 453.151 153.953 461.622 153.186 465.305 151.774 C 469.409 150.202 471.248 148.739 472.385 147.15 C 473.512 145.574 475.408 143.389 475.517 139.264"></path>
				<path fill="#7BD968" stroke="#598C4E" stroke-width="0.609" stroke-miterlimit="10" d="M 355.559 153.04 C 355.68 154.378 355.89 158.55 358.116 160.736 C 362.197 164.741 367.008 163.399 368.125 163.375 C 369.649 163.342 375.988 163.718 380.045 156.703 C 384.057 149.765 388.016 147.328 389.935 145.495 C 388.966 143.851 387.669 141.951 385.947 140.672 C 383.557 138.896 381.791 137.687 379.904 137.077 C 378.579 136.649 377.65 135.795 375.922 136.348 C 375.988 136.424 375.914 136.558 375.526 136.471 C 374.31 139.23 371.103 141.822 368.463 142.268 C 366.13 142.661 362.274 143.125 361.052 143.071 C 360.377 143.041 359.831 143.957 359.315 143.948 C 357.514 145.477 355.251 149.666 355.559 153.04"></path>
				<path fill="#7BD968" stroke="#598C4E" stroke-width="0.609" stroke-miterlimit="10" d="M 414.174 155.505 C 412.531 155.979 410.288 156.296 408.679 156.01 C 406.492 155.621 404.156 155.803 401.035 153.857 C 400.454 153.495 399.766 153.05 398.729 152.515 C 396.986 154.926 393.839 160.308 393.332 162.458 C 392.828 164.591 392.131 168.56 394.027 172.037 C 396.15 175.93 395.739 177.059 396.386 178.576 C 397.126 180.311 397.339 181.567 399.196 181.49 C 401.633 181.387 402.529 179.67 403.944 177.714 C 405.352 175.767 408.136 173.356 410.299 170.289 C 412.193 167.603 413.446 165.632 413.996 163.494 C 414.502 161.528 414.538 155.853 414.185 155.565 C 414.452 155.779 414.505 155.445 414.174 155.505"></path>
				<path fill="#7BD968" stroke="#598C4E" stroke-width="0.609" stroke-miterlimit="10" d="M 475.862 138.883 C 477.172 137.477 478.797 134.263 479.555 134.203 C 480.959 134.093 482.177 134.973 482.162 134.612 C 484.949 135.257 486.936 136.542 486.804 138.182 C 486.645 140.177 486.213 139.789 485.07 140.565 C 484.363 141.046 482.953 141.077 481.43 140.562 C 480.655 140.299 477.242 139.631 475.862 138.883"></path>
				<path fill="#7BD968" stroke="#598C4E" stroke-width="0.609" stroke-miterlimit="10" d="M 463.872 149.838 C 461.527 150.928 459.209 150.933 455.569 150.763 C 452.898 150.638 449.747 150.768 446.62 150.442 C 446.202 154.239 445.644 160.92 451.212 165.253 C 454.424 167.752 456.331 167.778 457.999 168.444 C 460.171 169.31 462.09 172.559 465.152 172.891 C 467.073 173.099 467.701 172.823 468.721 171.766 C 470.109 170.328 470.16 170.342 470.502 169.021 C 470.825 167.773 471.663 163.877 470.885 161.4 C 470.224 159.296 468.977 156.169 467.868 154.599 C 467.057 153.451 464.103 150.089 463.872 150.009 C 464.081 150.093 464.043 149.99 463.872 149.838"></path>
				<path fill="#94AEFF" stroke="#4464C7" stroke-width="0.609" stroke-miterlimit="10" d="M 359.345 143.967 C 360.831 144.251 362.074 146.832 361.649 146.673 C 363.251 146.41 363.764 146.649 364.145 146.735 C 364.7 145.302 366.131 143.25 367.992 143.156 C 370.311 143.038 372.162 143.052 373.098 146.749 C 376.147 146.795 378.651 144.898 379.493 144.976 C 380.705 145.088 381.512 145.728 381.569 146.026 C 381.655 146.476 382.299 147.826 382.315 148.17 C 382.345 148.8 382.395 149.442 381.619 149.657 C 381.427 149.711 380.627 149.46 380.428 148.887 C 380.303 148.524 380.364 147.795 379.852 147.472 C 379.773 147.422 378.91 147.423 378.524 147.578 C 378.281 147.676 373.995 149.154 373.23 149.17 C 373.213 150.873 372.03 153.383 369.005 153.526 C 366.359 153.652 365.763 152.61 365.327 151.447 C 364.971 150.499 364.877 149.531 364.541 149.505 C 363.351 149.602 363.647 149.606 362.541 149.48 C 362.176 151.366 361.309 153.93 358.237 153.843 C 355.543 153.767 353.779 152.19 353.622 148.331 C 352.338 148.276 352.814 147.938 352.704 147.915 C 352.891 146.022 353.098 146.092 352.858 145.993 C 353.113 146.085 354.713 146.204 354.714 146.161 C 355.181 143.75 358.503 143.806 359.345 143.967"></path>
				<path fill="#FFFFFF" stroke="#4464C7" stroke-width="0.609" stroke-miterlimit="10" d="M 356.41 145.836 C 358.046 145.007 360.477 146.618 360.723 147.354 C 361.113 148.523 361.262 151.219 359.757 152.048 C 358.574 152.7 356.694 152.65 355.707 151.185 C 355.047 150.205 354.889 146.606 356.41 145.836"></path>
				<path fill="#E0B577" stroke="#A87C3B" stroke-width="0.609" stroke-miterlimit="10" d="M 356.858 148.634 C 357.238 148.024 359.143 148.247 359.357 148.682 C 359.708 149.394 359.869 150.15 359.333 150.358 C 358.812 150.56 357.702 151.52 357.209 150.686 C 356.866 150.105 356.417 149.343 356.858 148.634"></path>
				<path fill="#FFFFFF" stroke="#4464C7" stroke-width="0.609" stroke-miterlimit="10" d="M 366.456 150.779 C 365.777 149.194 365.594 147.193 366.166 146.457 C 366.901 145.513 368.958 144.94 370.26 146.164 C 372.008 147.806 372.228 148.801 371.943 149.611 C 371.638 150.478 370.877 151.898 369.448 151.972 C 368.771 152.007 366.98 152.002 366.456 150.779"></path>
				<path fill="#E0B577" stroke="#A87C3B" stroke-width="0.609" stroke-miterlimit="10" d="M 367.485 148.264 C 368.025 147.751 369.849 148.558 369.884 148.614 C 370.204 149.126 369.954 149.709 369.652 149.828 C 369.676 149.818 367.93 150.71 367.435 149.757 C 367.215 149.332 367.063 148.664 367.485 148.264"></path>
				<path fill="#C79C52" stroke="#806434" stroke-width="0.609" stroke-miterlimit="10" d="M 446.232 107.243 C 441.539 105.553 433.533 103.598 428.775 102.642 C 426.067 102.097 421.867 101.991 417.273 102.135 C 418.854 103.406 421.336 107.292 421.738 111.899 C 426.428 110.784 437.969 112.165 441.392 113.473 C 443.478 112.317 445.844 109.18 446.232 107.243"></path>
				<path fill="#C79C52" stroke="#806434" stroke-width="0.609" stroke-miterlimit="10" d="M 449.918 123.285 C 448.947 119.755 445.616 116.722 441.397 113.469 C 443.458 112.316 445.883 109.17 446.204 107.247 C 447.633 107.625 448.523 108.151 448.966 108.364 C 453.336 110.46 461.89 115.148 464.921 117.782 C 467.774 120.261 470.218 123.22 471.433 124.879 C 466.699 123.811 458.796 122.494 455.425 122.494 C 452.6 122.495 449.997 123.405 449.918 123.285"></path>
				<path fill="#C79C52" stroke="#806434" stroke-width="0.609" stroke-miterlimit="10" d="M 471.434 124.869 C 466.684 123.818 458.801 122.49 455.417 122.492 C 452.598 122.494 449.997 123.401 449.908 123.289 C 448.826 124.16 443.519 131.7 443.349 131.648 C 443.491 134.545 445.21 135.422 446.308 137.222 C 447.578 139.307 448.989 142.575 449.113 145.934 C 453.714 146.641 459.98 147.207 464.428 144.78 C 469.954 141.765 469.573 139.758 471.763 136.363 C 473.679 133.393 476.085 130.747 478.915 130.583 C 479.356 130.689 479.378 130.608 478.915 130.631 C 476.971 129.478 473.571 127.087 472.22 125.661 C 472.191 125.631 471.909 125.218 471.434 124.869"></path>
				<path fill="#C79C52" stroke="#806434" stroke-width="0.609" stroke-miterlimit="10" d="M 424.334 128.088 C 417.69 132.812 414.825 146.071 415.068 149.836 C 415.949 149.919 416.368 149.506 416.947 149.341 C 424.06 147.32 425.503 147.008 428.976 145.748 C 432.824 144.352 435.245 144.913 437.18 144.845 C 439.616 144.76 443.402 145.662 447.398 145.833 C 448.073 145.862 449.01 145.923 449.124 145.948 C 448.975 142.561 447.589 139.318 446.31 137.223 C 445.21 135.422 443.493 134.561 443.36 131.637 C 441.639 130.053 433.799 126.425 424.334 128.088"></path>
				<path fill="#C79C52" stroke="#806434" stroke-width="0.609" stroke-miterlimit="10" d="M 441.383 113.462 C 437.98 112.197 426.409 110.716 421.74 111.929 C 420.586 112.229 418.004 114.525 417.076 116.185 C 418.588 117.627 421.555 121.18 422.406 122.655 C 423.425 124.42 424.272 127.471 424.329 128.085 C 433.814 126.427 441.619 130.05 443.377 131.629 C 443.496 131.722 448.845 124.14 449.915 123.291 C 448.94 119.738 445.632 116.739 441.383 113.462"></path>
				<path fill="#C79C52" stroke="#806434" stroke-width="0.609" stroke-miterlimit="10" d="M 417.1 116.193 C 411.167 116.724 400.612 121.637 397.494 123.51 C 394.511 125.301 390.055 134.897 389.24 138.025 C 390.71 139.318 391.88 140.717 393.023 141.971 C 398.541 148.024 402.53 149.98 405.311 150.579 C 408.183 151.197 409.864 151.585 415.083 149.843 C 414.79 146.081 417.727 132.8 424.314 128.106 C 424.3 127.45 423.405 124.442 422.407 122.658 C 421.581 121.183 418.563 117.624 417.1 116.193"></path>
				<path fill="#C79C52" stroke="#806434" stroke-width="0.609" stroke-miterlimit="10" d="M 417.119 116.197 C 411.126 116.691 400.653 121.689 397.48 123.484 C 395.306 118.777 388.94 113.299 386.265 112.877 C 387.115 112.594 387.433 111.84 387.973 111.489 C 392.679 108.43 401.256 104.63 406.694 103.395 C 409.618 102.73 413.658 102.41 417.241 102.122 C 418.925 103.413 421.242 107.278 421.784 111.896 C 420.576 112.358 417.966 114.437 417.119 116.197"></path>
				<path fill="#C79C52" stroke="#806434" stroke-width="0.609" stroke-miterlimit="10" d="M 389.264 138.025 C 385.325 133.996 380.605 130.759 378.208 129.993 C 376.541 129.461 374.949 129.55 373.113 130.139 C 375.892 128.606 375.004 127.339 378.22 122.874 C 381.093 118.886 383.024 115.819 386.225 112.869 C 388.982 113.307 395.295 118.756 397.464 123.491 C 394.579 125.341 389.995 134.872 389.264 138.025"></path>
				<path fill="#FFC163" stroke="#B38645" stroke-width="0.609" stroke-miterlimit="10" d="M 370.035 132.654 C 372.593 129.862 375.382 129.09 378.169 129.966 C 381.498 131.012 387.922 136.097 393.04 141.927 C 398.451 148.089 402.595 149.958 405.295 150.572 C 408.506 151.302 410.229 151.495 416.979 149.382 C 424.002 147.184 425.522 147.052 428.984 145.757 C 432.795 144.331 435.268 144.887 437.175 144.848 C 439.631 144.798 443.38 145.581 447.416 145.849 C 451.9 146.146 459.299 147.677 464.461 144.785 C 469.973 141.698 469.501 139.761 471.786 136.37 C 474.065 132.988 476.544 129.868 480.583 130.805 C 485.354 131.912 482.862 134.31 482.234 134.68 C 481.975 134.832 481.135 134.074 479.522 134.22 C 478.842 134.282 476.581 138.173 475.648 139.338 C 474.703 140.519 471.649 145.78 467.153 148.352 C 462.979 150.738 460.577 150.991 455.572 150.769 C 451.054 150.568 445.766 150.814 441.431 149.703 C 437.592 148.72 433.524 150.036 431.401 150.322 C 429.842 150.531 424.561 152.095 422.734 152.847 C 421.02 153.554 418.781 154.594 417.205 154.887 C 416.014 155.108 411.317 156.476 408.679 156.006 C 406.494 155.617 404.171 155.8 401.029 153.843 C 398.22 152.093 395.286 150.613 392.404 148.174 C 389.825 145.992 388.648 142.611 385.949 140.649 C 383.555 138.909 381.81 137.684 379.906 137.067 C 378.633 136.654 377.598 135.743 375.95 136.369 C 374.496 136.922 373.393 138.096 371.396 137.03 C 370.016 136.293 369.153 133.617 370.035 132.654"></path>
				
					<path fill="#7BD968" stroke="#598C4E" stroke-width="0.609" stroke-linecap="round" stroke-linejoin="round" stroke-miterlimit="10" d="M 359.616 158.37 C 359.893 158.891 361.592 160.438 363.19 160.444 C 365.247 160.453 367.272 160.271 367.402 158.994"></path>
			</g>
			<g>
				<path fill="#FFE563" stroke="#E8D46D" stroke-width="0.1192" stroke-miterlimit="10" d="M 444.775 118.763 C 444.945 119.166 444.102 120.057 443.238 120.605 C 442.392 121.141 442.178 121.122 440.811 121.028 C 440.105 120.979 439.054 121.01 437.907 120.736 C 437.313 120.593 436.588 120.811 435.892 120.799 C 435.736 121.028 434.876 120.991 434.157 121.336 C 434.015 121.405 433.607 121.564 433.172 121.645 C 432.777 121.718 432.334 121.958 431.302 121.798 C 431.165 121.776 430.702 121.854 429.819 121.336 C 429.598 121.207 428.763 120.785 428.2 120.288 C 427.928 120.048 427.562 119.251 426.913 118.943 C 426.676 118.608 426.526 118.416 425.731 118.252 C 425.73 118.252 425.507 118.04 425.082 118.148 C 425.182 118.469 426.449 120.258 426.737 120.418 C 427.905 121.063 427.994 121.311 429.04 121.608 C 430.267 121.957 431.974 122.23 433.742 122.093 C 435.968 121.92 437.457 121.963 438.924 121.797 C 440.512 121.617 442.355 121.562 442.838 121.306 C 443.594 120.904 444.264 120.86 444.251 120.339 C 444.623 120.165 444.967 119.639 444.775 118.763"></path>
				<path fill="#7BD968" stroke="#598C4E" stroke-width="0.1192" stroke-miterlimit="10" d="M 420.673 121.323 C 420.694 121.492 420.707 122.567 420.872 122.72 C 421.819 123.592 422.945 123.178 422.893 123.172 C 423.566 123.257 424.633 123.213 425.566 121.91 C 426.523 120.573 427.288 120.303 427.806 119.777 C 427.62 119.593 427.396 119.182 426.928 118.93 C 426.656 118.618 426.53 118.418 425.727 118.248 C 425.719 118.246 425.528 118.061 425.064 118.125 C 425.246 118.171 425.211 118.23 424.985 118.134 C 424.779 118.77 424.144 119.129 423.546 119.245 C 423.062 119.34 422.448 119.447 422.012 119.4 C 422.138 119.414 421.854 119.641 421.482 119.586 C 421.249 119.955 420.596 120.714 420.673 121.323"></path>
				<path fill="#7BD968" stroke="#598C4E" stroke-width="0.1192" stroke-miterlimit="10" d="M 432.457 121.737 C 432.367 121.853 431.961 121.922 431.3 121.81 C 431.128 121.781 430.759 121.789 429.783 121.383 C 429.907 121.435 429.788 121.231 429.415 121.135 C 429.371 121.605 428.301 122.643 428.263 122.99 C 428.222 123.357 427.975 124.257 428.254 124.742 C 428.76 125.622 428.577 125.794 428.676 126.032 C 428.856 126.465 429.081 126.603 429.123 126.606 C 429.95 126.66 429.756 126.282 430.221 125.93 C 430.743 125.535 431.01 125.157 431.582 124.557 C 432.124 123.988 432.233 123.773 432.365 123.242 C 432.451 122.891 432.744 121.918 432.471 121.747 C 432.692 121.886 432.689 121.766 432.47 121.74 C 432.681 121.788 432.707 121.794 432.457 121.737"></path>
				<path fill="#7BD968" stroke="#598C4E" stroke-width="0.1192" stroke-miterlimit="10" d="M 444.868 118.692 C 445.25 118.46 445.559 117.789 445.687 117.722 C 446.125 117.771 446.322 117.927 446.19 117.816 C 446.702 118.006 447.464 118.298 447.168 118.571 C 447.393 119.076 447.277 118.881 446.817 119.115 C 446.792 119.128 446.62 119.28 446.094 119.047 C 446.286 119.03 445.115 118.92 444.868 118.692"></path>
				<path fill="#7BD968" stroke="#598C4E" stroke-width="0.1192" stroke-miterlimit="10" d="M 442.469 120.891 C 442.3 121.096 441.799 121.13 440.788 121.021 C 440.635 121.004 439.671 121.043 439.047 120.896 C 439.239 121.675 438.821 123.007 440.022 123.852 C 440.771 124.378 441.124 124.569 441.474 124.579 C 442.044 124.595 442.409 125.711 443.046 125.488 C 443.595 125.809 443.629 125.542 443.739 125.404 C 443.935 125.16 444.521 125.141 444.071 124.832 C 444.509 124.636 444.326 123.842 444.15 123.297 C 444.001 122.836 443.952 122.336 443.34 121.842 C 443.27 121.785 442.797 120.887 442.472 120.95 C 442.738 120.955 442.724 120.953 442.469 120.891"></path>
				<path fill="#94AEFF" stroke="#4464C7" stroke-width="0.1192" stroke-miterlimit="10" d="M 421.543 119.575 C 422.076 119.707 422.163 120.123 421.965 120.078 C 422.425 120.055 422.501 120.117 422.429 120.071 C 422.562 119.891 423.189 119.412 423.436 119.404 C 424.023 119.385 424.375 119.435 424.277 120.057 C 425.09 120.127 425.493 119.745 425.482 119.742 C 425.848 119.822 426.078 119.913 426.076 119.922 C 426.052 120.103 426.295 120.167 426.17 120.373 C 426.143 120.417 426.37 120.572 425.968 120.619 C 425.931 120.623 425.792 120.662 425.616 120.429 C 425.678 120.511 425.861 120.242 425.494 120.21 C 425.68 120.211 425.551 120.248 425.267 120.221 C 425.427 120.295 424.633 120.545 424.253 120.502 C 424.466 120.917 424.138 121.273 423.466 121.327 C 422.832 121.378 422.729 121.288 422.584 120.938 C 422.545 120.844 422.742 120.613 422.414 120.591 C 422.396 120.649 422.44 120.691 422.033 120.577 C 422.227 121.042 421.891 121.442 421.101 121.455 C 420.778 121.46 420.491 121.244 420.194 120.447 C 420.185 120.489 420.226 120.435 420.042 120.381 C 420.301 120.076 420.312 120.078 420.091 120.016 C 420.312 120.079 420.698 120.096 420.496 120.039 C 420.687 119.616 421.694 119.612 421.543 119.575"></path>
				<path fill="#FFFFFF" stroke="#4464C7" stroke-width="0.1192" stroke-miterlimit="10" d="M 420.829 120.005 C 421.313 119.76 421.783 120.205 421.764 120.182 C 422.041 120.532 421.934 120.888 421.475 121.13 C 421.373 121.183 420.991 121.332 420.663 120.946 C 420.625 120.9 420.694 120.074 420.829 120.005"></path>
				<path fill="#E0B577" stroke="#A87C3B" stroke-width="0.1192" stroke-miterlimit="10" d="M 420.849 120.483 C 421.229 120.392 421.398 120.478 421.378 120.449 C 421.553 120.704 421.649 120.747 421.272 120.791 C 421.486 120.836 421.061 121.107 420.905 120.84 C 420.907 120.843 421.043 120.636 420.849 120.483"></path>
				<path fill="#FFFFFF" stroke="#4464C7" stroke-width="0.1192" stroke-miterlimit="10" d="M 422.744 120.797 C 422.88 120.697 422.809 120.042 422.745 120.074 C 423.312 119.787 423.754 119.838 423.801 119.913 C 424.094 120.379 424.413 120.411 424.025 120.633 C 424.068 120.608 424.068 121.2 423.506 121.002 C 423.781 121.048 423.024 121.146 422.744 120.797"></path>
				<path fill="#E0B577" stroke="#A87C3B" stroke-width="0.1192" stroke-miterlimit="10" d="M 423.276 120.339 C 423.422 120.226 423.937 120.476 423.648 120.389 C 423.938 120.529 423.855 120.682 423.615 120.599 C 423.758 120.747 423.503 120.73 423.181 120.642 C 422.873 120.557 423.057 120.508 423.276 120.339"></path>
				<path fill="#C79C52" stroke="#806434" stroke-width="0.1192" stroke-miterlimit="10" d="M 438.634 112.398 C 437.676 112.122 436.481 111.806 435.238 111.565 C 435.164 111.55 433.723 111.529 433.019 111.527 C 433.467 111.822 433.946 112.541 433.9 113.389 C 434.914 113.215 437.131 113.427 437.699 113.632 C 438.132 113.465 438.689 112.808 438.634 112.398"></path>
				<path fill="#C79C52" stroke="#806434" stroke-width="0.1192" stroke-miterlimit="10" d="M 439.428 115.54 C 439.651 114.902 438.543 114.301 437.652 113.633 C 438.223 113.468 438.584 112.795 438.678 112.406 C 439.001 112.427 439.322 112.689 439.087 112.64 C 440.322 112.898 441.899 114.064 442.371 114.361 C 443.46 115.048 443.673 115.463 443.839 115.836 C 443.093 115.64 441.395 115.41 440.604 115.387 C 440.288 115.378 439.586 115.657 439.428 115.54"></path>
				<path fill="#C79C52" stroke="#806434" stroke-width="0.1192" stroke-miterlimit="10" d="M 443.838 115.82 C 443.093 115.664 441.401 115.39 440.609 115.389 C 440.31 115.389 439.542 115.651 439.465 115.547 C 439.463 115.785 438.473 117.257 438.191 117.216 C 438.508 117.802 438.692 118.034 438.86 118.31 C 439.153 118.789 439.577 119.429 439.422 120.022 C 440.529 120.317 441.703 120.278 442.541 119.908 C 444.102 119.22 443.442 118.96 444.037 118.206 C 444.634 117.45 445.102 117.187 445.393 116.954 C 445.693 117.105 445.605 117.028 445.436 116.993 C 445.063 116.819 444.72 116.295 443.95 115.985 C 444.18 115.999 444.069 115.959 443.838 115.82"></path>
				<path fill="#C79C52" stroke="#806434" stroke-width="0.1192" stroke-miterlimit="10" d="M 434.419 116.531 C 433.473 117.474 432.69 120.02 432.651 120.672 C 432.948 120.685 433.076 120.705 432.998 120.551 C 434.37 120.407 435.018 120.054 435.261 119.993 C 436.714 119.63 436.749 119.835 437.09 119.805 C 437.814 119.741 438.349 120.086 439.172 119.964 C 439.387 120.113 439.57 120.06 439.427 120.047 C 439.538 119.409 439.183 118.796 438.849 118.309 C 438.667 118.044 438.53 117.791 438.173 117.217 C 438.257 116.914 436.425 116.261 434.419 116.531"></path>
				<path fill="#C79C52" stroke="#806434" stroke-width="0.1192" stroke-miterlimit="10" d="M 437.677 113.627 C 437.174 113.461 434.874 113.176 433.917 113.416 C 433.822 113.439 433.433 114.011 433.095 114.213 C 433.442 114.59 434.04 115.224 433.965 115.472 C 434.46 115.86 434.701 116.452 434.402 116.523 C 436.455 116.255 438.24 116.912 438.187 117.203 C 438.452 117.255 439.523 115.765 439.42 115.544 C 439.677 114.888 438.514 114.319 437.677 113.627"></path>
				<path fill="#C79C52" stroke="#806434" stroke-width="0.1192" stroke-miterlimit="10" d="M 433.051 114.223 C 432.042 114.473 430.071 115.297 429.276 115.723 C 428.724 116.019 428.056 117.924 427.551 118.418 C 428.072 118.669 428.137 119.065 428.223 119.146 C 429.538 120.373 430.171 120.697 430.652 120.791 C 431.427 120.942 431.964 121.007 432.638 120.662 C 432.728 120.017 433.438 117.465 434.444 116.521 C 434.643 116.448 434.482 115.859 433.964 115.468 C 434.011 115.233 433.494 114.587 433.051 114.223"></path>
				<path fill="#C79C52" stroke="#806434" stroke-width="0.1192" stroke-miterlimit="10" d="M 433.041 114.237 C 432.054 114.411 430.058 115.382 429.29 115.683 C 429.027 114.833 427.772 113.842 427.069 113.702 C 427.381 113.76 427.409 113.487 427.491 113.436 C 428.303 112.943 430.083 112.079 430.883 111.852 C 431.67 111.628 432.385 111.724 432.937 111.511 C 433.573 111.845 433.88 112.528 433.902 113.393 C 433.811 113.541 433.48 113.929 433.041 114.237"></path>
				<path fill="#C79C52" stroke="#806434" stroke-width="0.1192" stroke-miterlimit="10" d="M 427.578 118.43 C 426.701 117.731 426.22 117.143 425.447 116.933 C 425.338 116.904 425.125 116.907 424.487 116.976 C 425.365 116.748 425.004 116.464 425.53 115.632 C 426.009 114.877 426.839 114.327 427.047 113.706 C 427.804 113.845 429.006 114.841 429.28 115.686 C 428.75 116.119 428.018 117.865 427.578 118.43"></path>
				<path fill="#FFC163" stroke="#B38645" stroke-width="0.1192" stroke-miterlimit="10" d="M 423.808 117.457 C 424.548 117.024 425.182 116.804 425.487 116.926 C 426.165 117.198 427.427 118.111 428.287 119.144 C 429.329 120.396 430.338 120.74 430.609 120.786 C 431.645 120.963 431.902 120.91 433.012 120.628 C 434.353 120.289 435.016 120.073 435.267 120.003 C 436.723 119.593 436.728 119.853 437.115 119.821 C 437.7 119.774 438.499 119.896 439.114 120.016 C 440.142 120.216 441.585 120.325 442.535 119.918 C 444.164 119.22 443.344 118.888 444.041 118.209 C 444.818 117.452 444.997 116.89 445.834 117.042 C 446.882 117.233 446.469 117.885 446.176 117.792 C 446.291 117.975 446.212 117.702 445.614 117.755 C 445.82 117.619 444.841 118.799 444.819 118.755 C 444.963 119.045 444.073 120.185 443.265 120.594 C 442.259 121.104 442.286 121.083 440.788 121.028 C 440.155 121.004 439 121.014 437.916 120.724 C 437.305 120.56 436.588 120.827 435.901 120.796 C 435.692 120.977 434.929 121.047 434.137 121.319 C 434.029 121.356 433.602 121.599 433.176 121.649 C 432.744 121.7 432.37 121.925 431.288 121.797 C 431.213 121.788 430.642 121.859 429.831 121.329 C 429.593 121.174 428.759 120.802 428.197 120.28 C 427.932 120.034 427.556 119.249 426.91 118.937 C 426.687 118.591 426.505 118.422 425.723 118.245 C 425.735 118.248 425.511 118.007 425.063 118.156 C 425.045 118.162 424.594 118.611 424.013 118.21 C 424.039 118.351 423.773 117.478 423.808 117.457"></path>
				
					<path fill="#7BD968" stroke="#598C4E" stroke-width="0.1192" stroke-linecap="round" stroke-linejoin="round" stroke-miterlimit="10" d="M 421.242 122.277 C 421.378 122.503 421.803 122.666 422.031 122.66 C 422.551 122.648 422.996 122.666 422.846 122.35"></path>
			</g>
		</g>
	</g>
</g>
</svg>
