<!--?xml version="1.0" encoding="utf-8"?-->
<!-- Generator: Adobe Illustrator 17.1.0, SVG Export Plug-In . SVG Version: 6.00 Build 0)  -->

<svg version="1.1" id="Layer_1" xmlns="http://www.w3.org/2000/svg" xmlns:xlink="http://www.w3.org/1999/xlink" x="0px" y="0px" viewBox="0 0 500 500" width="500px" height="500px" enable-background="new 0 0 500 500" xml:space="preserve">
<path fill="#8DC63F" stroke="#009444" stroke-width="8" stroke-linecap="round" stroke-linejoin="round" stroke-miterlimit="10" d="M 248.647 68.4722 C 284.22 68.4538 291.416 205.811 291.416 205.811 C 291.416 205.811 418.813 174.052 428.113 210.257 C 437.153 247.183 309.699 300.406 309.699 300.406 C 309.699 300.406 372.368 438.809 342.445 462.153 C 313.836 477.48 233.919 336.041 233.919 336.041 C 233.919 336.041 137.781 382.054 107.922 353.889 C 79.7663 337.242 167.823 271.47 167.823 271.47 C 167.823 271.47 38.3542 217.774 51.4639 189.322 C 64.2085 159.512 202.835 203.675 202.835 203.675 C 202.835 203.675 212.23 67.9493 248.647 68.4722"></path>
</svg>
