<!--?xml version="1.0" encoding="utf-8"?-->
<!-- Generator: Adobe Illustrator 15.0.2, SVG Export Plug-In . SVG Version: 6.00 Build 0)  -->

<svg version="1.1" id="Layer_1" xmlns="http://www.w3.org/2000/svg" xmlns:xlink="http://www.w3.org/1999/xlink" x="0px" y="0px" width="360px" height="360px" viewBox="0 0 360 360" enable-background="new 0 0 360 360" xml:space="preserve">
<g id="Layer_1_1_">
	<g display="none">
		<g id="XMLID_1_" display="inline">
			<g>
				<path fill="#5C4335" d="M 223.608 313.928 C 223.608 313.938 223.607 313.945 223.598 313.95 C 223.228 314.658 221.856 315.79 216.92 315.923 C 209.544 316.121 201.793 309.892 201.795 309.901 C 201.793 309.898 200.745 311.878 200.743 311.879 C 200.746 311.873 195.405 312.542 192.342 310.093 C 189.281 307.646 192.302 296.302 192.541 296.247 C 192.543 296.238 192.784 296.01 192.785 296.007 C 192.784 295.913 192.776 295.831 192.775 295.734 C 198.44 298.91 205.129 297.346 205.13 297.346 C 205.125 297.341 218.337 304.083 224.322 305.399 C 224.583 306.096 226.226 310.847 223.608 313.928"></path>
				<path fill="#5C4335" d="M 177.441 296.208 C 177.679 298.449 178.651 308.029 177.646 309.565 C 176.508 311.304 167.617 311.924 167.616 311.924 C 167.616 311.923 165.363 307.965 165.362 307.967 C 165.365 307.965 155.293 313.67 155.29 313.671 C 153.512 313.892 146.258 314.584 142.169 311.654 C 137.476 308.293 141.391 305.306 141.391 305.309 C 141.391 305.309 144.831 303.815 144.829 303.817 C 154.419 302.134 165.004 295.364 166.667 294.296 C 168.192 295.456 172.01 297.669 177.441 296.208"></path>
				<path fill="#5C4335" d="M 158.679 39.5055 C 159.898 39.4891 160.883 40.6298 160.888 42.0536 C 160.893 43.4871 159.916 44.6541 158.697 44.6735 C 157.488 44.6928 156.494 43.5544 156.49 42.1178 C 156.485 40.6909 157.47 39.5217 158.679 39.5055"></path>
				<path fill="#5C4335" d="M 177.173 39.5291 C 178.252 39.5456 179.124 40.7539 179.117 42.2311 C 179.111 43.7082 178.228 44.8881 177.151 44.8682 C 176.074 44.8482 175.217 43.6393 175.222 42.1655 C 175.227 40.6918 176.094 39.5125 177.173 39.5291"></path>
				<path fill="#5C4335" d="M 184.736 26.8951 C 181.56 28.7306 169.041 34.7441 151.477 29.16 C 149.519 28.5377 147.477 27.7574 145.41 26.8079 C 145.401 26.8057 145.471 26.6789 145.467 26.6804 C 145.471 26.6752 152.163 25.3324 156.236 22.4117 C 147.792 25.2229 137.787 21.0346 137.799 21.0228 C 137.795 21.0212 137.798 21.0059 137.798 20.9867 C 154.673 19.6653 155.059 15.8886 161.437 14.5766 C 167.877 13.2518 172.261 13.5858 180.737 14.6262 C 189.224 15.6679 193.674 20.2917 193.675 20.284 C 193.675 20.2871 196.418 24.5402 196.805 32.0151 C 196.92 34.2498 196.446 37.0285 195.687 39.7672 C 194.636 43.5622 193.003 47.2887 191.583 49.3545 C 190.61 50.771 189.757 51.4343 189.248 50.7436 C 187.577 48.4779 187.835 31.9928 187.861 30.0031 C 186.974 29.1829 185.523 27.7421 184.736 26.8951"></path>
				<path fill="#E0DACB" d="M 232.572 148.205 C 232.671 148.093 234.074 147.475 234.177 147.379 C 233.968 147.553 236.608 163.388 231.363 168.415 C 227.624 171.998 223.47 170.608 221.484 169.349 C 220.676 168.837 220.156 168.455 220.186 168.413 C 220.147 168.478 219.967 160.945 220.036 154.742 C 220.161 154.554 232.77 147.966 232.572 148.205"></path>
				<path fill="#F1D0BD" d="M 208.473 203.37 C 211.708 181.158 221.613 168.69 221.381 169.629 C 221.462 169.255 221.443 169.488 221.489 169.338 C 223.459 170.649 227.649 171.934 231.324 168.481 C 231.661 168 232.676 184.694 211.87 212.246 C 211.951 212.067 214.085 223.608 212.152 226.76 C 210.255 229.854 203.086 229.659 200.749 227.313 C 200.306 224.18 199.888 221.325 199.468 218.703 C 199.951 217.43 201.879 212.221 203.826 210.638 C 205.899 208.951 208.106 203.962 208.473 203.37"></path>
				<path fill="#E0DACB" d="M 214.614 132.066 C 202.378 158.558 193.803 194.453 194.271 191.821 C 194.009 192.685 188.091 194.345 181.314 195.294 C 181.324 194.926 181.358 195.465 181.294 194.866 C 180.081 192.749 178.758 174.356 177.333 152.495 C 183.546 152.804 189.89 152.73 189.819 152.892 C 190.113 152.908 177.215 146.317 177.001 146.055 C 175.494 120.479 177.149 101.384 176.941 100.759 C 176.999 100.987 176.9 100.626 176.912 100.696 C 178.929 100.272 181.179 99.1115 183.45 96.6928 C 183.33 96.751 194.706 98.9247 194.778 98.8668 C 195.952 96.7948 195.658 94.2482 195.086 92.1792 C 194.939 92.1792 195.568 92.1577 195.047 92.1678 C 195.957 92.2478 222.091 96.9112 227.61 106.32 C 233.088 115.659 233.592 136.559 232.495 148.268 C 232.875 147.884 220.105 154.591 220.041 154.745 C 220.089 153.912 220.033 153.269 220.094 152.507 C 220.138 151.962 220.025 151.626 220.053 151.147 C 220.428 144.882 214.797 133.661 214.614 132.066"></path>
				<path fill="#686979" d="M 178.979 212.894 C 178.662 214.77 173.181 261.898 177.922 296.327 C 177.72 295.91 177.595 296.172 177.442 296.213 C 172.009 297.664 168.193 295.462 166.666 294.294 C 166.177 293.92 165.924 293.67 165.923 293.66 C 165.933 293.693 163.367 269.323 162.042 247.041 C 161.579 239.251 161.714 230.283 162.085 222 C 162.35 216.099 162.71 210.414 162.968 205.39 C 163.384 197.29 163.375 190.415 163.36 190.393 C 163.361 190.405 163.42 190.086 163.39 190.064 C 166.874 193.951 174.655 195.741 181.327 195.212 C 188.008 194.682 194.147 192.161 194.175 192.18 C 194.18 192.09 196.422 199.883 199.471 218.702 C 199.887 221.264 200.311 224.205 200.748 227.32 C 201.039 229.401 201.337 231.652 201.635 234.029 C 205.217 262.579 205.131 297.46 205.128 297.32 C 205.152 297.574 198.397 298.507 192.806 296.023 C 191.871 272.48 182.268 211.625 182.506 213.276 C 182.406 212.501 182.458 212.721 182.421 212.378 C 182.439 212.654 178.956 212.432 178.979 212.894"></path>
				<path fill="#F1D0BD" d="M 195.678 39.759 C 197.317 39.0717 206.437 35.173 202.669 49.8343 C 198.784 64.9551 190.544 54.682 191.703 49.403 C 191.659 49.4359 191.589 49.3421 191.58 49.3562 C 192.998 47.2802 194.646 43.5748 195.678 39.759"></path>
				<path fill="#686979" d="M 195.087 92.1777 C 195.657 94.2508 195.951 96.7934 194.777 98.8669 C 194.709 98.9255 183.325 96.7493 183.454 96.6942 C 181.157 99.1028 178.956 100.284 176.91 100.692 C 171.052 101.859 168.003 96.7803 168.116 96.7791 C 164.277 100.897 150.527 101.793 150.702 101.765 C 150.583 101.796 153.129 92.874 153.125 92.8346 C 153.16 92.8555 154.101 89.0781 154.165 89.0824 C 153.934 89.0572 169.083 92.7004 169.752 90.9041 C 169.726 90.9073 178.897 89.8906 181.204 91.6524 C 182.562 92.6889 186.757 91.3078 189.82 89.9964 C 191.95 89.0847 193.58 88.23 193.572 88.2264 C 193.572 88.227 194.474 89.9476 195.087 92.1777"></path>
				<path fill="#F1D0BD" d="M 169.813 81.1191 C 166.826 81.5712 162.321 81.2576 157.615 78.2623 C 148.369 72.3779 151.126 34.0978 150.79 34.5631 C 150.937 34.3259 150.828 34.3401 150.813 34.2618 C 150.543 32.8506 151.202 30.1064 151.48 29.1612 C 169.036 34.7421 181.566 28.7319 184.735 26.8948 C 185.525 27.7418 186.969 29.184 187.859 30.002 C 187.83 31.9974 187.578 48.4712 189.243 50.7472 C 189.344 52.8307 187.949 57.4779 186.079 62.3695 C 183.559 68.9613 179.988 76.1722 177.39 77.7551 C 175.168 79.1091 172.694 80.6831 169.813 81.1191 M 179.117 42.2311 C 179.124 40.7539 178.252 39.5456 177.173 39.5291 C 176.094 39.5125 175.227 40.6918 175.222 42.1655 C 175.217 43.6393 176.074 44.8482 177.151 44.8682 C 178.228 44.8881 179.111 43.7082 179.117 42.2311 M 160.888 42.0536 C 160.883 40.6298 159.898 39.4891 158.679 39.5055 C 157.47 39.5217 156.485 40.6909 156.49 42.1178 C 156.494 43.5544 157.488 44.6928 158.697 44.6735 C 159.916 44.6541 160.893 43.4871 160.888 42.0536"></path>
				<path fill="#E0DACB" d="M 176.958 146.104 C 177.274 146.233 190.082 152.978 189.821 152.864 C 189.908 152.894 183.506 152.532 177.364 152.685 C 177.196 150.455 177.163 148.29 176.958 146.104"></path>
				<path fill="#F1D0BD" d="M 189.734 89.7886 C 189.563 89.7842 189.869 89.9975 189.816 89.9947 C 186.76 91.3094 182.57 92.6894 181.203 91.6517 C 178.885 89.891 169.753 90.9088 169.729 90.9022 C 170.147 89.4059 169.9 83.0967 169.773 81.13 C 172.844 80.6305 175.107 79.1306 177.372 77.7613 C 180.017 76.162 183.551 68.9609 186.07 62.3749 C 186.112 62.377 186.13 62.3943 186.236 62.4322 C 186.004 62.3134 187.454 81.5544 189.734 89.7886"></path>
				<path fill="#E0DACB" d="M 177.341 152.591 C 178.745 174.197 180.09 192.86 181.292 194.838 C 181.349 195.427 181.346 195.059 181.296 195.181 C 174.748 195.825 166.757 193.861 163.454 190.107 C 162.961 189.547 162.037 188.609 161.94 188.073 C 160.938 182.559 147.278 141.864 139.706 126.613 C 139.661 129.056 140.601 151.744 139.801 157.481 C 139.686 157.321 139.669 157.5 139.701 157.476 C 134.663 151.003 124.539 152.258 124.623 152.255 C 124.746 152.361 124.278 152.035 124.828 152.417 C 123.833 151 125.145 151.134 125.019 150.238 C 123.463 139.192 121.303 109.906 128.915 103.324 C 136.528 96.7426 151.257 92.5869 152.372 92.9361 C 151.766 92.7419 153.302 92.9073 153.122 92.8352 C 153.131 92.8804 150.581 101.794 150.703 101.765 C 150.523 101.791 164.283 100.898 168.112 96.7782 C 168.032 96.7866 171.005 101.849 176.939 100.698 C 176.862 100.613 177.021 101.01 176.938 100.743 C 177.16 101.447 175.477 120.388 177.012 146.111 C 177.139 148.24 177.189 150.247 177.341 152.591"></path>
				<path fill="#F1D0BD" d="M 162.948 205.45 C 162.741 210.337 162.332 216.148 162.088 221.981 C 162.065 221.997 161.854 221.981 161.854 221.981 C 148.564 221.772 156.836 208.07 156.822 208.04 C 156.881 208.221 149.555 201.873 138.631 192.747 C 127.707 183.62 127.601 167.214 127.355 166.856 C 127.364 166.946 139.878 169.549 140.046 169.968 C 139.81 169.172 152.306 188.47 162.948 205.45"></path>
				<path fill="#E0DACB" d="M 140.762 159.268 C 144.676 167.685 139.966 169.85 140.032 169.872 C 139.927 169.732 127.297 166.791 127.399 166.929 C 127.358 166.88 124.631 160.596 124.587 152.249 C 124.599 152.252 124.58 152.247 124.626 152.252 C 124.524 152.251 134.684 151.005 139.686 157.469 C 140.117 158.027 140.453 158.602 140.762 159.268"></path>
			</g>
			<g>
				<path fill="none" stroke="#000000" stroke-width="2" d="M 166.951 40.1867 C 166.922 40.1116 161.694 53.3043 162.223 56.5408 C 162.751 59.7773 170.502 58.4543 172.492 56.5708"></path>
				<path fill="none" stroke="#000000" stroke-width="2" d="M 150.789 34.5637 C 151.127 34.0971 148.369 72.3783 157.615 78.2623 C 162.321 81.2574 166.826 81.5715 169.813 81.1191 C 172.693 80.6828 175.168 79.1098 177.39 77.7548 C 179.984 76.1722 183.56 68.9619 186.078 62.3692 C 187.947 57.477 189.349 52.8344 189.238 50.7439"></path>
				<path fill="none" stroke="#000000" stroke-width="2" d="M 158.114 63.382 C 158.129 63.3278 169.067 79.6784 179.083 61.675"></path>
				<path fill="none" stroke="#000000" stroke-width="2" d="M 169.757 80.5452 C 169.731 80.5537 169.773 80.7503 169.786 81.1281 C 169.854 83.1021 170.198 89.3994 169.72 90.9052 C 169.151 92.6979 153.884 89.0591 154.177 89.0819 C 154.085 89.0787 153.168 92.8552 153.124 92.8346 C 153.13 92.8739 150.582 101.796 150.702 101.765 C 150.527 101.793 164.277 100.897 168.116 96.7791 C 168.003 96.7803 171.052 101.859 176.91 100.692 C 178.956 100.284 181.157 99.1028 183.454 96.6942 C 183.325 96.7493 194.709 98.9255 194.777 98.8669 C 195.953 96.7933 195.658 94.2507 195.086 92.1778 C 194.471 89.9476 193.571 88.227 193.572 88.2265 C 193.578 88.2292 191.949 89.0857 189.82 89.9963 C 186.755 91.3072 182.571 92.69 181.204 91.6519 C 178.884 89.8908 169.755 90.9085 169.728 90.9028"></path>
				<path fill="none" stroke="#000000" stroke-width="2" d="M 186.236 62.4322 C 186.005 62.3133 187.454 81.5544 189.734 89.7886"></path>
				<path fill="none" stroke="#000000" stroke-width="2" d="M 152.386 92.9382 C 151.236 92.5729 136.545 96.7491 128.915 103.321 C 121.286 109.892 123.499 139.214 124.99 150.215 C 125.111 151.107 124.489 151.45 124.508 152.2 C 124.721 160.628 127.349 166.924 127.36 166.866 C 127.596 167.211 127.709 183.626 138.631 192.75 C 149.554 201.874 156.882 208.225 156.821 208.042 C 156.837 208.074 148.563 221.774 161.855 221.984"></path>
				<path fill="none" stroke="#000000" stroke-width="2" d="M 139.58 126.623 C 147.462 141.84 160.819 182.565 161.966 188.066 C 162.077 188.601 162.93 189.554 163.438 190.11 C 166.83 193.83 174.649 195.853 181.342 195.184 C 188.045 194.514 193.999 192.614 194.314 191.792 C 193.593 194.603 202.696 158.316 214.43 132.204 C 217.705 124.917 218.804 119.471 219.864 114.26"></path>
				<path fill="none" stroke="#000000" stroke-width="2" d="M 136.753 116.071 C 136.78 116.103 137.425 119.998 139.876 126.459"></path>
				<path fill="none" stroke="#000000" stroke-width="2" d="M 195.048 92.1665 C 195.953 92.2522 222.096 96.9062 227.608 106.321 C 233.08 115.666 233.614 136.541 232.476 148.284 C 232.467 148.372 232.79 148.153 232.526 148.466"></path>
				<path fill="none" stroke="#000000" stroke-width="2" d="M 158.496 136.762 C 158.839 136.844 177.405 146.265 176.93 146.095 C 177.314 146.245 190.057 152.972 189.826 152.864 C 189.899 152.896 183.515 152.527 177.36 152.686 C 173.138 152.796 169.057 153.2 167.493 154.831"></path>
				<path fill="none" stroke="#000000" stroke-width="2" d="M 176.938 100.743 C 177.16 101.447 175.477 120.388 177.012 146.111 C 177.139 148.24 177.189 150.247 177.341 152.591 C 178.745 174.197 180.09 192.862 181.292 194.837"></path>
				<path fill="none" stroke="#000000" stroke-width="2" d="M 139.892 126.029 C 139.891 126.028 139.886 126.181 139.872 126.462 C 139.915 126.539 139.787 126.312 139.938 126.586 C 139.312 129.09 140.832 151.716 139.742 157.484"></path>
				<path fill="none" stroke="#000000" stroke-width="2" d="M 163.36 190.391 C 163.375 190.413 163.384 197.287 162.968 205.389 C 162.71 210.415 162.35 216.098 162.085 221.997 C 161.714 230.28 161.579 239.249 162.042 247.038 C 163.367 269.32 165.933 293.69 165.923 293.657 C 165.923 293.665 166.177 293.92 166.667 294.292 C 168.192 295.452 172.01 297.668 177.441 296.206 C 177.595 296.165 177.742 296.122 177.896 296.073 C 177.935 296.06 177.984 296.047 178.022 296.035"></path>
				<path fill="none" stroke="#000000" stroke-width="2" d="M 192.061 295.306 C 192.3 295.454 192.536 295.603 192.775 295.737 C 198.439 298.897 205.13 297.367 205.13 297.332 C 205.129 297.443 205.218 262.589 201.635 234.028 C 201.336 231.651 201.038 229.403 200.747 227.321 C 200.312 224.206 199.887 221.266 199.472 218.703 C 196.42 199.884 194.184 192.091 194.172 192.181"></path>
				<polyline fill="none" stroke="#000000" stroke-width="2" points="177.75,214.25 178.98,214.16 182.7,213.87 187.5,213.5 				"></polyline>
				<path fill="none" stroke="#000000" stroke-width="2" d="M 182.505 213.269 C 182.272 211.66 191.865 272.425 192.81 296.061 C 192.815 296.164 192.728 295.415 192.803 296.173"></path>
				<path fill="none" stroke="#000000" stroke-width="2" d="M 178.992 212.679 C 178.984 212.244 178.99 212.841 178.98 212.903 C 178.661 214.753 173.183 261.917 177.921 296.317 C 177.964 296.63 177.928 296.301 178.032 297.103"></path>
				<path fill="none" stroke="#000000" stroke-width="2" d="M 214.328 132.192 C 214.379 132.127 214.328 132.245 214.374 132.306 C 215.145 133.313 220.209 145.1 220.095 151.103 C 220.087 151.562 220.097 152.004 220.081 152.517 C 220.059 153.234 220.064 153.951 220.052 154.721 C 219.948 160.976 220.162 168.459 220.185 168.417 C 220.161 168.45 220.679 168.838 221.486 169.349 C 223.473 170.607 227.626 171.997 231.365 168.415 C 236.61 163.388 233.97 147.552 234.179 147.379 C 234.078 147.472 232.669 148.099 232.578 148.2 C 232.758 147.987 220.188 154.522 220.025 154.763 C 220.093 154.667 219.763 154.909 219.796 154.861"></path>
				<path fill="none" stroke="#000000" stroke-width="2" d="M 124.626 152.252 C 124.524 152.251 134.684 151.005 139.686 157.469 C 140.117 158.027 140.453 158.603 140.762 159.268 C 144.675 167.683 139.968 169.853 140.031 169.87 C 139.935 169.744 127.284 166.772 127.408 166.942"></path>
				<path fill="none" stroke="#000000" stroke-width="2" d="M 140.048 169.987 C 139.802 169.173 152.319 188.438 162.939 205.481 C 163.013 205.245 162.959 205.494 162.991 205.379"></path>
				<path fill="none" stroke="#000000" stroke-width="2" d="M 221.382 169.619 C 221.613 168.721 211.709 181.108 208.473 203.402 C 208.457 203.507 208.436 203.242 208.426 203.64"></path>
				<path fill="none" stroke="#000000" stroke-width="2" d="M 231.314 168.496 C 231.676 167.973 232.666 184.707 211.872 212.241 C 211.949 212.067 214.085 223.606 212.152 226.757 C 210.256 229.85 203.083 229.663 200.751 227.306 C 200.676 227.295 200.655 227.219 200.602 227.184"></path>
				<path fill="none" stroke="#000000" stroke-width="2" d="M 208.524 203.142 C 208.512 203.176 208.508 203.164 208.474 203.244 C 208.105 204.108 205.897 208.9 203.829 210.626 C 201.882 212.25 199.953 217.408 199.472 218.701 C 199.394 218.911 199.337 219.077 199.35 219.047"></path>
				<path fill="none" stroke="#000000" stroke-width="2" d="M 187.86 29.7976 C 187.86 29.7804 187.861 29.8707 187.859 30.0038 C 187.833 31.9917 187.573 48.4785 189.246 50.7434 C 189.756 51.4341 190.61 50.7712 191.582 49.3545 C 193 47.2886 194.634 43.5622 195.686 39.7672 C 196.445 37.0285 196.919 34.2498 196.804 32.0151 C 196.417 24.5402 193.674 20.2871 193.674 20.284 C 193.673 20.2917 189.223 15.6679 180.736 14.6262 C 172.26 13.5858 167.876 13.2517 161.436 14.5767 C 155.058 15.8888 154.673 19.6647 137.797 20.9872 C 137.654 20.9984 137.521 21.036 137.38 21.0292"></path>
				<path fill="none" stroke="#000000" stroke-width="2" d="M 195.45 39.8714 C 195.474 39.8984 195.526 39.817 195.676 39.7554 C 197.32 39.076 206.435 35.1716 202.669 49.834 C 198.785 64.956 190.543 54.6812 191.704 49.4031"></path>
				<path fill="none" stroke="#000000" stroke-width="2" d="M 179.117 42.2311 C 179.111 43.7082 178.228 44.8881 177.151 44.8682 C 176.074 44.8482 175.217 43.6393 175.222 42.1655 C 175.227 40.6918 176.094 39.5125 177.173 39.5291 C 178.252 39.5456 179.124 40.7539 179.117 42.2311"></path>
				<path fill="none" stroke="#000000" stroke-width="2" d="M 160.888 42.0536 C 160.893 43.4871 159.916 44.6541 158.697 44.6735 C 157.488 44.6928 156.494 43.5544 156.49 42.1178 C 156.485 40.6909 157.47 39.5217 158.679 39.5055 C 159.898 39.4891 160.883 40.6298 160.888 42.0536"></path>
				<path fill="none" stroke="#000000" stroke-width="2" d="M 173.727 34.3248 C 173.724 34.3238 181.194 29.7287 185.29 35.6385"></path>
				<path fill="none" stroke="#000000" stroke-width="2" d="M 148.484 35.8238 C 148.485 35.8235 149.396 35.0256 150.816 34.2602 C 153.268 32.9393 157.214 31.7397 160.541 34.9722"></path>
				<path fill="none" stroke="#000000" stroke-width="2" d="M 185.493 26.4326 C 185.47 26.4509 185.244 26.604 184.739 26.8955 C 181.563 28.73 169.044 34.7445 151.48 29.1599 C 149.522 28.5376 147.481 27.7572 145.411 26.8081 C 145.214 26.7174 144.995 26.6268 144.803 26.5271"></path>
				<path fill="none" stroke="#000000" stroke-width="2" d="M 151.567 28.8186 C 151.56 28.8168 151.529 28.946 151.472 29.1582 C 151.216 30.1094 150.533 32.8508 150.816 34.2602 C 150.832 34.3384 150.861 34.4033 150.876 34.4724"></path>
				<path fill="none" stroke="#000000" stroke-width="2" d="M 156.245 22.402 C 156.621 22.2823 156.987 22.1436 157.354 21.9955"></path>
				<path fill="none" stroke="#000000" stroke-width="2" d="M 137.799 21.023 C 137.787 21.0338 147.791 25.2241 156.236 22.4109"></path>
				<path fill="none" stroke="#000000" stroke-width="2" d="M 145.468 26.6801 C 145.47 26.6765 152.165 25.3304 156.234 22.4131 C 156.236 22.4001 156.245 22.4033 156.245 22.4017"></path>
				<path fill="none" stroke="#000000" stroke-width="2" d="M 188.547 30.5357 C 188.417 30.4704 188.176 30.2786 187.86 29.9963 C 186.965 29.1946 185.536 27.7324 184.727 26.8989 C 184.353 26.5134 184.105 26.2607 184.107 26.2592"></path>
				<path fill="none" stroke="#000000" stroke-width="2" d="M 177.386 295.73 C 177.38 295.722 177.408 295.901 177.441 296.209 C 177.68 298.448 178.651 308.029 177.646 309.565 C 176.508 311.304 167.617 311.924 167.616 311.924 C 167.616 311.923 165.363 307.965 165.362 307.967 C 165.365 307.965 155.293 313.671 155.29 313.672 C 153.512 313.892 146.259 314.585 142.169 311.655 C 137.476 308.293 141.391 305.306 141.391 305.309 C 141.391 305.309 144.831 303.815 144.829 303.817 C 154.419 302.137 165.004 295.364 166.666 294.296 C 166.816 294.2 166.888 294.129 166.892 294.138"></path>
			</g>
		</g>
		<path display="inline" fill="none" stroke="#000000" stroke-width="2" d="M 223.608 313.928 C 223.608 313.938 223.607 313.945 223.598 313.95 C 223.228 314.658 221.856 315.79 216.92 315.923 C 209.544 316.121 201.793 309.892 201.795 309.901 C 201.793 309.898 200.745 311.878 200.743 311.879 C 200.746 311.873 195.405 312.542 192.342 310.093 C 189.281 307.646 192.302 296.302 192.541 296.247 C 192.543 296.238 192.784 296.01 192.785 296.007 C 192.784 295.913 192.776 295.831 192.775 295.734 C 198.44 298.91 205.129 297.346 205.13 297.346 C 205.125 297.341 218.337 304.083 224.322 305.399 C 224.583 306.096 226.226 310.847 223.608 313.928"></path>
	</g>
	<g>
		<path fill="#5C4335" stroke="#000000" stroke-width="2" d="M 223.607 313.928 C 223.607 313.938 223.607 313.945 223.597 313.95 C 223.228 314.658 221.856 315.79 216.92 315.923 C 209.544 316.121 201.793 309.892 201.795 309.901 C 201.793 309.898 200.745 311.878 200.743 311.879 C 200.746 311.873 195.405 312.542 192.342 310.093 C 189.281 307.646 192.302 296.302 192.541 296.247 C 192.543 296.238 192.784 296.01 192.785 296.007 C 192.784 295.913 192.776 295.831 192.775 295.734 C 198.44 298.91 205.129 297.346 205.13 297.346 C 205.125 297.341 218.336 304.083 224.322 305.399 C 224.582 306.096 226.226 310.847 223.607 313.928"></path>
		<path fill="#5C4335" stroke="#000000" stroke-width="2" d="M 177.441 296.208 C 177.679 298.449 178.651 308.029 177.646 309.565 C 176.508 311.304 167.617 311.924 167.616 311.924 C 167.616 311.923 165.363 307.965 165.362 307.967 C 165.365 307.965 155.293 313.67 155.29 313.671 C 153.512 313.892 146.258 314.584 142.169 311.654 C 137.476 308.293 141.391 305.306 141.391 305.309 C 141.391 305.309 144.831 303.815 144.829 303.817 C 154.419 302.134 165.005 295.364 166.667 294.296 C 168.191 295.456 172.009 297.669 177.441 296.208"></path>
		<path fill="#5C4335" stroke="#000000" stroke-width="2" d="M 158.678 39.5055 C 159.897 39.4892 160.882 40.6298 160.887 42.0536 C 160.892 43.4871 159.915 44.6541 158.696 44.6736 C 157.488 44.6929 156.493 43.5544 156.489 42.1178 C 156.484 40.6909 157.47 39.5217 158.678 39.5055"></path>
		<path fill="#5C4335" stroke="#000000" stroke-width="2" d="M 177.172 39.529 C 178.252 39.5456 179.123 40.7539 179.116 42.2311 C 179.11 43.7082 178.227 44.8881 177.15 44.8682 C 176.073 44.8482 175.216 43.6393 175.221 42.1655 C 175.226 40.6918 176.093 39.5125 177.172 39.529"></path>
		<path fill="#5C4335" stroke="#000000" stroke-width="2" d="M 184.736 26.8951 C 181.56 28.7306 169.041 34.7441 151.476 29.16 C 149.518 28.5378 147.476 27.7574 145.408 26.8079 C 145.399 26.8057 145.47 26.6789 145.466 26.6805 C 145.47 26.6752 152.162 25.3325 156.235 22.4117 C 147.79 25.2229 137.786 21.0347 137.798 21.0228 C 137.794 21.0212 137.797 21.006 137.797 20.9867 C 154.672 19.6653 155.059 15.8886 161.436 14.5767 C 167.876 13.2518 172.26 13.5858 180.736 14.6262 C 189.223 15.6679 193.673 20.2917 193.674 20.284 C 193.674 20.2871 196.417 24.5402 196.804 32.0151 C 196.92 34.2499 196.443 37.0283 195.685 39.7673 C 194.635 43.5621 193.003 47.2886 191.581 49.3546 C 190.607 50.7706 189.755 51.4344 189.246 50.7435 C 187.576 48.4779 187.834 31.9928 187.859 30.0031 C 186.973 29.1828 185.523 27.7421 184.736 26.8951"></path>
		<path fill="#E0DACB" stroke="#000000" stroke-width="2" d="M 232.572 148.205 C 232.671 148.093 234.074 147.475 234.177 147.379 C 233.968 147.553 236.608 163.388 231.363 168.415 C 227.624 171.998 223.47 170.608 221.483 169.349 C 220.676 168.837 220.157 168.454 220.186 168.413 C 220.147 168.478 219.967 160.945 220.036 154.742 C 220.161 154.554 232.77 147.966 232.572 148.205"></path>
		<path fill="#F1D0BD" stroke="#000000" stroke-width="2" d="M 208.472 203.37 C 211.708 181.158 221.613 168.69 221.381 169.629 C 221.462 169.255 221.442 169.488 221.488 169.338 C 223.459 170.649 227.649 171.934 231.324 168.481 C 231.661 168 232.676 184.694 211.87 212.246 C 211.951 212.067 214.085 223.608 212.152 226.76 C 210.254 229.854 203.085 229.659 200.749 227.313 C 200.305 224.18 199.889 221.325 199.468 218.703 C 199.951 217.43 201.879 212.221 203.825 210.638 C 205.899 208.951 208.107 203.962 208.472 203.37"></path>
		<path fill="#E0DACB" stroke="#000000" stroke-width="2" d="M 177.341 152.591 C 177.189 150.247 177.139 148.24 177.012 146.111 C 175.478 120.388 177.159 101.447 176.938 100.743 C 177.003 101.008 176.898 100.616 176.912 100.696 C 178.93 100.272 181.181 99.1116 183.451 96.6928 C 183.332 96.751 194.707 98.9247 194.779 98.8667 C 195.954 96.7948 195.66 94.2481 195.086 92.1792 C 194.939 92.1792 195.568 92.1577 195.047 92.1677 C 195.957 92.2479 222.091 96.911 227.61 106.32 C 233.088 115.659 233.592 136.559 232.495 148.268 C 232.875 147.884 220.105 154.591 220.041 154.745 C 220.089 153.912 220.034 153.269 220.094 152.507 C 220.137 151.962 220.025 151.626 220.053 151.147 C 220.429 144.882 214.799 133.661 214.615 132.066 C 202.379 158.558 193.805 194.453 194.273 191.821 C 194.011 192.685 188.094 194.344 181.316 195.294 C 181.324 194.907 181.363 195.503 181.294 194.838 C 180.089 192.861 178.744 174.197 177.341 152.591"></path>
		<path fill="#686979" stroke="#000000" stroke-width="2" d="M 178.979 212.894 C 178.662 214.77 173.181 261.898 177.922 296.327 C 177.72 295.91 177.595 296.172 177.442 296.213 C 172.008 297.664 168.192 295.462 166.665 294.294 C 166.176 293.92 165.923 293.67 165.922 293.66 C 165.932 293.693 163.366 269.323 162.042 247.041 C 161.579 239.251 161.713 230.283 162.084 222 C 162.348 216.099 162.71 210.414 162.968 205.39 C 163.384 197.29 163.373 190.415 163.359 190.393 C 163.359 190.405 163.42 190.086 163.39 190.064 C 166.873 193.95 174.655 195.741 181.327 195.212 C 188.008 194.682 194.147 192.161 194.175 192.18 C 194.18 192.09 196.421 199.883 199.471 218.702 C 199.886 221.265 200.312 224.205 200.748 227.32 C 201.039 229.401 201.337 231.652 201.635 234.029 C 205.216 262.579 205.131 297.46 205.128 297.32 C 205.152 297.574 198.397 298.507 192.806 296.023 C 191.871 272.48 182.268 211.625 182.506 213.276 C 182.406 212.501 182.457 212.721 182.42 212.378 C 182.438 212.654 178.956 212.432 178.979 212.894"></path>
		<path fill="#F1D0BD" stroke="#000000" stroke-width="2" d="M 195.677 39.759 C 197.317 39.0717 206.437 35.173 202.669 49.8343 C 198.784 64.9551 190.544 54.682 191.703 49.403 C 191.659 49.4359 191.589 49.3421 191.58 49.3562 C 192.998 47.2802 194.646 43.5748 195.677 39.759"></path>
		<path fill="#686979" stroke="#000000" stroke-width="2" d="M 195.087 92.1777 C 195.657 94.2508 195.951 96.7934 194.777 98.8669 C 194.709 98.9255 183.325 96.7493 183.454 96.6942 C 181.157 99.1029 178.956 100.284 176.909 100.692 C 171.049 101.859 168.002 96.7803 168.115 96.7791 C 164.276 100.897 150.526 101.792 150.701 101.765 C 150.582 101.796 153.128 92.874 153.124 92.8346 C 153.158 92.8555 154.099 89.0781 154.164 89.0824 C 153.933 89.0572 169.082 92.7004 169.751 90.9041 C 169.724 90.9074 178.896 89.8905 181.203 91.6525 C 182.559 92.6886 186.754 91.3081 189.82 89.9963 C 191.951 89.0849 193.578 88.2299 193.571 88.2264 C 193.571 88.227 194.474 89.9476 195.087 92.1777"></path>
		<path fill="#F1D0BD" stroke="#000000" stroke-width="2" d="M 169.813 81.1191 C 166.825 81.5713 162.32 81.2576 157.614 78.2623 C 148.368 72.378 151.125 34.0978 150.789 34.5631 C 150.937 34.3258 150.827 34.3403 150.812 34.2618 C 150.542 32.8507 151.201 30.1064 151.479 29.1613 C 169.036 34.7421 181.566 28.7319 184.735 26.8948 C 185.525 27.7418 186.969 29.184 187.859 30.002 C 187.83 31.9975 187.578 48.4711 189.243 50.7473 C 189.344 52.8306 187.949 57.4781 186.079 62.3695 C 183.558 68.9614 179.988 76.1722 177.39 77.7551 C 175.168 79.1091 172.694 80.6832 169.813 81.1191 M 179.117 42.2311 C 179.124 40.7539 178.252 39.5456 177.173 39.5291 C 176.094 39.5125 175.227 40.6918 175.222 42.1655 C 175.217 43.6393 176.074 44.8482 177.151 44.8682 C 178.228 44.8881 179.111 43.7082 179.117 42.2311 M 160.887 42.0536 C 160.882 40.6298 159.897 39.4892 158.678 39.5055 C 157.47 39.5217 156.484 40.6909 156.489 42.1178 C 156.493 43.5544 157.488 44.6928 158.696 44.6736 C 159.916 44.6541 160.892 43.4871 160.887 42.0536"></path>
		<path fill="#F1D0BD" stroke="#000000" stroke-width="2" d="M 189.734 89.7886 C 189.563 89.7842 189.869 89.9975 189.816 89.9947 C 186.76 91.3094 182.57 92.6894 181.203 91.6517 C 178.885 89.891 169.753 90.9088 169.729 90.9022 C 170.147 89.4058 169.898 83.0967 169.774 81.1299 C 172.845 80.6306 175.108 79.1304 177.372 77.7614 C 180.017 76.1618 183.55 68.961 186.07 62.3749 C 186.112 62.3771 186.13 62.3943 186.236 62.4322 C 186.004 62.3134 187.454 81.5544 189.734 89.7886"></path>
		<path fill="#E0DACB" stroke="#000000" stroke-width="2" d="M 177.341 152.591 C 178.746 174.197 180.089 192.86 181.292 194.838 C 181.349 195.427 181.346 195.059 181.296 195.181 C 174.748 195.825 166.756 193.861 163.454 190.107 C 162.96 189.546 162.036 188.609 161.939 188.073 C 160.937 182.559 147.277 141.864 139.705 126.613 C 139.66 129.056 140.6 151.744 139.8 157.481 C 139.685 157.321 139.668 157.499 139.7 157.476 C 134.662 151.003 124.538 152.258 124.622 152.255 C 124.745 152.361 124.276 152.035 124.827 152.417 C 123.831 151 125.144 151.134 125.018 150.238 C 123.462 139.192 121.302 109.906 128.915 103.324 C 136.527 96.7426 151.256 92.5869 152.371 92.9361 C 151.765 92.7419 153.301 92.9073 153.121 92.8352 C 153.13 92.8804 150.581 101.794 150.703 101.765 C 150.523 101.791 164.283 100.898 168.112 96.7783 C 168.032 96.7866 171.004 101.849 176.939 100.698 C 176.862 100.613 177.021 101.01 176.938 100.743 C 177.159 101.447 175.478 120.388 177.012 146.111 C 177.139 148.24 177.188 150.247 177.341 152.591"></path>
		<path fill="#F1D0BD" stroke="#000000" stroke-width="2" d="M 162.948 205.45 C 162.74 210.336 162.331 216.148 162.087 221.981 C 162.064 221.997 161.853 221.981 161.853 221.981 C 148.563 221.772 156.835 208.07 156.821 208.039 C 156.88 208.221 149.554 201.873 138.63 192.746 C 127.706 183.62 127.6 167.214 127.354 166.856 C 127.363 166.945 139.877 169.549 140.045 169.968 C 139.81 169.172 152.306 188.47 162.948 205.45"></path>
		<path fill="#E0DACB" stroke="#000000" stroke-width="2" d="M 140.762 159.268 C 144.677 167.685 139.966 169.85 140.033 169.872 C 139.927 169.732 127.297 166.791 127.399 166.929 C 127.358 166.88 124.632 160.596 124.587 152.249 C 124.599 152.252 124.58 152.247 124.626 152.252 C 124.524 152.251 134.684 151.005 139.686 157.469 C 140.117 158.027 140.452 158.602 140.762 159.268"></path>
		<path fill="none" stroke="#000000" stroke-width="2" d="M 166.951 40.1867 C 166.922 40.1116 161.694 53.3043 162.223 56.5408 C 162.751 59.7773 170.502 58.4543 172.492 56.5708"></path>
		<path fill="none" stroke="#000000" stroke-width="2" d="M 158.114 63.382 C 158.129 63.3278 169.067 79.6784 179.083 61.675"></path>
		<path fill="none" stroke="#000000" stroke-width="2" d="M 158.496 136.762 C 158.839 136.844 177.405 146.265 176.93 146.095 C 177.314 146.245 190.057 152.972 189.826 152.864 C 189.899 152.896 183.515 152.527 177.36 152.686 C 173.138 152.796 169.057 153.2 167.493 154.831"></path>
		<path fill="none" stroke="#000000" stroke-width="2" d="M 177.822 212.759 C 177.823 212.768 178.682 212.717 178.969 212.704 C 179.836 212.665 181.565 212.514 182.425 212.437 C 183.537 212.337 186.87 211.928 186.871 211.897"></path>
		<path fill="none" stroke="#000000" stroke-width="2" d="M 173.727 34.3248 C 173.724 34.3238 181.194 29.7287 185.29 35.6385"></path>
		<path fill="none" stroke="#000000" stroke-width="2" d="M 148.484 35.8238 C 148.485 35.8235 149.396 35.0256 150.816 34.2602 C 153.268 32.9393 157.214 31.7397 160.541 34.9722"></path>
		<path fill="none" stroke="#000000" stroke-width="2" d="M 136.753 116.071 C 136.78 116.103 137.425 119.998 139.876 126.459 C 139.671 126.567 140.27 126.272 139.58 126.623 C 147.462 141.84 160.819 182.565 161.966 188.066 C 162.077 188.601 162.93 189.554 163.438 190.11 C 166.83 193.83 174.649 195.853 181.342 195.184 C 188.045 194.514 193.999 192.614 194.314 191.792 C 193.593 194.603 202.696 158.316 214.43 132.204 C 217.705 124.917 218.804 119.471 219.864 114.26"></path>
	</g>
</g>
</svg>
