<!--?xml version="1.0" encoding="utf-8"?-->
<!-- Generator: Adobe Illustrator 15.0.2, SVG Export Plug-In . SVG Version: 6.00 Build 0)  -->

<svg version="1.1" id="Layer_1" xmlns="http://www.w3.org/2000/svg" xmlns:xlink="http://www.w3.org/1999/xlink" x="0px" y="0px" width="1020px" height="200px" viewBox="0 0 1020 200" enable-background="new 0 0 1020 200" xml:space="preserve">
<path d="M 982.105 75.9156 C 987.186 82.4284 987.679 90.3824 991.321 96.7775 C 982.872 120.032 940.143 101.133 915.654 95.2419 C 909.465 93.753 902.661 93.6602 895.522 92.0539 C 884.666 89.6113 873.997 84.3525 862.161 81.0474 C 838.692 74.4935 814.108 72.9475 793.041 67.2068 C 781.787 64.1403 770.81 58.6031 759.834 56.3646 C 737.237 51.7561 715.367 52.549 700.987 51.8675 C 693.124 51.4948 687.14 51.6369 681.223 56.5346 C 677.709 59.4432 674.319 64.77 670.125 67.7652 C 666.078 70.655 662.951 71.8954 658.937 74.8854 C 654.773 77.9877 651.027 83.487 646.906 86.8218 C 644.618 88.6731 643.034 89.7745 640.29 94.2291 C 638.578 94.9105 636.72 96.5283 634.203 97.57 C 633.118 103.569 631.459 110.074 629.744 116.902 C 628.247 122.865 626.341 130.296 624.264 135.367 C 623.165 138.05 621.774 139.788 620.722 142.192 C 618.662 146.902 617.908 152.996 617.812 157.13 C 616.18 162.015 614.921 167.568 612.901 171.841 C 612.3 173.111 611.655 173.097 610.436 174.86 C 608.2 178.091 606.343 183.871 602.623 183.605 C 602.301 182.227 603.305 179.885 603.938 177.168 C 600.392 178.664 594.888 187.699 590.933 182.52 C 590.712 179.463 594.278 179.371 594.574 175.465 C 590.916 177.387 586.98 183.161 582.219 180.729 C 582.287 177.97 584.346 175.618 585.578 173.813 C 584.132 170.655 587.352 166.119 587.695 161.637 C 585.992 162.347 583.172 161.641 580.46 162.773 C 577.05 164.196 572.837 169.981 569.538 167.785 C 571.502 159.036 577.11 157.946 578.683 149.767 C 586.457 142.584 595.506 139.134 597.71 123.736 C 588.217 125.183 576.215 125.998 563.328 126.276 C 553.025 126.497 541.786 129.968 527.943 129.966 C 518.518 129.964 508.99 127.714 498.457 126.999 C 484.721 126.066 468.979 126.957 454.076 126.562 C 450.11 126.457 445.96 127.697 441.609 127.616 C 429.05 127.381 416.353 124.373 403.991 124.526 C 398.775 129.317 397.352 138.595 393.536 145.481 C 391.959 148.328 388.818 149.927 387.971 152.945 C 387.156 155.852 388.73 159.352 387.959 162.356 C 386.346 168.639 382.847 171.805 377.13 174.74 C 375.824 178.835 374.776 183.533 369.974 183.761 C 367.18 184.627 369.442 179.623 367.945 178.463 C 366.068 181.42 361.848 185.567 358.29 184.3 C 355.059 183.582 358.553 180.156 358.66 177.567 C 353.865 180.593 350.251 188.859 342.97 186.572 C 343.216 182.73 345.493 181.422 345.628 177.688 C 344.213 174.632 346.224 167.105 342.804 165.831 C 339.76 165.08 338.174 168.738 334.976 169.188 C 333.216 169.436 331.655 167.734 329.594 168.333 C 326.336 169.282 325.225 173.97 321.326 174.385 C 316.018 169.148 323.534 160.723 324.114 154.172 C 326.927 150.271 331.854 148.903 335.701 146.378 C 337.142 143.32 337.062 138.639 337.626 134.833 C 336.461 130.581 331.666 132.003 327.808 131.126 C 324.944 130.475 322.331 128.191 319.221 128.085 C 314.217 127.914 307.963 130.702 301.701 130.958 C 289.571 131.452 277.734 127.894 262.466 130.735 C 259.366 131.312 256.087 133.642 252.735 134.367 C 247.756 135.444 242.067 135.429 237.234 135.094 C 233.316 134.823 230.282 132.147 226.307 131.064 C 224.128 130.47 221.069 131.131 218.209 130.764 C 215.872 130.464 213.116 129.449 211.132 129.688 C 205.297 130.39 198.03 136.011 190.331 140.079 C 180.782 145.124 169.173 152.889 158.679 160.547 C 147.134 168.973 133.83 164.783 119.672 156.374 C 109.255 150.186 96.2461 147.021 82.929 143.822 C 77.9227 142.619 73.1363 140.231 68.5747 139.27 C 60.2309 137.511 46.1554 137.137 46.2077 126.769 C 46.2249 123.351 50.1528 120.459 52.351 117.385 C 54.7268 114.064 55.8947 110.243 59.2019 109.216 C 63.3922 111.833 66.8931 118.264 71.2736 118.178 C 76.0991 118.083 75.8377 110.594 80.0606 107.647 C 85.2134 109.209 90.3286 119.651 95.5253 120.354 C 100.175 120.984 100.89 114.312 104.027 108.267 C 108.346 111.163 112.429 121.952 116.591 123.664 C 121.131 125.53 121.08 116.317 124.8 111.873 C 128.644 116.988 131.661 125.412 135.29 131.342 C 139.081 131.322 140.786 123.653 143.054 115.89 C 149.858 131.782 156.189 127.19 161.113 109.641 C 164.549 110.924 166.842 114.202 169.757 115.145 C 174.163 113.343 173.331 103.946 177.65 103.153 C 182.628 110.012 189.508 108.826 193.828 101.523 C 196.425 101.734 198.187 103.1 200.055 103.962 C 203.293 103.114 203.802 99.2323 205.943 97.4 C 208.236 97.829 210.092 98.6271 211.974 98.3036 C 214.203 97.9206 215.311 95.2542 217.252 94.6488 C 220.126 93.7523 223.114 97.8963 224.864 93.792 C 220.974 91.2039 214.215 89.8876 211.301 95.239 C 209.41 94.7166 207.266 94.2855 205.266 93.4378 C 202.345 94.2476 202.451 98.9655 199.321 99.8614 C 196.399 99.7079 194.628 97.4035 192.505 95.3463 C 190.266 97.5396 189.319 101.769 186.455 103.631 C 182.767 102.796 180.286 99.155 176.988 96.3512 C 173.569 98.1127 171.844 103.696 168.841 107.509 C 165.421 107.347 164.103 100.938 161.182 97.6998 C 157.59 100.758 154.966 108.563 152.874 117.53 C 149.434 115.283 146.533 108.751 143.78 101.101 C 139.365 102.213 138.523 120.87 134.72 119.511 C 131.114 118.223 128.781 104.159 124.789 99.9036 C 120.838 102.386 119.063 113.623 114.849 112.731 C 110.88 111.89 107.953 105.012 103.964 101.71 C 99.7937 104.76 98.3358 112.009 93.9282 113.47 C 89.3166 110.536 86.5766 105.167 82.0694 102.734 C 76.6591 104.089 75.8167 111.759 71.8758 114.55 C 65.3226 112.702 63.9628 103.42 58.4398 103.967 C 54.3121 104.377 51.0954 114.789 45.9481 115.294 C 41.1473 114.421 42.5613 106.406 41.491 101.153 C 40.8905 98.2053 35.6804 96.264 34.3546 91.3813 C 33.7596 89.1899 34.8287 85.5688 34.3427 82.5185 C 33.5649 77.6378 30.2009 74.8279 30.0782 72.3745 C 29.8551 67.9153 32.8086 61.8573 35.1845 59.5336 C 36.9837 57.7741 49.1993 51.7426 54.7467 50.4506 C 61.9212 48.7795 68.479 51.7863 77.1893 48.0658 C 79.7208 46.9845 82.0707 44.5368 84.6568 43.1953 C 86.9645 41.9981 89.2099 41.9316 91.3187 40.6474 C 98.3675 36.3546 104.362 30.0613 109.584 28.4058 C 117.8 25.8008 126.555 26.4339 134.571 24.4947 C 139.725 23.2479 143.863 21.0995 148.763 21.124 C 156.736 21.1638 163.609 26.7698 170.073 28.1401 C 172.205 28.5921 173.743 27.36 175.674 27.5502 C 186.205 28.588 194.939 35.3194 202.255 30.3774 C 204.197 29.0653 205.173 25.6913 207.77 24.1412 C 212.579 21.2703 218.281 23.8949 222.673 23.7939 C 224.323 23.756 225.439 22.6515 227.06 22.4966 C 228.454 22.3634 230.234 23.4305 231.492 23.212 C 237.815 22.1138 242.45 17.7355 248.885 18.4204 C 252.031 18.7553 255.682 20.5032 258.833 21.8937 C 263.443 23.9277 265.902 27.8516 272.523 26.1672 C 274.327 25.7081 275.691 24.1611 277.314 23.5593 C 281.679 21.9398 287.543 21.223 292.831 19.5882 C 297.906 18.0191 303.004 14.976 306.761 14.3264 C 308.661 13.9979 309.829 14.8211 311.158 14.4595 C 317.098 12.8429 321.239 7.65533 326.668 13.2377 C 335.198 11.5347 348.37 5.20556 355.651 10.4364 C 365.985 10.9336 374.76 4.95715 384.987 6.15824 C 389.332 6.66852 393.428 9.21802 397.713 9.42206 C 401.956 9.62415 405.905 8.05953 409.948 8.70372 C 416.226 9.70399 421.901 15.3907 427.862 16.0148 C 431.028 16.3464 432.971 15.0975 435.68 14.8452 C 443.051 14.159 452.365 13.8356 459.564 14.3146 C 469.284 14.9612 479.643 19.4585 489.974 20.5667 C 501.842 21.8399 513.676 21.2465 524.109 22.3168 C 528.833 22.8013 532.807 24.8467 536.677 25.2843 C 544.736 26.1956 553.073 23.8812 560.375 24.7439 C 565.29 25.3244 569.71 28.4437 573.403 28.2725 C 575.56 28.1724 577.135 26.8052 578.91 26.3185 C 583.061 25.1798 587.361 25.4387 590.159 24.1224 C 592.303 23.1139 593.761 20.8293 595.403 20.2125 C 597.982 19.2435 600.358 20.0535 602.294 19.4943 C 607.995 17.8481 611.793 13.7104 614.994 8.84944 C 617.534 14.3444 620.734 13.8797 625.078 15.0193 C 629.312 16.1303 635.33 20.8611 637.851 10.6554 C 641.157 10.6062 643.656 7.74096 646.103 6.76295 C 648.976 5.6149 651.245 6.68595 653.411 5.90991 C 655.227 5.25951 656.94 3.49191 658.359 2.85022 C 660.18 2.02649 661.628 2.47136 662.985 1.64258 C 665.589 0.0529169 668.391 -3.73736 670.696 -4.53397 C 673.619 -5.54408 675.59 -2.92706 678.127 -3.31824 C 683.889 -4.20656 691.795 -8.4733 701.791 -10.0432 C 709.169 -11.2021 714.794 -11.9307 721.479 -10.4232 C 722.889 -10.1053 723.366 -8.72716 723.783 -8.72564 C 726.938 -8.71411 730.38 -10.4531 733.014 -10.2801 C 736.228 -10.0691 738.67 -8.05289 741.315 -7.5734 C 747.916 -6.3766 755.685 -7.74254 762.059 -6.2473 C 768.124 -4.82443 772.603 0.146868 778.222 2.02664 C 780.924 2.9307 784.39 2.22897 786.516 2.71444 C 794.207 4.47012 800.758 10.5937 808.239 12.5131 C 811.164 13.2636 814.298 12.8695 816.263 13.4789 C 831.699 18.2668 844.57 27.9003 860.2 31.7565 C 873.829 35.1188 889.459 31.7553 900.053 42.4437 C 907.128 41.2702 915.316 42.0359 921.309 45.6872 C 924.581 47.6806 925.308 50.5313 928.258 52.4876 C 931.571 54.685 936.443 55.8247 940.042 57.8049 C 943.664 59.7984 947.428 63.2627 949.389 63.9244 C 964.108 68.8905 974.666 66.3801 982.105 75.9156 M 952.15 97.5461 C 962.812 99.2446 978.95 108.043 984.631 95.7544 C 978.366 85.4076 964.719 83.9645 952.701 79.3099 C 939.868 74.3397 927.884 66.2938 914.233 60.6131 C 909.65 58.7062 903.625 57.8403 897.857 55.7233 C 892.991 53.9375 888.4 50.5227 883.054 48.8632 C 866.573 43.7472 848.776 40.7883 831.014 36.6356 C 834.449 42.3963 843.754 42.3525 850.2 44.999 C 857.042 47.8078 865.202 50.3381 866.012 56.5682 C 860.63 58.742 856.972 52.2496 850.526 49.5921 C 841.454 45.8519 828.225 47.103 820.764 40.8305 C 821.95 36.169 829.49 40.9377 829.845 36.4432 C 795.314 26.1748 775.025 5.69832 742.495 5.54633 C 740.334 5.53624 738.918 8.51269 735.935 8.50652 C 724.942 2.41199 712.219 6.94147 701.318 7.16683 C 690.434 7.39183 682.306 4.81736 674.76 8.91331 C 673.915 9.37171 672.866 11.0485 671.578 11.5082 C 670.668 11.8328 669.739 10.5604 668.301 11.0573 C 665.011 12.1946 662.213 15.213 659.647 14.7869 C 659.111 14.6977 658.5 12.6705 657.109 12.9538 C 654.632 13.4586 650.566 17.5858 646.83 20.1542 C 641.706 23.6768 635.592 24.6213 628.388 26.6653 C 623.039 28.1828 616.464 31.9135 609.207 32.7727 C 607.723 32.9484 605.711 32.2331 603.626 32.6842 C 601.492 33.146 599.268 35.1602 596.515 35.5593 C 592.517 36.1389 588.183 33.3627 582.493 33.1945 C 577.728 33.0537 573.01 35.3938 569.555 35.8089 C 565.148 36.3385 559.002 34.8724 553.465 35.1008 C 551.828 35.1683 549.778 36.0553 547.762 35.9141 C 541.853 35.5 535.37 32.2958 528.604 31.6507 C 512.063 30.0734 496.849 32.504 483.997 26.683 C 479.521 28.0817 474.215 29.8372 468.735 28.7755 C 465.952 28.2363 462.828 25.5141 459.628 24.8667 C 453.207 23.5675 444.845 24.8134 436.894 23.2702 C 434.506 22.8066 432.226 21.2162 429.55 20.9551 C 419.769 20.0009 409.621 21.9664 399.488 20.5476 C 396.763 20.1661 393.751 18.7034 390.684 18.558 C 386.717 18.37 382.673 19.7335 378.3 19.5753 C 373.141 19.3886 367.737 17.5936 361.917 17.6203 C 355.772 17.6484 349.509 19.8778 344.046 20.4063 C 341.676 20.6355 339.637 19.5803 337.071 19.7075 C 331.657 19.9759 326.613 22.4825 321.907 22.7929 C 315.021 23.2471 310.568 18.2345 305.276 18.6702 C 302.335 18.9122 299.049 21.6353 295.643 22.6929 C 286.649 25.4858 275.185 26.0451 270.596 33.2856 C 263.124 27.8971 254.69 19.8877 244.646 22.1616 C 242.919 22.5527 240.282 24.5876 237.628 25.9455 C 235.347 27.1126 232.131 28.2502 229.993 29.5593 C 227.814 30.8942 225.832 33.6846 223.409 35.0883 C 217.801 38.3365 209.69 40.1998 203.832 39.8582 C 197.875 39.5108 191.806 36.4225 185.529 34.6417 C 180.032 33.082 175.015 33.4245 171.106 32.2959 C 165.113 30.5655 158.798 25.6336 151.972 24.4686 C 146.453 23.5266 141.081 25.1361 134.463 26.8 C 126.957 28.687 118.748 28.8185 110.882 31.7855 C 107.292 33.1392 101.495 37.5693 97.1835 40.3767 C 86.5473 47.3027 71.7063 58.5043 59.6926 55.1751 C 61.2992 58.9658 67.2458 60.7928 67.9365 67.1687 C 68.217 69.7568 68.2149 77.2854 63.4612 76.4143 C 66.5226 66.2908 63.6246 58.755 53.8173 60.8343 C 51.6314 57.7006 46.1895 56.9188 42.3584 59.674 C 43.8314 64.06 42.4157 76.4769 34.3673 72.9325 C 36.5805 78.2894 38.5386 84.0918 38.6166 92.1148 C 41.8446 94.1752 43.5698 97.1491 47.1265 97.8569 C 51.5231 98.7317 55.505 95.4742 60.4874 95.145 C 66.0943 94.7746 71.6288 97.5047 77.9126 96.7002 C 87.4713 95.4763 96.5125 91.428 105.382 92.3533 C 108.1 92.6368 110.282 95.0159 112.794 95.1033 C 116.623 95.2365 120.347 91.4311 124.323 89.7434 C 126.389 88.8662 129.096 90.7545 130.889 90.261 C 140.979 87.485 150.872 79.5672 159.937 83.2474 C 172.234 88.2397 184.508 92.0633 194.91 90.7565 C 196.737 90.5269 198.222 89.1825 199.804 88.8494 C 203.896 87.9877 208.893 88.0118 212.977 88.1306 C 218.207 88.2827 225.602 88.5751 227.722 92.0106 C 226.16 104.504 214.764 99.5999 206.146 103.831 C 203.468 105.146 201.679 108.283 199.055 109.239 C 196.957 110.004 194.695 109.222 192.283 109.882 C 187.369 111.226 182.334 114.837 177.012 117.898 C 172.375 120.565 166.769 120.203 161.794 123.582 C 152.797 129.694 144.779 145.516 134.419 137.163 C 117.93 123.867 101.442 123.547 85.2919 122.256 C 77.3696 128.641 51.7169 113.59 50.5116 129.753 C 75.1095 139.05 102.285 141.57 126.038 157.51 C 132.423 161.795 140.242 163.076 146.202 163.191 C 149.883 163.261 153.678 162.172 156.621 160.501 C 159.645 158.783 161.84 155.793 164.837 153.425 C 168.843 150.259 173.039 148.38 176.723 145.553 C 179.689 143.276 182.36 139.798 185.245 137.972 C 186.804 136.985 188.992 136.828 190.604 136.09 C 198.842 132.316 207.688 125.668 214.948 125.024 C 217.228 124.822 218.693 125.772 220.833 125.157 C 227.106 123.357 232.747 114.731 238.167 112.783 C 246.392 109.828 253.156 111.012 258.257 111.795 C 266.04 112.99 272.807 113.162 280.486 113.932 C 289.486 114.834 298.375 118.957 307.556 115.477 C 307.138 112.796 303.239 111.063 303.825 108.628 C 308.096 109.109 310.085 114.071 313.422 116.059 C 315.506 117.3 317.898 117.566 319.839 118.625 C 326.185 122.087 331.586 127.059 337.708 130.136 C 340.156 130.494 340.225 126.198 342.213 128.407 C 340.345 137.072 340.908 148.874 334.433 152.49 C 327.944 152.174 324.474 158.382 329.255 162.306 C 333.392 165.702 338.575 163.005 344.053 162.402 C 347.873 164.028 348.673 169.071 348.568 174.803 C 350.215 176.6 354.886 176.213 357.064 174.962 C 358.978 170.964 360.775 166.8 360.016 163.376 C 359.174 159.578 355.202 160.147 354.508 155.656 C 361.484 153.837 364.056 162.467 361.823 172.688 C 364.778 173.134 366.93 175.775 370.012 173.665 C 370.327 172.921 370.476 172.154 371.292 172.263 C 373.113 164.024 368.503 159.229 368.675 154.234 C 374.505 156.166 374.284 164.545 374.943 171.448 C 382.713 171.028 385.58 161.433 384.092 153.013 C 390.258 141.068 401.041 129.914 399.164 113.832 C 398.64 111.948 394.99 112.974 394.608 110.493 C 398.436 106.182 392.825 102.978 391.653 99.081 C 382.732 96.966 377.118 91.4807 371.266 86.1315 C 368.575 84.6555 363.447 85.8573 363.257 81.1038 C 375.512 84.1237 382.108 93.8616 394.341 97.6967 C 396.64 101.417 398.474 105.245 400.732 108.427 C 406.871 108.623 412.235 109.797 417.955 109.872 C 432.505 110.062 450.758 105.554 464.92 105.747 C 471.326 105.835 477.443 108.137 483.285 108.344 C 486.642 108.462 489.531 107.78 492.2 107.963 C 499.831 108.485 507.316 110.95 514.223 111.776 C 518.621 112.302 522.439 112.012 526.022 112.603 C 529.549 113.183 532.756 114.775 535.846 115.23 C 546.834 116.846 557.378 116.484 566.213 117.228 C 564.031 113.702 553.836 116.86 554.104 109.944 C 558.961 110.38 569.303 111.905 570.509 115.773 C 581.768 116.716 587.735 121.844 597.595 115.433 C 599.406 113.695 597.772 107.508 600.408 106.791 C 603.097 106.059 600.981 110.21 600.994 111.785 C 601.045 117.826 600.674 125.829 598.005 133.993 C 595.063 138.241 591.755 142.913 588.322 147.83 C 585.32 147.497 583.281 149.89 580.972 152.226 C 579.87 158.758 584.613 158.287 589.019 156.935 C 591.46 158.597 590.833 164.533 588.115 169.639 C 590.469 170.264 591.42 172.041 594.059 171.367 C 596.111 169.455 597.985 167.898 599.308 165.6 C 601.538 162.709 601.76 154.594 604.016 153.719 C 605.71 156.119 601.19 167.848 598.815 171.802 C 600.274 173.057 601.589 175.215 603.348 173.665 C 605.194 171.184 605.461 169.4 605.758 165.849 C 608.29 163.646 608.07 156.114 609.747 155.868 C 611.926 158.376 607.533 166.903 607.243 171.34 C 614.099 174.589 614.912 154.471 616.982 147.542 C 618.78 141.518 621.261 138.113 623.159 133.528 C 626.374 125.761 630.417 110.375 631.923 101.942 C 632.929 96.3064 634.27 87.9007 634.089 82.6841 C 633.978 79.4546 631.982 72.0467 630.304 71.1753 C 628.551 70.265 624.007 73.5923 620.093 72.8809 C 618.484 72.5884 616.648 68.9411 614.128 67.7371 C 612.817 67.1106 610.476 67.5239 608.194 67.0988 C 607.058 66.8872 603.832 67.5772 602.779 64.1066 C 608.47 63.8948 613.013 62.4683 616.616 64.2963 C 618.274 65.1371 619.203 68.3046 620.304 68.7065 C 623.811 69.9863 627.485 66.8868 630.577 66.9882 C 634.559 71.3052 636.694 78.2941 634.54 93.335 C 637.254 91.1357 638.908 91.8205 641.199 89.7539 C 642.236 88.8185 642.944 86.5312 643.756 85.5841 C 646.489 82.3999 649.019 80.6802 651.378 78.5858 C 654.191 76.0883 656.892 72.7166 659.404 70.6815 C 663.069 67.7126 666.394 66.2459 670.29 63.3727 C 674.092 60.5686 677.97 54.8683 682.743 50.7749 C 691.508 43.2564 705.847 46.1457 722.235 48.0133 C 733.932 49.3464 745.544 49.25 756.287 50.5596 C 768.265 52.0198 779.113 58.0133 791.9 61.4652 C 814.923 67.6806 838.007 67.1647 861.007 74.0039 C 874.235 77.9375 885.96 84.1487 898.596 86.8059 C 915.178 90.2928 927.594 95.0977 940.705 96.9014 C 945.182 97.5173 948.835 97.0178 952.15 97.5461 M 958.08 74.4924 C 964.672 74.1037 968.468 80.5239 972.509 77.908 C 970.162 74.5676 959.424 71.2108 958.08 74.4924 M 911.793 54.5111 C 922.871 58.8024 932.495 67.5241 945.096 69.0157 C 941.468 63.4716 933.814 60.3857 925.022 57.8031 C 922.19 47.7743 907.251 46.4185 894.689 47.2919 C 894.477 43.2163 887.288 43.8893 885.663 40.186 C 880.415 42.7413 872.278 35.7545 868.821 39.8936 C 875.424 44.0033 881.295 44.417 889.148 46.3892 C 894.37 47.7005 898.677 51.7811 902.845 53.0866 C 906.031 54.0846 909.4 53.5841 911.793 54.5111 M 834.725 33.7361 C 844.384 35.6613 850.73 36.2039 857.074 36.9922 C 836.896 26.4694 806.197 18.6373 786.273 9.18927 C 786.538 9.16374 784.788 8.978 784.344 9.02523 C 786.234 16.9259 796.641 16.2907 802.913 19.5672 C 806.328 21.3509 808.018 24.8086 810.875 26.0384 C 814.01 27.3875 817.135 26.358 819.98 27.2313 C 825.565 28.9456 830.3 32.8542 834.725 33.7361 M 749.482 -1.45883 C 749.98 3.71843 759.117 3.50692 762.327 1.06415 C 760.214 -1.6499 754.685 -1.41059 749.482 -1.45883 M 720.954 -0.834945 C 727.038 -0.605124 733.111 5.92961 740.668 -0.527412 C 732.612 -3.88621 724.6 -3.34187 715.883 -4.173 C 706.529 -5.06485 698.542 -4.61707 691.47 -2.89181 C 686.351 -1.64301 680.818 2.77517 676.903 2.95362 C 675.351 3.02433 674.137 -0.0516103 672.025 0.0784222 C 668.272 0.309564 662.891 7.34364 659.424 7.30512 C 659.596 8.76996 659.629 9.81474 659.458 10.3317 C 662.406 11.0771 665.78 7.59548 668.779 6.84976 C 670.529 6.41451 671.525 7.35095 672.8 6.81119 C 675.643 5.6075 678.682 2.44744 681.379 1.68648 C 689.043 -0.476056 696.898 2.47559 707.165 1.62882 C 711.671 1.25716 716.757 -0.993447 720.954 -0.834945 M 635.503 21.3736 C 641.761 19.169 647.437 16.4286 651.477 11.9653 C 649.341 6.47172 643.001 13.2508 637.372 16.4096 C 637.41 18.677 635.736 18.5529 635.503 21.3736 M 628.192 22.8973 C 630.682 22.3078 632.57 25.6344 633.795 20.7937 C 630.522 22.1632 627.921 19.7138 624.967 18.9526 C 623.684 18.6222 621.152 19.7278 619.36 18.9072 C 617.898 18.2373 616.948 14.8124 614.667 14.4226 C 611.151 17.3315 607.233 22.4693 602.31 24.0286 C 601.326 24.3401 600.066 23.0631 598.284 23.3889 C 596.829 23.6551 594.714 25.5858 592.554 26.6983 C 590.95 27.5241 588.673 28.1978 587.107 30.4119 C 589.193 32.4195 591.644 31.2199 593.587 31.6351 C 594.729 31.8792 594.456 32.7895 595.222 32.8134 C 607.808 33.207 620.439 24.7326 628.192 22.8973 M 606.004 179.239 C 606.951 178.452 607.696 177.983 607.647 175.603 C 607.961 175.692 606.859 175.735 606.548 175.647 C 606.201 177.58 605.729 178.278 606.004 179.239 M 599.08 176.655 C 598.661 176.375 598.723 175.047 597.051 175.355 C 597.062 177.577 596.079 177.542 595.484 179.588 C 597.371 179.905 598.684 179.317 599.08 176.655 M 586.985 175.112 C 585.574 178.522 589.409 177.591 589.2 175.016 C 589.513 175.107 587.292 175.201 586.985 175.112 M 574.481 163.002 C 576.745 163.044 579.292 160.471 578.627 158.877 C 577.657 157.108 575.28 160.074 574.481 163.002 M 580.71 122.132 C 580.169 119.024 575.648 120.625 572.381 120.787 C 568.907 120.959 563.994 121.671 560.178 121.285 C 558.486 121.114 556.665 119.922 554.427 119.518 C 548.1 118.374 540.318 119.722 533.329 118.427 C 531.177 118.028 528.734 116.377 526.254 115.814 C 524.751 115.473 522.448 115.593 520.114 115.098 C 513.099 113.609 503.406 111.973 494.764 111.302 C 477.298 109.947 458.481 107.822 442.387 110.365 C 439.548 110.814 436.368 112.497 432.735 112.816 C 421.271 113.821 410.984 111.604 401.919 112.456 C 402.67 115.859 402.581 119.773 404.167 121.845 C 424.791 122.35 446.059 124.757 467.411 124.932 C 478.357 125.022 488.247 123.041 497.52 123.734 C 509.805 124.651 521.369 126.807 531.877 126.773 C 539.277 126.749 546.239 124.705 552.99 124.036 C 562.894 123.056 572.263 123.973 580.71 122.132 M 520.011 28.6623 C 535.704 28.3958 553.885 34.2219 567.792 30.8584 C 559.819 27.3501 547.897 28.9535 536.429 28.8673 C 531.279 26.7296 523.646 25.6767 516.971 26.46 C 511.633 23.4573 500.665 23.3645 494.815 25.7226 C 503.682 29.5349 512.087 25.6155 520.011 28.6623 M 469.257 26.0131 C 474.915 25.8432 480.084 25.412 482.145 22.3705 C 468.599 20.3799 454.686 15.3426 441.013 19.2334 C 448.851 23.0535 463.794 20.0557 469.257 26.0131 M 388.591 15.1299 C 398.024 15.0788 408.302 19.6766 417.307 17.1973 C 414.611 9.95832 404.292 13.5653 396.51 12.92 C 392.395 12.5788 388.034 9.86237 383.815 9.67664 C 377.762 9.41011 371.171 12.0634 366.784 14.5582 C 374.571 15.9171 380.788 15.1722 388.591 15.1299 M 371.514 178.314 C 373.263 178.551 373.733 177.39 373.481 175.551 C 372.107 175.492 371.645 176.649 371.514 178.314 M 364.372 179.29 C 364.835 177.613 364.513 176.491 362.773 176.683 C 362.635 178.061 361.605 178.529 361.414 180.108 C 363.211 180.676 363.166 179.175 364.372 179.29 M 347.606 182.912 C 349.495 182.468 351.093 181.746 351.161 179.336 C 349.572 177.662 347.653 180.299 347.606 182.912 M 352.768 14.8176 C 350.938 9.43289 336.353 13.8722 334.117 15.8725 C 339.848 17.2774 346.41 16.1877 352.768 14.8176 M 322.592 168.954 C 325.017 168.754 326.031 166.925 326.482 164.582 C 325.634 164.484 325.731 162.848 323.84 163.513 C 323.907 165.782 322.4 166.303 322.592 168.954 M 315.605 15.9596 C 317.007 19.6885 321.813 18.3631 325.682 18.1935 C 324.896 14.044 319.86 15.5758 315.605 15.9596 M 321.407 123.788 C 319.199 123.634 317.084 120.58 314.465 119.957 C 310.027 118.9 303.258 121.412 296.983 120.944 C 295.476 120.832 293.713 119.943 291.678 119.671 C 281.892 118.359 272.625 116.808 263.277 115.8 C 259.126 115.353 254.771 114.217 251.131 114.24 C 240.28 114.31 233.034 120.533 224.983 127.09 C 232.483 131.507 239.725 132.666 248.823 131.638 C 258.097 130.589 267.967 126.287 277.405 125.767 C 280.991 125.569 284.921 125.283 288.005 125.548 C 291.819 125.876 295.587 127.979 299.619 127.914 C 307.197 127.79 314.626 125.354 321.407 123.788 M 224.418 28.7477 C 215.307 23.8588 206.315 29.4108 202.77 36.0856 C 211.602 36.3401 218.903 33.4979 224.418 28.7477 M 196.778 94.1243 C 197.997 96.39 201.382 96.0617 201.628 92.9089 C 200.849 91.9155 196.908 91.5227 196.778 94.1243 M 193.332 105.15 C 192.539 107.874 196.174 107.086 195.812 105.569 C 195.08 105.5 194.698 104.59 193.332 105.15 M 181.382 92.9292 C 181.415 97.6555 187.572 102.063 188.182 95.666 C 187.16 93.0765 183.627 94.2326 181.382 92.9292 M 179.129 110.516 C 179.258 108.218 178.59 107.28 177.128 107.768 C 177.235 107.876 177.303 111.131 177.278 111.129 C 177.276 111.15 179.277 110.576 179.129 110.516 M 164.509 91.5495 C 164.374 102.232 171.515 103.157 172.599 95.1822 C 171.548 91.8725 166.486 90.0586 164.509 91.5495 M 161.456 119.165 C 161.97 119.945 164.747 120.969 164.651 117.547 C 163.704 116.5 161.81 113.569 161.456 119.165 M 157.521 91.6456 C 154.771 86.7803 150.95 92.2139 147.772 94.924 C 149.009 113.512 157.088 102.578 157.521 91.6456 M 142.456 132.532 C 144.246 131.993 147.885 134.894 148.214 130.486 C 146.548 130.316 146.004 125.19 143.993 124.94 C 144.068 129.147 142.488 128.885 142.456 132.532 M 137.869 101.798 C 136.501 96.4342 132.766 98.4298 130.087 96.9285 C 130.444 110.726 136.767 113.913 137.869 101.798 M 129.148 125.544 C 127.273 124.733 126.969 120.139 124.983 119.326 C 125.16 121.858 124.878 122.991 124.531 124.064 C 125.932 123.972 129.136 129.311 129.148 125.544 M 117.408 102.175 C 114.052 103.592 110.867 96.9027 108.686 100.864 C 111.891 106.311 115.285 112.716 117.408 102.175 M 103.653 119.33 C 105.31 119.12 108.757 122.771 109.082 120.071 C 107.306 118.054 106.417 114.531 104.124 113.39 C 104.852 117.159 103.314 116.395 103.653 119.33 M 95.8701 109.313 C 94.9624 103.704 99.8232 104.257 97.8254 100.075 C 94.9626 100.043 88.1143 96.753 86.8811 101.886 C 88.9001 105.668 91.1629 109.38 95.8701 109.313 M 86.4871 117.413 C 85.9261 112.723 78.3817 112.114 79.609 118.285 C 80.4988 118.922 81.2628 119.608 81.7639 120.516 C 84.5166 121.254 86.1444 120.333 86.4871 117.413 M 63.2955 99.6012 C 63.1402 108.235 74.4839 113.411 74.434 101.551 C 70.4016 101.394 68.1438 98.7536 63.2955 99.6012 M 62.9103 119.08 C 62.8746 113.376 56.0471 111.461 56.5829 118.53 C 56.6118 118.575 62.9547 119.109 62.9103 119.08 M 54.8954 101.276 C 52.3124 100.122 45.7184 100.722 44.3558 103.669 C 45.6453 105.031 44.905 108.723 46.5481 109.548 C 50.0777 107.801 54.0402 106.5 54.8954 101.276 M 38.6869 67.8822 C 39.8561 66.646 39.7921 63.3154 37.2844 64.0439 C 37.177 66.0282 37.1389 67.9164 38.6869 67.8822"></path>
<path fill="#1F9B31" d="M 984.636 95.7568 C 978.957 108.047 962.812 99.2445 952.156 97.546 C 948.838 97.0172 945.185 97.5214 940.704 96.9064 C 927.593 95.1068 915.179 90.3005 898.595 86.8125 C 885.962 84.1555 874.239 77.9464 861.003 74.0093 C 838.01 67.1701 814.927 67.6833 791.899 61.4687 C 779.11 58.0173 768.264 52.0253 756.286 50.5641 C 745.546 49.2538 733.932 49.3484 722.237 48.0174 C 705.844 46.1517 691.507 43.2627 682.744 50.7776 C 677.97 54.8719 674.093 60.5728 670.288 63.378 C 666.396 66.2475 663.068 67.7159 659.403 70.6859 C 656.892 72.7211 654.19 76.0928 651.378 78.5881 C 649.019 80.6821 646.488 82.4051 643.757 85.5867 C 642.942 86.5358 642.236 88.8258 641.199 89.7603 C 638.908 91.8237 637.253 91.1372 634.539 93.3383 C 636.694 78.2994 634.558 71.3079 630.577 66.9923 C 627.484 66.89 623.811 69.9887 620.305 68.709 C 619.202 68.3064 618.272 65.141 616.616 64.3004 C 613.014 62.472 608.47 63.896 602.779 64.1106 C 603.834 67.5818 607.058 66.8902 608.194 67.1012 C 610.478 67.5255 612.818 67.1119 614.128 67.7385 C 616.649 68.9443 618.486 72.5925 620.095 72.8847 C 624.008 73.5951 628.552 70.2666 630.304 71.1785 C 631.981 72.051 633.976 79.459 634.088 82.6892 C 634.27 87.9059 632.927 96.3094 631.922 101.943 C 630.415 110.381 626.372 125.764 623.158 133.531 C 621.262 138.114 618.779 141.52 616.981 147.543 C 614.91 154.477 614.097 174.594 607.242 171.341 C 607.533 166.904 611.926 158.377 609.746 155.872 C 608.068 156.117 608.289 163.648 605.755 165.856 C 605.459 169.407 605.193 171.187 603.347 173.668 C 601.589 175.218 600.273 173.063 598.813 171.804 C 601.189 167.854 605.71 156.125 604.014 153.723 C 601.759 154.597 601.537 162.71 599.307 165.603 C 597.985 167.898 596.111 169.456 594.06 171.37 C 591.42 172.046 590.468 170.267 588.113 169.644 C 590.83 164.538 591.458 158.6 589.019 156.94 C 584.613 158.287 579.867 158.761 580.972 152.232 C 583.278 149.895 585.32 147.5 588.321 147.831 C 591.753 142.918 595.063 138.246 598.005 133.993 C 600.673 125.831 601.045 117.827 600.995 111.788 C 600.982 110.213 603.097 106.059 600.409 106.792 C 597.771 107.512 599.406 113.701 597.594 115.438 C 587.734 121.849 581.767 116.719 570.509 115.776 C 569.305 111.906 558.961 110.385 554.102 109.945 C 553.839 116.86 564.03 113.702 566.211 117.231 C 557.376 116.486 546.836 116.851 535.846 115.233 C 532.756 114.778 529.549 113.186 526.02 112.604 C 522.441 112.014 518.619 112.306 514.223 111.78 C 507.314 110.952 499.831 108.492 492.198 107.967 C 489.531 107.784 486.64 108.464 483.286 108.346 C 477.442 108.141 471.325 105.84 464.921 105.753 C 450.76 105.56 432.506 110.062 417.954 109.872 C 412.235 109.797 406.872 108.626 400.731 108.428 C 398.475 105.251 396.639 101.422 394.342 97.6977 C 382.11 93.8646 375.512 84.1268 363.258 81.1078 C 363.448 85.8592 368.574 84.6576 371.266 86.1325 C 377.119 91.4827 382.731 96.968 391.654 99.083 C 392.827 102.981 398.437 106.187 394.61 110.496 C 394.989 112.977 398.639 111.953 399.165 113.835 C 401.039 129.917 390.257 141.073 384.092 153.019 C 385.578 161.434 382.713 171.031 374.944 171.454 C 374.284 164.545 374.505 156.169 368.674 154.237 C 368.504 159.232 373.113 164.024 371.292 172.266 C 370.477 172.155 370.327 172.927 370.013 173.668 C 366.93 175.778 364.777 173.137 361.823 172.691 C 364.054 162.47 361.482 153.838 354.509 155.661 C 355.202 160.15 359.174 159.583 360.017 163.379 C 360.777 166.803 358.979 170.967 357.065 174.963 C 354.886 176.214 350.216 176.6 348.568 174.806 C 348.673 169.074 347.875 164.029 344.052 162.405 C 338.575 163.006 333.391 165.705 329.254 162.309 C 324.473 158.384 327.943 152.177 334.434 152.493 C 340.909 148.879 340.346 137.072 342.212 128.41 C 340.225 126.203 340.155 130.5 337.707 130.141 C 331.586 127.062 326.186 122.091 319.84 118.629 C 317.899 117.57 315.504 117.302 313.423 116.062 C 310.086 114.074 308.097 109.112 303.824 108.635 C 303.24 111.069 307.139 112.797 307.554 115.481 C 298.374 118.962 289.487 114.836 280.487 113.935 C 272.806 113.165 266.04 112.992 258.256 111.798 C 253.156 111.016 246.392 109.832 238.168 112.786 C 232.745 114.733 227.106 123.359 220.833 125.161 C 218.694 125.775 217.227 124.825 214.947 125.028 C 207.688 125.673 198.842 132.317 190.606 136.092 C 188.992 136.832 186.806 136.992 185.247 137.977 C 182.363 139.799 179.692 143.276 176.722 145.556 C 173.041 148.381 168.845 150.258 164.839 153.425 C 161.843 155.793 159.649 158.785 156.623 160.502 C 153.678 162.174 149.884 163.264 146.203 163.193 C 140.246 163.077 132.427 161.797 126.039 157.51 C 102.285 141.571 75.1097 139.054 50.5117 129.757 C 51.7189 113.596 77.3724 128.649 85.2918 122.26 C 101.444 123.551 117.93 123.879 134.423 137.173 C 144.78 145.522 152.799 129.699 161.796 123.588 C 166.771 120.209 172.375 120.568 177.013 117.902 C 182.338 114.842 187.371 111.227 192.284 109.884 C 194.698 109.224 196.958 110.006 199.055 109.243 C 201.68 108.288 203.469 105.147 206.145 103.834 C 214.763 99.6042 226.16 104.507 227.723 92.0148 C 225.602 88.5813 218.209 88.286 212.979 88.1332 C 208.893 88.0139 203.896 87.9893 199.806 88.8527 C 198.223 89.1868 196.737 90.5297 194.912 90.7591 C 184.508 92.0667 172.237 88.2443 159.937 83.2534 C 150.873 79.5758 140.98 87.5012 130.89 90.2723 C 129.094 90.7656 126.392 88.8724 124.32 89.7525 C 120.353 91.4372 116.623 95.2415 112.795 95.1114 C 110.283 95.026 108.099 92.6441 105.382 92.3601 C 96.5111 91.4328 87.4726 95.4792 77.9146 96.7058 C 71.6311 97.5122 66.0931 94.7804 60.4874 95.1511 C 55.503 95.4807 51.5241 98.7359 47.1287 97.8607 C 43.5676 97.1517 41.8447 94.1801 38.6187 92.1197 C 38.5386 84.0966 36.5793 78.2943 34.3673 72.9337 C 42.4157 76.4793 43.8335 64.0622 42.3605 59.6762 C 46.1916 56.9245 51.6324 57.7053 53.8193 60.8389 C 63.6233 58.7625 66.5225 66.2934 63.4632 76.4206 C 68.2177 77.2905 68.2193 69.7616 67.9385 67.1709 C 67.2479 60.7988 61.3012 58.9678 59.6937 55.1774 C 71.7082 58.5074 86.5485 47.3064 97.1832 40.3799 C 101.497 37.5701 107.292 33.1423 110.885 31.7872 C 118.748 28.8214 126.958 28.6889 134.466 26.8015 C 141.08 25.1386 146.455 23.5281 151.973 24.4697 C 158.8 25.6348 165.115 30.5678 171.108 32.298 C 175.015 33.4258 180.031 33.0849 185.53 34.6454 C 191.807 36.4267 197.876 39.5134 203.832 39.8603 C 209.692 40.2016 217.803 38.3371 223.41 35.0917 C 225.834 33.6882 227.813 30.8958 229.994 29.5603 C 232.131 28.2514 235.349 27.1158 237.631 25.9465 C 240.282 24.5876 242.92 22.5545 244.646 22.1638 C 254.692 19.8907 263.126 27.9 270.599 33.2885 C 275.187 26.0476 286.652 25.4892 295.646 22.6953 C 299.05 21.6378 302.336 18.9137 305.279 18.6714 C 310.571 18.2356 315.021 23.2459 321.907 22.7942 C 326.616 22.4853 331.66 19.9768 337.072 19.7082 C 339.639 19.5807 341.677 20.6362 344.048 20.4076 C 349.51 19.8808 355.773 17.6476 361.919 17.6207 C 367.74 17.5953 373.14 19.3884 378.302 19.5752 C 382.674 19.7332 386.718 18.3722 390.688 18.5581 C 393.752 18.7015 396.764 20.1689 399.491 20.5501 C 409.624 21.9666 419.77 20.0051 429.554 20.9574 C 432.23 21.2179 434.506 22.8081 436.895 23.2719 C 444.846 24.8151 453.211 23.5665 459.632 24.8682 C 462.831 25.5167 465.952 28.2375 468.736 28.7774 C 474.214 29.8399 479.524 28.0805 484.001 26.6852 C 496.853 32.5067 512.063 30.0728 528.606 31.6511 C 535.37 32.2963 541.857 35.4995 547.766 35.9148 C 549.78 36.0563 551.83 35.1695 553.467 35.1016 C 559.006 34.872 565.15 36.339 569.557 35.8089 C 573.014 35.3931 577.73 33.0535 582.496 33.1945 C 588.185 33.3628 592.517 36.1411 596.516 35.5602 C 599.269 35.1604 601.493 33.1457 603.629 32.6852 C 605.712 32.2362 607.724 32.9497 609.207 32.7745 C 616.465 31.9166 623.041 28.185 628.389 26.6667 C 635.594 24.621 641.707 23.678 646.832 20.155 C 650.566 17.5877 654.632 13.46 657.111 12.9551 C 658.501 12.672 659.112 14.6981 659.648 14.7867 C 662.215 15.2113 665.012 12.1931 668.304 11.0562 C 669.737 10.561 670.671 11.8318 671.577 11.5089 C 672.869 11.0483 673.914 9.37201 674.762 8.91129 C 682.308 4.81407 690.437 7.3908 701.317 7.16662 C 712.22 6.94194 724.941 2.41291 735.939 8.50514 C 738.921 8.51096 740.338 5.53797 742.497 5.54788 C 775.028 5.69705 795.316 26.1767 829.853 36.4427 C 829.495 40.9401 821.957 36.1679 820.764 40.8291 C 828.228 47.104 841.46 45.8527 850.533 49.5939 C 856.975 52.2505 860.634 58.7395 866.012 56.5698 C 865.207 50.3418 857.05 47.8106 850.207 44.9992 C 843.763 42.3517 834.451 42.3999 831.021 36.6344 C 848.779 40.7887 866.576 43.7473 883.054 48.8627 C 888.398 50.522 892.994 53.9396 897.86 55.7226 C 903.633 57.8374 909.654 58.7079 914.239 60.616 C 927.887 66.295 939.872 74.3404 952.708 79.3101 C 964.72 83.9609 978.366 85.4054 984.636 95.7568 M 769.013 26.9952 C 774.258 31.2348 779.559 40.0735 786.518 39.7402 C 784.112 31.6885 777.117 27.3721 770.653 22.8351 C 770.15 24.954 767.986 24.6749 769.013 26.9952 M 684.64 26.9787 C 686.181 22.2435 683.321 23.1003 682.308 21.5263 C 680.29 18.3898 678.626 14.7844 674.868 15.3264 C 674.787 15.5003 674.393 16.1201 673.733 16.698 C 673.895 17.9234 673.997 18.5285 673.73 19.1453 C 678.382 18.7048 680.358 27.7596 684.64 26.9787 M 657.79 29.1927 C 658.57 32.8951 659.022 40.5212 661.153 32.0566 C 658.929 29.2825 659.123 17.7566 654.279 20.465 C 654.59 20.4731 654.477 23.6495 654.042 23.6549 C 656.543 23.8859 657.062 25.7425 657.79 29.1927 M 634.064 46.8333 C 634.742 42.642 632.71 44.8545 631.862 42.8425 C 630.117 39.4914 627.481 36.9634 624.607 33.56 C 622.081 34.9506 618.659 33.1539 615.926 35.2339 C 616.247 35.2537 616.365 37.4325 616.057 37.4113 C 619.068 38.1734 621.142 37.9529 623.231 37.0917 C 627.946 39.1589 630.279 49.0893 634.064 46.8333 M 571.354 60.14 C 572.702 54.461 566.836 51.3608 564.542 46.6813 C 560.855 45.4988 558.976 41.3986 554.606 40.0201 C 554.955 40.0966 553.495 39.9999 553.413 40.0584 C 553.439 40.0945 554.001 42.8581 553.588 42.8549 C 556.752 44.7546 559.431 46.7709 561.64 48.8946 C 565.034 53.0564 567.395 57.9678 571.354 60.14 M 520.15 58.4957 C 522.564 59.2516 523.682 61.0255 526.566 60.677 C 519.831 48.238 509.02 38.1882 493.273 32.6993 C 493.488 32.7072 493.757 35.5017 493.477 35.5107 C 499.156 38.1434 504.534 40.2712 508.634 43.6868 C 510.48 45.2242 510.494 47.2398 511.854 48.6246 C 514.017 50.8255 518.128 50.5934 518.492 53.696 C 519.65 55.0036 519.819 56.9806 520.15 58.4957 M 459.629 58.0009 C 461.082 55.3032 457.752 51.0426 459.331 47.0494 C 451.819 39.4528 442.599 32.966 432.761 27.3379 C 431.964 27.27 431.412 27.6262 430.617 27.9593 C 430.282 28.1105 430.028 28.5296 429.957 29.3281 C 430.337 31.1246 432.644 30.7799 434.373 30.8638 C 440.383 37.9896 451.08 40.8428 455.676 48.9468 C 455.716 51.7913 454.65 58.1222 459.629 58.0009 M 413.426 53.0371 C 414.285 47.2775 406.471 43.8799 404.106 38.5279 C 397.006 37.1126 393.741 31.5436 385.1 31.8057 C 382.1 28.5476 378.279 25.8965 372.094 26.0441 C 372.277 26.0599 372.346 28.8052 372.153 28.8057 C 376.813 29.4881 380.178 32.8299 384.512 34.5559 C 385.634 35.0031 386.997 34.2657 387.804 34.4936 C 390.902 35.3697 399.582 39.8554 401.438 41.2458 C 406.427 44.9846 406.875 51.859 413.426 53.0371 M 355.289 54.446 C 355.714 50.5284 351.859 50.8436 349.911 48.6868 C 346.695 45.1262 344.402 40.0259 340.378 37.2292 C 335.467 33.8165 323.335 29.9335 317.693 30.206 C 317.84 30.1926 317.905 32.2585 317.744 32.2613 C 325.974 35.3418 334.777 36.721 341.042 41.9515 C 346.048 46.1303 348.36 55.3295 355.289 54.446 M 303.434 48.4819 C 305.234 50.3927 305.616 54.0541 309.482 52.4764 C 308.416 49.5739 305.675 46.1402 302.793 43.7672 C 298.784 40.4656 288.383 35.1111 283.097 35.3129 C 282.418 35.3388 279.9 34.6037 279.379 37.1418 C 279.526 37.1831 279.553 38.5345 279.429 38.5288 C 289.899 38.541 296.205 44.3825 303.434 48.4819 M 267.07 64.069 C 267.889 60.7602 264.521 60.2217 263.185 58.3472 C 261.792 56.3905 261.529 53.9688 259.697 52.4016 C 257.633 50.6358 254.31 50.2807 251.357 49.0023 C 251.522 49.0325 250.332 49.0741 250.295 49.0871 C 250.299 49.0977 250.488 51.8821 250.322 51.8674 C 258.816 52.2166 260.082 62.4153 267.07 64.069 M 255.951 34.6843 C 257.869 34.5952 258.23 36.5272 260.347 35.6919 C 259.824 30.9782 249.284 28.6016 245.368 28.4162 C 239.343 28.131 234.676 31.1486 233.967 36.5262 C 237.215 38.7299 238.327 33.1908 241.649 33.4839 C 244.034 39.2825 252.986 40.1593 255.951 34.6843 M 231.42 65.0153 C 231.69 60.0196 226.525 58.6286 224.033 55.7969 C 222.753 54.343 222.137 51.944 220.636 50.6953 C 218.062 48.5529 214.573 48.0768 211.617 45.8636 C 211.734 45.8712 210.597 45.7836 210.495 45.7517 C 210.533 47.0427 210.701 48.0407 211.011 48.7273 C 213.071 50.8701 215.436 50.7391 217.229 52.035 C 222.488 55.8367 225.157 63.5339 231.42 65.0153 M 46.4752 75.364 C 47.3131 79.122 55.0319 79.7777 55.7101 74.6028 C 55.1793 68.9831 46.8813 68.8313 46.4752 75.364"></path>
<path fill="#166D20" d="M 972.509 77.908 C 968.468 80.5239 964.672 74.1054 958.08 74.4924 C 959.423 71.2125 970.167 74.5684 972.509 77.908"></path>
<path fill="#166D20" d="M 945.096 69.0156 C 932.495 67.5228 922.875 58.8008 911.794 54.5097 C 909.4 53.583 906.031 54.0839 902.845 53.0861 C 898.677 51.7811 894.37 47.7028 889.148 46.391 C 881.295 44.4183 875.424 44.0036 868.821 39.8952 C 872.279 35.753 880.415 42.7413 885.663 40.1876 C 887.288 43.8893 894.477 43.2147 894.689 47.2935 C 907.251 46.4185 922.19 47.7743 925.022 57.8014 C 933.813 60.389 941.468 63.4683 945.096 69.0156"></path>
<path fill="#166D20" d="M 857.073 36.9939 C 850.735 36.2041 844.384 35.6621 834.724 33.7372 C 830.3 32.8555 825.565 28.9463 819.984 27.2338 C 817.135 26.3593 814.009 27.3909 810.878 26.0404 C 808.017 24.8063 806.332 21.3496 802.914 19.5646 C 796.641 16.2895 786.231 16.9265 784.344 9.02501 C 784.787 8.97829 786.541 9.16387 786.276 9.18953 C 806.198 18.6374 836.896 26.4676 857.073 36.9939"></path>
<path d="M 786.518 39.7402 C 779.559 40.0735 774.26 31.2318 769.015 26.9954 C 767.985 24.6764 770.153 24.9542 770.655 22.8354 C 777.117 27.3722 784.113 31.6869 786.518 39.7402"></path>
<path fill="#166D20" d="M 762.327 1.06415 C 759.117 3.50691 749.98 3.71843 749.481 -1.4573 C 754.683 -1.41527 760.214 -1.6484 762.327 1.06415"></path>
<path fill="#166D20" d="M 740.668 -0.526071 C 733.109 5.92658 727.041 -0.606238 720.953 -0.833808 C 716.757 -0.990687 711.67 1.25878 707.166 1.63023 C 696.896 2.47722 689.043 -0.474786 681.379 1.68531 C 678.682 2.4456 675.643 5.60678 672.8 6.8108 C 671.522 7.35224 670.53 6.41799 668.779 6.85244 C 665.78 7.59635 662.405 11.0808 659.458 10.3341 C 659.628 9.81674 659.598 8.76888 659.424 7.30636 C 662.89 7.34392 668.271 0.307853 672.025 0.0808202 C 674.138 -0.046954 675.349 3.02443 676.903 2.95363 C 680.821 2.77505 686.35 -1.64445 691.471 -2.89211 C 698.54 -4.61483 706.529 -5.06124 715.883 -4.17128 C 724.601 -3.34173 732.612 -3.8852 740.668 -0.526071"></path>
<path d="M 682.31 21.5259 C 683.323 23.0996 686.182 22.2406 684.641 26.9784 C 680.36 27.7592 678.382 18.7047 673.729 19.1471 C 673.997 18.5285 673.895 17.9234 673.732 16.6985 C 674.393 16.1213 674.788 15.4998 674.868 15.3277 C 678.627 14.784 680.291 18.3894 682.31 21.5259"></path>
<path d="M 661.153 32.0566 C 659.022 40.5212 658.57 32.8951 657.79 29.1934 C 657.063 25.7418 656.543 23.8859 654.042 23.6549 C 654.477 23.6495 654.59 20.4731 654.279 20.465 C 659.122 17.7572 658.929 29.2837 661.153 32.0566"></path>
<path fill="#166D20" d="M 651.477 11.9665 C 647.437 16.4274 641.76 19.1685 635.503 21.3759 C 635.735 18.5558 637.41 18.6793 637.372 16.4096 C 643.001 13.2519 649.341 6.47173 651.477 11.9665"></path>
<path d="M 631.862 42.8425 C 632.711 44.8529 634.741 42.6436 634.064 46.8344 C 630.278 49.0904 627.947 39.1593 623.232 37.0923 C 621.141 37.9557 619.068 38.1734 616.057 37.4113 C 616.365 37.4325 616.247 35.2547 615.926 35.235 C 618.661 33.1555 622.081 34.9517 624.607 33.56 C 627.481 36.9634 630.117 39.4903 631.862 42.8425"></path>
<path fill="#166D20" d="M 633.795 20.791 C 632.57 25.6362 630.682 22.3066 628.192 22.8966 C 620.44 24.7335 607.809 33.2055 595.222 32.8122 C 594.456 32.7882 594.728 31.8756 593.588 31.6326 C 591.646 31.2187 589.193 32.4203 587.107 30.411 C 588.674 28.1932 590.951 27.5246 592.556 26.6973 C 594.712 25.5858 596.828 23.653 598.282 23.3878 C 600.063 23.0628 601.326 24.3403 602.311 24.0284 C 607.232 22.4703 611.15 17.3332 614.667 14.4203 C 616.946 14.8096 617.899 18.2347 619.362 18.9063 C 621.152 19.7275 623.685 18.6198 624.966 18.9508 C 627.921 19.7138 630.522 22.1665 633.795 20.791"></path>
<path fill="#FFFFFF" d="M 607.648 175.603 C 607.697 177.985 606.952 178.449 606.004 179.241 C 605.727 178.279 606.201 177.578 606.548 175.647 C 606.859 175.735 607.962 175.692 607.648 175.603"></path>
<path fill="#FFFFFF" d="M 597.051 175.353 C 598.722 175.045 598.663 176.373 599.08 176.661 C 598.684 179.317 597.374 179.902 595.483 179.59 C 596.079 177.542 597.061 177.577 597.051 175.353"></path>
<path fill="#FFFFFF" d="M 589.201 175.013 C 589.409 177.591 585.573 178.52 586.986 175.109 C 587.293 175.197 589.514 175.104 589.201 175.013"></path>
<path fill="#FFFFFF" d="M 578.627 158.877 C 579.292 160.471 576.746 163.044 574.481 163.002 C 575.28 160.074 577.657 157.108 578.627 158.877"></path>
<path fill="#D8CC5B" d="M 572.381 120.787 C 575.648 120.625 580.169 119.024 580.71 122.132 C 572.263 123.973 562.893 123.057 552.99 124.037 C 546.239 124.704 539.277 126.749 531.877 126.773 C 521.369 126.807 509.805 124.651 497.52 123.734 C 488.247 123.041 478.357 125.022 467.411 124.932 C 446.059 124.757 424.791 122.35 404.167 121.845 C 402.581 119.772 402.67 115.86 401.919 112.458 C 410.984 111.603 421.271 113.822 432.735 112.817 C 436.368 112.499 439.548 110.813 442.387 110.365 C 458.481 107.822 477.298 109.947 494.764 111.302 C 503.406 111.973 513.098 113.612 520.114 115.1 C 522.449 115.595 524.751 115.471 526.254 115.812 C 528.734 116.375 531.177 118.03 533.329 118.429 C 540.318 119.723 548.1 118.374 554.427 119.518 C 556.665 119.922 558.486 121.114 560.178 121.285 C 563.994 121.671 568.907 120.959 572.381 120.787"></path>
<path d="M 564.542 46.6813 C 566.836 51.3618 572.7 54.4581 571.354 60.14 C 567.395 57.9657 565.034 53.0564 561.638 48.8947 C 559.434 46.7708 556.749 44.7537 553.587 42.8528 C 554.001 42.856 553.438 40.0924 553.413 40.0563 C 553.495 39.9978 554.955 40.0944 554.606 40.018 C 558.978 41.3996 560.856 45.4998 564.542 46.6813"></path>
<path fill="#166D20" d="M 567.79 30.8596 C 553.885 34.2229 535.704 28.3958 520.011 28.6634 C 512.087 25.6165 503.685 29.5361 494.817 25.7237 C 500.663 23.3655 511.635 23.4584 516.971 26.461 C 523.646 25.6788 531.279 26.7339 536.429 28.8684 C 547.899 28.9535 559.821 27.3499 567.79 30.8596"></path>
<path d="M 526.563 60.6779 C 523.679 61.0234 522.562 59.2495 520.15 58.4937 C 519.822 56.9796 519.652 55.0017 518.496 53.6971 C 518.128 50.5946 514.02 50.8254 511.857 48.6257 C 510.493 47.2389 510.48 45.2231 508.635 43.6865 C 504.534 40.2709 499.154 38.1443 493.478 35.5126 C 493.758 35.5041 493.49 32.7081 493.275 32.7004 C 509.021 38.1882 519.828 48.2389 526.563 60.6779"></path>
<path fill="#166D20" d="M 482.145 22.3695 C 480.084 25.413 474.915 25.8422 469.257 26.0142 C 463.794 20.0547 448.851 23.0535 441.013 19.2313 C 454.686 15.3447 468.599 20.381 482.145 22.3695"></path>
<path d="M 459.332 47.0485 C 457.753 51.0396 461.083 55.3042 459.63 58.001 C 454.651 58.1212 455.719 51.7914 455.677 48.9447 C 451.081 40.8408 440.383 37.9865 434.374 30.8618 C 432.644 30.7799 430.338 31.1236 429.958 29.3281 C 430.028 28.5254 430.282 28.1084 430.616 27.9572 C 431.41 27.6251 431.965 27.269 432.761 27.3338 C 442.598 32.9649 451.818 39.4538 459.332 47.0485"></path>
<path d="M 404.107 38.5259 C 406.47 43.8799 414.286 47.2797 413.427 53.0361 C 406.876 51.8574 406.428 44.9851 401.437 41.2441 C 399.583 39.8539 390.9 35.3687 387.804 34.4918 C 386.998 34.2636 385.633 35.0016 384.511 34.5545 C 380.178 32.8278 376.81 29.4868 372.153 28.8066 C 372.346 28.8064 372.277 26.0598 372.094 26.0441 C 378.279 25.8944 382.1 28.5455 385.1 31.8057 C 393.741 31.5436 397.005 37.1136 404.107 38.5259"></path>
<path fill="#166D20" d="M 417.306 17.1962 C 408.303 19.6769 398.025 15.0806 388.591 15.13 C 380.79 15.1709 374.571 15.9173 366.783 14.5571 C 371.171 12.0633 377.761 9.41033 383.814 9.6776 C 388.034 9.86389 392.394 12.5772 396.509 12.9191 C 404.294 13.566 414.61 9.95961 417.306 17.1962"></path>
<path fill="#FFFFFF" d="M 373.482 175.551 C 373.733 177.39 373.264 178.554 371.514 178.314 C 371.645 176.649 372.108 175.492 373.482 175.551"></path>
<path fill="#FFFFFF" d="M 362.771 176.683 C 364.512 176.491 364.835 177.613 364.371 179.295 C 363.166 179.176 363.211 180.676 361.416 180.108 C 361.606 178.529 362.634 178.062 362.771 176.683"></path>
<path d="M 349.911 48.6876 C 351.858 50.8432 355.716 50.5248 355.289 54.4461 C 348.36 55.328 346.048 46.1308 341.042 41.9523 C 334.777 36.7214 325.975 35.3415 317.741 32.2586 C 317.903 32.2556 317.837 30.1919 317.69 30.2052 C 323.334 29.9327 335.469 33.815 340.378 37.2283 C 344.401 40.0256 346.694 45.1267 349.911 48.6876"></path>
<path fill="#FFFFFF" d="M 351.161 179.336 C 351.095 181.748 349.496 182.468 347.606 182.914 C 347.654 180.297 349.571 177.664 351.161 179.336"></path>
<path fill="#166D20" d="M 334.118 15.8724 C 336.354 13.8721 350.939 9.43283 352.766 14.8177 C 346.41 16.1888 339.847 17.2776 334.118 15.8724"></path>
<path fill="#FFFFFF" d="M 326.481 164.582 C 326.03 166.929 325.017 168.754 322.593 168.954 C 322.401 166.303 323.909 165.782 323.841 163.511 C 325.733 162.848 325.632 164.484 326.481 164.582"></path>
<path fill="#166D20" d="M 325.682 18.1936 C 321.813 18.3631 317.007 19.6885 315.605 15.9596 C 319.862 15.5755 324.895 14.0442 325.682 18.1936"></path>
<path fill="#D8CC5B" d="M 314.465 119.959 C 317.087 120.582 319.201 123.633 321.407 123.788 C 314.627 125.354 307.197 127.79 299.618 127.914 C 295.587 127.979 291.818 125.877 288.005 125.549 C 284.92 125.284 280.992 125.569 277.405 125.767 C 267.966 126.287 258.097 130.592 248.823 131.638 C 239.726 132.665 232.483 131.505 224.982 127.09 C 233.034 120.534 240.28 114.308 251.131 114.239 C 254.771 114.216 259.126 115.355 263.276 115.802 C 272.625 116.809 281.893 118.358 291.678 119.671 C 293.715 119.945 295.478 120.831 296.983 120.943 C 303.257 121.408 310.027 118.904 314.465 119.959"></path>
<path d="M 309.483 52.4763 C 305.616 54.0541 305.235 50.3936 303.434 48.4787 C 296.205 44.3824 289.899 38.5379 279.428 38.5279 C 279.553 38.5336 279.525 37.18 279.378 37.1388 C 279.901 34.6015 282.418 35.3378 283.097 35.3119 C 288.383 35.1099 298.784 40.4677 302.794 43.767 C 305.674 46.1374 308.416 49.5738 309.483 52.4763"></path>
<path d="M 263.185 58.347 C 264.519 60.2204 267.89 60.7597 267.07 64.0691 C 260.082 62.4152 258.816 52.2165 250.324 51.8662 C 250.49 51.8809 250.3 49.0987 250.297 49.088 C 250.334 49.0749 251.521 49.0336 251.356 49.0037 C 254.31 50.2791 257.634 50.6364 259.697 52.4003 C 261.529 53.9661 261.792 56.3897 263.185 58.347"></path>
<path d="M 260.349 35.6927 C 258.23 36.5284 257.869 34.5941 255.952 34.6853 C 252.986 40.1593 244.036 39.2824 241.65 33.4849 C 238.327 33.1886 237.216 38.7311 233.968 36.5272 C 234.677 31.1511 239.345 28.1335 245.37 28.4175 C 249.285 28.6019 259.824 30.9787 260.349 35.6927 M 246.581 32.5437 C 246.46 35.2596 250.682 36.3459 250.998 33.6653 C 249.91 32.9715 248.835 32.0306 246.581 32.5437"></path>
<path fill="#9CDBF2" d="M 250.997 33.6654 C 250.683 36.3459 246.461 35.2596 246.58 32.5427 C 248.834 32.0307 249.91 32.9715 250.997 33.6654"></path>
<path d="M 224.032 55.7958 C 226.525 58.6273 231.691 60.0208 231.42 65.0141 C 225.157 63.5367 222.488 55.8369 217.228 52.0344 C 215.437 50.7394 213.069 50.8694 211.011 48.7258 C 210.7 48.0423 210.533 47.0412 210.494 45.7528 C 210.596 45.7845 211.734 45.8723 211.617 45.8647 C 214.573 48.0757 218.061 48.5518 220.636 50.6942 C 222.138 51.9431 222.753 54.3439 224.032 55.7958"></path>
<path fill="#1F9B31" d="M 202.77 36.0867 C 206.315 29.4107 215.306 23.8598 224.418 28.7488 C 218.902 33.4989 211.601 36.34 202.77 36.0867"></path>
<path fill="#FFFFFF" d="M 201.628 92.9102 C 201.381 96.0632 197.995 96.3888 196.778 94.1255 C 196.908 91.5215 200.849 91.9168 201.628 92.9102"></path>
<path fill="#FFFFFF" d="M 195.812 105.568 C 196.174 107.087 192.538 107.875 193.332 105.15 C 194.698 104.59 195.08 105.5 195.812 105.568"></path>
<path fill="#FFFFFF" d="M 188.182 95.6674 C 187.572 102.06 181.415 97.657 181.382 92.926 C 183.627 94.2343 187.16 93.0794 188.182 95.6674"></path>
<path fill="#FFFFFF" d="M 177.128 107.768 C 178.591 107.28 179.26 108.217 179.131 110.515 C 179.279 110.575 177.276 111.15 177.278 111.129 C 177.303 111.131 177.235 107.876 177.128 107.768"></path>
<path fill="#FFFFFF" d="M 172.599 95.1841 C 171.514 103.159 164.373 102.235 164.51 91.5473 C 166.486 90.0614 171.549 91.8763 172.599 95.1841"></path>
<path fill="#FFFFFF" d="M 164.652 117.546 C 164.748 120.973 161.971 119.944 161.457 119.165 C 161.81 113.573 163.703 116.498 164.652 117.546"></path>
<path fill="#FFFFFF" d="M 147.773 94.9281 C 150.948 92.216 154.772 86.7744 157.521 91.6488 C 157.088 102.584 149.01 113.516 147.773 94.9281"></path>
<path fill="#FFFFFF" d="M 148.215 130.488 C 147.884 134.891 144.246 131.99 142.456 132.535 C 142.487 128.885 144.07 129.153 143.995 124.937 C 146.003 125.187 146.548 130.319 148.215 130.488"></path>
<path fill="#FFFFFF" d="M 130.087 96.932 C 132.766 98.4265 136.502 96.4265 137.867 101.801 C 136.767 113.917 130.444 110.727 130.087 96.932"></path>
<path fill="#FFFFFF" d="M 124.983 119.324 C 126.969 120.141 127.273 124.73 129.148 125.547 C 129.136 129.309 125.932 123.972 124.531 124.066 C 124.877 122.993 125.159 121.855 124.983 119.324"></path>
<path fill="#FFFFFF" d="M 108.686 100.864 C 110.867 96.9026 114.054 103.593 117.408 102.175 C 115.288 112.717 111.89 106.31 108.686 100.864"></path>
<path fill="#FFFFFF" d="M 109.083 120.071 C 108.757 122.771 105.312 119.123 103.653 119.33 C 103.314 116.395 104.852 117.157 104.126 113.392 C 106.419 114.529 107.306 118.056 109.083 120.071"></path>
<path fill="#FFFFFF" d="M 97.8264 100.075 C 99.8242 104.257 94.9644 103.704 95.8722 109.313 C 91.164 109.38 88.9022 105.668 86.8821 101.886 C 88.1133 96.753 94.9637 100.043 97.8264 100.075"></path>
<path fill="#FFFFFF" d="M 79.609 118.285 C 78.3817 112.114 85.9261 112.723 86.4871 117.413 C 86.1444 120.333 84.5166 121.254 81.7639 120.516 C 81.2618 119.608 80.4988 118.922 79.609 118.285"></path>
<path fill="#FFFFFF" d="M 74.4339 101.551 C 74.4829 113.411 63.1392 108.237 63.2955 99.6012 C 68.1438 98.7563 70.4016 101.394 74.4339 101.551"></path>
<path fill="#FFFFFF" d="M 56.5819 118.53 C 56.0492 111.462 62.8746 113.374 62.9114 119.081 C 62.9558 119.109 56.6107 118.575 56.5819 118.53"></path>
<path fill="#166D20" d="M 52.8976 73.1967 C 53.6127 75.6806 51.3183 74.8548 50.0326 75.101 C 50.2413 73.6707 51.3085 73.1482 52.8976 73.1967"></path>
<path fill="#FFFFFF" d="M 44.3568 103.668 C 45.7195 100.723 52.3145 100.123 54.8964 101.276 C 54.0412 106.5 50.0777 107.801 46.5471 109.552 C 44.905 108.726 45.6442 105.03 44.3568 103.668"></path>
<path d="M 55.7111 74.6027 C 55.033 79.7776 47.3131 79.122 46.4752 75.364 C 46.8824 68.8312 55.1803 68.983 55.7111 74.6027 M 50.0315 75.1011 C 51.3183 74.8548 53.6127 75.6806 52.8965 73.1968 C 51.3096 73.1468 50.2424 73.6706 50.0315 75.1011"></path>
<path fill="#166D20" d="M 37.2844 64.0439 C 39.7942 63.3164 39.8594 66.6458 38.6869 67.8822 C 37.14 67.9164 37.178 66.0293 37.2844 64.0439"></path>
</svg>
